mtllib gate-rock.mtl
v 0.800162 0.000000 1.227246
v 0.669286 0.000000 1.190077
v 0.800162 0.043625 1.214320
v -0.669286 0.000000 1.108344
v -0.724023 0.000000 1.117205
v -0.724023 0.018246 1.111799
v -0.724023 0.000000 -1.117205
v -0.669286 0.000000 -1.108344
v -0.724023 0.018246 -1.111799
v 0.669286 0.000000 -1.190077
v 0.800162 0.000000 -1.227246
v 0.800162 0.043625 -1.214320
v 0.917321 0.082679 1.202749
v 1.199838 0.000000 1.227246
v 1.000000 0.330714 1.129257
v 1.199838 1.012500 0.927246
v 1.000000 1.012500 0.927246
v -1.275977 2.025000 1.017205
v -2.000000 2.025000 0.900000
v -1.275977 3.037500 0.817205
v -2.000000 3.037500 0.700000
v 2.000000 1.012500 0.700000
v 2.000000 2.025000 0.900000
v 1.199838 2.025000 1.127246
v -1.000000 2.025000 1.017205
v -1.000000 2.986173 0.827344
v -0.965928 3.037500 0.817205
v -0.917321 0.082679 -1.092708
v -0.917321 0.082679 1.092708
v -1.000000 0.330714 -1.019215
v -1.000000 0.330714 1.019215
v -0.724023 3.401909 -0.853196
v -0.965928 3.037500 -0.817205
v -0.694123 3.446951 -0.852804
v -0.694123 3.446951 0.852804
v -0.724023 3.401909 0.853196
v -1.000000 2.986173 -0.827344
v -0.000000 3.650000 0.760494
v -0.000000 3.650000 -0.760494
v -1.275977 0.000000 1.117205
v -1.275977 1.012500 0.817205
v -1.000000 1.012500 0.817205
v 1.000000 2.025000 1.127246
v 1.199838 3.037500 0.927246
v 1.000000 2.986173 0.937385
v 0.965928 3.037500 0.927246
v 0.917321 0.082679 -1.202749
v 1.000000 0.330714 -1.129257
v -1.275977 0.000000 -1.117205
v -2.000000 0.000000 1.000000
v -2.000000 0.000000 -1.000000
v -1.275977 4.050000 0.917205
v -2.000000 4.050000 0.800000
v 2.000000 4.050000 -0.800000
v 2.000000 3.037500 -0.700000
v 2.000000 4.050000 0.800000
v 2.000000 1.012500 -0.700000
v 2.000000 2.025000 -0.900000
v 2.000000 3.037500 0.700000
v 2.000000 0.000000 1.000000
v 2.000000 0.000000 -1.000000
v 1.199838 4.050000 -1.027246
v 1.199838 4.050000 1.027246
v 0.800162 4.050000 -1.027246
v 0.800162 4.050000 1.027246
v 0.000000 4.050000 -0.800000
v 0.000000 4.050000 0.800000
v -0.724023 4.050000 -0.917205
v -0.724023 4.050000 0.917205
v -1.275977 4.050000 -0.917205
v -2.000000 4.050000 -0.800000
v 1.199838 0.000000 -1.227246
v 0.800162 3.287212 0.951909
v 0.694123 3.446951 0.937571
v -2.000000 1.012500 0.700000
v -2.000000 1.012500 -0.700000
v -2.000000 3.037500 -0.700000
v -2.000000 2.025000 -0.900000
v -1.000000 2.025000 -1.017205
v -1.000000 1.012500 -0.817205
v 1.000000 1.012500 -0.927246
v 1.000000 2.986173 -0.937385
v 1.000000 2.025000 -1.127246
v 0.965928 3.037500 -0.927246
v 0.694123 3.446951 -0.937571
v 0.800162 3.287212 -0.951909
v -1.275977 2.025000 -1.017205
v -1.275977 3.037500 -0.817205
v 1.199838 1.012500 -0.927246
v 1.199838 3.037500 -0.927246
v 1.199838 2.025000 -1.127246
v -1.275977 1.012500 -0.817205
vn -0.129174 0.281708 0.950765
vn -0.262732 0.274108 0.925114
vn -0.108385 0.282415 0.953150
vn 0.108385 -0.282415 -0.953150
vn 0.262732 -0.274108 -0.925114
vn 0.129174 -0.281708 -0.950765
vn 0.153374 0.280727 0.947454
vn 0.075787 0.283271 0.956041
vn 0.061838 0.283545 0.956963
vn -0.061838 -0.283545 -0.956963
vn -0.075787 -0.283271 -0.956041
vn -0.153374 -0.280727 -0.947454
vn 0.075787 0.283271 -0.956041
vn 0.153374 0.280727 -0.947454
vn 0.061838 0.283545 -0.956963
vn -0.061838 -0.283545 0.956963
vn -0.153374 -0.280727 0.947454
vn -0.075787 -0.283271 0.956041
vn -0.262732 0.274108 -0.925114
vn -0.129174 0.281708 -0.950765
vn -0.108385 0.282415 -0.953150
vn 0.108385 -0.282415 0.953150
vn 0.129174 -0.281708 0.950765
vn 0.262732 -0.274108 0.925114
vn 0.000000 0.284088 0.958798
vn 0.129174 0.281708 0.950765
vn 0.140715 0.047059 0.988931
vn 0.000000 0.046501 0.998918
vn 0.000000 -0.284088 -0.958798
vn -0.129174 -0.281708 -0.950765
vn -0.140715 -0.047059 -0.988931
vn 0.000000 -0.046501 -0.998918
vn -0.079379 0.000000 0.996845
vn -0.159800 0.000000 0.987149
vn -0.080665 0.048477 0.995562
vn -0.159624 0.046957 0.986061
vn 0.080665 -0.048477 -0.995562
vn 0.159800 0.000000 -0.987149
vn 0.079379 0.000000 -0.996845
vn 0.159624 -0.046957 -0.986061
vn 0.272944 0.042983 0.961069
vn 0.273196 0.000000 0.961958
vn 0.135647 0.000000 0.990757
vn -0.273196 0.000000 -0.961958
vn -0.272944 -0.042983 -0.961069
vn -0.135647 0.000000 -0.990757
vn 0.000000 0.000000 1.000000
vn 0.000000 0.193786 0.981044
vn 0.000000 -0.006167 0.999981
vn 0.000000 -0.193786 -0.981044
vn 0.000000 0.000000 -1.000000
vn 0.000000 0.006167 -0.999981
vn 0.661960 0.749540 0.000000
vn 0.981998 0.188889 0.000000
vn -0.981998 -0.188889 0.000000
vn -0.661960 -0.749540 0.000000
vn 0.833141 -0.553061 0.000000
vn 0.605893 -0.795546 0.000000
vn 0.966651 -0.256098 0.000000
vn -0.605893 0.795546 0.000000
vn -0.833141 0.553061 0.000000
vn -0.966651 0.256098 0.000000
vn -0.009435 -0.999955 0.000000
vn 0.009435 0.999955 0.000000
vn -0.075787 0.283271 0.956041
vn -0.081059 0.046935 0.995604
vn 0.075787 -0.283271 -0.956041
vn 0.081059 -0.046935 -0.995604
vn 0.139539 0.048423 0.989032
vn -0.139539 -0.048423 -0.989032
vn 0.316228 0.948683 0.000000
vn -0.316228 -0.948683 0.000000
vn -0.661960 0.749540 0.000000
vn -0.316228 0.948683 0.000000
vn 0.316228 -0.948683 0.000000
vn 0.661960 -0.749540 0.000000
vn -0.981998 0.188889 0.000000
vn 0.981998 -0.188889 0.000000
vn 0.000000 -1.000000 0.000000
vn 0.000000 1.000000 0.000000
vn -0.079376 -0.097977 0.992018
vn -0.159046 -0.097036 0.982491
vn 0.079376 0.097977 -0.992018
vn 0.159046 0.097036 -0.982491
vn 1.000000 0.000000 0.000000
vn -1.000000 0.000000 0.000000
vn -0.052703 -0.098151 0.993775
vn -0.271971 -0.094582 0.957646
vn -0.136102 -0.097373 0.985898
vn -0.056785 -0.098129 0.993552
vn -0.058599 -0.098118 0.993448
vn 0.136102 0.097373 -0.985898
vn 0.271971 0.094582 -0.957646
vn 0.052703 0.098151 -0.993775
vn 0.056785 0.098129 -0.993552
vn 0.058599 0.098118 -0.993448
vn 0.136102 -0.097373 0.985898
vn -0.136102 0.097373 -0.985898
vn -0.153374 0.280727 0.947454
vn -0.159639 0.044827 0.986157
vn 0.153374 -0.280727 -0.947454
vn 0.159639 -0.044827 -0.986157
vn 0.272916 0.045299 0.960971
vn -0.272916 -0.045299 -0.960971
vn 0.271971 -0.094582 0.957646
vn -0.271971 0.094582 -0.957646
vn 0.030058 -0.098243 0.994708
vn 0.079376 -0.097977 0.992018
vn 0.159046 -0.097036 0.982491
vn -0.159046 0.097036 -0.982491
vn -0.079376 0.097977 -0.992018
vn -0.030058 0.098243 -0.994708
vn -0.966651 -0.256098 0.000000
vn 0.966651 0.256098 0.000000
vn 0.262732 0.274108 0.925114
vn -0.262732 -0.274108 -0.925114
vn -0.833141 -0.553061 0.000000
vn -0.623548 -0.781785 0.000000
vn 0.833141 0.553061 0.000000
vn 0.623548 0.781785 0.000000
vn -0.159800 0.000000 -0.987149
vn -0.079379 0.000000 -0.996845
vn -0.159624 0.046957 -0.986061
vn -0.080665 0.048477 -0.995562
vn 0.159624 -0.046957 0.986061
vn 0.079379 0.000000 0.996845
vn 0.159800 0.000000 0.987149
vn 0.080665 -0.048477 0.995562
vn 0.129174 0.281708 -0.950765
vn 0.262732 0.274108 -0.925114
vn 0.140715 0.047059 -0.988931
vn 0.272944 0.042983 -0.961069
vn -0.140715 -0.047059 0.988931
vn -0.262732 -0.274108 0.925114
vn -0.129174 -0.281708 0.950765
vn -0.272944 -0.042983 0.961069
vn 0.139539 0.048423 -0.989032
vn 0.272916 0.045299 -0.960971
vn 0.136102 -0.097373 -0.985898
vn 0.271971 -0.094582 -0.957646
vn -0.136102 0.097373 0.985898
vn -0.272916 -0.045299 0.960971
vn -0.139539 -0.048423 0.989032
vn -0.271971 0.094582 0.957646
vn 0.135647 0.000000 -0.990757
vn 0.273196 0.000000 -0.961958
vn -0.135647 0.000000 0.990757
vn -0.273196 0.000000 0.961958
vn -0.159639 0.044827 -0.986157
vn -0.081059 0.046935 -0.995604
vn 0.081059 -0.046935 0.995604
vn 0.159639 -0.044827 0.986157
vn 0.000000 0.046501 -0.998918
vn 0.000000 -0.046501 0.998918
vn -0.153374 0.280727 -0.947454
vn -0.075787 0.283271 -0.956041
vn 0.075787 -0.283271 0.956041
vn 0.153374 -0.280727 0.947454
vn 0.030058 -0.098243 -0.994708
vn 0.159046 -0.097036 -0.982491
vn 0.079376 -0.097977 -0.992018
vn -0.056785 -0.098129 -0.993552
vn -0.058599 -0.098118 -0.993448
vn -0.079376 0.097977 0.992018
vn -0.159046 0.097036 0.982491
vn -0.030058 0.098243 0.994708
vn 0.056785 0.098129 0.993552
vn 0.058599 0.098118 0.993448
vn 0.000000 0.193786 -0.981044
vn 0.000000 -0.006167 -0.999981
vn 0.000000 -0.193786 0.981044
vn 0.000000 0.006167 0.999981
vn -0.052703 -0.098151 -0.993775
vn -0.136102 -0.097373 -0.985898
vn 0.052703 0.098151 0.993775
vn 0.136102 0.097373 0.985898
vn -0.159046 -0.097036 -0.982491
vn -0.079376 -0.097977 -0.992018
vn 0.159046 0.097036 0.982491
vn 0.079376 0.097977 0.992018
vn 0.000000 0.284088 -0.958798
vn 0.000000 -0.284088 0.958798
vn -0.271971 -0.094582 -0.957646
vn 0.271971 0.094582 0.957646
usemtl colormap
f 3/2/3 2/1/2 1/1/1
f 1/1/6 2/1/5 3/2/4
f 6/3/9 5/1/8 4/1/7
f 4/1/12 5/1/11 6/3/10
f 9/3/15 8/1/14 7/1/13
f 7/1/18 8/1/17 9/3/16
f 12/2/21 11/1/20 10/1/19
f 10/1/24 11/1/23 12/2/22
f 1/1/1 13/4/25 3/2/3
f 14/1/26 13/4/25 1/1/1
f 13/4/25 14/1/26 15/5/25
f 15/5/25 14/1/26 16/6/27
f 15/5/25 16/6/27 17/6/28
f 3/2/4 13/4/29 1/1/6
f 1/1/6 13/4/29 14/1/30
f 15/5/29 14/1/30 13/4/29
f 16/6/31 14/1/30 15/5/29
f 17/6/32 16/6/31 15/5/29
f 20/8/35 19/7/34 18/7/33
f 19/7/34 20/8/35 21/8/36
f 18/7/39 19/7/38 20/8/37
f 21/8/40 20/8/37 19/7/38
f 23/7/42 16/6/27 22/6/41
f 16/6/27 23/7/42 24/7/43
f 22/6/45 16/6/31 23/7/44
f 24/7/46 23/7/44 16/6/31
f 26/9/48 18/7/33 25/7/47
f 18/7/33 26/9/48 20/8/35
f 20/8/35 26/9/48 27/8/49
f 25/7/51 18/7/39 26/9/50
f 20/8/37 26/9/50 18/7/39
f 27/8/52 26/9/50 20/8/37
f 30/5/54 29/4/53 28/4/53
f 29/4/53 30/5/54 31/5/54
f 28/4/56 29/4/56 30/5/55
f 31/5/55 30/5/55 29/4/56
f 34/11/58 33/8/57 32/10/57
f 33/8/57 34/11/58 35/11/58
f 33/8/57 35/11/58 27/8/57
f 27/8/57 35/11/58 36/10/57
f 26/9/59 33/8/57 27/8/57
f 33/8/57 26/9/59 37/9/59
f 32/10/61 33/8/61 34/11/60
f 35/11/60 34/11/60 33/8/61
f 27/8/61 35/11/60 33/8/61
f 36/10/61 35/11/60 27/8/61
f 27/8/61 33/8/61 26/9/62
f 37/9/62 26/9/62 33/8/61
f 35/11/58 39/12/63 38/12/63
f 39/12/63 35/11/58 34/11/58
f 38/12/64 39/12/64 35/11/60
f 34/11/60 35/11/60 39/12/64
f 6/3/9 40/1/65 5/1/8
f 40/1/65 6/3/9 29/4/25
f 40/1/65 29/4/25 41/6/66
f 41/6/66 29/4/25 31/5/25
f 41/6/66 31/5/25 42/6/28
f 5/1/11 40/1/67 6/3/10
f 29/4/29 6/3/10 40/1/67
f 41/6/68 29/4/29 40/1/67
f 31/5/29 29/4/29 41/6/68
f 42/6/32 31/5/29 41/6/68
f 44/8/69 43/7/47 24/7/43
f 43/7/47 44/8/69 45/9/48
f 45/9/48 44/8/69 46/8/49
f 24/7/46 43/7/51 44/8/70
f 45/9/50 44/8/70 43/7/51
f 46/8/52 44/8/70 45/9/50
f 9/3/71 4/1/71 8/1/71
f 4/1/71 9/3/71 6/3/71
f 6/3/71 9/3/71 28/4/53
f 6/3/71 28/4/53 29/4/53
f 8/1/72 4/1/72 9/3/72
f 6/3/72 9/3/72 4/1/72
f 28/4/56 9/3/72 6/3/72
f 29/4/56 28/4/56 6/3/72
f 12/2/74 13/4/73 47/4/73
f 13/4/73 12/2/74 3/2/74
f 3/2/74 12/2/74 10/1/74
f 3/2/74 10/1/74 2/1/74
f 47/4/76 13/4/76 12/2/75
f 3/2/75 12/2/75 13/4/76
f 10/1/75 12/2/75 3/2/75
f 2/1/75 10/1/75 3/2/75
f 13/4/73 48/5/77 47/4/73
f 48/5/77 13/4/73 15/5/77
f 47/4/76 48/5/78 13/4/76
f 15/5/78 13/4/76 48/5/78
f 5/1/79 8/1/79 4/1/79
f 8/1/79 5/1/79 7/1/79
f 7/1/79 5/1/79 40/1/79
f 7/1/79 40/1/79 49/1/79
f 49/1/79 40/1/79 50/1/79
f 49/1/79 50/1/79 51/1/79
f 4/1/80 8/1/80 5/1/80
f 7/1/80 5/1/80 8/1/80
f 40/1/80 5/1/80 7/1/80
f 49/1/80 40/1/80 7/1/80
f 50/1/80 40/1/80 49/1/80
f 51/1/80 50/1/80 49/1/80
f 52/13/81 21/8/36 20/8/35
f 21/8/36 52/13/81 53/13/82
f 20/8/37 21/8/40 52/13/83
f 53/13/84 52/13/83 21/8/40
f 56/13/85 55/8/85 54/13/85
f 55/8/85 56/13/85 57/6/85
f 57/6/85 58/7/85 55/8/85
f 57/6/85 56/13/85 59/8/85
f 22/6/85 57/6/85 59/8/85
f 23/7/85 22/6/85 59/8/85
f 60/1/85 57/6/85 22/6/85
f 57/6/85 60/1/85 61/1/85
f 54/13/86 55/8/86 56/13/86
f 57/6/86 56/13/86 55/8/86
f 55/8/86 58/7/86 57/6/86
f 59/8/86 56/13/86 57/6/86
f 59/8/86 57/6/86 22/6/86
f 59/8/86 22/6/86 23/7/86
f 22/6/86 57/6/86 60/1/86
f 61/1/86 60/1/86 57/6/86
f 62/13/80 56/13/80 54/13/80
f 56/13/80 62/13/80 63/13/80
f 63/13/80 62/13/80 64/13/80
f 63/13/80 64/13/80 65/13/80
f 65/13/80 64/13/80 66/13/80
f 65/13/80 66/13/80 67/13/80
f 67/13/80 66/13/80 68/13/80
f 67/13/80 68/13/80 69/13/80
f 69/13/80 68/13/80 70/13/80
f 69/13/80 70/13/80 52/13/80
f 52/13/80 70/13/80 71/13/80
f 52/13/80 71/13/80 53/13/80
f 54/13/79 56/13/79 62/13/79
f 63/13/79 62/13/79 56/13/79
f 64/13/79 62/13/79 63/13/79
f 65/13/79 64/13/79 63/13/79
f 66/13/79 64/13/79 65/13/79
f 67/13/79 66/13/79 65/13/79
f 68/13/79 66/13/79 67/13/79
f 69/13/79 68/13/79 67/13/79
f 70/13/79 68/13/79 69/13/79
f 52/13/79 70/13/79 69/13/79
f 71/13/79 70/13/79 52/13/79
f 53/13/79 71/13/79 52/13/79
f 14/1/79 61/1/79 60/1/79
f 61/1/79 14/1/79 72/1/79
f 72/1/79 14/1/79 1/1/79
f 72/1/79 1/1/79 11/1/79
f 11/1/79 1/1/79 2/1/79
f 11/1/79 2/1/79 10/1/79
f 60/1/80 61/1/80 14/1/80
f 72/1/80 14/1/80 61/1/80
f 1/1/80 14/1/80 72/1/80
f 11/1/80 1/1/80 72/1/80
f 2/1/80 1/1/80 11/1/80
f 10/1/80 2/1/80 11/1/80
f 65/13/89 74/11/88 73/14/87
f 74/11/88 65/13/89 38/12/90
f 38/12/90 65/13/89 67/13/91
f 73/14/94 74/11/93 65/13/92
f 38/12/95 65/13/92 74/11/93
f 67/13/96 65/13/92 38/12/95
f 63/13/97 46/8/49 44/8/69
f 46/8/49 63/13/97 73/14/87
f 73/14/87 63/13/97 65/13/89
f 44/8/70 46/8/52 63/13/98
f 73/14/94 63/13/98 46/8/52
f 65/13/92 63/13/98 73/14/94
f 41/6/66 50/1/99 40/1/65
f 50/1/99 41/6/66 75/6/100
f 40/1/67 50/1/101 41/6/68
f 75/6/102 41/6/68 50/1/101
f 50/1/86 76/6/86 51/1/86
f 76/6/86 50/1/86 77/8/86
f 77/8/86 78/7/86 76/6/86
f 77/8/86 50/1/86 75/6/86
f 21/8/86 77/8/86 75/6/86
f 19/7/86 21/8/86 75/6/86
f 53/13/86 77/8/86 21/8/86
f 77/8/86 53/13/86 71/13/86
f 51/1/85 76/6/85 50/1/85
f 77/8/85 50/1/85 76/6/85
f 76/6/85 78/7/85 77/8/85
f 75/6/85 50/1/85 77/8/85
f 75/6/85 77/8/85 21/8/85
f 75/6/85 21/8/85 19/7/85
f 21/8/85 77/8/85 53/13/85
f 71/13/85 53/13/85 77/8/85
f 59/8/103 24/7/43 23/7/42
f 24/7/43 59/8/103 44/8/69
f 23/7/44 24/7/46 59/8/104
f 44/8/70 59/8/104 24/7/46
f 56/13/105 44/8/69 59/8/103
f 44/8/69 56/13/105 63/13/97
f 59/8/104 44/8/70 56/13/106
f 63/13/98 56/13/106 44/8/70
f 25/7/47 41/6/66 42/6/28
f 41/6/66 25/7/47 18/7/33
f 42/6/32 41/6/68 25/7/51
f 18/7/39 25/7/51 41/6/68
f 24/7/43 17/6/28 16/6/27
f 17/6/28 24/7/43 43/7/47
f 16/6/31 17/6/32 24/7/46
f 43/7/51 24/7/46 17/6/32
f 35/11/109 69/13/108 36/10/107
f 69/13/108 35/11/109 38/12/90
f 69/13/108 38/12/90 67/13/91
f 36/10/112 69/13/111 35/11/110
f 38/12/95 35/11/110 69/13/111
f 67/13/96 38/12/95 69/13/111
f 37/9/59 80/6/85 79/7/85
f 80/6/85 37/9/59 26/9/59
f 80/6/85 26/9/59 42/6/85
f 42/6/85 26/9/59 25/7/85
f 31/5/54 80/6/85 42/6/85
f 80/6/85 31/5/54 30/5/54
f 79/7/86 80/6/86 37/9/62
f 26/9/62 37/9/62 80/6/86
f 42/6/86 26/9/62 80/6/86
f 25/7/86 26/9/62 42/6/86
f 42/6/86 80/6/86 31/5/55
f 30/5/55 31/5/55 80/6/86
f 15/5/77 81/6/86 48/5/77
f 81/6/86 15/5/77 17/6/86
f 45/9/113 81/6/86 17/6/86
f 45/9/113 17/6/86 43/7/86
f 82/9/113 81/6/86 45/9/113
f 81/6/86 82/9/113 83/7/86
f 48/5/78 81/6/85 15/5/78
f 17/6/85 15/5/78 81/6/85
f 17/6/85 81/6/85 45/9/114
f 43/7/85 17/6/85 45/9/114
f 45/9/114 81/6/85 82/9/114
f 83/7/85 82/9/114 81/6/85
f 22/6/41 14/1/26 60/1/115
f 14/1/26 22/6/41 16/6/27
f 60/1/116 14/1/30 22/6/45
f 16/6/31 22/6/45 14/1/30
f 18/7/33 75/6/100 41/6/66
f 75/6/100 18/7/33 19/7/34
f 41/6/68 75/6/102 18/7/39
f 19/7/38 18/7/39 75/6/102
f 45/9/113 84/8/117 82/9/113
f 84/8/117 45/9/113 46/8/117
f 74/11/118 84/8/117 46/8/117
f 74/11/118 46/8/117 73/14/117
f 85/11/118 84/8/117 74/11/118
f 84/8/117 85/11/118 86/14/117
f 82/9/114 84/8/119 45/9/114
f 46/8/119 45/9/114 84/8/119
f 46/8/119 84/8/119 74/11/120
f 73/14/119 46/8/119 74/11/120
f 74/11/120 84/8/119 85/11/120
f 86/14/119 85/11/120 84/8/119
f 27/8/49 52/13/81 20/8/35
f 52/13/81 27/8/49 36/10/107
f 52/13/81 36/10/107 69/13/108
f 20/8/37 52/13/83 27/8/52
f 36/10/112 27/8/52 52/13/83
f 69/13/111 36/10/112 52/13/83
f 38/12/63 85/11/118 74/11/118
f 85/11/118 38/12/63 39/12/63
f 74/11/120 85/11/120 38/12/64
f 39/12/64 38/12/64 85/11/120
f 77/8/123 87/7/122 78/7/121
f 87/7/122 77/8/123 88/8/124
f 78/7/127 87/7/126 77/8/125
f 88/8/128 77/8/125 87/7/126
f 89/6/131 61/1/130 72/1/129
f 61/1/130 89/6/131 57/6/132
f 72/1/135 61/1/134 89/6/133
f 57/6/136 89/6/133 61/1/134
f 62/13/139 55/8/138 90/8/137
f 55/8/138 62/13/139 54/13/140
f 90/8/143 55/8/142 62/13/141
f 54/13/144 62/13/141 55/8/142
f 91/7/145 57/6/132 89/6/131
f 57/6/132 91/7/145 58/7/146
f 89/6/133 57/6/136 91/7/147
f 58/7/148 91/7/147 57/6/136
f 78/7/121 92/6/150 76/6/149
f 92/6/150 78/7/121 87/7/122
f 76/6/152 92/6/151 78/7/127
f 87/7/126 78/7/127 92/6/151
f 81/6/153 91/7/145 89/6/131
f 91/7/145 81/6/153 83/7/51
f 89/6/133 91/7/147 81/6/154
f 83/7/47 81/6/154 91/7/147
f 76/6/149 49/1/156 51/1/155
f 49/1/156 76/6/149 92/6/150
f 51/1/158 49/1/157 76/6/152
f 92/6/151 76/6/152 49/1/157
f 68/13/161 34/11/160 32/10/159
f 34/11/160 68/13/161 39/12/162
f 39/12/162 68/13/161 66/13/163
f 32/10/166 34/11/165 68/13/164
f 39/12/167 68/13/164 34/11/165
f 66/13/168 68/13/164 39/12/167
f 87/7/122 37/9/169 79/7/51
f 37/9/169 87/7/122 88/8/124
f 37/9/169 88/8/124 33/8/170
f 79/7/47 37/9/171 87/7/126
f 88/8/128 87/7/126 37/9/171
f 33/8/172 88/8/128 37/9/171
f 84/8/170 62/13/139 90/8/137
f 62/13/139 84/8/170 86/14/173
f 62/13/139 86/14/173 64/13/174
f 90/8/143 62/13/141 84/8/172
f 86/14/175 84/8/172 62/13/141
f 64/13/176 86/14/175 62/13/141
f 90/8/137 58/7/146 91/7/145
f 58/7/146 90/8/137 55/8/138
f 91/7/147 58/7/148 90/8/143
f 55/8/142 90/8/143 58/7/148
f 71/13/177 88/8/124 77/8/123
f 88/8/124 71/13/177 70/13/178
f 77/8/125 88/8/128 71/13/179
f 70/13/180 71/13/179 88/8/128
f 7/1/13 28/4/181 9/3/15
f 49/1/156 28/4/181 7/1/13
f 28/4/181 49/1/156 92/6/150
f 28/4/181 92/6/150 30/5/181
f 30/5/181 92/6/150 80/6/153
f 9/3/16 28/4/182 7/1/18
f 7/1/18 28/4/182 49/1/157
f 92/6/151 49/1/157 28/4/182
f 30/5/182 92/6/151 28/4/182
f 80/6/154 92/6/151 30/5/182
f 85/11/183 64/13/174 86/14/173
f 64/13/174 85/11/183 39/12/162
f 64/13/174 39/12/162 66/13/163
f 86/14/175 64/13/176 85/11/184
f 39/12/167 85/11/184 64/13/176
f 66/13/168 39/12/167 64/13/176
f 83/7/51 90/8/137 91/7/145
f 90/8/137 83/7/51 82/9/169
f 90/8/137 82/9/169 84/8/170
f 91/7/147 90/8/143 83/7/47
f 82/9/171 83/7/47 90/8/143
f 84/8/172 82/9/171 90/8/143
f 92/6/150 79/7/51 80/6/153
f 79/7/51 92/6/150 87/7/122
f 80/6/154 79/7/47 92/6/151
f 87/7/126 92/6/151 79/7/47
f 70/13/178 33/8/170 88/8/124
f 33/8/170 70/13/178 32/10/159
f 32/10/159 70/13/178 68/13/161
f 88/8/128 33/8/172 70/13/180
f 32/10/166 70/13/180 33/8/172
f 68/13/164 70/13/180 32/10/166
f 12/2/21 72/1/129 11/1/20
f 72/1/129 12/2/21 47/4/181
f 72/1/129 47/4/181 48/5/181
f 72/1/129 48/5/181 89/6/131
f 89/6/131 48/5/181 81/6/153
f 11/1/23 72/1/135 12/2/22
f 47/4/182 12/2/22 72/1/135
f 48/5/182 47/4/182 72/1/135
f 89/6/133 48/5/182 72/1/135
f 81/6/154 48/5/182 89/6/133
f 3/2/3 2/1/2 1/1/1
f 1/1/6 2/1/5 3/2/4
f 6/3/9 5/1/8 4/1/7
f 4/1/12 5/1/11 6/3/10
f 9/3/15 8/1/14 7/1/13
f 7/1/18 8/1/17 9/3/16
f 12/2/21 11/1/20 10/1/19
f 10/1/24 11/1/23 12/2/22
f 1/1/1 13/4/25 3/2/3
f 14/1/26 13/4/25 1/1/1
f 13/4/25 14/1/26 15/5/25
f 15/5/25 14/1/26 16/6/27
f 15/5/25 16/6/27 17/6/28
f 3/2/4 13/4/29 1/1/6
f 1/1/6 13/4/29 14/1/30
f 15/5/29 14/1/30 13/4/29
f 16/6/31 14/1/30 15/5/29
f 17/6/32 16/6/31 15/5/29
f 20/8/35 19/7/34 18/7/33
f 19/7/34 20/8/35 21/8/36
f 18/7/39 19/7/38 20/8/37
f 21/8/40 20/8/37 19/7/38
f 23/7/42 16/6/27 22/6/41
f 16/6/27 23/7/42 24/7/43
f 22/6/45 16/6/31 23/7/44
f 24/7/46 23/7/44 16/6/31
f 26/9/48 18/7/33 25/7/47
f 18/7/33 26/9/48 20/8/35
f 20/8/35 26/9/48 27/8/49
f 25/7/51 18/7/39 26/9/50
f 20/8/37 26/9/50 18/7/39
f 27/8/52 26/9/50 20/8/37
f 30/5/54 29/4/53 28/4/53
f 29/4/53 30/5/54 31/5/54
f 28/4/56 29/4/56 30/5/55
f 31/5/55 30/5/55 29/4/56
f 34/11/58 33/8/57 32/10/57
f 33/8/57 34/11/58 35/11/58
f 33/8/57 35/11/58 27/8/57
f 27/8/57 35/11/58 36/10/57
f 26/9/59 33/8/57 27/8/57
f 33/8/57 26/9/59 37/9/59
f 32/10/61 33/8/61 34/11/60
f 35/11/60 34/11/60 33/8/61
f 27/8/61 35/11/60 33/8/61
f 36/10/61 35/11/60 27/8/61
f 27/8/61 33/8/61 26/9/62
f 37/9/62 26/9/62 33/8/61
f 35/11/58 39/12/63 38/12/63
f 39/12/63 35/11/58 34/11/58
f 38/12/64 39/12/64 35/11/60
f 34/11/60 35/11/60 39/12/64
f 6/3/9 40/1/65 5/1/8
f 40/1/65 6/3/9 29/4/25
f 40/1/65 29/4/25 41/6/66
f 41/6/66 29/4/25 31/5/25
f 41/6/66 31/5/25 42/6/28
f 5/1/11 40/1/67 6/3/10
f 29/4/29 6/3/10 40/1/67
f 41/6/68 29/4/29 40/1/67
f 31/5/29 29/4/29 41/6/68
f 42/6/32 31/5/29 41/6/68
f 44/8/69 43/7/47 24/7/43
f 43/7/47 44/8/69 45/9/48
f 45/9/48 44/8/69 46/8/49
f 24/7/46 43/7/51 44/8/70
f 45/9/50 44/8/70 43/7/51
f 46/8/52 44/8/70 45/9/50
f 9/3/71 4/1/71 8/1/71
f 4/1/71 9/3/71 6/3/71
f 6/3/71 9/3/71 28/4/53
f 6/3/71 28/4/53 29/4/53
f 8/1/72 4/1/72 9/3/72
f 6/3/72 9/3/72 4/1/72
f 28/4/56 9/3/72 6/3/72
f 29/4/56 28/4/56 6/3/72
f 12/2/74 13/4/73 47/4/73
f 13/4/73 12/2/74 3/2/74
f 3/2/74 12/2/74 10/1/74
f 3/2/74 10/1/74 2/1/74
f 47/4/76 13/4/76 12/2/75
f 3/2/75 12/2/75 13/4/76
f 10/1/75 12/2/75 3/2/75
f 2/1/75 10/1/75 3/2/75
f 13/4/73 48/5/77 47/4/73
f 48/5/77 13/4/73 15/5/77
f 47/4/76 48/5/78 13/4/76
f 15/5/78 13/4/76 48/5/78
f 5/1/79 8/1/79 4/1/79
f 8/1/79 5/1/79 7/1/79
f 7/1/79 5/1/79 40/1/79
f 7/1/79 40/1/79 49/1/79
f 49/1/79 40/1/79 50/1/79
f 49/1/79 50/1/79 51/1/79
f 4/1/80 8/1/80 5/1/80
f 7/1/80 5/1/80 8/1/80
f 40/1/80 5/1/80 7/1/80
f 49/1/80 40/1/80 7/1/80
f 50/1/80 40/1/80 49/1/80
f 51/1/80 50/1/80 49/1/80
f 52/13/81 21/8/36 20/8/35
f 21/8/36 52/13/81 53/13/82
f 20/8/37 21/8/40 52/13/83
f 53/13/84 52/13/83 21/8/40
f 56/13/85 55/8/85 54/13/85
f 55/8/85 56/13/85 57/6/85
f 57/6/85 58/7/85 55/8/85
f 57/6/85 56/13/85 59/8/85
f 22/6/85 57/6/85 59/8/85
f 23/7/85 22/6/85 59/8/85
f 60/1/85 57/6/85 22/6/85
f 57/6/85 60/1/85 61/1/85
f 54/13/86 55/8/86 56/13/86
f 57/6/86 56/13/86 55/8/86
f 55/8/86 58/7/86 57/6/86
f 59/8/86 56/13/86 57/6/86
f 59/8/86 57/6/86 22/6/86
f 59/8/86 22/6/86 23/7/86
f 22/6/86 57/6/86 60/1/86
f 61/1/86 60/1/86 57/6/86
f 62/13/80 56/13/80 54/13/80
f 56/13/80 62/13/80 63/13/80
f 63/13/80 62/13/80 64/13/80
f 63/13/80 64/13/80 65/13/80
f 65/13/80 64/13/80 66/13/80
f 65/13/80 66/13/80 67/13/80
f 67/13/80 66/13/80 68/13/80
f 67/13/80 68/13/80 69/13/80
f 69/13/80 68/13/80 70/13/80
f 69/13/80 70/13/80 52/13/80
f 52/13/80 70/13/80 71/13/80
f 52/13/80 71/13/80 53/13/80
f 54/13/79 56/13/79 62/13/79
f 63/13/79 62/13/79 56/13/79
f 64/13/79 62/13/79 63/13/79
f 65/13/79 64/13/79 63/13/79
f 66/13/79 64/13/79 65/13/79
f 67/13/79 66/13/79 65/13/79
f 68/13/79 66/13/79 67/13/79
f 69/13/79 68/13/79 67/13/79
f 70/13/79 68/13/79 69/13/79
f 52/13/79 70/13/79 69/13/79
f 71/13/79 70/13/79 52/13/79
f 53/13/79 71/13/79 52/13/79
f 14/1/79 61/1/79 60/1/79
f 61/1/79 14/1/79 72/1/79
f 72/1/79 14/1/79 1/1/79
f 72/1/79 1/1/79 11/1/79
f 11/1/79 1/1/79 2/1/79
f 11/1/79 2/1/79 10/1/79
f 60/1/80 61/1/80 14/1/80
f 72/1/80 14/1/80 61/1/80
f 1/1/80 14/1/80 72/1/80
f 11/1/80 1/1/80 72/1/80
f 2/1/80 1/1/80 11/1/80
f 10/1/80 2/1/80 11/1/80
f 65/13/89 74/11/88 73/14/87
f 74/11/88 65/13/89 38/12/90
f 38/12/90 65/13/89 67/13/91
f 73/14/94 74/11/93 65/13/92
f 38/12/95 65/13/92 74/11/93
f 67/13/96 65/13/92 38/12/95
f 63/13/97 46/8/49 44/8/69
f 46/8/49 63/13/97 73/14/87
f 73/14/87 63/13/97 65/13/89
f 44/8/70 46/8/52 63/13/98
f 73/14/94 63/13/98 46/8/52
f 65/13/92 63/13/98 73/14/94
f 41/6/66 50/1/99 40/1/65
f 50/1/99 41/6/66 75/6/100
f 40/1/67 50/1/101 41/6/68
f 75/6/102 41/6/68 50/1/101
f 50/1/86 76/6/86 51/1/86
f 76/6/86 50/1/86 77/8/86
f 77/8/86 78/7/86 76/6/86
f 77/8/86 50/1/86 75/6/86
f 21/8/86 77/8/86 75/6/86
f 19/7/86 21/8/86 75/6/86
f 53/13/86 77/8/86 21/8/86
f 77/8/86 53/13/86 71/13/86
f 51/1/85 76/6/85 50/1/85
f 77/8/85 50/1/85 76/6/85
f 76/6/85 78/7/85 77/8/85
f 75/6/85 50/1/85 77/8/85
f 75/6/85 77/8/85 21/8/85
f 75/6/85 21/8/85 19/7/85
f 21/8/85 77/8/85 53/13/85
f 71/13/85 53/13/85 77/8/85
f 59/8/103 24/7/43 23/7/42
f 24/7/43 59/8/103 44/8/69
f 23/7/44 24/7/46 59/8/104
f 44/8/70 59/8/104 24/7/46
f 56/13/105 44/8/69 59/8/103
f 44/8/69 56/13/105 63/13/97
f 59/8/104 44/8/70 56/13/106
f 63/13/98 56/13/106 44/8/70
f 25/7/47 41/6/66 42/6/28
f 41/6/66 25/7/47 18/7/33
f 42/6/32 41/6/68 25/7/51
f 18/7/39 25/7/51 41/6/68
f 24/7/43 17/6/28 16/6/27
f 17/6/28 24/7/43 43/7/47
f 16/6/31 17/6/32 24/7/46
f 43/7/51 24/7/46 17/6/32
f 35/11/109 69/13/108 36/10/107
f 69/13/108 35/11/109 38/12/90
f 69/13/108 38/12/90 67/13/91
f 36/10/112 69/13/111 35/11/110
f 38/12/95 35/11/110 69/13/111
f 67/13/96 38/12/95 69/13/111
f 37/9/59 80/6/85 79/7/85
f 80/6/85 37/9/59 26/9/59
f 80/6/85 26/9/59 42/6/85
f 42/6/85 26/9/59 25/7/85
f 31/5/54 80/6/85 42/6/85
f 80/6/85 31/5/54 30/5/54
f 79/7/86 80/6/86 37/9/62
f 26/9/62 37/9/62 80/6/86
f 42/6/86 26/9/62 80/6/86
f 25/7/86 26/9/62 42/6/86
f 42/6/86 80/6/86 31/5/55
f 30/5/55 31/5/55 80/6/86
f 15/5/77 81/6/86 48/5/77
f 81/6/86 15/5/77 17/6/86
f 45/9/113 81/6/86 17/6/86
f 45/9/113 17/6/86 43/7/86
f 82/9/113 81/6/86 45/9/113
f 81/6/86 82/9/113 83/7/86
f 48/5/78 81/6/85 15/5/78
f 17/6/85 15/5/78 81/6/85
f 17/6/85 81/6/85 45/9/114
f 43/7/85 17/6/85 45/9/114
f 45/9/114 81/6/85 82/9/114
f 83/7/85 82/9/114 81/6/85
f 22/6/41 14/1/26 60/1/115
f 14/1/26 22/6/41 16/6/27
f 60/1/116 14/1/30 22/6/45
f 16/6/31 22/6/45 14/1/30
f 18/7/33 75/6/100 41/6/66
f 75/6/100 18/7/33 19/7/34
f 41/6/68 75/6/102 18/7/39
f 19/7/38 18/7/39 75/6/102
f 45/9/113 84/8/117 82/9/113
f 84/8/117 45/9/113 46/8/117
f 74/11/118 84/8/117 46/8/117
f 74/11/118 46/8/117 73/14/117
f 85/11/118 84/8/117 74/11/118
f 84/8/117 85/11/118 86/14/117
f 82/9/114 84/8/119 45/9/114
f 46/8/119 45/9/114 84/8/119
f 46/8/119 84/8/119 74/11/120
f 73/14/119 46/8/119 74/11/120
f 74/11/120 84/8/119 85/11/120
f 86/14/119 85/11/120 84/8/119
f 27/8/49 52/13/81 20/8/35
f 52/13/81 27/8/49 36/10/107
f 52/13/81 36/10/107 69/13/108
f 20/8/37 52/13/83 27/8/52
f 36/10/112 27/8/52 52/13/83
f 69/13/111 36/10/112 52/13/83
f 38/12/63 85/11/118 74/11/118
f 85/11/118 38/12/63 39/12/63
f 74/11/120 85/11/120 38/12/64
f 39/12/64 38/12/64 85/11/120
f 77/8/123 87/7/122 78/7/121
f 87/7/122 77/8/123 88/8/124
f 78/7/127 87/7/126 77/8/125
f 88/8/128 77/8/125 87/7/126
f 89/6/131 61/1/130 72/1/129
f 61/1/130 89/6/131 57/6/132
f 72/1/135 61/1/134 89/6/133
f 57/6/136 89/6/133 61/1/134
f 62/13/139 55/8/138 90/8/137
f 55/8/138 62/13/139 54/13/140
f 90/8/143 55/8/142 62/13/141
f 54/13/144 62/13/141 55/8/142
f 91/7/145 57/6/132 89/6/131
f 57/6/132 91/7/145 58/7/146
f 89/6/133 57/6/136 91/7/147
f 58/7/148 91/7/147 57/6/136
f 78/7/121 92/6/150 76/6/149
f 92/6/150 78/7/121 87/7/122
f 76/6/152 92/6/151 78/7/127
f 87/7/126 78/7/127 92/6/151
f 81/6/153 91/7/145 89/6/131
f 91/7/145 81/6/153 83/7/51
f 89/6/133 91/7/147 81/6/154
f 83/7/47 81/6/154 91/7/147
f 76/6/149 49/1/156 51/1/155
f 49/1/156 76/6/149 92/6/150
f 51/1/158 49/1/157 76/6/152
f 92/6/151 76/6/152 49/1/157
f 68/13/161 34/11/160 32/10/159
f 34/11/160 68/13/161 39/12/162
f 39/12/162 68/13/161 66/13/163
f 32/10/166 34/11/165 68/13/164
f 39/12/167 68/13/164 34/11/165
f 66/13/168 68/13/164 39/12/167
f 87/7/122 37/9/169 79/7/51
f 37/9/169 87/7/122 88/8/124
f 37/9/169 88/8/124 33/8/170
f 79/7/47 37/9/171 87/7/126
f 88/8/128 87/7/126 37/9/171
f 33/8/172 88/8/128 37/9/171
f 84/8/170 62/13/139 90/8/137
f 62/13/139 84/8/170 86/14/173
f 62/13/139 86/14/173 64/13/174
f 90/8/143 62/13/141 84/8/172
f 86/14/175 84/8/172 62/13/141
f 64/13/176 86/14/175 62/13/141
f 90/8/137 58/7/146 91/7/145
f 58/7/146 90/8/137 55/8/138
f 91/7/147 58/7/148 90/8/143
f 55/8/142 90/8/143 58/7/148
f 71/13/177 88/8/124 77/8/123
f 88/8/124 71/13/177 70/13/178
f 77/8/125 88/8/128 71/13/179
f 70/13/180 71/13/179 88/8/128
f 7/1/13 28/4/181 9/3/15
f 49/1/156 28/4/181 7/1/13
f 28/4/181 49/1/156 92/6/150
f 28/4/181 92/6/150 30/5/181
f 30/5/181 92/6/150 80/6/153
f 9/3/16 28/4/182 7/1/18
f 7/1/18 28/4/182 49/1/157
f 92/6/151 49/1/157 28/4/182
f 30/5/182 92/6/151 28/4/182
f 80/6/154 92/6/151 30/5/182
f 85/11/183 64/13/174 86/14/173
f 64/13/174 85/11/183 39/12/162
f 64/13/174 39/12/162 66/13/163
f 86/14/175 64/13/176 85/11/184
f 39/12/167 85/11/184 64/13/176
f 66/13/168 39/12/167 64/13/176
f 83/7/51 90/8/137 91/7/145
f 90/8/137 83/7/51 82/9/169
f 90/8/137 82/9/169 84/8/170
f 91/7/147 90/8/143 83/7/47
f 82/9/171 83/7/47 90/8/143
f 84/8/172 82/9/171 90/8/143
f 92/6/150 79/7/51 80/6/153
f 79/7/51 92/6/150 87/7/122
f 80/6/154 79/7/47 92/6/151
f 87/7/126 92/6/151 79/7/47
f 70/13/178 33/8/170 88/8/124
f 33/8/170 70/13/178 32/10/159
f 32/10/159 70/13/178 68/13/161
f 88/8/128 33/8/172 70/13/180
f 32/10/166 70/13/180 33/8/172
f 68/13/164 70/13/180 32/10/166
f 12/2/21 72/1/129 11/1/20
f 72/1/129 12/2/21 47/4/181
f 72/1/129 47/4/181 48/5/181
f 72/1/129 48/5/181 89/6/131
f 89/6/131 48/5/181 81/6/153
f 11/1/23 72/1/135 12/2/22
f 47/4/182 12/2/22 72/1/135
f 48/5/182 47/4/182 72/1/135
f 89/6/133 48/5/182 72/1/135
f 81/6/154 48/5/182 89/6/133
