mtllib template-wall.mtl
v -1.296845 0.000000 -1.567808
v -1.266227 0.050000 -1.550130
v -1.245081 0.000000 -1.374623
v -1.227404 0.050000 -1.405241
v -1.051896 0.000000 -1.426387
v -1.082515 0.050000 -1.444064
v -1.547956 0.000000 -1.285347
v -1.934326 0.000000 -1.388874
v -1.583311 0.100000 -1.346584
v -1.873089 0.100000 -1.424230
v -1.830798 0.000000 -1.775245
v -1.795443 0.100000 -1.714007
v -1.444428 0.000000 -1.671717
v -1.505665 0.100000 -1.636362
v -1.103660 0.000000 -1.619572
v -1.121338 0.050000 -1.588953
v 1.290589 -0.000000 -2.162007
v 1.315589 0.100000 -2.137007
v 1.290589 -0.000000 -1.962007
v 1.315589 0.100000 -1.987007
v 1.465589 0.100000 -2.137007
v 1.465589 0.100000 -1.987007
v 1.490589 -0.000000 -2.162007
v 1.490589 -0.000000 -1.962007
v 1.374097 -0.000000 -1.324835
v 1.200892 -0.000000 -1.424835
v 1.364946 0.100000 -1.358986
v 1.235042 0.100000 -1.433986
v 1.300892 -0.000000 -1.598040
v 1.474097 -0.000000 -1.498041
v 1.310043 0.100000 -1.563890
v 1.439946 0.100000 -1.488890
v 1.151401 0.050000 -1.719831
v 0.861623 0.050000 -1.642185
v 1.073755 0.050000 -2.009609
v 0.783977 0.050000 -1.931963
v 1.109110 -0.000000 -2.070846
v 0.722740 -0.000000 -1.967318
v 1.212638 -0.000000 -1.684475
v 0.826268 -0.000000 -1.580948
v 2.000000 4.050000 -0.800000
v 2.000000 4.050000 -0.000000
v 1.199838 4.050000 -1.027246
v -2.000000 4.050000 -0.000000
v 0.800162 4.050000 -1.027246
v -0.000000 4.050000 -0.800000
v -0.724023 4.050000 -0.917205
v -1.275977 4.050000 -0.917205
v -2.000000 4.050000 -0.800000
v -1.275977 2.025000 -1.017205
v -0.724023 2.025000 -1.017205
v -1.275977 3.037500 -0.817205
v -0.724023 3.037500 -0.817205
v -0.000000 2.025000 -0.900000
v -0.000000 3.037500 -0.700000
v 0.800162 0.000000 -1.227246
v 1.199838 0.000000 -1.227246
v 0.800162 1.012500 -0.927246
v 1.199838 1.012500 -0.927246
v 2.000000 0.000000 -0.000000
v -2.000000 0.000000 -0.000000
v 0.800162 2.025000 -1.127246
v 0.800162 3.037500 -0.927246
v -2.000000 0.000000 -1.000000
v -1.275977 0.000000 -1.117205
v -2.000000 1.012500 -0.700000
v -1.275977 1.012500 -0.817205
v -2.000000 2.025000 -0.900000
v -2.000000 3.037500 -0.700000
v -0.724023 0.000000 -1.117205
v -0.000000 0.000000 -1.000000
v -0.724023 1.012500 -0.817205
v -0.000000 1.012500 -0.700000
v 1.199838 2.025000 -1.127246
v 2.000000 2.025000 -0.900000
v 1.199838 3.037500 -0.927246
v 2.000000 3.037500 -0.700000
v 2.000000 0.000000 -1.000000
v 2.000000 1.012500 -0.700000
v 1.048233 0.000000 -0.382838
v 1.226943 0.000000 -1.049790
v 0.381281 0.000000 -0.204128
v 0.738700 0.000000 -1.538033
v -0.106962 0.000000 -0.692371
v 0.071747 0.000000 -1.359324
v 0.672577 1.127352 -1.291261
v 0.980170 1.127352 -0.983668
v 0.252397 1.127352 -1.178674
v 0.139810 1.127352 -0.758494
v 0.447403 1.127352 -0.450901
v 0.867583 1.127352 -0.563488
v 0.713787 1.178595 -0.717284
v 0.503697 1.178595 -0.660991
v 0.770080 1.178595 -0.927374
v 0.616284 1.178595 -1.081171
v 0.349900 1.178595 -0.814787
v 0.406194 1.178595 -1.024877
v 0.348233 0.000000 -0.382838
v 0.526943 0.000000 -1.049790
v -0.318719 0.000000 -0.204128
v 0.038700 0.000000 -1.538033
v -0.806962 0.000000 -0.692371
v -0.628253 0.000000 -1.359324
v -0.027423 0.329635 -1.291261
v 0.280170 0.329635 -0.983668
v -0.447603 0.329635 -1.178674
v -0.560190 0.329635 -0.758494
v -0.252597 0.329635 -0.450901
v 0.167583 0.329635 -0.563488
v 0.013787 0.344619 -0.717284
v -0.196303 0.344619 -0.660991
v 0.070080 0.344619 -0.927374
v -0.083716 0.344619 -1.081171
v -0.350100 0.344619 -0.814787
v -0.293806 0.344619 -1.024877
v -0.504010 0.000000 -0.810125
v -0.841030 0.000000 -1.237249
v -0.841030 0.000000 -0.383001
v -1.515070 0.000000 -1.237249
v -1.515070 0.000000 -0.383001
v -1.852090 0.000000 -0.810125
v -1.390373 3.014000 -1.079213
v -0.965728 3.014000 -1.079213
v -1.602696 3.014000 -0.810125
v -1.390373 3.014000 -0.541037
v -0.965728 3.014000 -0.541037
v -0.753405 3.014000 -0.810125
v -0.965728 3.151000 -0.810125
v -1.071889 3.151000 -0.675581
v -1.071889 3.151000 -0.944669
v -1.284212 3.151000 -0.944669
v -1.284212 3.151000 -0.675581
v -1.390373 3.151000 -0.810125
vn -0.707107 0.577350 -0.408248
vn -0.520267 0.799435 -0.300376
vn -0.408248 0.577350 0.707107
vn -0.300376 0.799435 0.520267
vn 0.408248 -0.577350 -0.707107
vn 0.520267 -0.799435 0.300376
vn 0.707107 -0.577350 0.408248
vn 0.300376 -0.799435 -0.520267
vn 0.707107 0.577350 0.408248
vn 0.520267 0.799435 0.300376
vn -0.520267 -0.799435 -0.300376
vn -0.707107 -0.577350 -0.408248
vn 0.408248 0.577350 0.707107
vn -0.707107 0.577350 0.408248
vn 0.300376 0.799435 0.520267
vn -0.520267 0.799435 0.300376
vn -0.300376 -0.799435 -0.520267
vn 0.707107 -0.577350 -0.408248
vn -0.408248 -0.577350 -0.707107
vn 0.520267 -0.799435 -0.300376
vn -0.408248 0.577350 -0.707107
vn -0.300376 0.799435 -0.520267
vn 0.300376 -0.799435 0.520267
vn 0.408248 -0.577350 0.707107
vn 0.707107 0.577350 -0.408248
vn 0.520267 0.799435 -0.300376
vn -0.520267 -0.799435 0.300376
vn -0.707107 -0.577350 0.408248
vn 0.408248 0.577350 -0.707107
vn 0.300376 0.799435 -0.520267
vn -0.408248 -0.577350 0.707107
vn -0.300376 -0.799435 0.520267
vn -0.666667 0.333333 -0.666667
vn -0.503377 0.702299 -0.503377
vn -0.666667 0.333333 0.666667
vn -0.503377 0.702299 0.503377
vn 0.666667 -0.333333 -0.666667
vn 0.503377 -0.702299 0.503377
vn 0.666667 -0.333333 0.666667
vn 0.503377 -0.702299 -0.503377
vn 0.503377 0.702299 -0.503377
vn 0.503377 0.702299 0.503377
vn -0.503377 -0.702299 -0.503377
vn -0.503377 -0.702299 0.503377
vn 0.666667 0.333333 -0.666667
vn -0.666667 -0.333333 0.666667
vn 0.666667 0.333333 0.666667
vn -0.666667 -0.333333 -0.666667
vn 0.244017 0.333333 0.910684
vn -0.910684 0.333333 0.244017
vn 0.184249 0.702299 0.687625
vn -0.687625 0.702299 0.184249
vn -0.184249 -0.702299 -0.687625
vn 0.910684 -0.333333 -0.244017
vn -0.244017 -0.333333 -0.910684
vn 0.687625 -0.702299 -0.184249
vn -0.244017 0.333333 -0.910684
vn 0.910684 0.333333 -0.244017
vn -0.184249 0.702299 -0.687625
vn 0.687625 0.702299 -0.184249
vn 0.184249 -0.702299 0.687625
vn -0.910684 -0.333333 0.244017
vn 0.244017 -0.333333 0.910684
vn -0.687625 -0.702299 0.184249
vn 0.367661 0.905410 0.212269
vn -0.212269 0.905410 0.367661
vn 0.212269 0.905410 -0.367661
vn -0.367661 0.905410 -0.212269
vn -0.212269 -0.905410 0.367661
vn 0.212269 -0.905410 -0.367661
vn -0.367661 -0.905410 -0.212269
vn 0.367661 -0.905410 0.212269
vn 0.288675 0.816497 -0.500000
vn -0.500000 0.816497 -0.288675
vn 0.500000 -0.816497 0.288675
vn -0.288675 -0.816497 0.500000
vn 0.500000 0.816497 0.288675
vn -0.500000 -0.816497 -0.288675
vn -0.288675 0.816497 0.500000
vn 0.288675 -0.816497 -0.500000
vn 0.000000 1.000000 0.000000
vn 0.000000 -1.000000 0.000000
vn -0.079379 0.000000 -0.996845
vn 0.079379 0.000000 -0.996845
vn -0.080665 0.048477 -0.995562
vn 0.080665 0.048477 -0.995562
vn 0.080665 -0.048477 0.995562
vn -0.079379 0.000000 0.996845
vn 0.079379 0.000000 0.996845
vn -0.080665 -0.048477 0.995562
vn -0.079376 -0.097977 -0.992018
vn 0.079376 -0.097977 -0.992018
vn 0.079376 0.097977 0.992018
vn -0.079376 0.097977 0.992018
vn -0.059695 0.000000 -0.998217
vn -0.056889 0.047254 -0.997262
vn 0.059695 0.000000 0.998217
vn 0.056889 -0.047254 0.997262
vn -0.129174 0.281708 -0.950765
vn 0.129174 0.281708 -0.950765
vn -0.140715 0.047059 -0.988931
vn 0.140715 0.047059 -0.988931
vn 0.140715 -0.047059 0.988931
vn -0.129174 -0.281708 0.950765
vn 0.129174 -0.281708 0.950765
vn -0.140715 -0.047059 0.988931
vn 0.000000 0.000000 1.000000
vn 0.000000 0.000000 -1.000000
vn -0.135647 0.000000 -0.990757
vn -0.139539 0.048423 -0.989032
vn 0.135647 0.000000 0.990757
vn 0.139539 -0.048423 0.989032
vn -0.153374 0.280727 -0.947454
vn -0.075787 0.283271 -0.956041
vn -0.159639 0.044827 -0.986157
vn -0.081059 0.046935 -0.995604
vn 0.159639 -0.044827 0.986157
vn 0.075787 -0.283271 0.956041
vn 0.153374 -0.280727 0.947454
vn 0.081059 -0.046935 0.995604
vn -0.159800 0.000000 -0.987149
vn -0.159624 0.046957 -0.986061
vn 0.159624 -0.046957 0.986061
vn 0.159800 0.000000 0.987149
vn 0.075787 0.283271 -0.956041
vn -0.058010 0.283610 -0.957183
vn 0.081059 0.046935 -0.995604
vn -0.056207 0.044981 -0.997405
vn -0.081059 -0.046935 0.995604
vn 0.058010 -0.283610 0.957183
vn -0.075787 -0.283271 0.956041
vn 0.056207 -0.044981 0.997405
vn 0.135647 0.000000 -0.990757
vn 0.273196 0.000000 -0.961958
vn 0.139539 0.048423 -0.989032
vn 0.272916 0.045299 -0.960971
vn -0.139539 -0.048423 0.989032
vn -0.273196 0.000000 0.961958
vn -0.135647 0.000000 0.990757
vn -0.272916 -0.045299 0.960971
vn 0.262732 0.274108 -0.925114
vn 0.272944 0.042983 -0.961069
vn -0.262732 -0.274108 0.925114
vn -0.272944 -0.042983 0.961069
vn 0.136102 -0.097373 -0.985898
vn 0.271971 -0.094582 -0.957646
vn -0.136102 0.097373 0.985898
vn -0.271971 0.094582 0.957646
vn -0.159046 -0.097036 -0.982491
vn 0.159046 0.097036 0.982491
vn 1.000000 0.000000 0.000000
vn -1.000000 0.000000 0.000000
vn -0.136102 -0.097373 -0.985898
vn 0.136102 0.097373 0.985898
vn -0.058599 -0.098118 -0.993448
vn 0.058599 0.098118 0.993448
vn 0.252418 0.221013 -0.942039
vn 0.942039 0.221013 -0.252419
vn 0.140115 0.840789 -0.522916
vn 0.522916 0.840789 -0.140115
vn -0.140115 -0.840789 0.522916
vn -0.942039 -0.221013 0.252419
vn -0.252418 -0.221013 0.942039
vn -0.522916 -0.840789 0.140115
vn -0.689621 0.221013 -0.689621
vn -0.382801 0.840789 -0.382801
vn -0.942039 0.221013 0.252419
vn -0.522916 0.840789 0.140115
vn 0.942039 -0.221013 -0.252419
vn 0.382801 -0.840789 0.382801
vn 0.689621 -0.221013 0.689621
vn 0.522916 -0.840789 -0.140115
vn -0.252418 0.221013 0.942039
vn -0.140115 0.840789 0.522916
vn 0.140115 -0.840789 -0.522916
vn 0.252418 -0.221013 -0.942039
vn 0.689621 0.221013 0.689621
vn 0.382801 0.840789 0.382801
vn -0.689621 -0.221013 -0.689621
vn -0.382801 -0.840789 -0.382801
vn 0.095969 0.990747 0.095969
vn -0.035127 0.990747 0.131096
vn 0.131096 0.990747 -0.035127
vn 0.035127 0.990747 -0.131096
vn -0.131096 0.990747 0.035127
vn -0.095969 0.990747 -0.095969
vn -0.131096 -0.990747 0.035127
vn 0.035127 -0.990747 -0.131096
vn -0.095969 -0.990747 -0.095969
vn -0.035127 -0.990747 0.131096
vn 0.131096 -0.990747 -0.035127
vn 0.095969 -0.990747 0.095969
vn 0.204571 0.612587 -0.763471
vn 0.763471 0.612587 -0.204571
vn 0.047886 0.982735 -0.178713
vn 0.178713 0.982735 -0.047886
vn -0.047886 -0.982735 0.178713
vn -0.763471 -0.612587 0.204571
vn -0.204571 -0.612587 0.763471
vn -0.178713 -0.982735 0.047886
vn -0.558899 0.612587 -0.558899
vn -0.130827 0.982735 -0.130827
vn -0.763471 0.612587 0.204571
vn -0.178713 0.982735 0.047886
vn 0.763471 -0.612587 -0.204571
vn 0.130827 -0.982735 0.130827
vn 0.558899 -0.612587 0.558899
vn 0.178713 -0.982735 -0.047886
vn -0.204571 0.612587 0.763471
vn -0.047886 0.982735 0.178713
vn 0.047886 -0.982735 -0.178713
vn 0.204571 -0.612587 -0.763471
vn 0.558899 0.612587 0.558899
vn 0.130827 0.982735 0.130827
vn -0.558899 -0.612587 -0.558899
vn -0.130827 -0.982735 -0.130827
vn 0.028301 0.999199 0.028301
vn -0.010359 0.999199 0.038659
vn 0.038659 0.999199 -0.010359
vn 0.010359 0.999199 -0.038659
vn -0.038659 0.999199 0.010359
vn -0.028301 0.999199 -0.028301
vn -0.038659 -0.999199 0.010359
vn 0.010359 -0.999199 -0.038659
vn -0.028301 -0.999199 -0.028301
vn -0.010359 -0.999199 0.038659
vn 0.038659 -0.999199 -0.010359
vn 0.028301 -0.999199 0.028301
vn -0.388347 0.064268 -0.919269
vn 0.388347 0.064268 -0.919269
vn -0.356017 0.403785 -0.842740
vn 0.356017 0.403785 -0.842740
vn 0.356017 -0.403785 0.842740
vn -0.388347 -0.064268 0.919269
vn 0.388347 -0.064268 0.919269
vn -0.356017 -0.403785 0.842740
vn -0.996594 0.082464 0.000000
vn -0.869865 0.493289 0.000000
vn -0.388347 0.064268 0.919269
vn -0.356017 0.403785 0.842740
vn 0.388347 -0.064268 -0.919269
vn 0.869865 -0.493289 0.000000
vn 0.996594 -0.082464 0.000000
vn 0.356017 -0.403785 -0.842740
vn 0.388347 0.064268 0.919269
vn 0.356017 0.403785 0.842740
vn -0.356017 -0.403785 -0.842740
vn -0.388347 -0.064268 -0.919269
vn 0.996594 0.082464 0.000000
vn 0.869865 0.493289 0.000000
vn -0.996594 -0.082464 0.000000
vn -0.869865 -0.493289 0.000000
vn 0.351266 0.936276 0.000000
vn 0.168979 0.900805 0.399997
vn 0.168979 0.900805 -0.399997
vn -0.168979 0.900805 -0.399997
vn -0.168979 0.900805 0.399997
vn -0.351266 0.936276 0.000000
vn -0.168979 -0.900805 0.399997
vn -0.168979 -0.900805 -0.399997
vn -0.351266 -0.936276 0.000000
vn 0.168979 -0.900805 0.399997
vn 0.168979 -0.900805 -0.399997
vn 0.351266 -0.936276 0.000000
usemtl colormap
f 3/1/3 2/2/2 1/1/1
f 2/2/2 3/1/3 4/2/4
f 1/1/7 2/2/6 3/1/5
f 4/2/8 3/1/5 2/2/6
f 6/2/10 3/1/3 5/1/9
f 3/1/3 6/2/10 4/2/4
f 5/1/12 3/1/5 6/2/11
f 4/2/8 6/2/11 3/1/5
f 9/3/15 8/1/14 7/1/13
f 8/1/14 9/3/15 10/3/16
f 7/1/19 8/1/18 9/3/17
f 10/3/20 9/3/17 8/1/18
f 8/1/14 12/3/22 11/1/21
f 12/3/22 8/1/14 10/3/16
f 11/1/24 12/3/23 8/1/18
f 10/3/20 8/1/18 12/3/23
f 14/3/26 7/1/13 13/1/25
f 7/1/13 14/3/26 9/3/15
f 13/1/28 7/1/19 14/3/27
f 9/3/17 14/3/27 7/1/19
f 2/2/2 15/1/29 1/1/1
f 15/1/29 2/2/2 16/2/30
f 1/1/7 15/1/31 2/2/6
f 16/2/32 2/2/6 15/1/31
f 12/3/22 13/1/25 11/1/21
f 13/1/25 12/3/22 14/3/26
f 11/1/24 13/1/28 12/3/23
f 14/3/27 12/3/23 13/1/28
f 12/3/22 9/3/15 14/3/26
f 9/3/15 12/3/22 10/3/16
f 14/3/27 9/3/17 12/3/23
f 10/3/20 12/3/23 9/3/17
f 16/2/30 4/2/4 6/2/10
f 4/2/4 16/2/30 2/2/2
f 6/2/11 4/2/8 16/2/32
f 2/2/6 16/2/32 4/2/8
f 16/2/30 5/1/9 15/1/29
f 5/1/9 16/2/30 6/2/10
f 15/1/31 5/1/12 16/2/32
f 6/2/11 16/2/32 5/1/12
f 19/1/35 18/3/34 17/1/33
f 18/3/34 19/1/35 20/3/36
f 17/1/39 18/3/38 19/1/37
f 20/3/40 19/1/37 18/3/38
f 18/3/34 22/3/42 21/3/41
f 22/3/42 18/3/34 20/3/36
f 21/3/44 22/3/43 18/3/38
f 20/3/40 18/3/38 22/3/43
f 18/3/34 23/1/45 17/1/33
f 23/1/45 18/3/34 21/3/41
f 17/1/39 23/1/46 18/3/38
f 21/3/44 18/3/38 23/1/46
f 22/3/42 19/1/35 24/1/47
f 19/1/35 22/3/42 20/3/36
f 24/1/48 19/1/37 22/3/43
f 20/3/40 22/3/43 19/1/37
f 27/3/51 26/1/50 25/1/49
f 26/1/50 27/3/51 28/3/52
f 25/1/55 26/1/54 27/3/53
f 28/3/56 27/3/53 26/1/54
f 31/3/59 30/1/58 29/1/57
f 30/1/58 31/3/59 32/3/60
f 29/1/63 30/1/62 31/3/61
f 32/3/64 31/3/61 30/1/62
f 26/1/50 31/3/59 29/1/57
f 31/3/59 26/1/50 28/3/52
f 29/1/63 31/3/61 26/1/54
f 28/3/56 26/1/54 31/3/61
f 21/3/41 24/1/47 23/1/45
f 24/1/47 21/3/41 22/3/42
f 23/1/46 24/1/48 21/3/44
f 22/3/43 21/3/44 24/1/48
f 35/2/67 34/2/66 33/2/65
f 34/2/66 35/2/67 36/2/68
f 33/2/71 34/2/70 35/2/69
f 36/2/72 35/2/69 34/2/70
f 38/1/74 35/2/67 37/1/73
f 35/2/67 38/1/74 36/2/68
f 37/1/76 35/2/69 38/1/75
f 36/2/72 38/1/75 35/2/69
f 31/3/59 27/3/51 32/3/60
f 27/3/51 31/3/59 28/3/52
f 32/3/64 27/3/53 31/3/61
f 28/3/56 31/3/61 27/3/53
f 37/1/73 33/2/65 39/1/77
f 33/2/65 37/1/73 35/2/67
f 39/1/78 33/2/71 37/1/76
f 35/2/69 37/1/76 33/2/71
f 32/3/60 25/1/49 30/1/58
f 25/1/49 32/3/60 27/3/51
f 30/1/62 25/1/55 32/3/64
f 27/3/53 32/3/64 25/1/55
f 36/2/68 40/1/79 34/2/66
f 40/1/79 36/2/68 38/1/74
f 34/2/70 40/1/80 36/2/72
f 38/1/75 36/2/72 40/1/80
f 33/2/65 40/1/79 39/1/77
f 40/1/79 33/2/65 34/2/66
f 39/1/78 40/1/80 33/2/71
f 34/2/70 33/2/71 40/1/80
f 43/4/81 42/4/81 41/4/81
f 42/4/81 43/4/81 44/4/81
f 44/4/81 43/4/81 45/4/81
f 44/4/81 45/4/81 46/4/81
f 44/4/81 46/4/81 47/4/81
f 44/4/81 47/4/81 48/4/81
f 44/4/81 48/4/81 49/4/81
f 41/4/82 42/4/82 43/4/82
f 44/4/82 43/4/82 42/4/82
f 45/4/82 43/4/82 44/4/82
f 46/4/82 45/4/82 44/4/82
f 47/4/82 46/4/82 44/4/82
f 48/4/82 47/4/82 44/4/82
f 49/4/82 48/4/82 44/4/82
f 52/6/85 51/5/84 50/5/83
f 51/5/84 52/6/85 53/6/86
f 50/5/89 51/5/88 52/6/87
f 53/6/90 52/6/87 51/5/88
f 48/4/91 53/6/86 52/6/85
f 53/6/86 48/4/91 47/4/92
f 52/6/87 53/6/90 48/4/93
f 47/4/94 48/4/93 53/6/90
f 53/6/86 54/5/95 51/5/84
f 54/5/95 53/6/86 55/6/96
f 51/5/88 54/5/97 53/6/90
f 55/6/98 53/6/90 54/5/97
f 58/7/101 57/1/100 56/1/99
f 57/1/100 58/7/101 59/7/102
f 56/1/105 57/1/104 58/7/103
f 59/7/106 58/7/103 57/1/104
f 42/4/107 61/1/107 60/1/107
f 61/1/107 42/4/107 44/4/107
f 60/1/108 61/1/108 42/4/108
f 44/4/108 42/4/108 61/1/108
f 55/6/96 62/5/109 54/5/95
f 62/5/109 55/6/96 63/6/110
f 54/5/97 62/5/111 55/6/98
f 63/6/112 55/6/98 62/5/111
f 66/7/115 65/1/114 64/1/113
f 65/1/114 66/7/115 67/7/116
f 64/1/119 65/1/118 66/7/117
f 67/7/120 66/7/117 65/1/118
f 69/6/122 50/5/83 68/5/121
f 50/5/83 69/6/122 52/6/85
f 68/5/124 50/5/89 69/6/123
f 52/6/87 69/6/123 50/5/89
f 72/7/127 71/1/126 70/1/125
f 71/1/126 72/7/127 73/7/128
f 70/1/131 71/1/130 72/7/129
f 73/7/132 72/7/129 71/1/130
f 76/6/135 75/5/134 74/5/133
f 75/5/134 76/6/135 77/6/136
f 74/5/139 75/5/138 76/6/137
f 77/6/140 76/6/137 75/5/138
f 73/7/128 56/1/99 71/1/126
f 56/1/99 73/7/128 58/7/101
f 71/1/130 56/1/105 73/7/132
f 58/7/103 73/7/132 56/1/105
f 63/6/110 74/5/133 62/5/109
f 74/5/133 63/6/110 76/6/135
f 62/5/111 74/5/139 63/6/112
f 76/6/137 63/6/112 74/5/139
f 59/7/102 78/1/141 57/1/100
f 78/1/141 59/7/102 79/7/142
f 57/1/104 78/1/143 59/7/106
f 79/7/144 59/7/106 78/1/143
f 67/7/116 70/1/125 65/1/114
f 70/1/125 67/7/116 72/7/127
f 65/1/118 70/1/131 67/7/120
f 72/7/129 67/7/120 70/1/131
f 74/5/133 79/7/142 59/7/102
f 79/7/142 74/5/133 75/5/134
f 59/7/106 79/7/144 74/5/139
f 75/5/138 74/5/139 79/7/144
f 43/4/145 77/6/136 76/6/135
f 77/6/136 43/4/145 41/4/146
f 76/6/137 77/6/140 43/4/147
f 41/4/148 43/4/147 77/6/140
f 51/5/84 73/7/128 72/7/127
f 73/7/128 51/5/84 54/5/95
f 72/7/129 73/7/132 51/5/88
f 54/5/97 51/5/88 73/7/132
f 49/4/149 52/6/85 69/6/122
f 52/6/85 49/4/149 48/4/91
f 69/6/123 52/6/87 49/4/150
f 48/4/93 49/4/150 52/6/87
f 42/4/151 77/6/151 41/4/151
f 77/6/151 42/4/151 79/7/151
f 79/7/151 75/5/151 77/6/151
f 60/1/151 79/7/151 42/4/151
f 79/7/151 60/1/151 78/1/151
f 41/4/152 77/6/152 42/4/152
f 79/7/152 42/4/152 77/6/152
f 77/6/152 75/5/152 79/7/152
f 42/4/152 79/7/152 60/1/152
f 78/1/152 60/1/152 79/7/152
f 45/4/153 76/6/135 63/6/110
f 76/6/135 45/4/153 43/4/145
f 63/6/112 76/6/137 45/4/154
f 43/4/147 45/4/154 76/6/137
f 54/5/95 58/7/101 73/7/128
f 58/7/101 54/5/95 62/5/109
f 73/7/132 58/7/103 54/5/97
f 62/5/111 54/5/97 58/7/103
f 50/5/83 72/7/127 67/7/116
f 72/7/127 50/5/83 51/5/84
f 67/7/120 72/7/129 50/5/89
f 51/5/88 50/5/89 72/7/129
f 46/4/155 63/6/110 55/6/96
f 63/6/110 46/4/155 45/4/153
f 55/6/98 63/6/112 46/4/156
f 45/4/154 46/4/156 63/6/112
f 47/4/92 55/6/96 53/6/86
f 55/6/96 47/4/92 46/4/155
f 53/6/90 55/6/98 47/4/94
f 46/4/156 47/4/94 55/6/98
f 68/5/121 67/7/116 66/7/115
f 67/7/116 68/5/121 50/5/83
f 66/7/117 67/7/120 68/5/124
f 50/5/89 68/5/124 67/7/120
f 62/5/109 59/7/102 58/7/101
f 59/7/102 62/5/109 74/5/133
f 58/7/103 59/7/106 62/5/111
f 74/5/139 62/5/111 59/7/106
f 61/1/152 66/7/152 64/1/152
f 66/7/152 61/1/152 69/6/152
f 69/6/152 68/5/152 66/7/152
f 44/4/152 69/6/152 61/1/152
f 69/6/152 44/4/152 49/4/152
f 64/1/151 66/7/151 61/1/151
f 69/6/151 61/1/151 66/7/151
f 66/7/151 68/5/151 69/6/151
f 61/1/151 69/6/151 44/4/151
f 49/4/151 44/4/151 69/6/151
f 61/1/82 78/1/82 60/1/82
f 78/1/82 61/1/82 57/1/82
f 57/1/82 61/1/82 56/1/82
f 56/1/82 61/1/82 71/1/82
f 71/1/82 61/1/82 70/1/82
f 70/1/82 61/1/82 65/1/82
f 65/1/82 61/1/82 64/1/82
f 60/1/81 78/1/81 61/1/81
f 57/1/81 61/1/81 78/1/81
f 56/1/81 61/1/81 57/1/81
f 71/1/81 61/1/81 56/1/81
f 70/1/81 61/1/81 71/1/81
f 65/1/81 61/1/81 70/1/81
f 64/1/81 61/1/81 65/1/81
f 82/1/82 81/1/82 80/1/82
f 81/1/82 82/1/82 83/1/82
f 83/1/82 82/1/82 84/1/82
f 83/1/82 84/1/82 85/1/82
f 80/1/81 81/1/81 82/1/81
f 83/1/81 82/1/81 81/1/81
f 84/1/81 82/1/81 83/1/81
f 85/1/81 84/1/81 83/1/81
f 86/8/159 81/1/158 83/1/157
f 81/1/158 86/8/159 87/8/160
f 83/1/163 81/1/162 86/8/161
f 87/8/164 86/8/161 81/1/162
f 84/1/167 88/8/166 85/1/165
f 88/8/166 84/1/167 89/8/168
f 85/1/171 88/8/170 84/1/169
f 89/8/172 84/1/169 88/8/170
f 85/1/165 86/8/159 83/1/157
f 86/8/159 85/1/165 88/8/166
f 83/1/163 86/8/161 85/1/171
f 88/8/170 85/1/171 86/8/161
f 90/8/174 84/1/167 82/1/173
f 84/1/167 90/8/174 89/8/168
f 82/1/176 84/1/169 90/8/175
f 89/8/172 90/8/175 84/1/169
f 87/8/160 80/1/177 81/1/158
f 80/1/177 87/8/160 91/8/178
f 81/1/162 80/1/179 87/8/164
f 91/8/180 87/8/164 80/1/179
f 91/8/178 82/1/173 80/1/177
f 82/1/173 91/8/178 90/8/174
f 80/1/179 82/1/176 91/8/180
f 90/8/175 91/8/180 82/1/176
f 94/4/183 93/4/182 92/4/181
f 93/4/182 94/4/183 95/4/184
f 93/4/182 95/4/184 96/4/185
f 96/4/185 95/4/184 97/4/186
f 92/4/189 93/4/188 94/4/187
f 95/4/190 94/4/187 93/4/188
f 96/4/191 95/4/190 93/4/188
f 97/4/192 95/4/190 96/4/191
f 86/8/159 97/4/186 95/4/184
f 97/4/186 86/8/159 88/8/166
f 95/4/190 97/4/192 86/8/161
f 88/8/170 86/8/161 97/4/192
f 93/4/182 89/8/168 90/8/174
f 89/8/168 93/4/182 96/4/185
f 90/8/175 89/8/172 93/4/188
f 96/4/191 93/4/188 89/8/172
f 87/8/160 92/4/181 91/8/178
f 92/4/181 87/8/160 94/4/183
f 91/8/180 92/4/189 87/8/164
f 94/4/187 87/8/164 92/4/189
f 97/4/186 89/8/168 96/4/185
f 89/8/168 97/4/186 88/8/166
f 96/4/191 89/8/172 97/4/192
f 88/8/170 97/4/192 89/8/172
f 92/4/181 90/8/174 91/8/178
f 90/8/174 92/4/181 93/4/182
f 91/8/180 90/8/175 92/4/189
f 93/4/188 92/4/189 90/8/175
f 86/8/159 94/4/183 87/8/160
f 94/4/183 86/8/159 95/4/184
f 87/8/164 94/4/187 86/8/161
f 95/4/190 86/8/161 94/4/187
f 100/9/82 99/9/82 98/9/82
f 99/9/82 100/9/82 101/9/82
f 101/9/82 100/9/82 102/9/82
f 101/9/82 102/9/82 103/9/82
f 98/9/81 99/9/81 100/9/81
f 101/9/81 100/9/81 99/9/81
f 102/9/81 100/9/81 101/9/81
f 103/9/81 102/9/81 101/9/81
f 104/10/195 99/9/194 101/9/193
f 99/9/194 104/10/195 105/10/196
f 101/9/199 99/9/198 104/10/197
f 105/10/200 104/10/197 99/9/198
f 102/9/203 106/10/202 103/9/201
f 106/10/202 102/9/203 107/10/204
f 103/9/207 106/10/206 102/9/205
f 107/10/208 102/9/205 106/10/206
f 103/9/201 104/10/195 101/9/193
f 104/10/195 103/9/201 106/10/202
f 101/9/199 104/10/197 103/9/207
f 106/10/206 103/9/207 104/10/197
f 108/10/210 102/9/203 100/9/209
f 102/9/203 108/10/210 107/10/204
f 100/9/212 102/9/205 108/10/211
f 107/10/208 108/10/211 102/9/205
f 105/10/196 98/9/213 99/9/194
f 98/9/213 105/10/196 109/10/214
f 99/9/198 98/9/215 105/10/200
f 109/10/216 105/10/200 98/9/215
f 109/10/214 100/9/209 98/9/213
f 100/9/209 109/10/214 108/10/210
f 98/9/215 100/9/212 109/10/216
f 108/10/211 109/10/216 100/9/212
f 112/11/219 111/11/218 110/11/217
f 111/11/218 112/11/219 113/11/220
f 111/11/218 113/11/220 114/11/221
f 114/11/221 113/11/220 115/11/222
f 110/11/225 111/11/224 112/11/223
f 113/11/226 112/11/223 111/11/224
f 114/11/227 113/11/226 111/11/224
f 115/11/228 113/11/226 114/11/227
f 104/10/195 115/11/222 113/11/220
f 115/11/222 104/10/195 106/10/202
f 113/11/226 115/11/228 104/10/197
f 106/10/206 104/10/197 115/11/228
f 111/11/218 107/10/204 108/10/210
f 107/10/204 111/11/218 114/11/221
f 108/10/211 107/10/208 111/11/224
f 114/11/227 111/11/224 107/10/208
f 105/10/196 110/11/217 109/10/214
f 110/11/217 105/10/196 112/11/219
f 109/10/216 110/11/225 105/10/200
f 112/11/223 105/10/200 110/11/225
f 115/11/222 107/10/204 114/11/221
f 107/10/204 115/11/222 106/10/202
f 114/11/227 107/10/208 115/11/228
f 106/10/206 115/11/228 107/10/208
f 110/11/217 108/10/210 109/10/214
f 108/10/210 110/11/217 111/11/218
f 109/10/216 108/10/211 110/11/225
f 111/11/224 110/11/225 108/10/211
f 104/10/195 112/11/219 105/10/196
f 112/11/219 104/10/195 113/11/220
f 105/10/200 112/11/223 104/10/197
f 113/11/226 104/10/197 112/11/223
f 118/9/82 117/9/82 116/9/82
f 117/9/82 118/9/82 119/9/82
f 119/9/82 118/9/82 120/9/82
f 119/9/82 120/9/82 121/9/82
f 116/9/81 117/9/81 118/9/81
f 119/9/81 118/9/81 117/9/81
f 120/9/81 118/9/81 119/9/81
f 121/9/81 120/9/81 119/9/81
f 122/10/231 117/9/230 119/9/229
f 117/9/230 122/10/231 123/10/232
f 119/9/235 117/9/234 122/10/233
f 123/10/236 122/10/233 117/9/234
f 120/9/239 124/10/238 121/9/237
f 124/10/238 120/9/239 125/10/240
f 121/9/243 124/10/242 120/9/241
f 125/10/244 120/9/241 124/10/242
f 121/9/237 122/10/231 119/9/229
f 122/10/231 121/9/237 124/10/238
f 119/9/235 122/10/233 121/9/243
f 124/10/242 121/9/243 122/10/233
f 126/10/246 120/9/239 118/9/245
f 120/9/239 126/10/246 125/10/240
f 118/9/248 120/9/241 126/10/247
f 125/10/244 126/10/247 120/9/241
f 123/10/232 116/9/249 117/9/230
f 116/9/249 123/10/232 127/10/250
f 117/9/234 116/9/251 123/10/236
f 127/10/252 123/10/236 116/9/251
f 127/10/250 118/9/245 116/9/249
f 118/9/245 127/10/250 126/10/246
f 116/9/251 118/9/248 127/10/252
f 126/10/247 127/10/252 118/9/248
f 130/11/255 129/11/254 128/11/253
f 129/11/254 130/11/255 131/11/256
f 129/11/254 131/11/256 132/11/257
f 132/11/257 131/11/256 133/11/258
f 128/11/261 129/11/260 130/11/259
f 131/11/262 130/11/259 129/11/260
f 132/11/263 131/11/262 129/11/260
f 133/11/264 131/11/262 132/11/263
f 122/10/231 133/11/258 131/11/256
f 133/11/258 122/10/231 124/10/238
f 131/11/262 133/11/264 122/10/233
f 124/10/242 122/10/233 133/11/264
f 129/11/254 125/10/240 126/10/246
f 125/10/240 129/11/254 132/11/257
f 126/10/247 125/10/244 129/11/260
f 132/11/263 129/11/260 125/10/244
f 123/10/232 128/11/253 127/10/250
f 128/11/253 123/10/232 130/11/255
f 127/10/252 128/11/261 123/10/236
f 130/11/259 123/10/236 128/11/261
f 133/11/258 125/10/240 132/11/257
f 125/10/240 133/11/258 124/10/238
f 132/11/263 125/10/244 133/11/264
f 124/10/242 133/11/264 125/10/244
f 128/11/253 126/10/246 127/10/250
f 126/10/246 128/11/253 129/11/254
f 127/10/252 126/10/247 128/11/261
f 129/11/260 128/11/261 126/10/247
f 122/10/231 130/11/255 123/10/232
f 130/11/255 122/10/231 131/11/256
f 123/10/236 130/11/259 122/10/233
f 131/11/262 122/10/233 130/11/259
f 3/1/3 2/2/2 1/1/1
f 2/2/2 3/1/3 4/2/4
f 1/1/7 2/2/6 3/1/5
f 4/2/8 3/1/5 2/2/6
f 6/2/10 3/1/3 5/1/9
f 3/1/3 6/2/10 4/2/4
f 5/1/12 3/1/5 6/2/11
f 4/2/8 6/2/11 3/1/5
f 9/3/15 8/1/14 7/1/13
f 8/1/14 9/3/15 10/3/16
f 7/1/19 8/1/18 9/3/17
f 10/3/20 9/3/17 8/1/18
f 8/1/14 12/3/22 11/1/21
f 12/3/22 8/1/14 10/3/16
f 11/1/24 12/3/23 8/1/18
f 10/3/20 8/1/18 12/3/23
f 14/3/26 7/1/13 13/1/25
f 7/1/13 14/3/26 9/3/15
f 13/1/28 7/1/19 14/3/27
f 9/3/17 14/3/27 7/1/19
f 2/2/2 15/1/29 1/1/1
f 15/1/29 2/2/2 16/2/30
f 1/1/7 15/1/31 2/2/6
f 16/2/32 2/2/6 15/1/31
f 12/3/22 13/1/25 11/1/21
f 13/1/25 12/3/22 14/3/26
f 11/1/24 13/1/28 12/3/23
f 14/3/27 12/3/23 13/1/28
f 12/3/22 9/3/15 14/3/26
f 9/3/15 12/3/22 10/3/16
f 14/3/27 9/3/17 12/3/23
f 10/3/20 12/3/23 9/3/17
f 16/2/30 4/2/4 6/2/10
f 4/2/4 16/2/30 2/2/2
f 6/2/11 4/2/8 16/2/32
f 2/2/6 16/2/32 4/2/8
f 16/2/30 5/1/9 15/1/29
f 5/1/9 16/2/30 6/2/10
f 15/1/31 5/1/12 16/2/32
f 6/2/11 16/2/32 5/1/12
f 19/1/35 18/3/34 17/1/33
f 18/3/34 19/1/35 20/3/36
f 17/1/39 18/3/38 19/1/37
f 20/3/40 19/1/37 18/3/38
f 18/3/34 22/3/42 21/3/41
f 22/3/42 18/3/34 20/3/36
f 21/3/44 22/3/43 18/3/38
f 20/3/40 18/3/38 22/3/43
f 18/3/34 23/1/45 17/1/33
f 23/1/45 18/3/34 21/3/41
f 17/1/39 23/1/46 18/3/38
f 21/3/44 18/3/38 23/1/46
f 22/3/42 19/1/35 24/1/47
f 19/1/35 22/3/42 20/3/36
f 24/1/48 19/1/37 22/3/43
f 20/3/40 22/3/43 19/1/37
f 27/3/51 26/1/50 25/1/49
f 26/1/50 27/3/51 28/3/52
f 25/1/55 26/1/54 27/3/53
f 28/3/56 27/3/53 26/1/54
f 31/3/59 30/1/58 29/1/57
f 30/1/58 31/3/59 32/3/60
f 29/1/63 30/1/62 31/3/61
f 32/3/64 31/3/61 30/1/62
f 26/1/50 31/3/59 29/1/57
f 31/3/59 26/1/50 28/3/52
f 29/1/63 31/3/61 26/1/54
f 28/3/56 26/1/54 31/3/61
f 21/3/41 24/1/47 23/1/45
f 24/1/47 21/3/41 22/3/42
f 23/1/46 24/1/48 21/3/44
f 22/3/43 21/3/44 24/1/48
f 35/2/67 34/2/66 33/2/65
f 34/2/66 35/2/67 36/2/68
f 33/2/71 34/2/70 35/2/69
f 36/2/72 35/2/69 34/2/70
f 38/1/74 35/2/67 37/1/73
f 35/2/67 38/1/74 36/2/68
f 37/1/76 35/2/69 38/1/75
f 36/2/72 38/1/75 35/2/69
f 31/3/59 27/3/51 32/3/60
f 27/3/51 31/3/59 28/3/52
f 32/3/64 27/3/53 31/3/61
f 28/3/56 31/3/61 27/3/53
f 37/1/73 33/2/65 39/1/77
f 33/2/65 37/1/73 35/2/67
f 39/1/78 33/2/71 37/1/76
f 35/2/69 37/1/76 33/2/71
f 32/3/60 25/1/49 30/1/58
f 25/1/49 32/3/60 27/3/51
f 30/1/62 25/1/55 32/3/64
f 27/3/53 32/3/64 25/1/55
f 36/2/68 40/1/79 34/2/66
f 40/1/79 36/2/68 38/1/74
f 34/2/70 40/1/80 36/2/72
f 38/1/75 36/2/72 40/1/80
f 33/2/65 40/1/79 39/1/77
f 40/1/79 33/2/65 34/2/66
f 39/1/78 40/1/80 33/2/71
f 34/2/70 33/2/71 40/1/80
f 43/4/81 42/4/81 41/4/81
f 42/4/81 43/4/81 44/4/81
f 44/4/81 43/4/81 45/4/81
f 44/4/81 45/4/81 46/4/81
f 44/4/81 46/4/81 47/4/81
f 44/4/81 47/4/81 48/4/81
f 44/4/81 48/4/81 49/4/81
f 41/4/82 42/4/82 43/4/82
f 44/4/82 43/4/82 42/4/82
f 45/4/82 43/4/82 44/4/82
f 46/4/82 45/4/82 44/4/82
f 47/4/82 46/4/82 44/4/82
f 48/4/82 47/4/82 44/4/82
f 49/4/82 48/4/82 44/4/82
f 52/6/85 51/5/84 50/5/83
f 51/5/84 52/6/85 53/6/86
f 50/5/89 51/5/88 52/6/87
f 53/6/90 52/6/87 51/5/88
f 48/4/91 53/6/86 52/6/85
f 53/6/86 48/4/91 47/4/92
f 52/6/87 53/6/90 48/4/93
f 47/4/94 48/4/93 53/6/90
f 53/6/86 54/5/95 51/5/84
f 54/5/95 53/6/86 55/6/96
f 51/5/88 54/5/97 53/6/90
f 55/6/98 53/6/90 54/5/97
f 58/7/101 57/1/100 56/1/99
f 57/1/100 58/7/101 59/7/102
f 56/1/105 57/1/104 58/7/103
f 59/7/106 58/7/103 57/1/104
f 42/4/107 61/1/107 60/1/107
f 61/1/107 42/4/107 44/4/107
f 60/1/108 61/1/108 42/4/108
f 44/4/108 42/4/108 61/1/108
f 55/6/96 62/5/109 54/5/95
f 62/5/109 55/6/96 63/6/110
f 54/5/97 62/5/111 55/6/98
f 63/6/112 55/6/98 62/5/111
f 66/7/115 65/1/114 64/1/113
f 65/1/114 66/7/115 67/7/116
f 64/1/119 65/1/118 66/7/117
f 67/7/120 66/7/117 65/1/118
f 69/6/122 50/5/83 68/5/121
f 50/5/83 69/6/122 52/6/85
f 68/5/124 50/5/89 69/6/123
f 52/6/87 69/6/123 50/5/89
f 72/7/127 71/1/126 70/1/125
f 71/1/126 72/7/127 73/7/128
f 70/1/131 71/1/130 72/7/129
f 73/7/132 72/7/129 71/1/130
f 76/6/135 75/5/134 74/5/133
f 75/5/134 76/6/135 77/6/136
f 74/5/139 75/5/138 76/6/137
f 77/6/140 76/6/137 75/5/138
f 73/7/128 56/1/99 71/1/126
f 56/1/99 73/7/128 58/7/101
f 71/1/130 56/1/105 73/7/132
f 58/7/103 73/7/132 56/1/105
f 63/6/110 74/5/133 62/5/109
f 74/5/133 63/6/110 76/6/135
f 62/5/111 74/5/139 63/6/112
f 76/6/137 63/6/112 74/5/139
f 59/7/102 78/1/141 57/1/100
f 78/1/141 59/7/102 79/7/142
f 57/1/104 78/1/143 59/7/106
f 79/7/144 59/7/106 78/1/143
f 67/7/116 70/1/125 65/1/114
f 70/1/125 67/7/116 72/7/127
f 65/1/118 70/1/131 67/7/120
f 72/7/129 67/7/120 70/1/131
f 74/5/133 79/7/142 59/7/102
f 79/7/142 74/5/133 75/5/134
f 59/7/106 79/7/144 74/5/139
f 75/5/138 74/5/139 79/7/144
f 43/4/145 77/6/136 76/6/135
f 77/6/136 43/4/145 41/4/146
f 76/6/137 77/6/140 43/4/147
f 41/4/148 43/4/147 77/6/140
f 51/5/84 73/7/128 72/7/127
f 73/7/128 51/5/84 54/5/95
f 72/7/129 73/7/132 51/5/88
f 54/5/97 51/5/88 73/7/132
f 49/4/149 52/6/85 69/6/122
f 52/6/85 49/4/149 48/4/91
f 69/6/123 52/6/87 49/4/150
f 48/4/93 49/4/150 52/6/87
f 42/4/151 77/6/151 41/4/151
f 77/6/151 42/4/151 79/7/151
f 79/7/151 75/5/151 77/6/151
f 60/1/151 79/7/151 42/4/151
f 79/7/151 60/1/151 78/1/151
f 41/4/152 77/6/152 42/4/152
f 79/7/152 42/4/152 77/6/152
f 77/6/152 75/5/152 79/7/152
f 42/4/152 79/7/152 60/1/152
f 78/1/152 60/1/152 79/7/152
f 45/4/153 76/6/135 63/6/110
f 76/6/135 45/4/153 43/4/145
f 63/6/112 76/6/137 45/4/154
f 43/4/147 45/4/154 76/6/137
f 54/5/95 58/7/101 73/7/128
f 58/7/101 54/5/95 62/5/109
f 73/7/132 58/7/103 54/5/97
f 62/5/111 54/5/97 58/7/103
f 50/5/83 72/7/127 67/7/116
f 72/7/127 50/5/83 51/5/84
f 67/7/120 72/7/129 50/5/89
f 51/5/88 50/5/89 72/7/129
f 46/4/155 63/6/110 55/6/96
f 63/6/110 46/4/155 45/4/153
f 55/6/98 63/6/112 46/4/156
f 45/4/154 46/4/156 63/6/112
f 47/4/92 55/6/96 53/6/86
f 55/6/96 47/4/92 46/4/155
f 53/6/90 55/6/98 47/4/94
f 46/4/156 47/4/94 55/6/98
f 68/5/121 67/7/116 66/7/115
f 67/7/116 68/5/121 50/5/83
f 66/7/117 67/7/120 68/5/124
f 50/5/89 68/5/124 67/7/120
f 62/5/109 59/7/102 58/7/101
f 59/7/102 62/5/109 74/5/133
f 58/7/103 59/7/106 62/5/111
f 74/5/139 62/5/111 59/7/106
f 61/1/152 66/7/152 64/1/152
f 66/7/152 61/1/152 69/6/152
f 69/6/152 68/5/152 66/7/152
f 44/4/152 69/6/152 61/1/152
f 69/6/152 44/4/152 49/4/152
f 64/1/151 66/7/151 61/1/151
f 69/6/151 61/1/151 66/7/151
f 66/7/151 68/5/151 69/6/151
f 61/1/151 69/6/151 44/4/151
f 49/4/151 44/4/151 69/6/151
f 61/1/82 78/1/82 60/1/82
f 78/1/82 61/1/82 57/1/82
f 57/1/82 61/1/82 56/1/82
f 56/1/82 61/1/82 71/1/82
f 71/1/82 61/1/82 70/1/82
f 70/1/82 61/1/82 65/1/82
f 65/1/82 61/1/82 64/1/82
f 60/1/81 78/1/81 61/1/81
f 57/1/81 61/1/81 78/1/81
f 56/1/81 61/1/81 57/1/81
f 71/1/81 61/1/81 56/1/81
f 70/1/81 61/1/81 71/1/81
f 65/1/81 61/1/81 70/1/81
f 64/1/81 61/1/81 65/1/81
f 82/1/82 81/1/82 80/1/82
f 81/1/82 82/1/82 83/1/82
f 83/1/82 82/1/82 84/1/82
f 83/1/82 84/1/82 85/1/82
f 80/1/81 81/1/81 82/1/81
f 83/1/81 82/1/81 81/1/81
f 84/1/81 82/1/81 83/1/81
f 85/1/81 84/1/81 83/1/81
f 86/8/159 81/1/158 83/1/157
f 81/1/158 86/8/159 87/8/160
f 83/1/163 81/1/162 86/8/161
f 87/8/164 86/8/161 81/1/162
f 84/1/167 88/8/166 85/1/165
f 88/8/166 84/1/167 89/8/168
f 85/1/171 88/8/170 84/1/169
f 89/8/172 84/1/169 88/8/170
f 85/1/165 86/8/159 83/1/157
f 86/8/159 85/1/165 88/8/166
f 83/1/163 86/8/161 85/1/171
f 88/8/170 85/1/171 86/8/161
f 90/8/174 84/1/167 82/1/173
f 84/1/167 90/8/174 89/8/168
f 82/1/176 84/1/169 90/8/175
f 89/8/172 90/8/175 84/1/169
f 87/8/160 80/1/177 81/1/158
f 80/1/177 87/8/160 91/8/178
f 81/1/162 80/1/179 87/8/164
f 91/8/180 87/8/164 80/1/179
f 91/8/178 82/1/173 80/1/177
f 82/1/173 91/8/178 90/8/174
f 80/1/179 82/1/176 91/8/180
f 90/8/175 91/8/180 82/1/176
f 94/4/183 93/4/182 92/4/181
f 93/4/182 94/4/183 95/4/184
f 93/4/182 95/4/184 96/4/185
f 96/4/185 95/4/184 97/4/186
f 92/4/189 93/4/188 94/4/187
f 95/4/190 94/4/187 93/4/188
f 96/4/191 95/4/190 93/4/188
f 97/4/192 95/4/190 96/4/191
f 86/8/159 97/4/186 95/4/184
f 97/4/186 86/8/159 88/8/166
f 95/4/190 97/4/192 86/8/161
f 88/8/170 86/8/161 97/4/192
f 93/4/182 89/8/168 90/8/174
f 89/8/168 93/4/182 96/4/185
f 90/8/175 89/8/172 93/4/188
f 96/4/191 93/4/188 89/8/172
f 87/8/160 92/4/181 91/8/178
f 92/4/181 87/8/160 94/4/183
f 91/8/180 92/4/189 87/8/164
f 94/4/187 87/8/164 92/4/189
f 97/4/186 89/8/168 96/4/185
f 89/8/168 97/4/186 88/8/166
f 96/4/191 89/8/172 97/4/192
f 88/8/170 97/4/192 89/8/172
f 92/4/181 90/8/174 91/8/178
f 90/8/174 92/4/181 93/4/182
f 91/8/180 90/8/175 92/4/189
f 93/4/188 92/4/189 90/8/175
f 86/8/159 94/4/183 87/8/160
f 94/4/183 86/8/159 95/4/184
f 87/8/164 94/4/187 86/8/161
f 95/4/190 86/8/161 94/4/187
f 100/9/82 99/9/82 98/9/82
f 99/9/82 100/9/82 101/9/82
f 101/9/82 100/9/82 102/9/82
f 101/9/82 102/9/82 103/9/82
f 98/9/81 99/9/81 100/9/81
f 101/9/81 100/9/81 99/9/81
f 102/9/81 100/9/81 101/9/81
f 103/9/81 102/9/81 101/9/81
f 104/10/195 99/9/194 101/9/193
f 99/9/194 104/10/195 105/10/196
f 101/9/199 99/9/198 104/10/197
f 105/10/200 104/10/197 99/9/198
f 102/9/203 106/10/202 103/9/201
f 106/10/202 102/9/203 107/10/204
f 103/9/207 106/10/206 102/9/205
f 107/10/208 102/9/205 106/10/206
f 103/9/201 104/10/195 101/9/193
f 104/10/195 103/9/201 106/10/202
f 101/9/199 104/10/197 103/9/207
f 106/10/206 103/9/207 104/10/197
f 108/10/210 102/9/203 100/9/209
f 102/9/203 108/10/210 107/10/204
f 100/9/212 102/9/205 108/10/211
f 107/10/208 108/10/211 102/9/205
f 105/10/196 98/9/213 99/9/194
f 98/9/213 105/10/196 109/10/214
f 99/9/198 98/9/215 105/10/200
f 109/10/216 105/10/200 98/9/215
f 109/10/214 100/9/209 98/9/213
f 100/9/209 109/10/214 108/10/210
f 98/9/215 100/9/212 109/10/216
f 108/10/211 109/10/216 100/9/212
f 112/11/219 111/11/218 110/11/217
f 111/11/218 112/11/219 113/11/220
f 111/11/218 113/11/220 114/11/221
f 114/11/221 113/11/220 115/11/222
f 110/11/225 111/11/224 112/11/223
f 113/11/226 112/11/223 111/11/224
f 114/11/227 113/11/226 111/11/224
f 115/11/228 113/11/226 114/11/227
f 104/10/195 115/11/222 113/11/220
f 115/11/222 104/10/195 106/10/202
f 113/11/226 115/11/228 104/10/197
f 106/10/206 104/10/197 115/11/228
f 111/11/218 107/10/204 108/10/210
f 107/10/204 111/11/218 114/11/221
f 108/10/211 107/10/208 111/11/224
f 114/11/227 111/11/224 107/10/208
f 105/10/196 110/11/217 109/10/214
f 110/11/217 105/10/196 112/11/219
f 109/10/216 110/11/225 105/10/200
f 112/11/223 105/10/200 110/11/225
f 115/11/222 107/10/204 114/11/221
f 107/10/204 115/11/222 106/10/202
f 114/11/227 107/10/208 115/11/228
f 106/10/206 115/11/228 107/10/208
f 110/11/217 108/10/210 109/10/214
f 108/10/210 110/11/217 111/11/218
f 109/10/216 108/10/211 110/11/225
f 111/11/224 110/11/225 108/10/211
f 104/10/195 112/11/219 105/10/196
f 112/11/219 104/10/195 113/11/220
f 105/10/200 112/11/223 104/10/197
f 113/11/226 104/10/197 112/11/223
f 118/9/82 117/9/82 116/9/82
f 117/9/82 118/9/82 119/9/82
f 119/9/82 118/9/82 120/9/82
f 119/9/82 120/9/82 121/9/82
f 116/9/81 117/9/81 118/9/81
f 119/9/81 118/9/81 117/9/81
f 120/9/81 118/9/81 119/9/81
f 121/9/81 120/9/81 119/9/81
f 122/10/231 117/9/230 119/9/229
f 117/9/230 122/10/231 123/10/232
f 119/9/235 117/9/234 122/10/233
f 123/10/236 122/10/233 117/9/234
f 120/9/239 124/10/238 121/9/237
f 124/10/238 120/9/239 125/10/240
f 121/9/243 124/10/242 120/9/241
f 125/10/244 120/9/241 124/10/242
f 121/9/237 122/10/231 119/9/229
f 122/10/231 121/9/237 124/10/238
f 119/9/235 122/10/233 121/9/243
f 124/10/242 121/9/243 122/10/233
f 126/10/246 120/9/239 118/9/245
f 120/9/239 126/10/246 125/10/240
f 118/9/248 120/9/241 126/10/247
f 125/10/244 126/10/247 120/9/241
f 123/10/232 116/9/249 117/9/230
f 116/9/249 123/10/232 127/10/250
f 117/9/234 116/9/251 123/10/236
f 127/10/252 123/10/236 116/9/251
f 127/10/250 118/9/245 116/9/249
f 118/9/245 127/10/250 126/10/246
f 116/9/251 118/9/248 127/10/252
f 126/10/247 127/10/252 118/9/248
f 130/11/255 129/11/254 128/11/253
f 129/11/254 130/11/255 131/11/256
f 129/11/254 131/11/256 132/11/257
f 132/11/257 131/11/256 133/11/258
f 128/11/261 129/11/260 130/11/259
f 131/11/262 130/11/259 129/11/260
f 132/11/263 131/11/262 129/11/260
f 133/11/264 131/11/262 132/11/263
f 122/10/231 133/11/258 131/11/256
f 133/11/258 122/10/231 124/10/238
f 131/11/262 133/11/264 122/10/233
f 124/10/242 122/10/233 133/11/264
f 129/11/254 125/10/240 126/10/246
f 125/10/240 129/11/254 132/11/257
f 126/10/247 125/10/244 129/11/260
f 132/11/263 129/11/260 125/10/244
f 123/10/232 128/11/253 127/10/250
f 128/11/253 123/10/232 130/11/255
f 127/10/252 128/11/261 123/10/236
f 130/11/259 123/10/236 128/11/261
f 133/11/258 125/10/240 132/11/257
f 125/10/240 133/11/258 124/10/238
f 132/11/263 125/10/244 133/11/264
f 124/10/242 133/11/264 125/10/244
f 128/11/253 126/10/246 127/10/250
f 126/10/246 128/11/253 129/11/254
f 127/10/252 126/10/247 128/11/261
f 129/11/260 128/11/261 126/10/247
f 122/10/231 130/11/255 123/10/232
f 130/11/255 122/10/231 131/11/256
f 123/10/236 130/11/259 122/10/233
f 131/11/262 122/10/233 130/11/259
