mtllib cannon.mtl
v 0.701187 0.635606 -0.209657
v 0.701187 0.533783 -0.167481
v 0.701187 0.737429 -0.167481
v 0.701187 0.779606 -0.065657
v 0.701187 0.491606 -0.065657
v 0.701187 0.737429 0.036166
v 0.701187 0.533783 0.036166
v 0.701187 0.635606 0.078343
v -0.701187 0.737429 -0.167481
v -0.701187 0.779606 -0.065657
v -0.701187 0.533783 -0.167481
v -0.701187 0.635606 -0.209657
v -0.701187 0.533783 0.036166
v -0.701187 0.491606 -0.065657
v -0.701187 0.737429 0.036166
v -0.701187 0.635606 0.078343
v 0.000000 0.337022 -0.780343
v 0.217789 0.427233 -0.780343
v -0.217789 0.427233 -0.780343
v 0.000000 0.458302 -0.780343
v -0.132031 0.512991 -0.780343
v 0.132031 0.512991 -0.780343
v -0.308000 0.645022 -0.780343
v -0.186720 0.645022 -0.780343
v 0.308000 0.645022 -0.780343
v 0.186720 0.645022 -0.780343
v 0.132031 0.777053 -0.780343
v -0.217789 0.862811 -0.780343
v 0.217789 0.862811 -0.780343
v -0.132031 0.777053 -0.780343
v 0.000000 0.953022 -0.780343
v 0.000000 0.831742 -0.780343
v 0.289659 0.355363 -0.318343
v 0.000000 0.235382 -0.318343
v 0.409640 0.645022 -0.318343
v 0.289659 0.934682 -0.318343
v 0.000000 1.054662 -0.318343
v -0.289659 0.934682 -0.318343
v -0.289659 0.355363 -0.318343
v -0.409640 0.645022 -0.318343
v 0.217789 0.427233 0.759657
v 0.000000 0.337022 0.759657
v -0.217789 0.427233 0.759657
v -0.308000 0.645022 0.759657
v 0.217789 0.862811 0.759657
v 0.308000 0.645022 0.759657
v 0.000000 0.953022 0.759657
v -0.217789 0.862811 0.759657
v 0.000000 0.242326 0.990657
v -0.284749 0.360273 0.990657
v 0.284749 0.360273 0.990657
v 0.000000 0.413599 0.990657
v 0.163641 0.481382 0.990657
v -0.163641 0.481382 0.990657
v 0.402696 0.645022 0.990657
v 0.231423 0.645022 0.990657
v -0.402696 0.645022 0.990657
v -0.231423 0.645022 0.990657
v -0.163641 0.808663 0.990657
v 0.284749 0.929771 0.990657
v -0.284749 0.929771 0.990657
v 0.163641 0.808663 0.990657
v 0.000000 0.876445 0.990657
v 0.000000 1.047718 0.990657
v 0.273359 0.918382 0.759657
v 0.000000 1.031611 0.759657
v -0.273359 0.918382 0.759657
v 0.273359 0.371663 0.759657
v 0.000000 0.258434 0.759657
v -0.273359 0.371663 0.759657
v -0.386588 0.645022 0.759657
v 0.386588 0.645022 0.759657
v 0.000000 0.490045 -0.934343
v 0.109586 0.535437 -0.934343
v -0.109586 0.535437 -0.934343
v -0.154978 0.645022 -0.934343
v 0.154978 0.645022 -0.934343
v -0.109586 0.754608 -0.934343
v 0.109586 0.754608 -0.934343
v 0.000000 0.800000 -0.934343
v 0.000000 0.476084 0.759657
v -0.119458 0.525565 0.759657
v 0.119458 0.525565 0.759657
v 0.168939 0.645022 0.759657
v -0.168939 0.645022 0.759657
v 0.119458 0.764480 0.759657
v -0.119458 0.764480 0.759657
v 0.000000 0.813961 0.759657
v 0.439375 0.000000 0.734343
v -0.439375 0.000000 0.734343
v 0.439375 0.300000 0.734343
v -0.439375 0.300000 0.734343
v 0.539375 0.300000 -0.634343
v 0.539375 0.000000 -0.634343
v 0.539375 0.300000 0.634343
v 0.539375 0.000000 0.634343
v -0.539375 0.000000 0.634343
v -0.539375 0.300000 0.634343
v -0.439375 0.000000 -0.734343
v 0.439375 0.000000 -0.734343
v -0.439375 0.300000 -0.734343
v 0.439375 0.300000 -0.734343
v -0.539375 0.000000 -0.634343
v -0.539375 0.300000 -0.634343
v -0.378584 0.859030 0.234343
v -0.378584 0.859030 0.634343
v -0.668361 0.781384 0.234343
v -0.668361 0.781384 0.634343
v -0.518570 0.222354 0.634343
v -0.228792 0.300000 0.634343
v -0.300938 0.569252 -0.634343
v -0.228792 0.300000 -0.634343
v -0.300938 0.569252 -0.065657
v -0.590716 0.491606 -0.065657
v -0.518570 0.222354 -0.634343
v -0.590716 0.491606 -0.634343
v 0.228792 0.300000 -0.634343
v 0.518570 0.222354 -0.634343
v 0.300938 0.569252 -0.634343
v 0.590716 0.491606 -0.634343
v 0.228792 0.300000 0.634343
v 0.378584 0.859030 0.634343
v 0.518570 0.222354 0.634343
v 0.668361 0.781384 0.634343
v 0.300938 0.569252 -0.065657
v 0.378584 0.859030 0.234343
v 0.590716 0.491606 -0.065657
v 0.668361 0.781384 0.234343
vn 1.000000 0.000000 0.000000
vn 0.000000 0.707107 -0.707107
vn 0.000000 1.000000 0.000000
vn 0.000000 -0.707107 -0.707107
vn 0.000000 0.000000 -1.000000
vn 0.000000 -0.707107 0.707107
vn 0.000000 -1.000000 0.000000
vn -1.000000 0.000000 0.000000
vn 0.000000 0.000000 1.000000
vn 0.000000 0.707107 0.707107
vn 0.000000 0.000000 -1.000000
vn 0.705873 -0.705873 -0.059050
vn 0.690592 -0.690592 -0.214862
vn 0.000000 -0.998255 -0.059050
vn 0.000000 -0.976644 -0.214862
vn 0.976644 0.000000 -0.214862
vn 0.998255 0.000000 -0.059050
vn 0.705873 0.705873 -0.059050
vn 0.000000 0.998255 -0.059050
vn 0.690592 0.690592 -0.214862
vn 0.000000 0.976644 -0.214862
vn -0.690592 0.690592 -0.214862
vn -0.705873 0.705873 -0.059050
vn -0.690592 -0.690592 -0.214862
vn -0.976644 0.000000 -0.214862
vn -0.705873 -0.705873 -0.059050
vn -0.998255 0.000000 -0.059050
vn 0.703985 -0.703985 0.093869
vn 0.000000 -0.995584 0.093869
vn -0.703985 -0.703985 0.093869
vn -0.995584 -0.000000 0.093869
vn 0.703985 0.703985 0.093869
vn 0.995584 -0.000000 0.093869
vn 0.000000 0.995584 0.093869
vn -0.703985 0.703985 0.093869
vn 0.000000 -0.000000 1.000000
vn 0.705394 0.705394 -0.069562
vn 0.000000 0.997578 -0.069562
vn -0.705394 0.705394 -0.069562
vn 0.705394 -0.705394 -0.069562
vn 0.000000 -0.997578 -0.069562
vn -0.705394 -0.705394 -0.069562
vn -0.997578 0.000000 -0.069562
vn 0.997578 0.000000 -0.069562
vn 0.000000 -0.979411 -0.201876
vn -0.692548 -0.692548 -0.201876
vn 0.692548 0.692548 -0.201876
vn 0.000000 0.979411 -0.201876
vn 0.979411 0.000000 -0.201876
vn 0.692548 -0.692548 -0.201876
vn -0.692548 0.692548 -0.201876
vn -0.979411 0.000000 -0.201876
vn 0.000000 0.687204 0.726464
vn 0.485927 0.485927 0.726464
vn -0.485927 0.485927 0.726464
vn -0.687204 -0.000000 0.726464
vn 0.687204 -0.000000 0.726464
vn -0.485927 -0.485927 0.726464
vn 0.485927 -0.485927 0.726464
vn 0.000000 -0.687204 0.726464
vn -0.682576 0.682576 0.261111
vn -0.965309 -0.000000 0.261111
vn 0.965309 -0.000000 0.261111
vn 0.682576 0.682576 0.261111
vn 0.000000 0.965309 0.261111
vn 0.682576 -0.682576 0.261111
vn 0.000000 -0.965309 0.261111
vn -0.682576 -0.682576 0.261111
vn 0.403865 0.000000 0.914818
vn -0.403865 0.000000 0.914818
vn 0.934823 0.000000 -0.355114
vn 0.934823 0.000000 0.355114
vn -0.934823 0.000000 0.355114
vn -0.403865 0.000000 -0.914818
vn 0.403865 0.000000 -0.914818
vn -0.934823 0.000000 -0.355114
vn -0.239118 0.892399 -0.382683
vn -0.258819 0.965926 0.000000
vn 0.965926 0.258819 0.000000
vn -0.965926 -0.258819 0.000000
vn -0.965926 0.258819 0.000000
vn 0.965926 -0.258819 0.000000
vn 0.239118 0.892399 -0.382683
vn 0.258819 0.965926 0.000000
usemtl colormap
f 3/3/1 2/2/1 1/1/1
f 2/2/1 3/3/1 4/4/1
f 2/2/1 4/4/1 5/5/1
f 5/5/1 4/4/1 6/3/1
f 5/5/1 6/3/1 7/2/1
f 7/2/1 6/3/1 8/1/1
f 9/3/2 4/4/3 3/3/2
f 4/4/3 9/3/2 10/4/3
f 11/2/4 1/1/5 2/2/4
f 1/1/5 11/2/4 12/1/5
f 13/2/6 5/5/7 7/2/6
f 5/5/7 13/2/6 14/5/7
f 14/5/7 2/2/4 5/5/7
f 2/2/4 14/5/7 11/2/4
f 11/2/8 9/3/8 12/1/8
f 9/3/8 11/2/8 14/5/8
f 9/3/8 14/5/8 10/4/8
f 10/4/8 14/5/8 13/2/8
f 10/4/8 13/2/8 15/3/8
f 15/3/8 13/2/8 16/1/8
f 8/1/9 13/2/6 7/2/6
f 13/2/6 8/1/9 16/1/9
f 6/3/10 16/1/9 8/1/9
f 16/1/9 6/3/10 15/3/10
f 10/4/3 6/3/10 4/4/3
f 6/3/10 10/4/3 15/3/10
f 12/1/5 3/3/2 1/1/5
f 3/3/2 12/1/5 9/3/2
f 19/7/11 18/7/11 17/6/11
f 18/7/11 19/7/11 20/8/11
f 20/8/11 19/7/11 21/9/11
f 22/9/11 18/7/11 20/8/11
f 21/9/11 19/7/11 23/1/11
f 21/9/11 23/1/11 24/1/11
f 18/7/11 22/9/11 25/1/11
f 25/1/11 22/9/11 26/1/11
f 25/1/11 26/1/11 27/10/11
f 24/1/11 23/1/11 28/11/11
f 25/1/11 27/10/11 29/11/11
f 24/1/11 28/11/11 30/10/11
f 29/11/11 28/11/11 31/12/11
f 29/11/11 27/10/11 32/13/11
f 30/10/11 28/11/11 32/13/11
f 32/13/11 28/11/11 29/11/11
f 34/5/14 18/7/13 33/14/12
f 18/7/13 34/5/14 17/6/15
f 35/1/17 18/7/13 25/1/16
f 18/7/13 35/1/17 33/14/12
f 29/11/20 37/4/19 36/3/18
f 37/4/19 29/11/20 31/12/21
f 28/11/22 37/4/19 31/12/21
f 37/4/19 28/11/22 38/3/23
f 39/14/26 23/1/25 19/7/24
f 23/1/25 39/14/26 40/1/27
f 39/14/26 17/6/15 34/5/14
f 17/6/15 39/14/26 19/7/24
f 41/7/28 34/5/14 33/14/12
f 34/5/14 41/7/28 42/6/29
f 23/1/25 38/3/23 28/11/22
f 38/3/23 23/1/25 40/1/27
f 36/3/18 25/1/16 29/11/20
f 25/1/16 36/3/18 35/1/17
f 43/7/30 34/5/14 42/6/29
f 34/5/14 43/7/30 39/14/26
f 43/7/30 40/1/27 39/14/26
f 40/1/27 43/7/30 44/1/31
f 45/11/32 35/1/17 36/3/18
f 35/1/17 45/11/32 46/1/33
f 38/3/23 47/12/34 37/4/19
f 47/12/34 38/3/23 48/11/35
f 40/1/27 48/11/35 38/3/23
f 48/11/35 40/1/27 44/1/31
f 37/4/19 45/11/32 36/3/18
f 45/11/32 37/4/19 47/12/34
f 35/1/17 41/7/28 33/14/12
f 41/7/28 35/1/17 46/1/33
f 51/16/36 50/16/36 49/15/36
f 50/16/36 51/16/36 52/17/36
f 52/17/36 51/16/36 53/18/36
f 54/18/36 50/16/36 52/17/36
f 53/18/36 51/16/36 55/1/36
f 53/18/36 55/1/36 56/1/36
f 50/16/36 54/18/36 57/1/36
f 57/1/36 54/18/36 58/1/36
f 57/1/36 58/1/36 59/19/36
f 56/1/36 55/1/36 60/20/36
f 57/1/36 59/19/36 61/20/36
f 56/1/36 60/20/36 62/19/36
f 61/20/36 59/19/36 63/21/36
f 62/19/36 60/20/36 63/21/36
f 61/20/36 63/21/36 60/20/36
f 61/20/36 60/20/36 64/22/36
f 65/23/37 64/22/38 60/20/37
f 64/22/38 65/23/37 66/24/38
f 67/23/39 64/22/38 66/24/38
f 64/22/38 67/23/39 61/20/39
f 49/15/41 68/25/40 51/16/40
f 68/25/40 49/15/41 69/26/41
f 50/16/42 69/26/41 49/15/41
f 69/26/41 50/16/42 70/25/42
f 50/16/42 71/1/43 70/25/42
f 71/1/43 50/16/42 57/1/43
f 71/1/43 61/20/39 67/23/39
f 61/20/39 71/1/43 57/1/43
f 72/1/44 51/16/40 68/25/40
f 51/16/40 72/1/44 55/1/44
f 60/20/37 72/1/44 65/23/37
f 72/1/44 60/20/37 55/1/44
f 75/28/11 74/28/11 73/27/11
f 74/28/11 75/28/11 76/1/11
f 74/28/11 76/1/11 77/1/11
f 77/1/11 76/1/11 78/29/11
f 77/1/11 78/29/11 79/29/11
f 79/29/11 78/29/11 80/30/11
f 20/8/45 75/28/46 73/27/45
f 75/28/46 20/8/45 21/9/46
f 79/29/47 32/13/48 27/10/47
f 32/13/48 79/29/47 80/30/48
f 26/1/49 74/28/50 77/1/49
f 74/28/50 26/1/49 22/9/50
f 78/29/51 32/13/48 80/30/48
f 32/13/48 78/29/51 30/10/51
f 20/8/45 74/28/50 22/9/50
f 74/28/50 20/8/45 73/27/45
f 79/29/47 26/1/49 77/1/49
f 26/1/49 79/29/47 27/10/47
f 75/28/46 24/1/52 76/1/52
f 24/1/52 75/28/46 21/9/46
f 24/1/52 78/29/51 76/1/52
f 78/29/51 24/1/52 30/10/51
f 72/1/11 41/7/11 46/1/11
f 72/1/11 46/1/11 45/11/11
f 68/25/11 41/7/11 72/1/11
f 72/1/11 45/11/11 65/23/11
f 68/25/11 42/6/11 41/7/11
f 42/6/11 68/25/11 69/26/11
f 70/25/11 42/6/11 69/26/11
f 42/6/11 70/25/11 43/7/11
f 43/7/11 70/25/11 71/1/11
f 43/7/11 71/1/11 44/1/11
f 65/23/11 45/11/11 47/12/11
f 65/23/11 47/12/11 66/24/11
f 44/1/11 71/1/11 67/23/11
f 47/12/11 67/23/11 66/24/11
f 44/1/11 67/23/11 48/11/11
f 48/11/11 67/23/11 47/12/11
f 83/32/55 82/32/54 81/31/53
f 82/32/54 83/32/55 84/33/56
f 82/32/54 84/33/56 85/33/57
f 85/33/57 84/33/56 86/34/58
f 85/33/57 86/34/58 87/34/59
f 87/34/59 86/34/58 88/35/60
f 53/36/61 84/33/56 83/32/55
f 84/33/56 53/36/61 56/33/62
f 58/33/63 82/32/54 85/33/57
f 82/32/54 58/33/63 54/36/64
f 82/32/54 52/37/65 81/31/53
f 52/37/65 82/32/54 54/36/64
f 83/32/55 52/37/65 53/36/61
f 52/37/65 83/32/55 81/31/53
f 59/38/66 85/33/57 87/34/59
f 85/33/57 59/38/66 58/33/63
f 59/38/66 88/35/60 63/39/67
f 88/35/60 59/38/66 87/34/59
f 63/39/67 86/34/58 62/38/68
f 86/34/58 63/39/67 88/35/60
f 56/33/62 86/34/58 84/33/56
f 86/34/58 56/33/62 62/38/68
f 91/41/69 90/40/70 89/40/69
f 90/40/70 91/41/69 92/41/70
f 95/41/72 94/40/71 93/41/71
f 94/40/71 95/41/72 96/40/72
f 92/41/70 97/40/73 90/40/70
f 97/40/73 92/41/70 98/41/73
f 95/41/72 89/40/69 96/40/72
f 89/40/69 95/41/72 91/41/69
f 101/41/74 100/40/75 99/40/74
f 100/40/75 101/41/74 102/41/75
f 97/40/73 104/41/76 103/40/76
f 104/41/76 97/40/73 98/41/73
f 102/41/75 94/40/71 100/40/75
f 94/40/71 102/41/75 93/41/71
f 104/41/76 99/40/74 103/40/76
f 99/40/74 104/41/76 101/41/74
f 89/40/7 94/40/7 96/40/7
f 94/40/7 89/40/7 100/40/7
f 100/40/7 89/40/7 90/40/7
f 100/40/7 90/40/7 99/40/7
f 99/40/7 90/40/7 97/40/7
f 99/40/7 97/40/7 103/40/7
f 102/41/3 95/41/3 93/41/3
f 95/41/3 102/41/3 91/41/3
f 91/41/3 102/41/3 101/41/3
f 91/41/3 101/41/3 92/41/3
f 92/41/3 101/41/3 104/41/3
f 92/41/3 104/41/3 98/41/3
f 3/3/1 2/2/1 1/1/1
f 2/2/1 3/3/1 4/4/1
f 2/2/1 4/4/1 5/5/1
f 5/5/1 4/4/1 6/3/1
f 5/5/1 6/3/1 7/2/1
f 7/2/1 6/3/1 8/1/1
f 9/3/2 4/4/3 3/3/2
f 4/4/3 9/3/2 10/4/3
f 11/2/4 1/1/5 2/2/4
f 1/1/5 11/2/4 12/1/5
f 13/2/6 5/5/7 7/2/6
f 5/5/7 13/2/6 14/5/7
f 14/5/7 2/2/4 5/5/7
f 2/2/4 14/5/7 11/2/4
f 11/2/8 9/3/8 12/1/8
f 9/3/8 11/2/8 14/5/8
f 9/3/8 14/5/8 10/4/8
f 10/4/8 14/5/8 13/2/8
f 10/4/8 13/2/8 15/3/8
f 15/3/8 13/2/8 16/1/8
f 8/1/9 13/2/6 7/2/6
f 13/2/6 8/1/9 16/1/9
f 6/3/10 16/1/9 8/1/9
f 16/1/9 6/3/10 15/3/10
f 10/4/3 6/3/10 4/4/3
f 6/3/10 10/4/3 15/3/10
f 12/1/5 3/3/2 1/1/5
f 3/3/2 12/1/5 9/3/2
f 19/7/11 18/7/11 17/6/11
f 18/7/11 19/7/11 20/8/11
f 20/8/11 19/7/11 21/9/11
f 22/9/11 18/7/11 20/8/11
f 21/9/11 19/7/11 23/1/11
f 21/9/11 23/1/11 24/1/11
f 18/7/11 22/9/11 25/1/11
f 25/1/11 22/9/11 26/1/11
f 25/1/11 26/1/11 27/10/11
f 24/1/11 23/1/11 28/11/11
f 25/1/11 27/10/11 29/11/11
f 24/1/11 28/11/11 30/10/11
f 29/11/11 28/11/11 31/12/11
f 29/11/11 27/10/11 32/13/11
f 30/10/11 28/11/11 32/13/11
f 32/13/11 28/11/11 29/11/11
f 34/5/14 18/7/13 33/14/12
f 18/7/13 34/5/14 17/6/15
f 35/1/17 18/7/13 25/1/16
f 18/7/13 35/1/17 33/14/12
f 29/11/20 37/4/19 36/3/18
f 37/4/19 29/11/20 31/12/21
f 28/11/22 37/4/19 31/12/21
f 37/4/19 28/11/22 38/3/23
f 39/14/26 23/1/25 19/7/24
f 23/1/25 39/14/26 40/1/27
f 39/14/26 17/6/15 34/5/14
f 17/6/15 39/14/26 19/7/24
f 41/7/28 34/5/14 33/14/12
f 34/5/14 41/7/28 42/6/29
f 23/1/25 38/3/23 28/11/22
f 38/3/23 23/1/25 40/1/27
f 36/3/18 25/1/16 29/11/20
f 25/1/16 36/3/18 35/1/17
f 43/7/30 34/5/14 42/6/29
f 34/5/14 43/7/30 39/14/26
f 43/7/30 40/1/27 39/14/26
f 40/1/27 43/7/30 44/1/31
f 45/11/32 35/1/17 36/3/18
f 35/1/17 45/11/32 46/1/33
f 38/3/23 47/12/34 37/4/19
f 47/12/34 38/3/23 48/11/35
f 40/1/27 48/11/35 38/3/23
f 48/11/35 40/1/27 44/1/31
f 37/4/19 45/11/32 36/3/18
f 45/11/32 37/4/19 47/12/34
f 35/1/17 41/7/28 33/14/12
f 41/7/28 35/1/17 46/1/33
f 51/16/36 50/16/36 49/15/36
f 50/16/36 51/16/36 52/17/36
f 52/17/36 51/16/36 53/18/36
f 54/18/36 50/16/36 52/17/36
f 53/18/36 51/16/36 55/1/36
f 53/18/36 55/1/36 56/1/36
f 50/16/36 54/18/36 57/1/36
f 57/1/36 54/18/36 58/1/36
f 57/1/36 58/1/36 59/19/36
f 56/1/36 55/1/36 60/20/36
f 57/1/36 59/19/36 61/20/36
f 56/1/36 60/20/36 62/19/36
f 61/20/36 59/19/36 63/21/36
f 62/19/36 60/20/36 63/21/36
f 61/20/36 63/21/36 60/20/36
f 61/20/36 60/20/36 64/22/36
f 65/23/37 64/22/38 60/20/37
f 64/22/38 65/23/37 66/24/38
f 67/23/39 64/22/38 66/24/38
f 64/22/38 67/23/39 61/20/39
f 49/15/41 68/25/40 51/16/40
f 68/25/40 49/15/41 69/26/41
f 50/16/42 69/26/41 49/15/41
f 69/26/41 50/16/42 70/25/42
f 50/16/42 71/1/43 70/25/42
f 71/1/43 50/16/42 57/1/43
f 71/1/43 61/20/39 67/23/39
f 61/20/39 71/1/43 57/1/43
f 72/1/44 51/16/40 68/25/40
f 51/16/40 72/1/44 55/1/44
f 60/20/37 72/1/44 65/23/37
f 72/1/44 60/20/37 55/1/44
f 75/28/11 74/28/11 73/27/11
f 74/28/11 75/28/11 76/1/11
f 74/28/11 76/1/11 77/1/11
f 77/1/11 76/1/11 78/29/11
f 77/1/11 78/29/11 79/29/11
f 79/29/11 78/29/11 80/30/11
f 20/8/45 75/28/46 73/27/45
f 75/28/46 20/8/45 21/9/46
f 79/29/47 32/13/48 27/10/47
f 32/13/48 79/29/47 80/30/48
f 26/1/49 74/28/50 77/1/49
f 74/28/50 26/1/49 22/9/50
f 78/29/51 32/13/48 80/30/48
f 32/13/48 78/29/51 30/10/51
f 20/8/45 74/28/50 22/9/50
f 74/28/50 20/8/45 73/27/45
f 79/29/47 26/1/49 77/1/49
f 26/1/49 79/29/47 27/10/47
f 75/28/46 24/1/52 76/1/52
f 24/1/52 75/28/46 21/9/46
f 24/1/52 78/29/51 76/1/52
f 78/29/51 24/1/52 30/10/51
f 72/1/11 41/7/11 46/1/11
f 72/1/11 46/1/11 45/11/11
f 68/25/11 41/7/11 72/1/11
f 72/1/11 45/11/11 65/23/11
f 68/25/11 42/6/11 41/7/11
f 42/6/11 68/25/11 69/26/11
f 70/25/11 42/6/11 69/26/11
f 42/6/11 70/25/11 43/7/11
f 43/7/11 70/25/11 71/1/11
f 43/7/11 71/1/11 44/1/11
f 65/23/11 45/11/11 47/12/11
f 65/23/11 47/12/11 66/24/11
f 44/1/11 71/1/11 67/23/11
f 47/12/11 67/23/11 66/24/11
f 44/1/11 67/23/11 48/11/11
f 48/11/11 67/23/11 47/12/11
f 83/32/55 82/32/54 81/31/53
f 82/32/54 83/32/55 84/33/56
f 82/32/54 84/33/56 85/33/57
f 85/33/57 84/33/56 86/34/58
f 85/33/57 86/34/58 87/34/59
f 87/34/59 86/34/58 88/35/60
f 53/36/61 84/33/56 83/32/55
f 84/33/56 53/36/61 56/33/62
f 58/33/63 82/32/54 85/33/57
f 82/32/54 58/33/63 54/36/64
f 82/32/54 52/37/65 81/31/53
f 52/37/65 82/32/54 54/36/64
f 83/32/55 52/37/65 53/36/61
f 52/37/65 83/32/55 81/31/53
f 59/38/66 85/33/57 87/34/59
f 85/33/57 59/38/66 58/33/63
f 59/38/66 88/35/60 63/39/67
f 88/35/60 59/38/66 87/34/59
f 63/39/67 86/34/58 62/38/68
f 86/34/58 63/39/67 88/35/60
f 56/33/62 86/34/58 84/33/56
f 86/34/58 56/33/62 62/38/68
f 91/41/69 90/40/70 89/40/69
f 90/40/70 91/41/69 92/41/70
f 95/41/72 94/40/71 93/41/71
f 94/40/71 95/41/72 96/40/72
f 92/41/70 97/40/73 90/40/70
f 97/40/73 92/41/70 98/41/73
f 95/41/72 89/40/69 96/40/72
f 89/40/69 95/41/72 91/41/69
f 101/41/74 100/40/75 99/40/74
f 100/40/75 101/41/74 102/41/75
f 97/40/73 104/41/76 103/40/76
f 104/41/76 97/40/73 98/41/73
f 102/41/75 94/40/71 100/40/75
f 94/40/71 102/41/75 93/41/71
f 104/41/76 99/40/74 103/40/76
f 99/40/74 104/41/76 101/41/74
f 89/40/7 94/40/7 96/40/7
f 94/40/7 89/40/7 100/40/7
f 100/40/7 89/40/7 90/40/7
f 100/40/7 90/40/7 99/40/7
f 99/40/7 90/40/7 97/40/7
f 99/40/7 97/40/7 103/40/7
f 102/41/3 95/41/3 93/41/3
f 95/41/3 102/41/3 91/41/3
f 91/41/3 102/41/3 101/41/3
f 91/41/3 101/41/3 92/41/3
f 92/41/3 101/41/3 104/41/3
f 92/41/3 104/41/3 98/41/3
f 107/42/77 106/42/78 105/42/77
f 106/42/78 107/42/77 108/42/78
f 110/40/9 108/42/9 109/40/9
f 108/42/9 110/40/9 106/42/9
f 113/43/79 112/40/79 111/43/79
f 112/40/79 113/43/79 110/40/79
f 110/40/79 113/43/79 105/42/79
f 110/40/79 105/42/79 106/42/79
f 107/42/77 113/43/77 114/43/77
f 113/43/77 107/42/77 105/42/77
f 116/43/5 112/40/5 115/40/5
f 112/40/5 116/43/5 111/43/5
f 109/40/80 116/43/80 115/40/80
f 116/43/80 109/40/80 114/43/80
f 114/43/80 109/40/80 107/42/80
f 107/42/80 109/40/80 108/42/80
f 116/43/78 113/43/77 111/43/78
f 113/43/77 116/43/78 114/43/77
f 119/43/5 118/40/5 117/40/5
f 118/40/5 119/43/5 120/43/5
f 123/40/9 122/42/9 121/40/9
f 122/42/9 123/40/9 124/42/9
f 121/40/81 119/43/81 117/40/81
f 119/43/81 121/40/81 125/43/81
f 125/43/81 121/40/81 126/42/81
f 126/42/81 121/40/81 122/42/81
f 127/43/82 118/40/82 120/43/82
f 118/40/82 127/43/82 123/40/82
f 123/40/82 127/43/82 128/42/82
f 123/40/82 128/42/82 124/42/82
f 126/42/83 124/42/84 128/42/83
f 124/42/84 126/42/83 122/42/84
f 119/43/84 127/43/83 120/43/84
f 127/43/83 119/43/84 125/43/83
f 126/42/83 127/43/83 125/43/83
f 127/43/83 126/42/83 128/42/83
