mtllib road-side.mtl
v 0.500000 0.010000 -0.710000
v -0.500000 0.010000 -0.710000
v 0.500000 0.020000 -0.710000
v -0.500000 0.020000 -0.710000
v -0.500000 -0.000000 -0.810000
v 0.500000 -0.000000 -0.810000
v -0.500000 0.020000 -0.810000
v 0.500000 0.020000 -0.810000
v 0.500000 0.000000 0.500000
v -0.500000 0.000000 0.500000
v 0.500000 0.020000 0.500000
v -0.500000 0.020000 0.500000
v -0.500000 0.010000 0.400000
v 0.500000 0.010000 0.400000
v -0.500000 0.020000 0.400000
v 0.500000 0.020000 0.400000
v 0.500000 0.010000 0.300000
v 0.500000 0.010000 0.010000
v 0.500000 0.010000 -0.010000
v 0.500000 0.010000 -0.610000
v -0.500000 0.010000 0.300000
v -0.500000 0.010000 0.010000
v -0.500000 0.010000 -0.010000
v -0.500000 0.010000 -0.610000
v 0.500000 0.010000 -0.610000
v 0.500000 0.010000 -0.010000
v -0.500000 0.010000 -0.610000
v -0.500000 0.010000 -0.010000
v 0.500000 0.010000 0.010000
v -0.500000 0.010000 0.010000
v 0.500000 0.010000 0.400000
v -0.500000 0.010000 0.400000
vn 0.000000 0.000000 1.000000
vn 0.000000 0.000000 -1.000000
vn 0.000000 -1.000000 0.000000
vn 0.000000 1.000000 0.000000
vn 1.000000 0.000000 0.000000
vn -1.000000 0.000000 0.000000
usemtl colormap
f 3/2/1 2/1/1 1/1/1
f 2/1/1 3/2/1 4/2/1
f 7/2/2 6/3/2 5/3/2
f 6/3/2 7/2/2 8/2/2
f 11/2/1 10/3/1 9/3/1
f 10/3/1 11/2/1 12/2/1
f 15/2/2 14/1/2 13/1/2
f 14/1/2 15/2/2 16/2/2
f 9/3/3 5/3/3 6/3/3
f 5/3/3 9/3/3 10/3/3
f 7/2/4 3/2/4 8/2/4
f 3/2/4 7/2/4 4/2/4
f 15/2/4 11/2/4 16/2/4
f 11/2/4 15/2/4 12/2/4
f 11/4/5 14/5/5 16/4/5
f 9/6/5 14/5/5 11/4/5
f 9/6/5 17/5/5 14/5/5
f 9/6/5 18/5/5 17/5/5
f 9/6/5 19/5/5 18/5/5
f 9/6/5 20/5/5 19/5/5
f 9/6/5 1/5/5 20/5/5
f 6/6/5 1/5/5 9/6/5
f 6/6/5 3/4/5 1/5/5
f 3/4/5 6/6/5 8/4/5
f 15/4/6 10/6/6 12/4/6
f 13/5/6 10/6/6 15/4/6
f 21/5/6 10/6/6 13/5/6
f 22/5/6 10/6/6 21/5/6
f 23/5/6 10/6/6 22/5/6
f 24/5/6 10/6/6 23/5/6
f 2/5/6 10/6/6 24/5/6
f 2/5/6 5/6/6 10/6/6
f 5/6/6 2/5/6 7/4/6
f 4/4/6 7/4/6 2/5/6
f 27/7/4 26/7/4 25/7/4
f 26/7/4 27/7/4 28/7/4
f 29/7/4 21/7/4 17/7/4
f 21/7/4 29/7/4 30/7/4
f 23/8/4 18/8/4 19/8/4
f 18/8/4 23/8/4 22/8/4
f 21/9/4 31/9/4 17/9/4
f 31/9/4 21/9/4 32/9/4
f 2/9/4 25/9/4 1/9/4
f 25/9/4 2/9/4 27/9/4
f 3/2/1 2/1/1 1/1/1
f 2/1/1 3/2/1 4/2/1
f 7/2/2 6/3/2 5/3/2
f 6/3/2 7/2/2 8/2/2
f 11/2/1 10/3/1 9/3/1
f 10/3/1 11/2/1 12/2/1
f 15/2/2 14/1/2 13/1/2
f 14/1/2 15/2/2 16/2/2
f 9/3/3 5/3/3 6/3/3
f 5/3/3 9/3/3 10/3/3
f 7/2/4 3/2/4 8/2/4
f 3/2/4 7/2/4 4/2/4
f 15/2/4 11/2/4 16/2/4
f 11/2/4 15/2/4 12/2/4
f 11/4/5 14/5/5 16/4/5
f 9/6/5 14/5/5 11/4/5
f 9/6/5 17/5/5 14/5/5
f 9/6/5 18/5/5 17/5/5
f 9/6/5 19/5/5 18/5/5
f 9/6/5 20/5/5 19/5/5
f 9/6/5 1/5/5 20/5/5
f 6/6/5 1/5/5 9/6/5
f 6/6/5 3/4/5 1/5/5
f 3/4/5 6/6/5 8/4/5
f 15/4/6 10/6/6 12/4/6
f 13/5/6 10/6/6 15/4/6
f 21/5/6 10/6/6 13/5/6
f 22/5/6 10/6/6 21/5/6
f 23/5/6 10/6/6 22/5/6
f 24/5/6 10/6/6 23/5/6
f 2/5/6 10/6/6 24/5/6
f 2/5/6 5/6/6 10/6/6
f 5/6/6 2/5/6 7/4/6
f 4/4/6 7/4/6 2/5/6
f 27/7/4 26/7/4 25/7/4
f 26/7/4 27/7/4 28/7/4
f 29/7/4 21/7/4 17/7/4
f 21/7/4 29/7/4 30/7/4
f 23/8/4 18/8/4 19/8/4
f 18/8/4 23/8/4 22/8/4
f 21/9/4 31/9/4 17/9/4
f 31/9/4 21/9/4 32/9/4
f 2/9/4 25/9/4 1/9/4
f 25/9/4 2/9/4 27/9/4
