mtllib catwalk-straight.mtl
v 0.070711 0.276376 0.597247
v -0.000000 0.276376 0.627743
v 0.070711 0.423624 0.597247
v -0.000000 0.423624 0.627743
v -0.100000 0.423624 0.523624
v -0.100000 0.276376 0.523624
v -0.100000 0.454120 0.450000
v -0.100000 0.245880 0.450000
v -0.100000 0.423624 0.376376
v -0.100000 0.276376 0.376376
v -0.100000 0.350000 0.345880
v -0.070711 0.276376 0.597247
v -0.070711 0.423624 0.597247
v 0.100000 0.454120 0.450000
v 0.100000 0.423624 0.523624
v 0.100000 0.276376 0.376376
v 0.100000 0.350000 0.345880
v 0.100000 0.423624 0.376376
v 0.100000 0.276376 0.523624
v 0.100000 0.245880 0.450000
v -0.070711 0.276376 -0.597247
v -0.000000 0.276376 -0.627743
v -0.070711 0.423624 -0.597247
v -0.000000 0.423624 -0.627743
v 0.100000 0.423624 -0.523624
v 0.100000 0.276376 -0.523624
v 0.100000 0.454120 -0.450000
v 0.100000 0.245880 -0.450000
v 0.100000 0.423624 -0.376376
v 0.100000 0.276376 -0.376376
v 0.100000 0.350000 -0.345880
v 0.070711 0.276376 -0.597247
v 0.070711 0.423624 -0.597247
v -0.100000 0.454120 -0.450000
v -0.100000 0.423624 -0.523624
v -0.100000 0.276376 -0.376376
v -0.100000 0.350000 -0.345880
v -0.100000 0.423624 -0.376376
v -0.100000 0.276376 -0.523624
v -0.100000 0.245880 -0.450000
v 0.050205 0.100000 0.429205
v 0.000000 0.100000 0.450000
v 0.040164 0.142750 0.419164
v 0.000000 0.142750 0.435800
v 0.000000 0.100000 0.308000
v 0.000000 0.142750 0.322200
v -0.050205 0.100000 0.328795
v -0.040164 0.142750 0.338836
v -0.056800 0.142750 0.379000
v -0.071000 0.100000 0.379000
v -0.040164 0.142750 0.419164
v 0.040164 0.142750 0.338836
v 0.056800 0.142750 0.379000
v 0.071000 0.100000 0.379000
v 0.050205 0.100000 0.328795
v -0.050205 0.100000 0.429205
v 0.050205 0.100000 -0.328795
v 0.000000 0.100000 -0.308000
v 0.040164 0.142750 -0.338836
v 0.000000 0.142750 -0.322200
v 0.000000 0.100000 -0.450000
v 0.000000 0.142750 -0.435800
v -0.050205 0.100000 -0.429205
v -0.040164 0.142750 -0.419164
v -0.056800 0.142750 -0.379000
v -0.071000 0.100000 -0.379000
v -0.040164 0.142750 -0.338836
v 0.040164 0.142750 -0.419164
v 0.056800 0.142750 -0.379000
v 0.071000 0.100000 -0.379000
v 0.050205 0.100000 -0.429205
v -0.050205 0.100000 -0.328795
v -0.470000 0.070000 -0.500000
v -0.470000 0.100000 -0.470000
v -0.500000 0.070000 -0.470000
v 0.470000 0.070000 -0.500000
v 0.500000 0.070000 -0.470000
v 0.470000 0.100000 -0.470000
v 0.500000 0.070000 0.470000
v 0.470000 0.070000 0.500000
v 0.470000 0.100000 0.470000
v -0.470000 0.070000 0.500000
v -0.500000 0.070000 0.470000
v -0.470000 0.100000 0.470000
v -0.500000 0.000000 -0.470000
v -0.500000 0.000000 0.470000
v -0.470000 0.000000 -0.500000
v 0.470000 0.000000 -0.500000
v 0.500000 0.000000 -0.470000
v 0.500000 -0.000000 0.470000
v 0.470000 -0.000000 0.500000
v -0.470000 0.000000 0.500000
v -0.050000 -0.015248 0.465248
v -0.000000 -0.000000 0.450000
v -0.050000 -0.000000 0.471564
v -0.050000 -0.021564 0.450000
v 0.050000 -0.015248 0.465248
v 0.050000 -0.000000 0.471564
v 0.050000 -0.021564 0.450000
v -0.050000 -0.088872 0.538872
v -0.050000 -0.125684 0.450000
v -0.070711 -0.052060 0.502060
v -0.070711 -0.073624 0.450000
v -0.070711 -0.000000 0.523624
v -0.050000 -0.000000 0.575684
v -0.070711 -0.073624 0.000000
v -0.050000 -0.125684 0.000000
v -0.050000 -0.021564 0.000000
v -0.000000 -0.000000 0.000000
v 0.050000 -0.021564 0.000000
v 0.070711 -0.073624 0.450000
v 0.070711 -0.073624 0.000000
v -0.000000 -0.147247 0.000000
v -0.000000 -0.147247 0.450000
v -0.000000 -0.000000 0.597247
v -0.000000 0.276376 0.597247
v -0.050000 0.276376 0.575684
v -0.000000 -0.104120 0.554120
v 0.050000 -0.088872 0.538872
v 0.050000 -0.000000 0.575684
v -0.070711 0.276376 0.523624
v 0.070711 -0.000000 0.523624
v 0.070711 0.276376 0.523624
v 0.050000 0.276376 0.471564
v 0.070711 -0.052060 0.502060
v 0.050000 -0.125684 0.450000
v 0.050000 -0.125684 0.000000
v -0.000000 0.276376 0.450000
v -0.050000 0.276376 0.471564
v 0.050000 0.276376 0.575684
v 0.050000 -0.015248 -0.465248
v -0.000000 -0.000000 -0.450000
v 0.050000 -0.000000 -0.471564
v 0.050000 -0.021564 -0.450000
v -0.050000 -0.015248 -0.465248
v -0.050000 -0.000000 -0.471564
v -0.050000 -0.021564 -0.450000
v 0.050000 -0.088872 -0.538872
v 0.050000 -0.125684 -0.450000
v 0.070711 -0.052060 -0.502060
v 0.070711 -0.073624 -0.450000
v 0.070711 -0.000000 -0.523624
v 0.050000 -0.000000 -0.575684
v 0.050000 -0.125684 0.000000
v 0.050000 -0.021564 0.000000
v -0.000000 -0.000000 0.000000
v -0.050000 -0.021564 0.000000
v -0.070711 -0.073624 -0.450000
v -0.000000 -0.147247 0.000000
v -0.000000 -0.147247 -0.450000
v -0.000000 -0.000000 -0.597247
v -0.000000 0.276376 -0.597247
v 0.050000 0.276376 -0.575684
v -0.000000 -0.104120 -0.554120
v -0.050000 -0.088872 -0.538872
v -0.050000 -0.000000 -0.575684
v 0.070711 0.276376 -0.523624
v -0.070711 -0.000000 -0.523624
v -0.070711 0.276376 -0.523624
v -0.050000 0.276376 -0.471564
v -0.070711 -0.052060 -0.502060
v -0.050000 -0.125684 -0.450000
v -0.050000 -0.125684 0.000000
v -0.000000 0.276376 -0.450000
v 0.050000 0.276376 -0.471564
v -0.050000 0.276376 -0.575684
v -0.500000 0.400000 0.450000
v 0.500000 0.400000 0.450000
v -0.500000 0.385355 0.485355
v 0.500000 0.385355 0.485355
v -0.500000 0.314645 0.414645
v -0.500000 0.300000 0.450000
v 0.500000 0.314645 0.414645
v 0.500000 0.300000 0.450000
v -0.500000 0.385355 0.414645
v 0.500000 0.385355 0.414645
v 0.500000 0.350000 0.500000
v -0.500000 0.350000 0.500000
v 0.500000 0.314645 0.485355
v -0.500000 0.314645 0.485355
v 0.500000 0.350000 0.400000
v -0.500000 0.350000 0.400000
v 0.500000 0.400000 -0.450000
v -0.500000 0.400000 -0.450000
v 0.500000 0.385355 -0.485355
v -0.500000 0.385355 -0.485355
v 0.500000 0.314645 -0.414645
v 0.500000 0.300000 -0.450000
v -0.500000 0.314645 -0.414645
v -0.500000 0.300000 -0.450000
v 0.500000 0.385355 -0.414645
v -0.500000 0.385355 -0.414645
v -0.500000 0.350000 -0.500000
v 0.500000 0.350000 -0.500000
v -0.500000 0.314645 -0.485355
v 0.500000 0.314645 -0.485355
v -0.500000 0.350000 -0.400000
v 0.500000 0.350000 -0.400000
vn 0.717127 0.000000 0.696943
vn 0.000000 0.000000 1.000000
vn -0.985916 0.000000 0.167239
vn -1.000000 0.000000 0.000000
vn -0.717127 0.000000 0.696943
vn 0.000000 1.000000 0.000000
vn 0.000000 0.975105 0.221743
vn -0.000000 -0.707107 -0.707107
vn -0.000000 0.000000 -1.000000
vn -0.000000 0.707107 -0.707107
vn 0.985916 0.000000 0.167239
vn 0.985916 0.000000 0.167239
vn 1.000000 0.000000 -0.000000
vn 0.000000 -0.975105 0.221743
vn 0.000000 -0.975105 0.221743
vn 0.000000 -1.000000 0.000000
vn -0.717127 0.000000 -0.696943
vn 0.000000 0.000000 -1.000000
vn 0.985916 0.000000 -0.167239
vn 1.000000 0.000000 0.000000
vn 0.717127 0.000000 -0.696943
vn 0.000000 0.975105 -0.221743
vn 0.000000 -0.707107 0.707107
vn 0.000000 0.000000 1.000000
vn 0.000000 0.707107 0.707107
vn -0.985916 0.000000 -0.167239
vn -0.985916 0.000000 -0.167239
vn -1.000000 0.000000 0.000000
vn 0.000000 -0.975105 -0.221743
vn 0.000000 -0.975105 -0.221743
vn 0.671055 0.315229 0.671055
vn 0.000000 0.315229 0.949016
vn 0.470798 0.746122 0.470798
vn 0.000000 0.746122 0.665809
vn -0.000000 0.315229 -0.949016
vn -0.000000 0.746122 -0.665809
vn -0.671055 0.315229 -0.671055
vn -0.470798 0.746122 -0.470798
vn -0.665809 0.746122 0.000000
vn -0.949016 0.315229 0.000000
vn -0.470798 0.746122 0.470798
vn 0.470798 0.746122 -0.470798
vn 0.665809 0.746122 -0.000000
vn 0.949016 0.315229 -0.000000
vn 0.671055 0.315229 -0.671055
vn -0.671055 0.315229 0.671055
vn -0.341586 0.341586 -0.875579
vn -0.341586 0.875579 -0.341586
vn -0.875579 0.341586 -0.341586
vn 0.341586 0.341586 -0.875579
vn 0.875579 0.341586 -0.341586
vn 0.341586 0.875579 -0.341586
vn 0.875579 0.341586 0.341586
vn 0.341586 0.341586 0.875579
vn 0.341586 0.875579 0.341586
vn -0.341586 0.341586 0.875579
vn -0.875579 0.341586 0.341586
vn -0.341586 0.875579 0.341586
vn -0.923879 0.000000 -0.382683
vn -0.923879 0.000000 0.382683
vn -0.382683 0.000000 -0.923879
vn 0.382683 0.000000 -0.923879
vn 0.923879 0.000000 -0.382683
vn 0.923879 0.000000 0.382683
vn 0.382683 0.000000 0.923879
vn -0.382683 0.000000 0.923879
vn -0.767196 0.453547 -0.453547
vn -0.736401 0.133912 -0.663160
vn -0.736401 0.663160 -0.133912
vn 0.767196 0.453547 -0.453547
vn 0.736401 0.133912 -0.663160
vn 0.736401 0.663160 -0.133912
vn -0.672939 -0.523046 0.523046
vn -0.689415 -0.710068 0.143212
vn -0.995788 -0.064829 0.064829
vn -0.998775 -0.045712 0.018935
vn -0.998775 -0.018935 0.045712
vn -0.689415 -0.143212 0.710068
vn -0.717127 -0.696943 0.000000
vn -0.717127 0.696943 0.000000
vn 0.717127 0.696943 -0.000000
vn 0.998775 -0.045712 0.018935
vn 0.000000 -0.982496 0.186285
vn 0.000000 -0.186285 0.982496
vn 0.000000 -0.707107 0.707107
vn 0.672939 -0.523046 0.523046
vn 0.689415 -0.143212 0.710068
vn 0.998775 -0.018935 0.045712
vn 0.995788 -0.064829 0.064829
vn 0.689415 -0.710068 0.143212
vn 0.717127 -0.696943 -0.000000
vn 0.767196 0.453547 0.453547
vn 0.736401 0.133912 0.663160
vn 0.736401 0.663160 0.133912
vn -0.767196 0.453547 0.453547
vn -0.736401 0.133912 0.663160
vn -0.736401 0.663160 0.133912
vn 0.672939 -0.523046 -0.523046
vn 0.689415 -0.710068 -0.143212
vn 0.995788 -0.064829 -0.064829
vn 0.998775 -0.045712 -0.018935
vn 0.998775 -0.018935 -0.045712
vn 0.689415 -0.143212 -0.710068
vn 0.717127 -0.696943 0.000000
vn 0.717127 0.696943 0.000000
vn -0.717127 0.696943 0.000000
vn -0.998775 -0.045712 -0.018935
vn 0.000000 -0.982496 -0.186285
vn 0.000000 -0.186285 -0.982496
vn 0.000000 -0.707107 -0.707107
vn -0.672939 -0.523046 -0.523046
vn -0.689415 -0.143212 -0.710068
vn -0.998775 -0.018935 -0.045712
vn -0.995788 -0.064829 -0.064829
vn -0.689415 -0.710068 -0.143212
vn -0.717127 -0.696943 0.000000
vn 0.000000 0.707107 0.707107
vn 0.000000 0.707107 -0.707107
usemtl colormap
f 3/2/1 2/1/2 1/1/1
f 2/1/2 3/2/1 4/2/2
f 7/3/4 6/1/3 5/2/3
f 6/1/3 7/3/4 8/4/4
f 8/4/4 7/3/4 9/2/4
f 8/4/4 9/2/4 10/1/4
f 10/1/4 9/2/4 11/5/4
f 4/2/2 12/1/5 2/1/2
f 12/1/5 4/2/2 13/2/5
f 5/2/7 14/3/6 7/3/6
f 14/3/6 5/2/7 15/2/7
f 11/5/9 16/1/8 10/1/8
f 16/1/8 11/5/9 17/5/9
f 9/2/10 17/5/9 11/5/9
f 17/5/9 9/2/10 18/2/10
f 14/3/6 9/2/10 7/3/6
f 9/2/10 14/3/6 18/2/10
f 5/2/3 12/1/5 13/2/5
f 12/1/5 5/2/3 6/1/3
f 20/6/13 15/2/12 19/1/11
f 15/2/12 20/6/13 14/3/13
f 14/3/13 20/6/13 16/1/13
f 14/3/13 16/1/13 18/2/13
f 18/2/13 16/1/13 17/5/13
f 13/2/6 15/2/7 5/2/7
f 15/2/7 13/2/6 4/2/6
f 15/2/7 4/2/6 3/2/6
f 8/4/16 19/1/15 6/1/14
f 19/1/15 8/4/16 20/6/16
f 19/1/15 12/1/16 6/1/14
f 12/1/16 19/1/15 2/1/16
f 2/1/16 19/1/15 1/1/16
f 19/1/11 3/2/1 1/1/1
f 3/2/1 19/1/11 15/2/12
f 16/1/8 8/4/16 10/1/8
f 8/4/16 16/1/8 20/6/16
f 23/2/17 22/1/18 21/1/17
f 22/1/18 23/2/17 24/2/18
f 27/3/20 26/1/19 25/2/19
f 26/1/19 27/3/20 28/4/20
f 28/4/20 27/3/20 29/2/20
f 28/4/20 29/2/20 30/1/20
f 30/1/20 29/2/20 31/5/20
f 24/2/18 32/1/21 22/1/18
f 32/1/21 24/2/18 33/2/21
f 25/2/22 34/3/6 27/3/6
f 34/3/6 25/2/22 35/2/22
f 31/5/24 36/1/23 30/1/23
f 36/1/23 31/5/24 37/5/24
f 29/2/25 37/5/24 31/5/24
f 37/5/24 29/2/25 38/2/25
f 34/3/6 29/2/25 27/3/6
f 29/2/25 34/3/6 38/2/25
f 25/2/19 32/1/21 33/2/21
f 32/1/21 25/2/19 26/1/19
f 40/6/28 35/2/27 39/1/26
f 35/2/27 40/6/28 34/3/28
f 34/3/28 40/6/28 36/1/28
f 34/3/28 36/1/28 38/2/28
f 38/2/28 36/1/28 37/5/28
f 33/2/6 35/2/22 25/2/22
f 35/2/22 33/2/6 24/2/6
f 35/2/22 24/2/6 23/2/6
f 28/4/16 39/1/30 26/1/29
f 39/1/30 28/4/16 40/6/16
f 39/1/30 32/1/16 26/1/29
f 32/1/16 39/1/30 22/1/16
f 22/1/16 39/1/30 21/1/16
f 39/1/26 23/2/17 21/1/17
f 23/2/17 39/1/26 35/2/27
f 36/1/23 28/4/16 30/1/23
f 28/4/16 36/1/23 40/6/16
f 43/8/33 42/7/32 41/7/31
f 42/7/32 43/8/33 44/8/34
f 47/7/37 46/8/36 45/7/35
f 46/8/36 47/7/37 48/8/38
f 48/8/38 50/7/40 49/8/39
f 50/7/40 48/8/38 47/7/37
f 51/8/41 48/8/38 49/8/39
f 48/8/38 51/8/41 44/8/34
f 48/8/38 44/8/34 46/8/36
f 46/8/36 44/8/34 43/8/33
f 46/8/36 43/8/33 52/8/42
f 52/8/42 43/8/33 53/8/43
f 54/7/44 52/8/42 53/8/43
f 52/8/42 54/7/44 55/7/45
f 42/7/32 51/8/41 56/7/46
f 51/8/41 42/7/32 44/8/34
f 54/7/44 43/8/33 41/7/31
f 43/8/33 54/7/44 53/8/43
f 46/8/36 55/7/45 45/7/35
f 55/7/45 46/8/36 52/8/42
f 51/8/41 50/7/40 56/7/46
f 50/7/40 51/8/41 49/8/39
f 59/8/33 58/7/32 57/7/31
f 58/7/32 59/8/33 60/8/34
f 63/7/37 62/8/36 61/7/35
f 62/8/36 63/7/37 64/8/38
f 64/8/38 66/7/40 65/8/39
f 66/7/40 64/8/38 63/7/37
f 67/8/41 64/8/38 65/8/39
f 64/8/38 67/8/41 60/8/34
f 64/8/38 60/8/34 62/8/36
f 62/8/36 60/8/34 59/8/33
f 62/8/36 59/8/33 68/8/42
f 68/8/42 59/8/33 69/8/43
f 70/7/44 68/8/42 69/8/43
f 68/8/42 70/7/44 71/7/45
f 58/7/32 67/8/41 72/7/46
f 67/8/41 58/7/32 60/8/34
f 70/7/44 59/8/33 57/7/31
f 59/8/33 70/7/44 69/8/43
f 62/8/36 71/7/45 61/7/35
f 71/7/45 62/8/36 68/8/42
f 67/8/41 66/7/40 72/7/46
f 66/7/40 67/8/41 65/8/39
f 75/9/49 74/8/48 73/9/47
f 78/8/52 77/9/51 76/9/50
f 81/11/55 80/10/54 79/10/53
f 84/8/58 83/9/57 82/9/56
f 86/12/60 75/9/49 85/12/59
f 75/9/49 86/12/60 83/9/57
f 73/9/47 88/12/62 87/12/61
f 88/12/62 73/9/47 76/9/50
f 77/9/51 90/7/64 89/12/63
f 90/7/64 77/9/51 79/10/53
f 80/10/54 92/12/66 91/7/65
f 92/12/66 80/10/54 82/9/56
f 74/8/48 81/11/55 78/8/52
f 81/11/55 74/8/48 84/8/58
f 85/12/59 73/9/47 87/12/61
f 73/9/47 85/12/59 75/9/49
f 76/9/50 74/8/48 78/8/52
f 74/8/48 76/9/50 73/9/47
f 81/11/55 82/9/56 80/10/54
f 82/9/56 81/11/55 84/8/58
f 78/8/52 79/10/53 77/9/51
f 79/10/53 78/8/52 81/11/55
f 76/9/50 89/12/63 88/12/62
f 89/12/63 76/9/50 77/9/51
f 79/10/53 91/7/65 90/7/64
f 91/7/65 79/10/53 80/10/54
f 82/9/56 86/12/60 92/12/66
f 86/12/60 82/9/56 83/9/57
f 75/9/49 84/8/58 74/8/48
f 84/8/58 75/9/49 83/9/57
f 91/7/16 89/12/16 90/7/16
f 89/12/16 91/7/16 88/12/16
f 88/12/16 91/7/16 92/12/16
f 88/12/16 92/12/16 87/12/16
f 87/12/16 92/12/16 86/12/16
f 87/12/16 86/12/16 85/12/16
f 95/14/68 94/14/10 93/13/67
f 94/14/10 96/15/69 93/13/67
f 94/14/10 98/14/71 97/13/70
f 99/15/72 94/14/10 97/13/70
f 102/18/75 101/17/74 100/16/73
f 101/17/74 102/18/75 103/19/76
f 95/14/68 102/18/75 104/14/77
f 102/18/75 95/14/68 93/13/67
f 93/13/67 103/19/76 102/18/75
f 103/19/76 93/13/67 96/15/69
f 104/14/77 100/16/73 105/14/78
f 100/16/73 104/14/77 102/18/75
f 106/19/4 101/17/74 103/19/76
f 101/17/74 106/19/4 107/17/79
f 96/15/69 109/14/6 108/15/80
f 109/14/6 96/15/69 94/14/10
f 111/19/82 110/15/81 99/15/72
f 110/15/81 111/19/82 112/19/13
f 113/20/16 101/17/74 107/17/79
f 101/17/74 113/20/16 114/20/83
f 116/21/2 105/14/78 115/14/84
f 105/14/78 116/21/2 117/21/5
f 119/16/86 115/14/84 118/22/85
f 115/14/84 119/16/86 120/14/87
f 121/21/4 105/14/78 117/21/5
f 105/14/78 121/21/4 104/14/77
f 98/14/71 123/21/13 122/14/88
f 123/21/13 98/14/71 124/21/21
f 94/14/10 110/15/81 109/14/6
f 110/15/81 94/14/10 99/15/72
f 111/19/82 97/13/70 125/18/89
f 97/13/70 111/19/82 99/15/72
f 125/18/89 98/14/71 122/14/88
f 98/14/71 125/18/89 97/13/70
f 126/17/90 118/22/85 114/20/83
f 118/22/85 126/17/90 119/16/86
f 127/17/91 114/20/83 113/20/16
f 114/20/83 127/17/91 126/17/90
f 94/14/10 124/21/21 98/14/71
f 124/21/21 94/14/10 128/21/9
f 114/20/83 100/16/73 101/17/74
f 100/16/73 114/20/83 118/22/85
f 95/14/68 128/21/9 94/14/10
f 128/21/9 95/14/68 129/21/17
f 129/21/17 104/14/77 121/21/4
f 104/14/77 129/21/17 95/14/68
f 126/17/90 125/18/89 119/16/86
f 125/18/89 126/17/90 111/19/82
f 130/21/1 115/14/84 120/14/87
f 115/14/84 130/21/1 116/21/2
f 122/14/88 130/21/1 120/14/87
f 130/21/1 122/14/88 123/21/13
f 119/16/86 122/14/88 120/14/87
f 122/14/88 119/16/86 125/18/89
f 115/14/84 100/16/73 118/22/85
f 100/16/73 115/14/84 105/14/78
f 96/15/69 106/19/4 103/19/76
f 106/19/4 96/15/69 108/15/80
f 127/17/91 111/19/82 126/17/90
f 111/19/82 127/17/91 112/19/13
f 133/14/93 132/14/25 131/13/92
f 132/14/25 134/15/94 131/13/92
f 132/14/25 136/14/96 135/13/95
f 137/15/97 132/14/25 135/13/95
f 140/18/100 139/17/99 138/16/98
f 139/17/99 140/18/100 141/19/101
f 133/14/93 140/18/100 142/14/102
f 140/18/100 133/14/93 131/13/92
f 131/13/92 141/19/101 140/18/100
f 141/19/101 131/13/92 134/15/94
f 142/14/102 138/16/98 143/14/103
f 138/16/98 142/14/102 140/18/100
f 112/19/20 139/17/99 141/19/101
f 139/17/99 112/19/20 144/17/104
f 134/15/94 146/14/6 145/15/105
f 146/14/6 134/15/94 132/14/25
f 148/19/107 147/15/106 137/15/97
f 147/15/106 148/19/107 106/19/28
f 149/20/16 139/17/99 144/17/104
f 139/17/99 149/20/16 150/20/108
f 152/21/18 143/14/103 151/14/109
f 143/14/103 152/21/18 153/21/21
f 155/16/111 151/14/109 154/22/110
f 151/14/109 155/16/111 156/14/112
f 157/21/20 143/14/103 153/21/21
f 143/14/103 157/21/20 142/14/102
f 136/14/96 159/21/28 158/14/113
f 159/21/28 136/14/96 160/21/5
f 132/14/25 147/15/106 146/14/6
f 147/15/106 132/14/25 137/15/97
f 148/19/107 135/13/95 161/18/114
f 135/13/95 148/19/107 137/15/97
f 161/18/114 136/14/96 158/14/113
f 136/14/96 161/18/114 135/13/95
f 162/17/115 154/22/110 150/20/108
f 154/22/110 162/17/115 155/16/111
f 163/17/116 150/20/108 149/20/16
f 150/20/108 163/17/116 162/17/115
f 132/14/25 160/21/5 136/14/96
f 160/21/5 132/14/25 164/21/24
f 150/20/108 138/16/98 139/17/99
f 138/16/98 150/20/108 154/22/110
f 133/14/93 164/21/24 132/14/25
f 164/21/24 133/14/93 165/21/1
f 165/21/1 142/14/102 157/21/20
f 142/14/102 165/21/1 133/14/93
f 162/17/115 161/18/114 155/16/111
f 161/18/114 162/17/115 148/19/107
f 166/21/17 151/14/109 156/14/112
f 151/14/109 166/21/17 152/21/18
f 158/14/113 166/21/17 156/14/112
f 166/21/17 158/14/113 159/21/28
f 155/16/111 158/14/113 156/14/112
f 158/14/113 155/16/111 161/18/114
f 151/14/109 138/16/98 154/22/110
f 138/16/98 151/14/109 143/14/103
f 134/15/94 112/19/20 141/19/101
f 112/19/20 134/15/94 145/15/105
f 163/17/116 148/19/107 162/17/115
f 148/19/107 163/17/116 106/19/28
f 169/23/117 168/23/6 167/23/6
f 168/23/6 169/23/117 170/23/117
f 173/23/8 172/23/16 171/23/8
f 172/23/16 173/23/8 174/23/16
f 168/23/6 175/23/10 167/23/6
f 175/23/10 168/23/6 176/23/10
f 169/23/117 177/23/2 170/23/117
f 177/23/2 169/23/117 178/23/2
f 178/23/2 179/23/85 177/23/2
f 179/23/85 178/23/2 180/23/85
f 172/23/16 179/23/85 180/23/85
f 179/23/85 172/23/16 174/23/16
f 179/23/13 170/23/13 177/23/13
f 170/23/13 179/23/13 174/23/13
f 170/23/13 174/23/13 168/23/13
f 168/23/13 174/23/13 173/23/13
f 168/23/13 173/23/13 176/23/13
f 176/23/13 173/23/13 181/23/13
f 182/23/9 173/23/8 171/23/8
f 173/23/8 182/23/9 181/23/9
f 175/23/10 181/23/9 182/23/9
f 181/23/9 175/23/10 176/23/10
f 169/23/4 180/23/4 178/23/4
f 180/23/4 169/23/4 167/23/4
f 180/23/4 167/23/4 172/23/4
f 172/23/4 167/23/4 175/23/4
f 172/23/4 175/23/4 171/23/4
f 171/23/4 175/23/4 182/23/4
f 185/23/118 184/23/6 183/23/6
f 184/23/6 185/23/118 186/23/118
f 189/23/23 188/23/16 187/23/23
f 188/23/16 189/23/23 190/23/16
f 184/23/6 191/23/25 183/23/6
f 191/23/25 184/23/6 192/23/25
f 185/23/118 193/23/18 186/23/118
f 193/23/18 185/23/118 194/23/18
f 194/23/18 195/23/110 193/23/18
f 195/23/110 194/23/18 196/23/110
f 188/23/16 195/23/110 196/23/110
f 195/23/110 188/23/16 190/23/16
f 195/23/28 186/23/28 193/23/28
f 186/23/28 195/23/28 190/23/28
f 186/23/28 190/23/28 184/23/28
f 184/23/28 190/23/28 189/23/28
f 184/23/28 189/23/28 192/23/28
f 192/23/28 189/23/28 197/23/28
f 198/23/24 189/23/23 187/23/23
f 189/23/23 198/23/24 197/23/24
f 191/23/25 197/23/24 198/23/24
f 197/23/24 191/23/25 192/23/25
f 185/23/20 196/23/20 194/23/20
f 196/23/20 185/23/20 183/23/20
f 196/23/20 183/23/20 188/23/20
f 188/23/20 183/23/20 191/23/20
f 188/23/20 191/23/20 187/23/20
f 187/23/20 191/23/20 198/23/20
f 3/2/1 2/1/2 1/1/1
f 2/1/2 3/2/1 4/2/2
f 7/3/4 6/1/3 5/2/3
f 6/1/3 7/3/4 8/4/4
f 8/4/4 7/3/4 9/2/4
f 8/4/4 9/2/4 10/1/4
f 10/1/4 9/2/4 11/5/4
f 4/2/2 12/1/5 2/1/2
f 12/1/5 4/2/2 13/2/5
f 5/2/7 14/3/6 7/3/6
f 14/3/6 5/2/7 15/2/7
f 11/5/9 16/1/8 10/1/8
f 16/1/8 11/5/9 17/5/9
f 9/2/10 17/5/9 11/5/9
f 17/5/9 9/2/10 18/2/10
f 14/3/6 9/2/10 7/3/6
f 9/2/10 14/3/6 18/2/10
f 5/2/3 12/1/5 13/2/5
f 12/1/5 5/2/3 6/1/3
f 20/6/13 15/2/12 19/1/11
f 15/2/12 20/6/13 14/3/13
f 14/3/13 20/6/13 16/1/13
f 14/3/13 16/1/13 18/2/13
f 18/2/13 16/1/13 17/5/13
f 13/2/6 15/2/7 5/2/7
f 15/2/7 13/2/6 4/2/6
f 15/2/7 4/2/6 3/2/6
f 8/4/16 19/1/15 6/1/14
f 19/1/15 8/4/16 20/6/16
f 19/1/15 12/1/16 6/1/14
f 12/1/16 19/1/15 2/1/16
f 2/1/16 19/1/15 1/1/16
f 19/1/11 3/2/1 1/1/1
f 3/2/1 19/1/11 15/2/12
f 16/1/8 8/4/16 10/1/8
f 8/4/16 16/1/8 20/6/16
f 23/2/17 22/1/18 21/1/17
f 22/1/18 23/2/17 24/2/18
f 27/3/20 26/1/19 25/2/19
f 26/1/19 27/3/20 28/4/20
f 28/4/20 27/3/20 29/2/20
f 28/4/20 29/2/20 30/1/20
f 30/1/20 29/2/20 31/5/20
f 24/2/18 32/1/21 22/1/18
f 32/1/21 24/2/18 33/2/21
f 25/2/22 34/3/6 27/3/6
f 34/3/6 25/2/22 35/2/22
f 31/5/24 36/1/23 30/1/23
f 36/1/23 31/5/24 37/5/24
f 29/2/25 37/5/24 31/5/24
f 37/5/24 29/2/25 38/2/25
f 34/3/6 29/2/25 27/3/6
f 29/2/25 34/3/6 38/2/25
f 25/2/19 32/1/21 33/2/21
f 32/1/21 25/2/19 26/1/19
f 40/6/28 35/2/27 39/1/26
f 35/2/27 40/6/28 34/3/28
f 34/3/28 40/6/28 36/1/28
f 34/3/28 36/1/28 38/2/28
f 38/2/28 36/1/28 37/5/28
f 33/2/6 35/2/22 25/2/22
f 35/2/22 33/2/6 24/2/6
f 35/2/22 24/2/6 23/2/6
f 28/4/16 39/1/30 26/1/29
f 39/1/30 28/4/16 40/6/16
f 39/1/30 32/1/16 26/1/29
f 32/1/16 39/1/30 22/1/16
f 22/1/16 39/1/30 21/1/16
f 39/1/26 23/2/17 21/1/17
f 23/2/17 39/1/26 35/2/27
f 36/1/23 28/4/16 30/1/23
f 28/4/16 36/1/23 40/6/16
f 43/8/33 42/7/32 41/7/31
f 42/7/32 43/8/33 44/8/34
f 47/7/37 46/8/36 45/7/35
f 46/8/36 47/7/37 48/8/38
f 48/8/38 50/7/40 49/8/39
f 50/7/40 48/8/38 47/7/37
f 51/8/41 48/8/38 49/8/39
f 48/8/38 51/8/41 44/8/34
f 48/8/38 44/8/34 46/8/36
f 46/8/36 44/8/34 43/8/33
f 46/8/36 43/8/33 52/8/42
f 52/8/42 43/8/33 53/8/43
f 54/7/44 52/8/42 53/8/43
f 52/8/42 54/7/44 55/7/45
f 42/7/32 51/8/41 56/7/46
f 51/8/41 42/7/32 44/8/34
f 54/7/44 43/8/33 41/7/31
f 43/8/33 54/7/44 53/8/43
f 46/8/36 55/7/45 45/7/35
f 55/7/45 46/8/36 52/8/42
f 51/8/41 50/7/40 56/7/46
f 50/7/40 51/8/41 49/8/39
f 59/8/33 58/7/32 57/7/31
f 58/7/32 59/8/33 60/8/34
f 63/7/37 62/8/36 61/7/35
f 62/8/36 63/7/37 64/8/38
f 64/8/38 66/7/40 65/8/39
f 66/7/40 64/8/38 63/7/37
f 67/8/41 64/8/38 65/8/39
f 64/8/38 67/8/41 60/8/34
f 64/8/38 60/8/34 62/8/36
f 62/8/36 60/8/34 59/8/33
f 62/8/36 59/8/33 68/8/42
f 68/8/42 59/8/33 69/8/43
f 70/7/44 68/8/42 69/8/43
f 68/8/42 70/7/44 71/7/45
f 58/7/32 67/8/41 72/7/46
f 67/8/41 58/7/32 60/8/34
f 70/7/44 59/8/33 57/7/31
f 59/8/33 70/7/44 69/8/43
f 62/8/36 71/7/45 61/7/35
f 71/7/45 62/8/36 68/8/42
f 67/8/41 66/7/40 72/7/46
f 66/7/40 67/8/41 65/8/39
f 75/9/49 74/8/48 73/9/47
f 78/8/52 77/9/51 76/9/50
f 81/11/55 80/10/54 79/10/53
f 84/8/58 83/9/57 82/9/56
f 86/12/60 75/9/49 85/12/59
f 75/9/49 86/12/60 83/9/57
f 73/9/47 88/12/62 87/12/61
f 88/12/62 73/9/47 76/9/50
f 77/9/51 90/7/64 89/12/63
f 90/7/64 77/9/51 79/10/53
f 80/10/54 92/12/66 91/7/65
f 92/12/66 80/10/54 82/9/56
f 74/8/48 81/11/55 78/8/52
f 81/11/55 74/8/48 84/8/58
f 85/12/59 73/9/47 87/12/61
f 73/9/47 85/12/59 75/9/49
f 76/9/50 74/8/48 78/8/52
f 74/8/48 76/9/50 73/9/47
f 81/11/55 82/9/56 80/10/54
f 82/9/56 81/11/55 84/8/58
f 78/8/52 79/10/53 77/9/51
f 79/10/53 78/8/52 81/11/55
f 76/9/50 89/12/63 88/12/62
f 89/12/63 76/9/50 77/9/51
f 79/10/53 91/7/65 90/7/64
f 91/7/65 79/10/53 80/10/54
f 82/9/56 86/12/60 92/12/66
f 86/12/60 82/9/56 83/9/57
f 75/9/49 84/8/58 74/8/48
f 84/8/58 75/9/49 83/9/57
f 91/7/16 89/12/16 90/7/16
f 89/12/16 91/7/16 88/12/16
f 88/12/16 91/7/16 92/12/16
f 88/12/16 92/12/16 87/12/16
f 87/12/16 92/12/16 86/12/16
f 87/12/16 86/12/16 85/12/16
f 95/14/68 94/14/10 93/13/67
f 94/14/10 96/15/69 93/13/67
f 94/14/10 98/14/71 97/13/70
f 99/15/72 94/14/10 97/13/70
f 102/18/75 101/17/74 100/16/73
f 101/17/74 102/18/75 103/19/76
f 95/14/68 102/18/75 104/14/77
f 102/18/75 95/14/68 93/13/67
f 93/13/67 103/19/76 102/18/75
f 103/19/76 93/13/67 96/15/69
f 104/14/77 100/16/73 105/14/78
f 100/16/73 104/14/77 102/18/75
f 106/19/4 101/17/74 103/19/76
f 101/17/74 106/19/4 107/17/79
f 96/15/69 109/14/6 108/15/80
f 109/14/6 96/15/69 94/14/10
f 111/19/82 110/15/81 99/15/72
f 110/15/81 111/19/82 112/19/13
f 113/20/16 101/17/74 107/17/79
f 101/17/74 113/20/16 114/20/83
f 116/21/2 105/14/78 115/14/84
f 105/14/78 116/21/2 117/21/5
f 119/16/86 115/14/84 118/22/85
f 115/14/84 119/16/86 120/14/87
f 121/21/4 105/14/78 117/21/5
f 105/14/78 121/21/4 104/14/77
f 98/14/71 123/21/13 122/14/88
f 123/21/13 98/14/71 124/21/21
f 94/14/10 110/15/81 109/14/6
f 110/15/81 94/14/10 99/15/72
f 111/19/82 97/13/70 125/18/89
f 97/13/70 111/19/82 99/15/72
f 125/18/89 98/14/71 122/14/88
f 98/14/71 125/18/89 97/13/70
f 126/17/90 118/22/85 114/20/83
f 118/22/85 126/17/90 119/16/86
f 127/17/91 114/20/83 113/20/16
f 114/20/83 127/17/91 126/17/90
f 94/14/10 124/21/21 98/14/71
f 124/21/21 94/14/10 128/21/9
f 114/20/83 100/16/73 101/17/74
f 100/16/73 114/20/83 118/22/85
f 95/14/68 128/21/9 94/14/10
f 128/21/9 95/14/68 129/21/17
f 129/21/17 104/14/77 121/21/4
f 104/14/77 129/21/17 95/14/68
f 126/17/90 125/18/89 119/16/86
f 125/18/89 126/17/90 111/19/82
f 130/21/1 115/14/84 120/14/87
f 115/14/84 130/21/1 116/21/2
f 122/14/88 130/21/1 120/14/87
f 130/21/1 122/14/88 123/21/13
f 119/16/86 122/14/88 120/14/87
f 122/14/88 119/16/86 125/18/89
f 115/14/84 100/16/73 118/22/85
f 100/16/73 115/14/84 105/14/78
f 96/15/69 106/19/4 103/19/76
f 106/19/4 96/15/69 108/15/80
f 127/17/91 111/19/82 126/17/90
f 111/19/82 127/17/91 112/19/13
f 133/14/93 132/14/25 131/13/92
f 132/14/25 134/15/94 131/13/92
f 132/14/25 136/14/96 135/13/95
f 137/15/97 132/14/25 135/13/95
f 140/18/100 139/17/99 138/16/98
f 139/17/99 140/18/100 141/19/101
f 133/14/93 140/18/100 142/14/102
f 140/18/100 133/14/93 131/13/92
f 131/13/92 141/19/101 140/18/100
f 141/19/101 131/13/92 134/15/94
f 142/14/102 138/16/98 143/14/103
f 138/16/98 142/14/102 140/18/100
f 112/19/20 139/17/99 141/19/101
f 139/17/99 112/19/20 144/17/104
f 134/15/94 146/14/6 145/15/105
f 146/14/6 134/15/94 132/14/25
f 148/19/107 147/15/106 137/15/97
f 147/15/106 148/19/107 106/19/28
f 149/20/16 139/17/99 144/17/104
f 139/17/99 149/20/16 150/20/108
f 152/21/18 143/14/103 151/14/109
f 143/14/103 152/21/18 153/21/21
f 155/16/111 151/14/109 154/22/110
f 151/14/109 155/16/111 156/14/112
f 157/21/20 143/14/103 153/21/21
f 143/14/103 157/21/20 142/14/102
f 136/14/96 159/21/28 158/14/113
f 159/21/28 136/14/96 160/21/5
f 132/14/25 147/15/106 146/14/6
f 147/15/106 132/14/25 137/15/97
f 148/19/107 135/13/95 161/18/114
f 135/13/95 148/19/107 137/15/97
f 161/18/114 136/14/96 158/14/113
f 136/14/96 161/18/114 135/13/95
f 162/17/115 154/22/110 150/20/108
f 154/22/110 162/17/115 155/16/111
f 163/17/116 150/20/108 149/20/16
f 150/20/108 163/17/116 162/17/115
f 132/14/25 160/21/5 136/14/96
f 160/21/5 132/14/25 164/21/24
f 150/20/108 138/16/98 139/17/99
f 138/16/98 150/20/108 154/22/110
f 133/14/93 164/21/24 132/14/25
f 164/21/24 133/14/93 165/21/1
f 165/21/1 142/14/102 157/21/20
f 142/14/102 165/21/1 133/14/93
f 162/17/115 161/18/114 155/16/111
f 161/18/114 162/17/115 148/19/107
f 166/21/17 151/14/109 156/14/112
f 151/14/109 166/21/17 152/21/18
f 158/14/113 166/21/17 156/14/112
f 166/21/17 158/14/113 159/21/28
f 155/16/111 158/14/113 156/14/112
f 158/14/113 155/16/111 161/18/114
f 151/14/109 138/16/98 154/22/110
f 138/16/98 151/14/109 143/14/103
f 134/15/94 112/19/20 141/19/101
f 112/19/20 134/15/94 145/15/105
f 163/17/116 148/19/107 162/17/115
f 148/19/107 163/17/116 106/19/28
f 169/23/117 168/23/6 167/23/6
f 168/23/6 169/23/117 170/23/117
f 173/23/8 172/23/16 171/23/8
f 172/23/16 173/23/8 174/23/16
f 168/23/6 175/23/10 167/23/6
f 175/23/10 168/23/6 176/23/10
f 169/23/117 177/23/2 170/23/117
f 177/23/2 169/23/117 178/23/2
f 178/23/2 179/23/85 177/23/2
f 179/23/85 178/23/2 180/23/85
f 172/23/16 179/23/85 180/23/85
f 179/23/85 172/23/16 174/23/16
f 179/23/13 170/23/13 177/23/13
f 170/23/13 179/23/13 174/23/13
f 170/23/13 174/23/13 168/23/13
f 168/23/13 174/23/13 173/23/13
f 168/23/13 173/23/13 176/23/13
f 176/23/13 173/23/13 181/23/13
f 182/23/9 173/23/8 171/23/8
f 173/23/8 182/23/9 181/23/9
f 175/23/10 181/23/9 182/23/9
f 181/23/9 175/23/10 176/23/10
f 169/23/4 180/23/4 178/23/4
f 180/23/4 169/23/4 167/23/4
f 180/23/4 167/23/4 172/23/4
f 172/23/4 167/23/4 175/23/4
f 172/23/4 175/23/4 171/23/4
f 171/23/4 175/23/4 182/23/4
f 185/23/118 184/23/6 183/23/6
f 184/23/6 185/23/118 186/23/118
f 189/23/23 188/23/16 187/23/23
f 188/23/16 189/23/23 190/23/16
f 184/23/6 191/23/25 183/23/6
f 191/23/25 184/23/6 192/23/25
f 185/23/118 193/23/18 186/23/118
f 193/23/18 185/23/118 194/23/18
f 194/23/18 195/23/110 193/23/18
f 195/23/110 194/23/18 196/23/110
f 188/23/16 195/23/110 196/23/110
f 195/23/110 188/23/16 190/23/16
f 195/23/28 186/23/28 193/23/28
f 186/23/28 195/23/28 190/23/28
f 186/23/28 190/23/28 184/23/28
f 184/23/28 190/23/28 189/23/28
f 184/23/28 189/23/28 192/23/28
f 192/23/28 189/23/28 197/23/28
f 198/23/24 189/23/23 187/23/23
f 189/23/23 198/23/24 197/23/24
f 191/23/25 197/23/24 198/23/24
f 197/23/24 191/23/25 192/23/25
f 185/23/20 196/23/20 194/23/20
f 196/23/20 185/23/20 183/23/20
f 196/23/20 183/23/20 188/23/20
f 188/23/20 183/23/20 191/23/20
f 188/23/20 191/23/20 187/23/20
f 187/23/20 191/23/20 198/23/20
