mtllib conveyor-corner.mtl
v 0.319871 0.450000 0.291180
v 0.367718 0.450000 0.276666
v 0.330134 0.435355 0.325013
v 0.377981 0.435355 0.310499
v 0.382232 0.400000 0.324513
v 0.334385 0.400000 0.339027
v -0.325013 0.435355 -0.330134
v -0.310499 0.435355 -0.377981
v -0.291180 0.450000 -0.319871
v -0.276666 0.450000 -0.367718
v -0.339027 0.400000 -0.334385
v -0.324513 0.400000 -0.382232
v -0.174997 0.450000 -0.284627
v -0.155770 0.450000 -0.331045
v -0.028169 0.450000 -0.206146
v -0.000256 0.450000 -0.247920
v 0.100528 0.450000 -0.100528
v 0.136054 0.450000 -0.136054
v 0.206146 0.450000 0.028169
v 0.247920 0.450000 0.000256
v 0.284627 0.450000 0.174997
v 0.331045 0.450000 0.155770
v 0.382232 0.340000 0.324513
v 0.334385 0.340000 0.339027
v -0.174997 0.340000 -0.284627
v -0.339027 0.340000 -0.334385
v 0.284627 0.340000 0.174997
v 0.206146 0.340000 0.028169
v -0.324513 0.340000 -0.382232
v 0.100528 0.340000 -0.100528
v -0.028169 0.340000 -0.206146
v 0.331045 0.340000 0.155770
v 0.247920 0.340000 0.000256
v 0.136054 0.340000 -0.136054
v -0.000256 0.340000 -0.247920
v -0.155770 0.340000 -0.331045
v -0.400000 0.340000 0.500000
v -0.400000 0.340000 0.450000
v 0.400000 0.340000 0.500000
v -0.400000 0.340000 0.400000
v -0.400000 0.340000 -0.389667
v -0.414645 0.340000 0.414645
v -0.450000 0.340000 0.400000
v -0.500000 0.340000 -0.400000
v -0.500000 0.340000 0.400000
v -0.324513 0.340000 -0.382232
v -0.155770 0.340000 -0.331045
v -0.000256 0.340000 -0.247920
v 0.136054 0.340000 -0.136054
v 0.247920 0.340000 0.000256
v 0.331045 0.340000 0.155770
v 0.389667 0.340000 0.400000
v 0.382232 0.340000 0.324513
v 0.181225 0.163398 -0.181225
v 0.181225 0.236602 -0.181225
v 0.035235 0.163398 -0.301036
v 0.035235 0.236602 -0.301036
v 0.390063 0.163398 0.131324
v 0.390063 0.236602 0.131324
v 0.301036 0.163398 -0.035235
v 0.301036 0.236602 -0.035235
v -0.131324 0.163398 -0.390063
v -0.131324 0.236602 -0.390063
v 0.444886 0.163398 0.312050
v 0.444886 0.236602 0.312050
v -0.312051 0.163398 -0.444886
v -0.312051 0.236602 -0.444886
v -0.500000 0.163398 -0.463397
v -0.500000 0.236602 -0.463397
v 0.463398 0.163398 0.500000
v 0.463398 0.236602 0.500000
v -0.117317 0.300000 -0.423880
v -0.304910 0.300000 -0.480785
v -0.500000 0.100000 -0.500000
v -0.304910 0.100000 -0.480785
v 0.500000 0.100000 0.500000
v 0.480785 0.100000 0.304910
v 0.055570 0.300000 -0.331470
v 0.423880 0.300000 0.117317
v 0.331470 0.300000 -0.055570
v 0.500000 0.300000 0.500000
v 0.480785 0.300000 0.304910
v 0.207107 0.300000 -0.207107
v -0.500000 0.300000 -0.500000
v 0.055570 0.100000 -0.331470
v 0.207107 0.100000 -0.207107
v -0.117317 0.100000 -0.423880
v 0.331470 0.100000 -0.055570
v 0.423880 0.100000 0.117317
v -0.500000 0.400000 -0.400000
v -0.500000 0.400000 -0.500000
v -0.500000 0.000000 -0.500000
v -0.500000 0.340000 -0.200000
v -0.500000 0.340000 0.200000
v -0.500000 0.340000 0.400000
v -0.500000 -0.000000 0.500000
v -0.500000 0.400000 0.400000
v -0.500000 0.400000 0.500000
v 0.400000 0.400000 0.500000
v 0.500000 0.400000 0.500000
v -0.400000 0.340000 0.500000
v 0.500000 0.000000 0.500000
v -0.400000 0.400000 0.500000
v -0.200000 0.340000 0.500000
v 0.200000 0.340000 0.500000
v 0.207107 0.400000 -0.207107
v 0.055570 0.400000 -0.331470
v -0.117317 0.400000 -0.423880
v 0.423880 0.400000 0.117317
v 0.331470 0.400000 -0.055570
v 0.480785 0.400000 0.304910
v -0.304910 0.400000 -0.480785
v 0.331045 0.400000 0.155770
v 0.331045 0.340000 0.155770
v 0.247920 0.400000 0.000256
v 0.247920 0.340000 0.000256
v 0.382232 0.400000 0.324513
v 0.382232 0.340000 0.324513
v -0.400000 0.340000 -0.389667
v -0.400000 0.400000 -0.389667
v -0.155770 0.340000 -0.331045
v -0.155770 0.400000 -0.331045
v -0.324513 0.400000 -0.382232
v 0.389667 0.400000 0.400000
v 0.389667 0.340000 0.400000
v 0.136054 0.400000 -0.136054
v 0.136054 0.340000 -0.136054
v -0.450000 0.400000 0.400000
v -0.414645 0.400000 0.414645
v -0.400000 0.400000 0.450000
v -0.000256 0.400000 -0.247920
v -0.450000 0.340000 0.400000
v -0.000256 0.340000 -0.247920
v -0.400000 0.340000 0.450000
v -0.304910 0.000000 -0.480785
v -0.117317 0.000000 -0.423880
v 0.055570 0.000000 -0.331470
v 0.207107 0.000000 -0.207107
v 0.331470 0.000000 -0.055570
v 0.423880 0.000000 0.117317
v 0.480785 0.000000 0.304910
vn 0.056632 0.980785 0.186690
vn 0.205262 0.707107 0.676659
vn 0.284707 0.195090 0.938553
vn -0.676659 0.707107 -0.205262
vn -0.186690 0.980785 -0.056632
vn -0.938553 0.195090 -0.284707
vn 0.000000 1.000000 0.000000
vn 0.290285 0.000000 0.956940
vn -0.382683 0.000000 0.923880
vn -0.290285 0.000000 0.956941
vn -0.923880 0.000000 0.382684
vn -0.831470 0.000000 0.555570
vn -0.956941 0.000000 -0.290285
vn -0.707107 0.000000 0.707107
vn -0.555570 0.000000 0.831470
vn -0.956940 0.000000 0.290285
vn 0.923880 0.000000 -0.382684
vn 0.831470 0.000000 -0.555570
vn 0.956940 0.000000 -0.290285
vn 0.707107 0.000000 -0.707107
vn 0.555570 0.000000 -0.831470
vn 0.382683 0.000000 -0.923880
vn 0.290285 0.000000 -0.956941
vn 0.682223 0.262949 -0.682224
vn 0.682223 -0.262949 -0.682224
vn 0.536019 0.262949 -0.802210
vn 0.536019 -0.262949 -0.802210
vn 0.891368 0.262949 -0.369217
vn 0.891368 -0.262949 -0.369217
vn 0.802210 0.262949 -0.536020
vn 0.802210 -0.262949 -0.536020
vn 0.369217 0.262949 -0.891368
vn 0.369217 -0.262949 -0.891368
vn 0.946271 0.262949 -0.188225
vn 0.946271 -0.262949 -0.188225
vn 0.188225 0.262949 -0.946271
vn 0.188225 -0.262949 -0.946271
vn 0.094599 0.261770 -0.960483
vn 0.094599 -0.261770 -0.960483
vn 0.960483 0.261770 -0.094600
vn 0.960483 -0.261770 -0.094600
vn 0.331414 -0.500000 -0.800103
vn 0.168953 -0.500000 -0.849385
vn 0.084987 0.498191 -0.862892
vn 0.168953 0.500000 -0.849385
vn 0.862892 0.498191 -0.084988
vn 0.849385 0.500000 -0.168953
vn 0.481138 -0.500000 -0.720074
vn 0.800103 -0.500000 -0.331414
vn 0.720074 -0.500000 -0.481138
vn 0.862892 -0.498191 -0.084988
vn 0.849385 -0.500000 -0.168953
vn 0.612372 -0.500000 -0.612373
vn 0.084987 -0.498191 -0.862892
vn 0.481138 0.500000 -0.720074
vn 0.612372 0.500000 -0.612373
vn 0.331414 0.500000 -0.800103
vn 0.720074 0.500000 -0.481138
vn 0.800103 0.500000 -0.331414
vn -1.000000 0.000000 0.000000
vn 0.000000 0.000000 1.000000
vn 0.980785 0.000000 -0.195091
vn 0.098017 0.000000 -0.995185
vn 0.195090 0.000000 -0.980785
vn 0.995185 0.000000 -0.098017
vn -0.980785 0.000000 0.195091
vn -0.100400 0.000000 0.994947
vn -0.102782 0.000000 0.994704
vn -0.195090 0.000000 0.980785
vn -0.994947 0.000000 0.100401
vn -0.994704 0.000000 0.102783
vn 0.195090 0.000000 -0.980785
vn -0.000000 0.000000 -1.000000
vn 0.707107 0.000000 -0.707107
vn 1.000000 0.000000 -0.000000
vn 0.000000 -1.000000 0.000000
usemtl colormap
f 3/2/2 2/1/1 1/1/1
f 2/1/1 3/2/2 4/2/2
f 4/2/2 6/3/3 5/3/3
f 6/3/3 4/2/2 3/2/2
f 9/1/5 8/2/4 7/2/4
f 8/2/4 9/1/5 10/1/5
f 8/2/4 11/3/6 7/2/4
f 11/3/6 8/2/4 12/3/6
f 13/1/7 10/1/5 9/1/5
f 10/1/5 13/1/7 14/1/7
f 14/1/7 13/1/7 15/1/7
f 14/1/7 15/1/7 16/1/7
f 16/1/7 15/1/7 17/1/7
f 16/1/7 17/1/7 18/1/7
f 18/1/7 17/1/7 19/1/7
f 18/1/7 19/1/7 20/1/7
f 20/1/7 19/1/7 21/1/7
f 20/1/7 21/1/7 22/1/7
f 22/1/7 21/1/7 1/1/1
f 22/1/7 1/1/1 2/1/1
f 5/3/3 24/4/8 23/4/8
f 24/4/8 5/3/3 6/3/3
f 13/1/9 26/4/10 25/4/9
f 26/4/10 13/1/9 11/3/10
f 11/3/10 13/1/9 7/2/10
f 7/2/10 13/1/9 9/1/10
f 19/1/12 27/4/11 21/1/11
f 27/4/11 19/1/12 28/4/12
f 12/3/6 26/4/13 11/3/6
f 26/4/13 12/3/6 29/4/13
f 17/1/14 31/4/15 30/4/14
f 31/4/15 17/1/14 15/1/15
f 15/1/15 25/4/9 31/4/15
f 25/4/9 15/1/15 13/1/9
f 3/2/16 24/4/16 6/3/16
f 24/4/16 3/2/16 27/4/11
f 27/4/11 3/2/16 1/1/16
f 27/4/11 1/1/16 21/1/11
f 17/1/14 28/4/12 19/1/12
f 28/4/12 17/1/14 30/4/14
f 32/4/17 20/1/18 22/1/17
f 20/1/18 32/4/17 33/4/18
f 23/4/19 4/2/19 5/3/19
f 4/2/19 23/4/19 32/4/17
f 4/2/19 32/4/17 2/1/19
f 2/1/19 32/4/17 22/1/17
f 35/4/21 18/1/20 34/4/20
f 18/1/20 35/4/21 16/1/21
f 33/4/18 18/1/20 20/1/18
f 18/1/20 33/4/18 34/4/20
f 29/4/23 14/1/22 36/4/22
f 14/1/22 29/4/23 12/3/23
f 14/1/22 12/3/23 8/2/23
f 14/1/22 8/2/23 10/1/23
f 36/4/22 16/1/21 35/4/21
f 16/1/21 36/4/22 14/1/22
f 39/5/7 38/5/7 37/5/7
f 38/5/7 39/5/7 40/5/7
f 40/5/7 39/5/7 41/5/7
f 40/5/7 42/5/7 38/5/7
f 42/5/7 40/5/7 43/5/7
f 41/5/7 43/5/7 40/5/7
f 44/5/7 43/5/7 41/5/7
f 43/5/7 44/5/7 45/5/7
f 41/5/7 39/5/7 46/5/7
f 46/5/7 39/5/7 47/5/7
f 47/5/7 39/5/7 48/5/7
f 48/5/7 39/5/7 49/5/7
f 49/5/7 39/5/7 50/5/7
f 50/5/7 39/5/7 51/5/7
f 51/5/7 39/5/7 52/5/7
f 51/5/7 52/5/7 53/5/7
f 56/6/26 55/7/25 54/6/24
f 55/7/25 56/6/26 57/7/27
f 60/6/30 59/7/29 58/6/28
f 59/7/29 60/6/30 61/7/31
f 62/6/32 57/7/27 56/6/26
f 57/7/27 62/6/32 63/7/33
f 58/6/28 65/7/35 64/6/34
f 65/7/35 58/6/28 59/7/29
f 66/6/36 63/7/33 62/6/32
f 63/7/33 66/6/36 67/7/37
f 69/7/39 66/6/36 68/6/38
f 66/6/36 69/7/39 67/7/37
f 54/6/24 61/7/31 60/6/30
f 61/7/31 54/6/24 55/7/25
f 64/6/34 71/7/41 70/6/40
f 71/7/41 64/6/34 65/7/35
f 72/8/42 63/7/33 67/7/37
f 73/8/43 72/8/42 67/7/37
f 68/6/38 75/9/45 74/9/44
f 66/6/36 75/9/45 68/6/38
f 77/9/47 70/6/40 76/9/46
f 77/9/47 64/6/34 70/6/40
f 72/8/42 78/8/48 63/7/33
f 78/8/48 57/7/27 63/7/33
f 80/8/50 79/8/49 61/7/31
f 61/7/31 79/8/49 59/7/29
f 65/7/35 81/8/51 71/7/41
f 82/8/52 81/8/51 65/7/35
f 78/8/48 83/8/53 57/7/27
f 83/8/53 55/7/25 57/7/27
f 59/7/29 82/8/52 65/7/35
f 79/8/49 82/8/52 59/7/29
f 84/8/54 67/7/37 69/7/39
f 73/8/43 67/7/37 84/8/54
f 55/7/25 80/8/50 61/7/31
f 83/8/53 80/8/50 55/7/25
f 54/6/24 86/9/56 85/9/55
f 56/6/26 54/6/24 85/9/55
f 62/6/32 87/9/57 75/9/45
f 66/6/36 62/6/32 75/9/45
f 86/9/56 54/6/24 60/6/30
f 86/9/56 60/6/30 88/9/58
f 89/9/59 64/6/34 77/9/47
f 89/9/59 58/6/28 64/6/34
f 88/9/58 60/6/30 58/6/28
f 88/9/58 58/6/28 89/9/59
f 62/6/32 56/6/26 87/9/57
f 56/6/26 85/9/55 87/9/57
f 91/10/60 44/11/60 90/10/60
f 44/11/60 91/10/60 69/12/60
f 69/12/60 91/10/60 84/13/60
f 68/14/60 44/11/60 69/12/60
f 92/15/60 44/11/60 68/14/60
f 92/15/60 68/14/60 74/16/60
f 92/15/60 93/11/60 44/11/60
f 92/15/60 94/11/60 93/11/60
f 92/15/60 95/11/60 94/11/60
f 96/15/60 95/11/60 92/15/60
f 96/15/60 97/10/60 95/11/60
f 97/10/60 96/15/60 98/10/60
f 39/11/61 100/10/61 99/10/61
f 100/10/61 39/11/61 81/13/61
f 101/11/61 81/13/61 39/11/61
f 101/11/61 71/12/61 81/13/61
f 101/11/61 70/14/61 71/12/61
f 101/11/61 76/16/61 70/14/61
f 101/11/61 102/15/61 76/16/61
f 101/11/61 96/15/61 102/15/61
f 96/15/61 101/11/61 98/10/61
f 98/10/61 101/11/61 103/10/61
f 101/11/61 39/11/61 104/11/61
f 104/11/61 39/11/61 105/11/61
f 78/13/21 106/10/20 83/13/20
f 106/10/20 78/13/21 107/10/21
f 72/13/22 107/10/21 78/13/21
f 107/10/21 72/13/22 108/10/22
f 79/13/17 110/10/18 109/10/17
f 110/10/18 79/13/17 80/13/18
f 82/13/62 109/10/17 111/10/62
f 109/10/17 82/13/62 79/13/17
f 91/10/63 73/13/64 84/13/63
f 73/13/64 91/10/63 112/10/64
f 81/13/65 111/10/62 100/10/65
f 111/10/62 81/13/65 82/13/62
f 80/13/18 106/10/20 110/10/18
f 106/10/20 80/13/18 83/13/20
f 73/13/64 108/10/22 72/13/22
f 108/10/22 73/13/64 112/10/64
f 115/10/12 114/11/11 113/10/11
f 114/11/11 115/10/12 116/11/12
f 113/10/11 118/11/66 117/10/66
f 118/11/66 113/10/11 114/11/11
f 120/10/67 44/11/68 119/11/67
f 44/11/68 120/10/67 90/10/68
f 122/10/9 46/11/69 121/11/9
f 46/11/69 122/10/9 123/10/69
f 117/10/66 125/11/70 124/10/70
f 125/11/70 117/10/66 118/11/66
f 126/10/14 116/11/12 115/10/12
f 116/11/12 126/10/14 127/11/14
f 124/10/70 39/11/71 99/10/71
f 39/11/71 124/10/70 125/11/70
f 98/10/7 128/10/7 97/10/7
f 128/10/7 98/10/7 103/10/7
f 128/10/7 103/10/7 129/10/7
f 129/10/7 103/10/7 130/10/7
f 46/11/69 120/10/67 119/11/67
f 120/10/67 46/11/69 123/10/69
f 90/10/7 112/10/7 91/10/7
f 112/10/7 90/10/7 120/10/7
f 112/10/7 120/10/7 123/10/7
f 112/10/7 123/10/7 122/10/7
f 112/10/7 122/10/7 108/10/7
f 108/10/7 122/10/7 131/10/7
f 108/10/7 131/10/7 107/10/7
f 107/10/7 131/10/7 126/10/7
f 107/10/7 126/10/7 106/10/7
f 106/10/7 126/10/7 115/10/7
f 106/10/7 115/10/7 110/10/7
f 110/10/7 115/10/7 113/10/7
f 110/10/7 113/10/7 117/10/7
f 110/10/7 117/10/7 109/10/7
f 109/10/7 117/10/7 124/10/7
f 109/10/7 124/10/7 99/10/7
f 109/10/7 99/10/7 100/10/7
f 109/10/7 100/10/7 111/10/7
f 95/11/73 128/10/72 132/11/72
f 128/10/72 95/11/73 97/10/73
f 126/10/14 133/11/15 127/11/14
f 133/11/15 126/10/14 131/10/15
f 131/10/15 121/11/9 133/11/15
f 121/11/9 131/10/15 122/10/9
f 134/11/62 129/10/74 130/10/62
f 129/10/74 134/11/62 42/11/74
f 101/11/75 130/10/62 103/10/75
f 130/10/62 101/11/75 134/11/62
f 132/11/72 129/10/74 42/11/74
f 129/10/74 132/11/72 128/10/72
f 135/15/76 96/15/76 92/15/76
f 96/15/76 135/15/76 102/15/76
f 102/15/76 135/15/76 136/15/76
f 102/15/76 136/15/76 137/15/76
f 102/15/76 137/15/76 138/15/76
f 102/15/76 138/15/76 139/15/76
f 102/15/76 139/15/76 140/15/76
f 102/15/76 140/15/76 141/15/76
f 140/15/17 88/16/18 89/16/17
f 88/16/18 140/15/17 139/15/18
f 137/15/21 86/16/20 138/15/20
f 86/16/20 137/15/21 85/16/21
f 135/15/64 87/16/22 136/15/22
f 87/16/22 135/15/64 75/16/64
f 136/15/22 85/16/21 137/15/21
f 85/16/21 136/15/22 87/16/22
f 139/15/18 86/16/20 88/16/18
f 86/16/20 139/15/18 138/15/20
f 141/15/62 89/16/17 77/16/62
f 89/16/17 141/15/62 140/15/17
f 74/16/63 135/15/64 92/15/63
f 135/15/64 74/16/63 75/16/64
f 102/15/65 77/16/62 76/16/65
f 77/16/62 102/15/65 141/15/62
f 3/2/2 2/1/1 1/1/1
f 2/1/1 3/2/2 4/2/2
f 4/2/2 6/3/3 5/3/3
f 6/3/3 4/2/2 3/2/2
f 9/1/5 8/2/4 7/2/4
f 8/2/4 9/1/5 10/1/5
f 8/2/4 11/3/6 7/2/4
f 11/3/6 8/2/4 12/3/6
f 13/1/7 10/1/5 9/1/5
f 10/1/5 13/1/7 14/1/7
f 14/1/7 13/1/7 15/1/7
f 14/1/7 15/1/7 16/1/7
f 16/1/7 15/1/7 17/1/7
f 16/1/7 17/1/7 18/1/7
f 18/1/7 17/1/7 19/1/7
f 18/1/7 19/1/7 20/1/7
f 20/1/7 19/1/7 21/1/7
f 20/1/7 21/1/7 22/1/7
f 22/1/7 21/1/7 1/1/1
f 22/1/7 1/1/1 2/1/1
f 5/3/3 24/4/8 23/4/8
f 24/4/8 5/3/3 6/3/3
f 13/1/9 26/4/10 25/4/9
f 26/4/10 13/1/9 11/3/10
f 11/3/10 13/1/9 7/2/10
f 7/2/10 13/1/9 9/1/10
f 19/1/12 27/4/11 21/1/11
f 27/4/11 19/1/12 28/4/12
f 12/3/6 26/4/13 11/3/6
f 26/4/13 12/3/6 29/4/13
f 17/1/14 31/4/15 30/4/14
f 31/4/15 17/1/14 15/1/15
f 15/1/15 25/4/9 31/4/15
f 25/4/9 15/1/15 13/1/9
f 3/2/16 24/4/16 6/3/16
f 24/4/16 3/2/16 27/4/11
f 27/4/11 3/2/16 1/1/16
f 27/4/11 1/1/16 21/1/11
f 17/1/14 28/4/12 19/1/12
f 28/4/12 17/1/14 30/4/14
f 32/4/17 20/1/18 22/1/17
f 20/1/18 32/4/17 33/4/18
f 23/4/19 4/2/19 5/3/19
f 4/2/19 23/4/19 32/4/17
f 4/2/19 32/4/17 2/1/19
f 2/1/19 32/4/17 22/1/17
f 35/4/21 18/1/20 34/4/20
f 18/1/20 35/4/21 16/1/21
f 33/4/18 18/1/20 20/1/18
f 18/1/20 33/4/18 34/4/20
f 29/4/23 14/1/22 36/4/22
f 14/1/22 29/4/23 12/3/23
f 14/1/22 12/3/23 8/2/23
f 14/1/22 8/2/23 10/1/23
f 36/4/22 16/1/21 35/4/21
f 16/1/21 36/4/22 14/1/22
f 39/5/7 38/5/7 37/5/7
f 38/5/7 39/5/7 40/5/7
f 40/5/7 39/5/7 41/5/7
f 40/5/7 42/5/7 38/5/7
f 42/5/7 40/5/7 43/5/7
f 41/5/7 43/5/7 40/5/7
f 44/5/7 43/5/7 41/5/7
f 43/5/7 44/5/7 45/5/7
f 41/5/7 39/5/7 46/5/7
f 46/5/7 39/5/7 47/5/7
f 47/5/7 39/5/7 48/5/7
f 48/5/7 39/5/7 49/5/7
f 49/5/7 39/5/7 50/5/7
f 50/5/7 39/5/7 51/5/7
f 51/5/7 39/5/7 52/5/7
f 51/5/7 52/5/7 53/5/7
f 56/6/26 55/7/25 54/6/24
f 55/7/25 56/6/26 57/7/27
f 60/6/30 59/7/29 58/6/28
f 59/7/29 60/6/30 61/7/31
f 62/6/32 57/7/27 56/6/26
f 57/7/27 62/6/32 63/7/33
f 58/6/28 65/7/35 64/6/34
f 65/7/35 58/6/28 59/7/29
f 66/6/36 63/7/33 62/6/32
f 63/7/33 66/6/36 67/7/37
f 69/7/39 66/6/36 68/6/38
f 66/6/36 69/7/39 67/7/37
f 54/6/24 61/7/31 60/6/30
f 61/7/31 54/6/24 55/7/25
f 64/6/34 71/7/41 70/6/40
f 71/7/41 64/6/34 65/7/35
f 72/8/42 63/7/33 67/7/37
f 73/8/43 72/8/42 67/7/37
f 68/6/38 75/9/45 74/9/44
f 66/6/36 75/9/45 68/6/38
f 77/9/47 70/6/40 76/9/46
f 77/9/47 64/6/34 70/6/40
f 72/8/42 78/8/48 63/7/33
f 78/8/48 57/7/27 63/7/33
f 80/8/50 79/8/49 61/7/31
f 61/7/31 79/8/49 59/7/29
f 65/7/35 81/8/51 71/7/41
f 82/8/52 81/8/51 65/7/35
f 78/8/48 83/8/53 57/7/27
f 83/8/53 55/7/25 57/7/27
f 59/7/29 82/8/52 65/7/35
f 79/8/49 82/8/52 59/7/29
f 84/8/54 67/7/37 69/7/39
f 73/8/43 67/7/37 84/8/54
f 55/7/25 80/8/50 61/7/31
f 83/8/53 80/8/50 55/7/25
f 54/6/24 86/9/56 85/9/55
f 56/6/26 54/6/24 85/9/55
f 62/6/32 87/9/57 75/9/45
f 66/6/36 62/6/32 75/9/45
f 86/9/56 54/6/24 60/6/30
f 86/9/56 60/6/30 88/9/58
f 89/9/59 64/6/34 77/9/47
f 89/9/59 58/6/28 64/6/34
f 88/9/58 60/6/30 58/6/28
f 88/9/58 58/6/28 89/9/59
f 62/6/32 56/6/26 87/9/57
f 56/6/26 85/9/55 87/9/57
f 91/10/60 44/11/60 90/10/60
f 44/11/60 91/10/60 69/12/60
f 69/12/60 91/10/60 84/13/60
f 68/14/60 44/11/60 69/12/60
f 92/15/60 44/11/60 68/14/60
f 92/15/60 68/14/60 74/16/60
f 92/15/60 93/11/60 44/11/60
f 92/15/60 94/11/60 93/11/60
f 92/15/60 95/11/60 94/11/60
f 96/15/60 95/11/60 92/15/60
f 96/15/60 97/10/60 95/11/60
f 97/10/60 96/15/60 98/10/60
f 39/11/61 100/10/61 99/10/61
f 100/10/61 39/11/61 81/13/61
f 101/11/61 81/13/61 39/11/61
f 101/11/61 71/12/61 81/13/61
f 101/11/61 70/14/61 71/12/61
f 101/11/61 76/16/61 70/14/61
f 101/11/61 102/15/61 76/16/61
f 101/11/61 96/15/61 102/15/61
f 96/15/61 101/11/61 98/10/61
f 98/10/61 101/11/61 103/10/61
f 101/11/61 39/11/61 104/11/61
f 104/11/61 39/11/61 105/11/61
f 78/13/21 106/10/20 83/13/20
f 106/10/20 78/13/21 107/10/21
f 72/13/22 107/10/21 78/13/21
f 107/10/21 72/13/22 108/10/22
f 79/13/17 110/10/18 109/10/17
f 110/10/18 79/13/17 80/13/18
f 82/13/62 109/10/17 111/10/62
f 109/10/17 82/13/62 79/13/17
f 91/10/63 73/13/64 84/13/63
f 73/13/64 91/10/63 112/10/64
f 81/13/65 111/10/62 100/10/65
f 111/10/62 81/13/65 82/13/62
f 80/13/18 106/10/20 110/10/18
f 106/10/20 80/13/18 83/13/20
f 73/13/64 108/10/22 72/13/22
f 108/10/22 73/13/64 112/10/64
f 115/10/12 114/11/11 113/10/11
f 114/11/11 115/10/12 116/11/12
f 113/10/11 118/11/66 117/10/66
f 118/11/66 113/10/11 114/11/11
f 120/10/67 44/11/68 119/11/67
f 44/11/68 120/10/67 90/10/68
f 122/10/9 46/11/69 121/11/9
f 46/11/69 122/10/9 123/10/69
f 117/10/66 125/11/70 124/10/70
f 125/11/70 117/10/66 118/11/66
f 126/10/14 116/11/12 115/10/12
f 116/11/12 126/10/14 127/11/14
f 124/10/70 39/11/71 99/10/71
f 39/11/71 124/10/70 125/11/70
f 98/10/7 128/10/7 97/10/7
f 128/10/7 98/10/7 103/10/7
f 128/10/7 103/10/7 129/10/7
f 129/10/7 103/10/7 130/10/7
f 46/11/69 120/10/67 119/11/67
f 120/10/67 46/11/69 123/10/69
f 90/10/7 112/10/7 91/10/7
f 112/10/7 90/10/7 120/10/7
f 112/10/7 120/10/7 123/10/7
f 112/10/7 123/10/7 122/10/7
f 112/10/7 122/10/7 108/10/7
f 108/10/7 122/10/7 131/10/7
f 108/10/7 131/10/7 107/10/7
f 107/10/7 131/10/7 126/10/7
f 107/10/7 126/10/7 106/10/7
f 106/10/7 126/10/7 115/10/7
f 106/10/7 115/10/7 110/10/7
f 110/10/7 115/10/7 113/10/7
f 110/10/7 113/10/7 117/10/7
f 110/10/7 117/10/7 109/10/7
f 109/10/7 117/10/7 124/10/7
f 109/10/7 124/10/7 99/10/7
f 109/10/7 99/10/7 100/10/7
f 109/10/7 100/10/7 111/10/7
f 95/11/73 128/10/72 132/11/72
f 128/10/72 95/11/73 97/10/73
f 126/10/14 133/11/15 127/11/14
f 133/11/15 126/10/14 131/10/15
f 131/10/15 121/11/9 133/11/15
f 121/11/9 131/10/15 122/10/9
f 134/11/62 129/10/74 130/10/62
f 129/10/74 134/11/62 42/11/74
f 101/11/75 130/10/62 103/10/75
f 130/10/62 101/11/75 134/11/62
f 132/11/72 129/10/74 42/11/74
f 129/10/74 132/11/72 128/10/72
f 135/15/76 96/15/76 92/15/76
f 96/15/76 135/15/76 102/15/76
f 102/15/76 135/15/76 136/15/76
f 102/15/76 136/15/76 137/15/76
f 102/15/76 137/15/76 138/15/76
f 102/15/76 138/15/76 139/15/76
f 102/15/76 139/15/76 140/15/76
f 102/15/76 140/15/76 141/15/76
f 140/15/17 88/16/18 89/16/17
f 88/16/18 140/15/17 139/15/18
f 137/15/21 86/16/20 138/15/20
f 86/16/20 137/15/21 85/16/21
f 135/15/64 87/16/22 136/15/22
f 87/16/22 135/15/64 75/16/64
f 136/15/22 85/16/21 137/15/21
f 85/16/21 136/15/22 87/16/22
f 139/15/18 86/16/20 88/16/18
f 86/16/20 139/15/18 138/15/20
f 141/15/62 89/16/17 77/16/62
f 89/16/17 141/15/62 140/15/17
f 74/16/63 135/15/64 92/15/63
f 135/15/64 74/16/63 75/16/64
f 102/15/65 77/16/62 76/16/65
f 77/16/62 102/15/65 141/15/62
