mtllib conveyor-cross.mtl
v 0.400000 0.400000 -0.400000
v 0.400000 0.400000 0.400000
v -0.400000 0.400000 -0.400000
v -0.400000 0.400000 0.400000
v -0.500000 0.100000 0.500000
v -0.500000 0.100000 -0.500000
v -0.500000 0.300000 0.500000
v -0.500000 0.300000 -0.500000
v -0.470711 0.029289 0.470711
v -0.470711 0.029289 -0.470711
v 0.500000 0.100000 0.500000
v 0.470711 0.029289 0.470711
v 0.470711 0.029289 -0.470711
v 0.400000 0.000000 -0.400000
v -0.400000 0.000000 -0.400000
v -0.470711 0.370711 -0.470711
v -0.470711 0.370711 0.470711
v 0.400000 0.000000 0.400000
v -0.400000 0.000000 0.400000
v 0.500000 0.300000 -0.500000
v 0.470711 0.370711 -0.470711
v 0.500000 0.300000 0.500000
v 0.470711 0.370711 0.470711
v 0.500000 0.100000 -0.500000
vn 0.148147 0.977806 -0.148147
vn 0.148147 0.977806 0.148147
vn -0.148147 0.977806 -0.148147
vn -0.148147 0.977806 0.148147
vn -0.687110 -0.236131 0.687111
vn -0.687111 -0.236131 -0.687110
vn -0.687110 0.236131 0.687111
vn -0.687111 0.236131 -0.687110
vn -0.497492 -0.710635 0.497492
vn -0.497492 -0.710635 -0.497492
vn 0.687111 -0.236131 0.687110
vn 0.497492 -0.710635 0.497492
vn 0.497492 -0.710635 -0.497492
vn 0.148147 -0.977806 -0.148147
vn -0.148147 -0.977806 -0.148147
vn -0.497492 0.710635 -0.497492
vn -0.497492 0.710635 0.497492
vn 0.148147 -0.977806 0.148147
vn -0.148147 -0.977806 0.148147
vn 0.687110 0.236131 -0.687111
vn 0.497492 0.710635 -0.497492
vn 0.687111 0.236131 0.687110
vn 0.497492 0.710635 0.497492
vn 0.687110 -0.236131 -0.687111
usemtl colormap
f 3/1/3 2/1/2 1/1/1
f 2/1/2 3/1/3 4/1/4
f 7/3/7 6/2/6 5/2/5
f 6/2/6 7/3/7 8/3/8
f 5/2/5 10/4/10 9/4/9
f 10/4/10 5/2/5 6/2/6
f 9/4/9 11/2/11 5/2/5
f 11/2/11 9/4/9 12/4/12
f 14/5/14 10/4/10 13/4/13
f 10/4/10 14/5/14 15/5/15
f 17/6/17 3/1/3 16/6/16
f 3/1/3 17/6/17 4/1/4
f 12/4/12 19/5/19 18/5/18
f 19/5/19 12/4/12 9/4/9
f 16/6/16 20/3/20 8/3/8
f 20/3/20 16/6/16 21/6/21
f 16/6/16 1/1/1 21/6/21
f 1/1/1 16/6/16 3/1/3
f 12/4/12 14/5/14 13/4/13
f 14/5/14 12/4/12 18/5/18
f 21/6/21 22/3/22 20/3/20
f 22/3/22 21/6/21 23/6/23
f 8/3/8 24/2/24 6/2/6
f 24/2/24 8/3/8 20/3/20
f 24/2/24 12/4/12 13/4/13
f 12/4/12 24/2/24 11/2/11
f 22/3/22 17/6/17 7/3/7
f 17/6/17 22/3/22 23/6/23
f 15/5/15 9/4/9 10/4/10
f 9/4/9 15/5/15 19/5/19
f 24/2/24 10/4/10 6/2/6
f 10/4/10 24/2/24 13/4/13
f 1/1/1 23/6/23 21/6/21
f 23/6/23 1/1/1 2/1/2
f 18/5/18 15/5/15 14/5/14
f 15/5/15 18/5/18 19/5/19
f 4/1/4 23/6/23 2/1/2
f 23/6/23 4/1/4 17/6/17
f 11/2/11 7/3/7 5/2/5
f 7/3/7 11/2/11 22/3/22
f 20/3/20 11/2/11 24/2/24
f 11/2/11 20/3/20 22/3/22
f 17/6/17 8/3/8 7/3/7
f 8/3/8 17/6/17 16/6/16
f 3/1/3 2/1/2 1/1/1
f 2/1/2 3/1/3 4/1/4
f 7/3/7 6/2/6 5/2/5
f 6/2/6 7/3/7 8/3/8
f 5/2/5 10/4/10 9/4/9
f 10/4/10 5/2/5 6/2/6
f 9/4/9 11/2/11 5/2/5
f 11/2/11 9/4/9 12/4/12
f 14/5/14 10/4/10 13/4/13
f 10/4/10 14/5/14 15/5/15
f 17/6/17 3/1/3 16/6/16
f 3/1/3 17/6/17 4/1/4
f 12/4/12 19/5/19 18/5/18
f 19/5/19 12/4/12 9/4/9
f 16/6/16 20/3/20 8/3/8
f 20/3/20 16/6/16 21/6/21
f 16/6/16 1/1/1 21/6/21
f 1/1/1 16/6/16 3/1/3
f 12/4/12 14/5/14 13/4/13
f 14/5/14 12/4/12 18/5/18
f 21/6/21 22/3/22 20/3/20
f 22/3/22 21/6/21 23/6/23
f 8/3/8 24/2/24 6/2/6
f 24/2/24 8/3/8 20/3/20
f 24/2/24 12/4/12 13/4/13
f 12/4/12 24/2/24 11/2/11
f 22/3/22 17/6/17 7/3/7
f 17/6/17 22/3/22 23/6/23
f 15/5/15 9/4/9 10/4/10
f 9/4/9 15/5/15 19/5/19
f 24/2/24 10/4/10 6/2/6
f 10/4/10 24/2/24 13/4/13
f 1/1/1 23/6/23 21/6/21
f 23/6/23 1/1/1 2/1/2
f 18/5/18 15/5/15 14/5/14
f 15/5/15 18/5/18 19/5/19
f 4/1/4 23/6/23 2/1/2
f 23/6/23 4/1/4 17/6/17
f 11/2/11 7/3/7 5/2/5
f 7/3/7 11/2/11 22/3/22
f 20/3/20 11/2/11 24/2/24
f 11/2/11 20/3/20 22/3/22
f 17/6/17 8/3/8 7/3/7
f 8/3/8 17/6/17 16/6/16
