mtllib hopper-round.mtl
v -0.353553 0.500000 -0.353553
v -0.353553 1.000000 -0.353553
v -0.500000 0.500000 0.000000
v -0.500000 1.000000 0.000000
v 0.000000 0.500000 -0.500000
v 0.000000 1.000000 -0.500000
v 0.353553 0.500000 -0.353553
v 0.353553 1.000000 -0.353553
v 0.500000 1.000000 0.000000
v 0.500000 0.500000 0.000000
v 0.353553 1.000000 0.353553
v 0.353553 0.500000 0.353553
v 0.000000 0.500000 0.500000
v 0.000000 1.000000 0.500000
v -0.353553 0.500000 0.353553
v -0.353553 1.000000 0.353553
v -0.176777 0.000000 -0.176777
v -0.250000 0.000000 -0.000000
v 0.000000 0.000000 -0.250000
v 0.000000 0.000000 0.250000
v -0.176777 0.000000 0.176777
v 0.176777 0.000000 -0.176777
v 0.250000 0.000000 -0.000000
v 0.176777 0.000000 0.176777
v 0.000000 0.047692 0.154616
v -0.109330 0.047692 0.109330
v 0.109330 0.047692 -0.109330
v -0.000000 0.047692 -0.154616
v -0.154616 0.047692 0.000000
v -0.109330 0.047692 -0.109330
v 0.154616 0.047692 -0.000000
v 0.109330 0.047692 0.109330
v 0.000000 1.000000 0.391761
v 0.277017 1.000000 0.277017
v -0.277017 1.000000 0.277017
v 0.391761 1.000000 0.000000
v 0.277017 1.000000 -0.277017
v 0.000000 1.000000 -0.391761
v -0.391761 1.000000 0.000000
v -0.277017 1.000000 -0.277017
v -0.277017 0.521981 0.277017
v 0.000000 0.521981 0.391761
v 0.391761 0.521981 0.000000
v 0.277017 0.521981 0.277017
v 0.277017 0.521981 -0.277017
v -0.391761 0.521981 0.000000
v 0.000000 0.521981 -0.391761
v -0.277017 0.521981 -0.277017
v -0.559099 0.537500 0.000000
v -0.559099 0.762500 0.000000
v -0.395342 0.537500 0.395342
v -0.395342 0.762500 0.395342
v 0.000000 0.537500 0.559099
v 0.000000 0.762500 0.559099
v 0.395342 0.537500 0.395342
v 0.395342 0.762500 0.395342
v 0.559099 0.762500 0.000000
v 0.559099 0.537500 0.000000
v 0.395342 0.762500 -0.395342
v 0.395342 0.537500 -0.395342
v 0.000000 0.537500 -0.559099
v 0.000000 0.762500 -0.559099
v -0.395342 0.537500 -0.395342
v -0.395342 0.762500 -0.395342
v -0.500000 0.537500 0.000000
v -0.353553 0.537500 0.353553
v -0.353553 0.537500 -0.353553
v 0.000000 0.537500 0.500000
v 0.000000 0.537500 -0.500000
v 0.353553 0.537500 0.353553
v 0.353553 0.537500 -0.353553
v 0.500000 0.537500 0.000000
v -0.500000 0.762500 0.000000
v -0.353553 0.762500 -0.353553
v -0.353553 0.762500 0.353553
v 0.000000 0.762500 -0.500000
v 0.000000 0.762500 0.500000
v 0.353553 0.762500 -0.353553
v 0.353553 0.762500 0.353553
v 0.500000 0.762500 0.000000
vn -0.690079 -0.218134 -0.690079
vn -0.707107 0.000000 -0.707107
vn -0.975919 -0.218134 0.000000
vn -1.000000 0.000000 0.000000
vn 0.000000 -0.218134 -0.975919
vn 0.000000 0.000000 -1.000000
vn 0.690079 -0.218134 -0.690079
vn 0.707107 0.000000 -0.707107
vn 1.000000 0.000000 0.000000
vn 0.975919 -0.218134 0.000000
vn 0.707107 0.000000 0.707107
vn 0.690079 -0.218134 0.690079
vn 0.000000 -0.218134 0.975919
vn 0.000000 0.000000 1.000000
vn -0.690079 -0.218134 0.690079
vn -0.707107 0.000000 0.707107
vn -0.632455 -0.447214 -0.632455
vn -0.894427 -0.447214 0.000000
vn 0.000000 -0.447214 -0.894427
vn 0.000000 -0.447214 0.894427
vn -0.632455 -0.447214 0.632455
vn 0.632455 -0.447214 -0.632455
vn 0.894427 -0.447214 0.000000
vn 0.632455 -0.447214 0.632455
vn 0.000000 -0.894427 -0.447214
vn 0.316228 -0.894427 -0.316228
vn -0.316228 -0.894427 0.316228
vn 0.000000 -0.894427 0.447214
vn 0.447214 -0.894427 0.000000
vn 0.316228 -0.894427 0.316228
vn -0.447214 -0.894427 0.000000
vn -0.316228 -0.894427 -0.316228
vn 0.000000 1.000000 0.000000
vn 0.690079 0.218134 -0.690079
vn 0.000000 0.218134 -0.975919
vn -0.975919 0.218134 0.000000
vn -0.690079 0.218134 -0.690079
vn -0.690079 0.218134 0.690079
vn 0.975919 0.218134 0.000000
vn 0.894427 0.447214 0.000000
vn 0.632455 0.447214 -0.632455
vn -0.894427 0.447214 0.000000
vn -0.632455 0.447214 -0.632455
vn 0.000000 0.447214 -0.894427
vn 0.000000 0.218134 0.975919
vn 0.690079 0.218134 0.690079
vn 0.632455 0.447214 0.632455
vn 0.000000 0.447214 0.894427
vn -0.632455 0.447214 0.632455
vn 0.000000 -1.000000 0.000000
usemtl colormap
f 3/1/3 2/2/2 1/1/1
f 2/2/2 3/1/3 4/2/4
f 2/2/2 5/1/5 1/1/1
f 5/1/5 2/2/2 6/2/6
f 6/2/6 7/1/7 5/1/5
f 7/1/7 6/2/6 8/2/8
f 9/2/9 7/1/7 8/2/8
f 7/1/7 9/2/9 10/1/10
f 11/2/11 10/1/10 9/2/9
f 10/1/10 11/2/11 12/1/12
f 11/2/11 13/1/13 12/1/12
f 13/1/13 11/2/11 14/2/14
f 14/2/14 15/1/15 13/1/13
f 15/1/15 14/2/14 16/2/16
f 15/1/15 4/2/4 3/1/3
f 4/2/4 15/1/15 16/2/16
f 17/3/17 3/1/3 1/1/1
f 3/1/3 17/3/17 18/3/18
f 1/1/1 19/3/19 17/3/17
f 19/3/19 1/1/1 5/1/5
f 13/1/13 21/3/21 20/3/20
f 21/3/21 13/1/13 15/1/15
f 5/1/5 22/3/22 19/3/19
f 22/3/22 5/1/5 7/1/7
f 21/3/21 3/1/3 18/3/18
f 3/1/3 21/3/21 15/1/15
f 10/1/10 24/3/24 23/3/23
f 24/3/24 10/1/10 12/1/12
f 10/1/10 22/3/22 7/1/7
f 22/3/22 10/1/10 23/3/23
f 12/1/12 20/3/20 24/3/24
f 20/3/20 12/1/12 13/1/13
f 21/3/26 25/4/25 20/3/25
f 25/4/25 21/3/26 26/4/26
f 27/4/27 19/3/28 22/3/27
f 19/3/28 27/4/27 28/4/28
f 21/3/26 29/4/29 26/4/26
f 29/4/29 21/3/26 18/3/29
f 29/4/29 17/3/30 30/4/30
f 17/3/30 29/4/29 18/3/29
f 31/4/31 22/3/27 23/3/31
f 22/3/27 31/4/31 27/4/27
f 24/3/32 31/4/31 23/3/31
f 31/4/31 24/3/32 32/4/32
f 20/3/25 32/4/32 24/3/32
f 32/4/32 20/3/25 25/4/25
f 28/4/28 17/3/30 19/3/28
f 17/3/30 28/4/28 30/4/30
f 14/2/33 34/2/33 33/2/33
f 14/2/33 33/2/33 35/2/33
f 11/2/33 34/2/33 14/2/33
f 14/2/33 35/2/33 16/2/33
f 11/2/33 36/2/33 34/2/33
f 36/2/33 11/2/33 9/2/33
f 8/2/33 36/2/33 9/2/33
f 36/2/33 8/2/33 37/2/33
f 37/2/33 8/2/33 6/2/33
f 37/2/33 6/2/33 38/2/33
f 16/2/33 35/2/33 39/2/33
f 16/2/33 39/2/33 4/2/33
f 38/2/33 6/2/33 2/2/33
f 39/2/33 2/2/33 4/2/33
f 38/2/33 2/2/33 40/2/33
f 40/2/33 2/2/33 39/2/33
f 35/6/8 42/5/35 41/5/34
f 42/5/35 35/6/8 33/6/6
f 44/5/37 36/6/4 43/5/36
f 36/6/4 44/5/37 34/6/2
f 43/5/36 37/6/16 45/5/38
f 37/6/16 43/5/36 36/6/4
f 41/5/34 29/7/40 46/5/39
f 29/7/40 41/5/34 26/7/41
f 32/7/43 43/5/36 31/7/42
f 43/5/36 32/7/43 44/5/37
f 25/7/44 44/5/37 32/7/43
f 44/5/37 25/7/44 42/5/35
f 41/5/34 25/7/44 26/7/41
f 25/7/44 41/5/34 42/5/35
f 38/6/14 48/5/46 47/5/45
f 48/5/46 38/6/14 40/6/11
f 46/5/39 30/7/47 48/5/46
f 30/7/47 46/5/39 29/7/40
f 27/7/49 47/5/45 28/7/48
f 47/5/45 27/7/49 45/5/38
f 35/6/8 46/5/39 39/6/9
f 46/5/39 35/6/8 41/5/34
f 47/5/45 30/7/47 28/7/48
f 30/7/47 47/5/45 48/5/46
f 27/7/49 43/5/36 45/5/38
f 43/5/36 27/7/49 31/7/42
f 39/6/9 48/5/46 40/6/11
f 48/5/46 39/6/9 46/5/39
f 33/6/6 44/5/37 42/5/35
f 44/5/37 33/6/6 34/6/2
f 45/5/38 38/6/14 47/5/45
f 38/6/14 45/5/38 37/6/16
f 51/8/16 50/9/4 49/8/4
f 50/9/4 51/8/16 52/9/16
f 54/9/14 51/8/16 53/8/14
f 51/8/16 54/9/14 52/9/16
f 56/9/11 53/8/14 55/8/11
f 53/8/14 56/9/11 54/9/14
f 56/9/11 58/8/9 57/9/9
f 58/8/9 56/9/11 55/8/11
f 57/9/9 60/8/8 59/9/8
f 60/8/8 57/9/9 58/8/9
f 62/9/6 60/8/8 61/8/6
f 60/8/8 62/9/6 59/9/8
f 64/9/2 61/8/6 63/8/2
f 61/8/6 64/9/2 62/9/6
f 49/8/4 64/9/2 63/8/2
f 64/9/2 49/8/4 50/9/4
f 65/8/50 51/8/50 49/8/50
f 63/8/50 65/8/50 49/8/50
f 66/8/50 51/8/50 65/8/50
f 63/8/50 67/8/50 65/8/50
f 68/8/50 51/8/50 66/8/50
f 63/8/50 69/8/50 67/8/50
f 68/8/50 53/8/50 51/8/50
f 61/8/50 69/8/50 63/8/50
f 70/8/50 53/8/50 68/8/50
f 61/8/50 71/8/50 69/8/50
f 70/8/50 55/8/50 53/8/50
f 60/8/50 71/8/50 61/8/50
f 72/8/50 55/8/50 70/8/50
f 60/8/50 72/8/50 71/8/50
f 55/8/50 72/8/50 58/8/50
f 72/8/50 60/8/50 58/8/50
f 73/9/33 64/9/33 50/9/33
f 52/9/33 73/9/33 50/9/33
f 74/9/33 64/9/33 73/9/33
f 52/9/33 75/9/33 73/9/33
f 76/9/33 64/9/33 74/9/33
f 52/9/33 77/9/33 75/9/33
f 76/9/33 62/9/33 64/9/33
f 54/9/33 77/9/33 52/9/33
f 78/9/33 62/9/33 76/9/33
f 54/9/33 79/9/33 77/9/33
f 78/9/33 59/9/33 62/9/33
f 56/9/33 79/9/33 54/9/33
f 80/9/33 59/9/33 78/9/33
f 56/9/33 80/9/33 79/9/33
f 59/9/33 80/9/33 57/9/33
f 80/9/33 56/9/33 57/9/33
f 3/1/3 2/2/2 1/1/1
f 2/2/2 3/1/3 4/2/4
f 2/2/2 5/1/5 1/1/1
f 5/1/5 2/2/2 6/2/6
f 6/2/6 7/1/7 5/1/5
f 7/1/7 6/2/6 8/2/8
f 9/2/9 7/1/7 8/2/8
f 7/1/7 9/2/9 10/1/10
f 11/2/11 10/1/10 9/2/9
f 10/1/10 11/2/11 12/1/12
f 11/2/11 13/1/13 12/1/12
f 13/1/13 11/2/11 14/2/14
f 14/2/14 15/1/15 13/1/13
f 15/1/15 14/2/14 16/2/16
f 15/1/15 4/2/4 3/1/3
f 4/2/4 15/1/15 16/2/16
f 17/3/17 3/1/3 1/1/1
f 3/1/3 17/3/17 18/3/18
f 1/1/1 19/3/19 17/3/17
f 19/3/19 1/1/1 5/1/5
f 13/1/13 21/3/21 20/3/20
f 21/3/21 13/1/13 15/1/15
f 5/1/5 22/3/22 19/3/19
f 22/3/22 5/1/5 7/1/7
f 21/3/21 3/1/3 18/3/18
f 3/1/3 21/3/21 15/1/15
f 10/1/10 24/3/24 23/3/23
f 24/3/24 10/1/10 12/1/12
f 10/1/10 22/3/22 7/1/7
f 22/3/22 10/1/10 23/3/23
f 12/1/12 20/3/20 24/3/24
f 20/3/20 12/1/12 13/1/13
f 21/3/26 25/4/25 20/3/25
f 25/4/25 21/3/26 26/4/26
f 27/4/27 19/3/28 22/3/27
f 19/3/28 27/4/27 28/4/28
f 21/3/26 29/4/29 26/4/26
f 29/4/29 21/3/26 18/3/29
f 29/4/29 17/3/30 30/4/30
f 17/3/30 29/4/29 18/3/29
f 31/4/31 22/3/27 23/3/31
f 22/3/27 31/4/31 27/4/27
f 24/3/32 31/4/31 23/3/31
f 31/4/31 24/3/32 32/4/32
f 20/3/25 32/4/32 24/3/32
f 32/4/32 20/3/25 25/4/25
f 28/4/28 17/3/30 19/3/28
f 17/3/30 28/4/28 30/4/30
f 14/2/33 34/2/33 33/2/33
f 14/2/33 33/2/33 35/2/33
f 11/2/33 34/2/33 14/2/33
f 14/2/33 35/2/33 16/2/33
f 11/2/33 36/2/33 34/2/33
f 36/2/33 11/2/33 9/2/33
f 8/2/33 36/2/33 9/2/33
f 36/2/33 8/2/33 37/2/33
f 37/2/33 8/2/33 6/2/33
f 37/2/33 6/2/33 38/2/33
f 16/2/33 35/2/33 39/2/33
f 16/2/33 39/2/33 4/2/33
f 38/2/33 6/2/33 2/2/33
f 39/2/33 2/2/33 4/2/33
f 38/2/33 2/2/33 40/2/33
f 40/2/33 2/2/33 39/2/33
f 35/6/8 42/5/35 41/5/34
f 42/5/35 35/6/8 33/6/6
f 44/5/37 36/6/4 43/5/36
f 36/6/4 44/5/37 34/6/2
f 43/5/36 37/6/16 45/5/38
f 37/6/16 43/5/36 36/6/4
f 41/5/34 29/7/40 46/5/39
f 29/7/40 41/5/34 26/7/41
f 32/7/43 43/5/36 31/7/42
f 43/5/36 32/7/43 44/5/37
f 25/7/44 44/5/37 32/7/43
f 44/5/37 25/7/44 42/5/35
f 41/5/34 25/7/44 26/7/41
f 25/7/44 41/5/34 42/5/35
f 38/6/14 48/5/46 47/5/45
f 48/5/46 38/6/14 40/6/11
f 46/5/39 30/7/47 48/5/46
f 30/7/47 46/5/39 29/7/40
f 27/7/49 47/5/45 28/7/48
f 47/5/45 27/7/49 45/5/38
f 35/6/8 46/5/39 39/6/9
f 46/5/39 35/6/8 41/5/34
f 47/5/45 30/7/47 28/7/48
f 30/7/47 47/5/45 48/5/46
f 27/7/49 43/5/36 45/5/38
f 43/5/36 27/7/49 31/7/42
f 39/6/9 48/5/46 40/6/11
f 48/5/46 39/6/9 46/5/39
f 33/6/6 44/5/37 42/5/35
f 44/5/37 33/6/6 34/6/2
f 45/5/38 38/6/14 47/5/45
f 38/6/14 45/5/38 37/6/16
f 51/8/16 50/9/4 49/8/4
f 50/9/4 51/8/16 52/9/16
f 54/9/14 51/8/16 53/8/14
f 51/8/16 54/9/14 52/9/16
f 56/9/11 53/8/14 55/8/11
f 53/8/14 56/9/11 54/9/14
f 56/9/11 58/8/9 57/9/9
f 58/8/9 56/9/11 55/8/11
f 57/9/9 60/8/8 59/9/8
f 60/8/8 57/9/9 58/8/9
f 62/9/6 60/8/8 61/8/6
f 60/8/8 62/9/6 59/9/8
f 64/9/2 61/8/6 63/8/2
f 61/8/6 64/9/2 62/9/6
f 49/8/4 64/9/2 63/8/2
f 64/9/2 49/8/4 50/9/4
f 65/8/50 51/8/50 49/8/50
f 63/8/50 65/8/50 49/8/50
f 66/8/50 51/8/50 65/8/50
f 63/8/50 67/8/50 65/8/50
f 68/8/50 51/8/50 66/8/50
f 63/8/50 69/8/50 67/8/50
f 68/8/50 53/8/50 51/8/50
f 61/8/50 69/8/50 63/8/50
f 70/8/50 53/8/50 68/8/50
f 61/8/50 71/8/50 69/8/50
f 70/8/50 55/8/50 53/8/50
f 60/8/50 71/8/50 61/8/50
f 72/8/50 55/8/50 70/8/50
f 60/8/50 72/8/50 71/8/50
f 55/8/50 72/8/50 58/8/50
f 72/8/50 60/8/50 58/8/50
f 73/9/33 64/9/33 50/9/33
f 52/9/33 73/9/33 50/9/33
f 74/9/33 64/9/33 73/9/33
f 52/9/33 75/9/33 73/9/33
f 76/9/33 64/9/33 74/9/33
f 52/9/33 77/9/33 75/9/33
f 76/9/33 62/9/33 64/9/33
f 54/9/33 77/9/33 52/9/33
f 78/9/33 62/9/33 76/9/33
f 54/9/33 79/9/33 77/9/33
f 78/9/33 59/9/33 62/9/33
f 56/9/33 79/9/33 54/9/33
f 80/9/33 59/9/33 78/9/33
f 56/9/33 80/9/33 79/9/33
f 59/9/33 80/9/33 57/9/33
f 80/9/33 56/9/33 57/9/33
