mtllib dumpster-city.mtl
v 0.060000 0.068035 0.185000
v 0.060000 0.108035 0.185000
v 0.060000 0.068035 0.165000
v 0.060000 0.108035 0.165000
v 0.050000 0.058035 0.185000
v 0.050000 0.058035 0.165000
v 0.050000 0.118035 0.185000
v 0.050000 0.118035 0.165000
v -0.070000 0.108035 0.185000
v -0.070000 0.068035 0.185000
v -0.070000 0.108035 0.165000
v -0.070000 0.068035 0.165000
v -0.060000 0.058035 0.185000
v -0.060000 0.058035 0.165000
v -0.060000 0.118035 0.185000
v -0.060000 0.118035 0.165000
v 0.050000 0.118035 -0.185000
v 0.050000 0.118035 -0.165000
v -0.060000 0.118035 -0.185000
v -0.060000 0.118035 -0.165000
v -0.070000 0.068035 -0.185000
v -0.070000 0.108035 -0.185000
v -0.070000 0.068035 -0.165000
v -0.070000 0.108035 -0.165000
v -0.060000 0.058035 -0.165000
v -0.060000 0.058035 -0.185000
v 0.050000 0.058035 -0.165000
v 0.050000 0.058035 -0.185000
v 0.060000 0.108035 -0.185000
v 0.060000 0.068035 -0.185000
v 0.060000 0.108035 -0.165000
v 0.060000 0.068035 -0.165000
v 0.080000 0.000000 0.165000
v -0.090000 0.000000 0.165000
v 0.080000 0.174130 0.165000
v -0.090000 0.140870 0.165000
v -0.090000 0.000000 -0.165000
v 0.080000 0.000000 -0.165000
v -0.090000 0.140870 -0.165000
v 0.080000 0.174130 -0.165000
v -0.120000 0.000000 -0.135000
v -0.120000 0.135000 -0.135000
v 0.110000 0.000000 0.135000
v 0.110000 0.180000 0.135000
v 0.110000 0.000000 -0.135000
v 0.110000 0.180000 -0.135000
v -0.120000 0.000000 0.135000
v -0.120000 0.135000 0.135000
v 0.078827 0.173901 -0.121668
v 0.067259 0.171638 -0.133236
v 0.078827 0.173901 0.121668
v 0.067259 0.171638 0.133236
v -0.077259 0.143362 -0.133236
v -0.077259 0.143362 0.133236
v -0.088827 0.141099 -0.121668
v -0.088827 0.141099 0.121668
v 0.078827 0.073901 -0.121668
v 0.078827 0.073901 0.121668
v 0.067259 0.071638 -0.133236
v 0.067259 0.071638 0.133236
v -0.077259 0.043362 -0.133236
v -0.077259 0.043362 0.133236
v -0.088827 0.041099 -0.121668
v -0.088827 0.041099 0.121668
v 0.145000 0.184442 -0.120000
v 0.132500 0.162791 -0.120000
v 0.145000 0.184442 -0.090000
v 0.132500 0.162791 -0.090000
v 0.095000 0.184442 -0.120000
v 0.107500 0.206092 -0.120000
v 0.095000 0.184442 -0.090000
v 0.107500 0.206092 -0.090000
v 0.132500 0.206092 -0.120000
v 0.132500 0.206092 -0.090000
v 0.107500 0.162791 -0.090000
v 0.107500 0.162791 -0.120000
v 0.107500 0.162791 0.090000
v 0.095000 0.184442 0.090000
v 0.107500 0.162791 0.120000
v 0.095000 0.184442 0.120000
v 0.132500 0.162791 0.090000
v 0.145000 0.184442 0.090000
v 0.107500 0.206092 0.090000
v 0.132500 0.206092 0.090000
v 0.145000 0.184442 0.120000
v 0.132500 0.162791 0.120000
v 0.132500 0.206092 0.120000
v 0.107500 0.206092 0.120000
v -0.130000 0.030000 0.105000
v -0.130000 0.030000 -0.105000
v -0.130000 0.040000 0.115000
v -0.130000 0.040000 -0.115000
v -0.130000 0.080000 0.115000
v -0.130000 0.080000 -0.115000
v -0.130000 0.090000 0.105000
v -0.130000 0.090000 -0.105000
v -0.120000 0.080000 -0.115000
v -0.120000 0.040000 -0.115000
v -0.120000 0.090000 -0.105000
v -0.120000 0.030000 -0.105000
v -0.120000 0.090000 0.105000
v -0.120000 0.080000 0.115000
v -0.120000 0.040000 0.115000
v -0.120000 0.030000 0.105000
v 0.080000 0.174130 -0.165000
v 0.110000 0.180000 -0.135000
v 0.074240 0.203572 -0.165000
v 0.104240 0.209442 -0.135000
v 0.104240 0.209442 -0.010000
v 0.110000 0.180000 -0.000000
v 0.106160 0.199628 -0.000000
v -0.120000 0.135000 -0.135000
v -0.090000 0.140870 -0.165000
v -0.121920 0.144814 -0.135000
v -0.091920 0.150683 -0.165000
v -0.100147 0.159263 -0.000000
v -0.106133 0.168282 -0.010000
v -0.120000 0.135000 -0.010000
v -0.121920 0.144814 -0.010000
v -0.110186 0.136920 -0.000000
v -0.111311 0.142669 -0.000000
v -0.067738 0.175794 -0.165000
v -0.106133 0.168282 -0.126606
v 0.104240 0.209442 0.135000
v 0.110000 0.180000 0.135000
v 0.104240 0.209442 0.010000
v 0.110000 0.180000 0.000000
v 0.106160 0.199628 0.000000
v -0.120000 0.135000 0.010000
v -0.121920 0.144814 0.010000
v -0.110186 0.136920 0.000000
v -0.111311 0.142669 0.000000
v -0.120000 0.135000 0.135000
v -0.090000 0.140870 0.165000
v -0.121920 0.144814 0.135000
v -0.091920 0.150683 0.165000
v -0.100147 0.159263 0.000000
v -0.106133 0.168282 0.010000
v 0.080000 0.174130 0.165000
v -0.067738 0.175794 0.165000
v 0.074240 0.203572 0.165000
v -0.106133 0.168282 0.126606
vn 0.923879 -0.382683 0.000000
vn 0.923879 0.382683 0.000000
vn 0.382683 -0.923879 0.000000
vn 0.382683 0.923879 0.000000
vn -0.923879 0.382683 -0.000000
vn -0.923879 -0.382683 -0.000000
vn -0.382683 -0.923879 -0.000000
vn -0.382683 0.923879 -0.000000
vn -0.000000 0.000000 1.000000
vn 0.382683 0.923879 0.000000
vn -0.382683 0.923879 0.000000
vn -0.923879 -0.382683 0.000000
vn -0.923879 0.382683 0.000000
vn -0.382683 -0.923879 0.000000
vn 0.382683 -0.923879 0.000000
vn 0.923879 0.382683 0.000000
vn 0.923879 -0.382683 0.000000
vn 0.000000 0.000000 -1.000000
vn 0.382683 0.000000 0.923879
vn -0.382683 0.000000 0.923879
vn 0.423276 0.000000 0.906001
vn -0.342790 0.000000 0.939412
vn -0.382683 0.000000 -0.923879
vn 0.382683 0.000000 -0.923879
vn -0.342790 0.000000 -0.939412
vn 0.423276 0.000000 -0.906001
vn -0.923879 0.000000 -0.382683
vn -0.917096 0.000000 -0.398667
vn 0.923879 0.000000 0.382683
vn 0.930966 0.000000 0.365106
vn 0.923879 0.000000 -0.382683
vn 0.930966 0.000000 -0.365106
vn -0.923879 0.000000 0.382683
vn -0.917096 0.000000 0.398667
vn 0.000000 -1.000000 0.000000
vn -0.192012 0.981393 0.000000
vn -0.423276 0.000000 -0.906001
vn -0.930966 0.000000 -0.365106
vn -0.930966 0.000000 0.365106
vn -0.423276 0.000000 0.906001
vn 0.342790 0.000000 0.939412
vn 0.917096 0.000000 0.398667
vn 0.342790 0.000000 -0.939412
vn 0.917096 0.000000 -0.398667
vn 1.000000 0.000000 0.000000
vn 0.500000 -0.866025 0.000000
vn -1.000000 0.000000 0.000000
vn -0.500000 0.866025 0.000000
vn 0.500000 0.866025 0.000000
vn 0.000000 0.000000 1.000000
vn -0.500000 -0.866025 0.000000
vn -1.000000 0.000000 0.000000
vn -0.000000 0.382683 -0.923880
vn -0.000000 -0.382683 -0.923880
vn -0.000000 0.923879 -0.382684
vn -0.000000 -0.923879 -0.382684
vn 0.000000 0.923879 0.382684
vn 0.000000 0.382683 0.923880
vn 0.000000 -0.382683 0.923880
vn 0.000000 -0.923879 0.382684
vn 0.371301 0.072646 -0.925666
vn 0.904915 0.177049 -0.387017
vn 0.981393 0.192012 0.000000
vn -0.904915 -0.177049 -0.387017
vn -0.687402 -0.134492 -0.713716
vn -0.911922 0.197487 -0.359719
vn -0.701023 0.316363 -0.639126
vn -0.242032 0.364699 0.899119
vn -0.513968 0.774458 0.368852
vn -0.073480 0.375563 0.923879
vn -0.177396 0.906689 0.382684
vn -0.906689 -0.177396 0.382684
vn -0.911055 0.184194 0.368852
vn -0.375563 -0.073480 0.923879
vn -0.429023 0.086738 0.899119
vn 0.192012 -0.981393 0.000000
vn -0.335535 0.929405 -0.153694
vn -0.568967 0.804699 -0.169514
vn 0.904915 0.177049 0.387017
vn -0.906689 -0.177396 -0.382684
vn -0.911055 0.184194 -0.368852
vn -0.375563 -0.073480 -0.923879
vn -0.429023 0.086738 -0.899119
vn -0.904915 -0.177049 0.387017
vn -0.687402 -0.134492 0.713716
vn -0.911922 0.197487 0.359719
vn -0.701023 0.316363 0.639126
vn -0.242032 0.364699 -0.899119
vn -0.513968 0.774458 -0.368852
vn -0.073480 0.375563 -0.923879
vn -0.177396 0.906689 -0.382684
vn 0.371301 0.072646 0.925666
vn -0.335535 0.929405 0.153694
vn -0.568967 0.804699 0.169514
usemtl colormap
f 3/1/1 2/2/2 1/1/1
f 2/2/2 3/1/1 4/2/2
f 6/3/3 1/1/1 5/3/3
f 1/1/1 6/3/3 3/1/1
f 2/2/2 8/4/4 7/4/4
f 8/4/4 2/2/2 4/2/2
f 11/2/5 10/1/6 9/2/5
f 10/1/6 11/2/5 12/1/6
f 12/1/6 13/3/7 10/1/6
f 13/3/7 12/1/6 14/3/7
f 15/4/8 11/2/5 9/2/5
f 11/2/5 15/4/8 16/4/8
f 1/1/9 13/3/9 5/3/9
f 13/3/9 1/1/9 10/1/9
f 10/1/9 1/1/9 2/2/9
f 10/1/9 2/2/9 9/2/9
f 9/2/9 2/2/9 7/4/9
f 9/2/9 7/4/9 15/4/9
f 7/4/4 16/4/8 15/4/8
f 16/4/8 7/4/4 8/4/4
f 14/3/7 5/3/3 13/3/7
f 5/3/3 14/3/7 6/3/3
f 19/4/11 18/4/10 17/4/10
f 18/4/10 19/4/11 20/4/11
f 23/1/12 22/2/13 21/1/12
f 22/2/13 23/1/12 24/2/13
f 23/1/12 26/3/14 25/3/14
f 26/3/14 23/1/12 21/1/12
f 22/2/13 20/4/11 19/4/11
f 20/4/11 22/2/13 24/2/13
f 25/3/14 28/3/15 27/3/15
f 28/3/15 25/3/14 26/3/14
f 31/2/16 30/1/17 29/2/16
f 30/1/17 31/2/16 32/1/17
f 27/3/15 30/1/17 32/1/17
f 30/1/17 27/3/15 28/3/15
f 17/4/10 31/2/16 29/2/16
f 31/2/16 17/4/10 18/4/10
f 21/1/18 28/3/18 26/3/18
f 28/3/18 21/1/18 30/1/18
f 30/1/18 21/1/18 22/2/18
f 30/1/18 22/2/18 29/2/18
f 29/2/18 22/2/18 19/4/18
f 29/2/18 19/4/18 17/4/18
f 35/5/21 34/3/20 33/3/19
f 34/3/20 35/5/21 36/6/22
f 39/6/25 38/3/24 37/3/23
f 38/3/24 39/6/25 40/5/26
f 42/7/28 37/3/23 41/3/27
f 37/3/23 42/7/28 39/6/25
f 44/4/30 33/3/19 43/3/29
f 33/3/19 44/4/30 35/5/21
f 40/5/26 45/3/31 38/3/24
f 45/3/31 40/5/26 46/4/32
f 44/4/30 45/3/31 46/4/32
f 45/3/31 44/4/30 43/3/29
f 47/3/33 42/7/28 41/3/27
f 42/7/28 47/3/33 48/7/34
f 36/6/22 47/3/33 34/3/20
f 47/3/33 36/6/22 48/7/34
f 33/3/35 45/3/35 43/3/35
f 45/3/35 33/3/35 38/3/35
f 38/3/35 33/3/35 34/3/35
f 38/3/35 34/3/35 37/3/35
f 37/3/35 34/3/35 47/3/35
f 37/3/35 47/3/35 41/3/35
f 40/5/36 44/4/36 46/4/36
f 44/4/36 40/5/36 35/5/36
f 35/5/36 40/5/36 49/8/36
f 49/8/36 40/5/36 50/9/36
f 51/8/36 35/5/36 49/8/36
f 52/9/36 35/5/36 51/8/36
f 50/9/36 40/5/36 39/6/36
f 35/5/36 52/9/36 36/6/36
f 50/9/36 39/6/36 53/10/36
f 36/6/36 52/9/36 54/10/36
f 53/10/36 39/6/36 55/11/36
f 55/11/36 39/6/36 56/11/36
f 36/6/36 54/10/36 56/11/36
f 36/6/36 56/11/36 39/6/36
f 36/6/36 39/6/36 42/7/36
f 36/6/36 42/7/36 48/7/36
f 59/13/36 58/12/36 57/12/36
f 58/12/36 59/13/36 60/13/36
f 60/13/36 59/13/36 61/14/36
f 60/13/36 61/14/36 62/14/36
f 62/14/36 61/14/36 63/3/36
f 62/14/36 63/3/36 64/3/36
f 52/15/37 58/12/28 60/13/25
f 58/12/28 52/15/37 51/16/38
f 58/12/28 49/16/39 57/12/34
f 49/16/39 58/12/28 51/16/38
f 57/12/34 50/15/40 59/13/22
f 50/15/40 57/12/34 49/16/39
f 59/13/22 53/17/41 61/14/21
f 53/17/41 59/13/22 50/15/40
f 61/14/21 55/18/42 63/3/30
f 55/18/42 61/14/21 53/17/41
f 54/17/43 60/13/25 62/14/26
f 60/13/25 54/17/43 52/15/37
f 56/18/44 63/3/30 55/18/42
f 63/3/30 56/18/44 64/3/32
f 56/18/44 62/14/26 64/3/32
f 62/14/26 56/18/44 54/17/43
f 67/19/45 66/20/46 65/19/45
f 66/20/46 67/19/45 68/20/46
f 71/19/47 70/21/48 69/19/47
f 70/21/48 71/19/47 72/21/48
f 70/21/48 74/21/49 73/21/49
f 74/21/49 70/21/48 72/21/48
f 68/20/50 71/19/50 75/20/50
f 71/19/50 68/20/50 67/19/50
f 71/19/50 67/19/50 72/21/50
f 72/21/50 67/19/50 74/21/50
f 74/21/49 65/19/45 73/21/49
f 65/19/45 74/21/49 67/19/45
f 69/19/18 66/20/18 76/20/18
f 66/20/18 69/19/18 65/19/18
f 65/19/18 69/19/18 70/21/18
f 65/19/18 70/21/18 73/21/18
f 75/20/51 66/20/46 68/20/46
f 66/20/46 75/20/51 76/20/51
f 75/20/51 69/19/47 76/20/51
f 69/19/47 75/20/51 71/19/47
f 79/20/51 78/19/47 77/20/51
f 78/19/47 79/20/51 80/19/47
f 78/19/18 81/20/18 77/20/18
f 81/20/18 78/19/18 82/19/18
f 82/19/18 78/19/18 83/21/18
f 82/19/18 83/21/18 84/21/18
f 85/19/45 81/20/46 82/19/45
f 81/20/46 85/19/45 86/20/46
f 87/21/49 82/19/45 84/21/49
f 82/19/45 87/21/49 85/19/45
f 83/21/48 87/21/49 84/21/49
f 87/21/49 83/21/48 88/21/48
f 86/20/50 80/19/50 79/20/50
f 80/19/50 86/20/50 85/19/50
f 80/19/50 85/19/50 88/21/50
f 88/21/50 85/19/50 87/21/50
f 80/19/47 83/21/48 78/19/47
f 83/21/48 80/19/47 88/21/48
f 79/20/51 81/20/46 86/20/46
f 81/20/46 79/20/51 77/20/51
f 91/23/52 90/22/52 89/22/52
f 90/22/52 91/23/52 92/23/52
f 92/23/52 91/23/52 93/24/52
f 92/23/52 93/24/52 94/24/52
f 94/24/52 93/24/52 95/25/52
f 94/24/52 95/25/52 96/25/52
f 97/24/53 92/23/54 94/24/53
f 96/25/55 97/24/53 94/24/53
f 92/23/54 97/24/53 98/23/54
f 97/24/53 96/25/55 99/25/55
f 98/23/54 90/22/56 92/23/54
f 90/22/56 98/23/54 100/22/56
f 95/25/57 99/25/55 96/25/55
f 99/25/55 95/25/57 101/25/57
f 95/25/57 102/24/58 101/25/57
f 102/24/58 95/25/57 93/24/58
f 93/24/58 103/23/59 102/24/58
f 103/23/59 93/24/58 91/23/59
f 104/22/60 90/22/56 100/22/56
f 91/23/59 104/22/60 103/23/59
f 90/22/56 104/22/60 89/22/60
f 104/22/60 91/23/59 89/22/60
f 3/1/1 2/2/2 1/1/1
f 2/2/2 3/1/1 4/2/2
f 6/3/3 1/1/1 5/3/3
f 1/1/1 6/3/3 3/1/1
f 2/2/2 8/4/4 7/4/4
f 8/4/4 2/2/2 4/2/2
f 11/2/5 10/1/6 9/2/5
f 10/1/6 11/2/5 12/1/6
f 12/1/6 13/3/7 10/1/6
f 13/3/7 12/1/6 14/3/7
f 15/4/8 11/2/5 9/2/5
f 11/2/5 15/4/8 16/4/8
f 1/1/9 13/3/9 5/3/9
f 13/3/9 1/1/9 10/1/9
f 10/1/9 1/1/9 2/2/9
f 10/1/9 2/2/9 9/2/9
f 9/2/9 2/2/9 7/4/9
f 9/2/9 7/4/9 15/4/9
f 7/4/4 16/4/8 15/4/8
f 16/4/8 7/4/4 8/4/4
f 14/3/7 5/3/3 13/3/7
f 5/3/3 14/3/7 6/3/3
f 19/4/11 18/4/10 17/4/10
f 18/4/10 19/4/11 20/4/11
f 23/1/12 22/2/13 21/1/12
f 22/2/13 23/1/12 24/2/13
f 23/1/12 26/3/14 25/3/14
f 26/3/14 23/1/12 21/1/12
f 22/2/13 20/4/11 19/4/11
f 20/4/11 22/2/13 24/2/13
f 25/3/14 28/3/15 27/3/15
f 28/3/15 25/3/14 26/3/14
f 31/2/16 30/1/17 29/2/16
f 30/1/17 31/2/16 32/1/17
f 27/3/15 30/1/17 32/1/17
f 30/1/17 27/3/15 28/3/15
f 17/4/10 31/2/16 29/2/16
f 31/2/16 17/4/10 18/4/10
f 21/1/18 28/3/18 26/3/18
f 28/3/18 21/1/18 30/1/18
f 30/1/18 21/1/18 22/2/18
f 30/1/18 22/2/18 29/2/18
f 29/2/18 22/2/18 19/4/18
f 29/2/18 19/4/18 17/4/18
f 35/5/21 34/3/20 33/3/19
f 34/3/20 35/5/21 36/6/22
f 39/6/25 38/3/24 37/3/23
f 38/3/24 39/6/25 40/5/26
f 42/7/28 37/3/23 41/3/27
f 37/3/23 42/7/28 39/6/25
f 44/4/30 33/3/19 43/3/29
f 33/3/19 44/4/30 35/5/21
f 40/5/26 45/3/31 38/3/24
f 45/3/31 40/5/26 46/4/32
f 44/4/30 45/3/31 46/4/32
f 45/3/31 44/4/30 43/3/29
f 47/3/33 42/7/28 41/3/27
f 42/7/28 47/3/33 48/7/34
f 36/6/22 47/3/33 34/3/20
f 47/3/33 36/6/22 48/7/34
f 33/3/35 45/3/35 43/3/35
f 45/3/35 33/3/35 38/3/35
f 38/3/35 33/3/35 34/3/35
f 38/3/35 34/3/35 37/3/35
f 37/3/35 34/3/35 47/3/35
f 37/3/35 47/3/35 41/3/35
f 40/5/36 44/4/36 46/4/36
f 44/4/36 40/5/36 35/5/36
f 35/5/36 40/5/36 49/8/36
f 49/8/36 40/5/36 50/9/36
f 51/8/36 35/5/36 49/8/36
f 52/9/36 35/5/36 51/8/36
f 50/9/36 40/5/36 39/6/36
f 35/5/36 52/9/36 36/6/36
f 50/9/36 39/6/36 53/10/36
f 36/6/36 52/9/36 54/10/36
f 53/10/36 39/6/36 55/11/36
f 55/11/36 39/6/36 56/11/36
f 36/6/36 54/10/36 56/11/36
f 36/6/36 56/11/36 39/6/36
f 36/6/36 39/6/36 42/7/36
f 36/6/36 42/7/36 48/7/36
f 59/13/36 58/12/36 57/12/36
f 58/12/36 59/13/36 60/13/36
f 60/13/36 59/13/36 61/14/36
f 60/13/36 61/14/36 62/14/36
f 62/14/36 61/14/36 63/3/36
f 62/14/36 63/3/36 64/3/36
f 52/15/37 58/12/28 60/13/25
f 58/12/28 52/15/37 51/16/38
f 58/12/28 49/16/39 57/12/34
f 49/16/39 58/12/28 51/16/38
f 57/12/34 50/15/40 59/13/22
f 50/15/40 57/12/34 49/16/39
f 59/13/22 53/17/41 61/14/21
f 53/17/41 59/13/22 50/15/40
f 61/14/21 55/18/42 63/3/30
f 55/18/42 61/14/21 53/17/41
f 54/17/43 60/13/25 62/14/26
f 60/13/25 54/17/43 52/15/37
f 56/18/44 63/3/30 55/18/42
f 63/3/30 56/18/44 64/3/32
f 56/18/44 62/14/26 64/3/32
f 62/14/26 56/18/44 54/17/43
f 67/19/45 66/20/46 65/19/45
f 66/20/46 67/19/45 68/20/46
f 71/19/47 70/21/48 69/19/47
f 70/21/48 71/19/47 72/21/48
f 70/21/48 74/21/49 73/21/49
f 74/21/49 70/21/48 72/21/48
f 68/20/50 71/19/50 75/20/50
f 71/19/50 68/20/50 67/19/50
f 71/19/50 67/19/50 72/21/50
f 72/21/50 67/19/50 74/21/50
f 74/21/49 65/19/45 73/21/49
f 65/19/45 74/21/49 67/19/45
f 69/19/18 66/20/18 76/20/18
f 66/20/18 69/19/18 65/19/18
f 65/19/18 69/19/18 70/21/18
f 65/19/18 70/21/18 73/21/18
f 75/20/51 66/20/46 68/20/46
f 66/20/46 75/20/51 76/20/51
f 75/20/51 69/19/47 76/20/51
f 69/19/47 75/20/51 71/19/47
f 79/20/51 78/19/47 77/20/51
f 78/19/47 79/20/51 80/19/47
f 78/19/18 81/20/18 77/20/18
f 81/20/18 78/19/18 82/19/18
f 82/19/18 78/19/18 83/21/18
f 82/19/18 83/21/18 84/21/18
f 85/19/45 81/20/46 82/19/45
f 81/20/46 85/19/45 86/20/46
f 87/21/49 82/19/45 84/21/49
f 82/19/45 87/21/49 85/19/45
f 83/21/48 87/21/49 84/21/49
f 87/21/49 83/21/48 88/21/48
f 86/20/50 80/19/50 79/20/50
f 80/19/50 86/20/50 85/19/50
f 80/19/50 85/19/50 88/21/50
f 88/21/50 85/19/50 87/21/50
f 80/19/47 83/21/48 78/19/47
f 83/21/48 80/19/47 88/21/48
f 79/20/51 81/20/46 86/20/46
f 81/20/46 79/20/51 77/20/51
f 91/23/52 90/22/52 89/22/52
f 90/22/52 91/23/52 92/23/52
f 92/23/52 91/23/52 93/24/52
f 92/23/52 93/24/52 94/24/52
f 94/24/52 93/24/52 95/25/52
f 94/24/52 95/25/52 96/25/52
f 97/24/53 92/23/54 94/24/53
f 96/25/55 97/24/53 94/24/53
f 92/23/54 97/24/53 98/23/54
f 97/24/53 96/25/55 99/25/55
f 98/23/54 90/22/56 92/23/54
f 90/22/56 98/23/54 100/22/56
f 95/25/57 99/25/55 96/25/55
f 99/25/55 95/25/57 101/25/57
f 95/25/57 102/24/58 101/25/57
f 102/24/58 95/25/57 93/24/58
f 93/24/58 103/23/59 102/24/58
f 103/23/59 93/24/58 91/23/59
f 104/22/60 90/22/56 100/22/56
f 91/23/59 104/22/60 103/23/59
f 90/22/56 104/22/60 89/22/60
f 104/22/60 91/23/59 89/22/60
f 107/26/61 106/20/62 105/20/61
f 106/20/62 107/26/61 108/21/62
f 109/21/63 106/20/62 108/21/62
f 106/20/62 109/21/63 110/20/63
f 110/20/63 109/21/63 111/27/63
f 114/20/66 113/20/65 112/20/64
f 113/20/65 114/20/66 115/20/67
f 111/27/70 117/20/69 116/20/68
f 117/20/69 111/27/70 109/21/71
f 120/20/74 119/20/73 118/20/72
f 119/20/73 120/20/74 121/20/75
f 118/20/72 114/20/66 112/20/64
f 114/20/66 118/20/72 119/20/73
f 116/20/68 119/20/73 121/20/75
f 119/20/73 116/20/68 117/20/69
f 120/20/76 106/20/76 110/20/76
f 106/20/76 120/20/76 105/20/76
f 105/20/76 120/20/76 113/20/76
f 113/20/76 120/20/76 112/20/76
f 112/20/76 120/20/76 118/20/76
f 114/20/66 122/20/77 115/20/67
f 122/20/77 114/20/66 123/20/78
f 107/26/36 109/21/71 108/21/36
f 109/21/71 107/26/36 117/20/69
f 117/20/69 107/26/36 122/20/77
f 117/20/69 122/20/77 123/20/78
f 119/20/73 123/20/78 114/20/66
f 123/20/78 119/20/73 117/20/69
f 110/20/50 121/20/75 120/20/74
f 121/20/75 110/20/50 116/20/68
f 116/20/68 110/20/50 111/27/70
f 115/20/18 105/20/61 113/20/18
f 105/20/61 115/20/18 122/20/18
f 105/20/61 122/20/18 107/26/61
f 124/21/79 125/20/79 126/21/63
f 127/20/63 126/21/63 125/20/79
f 128/27/63 126/21/63 127/20/63
f 129/20/80 130/20/81 131/20/82
f 132/20/83 131/20/82 130/20/81
f 133/20/84 134/20/85 135/20/86
f 136/20/87 135/20/86 134/20/85
f 137/20/88 138/20/89 128/27/90
f 126/21/91 128/27/90 138/20/89
f 131/20/82 132/20/83 127/20/18
f 137/20/88 127/20/18 132/20/83
f 128/27/90 127/20/18 137/20/88
f 133/20/84 135/20/86 129/20/80
f 130/20/81 129/20/80 135/20/86
f 132/20/83 130/20/81 137/20/88
f 138/20/89 137/20/88 130/20/81
f 134/20/50 139/20/92 136/20/50
f 140/20/50 136/20/50 139/20/92
f 141/26/92 140/20/50 139/20/92
f 124/21/36 126/21/91 141/26/36
f 138/20/89 141/26/36 126/21/91
f 140/20/93 141/26/36 138/20/89
f 142/20/94 140/20/93 138/20/89
f 139/20/92 125/20/79 141/26/92
f 124/21/79 141/26/92 125/20/79
f 135/20/86 142/20/94 130/20/81
f 138/20/89 130/20/81 142/20/94
f 127/20/76 125/20/76 131/20/76
f 139/20/76 131/20/76 125/20/76
f 134/20/76 131/20/76 139/20/76
f 133/20/76 131/20/76 134/20/76
f 129/20/76 131/20/76 133/20/76
f 136/20/87 140/20/93 135/20/86
f 142/20/94 135/20/86 140/20/93
