mtllib road-bend.mtl
v -0.420665 0.020000 0.439124
v -0.420665 0.010000 0.439124
v -0.413397 0.020000 0.450000
v -0.413397 0.010000 0.450000
v -0.429289 0.020000 0.429289
v -0.429289 0.010000 0.429289
v -0.439124 0.010000 0.420665
v -0.439124 0.020000 0.420665
v -0.461732 0.010000 0.407612
v -0.450000 0.010000 0.413397
v -0.461732 0.020000 0.407612
v -0.450000 0.020000 0.413397
v -0.474118 0.010000 0.403407
v -0.474118 0.020000 0.403407
v -0.500000 0.010000 0.400000
v -0.486947 0.010000 0.400855
v -0.500000 0.020000 0.400000
v -0.486947 0.020000 0.400855
v -0.382526 0.010000 -0.392300
v -0.382526 0.020000 -0.392300
v -0.267063 0.010000 -0.369333
v -0.267063 0.020000 -0.369333
v -0.155585 0.010000 -0.331492
v -0.155585 0.020000 -0.331492
v 0.279423 0.010000 0.050000
v 0.279423 0.020000 0.050000
v 0.331492 0.010000 0.155585
v 0.331492 0.020000 0.155585
v 0.500000 0.000000 0.500000
v 0.491445 0.000000 0.369474
v -0.500000 0.000000 0.500000
v 0.465926 0.000000 0.241181
v 0.423880 0.000000 0.117317
v 0.366025 0.000000 -0.000000
v 0.293353 0.000000 -0.108761
v 0.207107 0.000000 -0.207107
v 0.108761 0.000000 -0.293353
v 0.000000 0.000000 -0.366025
v -0.117317 0.000000 -0.423880
v -0.241181 0.000000 -0.465926
v -0.369474 0.000000 -0.491445
v -0.500000 0.000000 -0.500000
v -0.050000 0.010000 -0.279423
v -0.050000 0.020000 -0.279423
v 0.047885 0.010000 -0.214018
v 0.047885 0.020000 -0.214018
v -0.500000 0.010000 -0.400000
v -0.500000 0.020000 -0.400000
v 0.136396 0.010000 -0.136396
v 0.136396 0.020000 -0.136396
v 0.214018 0.010000 -0.047885
v 0.214018 0.020000 -0.047885
v 0.369333 0.010000 0.267063
v 0.369333 0.020000 0.267063
v 0.392300 0.010000 0.382526
v 0.392300 0.020000 0.382526
v 0.400000 0.010000 0.500000
v 0.400000 0.020000 0.500000
v -0.400000 0.020000 0.500000
v -0.500000 0.020000 0.500000
v -0.400855 0.020000 0.486947
v -0.403407 0.020000 0.474118
v -0.407612 0.020000 0.461732
v -0.403407 0.010000 0.474118
v -0.400855 0.010000 0.486947
v -0.407612 0.010000 0.461732
v -0.400000 0.010000 0.500000
v 0.500000 0.020000 0.500000
v 0.491445 0.020000 0.369474
v 0.465926 0.020000 0.241181
v 0.423880 0.020000 0.117317
v 0.366025 0.020000 -0.000000
v 0.293353 0.020000 -0.108761
v 0.207107 0.020000 -0.207107
v 0.108761 0.020000 -0.293353
v 0.000000 0.020000 -0.366025
v -0.117317 0.020000 -0.423880
v -0.241181 0.020000 -0.465926
v -0.369474 0.020000 -0.491445
v -0.500000 0.020000 -0.500000
v -0.500000 0.010000 0.300000
v -0.500000 0.010000 0.010000
v -0.500000 0.010000 -0.010000
v -0.500000 0.010000 -0.300000
v 0.300000 0.010000 0.500000
v 0.010000 0.010000 0.500000
v -0.300000 0.010000 0.500000
v -0.010000 0.010000 0.500000
v -0.010000 0.010000 0.500000
v -0.300000 0.010000 0.500000
v -0.014192 0.010000 0.436042
v -0.026696 0.010000 0.373179
v -0.047299 0.010000 0.312485
v -0.075647 0.010000 0.255000
v -0.111257 0.010000 0.201707
v -0.153518 0.010000 0.153518
v -0.201707 0.010000 0.111257
v -0.255000 0.010000 0.075648
v -0.312485 0.010000 0.047299
v -0.301711 0.010000 0.473895
v -0.306815 0.010000 0.448236
v -0.315224 0.010000 0.423463
v -0.373179 0.010000 0.026696
v -0.326795 0.010000 0.400000
v -0.341329 0.010000 0.378248
v -0.358579 0.010000 0.358579
v -0.378248 0.010000 0.341329
v -0.436042 0.010000 0.014192
v -0.400000 0.010000 0.326795
v -0.423463 0.010000 0.315224
v -0.448236 0.010000 0.306815
v -0.500000 0.010000 0.010000
v -0.473895 0.010000 0.301711
v -0.500000 0.010000 0.300000
v 0.300000 0.010000 0.500000
v 0.010000 0.010000 0.500000
v 0.293156 0.010000 0.395579
v 0.272741 0.010000 0.292945
v 0.239104 0.010000 0.193853
v 0.192820 0.010000 0.100000
v 0.134683 0.010000 0.012991
v 0.065686 0.010000 -0.065685
v -0.012991 0.010000 -0.134683
v 0.005637 0.010000 0.433432
v -0.007378 0.010000 0.368002
v -0.028821 0.010000 0.304831
v -0.100000 0.010000 -0.192820
v -0.058327 0.010000 0.245000
v -0.095390 0.010000 0.189532
v -0.139375 0.010000 0.139376
v -0.193853 0.010000 -0.239104
v -0.189532 0.010000 0.095390
v -0.245000 0.010000 0.058327
v -0.292945 0.010000 -0.272741
v -0.304831 0.010000 0.028821
v -0.395579 0.010000 -0.293156
v -0.368002 0.010000 0.007378
v -0.433432 0.010000 -0.005637
v -0.500000 0.010000 -0.300000
v -0.500000 0.010000 -0.010000
v 0.010000 0.010000 0.500000
v -0.010000 0.010000 0.500000
v 0.005637 0.010000 0.433432
v -0.007378 0.010000 0.368002
v -0.014192 0.010000 0.436042
v -0.028821 0.010000 0.304831
v -0.026696 0.010000 0.373179
v -0.047299 0.010000 0.312485
v -0.058327 0.010000 0.245000
v -0.075647 0.010000 0.255000
v -0.095390 0.010000 0.189532
v -0.111257 0.010000 0.201707
v -0.139375 0.010000 0.139376
v -0.189531 0.010000 0.095390
v -0.201707 0.010000 0.111257
v -0.245000 0.010000 0.058327
v -0.255000 0.010000 0.075648
v -0.304831 0.010000 0.028821
v -0.312485 0.010000 0.047299
v -0.368002 0.010000 0.007378
v -0.373179 0.010000 0.026696
v -0.433432 0.010000 -0.005637
v -0.436042 0.010000 0.014192
v -0.500000 0.010000 -0.010000
v -0.500000 0.010000 0.010000
v 0.400000 0.010000 0.500000
v 0.300000 0.010000 0.500000
v 0.392300 0.010000 0.382526
v 0.369333 0.010000 0.267063
v 0.331492 0.010000 0.155585
v 0.279423 0.010000 0.050000
v 0.293156 0.010000 0.395579
v 0.272741 0.010000 0.292945
v 0.214018 0.010000 -0.047885
v 0.239104 0.010000 0.193853
v 0.192820 0.010000 0.100000
v 0.136396 0.010000 -0.136396
v 0.134683 0.010000 0.012991
v 0.047885 0.010000 -0.214018
v 0.065685 0.010000 -0.065685
v -0.012991 0.010000 -0.134683
v -0.050000 0.010000 -0.279423
v -0.100000 0.010000 -0.192820
v -0.155585 0.010000 -0.331492
v -0.193853 0.010000 -0.239104
v -0.267063 0.010000 -0.369333
v -0.292945 0.010000 -0.272741
v -0.382526 0.010000 -0.392300
v -0.395579 0.010000 -0.293156
v -0.500000 0.010000 -0.400000
v -0.500000 0.010000 -0.300000
v -0.300000 0.010000 0.500000
v -0.400000 0.010000 0.500000
v -0.301711 0.010000 0.473895
v -0.306815 0.010000 0.448236
v -0.315224 0.010000 0.423463
v -0.326795 0.010000 0.400000
v -0.341329 0.010000 0.378248
v -0.358579 0.010000 0.358579
v -0.378248 0.010000 0.341329
v -0.400000 0.010000 0.326795
v -0.400855 0.010000 0.486947
v -0.423463 0.010000 0.315224
v -0.403407 0.010000 0.474118
v -0.407612 0.010000 0.461732
v -0.413397 0.010000 0.450000
v -0.420665 0.010000 0.439124
v -0.429289 0.010000 0.429289
v -0.448236 0.010000 0.306815
v -0.439124 0.010000 0.420665
v -0.450000 0.010000 0.413397
v -0.473895 0.010000 0.301711
v -0.461732 0.010000 0.407612
v -0.474118 0.010000 0.403407
v -0.500000 0.010000 0.300000
v -0.486947 0.010000 0.400855
v -0.500000 0.010000 0.400000
vn 0.793353 0.000000 -0.608761
vn 0.866025 0.000000 -0.500000
vn 0.707107 0.000000 -0.707107
vn 0.608761 0.000000 -0.793353
vn 0.382683 0.000000 -0.923879
vn 0.500000 0.000000 -0.866025
vn 0.258819 0.000000 -0.965926
vn 0.065403 0.000000 -0.997859
vn 0.130526 0.000000 -0.991445
vn -0.130526 0.000000 0.991445
vn -0.258819 0.000000 0.965926
vn -0.382683 0.000000 0.923879
vn -0.866025 0.000000 0.500000
vn -0.923879 0.000000 0.382683
vn 0.000000 -1.000000 0.000000
vn -0.500000 0.000000 0.866025
vn -0.608761 0.000000 0.793353
vn -0.065403 0.000000 0.997859
vn -0.707107 0.000000 0.707107
vn -0.793353 0.000000 0.608761
vn -0.965926 0.000000 0.258819
vn -0.991445 0.000000 0.130526
vn -0.997859 0.000000 0.065403
vn 0.000000 1.000000 0.000000
vn 0.965926 0.000000 -0.258819
vn 0.991445 0.000000 -0.130526
vn 0.923879 0.000000 -0.382683
vn 0.997859 0.000000 -0.065403
vn -1.000000 0.000000 0.000000
vn 0.000000 0.000000 1.000000
usemtl colormap
f 3/1/2 2/2/1 1/1/1
f 2/2/1 3/1/2 4/2/2
f 1/1/1 6/2/3 5/1/3
f 6/2/3 1/1/1 2/2/1
f 8/1/4 6/2/3 7/2/4
f 6/2/3 8/1/4 5/1/3
f 11/1/5 10/2/6 9/2/5
f 10/2/6 11/1/5 12/1/6
f 14/1/7 9/2/5 13/2/7
f 9/2/5 14/1/7 11/1/5
f 17/1/8 16/2/9 15/2/8
f 16/2/9 17/1/8 18/1/9
f 21/2/11 20/1/10 19/2/10
f 20/1/10 21/2/11 22/1/11
f 23/2/12 22/1/11 21/2/11
f 22/1/11 23/2/12 24/1/12
f 12/1/6 7/2/4 10/2/6
f 7/2/4 12/1/6 8/1/4
f 18/1/9 13/2/7 16/2/9
f 13/2/7 18/1/9 14/1/7
f 27/2/14 26/1/13 25/2/13
f 26/1/13 27/2/14 28/1/14
f 31/3/15 30/3/15 29/3/15
f 30/3/15 31/3/15 32/3/15
f 32/3/15 31/3/15 33/3/15
f 33/3/15 31/3/15 34/3/15
f 34/3/15 31/3/15 35/3/15
f 35/3/15 31/3/15 36/3/15
f 36/3/15 31/3/15 37/3/15
f 37/3/15 31/3/15 38/3/15
f 38/3/15 31/3/15 39/3/15
f 39/3/15 31/3/15 40/3/15
f 40/3/15 31/3/15 41/3/15
f 41/3/15 31/3/15 42/3/15
f 45/2/17 44/1/16 43/2/16
f 44/1/16 45/2/17 46/1/17
f 19/2/10 48/1/18 47/2/18
f 48/1/18 19/2/10 20/1/10
f 49/2/19 46/1/17 45/2/17
f 46/1/17 49/2/19 50/1/19
f 25/2/13 52/1/20 51/2/20
f 52/1/20 25/2/13 26/1/13
f 55/2/22 54/1/21 53/2/21
f 54/1/21 55/2/22 56/1/22
f 57/2/23 56/1/22 55/2/22
f 56/1/22 57/2/23 58/1/23
f 61/1/24 60/1/24 59/1/24
f 60/1/24 61/1/24 62/1/24
f 60/1/24 62/1/24 63/1/24
f 60/1/24 63/1/24 3/1/24
f 60/1/24 3/1/24 1/1/24
f 60/1/24 1/1/24 5/1/24
f 60/1/24 5/1/24 8/1/24
f 60/1/24 8/1/24 12/1/24
f 60/1/24 12/1/24 11/1/24
f 60/1/24 11/1/24 14/1/24
f 60/1/24 14/1/24 18/1/24
f 60/1/24 18/1/24 17/1/24
f 61/1/26 64/2/25 62/1/25
f 64/2/25 61/1/26 65/2/26
f 62/1/25 66/2/27 63/1/27
f 66/2/27 62/1/25 64/2/25
f 43/2/16 24/1/12 23/2/12
f 24/1/12 43/2/16 44/1/16
f 63/1/27 4/2/2 3/1/2
f 4/2/2 63/1/27 66/2/27
f 53/2/21 28/1/14 27/2/14
f 28/1/14 53/2/21 54/1/21
f 59/1/28 65/2/26 61/1/26
f 65/2/26 59/1/28 67/2/28
f 51/2/20 50/1/19 49/2/19
f 50/1/19 51/2/20 52/1/20
f 69/1/24 58/1/24 68/1/24
f 58/1/24 69/1/24 70/1/24
f 58/1/24 70/1/24 71/1/24
f 58/1/24 71/1/24 56/1/24
f 56/1/24 71/1/24 72/1/24
f 56/1/24 72/1/24 54/1/24
f 54/1/24 72/1/24 28/1/24
f 28/1/24 72/1/24 73/1/24
f 28/1/24 73/1/24 26/1/24
f 26/1/24 73/1/24 74/1/24
f 26/1/24 74/1/24 52/1/24
f 52/1/24 74/1/24 50/1/24
f 50/1/24 74/1/24 75/1/24
f 50/1/24 75/1/24 46/1/24
f 46/1/24 75/1/24 76/1/24
f 46/1/24 76/1/24 44/1/24
f 44/1/24 76/1/24 77/1/24
f 44/1/24 77/1/24 24/1/24
f 24/1/24 77/1/24 78/1/24
f 24/1/24 78/1/24 22/1/24
f 22/1/24 78/1/24 79/1/24
f 22/1/24 79/1/24 20/1/24
f 20/1/24 79/1/24 80/1/24
f 20/1/24 80/1/24 48/1/24
f 80/1/8 41/3/9 42/3/8
f 41/3/9 80/1/8 79/1/9
f 41/3/9 78/1/7 40/3/7
f 78/1/7 41/3/9 79/1/9
f 40/3/7 77/1/5 39/3/5
f 77/1/5 40/3/7 78/1/7
f 39/3/5 76/1/6 38/3/6
f 76/1/6 39/3/5 77/1/5
f 38/3/6 75/1/4 37/3/4
f 75/1/4 38/3/6 76/1/6
f 37/3/4 74/1/3 36/3/3
f 74/1/3 37/3/4 75/1/4
f 73/1/1 36/3/3 74/1/3
f 36/3/3 73/1/1 35/3/1
f 72/1/2 35/3/1 73/1/1
f 35/3/1 72/1/2 34/3/2
f 71/1/27 34/3/2 72/1/2
f 34/3/2 71/1/27 33/3/27
f 70/1/25 33/3/27 71/1/27
f 33/3/27 70/1/25 32/3/25
f 69/1/26 32/3/25 70/1/25
f 32/3/25 69/1/26 30/3/26
f 68/1/28 30/3/26 69/1/26
f 30/3/26 68/1/28 29/3/28
f 17/4/29 31/5/29 60/4/29
f 15/6/29 31/5/29 17/4/29
f 81/6/29 31/5/29 15/6/29
f 82/6/29 31/5/29 81/6/29
f 83/6/29 31/5/29 82/6/29
f 84/6/29 31/5/29 83/6/29
f 47/6/29 31/5/29 84/6/29
f 47/6/29 42/5/29 31/5/29
f 42/5/29 47/6/29 80/4/29
f 48/4/29 80/4/29 47/6/29
f 57/6/30 68/4/30 58/4/30
f 57/6/30 29/5/30 68/4/30
f 29/5/30 57/6/30 31/5/30
f 31/5/30 57/6/30 85/6/30
f 67/6/30 31/5/30 85/6/30
f 31/5/30 67/6/30 60/4/30
f 60/4/30 67/6/30 59/4/30
f 86/6/30 67/6/30 85/6/30
f 67/6/30 86/6/30 87/6/30
f 87/6/30 86/6/30 88/6/30
f 91/7/24 90/7/24 89/7/24
f 90/7/24 91/7/24 92/7/24
f 90/7/24 92/7/24 93/7/24
f 90/7/24 93/7/24 94/7/24
f 90/7/24 94/7/24 95/7/24
f 90/7/24 95/7/24 96/7/24
f 90/7/24 96/7/24 97/7/24
f 90/7/24 97/7/24 98/7/24
f 90/7/24 98/7/24 99/7/24
f 90/7/24 99/7/24 100/7/24
f 100/7/24 99/7/24 101/7/24
f 101/7/24 99/7/24 102/7/24
f 102/7/24 99/7/24 103/7/24
f 102/7/24 103/7/24 104/7/24
f 104/7/24 103/7/24 105/7/24
f 105/7/24 103/7/24 106/7/24
f 106/7/24 103/7/24 107/7/24
f 107/7/24 103/7/24 108/7/24
f 107/7/24 108/7/24 109/7/24
f 109/7/24 108/7/24 110/7/24
f 110/7/24 108/7/24 111/7/24
f 111/7/24 108/7/24 112/7/24
f 111/7/24 112/7/24 113/7/24
f 113/7/24 112/7/24 114/7/24
f 117/7/24 116/7/24 115/7/24
f 116/7/24 117/7/24 118/7/24
f 116/7/24 118/7/24 119/7/24
f 116/7/24 119/7/24 120/7/24
f 116/7/24 120/7/24 121/7/24
f 116/7/24 121/7/24 122/7/24
f 116/7/24 122/7/24 123/7/24
f 116/7/24 123/7/24 124/7/24
f 124/7/24 123/7/24 125/7/24
f 125/7/24 123/7/24 126/7/24
f 126/7/24 123/7/24 127/7/24
f 126/7/24 127/7/24 128/7/24
f 128/7/24 127/7/24 129/7/24
f 129/7/24 127/7/24 130/7/24
f 130/7/24 127/7/24 131/7/24
f 130/7/24 131/7/24 132/7/24
f 132/7/24 131/7/24 133/7/24
f 133/7/24 131/7/24 134/7/24
f 133/7/24 134/7/24 135/7/24
f 135/7/24 134/7/24 136/7/24
f 135/7/24 136/7/24 137/7/24
f 137/7/24 136/7/24 138/7/24
f 138/7/24 136/7/24 139/7/24
f 138/7/24 139/7/24 140/7/24
f 143/8/24 142/8/24 141/8/24
f 142/8/24 143/8/24 144/8/24
f 142/8/24 144/8/24 145/8/24
f 145/8/24 144/8/24 146/8/24
f 145/8/24 146/8/24 147/8/24
f 147/8/24 146/8/24 148/8/24
f 148/8/24 146/8/24 149/8/24
f 148/8/24 149/8/24 150/8/24
f 150/8/24 149/8/24 151/8/24
f 150/8/24 151/8/24 152/8/24
f 152/8/24 151/8/24 153/8/24
f 152/8/24 153/8/24 96/8/24
f 96/8/24 153/8/24 154/8/24
f 96/8/24 154/8/24 155/8/24
f 155/8/24 154/8/24 156/8/24
f 155/8/24 156/8/24 157/8/24
f 157/8/24 156/8/24 158/8/24
f 157/8/24 158/8/24 159/8/24
f 159/8/24 158/8/24 160/8/24
f 159/8/24 160/8/24 161/8/24
f 161/8/24 160/8/24 162/8/24
f 161/8/24 162/8/24 163/8/24
f 163/8/24 162/8/24 164/8/24
f 163/8/24 164/8/24 165/8/24
f 168/9/24 167/9/24 166/9/24
f 167/9/24 168/9/24 169/9/24
f 167/9/24 169/9/24 170/9/24
f 167/9/24 170/9/24 171/9/24
f 167/9/24 171/9/24 172/9/24
f 172/9/24 171/9/24 173/9/24
f 173/9/24 171/9/24 174/9/24
f 173/9/24 174/9/24 175/9/24
f 175/9/24 174/9/24 176/9/24
f 176/9/24 174/9/24 177/9/24
f 176/9/24 177/9/24 178/9/24
f 178/9/24 177/9/24 179/9/24
f 178/9/24 179/9/24 180/9/24
f 180/9/24 179/9/24 181/9/24
f 181/9/24 179/9/24 182/9/24
f 181/9/24 182/9/24 183/9/24
f 183/9/24 182/9/24 184/9/24
f 183/9/24 184/9/24 185/9/24
f 185/9/24 184/9/24 186/9/24
f 185/9/24 186/9/24 187/9/24
f 187/9/24 186/9/24 188/9/24
f 187/9/24 188/9/24 189/9/24
f 189/9/24 188/9/24 190/9/24
f 189/9/24 190/9/24 191/9/24
f 194/9/24 193/9/24 192/9/24
f 193/9/24 194/9/24 195/9/24
f 193/9/24 195/9/24 196/9/24
f 193/9/24 196/9/24 197/9/24
f 193/9/24 197/9/24 198/9/24
f 193/9/24 198/9/24 199/9/24
f 193/9/24 199/9/24 200/9/24
f 193/9/24 200/9/24 201/9/24
f 193/9/24 201/9/24 202/9/24
f 202/9/24 201/9/24 203/9/24
f 202/9/24 203/9/24 204/9/24
f 204/9/24 203/9/24 205/9/24
f 205/9/24 203/9/24 206/9/24
f 206/9/24 203/9/24 207/9/24
f 207/9/24 203/9/24 208/9/24
f 208/9/24 203/9/24 209/9/24
f 208/9/24 209/9/24 210/9/24
f 210/9/24 209/9/24 211/9/24
f 211/9/24 209/9/24 212/9/24
f 211/9/24 212/9/24 213/9/24
f 213/9/24 212/9/24 214/9/24
f 214/9/24 212/9/24 215/9/24
f 214/9/24 215/9/24 216/9/24
f 216/9/24 215/9/24 217/9/24
f 3/1/2 2/2/1 1/1/1
f 2/2/1 3/1/2 4/2/2
f 1/1/1 6/2/3 5/1/3
f 6/2/3 1/1/1 2/2/1
f 8/1/4 6/2/3 7/2/4
f 6/2/3 8/1/4 5/1/3
f 11/1/5 10/2/6 9/2/5
f 10/2/6 11/1/5 12/1/6
f 14/1/7 9/2/5 13/2/7
f 9/2/5 14/1/7 11/1/5
f 17/1/8 16/2/9 15/2/8
f 16/2/9 17/1/8 18/1/9
f 21/2/11 20/1/10 19/2/10
f 20/1/10 21/2/11 22/1/11
f 23/2/12 22/1/11 21/2/11
f 22/1/11 23/2/12 24/1/12
f 12/1/6 7/2/4 10/2/6
f 7/2/4 12/1/6 8/1/4
f 18/1/9 13/2/7 16/2/9
f 13/2/7 18/1/9 14/1/7
f 27/2/14 26/1/13 25/2/13
f 26/1/13 27/2/14 28/1/14
f 31/3/15 30/3/15 29/3/15
f 30/3/15 31/3/15 32/3/15
f 32/3/15 31/3/15 33/3/15
f 33/3/15 31/3/15 34/3/15
f 34/3/15 31/3/15 35/3/15
f 35/3/15 31/3/15 36/3/15
f 36/3/15 31/3/15 37/3/15
f 37/3/15 31/3/15 38/3/15
f 38/3/15 31/3/15 39/3/15
f 39/3/15 31/3/15 40/3/15
f 40/3/15 31/3/15 41/3/15
f 41/3/15 31/3/15 42/3/15
f 45/2/17 44/1/16 43/2/16
f 44/1/16 45/2/17 46/1/17
f 19/2/10 48/1/18 47/2/18
f 48/1/18 19/2/10 20/1/10
f 49/2/19 46/1/17 45/2/17
f 46/1/17 49/2/19 50/1/19
f 25/2/13 52/1/20 51/2/20
f 52/1/20 25/2/13 26/1/13
f 55/2/22 54/1/21 53/2/21
f 54/1/21 55/2/22 56/1/22
f 57/2/23 56/1/22 55/2/22
f 56/1/22 57/2/23 58/1/23
f 61/1/24 60/1/24 59/1/24
f 60/1/24 61/1/24 62/1/24
f 60/1/24 62/1/24 63/1/24
f 60/1/24 63/1/24 3/1/24
f 60/1/24 3/1/24 1/1/24
f 60/1/24 1/1/24 5/1/24
f 60/1/24 5/1/24 8/1/24
f 60/1/24 8/1/24 12/1/24
f 60/1/24 12/1/24 11/1/24
f 60/1/24 11/1/24 14/1/24
f 60/1/24 14/1/24 18/1/24
f 60/1/24 18/1/24 17/1/24
f 61/1/26 64/2/25 62/1/25
f 64/2/25 61/1/26 65/2/26
f 62/1/25 66/2/27 63/1/27
f 66/2/27 62/1/25 64/2/25
f 43/2/16 24/1/12 23/2/12
f 24/1/12 43/2/16 44/1/16
f 63/1/27 4/2/2 3/1/2
f 4/2/2 63/1/27 66/2/27
f 53/2/21 28/1/14 27/2/14
f 28/1/14 53/2/21 54/1/21
f 59/1/28 65/2/26 61/1/26
f 65/2/26 59/1/28 67/2/28
f 51/2/20 50/1/19 49/2/19
f 50/1/19 51/2/20 52/1/20
f 69/1/24 58/1/24 68/1/24
f 58/1/24 69/1/24 70/1/24
f 58/1/24 70/1/24 71/1/24
f 58/1/24 71/1/24 56/1/24
f 56/1/24 71/1/24 72/1/24
f 56/1/24 72/1/24 54/1/24
f 54/1/24 72/1/24 28/1/24
f 28/1/24 72/1/24 73/1/24
f 28/1/24 73/1/24 26/1/24
f 26/1/24 73/1/24 74/1/24
f 26/1/24 74/1/24 52/1/24
f 52/1/24 74/1/24 50/1/24
f 50/1/24 74/1/24 75/1/24
f 50/1/24 75/1/24 46/1/24
f 46/1/24 75/1/24 76/1/24
f 46/1/24 76/1/24 44/1/24
f 44/1/24 76/1/24 77/1/24
f 44/1/24 77/1/24 24/1/24
f 24/1/24 77/1/24 78/1/24
f 24/1/24 78/1/24 22/1/24
f 22/1/24 78/1/24 79/1/24
f 22/1/24 79/1/24 20/1/24
f 20/1/24 79/1/24 80/1/24
f 20/1/24 80/1/24 48/1/24
f 80/1/8 41/3/9 42/3/8
f 41/3/9 80/1/8 79/1/9
f 41/3/9 78/1/7 40/3/7
f 78/1/7 41/3/9 79/1/9
f 40/3/7 77/1/5 39/3/5
f 77/1/5 40/3/7 78/1/7
f 39/3/5 76/1/6 38/3/6
f 76/1/6 39/3/5 77/1/5
f 38/3/6 75/1/4 37/3/4
f 75/1/4 38/3/6 76/1/6
f 37/3/4 74/1/3 36/3/3
f 74/1/3 37/3/4 75/1/4
f 73/1/1 36/3/3 74/1/3
f 36/3/3 73/1/1 35/3/1
f 72/1/2 35/3/1 73/1/1
f 35/3/1 72/1/2 34/3/2
f 71/1/27 34/3/2 72/1/2
f 34/3/2 71/1/27 33/3/27
f 70/1/25 33/3/27 71/1/27
f 33/3/27 70/1/25 32/3/25
f 69/1/26 32/3/25 70/1/25
f 32/3/25 69/1/26 30/3/26
f 68/1/28 30/3/26 69/1/26
f 30/3/26 68/1/28 29/3/28
f 17/4/29 31/5/29 60/4/29
f 15/6/29 31/5/29 17/4/29
f 81/6/29 31/5/29 15/6/29
f 82/6/29 31/5/29 81/6/29
f 83/6/29 31/5/29 82/6/29
f 84/6/29 31/5/29 83/6/29
f 47/6/29 31/5/29 84/6/29
f 47/6/29 42/5/29 31/5/29
f 42/5/29 47/6/29 80/4/29
f 48/4/29 80/4/29 47/6/29
f 57/6/30 68/4/30 58/4/30
f 57/6/30 29/5/30 68/4/30
f 29/5/30 57/6/30 31/5/30
f 31/5/30 57/6/30 85/6/30
f 67/6/30 31/5/30 85/6/30
f 31/5/30 67/6/30 60/4/30
f 60/4/30 67/6/30 59/4/30
f 86/6/30 67/6/30 85/6/30
f 67/6/30 86/6/30 87/6/30
f 87/6/30 86/6/30 88/6/30
f 91/7/24 90/7/24 89/7/24
f 90/7/24 91/7/24 92/7/24
f 90/7/24 92/7/24 93/7/24
f 90/7/24 93/7/24 94/7/24
f 90/7/24 94/7/24 95/7/24
f 90/7/24 95/7/24 96/7/24
f 90/7/24 96/7/24 97/7/24
f 90/7/24 97/7/24 98/7/24
f 90/7/24 98/7/24 99/7/24
f 90/7/24 99/7/24 100/7/24
f 100/7/24 99/7/24 101/7/24
f 101/7/24 99/7/24 102/7/24
f 102/7/24 99/7/24 103/7/24
f 102/7/24 103/7/24 104/7/24
f 104/7/24 103/7/24 105/7/24
f 105/7/24 103/7/24 106/7/24
f 106/7/24 103/7/24 107/7/24
f 107/7/24 103/7/24 108/7/24
f 107/7/24 108/7/24 109/7/24
f 109/7/24 108/7/24 110/7/24
f 110/7/24 108/7/24 111/7/24
f 111/7/24 108/7/24 112/7/24
f 111/7/24 112/7/24 113/7/24
f 113/7/24 112/7/24 114/7/24
f 117/7/24 116/7/24 115/7/24
f 116/7/24 117/7/24 118/7/24
f 116/7/24 118/7/24 119/7/24
f 116/7/24 119/7/24 120/7/24
f 116/7/24 120/7/24 121/7/24
f 116/7/24 121/7/24 122/7/24
f 116/7/24 122/7/24 123/7/24
f 116/7/24 123/7/24 124/7/24
f 124/7/24 123/7/24 125/7/24
f 125/7/24 123/7/24 126/7/24
f 126/7/24 123/7/24 127/7/24
f 126/7/24 127/7/24 128/7/24
f 128/7/24 127/7/24 129/7/24
f 129/7/24 127/7/24 130/7/24
f 130/7/24 127/7/24 131/7/24
f 130/7/24 131/7/24 132/7/24
f 132/7/24 131/7/24 133/7/24
f 133/7/24 131/7/24 134/7/24
f 133/7/24 134/7/24 135/7/24
f 135/7/24 134/7/24 136/7/24
f 135/7/24 136/7/24 137/7/24
f 137/7/24 136/7/24 138/7/24
f 138/7/24 136/7/24 139/7/24
f 138/7/24 139/7/24 140/7/24
f 143/8/24 142/8/24 141/8/24
f 142/8/24 143/8/24 144/8/24
f 142/8/24 144/8/24 145/8/24
f 145/8/24 144/8/24 146/8/24
f 145/8/24 146/8/24 147/8/24
f 147/8/24 146/8/24 148/8/24
f 148/8/24 146/8/24 149/8/24
f 148/8/24 149/8/24 150/8/24
f 150/8/24 149/8/24 151/8/24
f 150/8/24 151/8/24 152/8/24
f 152/8/24 151/8/24 153/8/24
f 152/8/24 153/8/24 96/8/24
f 96/8/24 153/8/24 154/8/24
f 96/8/24 154/8/24 155/8/24
f 155/8/24 154/8/24 156/8/24
f 155/8/24 156/8/24 157/8/24
f 157/8/24 156/8/24 158/8/24
f 157/8/24 158/8/24 159/8/24
f 159/8/24 158/8/24 160/8/24
f 159/8/24 160/8/24 161/8/24
f 161/8/24 160/8/24 162/8/24
f 161/8/24 162/8/24 163/8/24
f 163/8/24 162/8/24 164/8/24
f 163/8/24 164/8/24 165/8/24
f 168/9/24 167/9/24 166/9/24
f 167/9/24 168/9/24 169/9/24
f 167/9/24 169/9/24 170/9/24
f 167/9/24 170/9/24 171/9/24
f 167/9/24 171/9/24 172/9/24
f 172/9/24 171/9/24 173/9/24
f 173/9/24 171/9/24 174/9/24
f 173/9/24 174/9/24 175/9/24
f 175/9/24 174/9/24 176/9/24
f 176/9/24 174/9/24 177/9/24
f 176/9/24 177/9/24 178/9/24
f 178/9/24 177/9/24 179/9/24
f 178/9/24 179/9/24 180/9/24
f 180/9/24 179/9/24 181/9/24
f 181/9/24 179/9/24 182/9/24
f 181/9/24 182/9/24 183/9/24
f 183/9/24 182/9/24 184/9/24
f 183/9/24 184/9/24 185/9/24
f 185/9/24 184/9/24 186/9/24
f 185/9/24 186/9/24 187/9/24
f 187/9/24 186/9/24 188/9/24
f 187/9/24 188/9/24 189/9/24
f 189/9/24 188/9/24 190/9/24
f 189/9/24 190/9/24 191/9/24
f 194/9/24 193/9/24 192/9/24
f 193/9/24 194/9/24 195/9/24
f 193/9/24 195/9/24 196/9/24
f 193/9/24 196/9/24 197/9/24
f 193/9/24 197/9/24 198/9/24
f 193/9/24 198/9/24 199/9/24
f 193/9/24 199/9/24 200/9/24
f 193/9/24 200/9/24 201/9/24
f 193/9/24 201/9/24 202/9/24
f 202/9/24 201/9/24 203/9/24
f 202/9/24 203/9/24 204/9/24
f 204/9/24 203/9/24 205/9/24
f 205/9/24 203/9/24 206/9/24
f 206/9/24 203/9/24 207/9/24
f 207/9/24 203/9/24 208/9/24
f 208/9/24 203/9/24 209/9/24
f 208/9/24 209/9/24 210/9/24
f 210/9/24 209/9/24 211/9/24
f 211/9/24 209/9/24 212/9/24
f 211/9/24 212/9/24 213/9/24
f 213/9/24 212/9/24 214/9/24
f 214/9/24 212/9/24 215/9/24
f 214/9/24 215/9/24 216/9/24
f 216/9/24 215/9/24 217/9/24
