mtllib traffic-light.mtl
v -0.012500 0.374969 0.012500
v -0.012500 0.394969 0.012500
v -0.012500 0.374969 0.025000
v -0.012500 0.394969 0.025000
v 0.015000 0.374969 0.025000
v 0.015000 0.394969 0.025000
v 0.025000 0.394969 -0.015000
v 0.025000 0.374969 -0.015000
v 0.025000 0.394969 0.015000
v 0.025000 0.374969 0.015000
v -0.012500 0.374969 -0.025000
v 0.015000 0.374969 -0.025000
v -0.012500 0.394969 -0.025000
v 0.015000 0.394969 -0.025000
v -0.012500 0.478156 0.012500
v -0.012500 0.498156 0.012500
v -0.012500 0.478156 0.025000
v -0.012500 0.498156 0.025000
v 0.015000 0.478156 0.025000
v 0.015000 0.498156 0.025000
v 0.025000 0.498156 -0.015000
v 0.025000 0.478156 -0.015000
v 0.025000 0.498156 0.015000
v 0.025000 0.478156 0.015000
v -0.012500 0.478156 -0.025000
v 0.015000 0.478156 -0.025000
v -0.012500 0.498156 -0.025000
v 0.015000 0.498156 -0.025000
v -0.012500 0.498156 -0.030531
v -0.012500 0.374969 -0.030531
v -0.012500 0.508156 -0.020531
v -0.012500 0.364969 -0.020531
v -0.012500 0.508156 0.020531
v -0.012500 0.364969 0.020531
v -0.012500 0.498156 0.030531
v -0.012500 0.374969 0.030531
v 0.036000 0.000000 0.045000
v -0.036000 0.000000 0.045000
v 0.036000 0.020000 0.045000
v -0.036000 0.020000 0.045000
v 0.045000 0.020000 -0.036000
v 0.045000 0.000000 -0.036000
v 0.045000 0.020000 0.036000
v 0.045000 0.000000 0.036000
v -0.045000 0.000000 -0.036000
v -0.045000 0.020000 -0.036000
v -0.045000 0.000000 0.036000
v -0.045000 0.020000 0.036000
v -0.036000 0.000000 -0.045000
v 0.036000 0.000000 -0.045000
v -0.036000 0.020000 -0.045000
v 0.036000 0.020000 -0.045000
v 0.012500 0.172500 0.012500
v 0.012500 0.172500 -0.012500
v -0.012500 0.172500 0.012500
v -0.012500 0.172500 -0.012500
v 0.012500 0.515000 -0.012500
v 0.012500 0.515000 0.012500
v -0.012500 0.515000 -0.012500
v -0.012500 0.515000 0.012500
v 0.025000 0.111806 -0.025000
v 0.022500 0.020000 -0.022500
v 0.025000 0.111806 0.025000
v 0.022500 0.020000 0.022500
v -0.025000 0.111806 -0.025000
v -0.025000 0.111806 0.025000
v -0.022500 0.020000 -0.022500
v -0.022500 0.020000 0.022500
v 0.017375 0.138328 0.017375
v -0.017375 0.138328 0.017375
v -0.017375 0.138328 -0.017375
v 0.017375 0.138328 -0.017375
v -0.018814 0.160477 -0.018814
v 0.018814 0.160477 -0.018814
v 0.018814 0.160477 0.018814
v -0.018814 0.160477 0.018814
v -0.050000 0.364969 -0.020531
v -0.050000 0.374969 -0.030531
v -0.050000 0.498156 -0.030531
v -0.050000 0.508156 -0.020531
v -0.050000 0.508156 0.020531
v -0.050000 0.364969 0.020531
v -0.050000 0.498156 0.030531
v -0.050000 0.374969 0.030531
v -0.050000 0.374969 -0.020531
v -0.050000 0.498156 -0.020531
v -0.050000 0.374969 0.020531
v -0.050000 0.498156 0.020531
v -0.050000 0.395500 -0.015398
v -0.050000 0.407049 -0.011549
v -0.050000 0.383951 -0.011549
v -0.050000 0.380101 0.000000
v -0.050000 0.410898 0.000000
v -0.050000 0.407049 0.011549
v -0.050000 0.383951 0.011549
v -0.050000 0.395500 0.015398
v -0.050000 0.477625 -0.015398
v -0.050000 0.489174 -0.011549
v -0.050000 0.466076 -0.011549
v -0.050000 0.462226 0.000000
v -0.050000 0.493023 0.000000
v -0.050000 0.489174 0.011549
v -0.050000 0.466076 0.011549
v -0.050000 0.477625 0.015398
v -0.040000 0.374969 -0.020531
v -0.040000 0.498156 -0.020531
v -0.040000 0.374969 0.020531
v -0.040000 0.498156 0.020531
v -0.050000 0.457094 -0.020531
v -0.050000 0.457094 0.020531
v -0.072600 0.457094 -0.020531
v -0.072600 0.457094 0.020531
v -0.050000 0.416031 -0.020531
v -0.050000 0.416031 0.020531
v -0.072600 0.416031 -0.020531
v -0.072600 0.416031 0.020531
v -0.072600 0.498156 0.020531
v -0.072600 0.498156 -0.020531
v -0.050000 0.436563 -0.015398
v -0.050000 0.448111 -0.011549
v -0.050000 0.425014 -0.011549
v -0.050000 0.421164 0.000000
v -0.050000 0.451961 0.000000
v -0.050000 0.448111 0.011549
v -0.050000 0.425014 0.011549
v -0.050000 0.436563 0.015398
vn -1.000000 0.000000 0.000000
vn 0.382683 0.000000 0.923879
vn 0.000000 0.000000 1.000000
vn 0.923879 0.000000 -0.382683
vn 0.923879 0.000000 0.382683
vn 0.000000 0.000000 -1.000000
vn 0.382683 0.000000 -0.923879
vn 0.000000 -1.000000 0.000000
vn 0.000000 1.000000 0.000000
vn 1.000000 0.000000 0.000000
vn 0.382683 0.000000 0.923880
vn -0.382683 0.000000 0.923880
vn 0.923880 0.000000 -0.382683
vn 0.923880 0.000000 0.382683
vn -0.923880 0.000000 -0.382683
vn -0.923880 0.000000 0.382683
vn -0.382683 0.000000 -0.923880
vn 0.382683 0.000000 -0.923880
vn 0.993603 0.112933 0.000000
vn 0.999629 -0.027221 0.000000
vn -0.993603 0.112933 0.000000
vn -0.999629 -0.027221 0.000000
vn 0.000000 -0.027221 -0.999629
vn 0.000000 0.112933 -0.993603
vn 0.000000 -0.027221 0.999629
vn 0.000000 0.112933 0.993603
vn 0.000000 0.117532 0.993069
vn 0.000000 0.117532 -0.993069
vn 0.993069 0.117532 0.000000
vn -0.993069 0.117532 0.000000
vn 0.000000 0.169097 -0.985599
vn 0.000000 0.169097 0.985599
vn 0.985599 0.169097 0.000000
vn -0.985599 0.169097 0.000000
vn 0.000000 0.464925 -0.885350
vn 0.885350 0.464925 0.000000
vn 0.000000 0.464925 0.885350
vn -0.885350 0.464925 0.000000
vn 0.000000 -0.923879 -0.382683
vn 0.000000 -0.382683 -0.923879
vn 0.000000 0.382683 -0.923879
vn 0.000000 0.923879 -0.382683
vn 0.000000 0.923879 0.382683
vn 0.000000 -0.923879 0.382683
vn 0.000000 0.382683 0.923879
vn 0.000000 -0.382683 0.923879
vn -1.000000 0.000000 0.000000
vn -0.314485 0.104829 0.943456
vn -0.301511 -0.301511 0.904534
vn -0.314485 0.104829 -0.943456
vn -0.301511 -0.301511 -0.904534
vn 0.314485 -0.104829 0.943456
vn 0.301511 0.301511 -0.904534
vn 0.314485 -0.104829 -0.943456
vn 0.301511 0.301511 0.904534
vn 0.000000 0.140633 0.990062
vn 0.000000 0.140633 -0.990062
vn -0.000000 -0.140633 -0.990062
vn -0.000000 -0.140633 0.990062
vn 0.000000 1.000000 0.000000
vn -0.000000 -1.000000 0.000000
vn 0.000000 0.693099 0.720842
vn -0.000000 -0.693099 -0.720842
vn 0.000000 0.693099 -0.720842
vn -0.000000 -0.693099 0.720842
usemtl colormap
f 3/1/1 2/2/1 1/1/1
f 2/2/1 3/1/1 4/2/1
f 6/2/2 3/1/3 5/1/2
f 3/1/3 6/2/2 4/2/3
f 9/2/5 8/1/4 7/2/4
f 8/1/4 9/2/5 10/1/5
f 13/2/6 12/1/7 11/1/6
f 12/1/7 13/2/6 14/2/7
f 14/2/7 8/1/4 12/1/7
f 8/1/4 14/2/7 7/2/4
f 9/2/5 5/1/2 10/1/5
f 5/1/2 9/2/5 6/2/2
f 5/1/8 8/1/8 10/1/8
f 8/1/8 5/1/8 12/1/8
f 12/1/8 5/1/8 3/1/8
f 12/1/8 3/1/8 11/1/8
f 11/1/8 3/1/8 1/1/8
f 14/2/9 9/2/9 7/2/9
f 9/2/9 14/2/9 6/2/9
f 6/2/9 14/2/9 13/2/9
f 6/2/9 13/2/9 4/2/9
f 4/2/9 13/2/9 2/2/9
f 17/1/1 16/2/1 15/1/1
f 16/2/1 17/1/1 18/2/1
f 20/2/2 17/1/3 19/1/2
f 17/1/3 20/2/2 18/2/3
f 23/2/5 22/1/4 21/2/4
f 22/1/4 23/2/5 24/1/5
f 27/2/6 26/1/7 25/1/6
f 26/1/7 27/2/6 28/2/7
f 28/2/7 22/1/4 26/1/7
f 22/1/4 28/2/7 21/2/4
f 23/2/5 19/1/2 24/1/5
f 19/1/2 23/2/5 20/2/2
f 19/1/8 22/1/8 24/1/8
f 22/1/8 19/1/8 26/1/8
f 26/1/8 19/1/8 17/1/8
f 26/1/8 17/1/8 25/1/8
f 25/1/8 17/1/8 15/1/8
f 28/2/9 23/2/9 21/2/9
f 23/2/9 28/2/9 20/2/9
f 20/2/9 28/2/9 27/2/9
f 20/2/9 27/2/9 18/2/9
f 18/2/9 27/2/9 16/2/9
f 31/2/10 30/4/10 29/3/10
f 30/4/10 31/2/10 32/5/10
f 32/5/10 31/2/10 33/2/10
f 32/5/10 33/2/10 34/5/10
f 34/5/10 33/2/10 35/3/10
f 34/5/10 35/3/10 36/4/10
f 39/7/11 38/6/12 37/6/11
f 38/6/12 39/7/11 40/7/12
f 43/7/14 42/6/13 41/7/13
f 42/6/13 43/7/14 44/6/14
f 47/6/16 46/7/15 45/6/15
f 46/7/15 47/6/16 48/7/16
f 51/7/17 50/6/18 49/6/17
f 50/6/18 51/7/17 52/7/18
f 40/7/12 47/6/16 38/6/12
f 47/6/16 40/7/12 48/7/16
f 46/7/15 49/6/17 45/6/15
f 49/6/17 46/7/15 51/7/17
f 43/7/14 37/6/11 44/6/14
f 37/6/11 43/7/14 39/7/11
f 52/7/18 42/6/13 50/6/18
f 42/6/13 52/7/18 41/7/13
f 37/6/8 42/6/8 44/6/8
f 42/6/8 37/6/8 50/6/8
f 50/6/8 37/6/8 38/6/8
f 50/6/8 38/6/8 49/6/8
f 49/6/8 38/6/8 47/6/8
f 49/6/8 47/6/8 45/6/8
f 52/7/9 43/7/9 41/7/9
f 43/7/9 52/7/9 39/7/9
f 39/7/9 52/7/9 51/7/9
f 39/7/9 51/7/9 40/7/9
f 40/7/9 51/7/9 46/7/9
f 40/7/9 46/7/9 48/7/9
f 55/8/8 54/8/8 53/8/8
f 54/8/8 55/8/8 56/8/8
f 59/9/9 58/9/9 57/9/9
f 58/9/9 59/9/9 60/9/9
f 55/8/1 59/9/1 56/8/1
f 59/9/1 55/8/1 60/9/1
f 59/9/6 54/8/6 56/8/6
f 54/8/6 59/9/6 57/9/6
f 58/9/10 54/8/10 57/9/10
f 54/8/10 58/9/10 53/8/10
f 58/9/3 55/8/3 53/8/3
f 55/8/3 58/9/3 60/9/3
f 63/10/19 62/8/20 61/10/19
f 62/8/20 63/10/19 64/8/20
f 67/8/22 66/10/21 65/10/21
f 66/10/21 67/8/22 68/8/22
f 65/10/24 62/8/23 67/8/23
f 62/8/23 65/10/24 61/10/24
f 63/10/26 68/8/25 64/8/25
f 68/8/25 63/10/26 66/10/26
f 69/11/27 66/10/26 63/10/26
f 66/10/26 69/11/27 70/11/27
f 71/11/28 61/10/24 65/10/24
f 61/10/24 71/11/28 72/11/28
f 72/11/29 63/10/19 61/10/19
f 63/10/19 72/11/29 69/11/29
f 66/10/21 71/11/30 65/10/21
f 71/11/30 66/10/21 70/11/30
f 73/12/31 72/11/28 71/11/28
f 72/11/28 73/12/31 74/12/31
f 75/12/32 70/11/27 69/11/27
f 70/11/27 75/12/32 76/12/32
f 75/12/33 72/11/29 74/12/33
f 72/11/29 75/12/33 69/11/29
f 71/11/30 76/12/34 73/12/34
f 76/12/34 71/11/30 70/11/30
f 56/9/35 74/12/31 73/12/31
f 74/12/31 56/9/35 54/9/35
f 54/9/36 75/12/33 74/12/33
f 75/12/33 54/9/36 53/9/36
f 53/9/37 76/12/32 75/12/32
f 76/12/32 53/9/37 55/9/37
f 76/12/34 56/9/38 73/12/34
f 56/9/38 76/12/34 55/9/38
f 77/13/39 30/14/40 32/13/39
f 30/14/40 77/13/39 78/14/40
f 80/16/42 29/15/41 79/15/41
f 29/15/41 80/16/42 31/16/42
f 79/15/41 30/14/40 78/14/40
f 30/14/40 79/15/41 29/15/41
f 80/16/42 33/16/43 31/16/42
f 33/16/43 80/16/42 81/16/43
f 34/13/44 77/13/39 32/13/39
f 77/13/39 34/13/44 82/13/44
f 81/16/43 35/15/45 33/16/43
f 35/15/45 81/16/43 83/15/45
f 35/15/45 84/14/46 36/14/46
f 84/14/46 35/15/45 83/15/45
f 36/14/46 82/13/44 34/13/44
f 82/13/44 36/14/46 84/14/46
f 78/14/1 80/16/1 79/15/1
f 80/16/1 78/14/1 85/14/1
f 85/14/1 78/14/1 77/13/1
f 86/15/1 80/16/1 85/14/1
f 85/14/1 77/13/1 87/14/1
f 80/16/1 86/15/1 81/16/1
f 87/14/1 77/13/1 82/13/1
f 81/16/1 86/15/1 88/15/1
f 87/14/1 82/13/1 88/15/1
f 81/16/1 88/15/1 83/15/1
f 83/15/1 88/15/1 82/13/1
f 83/15/1 82/13/1 84/14/1
f 91/19/47 90/18/47 89/17/47
f 90/18/47 91/19/47 92/20/47
f 90/18/47 92/20/47 93/21/47
f 93/21/47 92/20/47 94/18/47
f 94/18/47 92/20/47 95/19/47
f 94/18/47 95/19/47 96/17/47
f 99/24/47 98/23/47 97/22/47
f 98/23/47 99/24/47 100/25/47
f 98/23/47 100/25/47 101/26/47
f 101/26/47 100/25/47 102/23/47
f 102/23/47 100/25/47 103/24/47
f 102/23/47 103/24/47 104/22/47
f 107/27/50 106/28/49 105/27/48
f 106/28/49 107/27/50 108/28/51
f 105/27/54 106/28/53 107/27/52
f 108/28/55 107/27/52 106/28/53
f 85/27/56 107/27/50 105/27/48
f 107/27/50 85/27/56 87/27/57
f 105/27/54 107/27/52 85/27/58
f 87/27/59 85/27/58 107/27/52
f 111/29/60 110/29/60 109/29/60
f 110/29/60 111/29/60 112/29/60
f 109/29/61 110/29/61 111/29/61
f 112/29/61 111/29/61 110/29/61
f 115/30/60 114/30/60 113/30/60
f 114/30/60 115/30/60 116/30/60
f 113/30/61 114/30/61 115/30/61
f 116/30/61 115/30/61 114/30/61
f 107/27/52 116/30/3 87/27/59
f 116/30/3 107/27/52 114/30/3
f 114/30/3 107/27/52 108/28/55
f 114/30/3 108/28/55 110/29/3
f 110/29/3 108/28/55 117/28/62
f 112/29/3 114/30/3 110/29/3
f 87/27/57 116/30/6 107/27/50
f 114/30/6 107/27/50 116/30/6
f 108/28/51 107/27/50 114/30/6
f 110/29/6 108/28/51 114/30/6
f 110/29/6 114/30/6 112/29/6
f 117/28/63 108/28/51 110/29/6
f 118/28/64 108/28/55 106/28/53
f 108/28/55 118/28/64 117/28/62
f 106/28/49 108/28/51 118/28/65
f 117/28/63 118/28/65 108/28/51
f 115/30/6 105/27/54 85/27/58
f 105/27/54 115/30/6 113/30/6
f 105/27/54 113/30/6 106/28/53
f 106/28/53 113/30/6 109/29/6
f 109/29/6 113/30/6 111/29/6
f 106/28/53 109/29/6 118/28/64
f 85/27/56 105/27/48 115/30/3
f 113/30/3 115/30/3 105/27/48
f 106/28/49 113/30/3 105/27/48
f 109/29/3 113/30/3 106/28/49
f 118/28/65 109/29/3 106/28/49
f 111/29/3 113/30/3 109/29/3
f 121/33/47 120/32/47 119/31/47
f 120/32/47 121/33/47 122/34/47
f 120/32/47 122/34/47 123/35/47
f 123/35/47 122/34/47 124/32/47
f 124/32/47 122/34/47 125/33/47
f 124/32/47 125/33/47 126/31/47
f 3/1/1 2/2/1 1/1/1
f 2/2/1 3/1/1 4/2/1
f 6/2/2 3/1/3 5/1/2
f 3/1/3 6/2/2 4/2/3
f 9/2/5 8/1/4 7/2/4
f 8/1/4 9/2/5 10/1/5
f 13/2/6 12/1/7 11/1/6
f 12/1/7 13/2/6 14/2/7
f 14/2/7 8/1/4 12/1/7
f 8/1/4 14/2/7 7/2/4
f 9/2/5 5/1/2 10/1/5
f 5/1/2 9/2/5 6/2/2
f 5/1/8 8/1/8 10/1/8
f 8/1/8 5/1/8 12/1/8
f 12/1/8 5/1/8 3/1/8
f 12/1/8 3/1/8 11/1/8
f 11/1/8 3/1/8 1/1/8
f 14/2/9 9/2/9 7/2/9
f 9/2/9 14/2/9 6/2/9
f 6/2/9 14/2/9 13/2/9
f 6/2/9 13/2/9 4/2/9
f 4/2/9 13/2/9 2/2/9
f 17/1/1 16/2/1 15/1/1
f 16/2/1 17/1/1 18/2/1
f 20/2/2 17/1/3 19/1/2
f 17/1/3 20/2/2 18/2/3
f 23/2/5 22/1/4 21/2/4
f 22/1/4 23/2/5 24/1/5
f 27/2/6 26/1/7 25/1/6
f 26/1/7 27/2/6 28/2/7
f 28/2/7 22/1/4 26/1/7
f 22/1/4 28/2/7 21/2/4
f 23/2/5 19/1/2 24/1/5
f 19/1/2 23/2/5 20/2/2
f 19/1/8 22/1/8 24/1/8
f 22/1/8 19/1/8 26/1/8
f 26/1/8 19/1/8 17/1/8
f 26/1/8 17/1/8 25/1/8
f 25/1/8 17/1/8 15/1/8
f 28/2/9 23/2/9 21/2/9
f 23/2/9 28/2/9 20/2/9
f 20/2/9 28/2/9 27/2/9
f 20/2/9 27/2/9 18/2/9
f 18/2/9 27/2/9 16/2/9
f 31/2/10 30/4/10 29/3/10
f 30/4/10 31/2/10 32/5/10
f 32/5/10 31/2/10 33/2/10
f 32/5/10 33/2/10 34/5/10
f 34/5/10 33/2/10 35/3/10
f 34/5/10 35/3/10 36/4/10
f 39/7/11 38/6/12 37/6/11
f 38/6/12 39/7/11 40/7/12
f 43/7/14 42/6/13 41/7/13
f 42/6/13 43/7/14 44/6/14
f 47/6/16 46/7/15 45/6/15
f 46/7/15 47/6/16 48/7/16
f 51/7/17 50/6/18 49/6/17
f 50/6/18 51/7/17 52/7/18
f 40/7/12 47/6/16 38/6/12
f 47/6/16 40/7/12 48/7/16
f 46/7/15 49/6/17 45/6/15
f 49/6/17 46/7/15 51/7/17
f 43/7/14 37/6/11 44/6/14
f 37/6/11 43/7/14 39/7/11
f 52/7/18 42/6/13 50/6/18
f 42/6/13 52/7/18 41/7/13
f 37/6/8 42/6/8 44/6/8
f 42/6/8 37/6/8 50/6/8
f 50/6/8 37/6/8 38/6/8
f 50/6/8 38/6/8 49/6/8
f 49/6/8 38/6/8 47/6/8
f 49/6/8 47/6/8 45/6/8
f 52/7/9 43/7/9 41/7/9
f 43/7/9 52/7/9 39/7/9
f 39/7/9 52/7/9 51/7/9
f 39/7/9 51/7/9 40/7/9
f 40/7/9 51/7/9 46/7/9
f 40/7/9 46/7/9 48/7/9
f 55/8/8 54/8/8 53/8/8
f 54/8/8 55/8/8 56/8/8
f 59/9/9 58/9/9 57/9/9
f 58/9/9 59/9/9 60/9/9
f 55/8/1 59/9/1 56/8/1
f 59/9/1 55/8/1 60/9/1
f 59/9/6 54/8/6 56/8/6
f 54/8/6 59/9/6 57/9/6
f 58/9/10 54/8/10 57/9/10
f 54/8/10 58/9/10 53/8/10
f 58/9/3 55/8/3 53/8/3
f 55/8/3 58/9/3 60/9/3
f 63/10/19 62/8/20 61/10/19
f 62/8/20 63/10/19 64/8/20
f 67/8/22 66/10/21 65/10/21
f 66/10/21 67/8/22 68/8/22
f 65/10/24 62/8/23 67/8/23
f 62/8/23 65/10/24 61/10/24
f 63/10/26 68/8/25 64/8/25
f 68/8/25 63/10/26 66/10/26
f 69/11/27 66/10/26 63/10/26
f 66/10/26 69/11/27 70/11/27
f 71/11/28 61/10/24 65/10/24
f 61/10/24 71/11/28 72/11/28
f 72/11/29 63/10/19 61/10/19
f 63/10/19 72/11/29 69/11/29
f 66/10/21 71/11/30 65/10/21
f 71/11/30 66/10/21 70/11/30
f 73/12/31 72/11/28 71/11/28
f 72/11/28 73/12/31 74/12/31
f 75/12/32 70/11/27 69/11/27
f 70/11/27 75/12/32 76/12/32
f 75/12/33 72/11/29 74/12/33
f 72/11/29 75/12/33 69/11/29
f 71/11/30 76/12/34 73/12/34
f 76/12/34 71/11/30 70/11/30
f 56/9/35 74/12/31 73/12/31
f 74/12/31 56/9/35 54/9/35
f 54/9/36 75/12/33 74/12/33
f 75/12/33 54/9/36 53/9/36
f 53/9/37 76/12/32 75/12/32
f 76/12/32 53/9/37 55/9/37
f 76/12/34 56/9/38 73/12/34
f 56/9/38 76/12/34 55/9/38
f 77/13/39 30/14/40 32/13/39
f 30/14/40 77/13/39 78/14/40
f 80/16/42 29/15/41 79/15/41
f 29/15/41 80/16/42 31/16/42
f 79/15/41 30/14/40 78/14/40
f 30/14/40 79/15/41 29/15/41
f 80/16/42 33/16/43 31/16/42
f 33/16/43 80/16/42 81/16/43
f 34/13/44 77/13/39 32/13/39
f 77/13/39 34/13/44 82/13/44
f 81/16/43 35/15/45 33/16/43
f 35/15/45 81/16/43 83/15/45
f 35/15/45 84/14/46 36/14/46
f 84/14/46 35/15/45 83/15/45
f 36/14/46 82/13/44 34/13/44
f 82/13/44 36/14/46 84/14/46
f 78/14/1 80/16/1 79/15/1
f 80/16/1 78/14/1 85/14/1
f 85/14/1 78/14/1 77/13/1
f 86/15/1 80/16/1 85/14/1
f 85/14/1 77/13/1 87/14/1
f 80/16/1 86/15/1 81/16/1
f 87/14/1 77/13/1 82/13/1
f 81/16/1 86/15/1 88/15/1
f 87/14/1 82/13/1 88/15/1
f 81/16/1 88/15/1 83/15/1
f 83/15/1 88/15/1 82/13/1
f 83/15/1 82/13/1 84/14/1
f 91/19/47 90/18/47 89/17/47
f 90/18/47 91/19/47 92/20/47
f 90/18/47 92/20/47 93/21/47
f 93/21/47 92/20/47 94/18/47
f 94/18/47 92/20/47 95/19/47
f 94/18/47 95/19/47 96/17/47
f 99/24/47 98/23/47 97/22/47
f 98/23/47 99/24/47 100/25/47
f 98/23/47 100/25/47 101/26/47
f 101/26/47 100/25/47 102/23/47
f 102/23/47 100/25/47 103/24/47
f 102/23/47 103/24/47 104/22/47
f 107/27/50 106/28/49 105/27/48
f 106/28/49 107/27/50 108/28/51
f 105/27/54 106/28/53 107/27/52
f 108/28/55 107/27/52 106/28/53
f 85/27/56 107/27/50 105/27/48
f 107/27/50 85/27/56 87/27/57
f 105/27/54 107/27/52 85/27/58
f 87/27/59 85/27/58 107/27/52
f 111/29/60 110/29/60 109/29/60
f 110/29/60 111/29/60 112/29/60
f 109/29/61 110/29/61 111/29/61
f 112/29/61 111/29/61 110/29/61
f 115/30/60 114/30/60 113/30/60
f 114/30/60 115/30/60 116/30/60
f 113/30/61 114/30/61 115/30/61
f 116/30/61 115/30/61 114/30/61
f 107/27/52 116/30/3 87/27/59
f 116/30/3 107/27/52 114/30/3
f 114/30/3 107/27/52 108/28/55
f 114/30/3 108/28/55 110/29/3
f 110/29/3 108/28/55 117/28/62
f 112/29/3 114/30/3 110/29/3
f 87/27/57 116/30/6 107/27/50
f 114/30/6 107/27/50 116/30/6
f 108/28/51 107/27/50 114/30/6
f 110/29/6 108/28/51 114/30/6
f 110/29/6 114/30/6 112/29/6
f 117/28/63 108/28/51 110/29/6
f 118/28/64 108/28/55 106/28/53
f 108/28/55 118/28/64 117/28/62
f 106/28/49 108/28/51 118/28/65
f 117/28/63 118/28/65 108/28/51
f 115/30/6 105/27/54 85/27/58
f 105/27/54 115/30/6 113/30/6
f 105/27/54 113/30/6 106/28/53
f 106/28/53 113/30/6 109/29/6
f 109/29/6 113/30/6 111/29/6
f 106/28/53 109/29/6 118/28/64
f 85/27/56 105/27/48 115/30/3
f 113/30/3 115/30/3 105/27/48
f 106/28/49 113/30/3 105/27/48
f 109/29/3 113/30/3 106/28/49
f 118/28/65 109/29/3 106/28/49
f 111/29/3 113/30/3 109/29/3
f 121/33/47 120/32/47 119/31/47
f 120/32/47 121/33/47 122/34/47
f 120/32/47 122/34/47 123/35/47
f 123/35/47 122/34/47 124/32/47
f 124/32/47 122/34/47 125/33/47
f 124/32/47 125/33/47 126/31/47
