mtllib flat.mtl
v 0.082954 -0.003583 -0.11811
v 0.030264 -0.003583 -0.121412
v -0.003465 -0.003583 -0.097905
v -0.017015 -0.003583 -0.053862
v -0.02169 -0.003583 -0.006948
v 0.021744 -0.003583 0.016752
v 0.044448 -0.003583 -0.010616
v 0.103224 -0.003583 0.011511
v 0.126359 -0.003583 -0.043862
v 0.116776 -0.003583 -0.082951
v 0.080443 0.132315 -0.114605
v 0.002147 0.069179 -0.092628
v -0.01271 0.091522 -0.054099
v 0.025029 0.069179 0.009784
v 0.097612 0.069179 0.006234
v 0.110023 0.069179 -0.079244
v 0.030413 0.125187 -0.118053
v -0.000711 0.116375 -0.095976
v -0.017477 0.106524 -0.00926
v 0.024256 0.109247 0.013247
v 0.044298 0.116375 -0.013975
v 0.100471 0.125187 0.009581
v 0.118519 0.132315 -0.041685
v 0.112563 0.135038 -0.080638
v -0.004434 0.288186 -0.039648
v -0.025281 0.284264 -0.042562
v -0.052298 0.275495 -0.013376
v -0.032701 0.275495 0.022325
v -0.011855 0.279417 0.02524
v 0.006427 0.284264 0.015205
v 0.015162 0.288186 -0.003946
v -0.025281 0.321793 -0.042562
v -0.052298 0.313024 -0.013376
v -0.011855 0.316945 0.02524
v 0.006427 0.321793 0.015205
v 0.015162 0.325714 -0.003946
v -0.00269 0.423194 -0.051274
v -0.027056 0.415286 -0.024952
v -0.009382 0.415286 0.007247
v 0.025907 0.423194 0.000824
v 0.030043 0.428082 -0.035343
v 0.042015 0.49185 -0.063901
v 0.033895 0.500281 -0.059444
v 0.034092 0.509707 -0.037566
v 0.060562 0.49185 -0.030109
v 0.060366 0.482423 -0.051987
v 0.205373 0.627018 -0.150437
v 0.195814 0.640099 -0.137988
v 0.198578 0.642334 -0.127851
v 0.214317 0.634249 -0.117633
v 0.221112 0.618933 -0.14022
v 0.268463 0.008923 0.108734
v 0.243696 -0.003583 0.090348
v 0.213083 -0.003583 0.090348
v 0.188316 -0.003583 0.108734
v 0.178856 -0.003583 0.138482
v 0.213083 -0.003583 0.186617
v 0.243696 -0.003583 0.203408
v 0.268463 0.008923 0.168231
v 0.277923 0.010908 0.138482
v 0.236877 0.052636 0.113402
v 0.215543 0.052636 0.097902
v 0.189172 0.052636 0.097902
v 0.167837 0.052636 0.113402
v 0.159688 0.052636 0.138482
v 0.189172 0.052636 0.179063
v 0.215543 0.052636 0.192352
v 0.236877 0.052636 0.163563
v 0.234468 0.088259 0.115153
v 0.214622 0.088259 0.100734
v 0.170247 0.088259 0.115153
v 0.162667 0.088259 0.138482
v 0.190092 0.088259 0.176231
v 0.234468 0.088259 0.161812
v 0.264185 0.175947 0.127408
v 0.254764 0.175947 0.120563
v 0.243119 0.175947 0.120563
v 0.233698 0.175947 0.127408
v 0.233698 0.175947 0.149557
v 0.254764 0.175947 0.156402
v 0.310257 0.275965 0.138482
v 0.297237 0.275965 0.120563
v 0.276172 0.275965 0.127408
v 0.276172 0.275965 0.149557
v 0.297237 0.275965 0.156402
v 0.338237 0.329555 0.128994
v 0.328429 0.344706 0.123129
v 0.322367 0.35407 0.138482
v 0.328429 0.344706 0.153835
v 0.338237 0.329555 0.147971
v 0.543235 0.36733 0.133752
v 0.538345 0.374882 0.130829
v 0.536159 0.37826 0.133752
v 0.538345 0.374882 0.146136
v 0.541048 0.370708 0.146136
v 0.005731 0.432531 -0.028117
v -0.002164 0.42216 -0.033515
v -0.010058 0.411788 -0.028117
v -0.010058 0.411788 -0.002048
v -0.002164 0.42216 0.00335
v 0.009001 0.436827 -0.015082
v -0.037456 0.505529 -0.016953
v -0.044717 0.49599 -0.011988
v -0.047725 0.492039 0.0
v -0.037456 0.505529 0.016954
v -0.027188 0.519019 0.0
v -0.1292 0.619792 -0.010122
v -0.13533 0.611738 0.0
v -0.1292 0.619792 0.010122
v -0.12307 0.627846 0.0
v 0.282623 1.113719 -0.435949
v 0.428942 1.107515 -0.452333
v -0.012996 0.905276 0.144203
v 0.162651 0.653276 -0.358474
v 0.557762 0.96504 -0.453827
v 0.578027 0.97831 -0.144649
v 0.41211 0.987401 0.012997
v -0.157627 0.636597 0.110184
v -0.190097 0.61634 0.011129
v 0.547372 0.779442 -0.343098
v 0.559896 0.787644 -0.152016
v -0.01513 1.082673 -0.157608
v -0.173286 0.916643 -0.168034
v -0.136693 0.85676 0.11869
v -0.138216 0.983358 -0.096696
v 0.1 0.922005 -0.447988
v -0.160092 0.841437 -0.238318
v 0.248749 0.757489 -0.449713
v -0.171151 0.739247 0.133777
v -0.172089 0.627127 -0.110459
v 0.523303 0.847527 -0.43874
v 0.576707 1.087947 -0.331178
v 0.544238 1.06769 -0.430233
v 0.5587 1.07716 -0.20959
v 0.21357 0.865413 0.149153
v 0.16397 0.543639 -0.171945
v 0.546703 0.86285 -0.081732
v 0.103988 0.590568 0.115899
v 0.28661 0.782282 0.127938
v 0.401741 0.621614 -0.162442
v 0.251214 0.552649 -0.101211
v 0.524827 0.720929 -0.223354
v -0.293827 0.419625 0.056131
v -0.302153 0.413879 0.05287
v -0.308257 0.406347 0.057229
v -0.308563 0.407005 0.061351
v -0.288461 0.415314 0.074526
v -0.288155 0.42022 0.065101
v -0.366821 0.568453 0.138117
v -0.3729 0.569031 0.135588
v -0.381497 0.569848 0.144224
v -0.3729 0.569031 0.15286
v -0.325708 0.451713 0.098703
v -0.358794 0.521522 0.134346
v -0.339192 0.4423 0.100455
v -0.36389 0.516238 0.131281
v -0.371694 0.511272 0.140553
v -0.33714 0.443462 0.113753
v -0.364165 0.517842 0.150032
v -0.326502 0.453041 0.117857
v -0.35842 0.519654 0.147297
v 0.310376 0.995321 -0.431816
v 0.349474 1.001065 -0.440349
v 0.317562 0.879482 -0.572623
v 0.320661 0.870094 -0.564741
v 0.313476 0.985933 -0.423934
v 0.352573 0.991677 -0.432468
v 0.258956 0.937177 -0.49161
v 0.262055 0.927789 -0.483729
v 0.3889 0.946423 -0.511415
v 0.385801 0.955811 -0.519296
v 0.26931 0.964097 -0.464028
v 0.272409 0.95471 -0.456147
v 0.383751 0.971066 -0.480449
v 0.380652 0.980453 -0.48833
v 0.264154 0.91067 -0.524356
v 0.267254 0.901282 -0.516475
v 0.37829 0.917593 -0.54071
v 0.37519 0.926981 -0.548591
v -0.427844 0.799408 -0.437187
v -0.401362 0.796804 -0.453795
v -0.408832 0.660917 -0.414779
v -0.40359 0.662937 -0.406738
v -0.422602 0.801428 -0.429146
v -0.396121 0.798825 -0.445753
v -0.457585 0.735757 -0.408152
v -0.452343 0.737778 -0.400111
v -0.366429 0.72933 -0.453992
v -0.371671 0.727309 -0.462033
v -0.453685 0.764774 -0.418229
v -0.448443 0.766795 -0.410188
v -0.37303 0.75938 -0.457483
v -0.378272 0.757359 -0.465524
v -0.45068 0.703809 -0.40411
v -0.445438 0.70583 -0.396069
v -0.370232 0.698435 -0.443234
v -0.375473 0.696414 -0.451276
v 0.635594 0.616269 -0.167429
v 0.659507 0.629926 -0.152412
v 0.733962 0.587419 -0.265076
v 0.735963 0.578946 -0.260556
v 0.637595 0.607796 -0.16291
v 0.661508 0.621453 -0.147893
v 0.648955 0.588403 -0.236883
v 0.650956 0.57993 -0.232364
v 0.728538 0.624238 -0.183645
v 0.726537 0.632712 -0.188164
v 0.635028 0.598974 -0.211329
v 0.637029 0.590501 -0.20681
v 0.705128 0.629394 -0.164045
v 0.703127 0.637867 -0.168565
v 0.673722 0.582605 -0.257804
v 0.675723 0.574132 -0.253285
v 0.743636 0.612918 -0.210637
v 0.741634 0.621391 -0.215157
v 0.483821 0.701271 0.263927
v 0.452785 0.702929 0.268153
v 0.488409 0.772943 0.385934
v 0.488632 0.764484 0.390895
v 0.484045 0.692812 0.268888
v 0.453009 0.694469 0.273114
v 0.52813 0.737723 0.313797
v 0.528354 0.729263 0.318758
v 0.427662 0.734639 0.332467
v 0.427438 0.743099 0.327506
v 0.517638 0.722951 0.288689
v 0.517861 0.714492 0.29365
v 0.429476 0.719211 0.305683
v 0.429252 0.72767 0.300722
v 0.526482 0.753964 0.342401
v 0.526706 0.745505 0.347362
v 0.438564 0.750211 0.359363
v 0.43834 0.75867 0.354402
v 0.314042 1.020003 -0.191439
v 0.332872 1.029854 -0.229909
v 0.166916 1.134491 -0.259241
v 0.160989 1.123488 -0.264959
v 0.308115 1.009 -0.197157
v 0.326945 1.018851 -0.235628
v 0.221315 1.067096 -0.168424
v 0.215388 1.056092 -0.174142
v 0.276479 1.088052 -0.298953
v 0.282406 1.099055 -0.293234
v 0.258915 1.045653 -0.165465
v 0.252988 1.03465 -0.171184
v 0.306612 1.062703 -0.280739
v 0.312539 1.073707 -0.275021
v 0.188914 1.093777 -0.187602
v 0.182987 1.082773 -0.193321
v 0.236464 1.11075 -0.302575
v 0.242391 1.121753 -0.296857
v -0.318083 1.134459 -0.256732
v -0.350412 1.147513 -0.294191
v -0.492595 1.283542 -0.119134
v -0.498254 1.268576 -0.119465
v -0.323742 1.119493 -0.257064
v -0.356072 1.132547 -0.294522
v -0.354404 1.24082 -0.139884
v -0.360064 1.225854 -0.140215
v -0.464951 1.268206 -0.261743
v -0.459292 1.283172 -0.261412
v -0.326564 1.187465 -0.181004
v -0.347278 1.189073 -0.181335
v -0.439346 1.226249 -0.28801
v -0.418632 1.224641 -0.287679
v -0.397552 1.255773 -0.111567
v -0.403212 1.240807 -0.111899
v -0.495026 1.277881 -0.21828
v -0.489367 1.292847 -0.217949
v -0.384691 0.781485 0.31528
v -0.41799 0.787979 0.343219
v -0.330285 0.643316 0.446809
v -0.337764 0.633957 0.440071
v -0.39217 0.772126 0.308542
v -0.425468 0.77862 0.336481
v -0.309433 0.711642 0.34363
v -0.316911 0.702283 0.336892
v -0.424943 0.723354 0.427535
v -0.417465 0.732712 0.434273
v -0.3312 0.743605 0.323963
v -0.338679 0.734246 0.317225
v -0.433507 0.752742 0.39679
v -0.426028 0.7621 0.403528
v -0.300167 0.680073 0.375988
v -0.307646 0.670714 0.369251
v -0.402213 0.689159 0.448597
v -0.394735 0.698517 0.455334
v -0.10147 -0.003583 0.009229
v -0.195806 -0.003583 -0.021422
v -0.237994 -0.003583 0.009229
v -0.254108 -0.003583 0.058824
v -0.237994 -0.003583 0.10842
v -0.185593 -0.003583 0.0885
v -0.143659 -0.003583 0.139071
v -0.10147 -0.003583 0.10842
v -0.117044 0.109384 0.020544
v -0.149607 0.109384 -0.003115
v -0.222421 0.109384 0.020544
v -0.234859 0.109384 0.058824
v -0.222421 0.109384 0.097105
v -0.179645 0.109384 0.070192
v -0.149607 0.109384 0.120764
v -0.117044 0.109384 0.097105
v -0.141777 0.175015 0.038514
v -0.18041 0.175015 0.025962
v -0.204286 0.175015 0.058824
v -0.197687 0.175015 0.079135
v -0.18041 0.175015 0.091687
v -0.159054 0.175015 0.091687
v -0.149298 0.303722 0.043173
v -0.161927 0.299507 0.0335
v -0.177537 0.294297 0.0335
v -0.19499 0.288471 0.058824
v -0.177537 0.294297 0.084149
v -0.149298 0.303722 0.074476
v -0.144474 0.305332 0.058824
v -0.175983 0.36749 0.044504
v -0.214419 0.345924 0.058824
v -0.199738 0.354161 0.081995
v -0.175983 0.36749 0.073145
v -0.264631 0.420941 0.047832
v -0.270687 0.413816 0.041038
v -0.278172 0.405009 0.041038
v -0.286541 0.395163 0.058824
v -0.278172 0.405009 0.076611
v -0.264631 0.420941 0.069817
v -0.346535 0.451161 0.048556
v -0.359184 0.436278 0.04221
v -0.367001 0.42708 0.058824
v -0.359184 0.436278 0.075439
v -0.346535 0.451161 0.069093
v -0.487931 0.542463 0.05116
v -0.497373 0.531354 0.046423
v -0.503208 0.524489 0.058824
v -0.497373 0.531354 0.071226
v -0.487931 0.542463 0.066489
v -0.692522 0.667954 0.240638
v -0.728281 0.658392 0.216944
v -0.722411 0.487646 0.317751
v -0.714464 0.482149 0.307976
v -0.684575 0.662456 0.230864
v -0.720334 0.652894 0.207169
v -0.662343 0.597795 0.314885
v -0.654396 0.592298 0.305111
v -0.770411 0.561275 0.228238
v -0.778357 0.566773 0.238013
v -0.667005 0.63385 0.291208
v -0.659059 0.628353 0.281434
v -0.760893 0.601121 0.213957
v -0.76884 0.606619 0.223732
v -0.671989 0.555312 0.330105
v -0.664042 0.549815 0.320331
v -0.765597 0.522658 0.25304
v -0.773544 0.528156 0.262814
v -0.488234 0.891627 -0.511654
v -0.157883 1.360745 -0.416395
v -0.791828 0.972948 -0.015027
v -0.844934 0.681947 0.156142
v -0.782312 0.746713 -0.173531
v 0.09901 1.103454 -0.597512
v 0.031838 0.987337 0.110588
v -0.482276 0.773367 0.402502
v -0.554414 0.457878 -0.052997
v 0.097663 0.941763 -0.548038
v -0.416633 1.25596 -0.428734
v -0.820471 0.856973 -0.092205
v -0.789155 0.917083 0.161571
v -0.77582 0.600069 -0.060534
v -0.316 1.207424 -0.562121
v -0.716907 0.501404 0.212815
v -0.708404 0.492964 0.044144
v -0.232576 0.72744 -0.50295
v 0.090769 1.299379 -0.460243
v 0.046105 1.23841 -0.584608
v 0.156173 1.054071 -0.073897
v -0.503743 0.555139 0.357622
v -0.368649 0.481052 -0.159448
v -0.122507 0.5431 0.007761
v 0.045173 0.670323 -0.111517
v 0.165689 0.827835 -0.232401
v 0.292071 0.272564 0.137308
v 0.281732 0.246898 0.129024
v 0.273135 0.247687 0.137308
v 0.270085 0.255762 0.145592
v 0.274368 0.266393 0.149023
v 0.260642 0.327883 0.111597
v 0.249429 0.300047 0.102613
v 0.240106 0.300903 0.111597
v 0.236798 0.309661 0.120582
v 0.241443 0.321191 0.124303
v 0.169277 0.607504 0.012082
v 0.166504 0.60062 0.00986
v 0.155041 0.596625 0.017445
v 0.155839 0.608737 0.025031
v 0.161736 0.613244 0.022809
v 0.218451 0.436873 0.070778
v 0.210601 0.430874 0.073736
v 0.209539 0.41475 0.063638
v 0.224798 0.420068 0.053541
v 0.228489 0.429232 0.056498
v 0.396227 0.72592 -0.121966
v 0.766147 0.649246 -0.077344
v 0.774591 0.660857 0.077562
v 0.088725 0.772968 0.169545
v 0.425811 0.458353 -0.13757
v 0.696749 0.32681 -0.048647
v 0.835992 0.558155 0.060898
v 0.268598 0.725371 0.39433
v 0.133359 0.503099 0.139674
v 0.359054 0.378477 0.271486
v 0.378957 0.581656 0.412089
v 0.205343 0.778846 0.008896
v 0.603522 0.706124 -0.136222
v 0.409653 0.554133 -0.163795
v 0.071958 0.605801 0.156338
v 0.178681 0.694397 -0.01839
v 0.815893 0.469931 -0.114792
v 0.638458 0.610425 -0.185958
v 0.130324 0.778523 0.312368
v 0.482139 0.705602 0.354805
v 0.055797 0.6547 0.253736
v 0.445678 0.37885 -0.078932
v 0.161523 0.626723 0.385861
v 0.092057 0.694025 0.332028
v 0.236971 0.410782 0.118921
v 0.685201 0.308706 0.056187
v 0.625045 0.536711 0.322401
v 0.702608 0.38511 0.208339
v 0.72927 0.469559 0.235626
v 0.498298 0.609823 0.381031
v 0.269492 0.553531 0.403194
v 0.643212 0.32658 0.167924
vn 0.0625 0.0269 -0.9977
vn -0.5687 0.1031 -0.816
vn -0.9515 0.0946 -0.2927
vn -0.9241 0.0409 -0.38
vn -0.9941 0.0448 -0.0991
vn -0.4763 0.1051 0.873
vn 0.7694 0.0264 0.6382
vn -0.352 0.0407 0.9351
vn 0.9182 0.0986 0.3836
vn 0.9662 0.1017 -0.2369
vn 0.9499 0.2803 0.1379
vn 0.7169 0.1017 -0.6897
vn 0.7927 0.0304 -0.6089
vn 0.0651 0.0259 -0.9975
vn -0.6899 0.0197 -0.7236
vn -0.5586 -0.0923 -0.8243
vn -0.9447 -0.0798 -0.318
vn -0.9925 0.0355 -0.1174
vn -0.3836 0.0341 0.9229
vn -0.4687 -0.085 0.8793
vn 0.7575 0.0192 0.6525
vn 0.8091 -0.0351 0.5866
vn -0.3341 0.026 0.9422
vn -0.3817 -0.0357 0.9236
vn 0.944 -0.0675 0.323
vn 0.9668 -0.2136 0.1404
vn 0.9872 -0.0413 -0.1538
vn 0.7276 -0.0426 -0.6847
vn 0.0003 0.4335 -0.9011
vn 0.0425 0.4404 -0.8968
vn -0.6009 0.1611 -0.7829
vn -0.9317 -0.125 -0.3411
vn -0.745 0.1008 -0.6594
vn -0.9786 -0.2026 -0.0363
vn -0.4545 -0.2031 0.8673
vn -0.8644 -0.1666 0.4745
vn 0.7834 0.1233 0.6091
vn -0.1202 -0.0952 0.9882
vn -0.3442 -0.2356 0.9089
vn 0.4891 -0.0411 0.8712
vn 0.8172 0.4569 0.3512
vn 0.7775 0.4439 0.4455
vn 0.8206 0.565 -0.086
vn 0.5644 0.5866 -0.5808
vn 0.685 0.624 -0.376
vn 0.1384 -0.0 -0.9904
vn -0.7338 -0.0 -0.6793
vn -0.8766 -0.0 0.4812
vn -0.6752 0.2919 0.6775
vn -0.1384 -0.0 0.9904
vn 0.4812 -0.0 0.8766
vn 0.9098 -0.0 0.415
vn 0.8766 -0.0 -0.4812
vn 0.6341 0.3328 -0.6979
vn -0.7456 0.1096 -0.6573
vn -0.8461 0.2614 0.4644
vn -0.6905 0.1469 0.7082
vn 0.1382 0.1749 0.9748
vn 0.474 0.0337 0.8799
vn 0.9123 -0.1197 0.3916
vn 0.9887 -0.1138 0.0977
vn 0.6855 -0.2125 -0.6963
vn 0.4528 -0.321 -0.8319
vn -0.7442 0.2894 -0.602
vn -0.402 0.0943 -0.9108
vn -0.741 0.5342 0.4068
vn -0.8329 0.511 -0.2127
vn 0.0267 0.4186 0.9078
vn 0.0844 0.3736 0.9237
vn 0.8997 -0.4342 0.0442
vn 0.8814 -0.4366 0.1802
vn 0.4458 -0.4342 -0.7828
vn 0.3212 -0.4366 -0.8403
vn -0.457 0.0298 -0.889
vn -0.6122 0.2624 -0.7458
vn -0.6911 0.666 -0.2807
vn -0.6507 0.7592 0.0101
vn 0.084 0.4874 0.8691
vn -0.1616 0.6375 0.7533
vn 0.732 -0.6281 0.264
vn 0.6982 -0.4772 0.5337
vn 0.1468 -0.6531 -0.7429
vn 0.4151 0.3878 -0.823
vn 0.5452 0.3738 -0.7504
vn -0.0 0.1332 -0.9911
vn -0.5898 -0.1441 -0.7946
vn -0.5815 -0.1454 -0.8004
vn -0.9071 -0.3065 -0.2885
vn -0.9047 -0.3084 -0.2939
vn -0.787 -0.2595 0.5596
vn -0.7799 -0.2659 0.5666
vn -0.4798 -0.0682 0.8747
vn -0.4489 -0.0712 0.8908
vn 0.6102 0.506 0.6095
vn 0.713 0.461 0.5284
vn 0.7632 0.5816 0.2815
vn 0.7632 0.5816 -0.2815
vn 0.7129 0.7013 -0.0
vn 0.5859 0.0793 -0.8065
vn -0.0 0.0793 -0.9969
vn -0.5859 0.0793 -0.8065
vn -0.2963 0.2842 -0.9118
vn -0.9481 0.0793 -0.308
vn -0.8072 0.0675 0.5864
vn -0.4485 0.0824 0.89
vn 0.8006 0.0833 0.5933
vn 0.259 0.5457 0.797
vn 0.9977 0.0675 -0.0
vn 0.5856 -0.0858 -0.806
vn -0.0 0.2206 -0.9754
vn -0.2911 0.3358 -0.8958
vn -0.5506 0.3503 -0.7578
vn -0.7677 0.5903 -0.2494
vn -0.777 0.6294 -0.0
vn -0.6995 0.5024 0.5082
vn -0.2825 0.405 0.8696
vn 0.309 -0.0128 0.951
vn 0.9471 -0.321 -0.0
vn 0.9324 -0.1971 0.303
vn 0.5703 -0.2422 -0.7849
vn 0.7733 -0.294 -0.5618
vn -0.0 -0.0 -1.0
vn -0.5703 0.2422 -0.7849
vn -0.3048 0.1649 -0.938
vn -0.9204 0.3909 -0.0
vn -0.3064 0.1301 0.943
vn 0.7651 -0.3249 0.5559
vn 0.86 -0.4271 0.2794
vn 0.7159 -0.4659 -0.5201
vn 0.3567 -0.1273 -0.9255
vn -0.3044 0.1731 -0.9367
vn -0.7961 0.6052 -0.0
vn -0.7611 0.3751 -0.5293
vn -0.6763 0.4793 0.5594
vn -0.3044 0.1731 0.9367
vn 0.7159 -0.4659 0.5201
vn 0.3567 -0.1273 0.9255
vn 0.8864 -0.4628 -0.0
vn 0.0799 -0.3144 -0.9459
vn -0.0621 0.6299 -0.7742
vn -0.106 0.8298 -0.5479
vn -0.0826 0.836 0.5425
vn -0.1264 0.9511 0.2817
vn 0.0335 0.0217 0.9992
vn 0.0732 -0.3185 0.9451
vn 0.1928 -0.9375 0.2897
vn 0.1812 -0.9834 -0.0
vn 0.251 0.2897 -0.9236
vn -0.5184 -0.0498 -0.8537
vn -0.9247 -0.3806 -0.0
vn -0.8536 -0.3919 -0.3433
vn -0.3661 -0.195 0.9099
vn -0.6283 -0.377 0.6805
vn 0.7499 0.2154 0.6255
vn 0.776 0.5148 -0.3644
vn 0.612 0.3952 -0.6851
vn -0.3395 -0.2179 -0.915
vn -0.75 -0.5489 -0.3691
vn -0.6051 -0.4026 -0.6868
vn -0.5825 -0.4263 0.692
vn 0.5358 0.472 0.7001
vn 0.5358 0.472 -0.7001
vn 0.2759 0.8295 0.4856
vn 0.0613 0.9826 0.1752
vn -0.5831 0.5905 -0.5579
vn -0.4047 0.7871 0.4655
vn -0.5079 -0.3765 -0.7748
vn -0.0419 0.0425 -0.9982
vn 0.0281 0.0359 -0.999
vn -0.4228 -0.3736 -0.8257
vn -0.1147 -0.0933 -0.989
vn -0.1106 0.9633 0.2446
vn 0.6419 -0.0905 0.7615
vn -0.1947 -0.0194 0.9807
vn -0.5202 -0.4159 -0.7459
vn 0.0894 -0.1526 -0.9842
vn 0.2703 -0.7509 -0.6026
vn 0.2646 0.249 -0.9317
vn 0.3623 0.8827 -0.2993
vn 0.9939 -0.0921 -0.0612
vn 0.9183 0.1996 -0.3418
vn 0.0529 0.994 0.096
vn -0.2206 0.9463 0.2363
vn 0.6045 0.5166 0.6064
vn 0.9417 0.2928 0.1655
vn 0.1006 0.6637 0.7412
vn -0.0401 -0.1043 0.9937
vn -0.9183 -0.1996 0.3418
vn 0.2897 -0.8242 -0.4865
vn -0.2605 -0.9575 -0.1235
vn -0.2933 -0.8251 -0.4829
vn 0.8497 -0.3044 -0.4305
vn 0.9523 -0.1017 0.2876
vn 0.6807 0.1994 0.7049
vn 0.614 0.0652 0.7866
vn 0.4709 0.1941 0.8606
vn 0.1031 -0.1599 0.9817
vn 0.5831 -0.5905 0.5579
vn 0.6389 -0.4625 0.6148
vn -0.173 -0.9523 0.2515
vn -0.1332 -0.9822 0.1324
vn -0.0244 -0.9875 0.1559
vn 0.31 -0.9128 -0.266
vn 0.5169 -0.5344 0.6688
vn 0.5746 -0.6461 0.5025
vn 0.5044 -0.8095 -0.3006
vn 0.9017 -0.4305 -0.0406
vn 0.6838 -0.6696 0.29
vn 0.0427 0.4703 -0.8815
vn -0.3106 0.2755 -0.9097
vn -0.7678 0.0106 -0.6405
vn -0.8477 -0.501 0.1746
vn -0.4572 -0.5185 0.7225
vn 0.0363 -0.4274 0.9033
vn 0.4653 -0.1617 0.8703
vn 0.9071 0.4195 0.0343
vn 0.9052 0.4249 0.008
vn -0.2129 0.697 -0.6847
vn -0.4711 0.546 -0.6928
vn -0.7158 0.1915 -0.6715
vn -0.7223 -0.6893 0.0564
vn -0.6471 -0.7443 0.1649
vn -0.0259 -0.8272 0.5613
vn 0.2558 -0.6066 0.7527
vn 0.7602 0.5659 0.3192
vn 0.6916 0.722 -0.0214
vn 0.4217 0.8473 -0.3228
vn 0.3981 0.1419 -0.9063
vn -0.7404 -0.0821 -0.6671
vn -0.7103 -0.064 -0.701
vn -0.7148 -0.1623 0.6802
vn -0.7072 -0.1587 0.689
vn 0.424 0.0223 0.9054
vn 0.9856 0.1689 -0.0041
vn 0.904 0.2241 0.364
vn -0.2327 0.8296 -0.5076
vn 0.2327 -0.8296 0.5076
vn 0.2326 -0.8296 0.5076
vn 0.8023 0.5163 0.2995
vn -0.718 0.293 0.6314
vn -0.718 0.293 0.6313
vn -0.9621 -0.2655 0.0621
vn 0.246 -0.7339 0.6331
vn 0.9359 0.0134 -0.3521
vn 0.9359 0.0133 -0.3521
vn -0.246 0.7339 -0.6331
vn -0.246 0.7339 -0.6332
vn -0.9337 -0.0077 0.358
vn 0.2456 -0.7382 0.6283
vn 0.9611 0.2706 -0.0556
vn -0.2456 0.7382 -0.6283
vn -0.7068 -0.577 -0.4093
vn 0.2514 -0.6621 0.706
vn 0.6067 -0.384 -0.696
vn -0.2514 0.6621 -0.706
vn -0.5347 -0.0624 -0.8428
vn 0.5347 0.0624 0.8428
vn 0.6382 0.5375 -0.5511
vn 0.6383 0.5375 -0.5511
vn -0.689 0.668 0.2812
vn -0.8206 -0.1063 0.5616
vn 0.5338 0.2187 0.8168
vn 0.8364 -0.2692 -0.4775
vn -0.5338 -0.2187 -0.8168
vn -0.8353 0.2772 0.4748
vn 0.5341 0.2124 0.8183
vn 0.8188 0.1145 -0.5625
vn -0.5341 -0.2124 -0.8183
vn -0.5433 -0.6593 0.5198
vn -0.5432 -0.6593 0.5198
vn 0.5261 0.317 0.7892
vn 0.6035 -0.7721 -0.1994
vn -0.5261 -0.317 -0.7892
vn -0.2909 0.8914 -0.3474
vn 0.2909 -0.8914 0.3474
vn 0.2196 0.499 0.8383
vn -0.9789 -0.1855 0.0857
vn -0.6298 -0.4761 -0.6137
vn 0.196 -0.8604 0.4704
vn 0.8664 0.3784 0.3259
vn -0.196 0.8604 -0.4704
vn -0.8702 -0.3756 -0.3189
vn 0.2 -0.8621 0.4656
vn 0.6235 0.4775 0.6191
vn -0.2 0.8621 -0.4656
vn -0.067 -0.4818 -0.8737
vn 0.1319 -0.8288 0.5438
vn 0.9685 0.1096 -0.2234
vn -0.1319 0.8288 -0.5438
vn -0.0433 0.7802 -0.624
vn 0.0433 -0.7802 0.624
vn -0.8661 -0.2697 -0.4209
vn 0.6894 -0.3528 -0.6327
vn 0.9985 0.0451 0.0319
vn 0.0209 -0.8689 0.4946
vn -0.9434 0.1488 0.2963
vn -0.0209 0.8689 -0.4946
vn 0.9406 -0.1529 -0.3031
vn 0.0219 -0.8657 0.5001
vn -0.998 -0.0494 -0.0392
vn -0.0219 0.8657 -0.5001
vn 0.7769 0.3337 0.534
vn 0.0062 -0.9147 0.4042
vn -0.5671 0.4055 0.7169
vn -0.0062 0.9147 -0.4042
vn 0.5419 0.7115 0.4474
vn -0.5419 -0.7115 -0.4474
vn 0.8276 -0.1674 -0.5357
vn 0.1541 -0.5197 0.8403
vn -0.5733 -0.1129 0.8115
vn -0.4208 -0.8078 -0.4128
vn 0.2675 0.327 -0.9064
vn 0.4208 0.8078 0.4128
vn -0.2602 -0.3312 0.907
vn -0.426 -0.8042 -0.4144
vn 0.5792 0.108 -0.808
vn 0.426 0.8042 0.4144
vn -0.8738 0.2557 0.4136
vn -0.3369 -0.8593 -0.3849
vn -0.2919 0.5601 -0.7753
vn 0.3369 0.8593 0.3849
vn 0.6811 0.6335 -0.3671
vn -0.682 -0.6317 0.3685
vn -0.0373 0.0362 -0.9986
vn 0.0241 0.1052 -0.9942
vn 0.7891 -0.3101 0.5302
vn -0.0728 -0.8209 0.5664
vn 0.4871 -0.203 0.8494
vn -0.3446 -0.9383 -0.0296
vn -0.7528 0.2977 -0.5871
vn -0.7528 0.2977 -0.5872
vn 0.3446 0.9383 0.0296
vn -0.0612 -0.6291 0.7749
vn 0.7923 -0.3112 0.5247
vn -0.6777 -0.6401 0.3618
vn 0.0483 0.4367 -0.8983
vn -0.5096 0.2112 -0.8341
vn 0.6798 0.6361 -0.3651
vn -0.0773 0.0072 0.997
vn -0.2718 -0.9572 -0.099
vn -0.9354 0.3537 0.0028
vn 0.2718 0.9572 0.099
vn 0.4861 0.7778 0.3985
vn -0.4861 -0.7778 -0.3985
vn -0.8183 0.5596 0.131
vn 0.3727 0.3273 -0.8683
vn 0.8129 -0.2831 -0.509
vn -0.5488 -0.6715 -0.498
vn -0.6741 0.0069 0.7386
vn 0.5488 0.6715 0.498
vn 0.6698 -0.0007 -0.7425
vn -0.5465 -0.6762 -0.4941
vn -0.8146 0.2888 0.503
vn 0.5465 0.6762 0.4941
vn 0.7791 -0.6269 0.006
vn -0.582 -0.5937 -0.5557
vn -0.25 -0.4262 0.8694
vn 0.582 0.5937 0.5557
vn 0.3089 0.0277 -0.9507
vn 0.5802 0.16 -0.7986
vn -0.5802 0.16 -0.7986
vn -0.2975 0.2701 -0.9157
vn -0.9388 0.16 -0.305
vn -0.9388 0.16 0.305
vn 0.355 0.0446 0.9338
vn 0.5294 0.1085 0.8414
vn -0.7683 0.0628 0.6371
vn -0.8528 0.127 0.5065
vn 0.5802 0.16 0.7986
vn 0.9906 0.1366 -0.0
vn 0.5374 0.4051 -0.7397
vn 0.2689 0.4928 -0.8275
vn -0.2979 0.2663 -0.9167
vn -0.704 0.4928 -0.5114
vn -0.8695 0.4051 -0.2825
vn -0.8695 0.4051 0.2825
vn 0.5323 0.0311 0.846
vn -0.5672 -0.2623 0.7807
vn -0.8553 0.1019 0.508
vn -0.0 -0.3112 0.9503
vn 0.5374 0.4051 0.7397
vn 0.9358 0.3526 -0.0
vn 0.8031 0.5356 0.261
vn 0.309 0.0117 -0.951
vn 0.5933 0.0637 -0.8024
vn -0.0212 0.0636 -0.9978
vn -0.8072 0.0661 -0.5865
vn -0.828 0.0552 -0.558
vn -0.9482 0.0777 0.3081
vn -0.8301 0.1173 0.5451
vn -0.5865 0.0651 0.8073
vn -0.0 0.0631 0.998
vn 0.2907 0.1051 0.951
vn 0.9506 -0.0308 0.3089
vn 0.9561 -0.0257 0.292
vn 0.9516 0.0665 -0.3001
vn 0.5378 0.2419 -0.8076
vn -0.0499 0.1495 -0.9875
vn -0.4154 0.1439 -0.8982
vn -0.7664 -0.2592 -0.5878
vn -0.7664 -0.2592 0.5878
vn -0.7694 -0.2644 0.5815
vn 0.2795 0.1378 0.9502
vn 0.2779 0.1361 0.9509
vn 0.8753 0.3727 0.3081
vn 0.8753 0.3727 -0.3081
vn 0.8919 0.4521 -0.0
vn 0.2853 0.5232 -0.803
vn -0.142 -0.3593 -0.9223
vn 0.1529 -0.1299 -0.9797
vn -0.457 -0.6694 -0.5856
vn -0.457 -0.6694 0.5856
vn -0.4812 -0.6842 0.5481
vn 0.1268 0.2959 0.9468
vn 0.1628 0.3279 0.9306
vn 0.5164 0.8564 -0.0
vn 0.2062 0.5778 -0.7897
vn -0.0696 0.0591 -0.9958
vn 0.1067 0.3119 -0.9441
vn -0.3038 -0.7658 -0.5669
vn -0.3038 -0.7658 0.5669
vn 0.1067 0.3119 0.9441
vn 0.3462 0.9382 -0.0
vn 0.1575 0.271 -0.9496
vn -0.4712 -0.6588 -0.5864
vn -0.4712 -0.6588 0.5864
vn 0.1575 0.271 0.9496
vn 0.5425 0.8401 -0.0
vn -0.5632 0.5249 0.6382
vn 0.5632 -0.5249 -0.6382
vn -0.6019 0.3794 -0.7027
vn 0.6772 0.7214 0.1448
vn 0.7867 0.0421 0.6159
vn 0.5789 -0.3883 -0.717
vn -0.8101 -0.3849 -0.4421
vn -0.5789 0.3883 0.717
vn 0.8093 0.392 0.4375
vn 0.5786 -0.3941 -0.7141
vn -0.7848 -0.0343 -0.6188
vn -0.5786 0.3941 0.7141
vn 0.5079 -0.5058 0.6974
vn 0.5079 -0.5058 0.6973
vn 0.5813 -0.2947 -0.7584
vn -0.5973 -0.8013 -0.0349
vn -0.5813 0.2947 0.7584
vn -0.7985 0.2784 -0.5337
vn -0.6945 0.5096 -0.508
vn -0.9712 0.2289 0.0656
vn -0.9786 0.1915 0.0754
vn -0.7788 0.1748 -0.6024
vn -0.9534 -0.1942 -0.2308
vn -0.9625 -0.191 -0.1926
vn -0.7121 0.2859 -0.6413
vn -0.2998 0.8013 -0.5177
vn -0.3549 0.8898 0.2869
vn -0.0456 0.8785 0.4755
vn -0.3193 0.7152 0.6217
vn -0.5782 0.1185 0.8072
vn -0.8139 -0.5809 -0.012
vn -0.8231 -0.5658 -0.0488
vn -0.3486 -0.5817 -0.7349
vn -0.4662 -0.7508 -0.4679
vn -0.1985 -0.9793 0.039
vn -0.4027 -0.6607 -0.6335
vn -0.1091 -0.0986 -0.9891
vn -0.0677 0.0686 -0.9953
vn -0.1046 0.7397 -0.6648
vn 0.1313 0.8707 -0.474
vn 0.8072 0.3611 -0.4669
vn 0.2778 0.8282 0.4868
vn 0.289 0.8296 0.4778
vn 0.9891 0.11 -0.0976
vn -0.5373 -0.1189 0.835
vn 0.0966 -0.9711 0.2181
vn 0.464 -0.7965 -0.3875
vn -0.0798 -0.1763 -0.9811
vn 0.0595 -0.2925 -0.9544
vn -0.0376 0.8364 0.5468
vn 0.161 -0.9647 0.2086
vn 0.5702 -0.3681 0.7344
vn 0.6569 -0.2133 0.7232
vn 0.1791 -0.9788 0.0995
vn 0.4147 -0.7943 -0.444
vn 0.4249 -0.8506 -0.3099
vn 0.7106 -0.3834 0.59
vn 0.5662 -0.7288 -0.3851
vn 0.9679 -0.0808 -0.2378
vn 0.8392 -0.288 0.4614
vn 0.6299 -0.0031 -0.7767
vn -0.5749 -0.6166 -0.5378
vn -0.5749 -0.6167 -0.5378
vn -0.8702 -0.4724 0.1401
vn -0.6106 -0.0096 0.7919
vn 0.3232 0.5436 0.7746
vn 0.765 -0.103 -0.6358
vn -0.6445 -0.4373 -0.6272
vn -0.3966 -0.416 -0.8184
vn -0.9553 -0.2869 -0.0721
vn -0.9581 -0.104 0.2668
vn -0.7503 0.0909 0.6548
vn 0.0182 0.4228 0.906
vn 0.3787 0.4496 0.809
vn 0.8264 0.4478 0.3414
vn 0.1283 0.2985 0.9458
vn -0.909 -0.1765 0.3775
vn -0.433 -0.3416 -0.8342
vn 0.6141 0.0073 -0.7892
vn 0.8406 0.3763 0.3896
vn 0.072 0.9567 -0.282
vn 0.197 0.9792 0.0497
vn 0.3574 0.9297 -0.0892
vn 0.1808 0.9693 0.1667
vn -0.444 0.1791 -0.878
vn -0.6325 -0.302 -0.7133
vn -0.6785 -0.399 -0.6168
vn -0.8736 0.1248 -0.4703
vn -0.7466 0.406 -0.5271
vn 0.2026 -0.2267 -0.9527
vn -0.0446 0.2331 -0.9714
vn -0.1852 0.3991 -0.898
vn 0.4468 0.5356 -0.7166
vn 0.5575 0.3151 -0.768
vn 0.0191 -0.4325 -0.9014
vn 0.163 0.9866 0.0127
vn 0.2135 0.9718 -0.1
vn 0.15 0.9257 0.3473
vn -0.9692 0.1144 -0.2183
vn -0.6803 -0.2981 -0.6695
vn -0.8428 -0.5239 0.1232
vn -0.0272 -0.5977 -0.8012
vn -0.197 -0.9792 -0.0497
vn 0.7963 -0.5722 0.1962
vn 0.9153 0.3081 -0.2594
vn 0.849 0.5214 -0.0854
vn -0.8778 0.4149 0.2395
vn -0.8782 0.4408 0.1853
vn -0.6624 -0.6363 0.3953
vn -0.764 -0.3607 0.535
vn -0.3801 0.3386 0.8608
vn -0.3337 0.3544 0.8736
vn -0.6125 -0.5626 -0.5553
vn -0.5941 -0.7385 0.319
vn 0.8557 -0.5174 0.0049
vn -0.327 -0.9246 -0.1957
vn 0.8625 -0.3802 0.334
vn 0.7207 0.3321 0.6086
vn 0.2078 -0.518 0.8298
vn 0.4228 -0.3967 0.8148
vn 0.6538 0.4343 0.6196
vn 0.5393 0.3058 0.7846
vn 0.1993 0.2695 0.9421
vn 0.1771 0.2876 0.9412
vn 0.2957 -0.2307 0.927
vn -0.0938 0.0508 0.9943
vn -0.1249 0.0505 0.9909
vn -0.5539 -0.7169 0.4234
vn -0.6176 -0.6496 0.4434
vn 0.0808 -0.5725 0.8159
vn -0.1418 -0.9844 0.1042
vn 0.8433 -0.5128 0.161
vn 0.5409 -0.7748 0.3272
vn 0.1589 -0.5723 0.8045
vn 0.1482 -0.6594 0.7371
usemtl Elf_bush_Map
f 1//1 2//1 11//1
f 2//2 3//2 12//2
f 3//3 4//3 12//3
f 12//4 4//4 13//4
f 4//5 5//5 13//5
f 5//6 6//6 14//6
f 6//7 7//7 14//7
f 7//8 8//8 15//8
f 8//9 9//9 15//9
f 10//10 16//10 9//10
f 9//11 16//11 15//11
f 10//12 1//12 16//12
f 16//13 1//13 11//13
f 11//14 2//14 17//14
f 2//15 12//15 17//15
f 17//16 12//16 18//16
f 12//17 13//17 18//17
f 13//18 5//18 19//18
f 5//19 14//19 19//19
f 19//20 14//20 20//20
f 7//21 21//21 14//21
f 14//22 21//22 20//22
f 7//23 15//23 21//23
f 21//24 15//24 22//24
f 15//25 23//25 22//25
f 15//26 16//26 23//26
f 23//27 16//27 24//27
f 16//28 11//28 24//28
f 11//29 17//29 25//29
f 25//30 17//30 26//30
f 17//31 18//31 26//31
f 13//32 27//32 18//32
f 18//33 27//33 26//33
f 13//34 19//34 27//34
f 20//35 28//35 19//35
f 19//36 28//36 27//36
f 21//37 29//37 20//37
f 20//38 29//38 28//38
f 22//39 30//39 21//39
f 21//40 30//40 29//40
f 23//41 31//41 22//41
f 22//42 31//42 30//42
f 23//43 24//43 31//43
f 11//44 25//44 24//44
f 24//45 25//45 31//45
f 25//46 26//46 32//46
f 27//47 33//47 26//47
f 26//47 33//47 32//47
f 27//48 28//48 33//48
f 33//49 28//49 34//49
f 28//50 29//50 34//50
f 29//51 30//51 34//51
f 34//51 30//51 35//51
f 30//52 31//52 35//52
f 35//52 31//52 36//52
f 31//53 25//53 36//53
f 36//54 25//54 32//54
f 32//55 38//55 37//55
f 32//55 33//55 38//55
f 33//56 39//56 38//56
f 33//57 34//57 39//57
f 34//58 40//58 39//58
f 34//59 35//59 40//59
f 35//60 36//60 40//60
f 36//61 41//61 40//61
f 32//62 37//62 36//62
f 36//63 37//63 41//63
f 38//64 43//64 37//64
f 37//65 43//65 42//65
f 39//66 44//66 38//66
f 38//67 44//67 43//67
f 39//68 45//68 44//68
f 39//69 40//69 45//69
f 40//70 41//70 45//70
f 45//71 41//71 46//71
f 37//72 42//72 41//72
f 41//73 42//73 46//73
f 43//74 48//74 42//74
f 42//75 48//75 47//75
f 44//76 49//76 43//76
f 43//77 49//77 48//77
f 44//78 45//78 49//78
f 49//79 45//79 50//79
f 45//80 46//80 50//80
f 50//81 46//81 51//81
f 42//82 47//82 46//82
f 46//82 47//82 51//82
f 52//83 53//83 61//83
f 61//84 53//84 62//84
f 53//85 54//85 62//85
f 62//85 54//85 63//85
f 54//86 55//86 63//86
f 63//87 55//87 64//87
f 55//88 56//88 64//88
f 64//89 56//89 65//89
f 57//90 66//90 56//90
f 56//91 66//91 65//91
f 58//92 67//92 57//92
f 57//93 67//93 66//93
f 59//94 68//94 58//94
f 58//95 68//95 67//95
f 59//96 60//96 68//96
f 52//97 61//97 60//97
f 60//98 61//98 68//98
f 61//99 62//99 69//99
f 69//99 62//99 70//99
f 62//100 63//100 70//100
f 64//101 71//101 63//101
f 63//102 71//102 70//102
f 64//103 65//103 71//103
f 71//103 65//103 72//103
f 65//104 66//104 72//104
f 72//104 66//104 73//104
f 66//105 67//105 73//105
f 68//106 74//106 67//106
f 67//107 74//107 73//107
f 68//108 69//108 74//108
f 68//108 61//108 69//108
f 70//109 76//109 69//109
f 69//109 76//109 75//109
f 70//110 77//110 76//110
f 71//111 78//111 70//111
f 70//112 78//112 77//112
f 71//113 72//113 78//113
f 78//114 72//114 79//114
f 72//115 73//115 79//115
f 79//116 73//116 80//116
f 73//117 74//117 80//117
f 69//118 75//118 74//118
f 74//119 75//119 80//119
f 76//120 82//120 75//120
f 75//121 82//121 81//121
f 76//122 77//122 82//122
f 78//123 83//123 77//123
f 77//124 83//124 82//124
f 78//125 79//125 83//125
f 83//125 79//125 84//125
f 79//126 80//126 84//126
f 80//126 85//126 84//126
f 80//127 81//127 85//127
f 80//128 75//128 81//128
f 81//129 82//129 86//129
f 82//130 87//130 86//130
f 82//131 83//131 87//131
f 83//132 84//132 87//132
f 87//133 84//133 88//133
f 84//134 89//134 88//134
f 84//135 85//135 89//135
f 81//136 90//136 85//136
f 85//137 90//137 89//137
f 81//138 86//138 90//138
f 87//139 92//139 86//139
f 86//139 92//139 91//139
f 87//140 93//140 92//140
f 87//141 88//141 93//141
f 88//142 89//142 93//142
f 93//143 89//143 94//143
f 89//144 95//144 94//144
f 89//145 90//145 95//145
f 90//146 91//146 95//146
f 90//147 86//147 91//147
f 96//148 97//148 102//148
f 98//149 103//149 97//149
f 97//149 103//149 102//149
f 98//150 99//150 103//150
f 103//151 99//151 104//151
f 99//152 100//152 104//152
f 104//153 100//153 105//153
f 100//154 101//154 105//154
f 105//154 101//154 106//154
f 96//155 102//155 101//155
f 101//156 102//156 106//156
f 102//157 103//157 107//157
f 104//158 108//158 103//158
f 103//159 108//159 107//159
f 104//160 105//160 108//160
f 108//160 105//160 109//160
f 105//161 110//161 109//161
f 105//161 106//161 110//161
f 102//162 107//162 106//162
f 106//162 107//162 110//162
f 113//163 112//163 122//163
f 122//164 112//164 111//164
f 111//165 123//165 122//165
f 124//166 113//166 125//166
f 125//166 113//166 122//166
f 111//165 126//165 123//165
f 126//167 114//167 127//167
f 115//168 128//168 111//168
f 111//169 128//169 126//169
f 128//170 114//170 126//170
f 112//171 115//171 111//171
f 112//172 113//172 117//172
f 129//173 118//173 124//173
f 124//174 118//174 113//174
f 127//175 114//175 130//175
f 128//176 115//176 131//176
f 131//177 120//177 128//177
f 128//177 120//177 114//177
f 115//178 112//178 133//178
f 112//179 132//179 133//179
f 116//180 115//180 132//180
f 132//181 115//181 133//181
f 132//182 112//182 134//182
f 134//183 112//183 117//183
f 117//184 116//184 134//184
f 116//185 132//185 134//185
f 117//186 113//186 135//186
f 113//187 118//187 135//187
f 129//188 119//188 118//188
f 114//189 120//189 136//189
f 119//190 130//190 136//190
f 136//191 130//191 114//191
f 116//180 120//180 115//180
f 115//192 120//192 131//192
f 121//193 116//193 137//193
f 116//194 117//194 137//194
f 137//195 117//195 139//195
f 139//196 117//196 135//196
f 118//187 138//187 135//187
f 135//197 138//197 139//197
f 138//198 121//198 139//198
f 139//199 121//199 137//199
f 118//200 119//200 138//200
f 119//201 136//201 138//201
f 138//202 136//202 141//202
f 120//189 140//189 136//189
f 136//203 140//203 141//203
f 140//204 121//204 141//204
f 141//205 121//205 138//205
f 140//206 120//206 142//206
f 116//180 121//180 120//180
f 120//207 121//207 142//207
f 121//208 140//208 142//208
f 154//209 153//209 156//209
f 156//210 153//210 155//210
f 156//211 155//211 157//211
f 157//212 155//212 158//212
f 157//213 158//213 159//213
f 158//214 160//214 159//214
f 159//215 160//215 161//215
f 161//216 160//216 154//216
f 154//217 160//217 153//217
f 143//218 144//218 153//218
f 153//219 144//219 155//219
f 144//220 145//220 155//220
f 145//221 146//221 155//221
f 146//222 158//222 155//222
f 146//223 147//223 158//223
f 158//224 147//224 160//224
f 148//225 153//225 147//225
f 147//226 153//226 160//226
f 148//227 143//227 153//227
f 156//228 150//228 154//228
f 157//229 151//229 156//229
f 156//230 151//230 150//230
f 157//231 159//231 151//231
f 151//232 159//232 152//232
f 159//233 161//233 152//233
f 154//234 149//234 161//234
f 161//235 149//235 152//235
f 162//236 163//236 172//236
f 172//236 163//236 175//236
f 173//237 174//237 166//237
f 166//238 174//238 167//238
f 167//239 174//239 163//239
f 163//239 174//239 175//239
f 166//240 162//240 173//240
f 173//241 162//241 172//241
f 168//242 176//242 169//242
f 169//242 176//242 177//242
f 177//243 178//243 169//243
f 169//243 178//243 170//243
f 171//244 170//244 179//244
f 179//245 170//245 178//245
f 168//246 171//246 176//246
f 176//247 171//247 179//247
f 172//248 168//248 173//248
f 173//248 168//248 169//248
f 169//249 170//249 173//249
f 173//249 170//249 174//249
f 175//250 174//250 171//250
f 171//250 174//250 170//250
f 172//251 175//251 168//251
f 168//251 175//251 171//251
f 176//252 164//252 177//252
f 177//252 164//252 165//252
f 165//253 178//253 177//253
f 179//254 178//254 164//254
f 164//254 178//254 165//254
f 176//255 179//255 164//255
f 180//256 181//256 190//256
f 190//256 181//256 193//256
f 191//257 192//257 184//257
f 184//257 192//257 185//257
f 185//258 192//258 181//258
f 181//259 192//259 193//259
f 184//260 180//260 191//260
f 191//260 180//260 190//260
f 186//261 194//261 187//261
f 187//261 194//261 195//261
f 195//262 196//262 187//262
f 187//262 196//262 188//262
f 189//263 188//263 197//263
f 197//263 188//263 196//263
f 186//264 189//264 194//264
f 194//264 189//264 197//264
f 190//265 186//265 191//265
f 191//265 186//265 187//265
f 187//266 188//266 191//266
f 191//266 188//266 192//266
f 193//267 192//267 189//267
f 189//267 192//267 188//267
f 190//268 193//268 186//268
f 186//268 193//268 189//268
f 194//269 182//269 195//269
f 195//270 182//270 183//270
f 183//271 196//271 195//271
f 197//272 196//272 182//272
f 182//272 196//272 183//272
f 194//273 197//273 182//273
f 198//274 199//274 208//274
f 208//274 199//274 211//274
f 209//275 210//275 202//275
f 202//275 210//275 203//275
f 203//276 210//276 199//276
f 199//276 210//276 211//276
f 202//277 198//277 209//277
f 209//277 198//277 208//277
f 204//278 212//278 205//278
f 205//278 212//278 213//278
f 213//279 214//279 205//279
f 205//279 214//279 206//279
f 207//280 206//280 215//280
f 215//280 206//280 214//280
f 204//281 207//281 212//281
f 212//281 207//281 215//281
f 208//282 204//282 209//282
f 209//282 204//282 205//282
f 205//283 206//283 209//283
f 209//283 206//283 210//283
f 211//284 210//284 207//284
f 207//284 210//284 206//284
f 208//285 211//285 204//285
f 204//285 211//285 207//285
f 212//286 200//286 213//286
f 213//286 200//286 201//286
f 201//287 214//287 213//287
f 215//288 214//288 200//288
f 200//288 214//288 201//288
f 212//289 215//289 200//289
f 216//290 217//290 226//290
f 226//290 217//290 229//290
f 227//291 228//291 220//291
f 220//291 228//291 221//291
f 221//292 228//292 217//292
f 217//292 228//292 229//292
f 220//293 216//293 227//293
f 227//293 216//293 226//293
f 222//294 230//294 223//294
f 223//294 230//294 231//294
f 231//295 232//295 223//295
f 223//295 232//295 224//295
f 225//296 224//296 233//296
f 233//296 224//296 232//296
f 222//297 225//297 230//297
f 230//297 225//297 233//297
f 226//298 222//298 227//298
f 227//298 222//298 223//298
f 223//299 224//299 227//299
f 227//299 224//299 228//299
f 229//300 228//300 225//300
f 225//300 228//300 224//300
f 226//301 229//301 222//301
f 222//301 229//301 225//301
f 230//302 218//302 231//302
f 231//302 218//302 219//302
f 219//303 232//303 231//303
f 233//304 232//304 218//304
f 218//304 232//304 219//304
f 230//305 233//305 218//305
f 234//306 235//306 244//306
f 244//306 235//306 247//306
f 245//307 246//307 238//307
f 239//308 246//308 235//308
f 235//308 246//308 247//308
f 238//309 234//309 245//309
f 245//309 234//309 244//309
f 240//310 248//310 241//310
f 241//310 248//310 249//310
f 249//311 250//311 241//311
f 241//311 250//311 242//311
f 243//312 242//312 251//312
f 251//312 242//312 250//312
f 240//313 243//313 248//313
f 248//313 243//313 251//313
f 244//314 240//314 245//314
f 245//314 240//314 241//314
f 241//315 242//315 245//315
f 245//315 242//315 246//315
f 247//316 246//316 243//316
f 243//316 246//316 242//316
f 244//317 247//317 240//317
f 240//317 247//317 243//317
f 248//318 236//318 249//318
f 249//318 236//318 237//318
f 237//319 250//319 249//319
f 251//320 250//320 236//320
f 236//320 250//320 237//320
f 248//321 251//321 236//321
f 252//322 253//322 262//322
f 262//322 253//322 265//322
f 263//323 264//323 256//323
f 256//323 264//323 257//323
f 257//324 264//324 253//324
f 253//325 264//325 265//325
f 256//326 252//326 263//326
f 263//327 252//327 262//327
f 258//328 266//328 259//328
f 259//328 266//328 267//328
f 267//329 268//329 259//329
f 259//329 268//329 260//329
f 261//330 260//330 269//330
f 269//331 260//331 268//331
f 258//332 261//332 266//332
f 266//332 261//332 269//332
f 262//333 258//333 263//333
f 263//334 258//334 259//334
f 259//335 260//335 263//335
f 263//335 260//335 264//335
f 265//336 264//336 261//336
f 261//337 264//337 260//337
f 262//338 265//338 258//338
f 258//338 265//338 261//338
f 266//339 254//339 267//339
f 267//339 254//339 255//339
f 255//340 268//340 267//340
f 269//341 268//341 254//341
f 254//341 268//341 255//341
f 266//342 269//342 254//342
f 270//343 271//343 280//343
f 280//343 271//343 283//343
f 281//344 282//344 274//344
f 274//344 282//344 275//344
f 275//345 282//345 271//345
f 271//345 282//345 283//345
f 274//346 270//346 281//346
f 281//346 270//346 280//346
f 276//347 284//347 277//347
f 277//347 284//347 285//347
f 285//348 286//348 277//348
f 277//348 286//348 278//348
f 279//349 278//349 287//349
f 287//349 278//349 286//349
f 276//350 279//350 284//350
f 284//350 279//350 287//350
f 280//351 276//351 281//351
f 281//351 276//351 277//351
f 277//352 278//352 281//352
f 281//352 278//352 282//352
f 283//353 282//353 279//353
f 279//353 282//353 278//353
f 280//354 283//354 276//354
f 276//354 283//354 279//354
f 284//355 272//355 285//355
f 285//355 272//355 273//355
f 273//356 286//356 285//356
f 287//357 286//357 272//357
f 272//357 286//357 273//357
f 284//358 287//358 272//358
f 289//359 297//359 288//359
f 288//360 297//360 296//360
f 290//361 298//361 289//361
f 289//362 298//362 297//362
f 290//363 291//363 298//363
f 298//363 291//363 299//363
f 291//364 292//364 299//364
f 299//364 292//364 300//364
f 292//365 293//365 300//365
f 300//366 293//366 301//366
f 294//367 302//367 293//367
f 293//368 302//368 301//368
f 294//369 295//369 302//369
f 302//369 295//369 303//369
f 295//370 296//370 303//370
f 295//370 288//370 296//370
f 296//371 297//371 304//371
f 304//372 297//372 305//372
f 297//373 298//373 305//373
f 305//374 298//374 306//374
f 298//375 299//375 306//375
f 299//376 300//376 306//376
f 306//376 300//376 307//376
f 300//377 301//377 307//377
f 307//378 301//378 308//378
f 302//379 309//379 301//379
f 301//380 309//380 308//380
f 302//381 303//381 309//381
f 296//382 304//382 303//382
f 303//383 304//383 309//383
f 305//384 311//384 304//384
f 304//385 311//385 310//385
f 305//386 312//386 311//386
f 306//387 313//387 305//387
f 305//388 313//388 312//388
f 306//389 307//389 313//389
f 313//390 307//390 314//390
f 307//391 308//391 314//391
f 308//392 309//392 314//392
f 314//393 309//393 315//393
f 309//394 304//394 315//394
f 315//395 304//395 316//395
f 304//396 310//396 316//396
f 310//397 311//397 317//397
f 311//398 312//398 317//398
f 317//399 312//399 318//399
f 312//400 313//400 318//400
f 313//401 314//401 318//401
f 314//402 319//402 318//402
f 314//403 315//403 319//403
f 315//404 320//404 319//404
f 315//405 316//405 320//405
f 310//406 317//406 316//406
f 316//407 317//407 320//407
f 317//408 322//408 321//408
f 317//409 318//409 322//409
f 322//410 318//410 323//410
f 318//411 324//411 323//411
f 318//412 325//412 324//412
f 318//413 319//413 325//413
f 319//414 326//414 325//414
f 319//415 320//415 326//415
f 320//416 321//416 326//416
f 320//416 317//416 321//416
f 321//417 322//417 327//417
f 322//418 323//418 327//418
f 327//419 323//419 328//419
f 323//420 329//420 328//420
f 323//420 324//420 329//420
f 325//421 330//421 324//421
f 324//421 330//421 329//421
f 326//422 331//422 325//422
f 325//422 331//422 330//422
f 326//423 321//423 331//423
f 321//423 327//423 331//423
f 327//424 333//424 332//424
f 327//424 328//424 333//424
f 328//425 329//425 333//425
f 329//425 334//425 333//425
f 329//426 330//426 334//426
f 330//426 335//426 334//426
f 330//427 331//427 335//427
f 331//427 336//427 335//427
f 331//428 332//428 336//428
f 331//428 327//428 332//428
f 337//429 338//429 347//429
f 347//429 338//429 350//429
f 348//430 349//430 341//430
f 341//430 349//430 342//430
f 342//431 349//431 338//431
f 338//431 349//431 350//431
f 341//432 337//432 348//432
f 348//432 337//432 347//432
f 343//433 351//433 344//433
f 344//433 351//433 352//433
f 352//434 353//434 344//434
f 344//434 353//434 345//434
f 346//435 345//435 354//435
f 354//435 345//435 353//435
f 343//436 346//436 351//436
f 351//436 346//436 354//436
f 347//437 343//437 348//437
f 348//437 343//437 344//437
f 344//438 345//438 348//438
f 348//438 345//438 349//438
f 350//439 349//439 346//439
f 346//439 349//439 345//439
f 347//440 350//440 343//440
f 343//440 350//440 346//440
f 351//441 339//441 352//441
f 352//442 339//442 340//442
f 340//443 353//443 352//443
f 354//444 353//444 339//444
f 339//444 353//444 340//444
f 351//445 354//445 339//445
f 365//446 355//446 357//446
f 357//447 355//447 366//447
f 358//448 367//448 366//448
f 366//449 367//449 357//449
f 366//450 355//450 359//450
f 358//451 366//451 368//451
f 368//452 366//452 359//452
f 355//453 365//453 369//453
f 365//454 356//454 369//454
f 365//455 357//455 367//455
f 367//456 361//456 365//456
f 365//457 361//457 356//457
f 367//458 358//458 362//458
f 370//459 358//459 371//459
f 371//460 358//460 368//460
f 359//461 363//461 368//461
f 368//462 363//462 371//462
f 363//463 370//463 371//463
f 372//464 359//464 355//464
f 355//465 369//465 360//465
f 360//466 369//466 374//466
f 369//467 356//467 374//467
f 374//468 356//468 373//468
f 373//469 360//469 374//469
f 361//470 375//470 356//470
f 356//471 375//471 373//471
f 375//472 360//472 373//472
f 358//473 370//473 362//473
f 362//473 370//473 376//473
f 370//474 363//474 376//474
f 363//461 359//461 377//461
f 377//464 359//464 372//464
f 372//475 364//475 377//475
f 355//476 360//476 372//476
f 372//477 360//477 364//477
f 367//478 362//478 361//478
f 376//479 363//479 378//479
f 361//480 362//480 378//480
f 378//481 362//481 376//481
f 378//482 363//482 377//482
f 364//483 379//483 377//483
f 377//484 379//484 378//484
f 379//485 361//485 378//485
f 379//486 364//486 380//486
f 364//487 360//487 380//487
f 380//472 360//472 375//472
f 375//488 361//488 380//488
f 380//488 361//488 379//488
f 382//489 387//489 381//489
f 381//489 387//489 386//489
f 382//490 383//490 387//490
f 387//491 383//491 388//491
f 383//492 384//492 388//492
f 388//492 384//492 389//492
f 384//493 385//493 389//493
f 389//493 385//493 390//493
f 385//494 381//494 390//494
f 390//494 381//494 386//494
f 387//495 399//495 386//495
f 386//495 399//495 400//495
f 388//496 398//496 387//496
f 387//497 398//497 399//497
f 388//498 389//498 398//498
f 398//499 389//499 397//499
f 389//500 390//500 397//500
f 390//501 396//501 397//501
f 390//502 386//502 396//502
f 386//503 400//503 396//503
f 397//504 396//504 394//504
f 394//504 396//504 395//504
f 398//505 397//505 393//505
f 393//505 397//505 394//505
f 398//506 393//506 399//506
f 399//506 393//506 392//506
f 399//507 392//507 400//507
f 400//507 392//507 391//507
f 400//508 391//508 396//508
f 396//508 391//508 395//508
f 413//509 401//509 412//509
f 412//510 403//510 413//510
f 403//511 402//511 413//511
f 404//512 403//512 412//512
f 416//513 401//513 414//513
f 414//514 405//514 416//514
f 416//515 405//515 415//515
f 415//516 404//516 416//516
f 416//517 404//517 412//517
f 414//518 406//518 405//518
f 401//519 413//519 414//519
f 414//520 413//520 418//520
f 413//521 402//521 418//521
f 418//522 402//522 417//522
f 417//523 406//523 418//523
f 418//523 406//523 414//523
f 403//524 404//524 420//524
f 420//525 404//525 419//525
f 419//526 408//526 420//526
f 421//527 404//527 415//527
f 415//528 405//528 409//528
f 409//529 421//529 415//529
f 405//530 406//530 422//530
f 406//531 410//531 422//531
f 417//532 407//532 406//532
f 417//533 402//533 407//533
f 407//534 402//534 403//534
f 404//535 421//535 419//535
f 419//536 421//536 424//536
f 409//537 423//537 421//537
f 421//538 423//538 424//538
f 408//539 419//539 423//539
f 423//540 419//540 424//540
f 409//541 405//541 425//541
f 425//541 405//541 422//541
f 422//531 410//531 425//531
f 410//542 409//542 425//542
f 406//543 407//543 426//543
f 426//544 410//544 406//544
f 428//545 407//545 429//545
f 407//546 403//546 429//546
f 429//546 403//546 427//546
f 411//547 428//547 427//547
f 427//548 428//548 429//548
f 403//549 420//549 427//549
f 427//550 420//550 430//550
f 408//551 411//551 420//551
f 420//552 411//552 430//552
f 411//553 427//553 430//553
f 411//554 408//554 431//554
f 431//555 408//555 423//555
f 423//556 409//556 431//556
f 431//557 409//557 410//557
f 410//558 411//558 431//558
f 410//559 426//559 432//559
f 407//560 428//560 426//560
f 426//561 428//561 432//561
f 411//562 410//562 428//562
f 428//563 410//563 432//563