mtllib flat.mtl
v -0.198728 -0.004566 -0.045275
v -0.237241 -0.004566 -0.073256
v -0.265878 -0.004566 -0.051508
v -0.323359 -0.004566 -0.045275
v -0.33807 -0.004566 0.0
v -0.323359 -0.004566 0.045275
v -0.237241 -0.004566 0.073256
v -0.198728 -0.004566 0.045275
v -0.184018 -0.004566 0.0
v -0.200242 0.092705 -0.027485
v -0.252522 0.092705 -0.044472
v -0.284833 0.092705 0.0
v -0.275903 0.092705 0.027485
v -0.223622 0.092705 0.044472
v -0.200242 0.092705 0.027485
v -0.203627 0.247243 -0.015922
v -0.217171 0.247243 -0.025763
v -0.252631 0.247243 0.0
v -0.247457 0.247243 0.015922
v -0.217171 0.247243 0.025763
v -0.198453 0.247243 0.0
v -0.248718 0.324069 -0.007917
v -0.269193 0.316601 -0.007917
v -0.262866 0.318909 0.01281
v -0.255045 0.321761 0.01281
v -0.246302 0.324951 0.0
v -0.361489 0.495314 -0.007917
v -0.384381 0.486964 0.0
v -0.381964 0.487846 0.007917
v -0.361489 0.495314 0.007917
v -0.359072 0.496195 0.0
v -0.257824 -0.004566 -0.073256
v -0.303275 -0.004566 -0.059867
v 0.43839 1.333981 -0.102422
v 0.440766 1.334354 -0.11703
v 0.365337 1.344581 -0.111495
v 0.367712 1.344954 -0.126103
v 0.362224 1.32689 -0.112452
v 0.3646 1.327263 -0.12706
v 0.435278 1.31629 -0.10338
v 0.437653 1.316663 -0.117988
v 0.464069 1.246801 -0.112058
v 0.445046 1.288528 -0.160722
v 0.414763 1.29063 -0.101143
v 0.461025 1.279941 -0.054061
v 0.5199 1.271233 -0.084542
v 0.510024 1.27654 -0.150462
v 0.48912 1.338748 -0.163282
v 0.430245 1.347456 -0.132801
v 0.440121 1.342149 -0.066881
v 0.505099 1.330161 -0.056621
v 0.535382 1.328059 -0.1162
v 0.486076 1.371887 -0.105285
v 0.165648 0.522857 0.168672
v 0.224129 0.584251 0.174333
v 0.14331 0.604019 0.157046
v 0.093361 0.552267 0.202303
v 0.14331 0.500515 0.247559
v 0.224129 0.520282 0.230273
v 0.237935 0.599852 0.256718
v 0.187986 0.651604 0.211462
v 0.107166 0.631837 0.228748
v 0.107166 0.567867 0.284688
v 0.187986 0.5481 0.301975
v 0.165648 0.629262 0.290349
v 0.15112 0.628708 0.214222
v 0.169935 0.628708 0.214222
v 0.15112 0.685274 0.164756
v 0.169935 0.685274 0.164756
v 0.15112 0.670226 0.147547
v 0.15112 0.613659 0.197013
v -0.141481 0.619962 -0.242994
v -0.230944 0.887925 -0.21123
v -0.469562 1.074902 -0.062993
v -0.580906 0.612578 -0.136836
v -0.239253 0.385234 -0.056295
v -0.096788 0.526672 -0.111429
v -0.165904 0.763024 0.146865
v -0.367273 1.16849 -0.049866
v -0.607887 0.749184 -0.091802
v -0.512037 0.487722 -0.166338
v -0.299767 0.410814 0.108496
v -0.56424 0.749462 0.102829
v -0.424898 0.929412 -0.264147
v -0.304404 1.005379 -0.223885
v -0.400429 0.749744 -0.311969
v -0.504287 0.986988 -0.136134
v -0.216355 0.53128 -0.243504
v -0.446391 0.512639 -0.242402
v -0.389703 0.598262 -0.303972
v -0.138457 0.758377 -0.203006
v -0.316571 1.140589 -0.085238
v -0.155829 0.394161 0.030958
v -0.056677 0.599062 0.037646
v -0.335093 0.942493 0.181796
v -0.449651 1.089283 0.066991
v -0.032629 0.394877 0.112656
v -0.470555 0.999062 0.103606
v -0.268382 0.753923 0.216572
v -0.451792 0.504798 0.140232
v -0.269847 0.598253 0.200751
v 0.231605 0.173316 -0.028724
v 0.220062 0.179622 -0.03034
v 0.214525 0.190502 -0.025183
v 0.218239 0.199583 -0.016274
v 0.229027 0.201545 -0.008832
v 0.246107 0.18436 -0.012373
v 0.245576 0.192411 -0.054011
v 0.234032 0.198717 -0.055627
v 0.232209 0.218678 -0.041561
v 0.260078 0.203455 -0.03766
v 0.280682 0.318358 -0.163312
v 0.273482 0.322291 -0.16432
v 0.279074 0.335965 -0.150906
v 0.289727 0.325246 -0.153114
v 0.278636 -0.004566 -0.045089
v 0.240282 -0.004566 -0.072955
v 0.192872 -0.004566 -0.072955
v 0.154518 -0.004566 -0.045089
v 0.139868 -0.004566 0.0
v 0.154518 -0.004566 0.045089
v 0.192873 -0.004566 0.072955
v 0.240282 -0.004566 0.072955
v 0.278636 -0.004566 0.045089
v 0.293287 -0.004566 0.0
v 0.234462 0.07373 -0.067415
v 0.141673 0.07373 0.0
v 0.190653 0.07373 0.067415
v 0.269905 0.07373 0.041665
v 0.283443 0.07373 0.0
v 0.25221 0.186267 -0.017129
v 0.219629 0.186267 -0.027715
v 0.205059 0.186267 -0.017129
v 0.21963 0.186267 0.027715
v 0.23764 0.186267 0.027715
v 0.25221 0.186267 0.017129
v 0.136947 0.328277 -0.010281
v 0.117391 0.328277 -0.016635
v 0.105305 0.328277 0.0
v 0.117391 0.328277 0.016635
v 0.136947 0.328277 0.010281
v 0.199773 0.239318 0.014571
v 0.172058 0.239318 0.023576
v 0.154929 0.239318 0.0
v 0.172058 0.239318 -0.023576
v 0.199773 0.239318 -0.014571
v -0.185026 1.30038 -0.3368
v 0.231724 1.501007 0.098187
v -0.017535 1.689477 0.012213
v -0.39321 1.273668 0.062683
v -0.171211 0.866628 -0.223529
v 0.07216 1.078448 -0.305463
v 0.172846 1.441657 0.314629
v 0.057142 1.49732 0.337408
v -0.213649 1.30038 0.314629
v -0.143274 0.90895 0.23875
v 0.058981 0.823184 0.212298
v -0.050825 1.507315 -0.327536
v 0.066943 1.600235 -0.187579
v 0.216122 1.302843 -0.310891
v 0.069413 1.534747 -0.309013
v -0.256445 1.522179 -0.066842
v -0.172842 1.441663 -0.314623
v -0.343131 1.003618 -0.268294
v -0.204107 1.62067 0.000909
v -0.183982 0.824213 0.107658
v -0.337779 1.000454 -0.109682
v 0.189422 1.172027 0.120508
v -0.057238 0.719498 0.024913
v 0.077312 0.765913 -0.09083
v 0.30935 1.323155 -0.060513
v -0.114197 1.712792 0.044837
v 0.165253 1.169958 0.313868
v -0.066027 1.528784 0.31474
v -0.066873 1.069742 0.315525
v -0.217805 0.271255 -0.007413
v -0.236776 0.28651 -0.004772
v -0.2427 0.275498 0.016282
v -0.223729 0.260243 0.013641
v -0.203499 0.282407 0.030925
v -0.197575 0.293419 0.009871
v -0.216546 0.308675 0.012513
v -0.223437 0.306328 0.023587
v -0.214211 0.287754 0.036606
v -0.110497 0.402976 0.072773
v -0.12233 0.412491 0.07442
v -0.126024 0.405623 0.087551
v -0.114192 0.396108 0.085904
v -0.14831 0.325822 0.062062
v -0.143562 0.334647 0.045189
v -0.128359 0.322421 0.043073
v -0.133106 0.313596 0.059945
v 0.432543 1.08835 0.161858
v 0.443163 1.091416 0.15201
v 0.391489 1.096215 0.120039
v 0.402108 1.09928 0.11019
v 0.392531 1.07878 0.115737
v 0.403151 1.081845 0.105888
v 0.433586 1.070915 0.157556
v 0.444206 1.073981 0.147707
v -0.330635 0.671168 0.247245
v -0.32846 0.65871 0.239549
v -0.324797 0.702825 0.185187
v -0.322622 0.690367 0.177491
v -0.342501 0.701532 0.182277
v -0.340326 0.689073 0.174581
v -0.348339 0.669875 0.244335
v -0.346164 0.657416 0.236639
v -0.413334 0.634729 0.260871
v -0.368673 0.616432 0.214591
v -0.375976 0.681012 0.230318
v -0.387092 0.685124 0.296125
v -0.386659 0.623086 0.321071
v -0.375275 0.580633 0.27068
v -0.314396 0.593481 0.246189
v -0.314829 0.655519 0.221244
v -0.326213 0.697972 0.271635
v -0.332815 0.662173 0.327723
v -0.325512 0.597593 0.311997
v -0.288155 0.643876 0.281444
v -0.267075 0.651559 -0.302834
v -0.266719 0.664159 -0.310599
v -0.277445 0.682312 -0.253409
v -0.277089 0.694912 -0.261174
v -0.295149 0.681019 -0.256318
v -0.294793 0.693619 -0.264083
v -0.284779 0.650266 -0.305744
v -0.284423 0.662866 -0.313509
v -0.340459 0.635067 -0.35475
v -0.310619 0.694147 -0.345253
v -0.31577 0.650771 -0.294626
v -0.307226 0.589186 -0.31923
v -0.296795 0.5945 -0.385064
v -0.298892 0.65937 -0.401147
v -0.248512 0.690094 -0.369697
v -0.258944 0.68478 -0.303863
v -0.256847 0.61991 -0.28778
v -0.24512 0.585133 -0.343674
v -0.239969 0.628509 -0.394302
v -0.21528 0.644213 -0.334177
v -0.503559 0.805084 -0.202212
v -0.505147 0.813843 -0.214042
v -0.460499 0.840198 -0.181989
v -0.462087 0.848957 -0.193819
v -0.472675 0.850006 -0.173093
v -0.474262 0.858765 -0.184923
v -0.515735 0.814891 -0.193316
v -0.517322 0.82365 -0.205146
v -0.588637 0.833228 -0.184262
v -0.545429 0.861142 -0.226982
v -0.523562 0.835788 -0.169101
v -0.558743 0.780408 -0.156199
v -0.602353 0.771536 -0.206105
v -0.594124 0.821432 -0.249851
v -0.53244 0.816703 -0.275226
v -0.488831 0.825575 -0.22532
v -0.49706 0.775678 -0.181574
v -0.545755 0.735968 -0.204443
v -0.567621 0.761322 -0.262324
v -0.502546 0.763883 -0.247162
v -0.298213 1.446152 0.070477
v -0.306323 1.448192 0.058261
v -0.2504 1.466266 0.042095
v -0.25851 1.468306 0.029879
v -0.25426 1.482999 0.047452
v -0.26237 1.485039 0.035235
v -0.302073 1.462885 0.075833
v -0.310183 1.464925 0.063617
v -0.353649 1.510525 0.104175
v -0.344279 1.495538 0.039687
v -0.292734 1.493804 0.082245
v -0.314948 1.469986 0.140644
v -0.380221 1.457 0.134177
v -0.398349 1.472792 0.071783
v -0.365061 1.432752 0.029833
v -0.299787 1.445738 0.036299
v -0.281659 1.429946 0.098694
v -0.335729 1.4072 0.13079
v -0.387274 1.408934 0.088232
v -0.326359 1.392213 0.066302
v -0.078213 0.997786 0.324681
v -0.092683 1.000423 0.322994
v -0.065792 1.042569 0.288124
v -0.080262 1.045206 0.286438
v -0.065362 1.053869 0.302113
v -0.079832 1.056506 0.300427
v -0.077784 1.009086 0.33867
v -0.092254 1.011723 0.336983
v -0.09565 1.021598 0.411176
v -0.134441 1.033033 0.357926
v -0.067944 1.037355 0.352394
v -0.040894 0.989382 0.390317
v -0.090673 0.955412 0.419285
v -0.148489 0.982389 0.399266
v -0.153439 0.973913 0.333124
v -0.10366 1.007884 0.304156
v -0.045845 0.980907 0.324174
v -0.059892 0.930263 0.365515
v -0.126389 0.925941 0.371046
v -0.098684 0.941698 0.312265
v 0.097675 1.548391 0.221748
v 0.088485 1.541993 0.231432
v 0.054285 1.549968 0.181611
v 0.045095 1.543571 0.191295
v 0.049322 1.566183 0.187613
v 0.040132 1.559785 0.197297
v 0.092712 1.564606 0.22775
v 0.083522 1.558208 0.237434
v 0.096703 1.616151 0.283068
v 0.053301 1.565469 0.278743
v 0.077617 1.593502 0.223119
v 0.141713 1.609044 0.234131
v 0.157011 1.590616 0.296561
v 0.10237 1.563685 0.324133
v 0.086785 1.50861 0.289564
v 0.071487 1.527038 0.227134
v 0.126128 1.553969 0.199562
v 0.175197 1.552186 0.244952
v 0.150881 1.524153 0.300576
v 0.131795 1.501503 0.240627
v -0.077985 1.371692 -0.357874
v -0.092455 1.374329 -0.359561
v -0.079541 1.39724 -0.304573
v -0.09401 1.399877 -0.306259
v -0.083314 1.381337 -0.297061
v -0.097784 1.383974 -0.298747
v -0.081758 1.355789 -0.350362
v -0.096228 1.358426 -0.352048
v -0.105291 1.284507 -0.360261
v -0.143773 1.338228 -0.350046
v -0.08216 1.335828 -0.324175
v -0.042322 1.305453 -0.368464
v -0.079313 1.289081 -0.421705
v -0.142013 1.309336 -0.410323
v -0.141578 1.376003 -0.405176
v -0.104586 1.392376 -0.351934
v -0.041887 1.37212 -0.363317
v -0.040127 1.343228 -0.423594
v -0.10174 1.345628 -0.449464
v -0.078609 1.396949 -0.413378
v 0.254979 0.763047 -0.412706
v 0.240509 0.765683 -0.414392
v 0.25832 0.806752 -0.373021
v 0.24385 0.809389 -0.374708
v 0.254655 0.795068 -0.359845
v 0.240185 0.797705 -0.361531
v 0.251314 0.751362 -0.399529
v 0.236844 0.753999 -0.401216
v 0.224929 0.68304 -0.380327
v 0.189004 0.738783 -0.38888
v 0.252327 0.742729 -0.367768
v 0.287686 0.695742 -0.399598
v 0.246215 0.662757 -0.440382
v 0.185226 0.689358 -0.433758
v 0.188087 0.752952 -0.454222
v 0.229557 0.785937 -0.413438
v 0.290546 0.759336 -0.420062
v 0.286769 0.709911 -0.46494
v 0.223445 0.705965 -0.486052
v 0.250843 0.765654 -0.473493
v 0.07296 -0.004566 -0.068297
v 0.014863 -0.004566 -0.110507
v -0.056949 -0.004566 -0.110507
v -0.115046 -0.004566 -0.068297
v -0.137237 -0.004566 0.0
v -0.115046 -0.004566 0.068297
v -0.056949 -0.004566 0.110507
v 0.007372 -0.004566 0.085376
v 0.07296 -0.004566 0.068297
v 0.095151 -0.004566 0.0
v 0.059409 0.077778 -0.051718
v 0.015415 0.077778 -0.083682
v -0.082959 0.077778 -0.051718
v -0.099764 0.077778 0.0
v -0.038965 0.077778 0.083682
v 0.007924 0.077778 0.05855
v 0.063933 0.108238 0.067379
v 0.076213 0.077778 0.0
v -0.011843 0.277965 0.0
v -0.027166 0.277965 -0.02109
v -0.04087 0.277965 -0.021089
v -0.056193 0.277965 0.0
v -0.04087 0.277965 0.02109
v -0.084746 0.525771 0.0
v -0.092681 0.525771 -0.010921
v -0.107712 0.525771 0.0
v -0.099778 0.525771 0.010921
v -0.092681 0.525771 0.010921
v 0.089134 0.105811 -0.048936
v 0.098892 0.159651 0.0
v 0.009515 0.116232 -0.072924
v 0.025726 0.166457 -0.04918
v -0.025933 0.118031 -0.044403
v -0.010866 0.16866 0.0
v -0.040331 0.118048 0.0
v -0.025906 0.118048 0.044396
v 0.037009 0.111752 0.075613
v 0.025726 0.166457 0.04918
v 0.061436 0.160785 0.050297
v 0.088951 0.159383 0.031256
v 0.104884 0.105488 0.0
v -0.005132 -0.004566 0.110507
v -0.005131 0.077778 0.083682
v 0.038963 0.077778 0.066573
v 0.0319 -0.004566 0.098129
v -0.009199 0.24483 -0.026531
v -0.024034 0.264311 -0.026531
v -0.022945 0.271515 -0.015461
v -0.006569 0.262221 0.000194
v -0.000875 0.251168 -0.004391
v 0.015711 0.263799 -0.041327
v 0.000875 0.283281 -0.041327
v 0.001964 0.290485 -0.030257
v 0.01834 0.281191 -0.014602
v 0.024034 0.270138 -0.019187
v 0.110199 0.392238 -0.100078
v 0.099985 0.398034 -0.109842
v 0.096434 0.404928 -0.106982
v 0.097113 0.409421 -0.100078
v 0.107327 0.403625 -0.090314
v 0.382451 0.487476 -0.364364
v 0.409413 0.723365 -0.331479
v 0.07982 0.737403 -0.360694
v 0.087856 0.472242 -0.344123
v 0.331993 0.369782 -0.271998
v 0.513853 0.370811 -0.057571
v 0.32735 1.430976 -0.142041
v -0.057761 0.788863 -0.159991
v 0.144256 0.30025 0.071694
v 0.249318 0.246558 -0.115353
v 0.409072 0.922071 0.27983
v 0.225832 1.036107 -0.407808
v 0.166132 1.291051 -0.240353
v 0.306453 0.403627 -0.346888
v 0.01449 0.426446 -0.259357
v 0.096874 1.138456 -0.228294
v 0.389402 1.354967 -0.225324
v -0.167864 0.616428 -0.051321
v -0.02041 0.39932 -0.148252
v -0.07158 0.494124 -0.087667
v 0.603948 0.719314 -0.139902
v 0.576863 1.022393 -0.037889
v 0.072256 1.004611 -0.122208
v -0.106122 0.643839 0.058285
v 0.138457 0.249557 -0.047093
v 0.484947 0.329392 0.040625
v 0.28473 1.387568 -0.066932
v 0.542922 0.697159 0.21838
v 0.537109 1.12726 -0.019083
v 0.163996 0.928507 0.145837
v 0.192035 0.403321 0.197894
v 0.051136 0.687977 0.169523
v 0.447143 0.519094 0.163065
v 0.472637 1.006224 0.162343
v 0.480394 1.054272 0.116492
v 0.42043 1.043852 0.144185
v 0.429798 1.028518 0.208592
v 0.495551 1.029462 0.220705
v 0.526821 1.045378 0.163784
v 0.508103 1.107205 0.146516
v 0.442349 1.106262 0.134403
v 0.411079 1.090345 0.191324
v 0.457507 1.081451 0.238616
v 0.51747 1.091872 0.210923
v 0.465264 1.129499 0.192764
vn 0.5807 0.1552 -0.7992
vn -0.0 0.2838 -0.9589
vn 0.2935 0.3134 -0.9032
vn -0.7192 0.458 -0.5225
vn -0.5019 0.5204 -0.6909
vn -0.8436 0.4617 -0.2741
vn -0.8436 0.4617 0.2741
vn -0.2939 0.3088 0.9046
vn 0.5807 0.1552 0.7992
vn 0.9486 0.0711 0.3082
vn 0.9486 0.0711 -0.3082
vn 0.9864 0.1645 -0.0
vn 0.5862 0.0732 -0.8068
vn 0.3087 0.0444 -0.9501
vn -0.7978 0.1662 -0.5796
vn -0.5725 0.2264 -0.788
vn -0.9329 0.1944 0.3031
vn -0.3065 0.127 0.9434
vn 0.5862 0.0732 0.8068
vn 0.8054 0.0948 0.5851
vn 0.9999 -0.0116 -0.0
vn 0.9501 0.0439 -0.3087
vn 0.5401 0.3945 -0.7434
vn -0.5869 -0.0534 -0.8079
vn 0.0381 -0.1044 -0.9938
vn -0.9342 -0.1877 0.3035
vn -0.9333 -0.188 0.3058
vn -0.309 0.0083 0.951
vn -0.0147 0.0402 0.9991
vn 0.6829 0.4474 0.5775
vn 0.7241 0.4459 0.5261
vn 0.8207 0.5053 -0.2667
vn 0.8078 0.5057 -0.3029
vn -0.0 -0.0 -1.0
vn -0.2766 -0.1428 -0.9503
vn -0.7838 -0.5439 0.2998
vn -0.0084 0.023 0.9997
vn 0.6879 0.4382 0.5786
vn 0.7963 0.5244 0.3015
vn 0.7963 0.5244 -0.3015
vn -0.9269 0.1521 -0.3432
vn 0.218 0.0406 -0.9751
vn 0.1376 0.9893 0.0477
vn 0.1376 0.9893 0.0476
vn -0.1376 -0.9893 -0.0477
vn -0.1376 -0.9893 -0.0476
vn 0.1276 0.0312 -0.9913
vn -0.1276 -0.0312 0.9913
vn -0.6684 -0.6733 -0.316
vn -0.563 -0.7299 0.3875
vn 0.1304 -0.8579 0.497
vn 0.4536 -0.8803 -0.1388
vn -0.0401 -0.7662 -0.6413
vn -0.8915 -0.0094 -0.4528
vn -0.721 -0.101 0.6855
vn 0.4011 -0.308 0.8627
vn 0.924 -0.3443 -0.1662
vn 0.1251 -0.1597 -0.9792
vn -0.4011 0.308 -0.8627
vn -0.924 0.3443 0.1662
vn -0.1251 0.1597 0.9792
vn 0.8915 0.0094 0.4528
vn 0.721 0.101 -0.6855
vn -0.1304 0.8579 -0.497
vn -0.4536 0.8803 0.1388
vn 0.0401 0.7662 0.6413
vn 0.6684 0.6733 0.316
vn 0.563 0.7299 -0.3875
vn -0.4911 -0.2545 -0.8331
vn -0.4911 -0.7917 -0.3633
vn 0.1876 -0.9577 -0.2181
vn 0.6071 -0.5231 -0.5982
vn -0.7947 0.3111 -0.5213
vn -0.7947 -0.5581 0.2388
vn 0.3035 -0.8267 0.4737
vn 0.9822 -0.1235 -0.1412
vn 0.7947 0.5581 -0.2388
vn -0.3035 0.8267 -0.4737
vn -0.9822 0.1235 0.1412
vn -0.3035 -0.5797 0.7562
vn 0.7947 -0.3111 0.5213
vn 0.4911 0.7917 0.3633
vn -0.1876 0.9577 0.2181
vn -0.6071 0.5231 0.5982
vn -0.1876 0.0885 0.9783
vn 0.4911 0.2545 0.8331
vn -0.0 0.6583 0.7528
vn -1.0 -0.0 -0.0
vn 0.2989 0.2101 -0.9309
vn 0.2764 0.0696 -0.9585
vn -0.2715 0.7502 -0.6029
vn 0.3778 0.2859 -0.8806
vn -0.7458 0.1538 -0.6481
vn -0.8439 0.0277 -0.5358
vn -0.4591 0.6683 -0.5853
vn 0.2412 -0.0341 -0.9699
vn 0.2504 -0.206 -0.946
vn 0.0611 -0.7906 -0.6093
vn 0.045 -0.6027 -0.7967
vn -0.6563 -0.0925 -0.7488
vn -0.6702 -0.0864 -0.7372
vn 0.6229 -0.5226 -0.5822
vn 0.4189 0.2436 -0.8747
vn 0.9574 0.0606 -0.2823
vn 0.8023 0.461 -0.3791
vn -0.3744 0.6472 -0.664
vn -0.3198 0.4653 -0.8254
vn -0.6265 0.1296 -0.7686
vn -0.9186 0.3934 -0.0367
vn -0.6997 -0.2258 -0.6778
vn -0.1605 -0.8886 -0.4296
vn 0.5123 -0.7064 -0.4884
vn 0.5396 -0.7161 -0.4427
vn -0.0396 -0.9895 0.1391
vn 0.9564 0.059 -0.286
vn 0.8109 0.5825 0.0559
vn 0.8486 0.5256 0.0596
vn 0.7337 0.672 0.1011
vn 0.9517 0.2114 0.2228
vn 0.6554 0.5841 0.4788
vn -0.9191 0.3816 0.0986
vn -0.6764 0.7362 0.0222
vn -0.2392 -0.3463 0.9071
vn -0.3566 -0.9341 0.014
vn 0.9001 -0.4345 -0.0312
vn 0.5383 -0.234 -0.8096
vn 0.8515 0.2663 0.4518
vn -0.0608 -0.9931 0.1004
vn 0.5114 0.3274 0.7945
vn -0.1113 0.7036 0.7018
vn -0.4413 0.1629 0.8824
vn -0.3591 0.0449 0.9322
vn 0.7963 0.0598 0.6019
vn -0.9177 0.3123 0.2456
vn -0.9165 0.3434 0.205
vn -0.9006 -0.3867 0.1985
vn -0.9012 -0.3832 0.2026
vn -0.4981 -0.8548 0.1455
vn -0.0782 -0.4302 0.8994
vn -0.04 -0.4361 0.899
vn 0.389 0.0554 0.9196
vn 0.5656 -0.0887 0.8199
vn -0.3585 -0.0221 0.9333
vn -0.27 -0.0948 0.9582
vn -0.2802 -0.6852 -0.6723
vn -0.8141 -0.1481 -0.5616
vn -0.8711 0.4758 -0.1219
vn -0.8439 0.2554 -0.4718
vn -0.4178 0.821 0.3891
vn 0.5922 0.451 0.6677
vn 0.3759 0.8055 0.4582
vn 0.6975 -0.7018 -0.1446
vn -0.2221 -0.603 -0.7662
vn -0.9643 0.088 -0.2499
vn -0.9271 0.3747 0.0045
vn 0.2444 0.6351 0.7327
vn 0.5727 0.4248 0.7011
vn 0.783 -0.5176 -0.3449
vn 0.5848 0.1004 -0.8049
vn -0.0 0.0706 -0.9975
vn -0.5514 0.3466 -0.7589
vn -0.9508 0.0219 -0.3089
vn -0.9508 0.0219 0.3089
vn -0.5873 0.0405 0.8084
vn -0.7924 0.2015 0.5757
vn -0.0 0.0706 0.9975
vn 0.2988 0.2545 0.9197
vn 0.5848 0.1004 0.8049
vn 0.9443 0.1187 0.3068
vn 0.9443 0.1187 -0.3068
vn 0.7772 0.2775 -0.5647
vn 0.2892 0.3521 -0.8901
vn -0.3776 0.2634 -0.8877
vn -0.5669 0.2644 -0.7802
vn -0.6435 0.2525 -0.7226
vn -0.8217 0.5035 0.267
vn -0.747 0.3838 0.5428
vn 0.2994 0.248 0.9214
vn -0.0 0.123 0.9924
vn 0.5676 0.2596 0.7813
vn 0.9294 0.212 0.302
vn 0.8017 0.1338 -0.5825
vn 0.9636 0.2674 -0.0
vn 0.2916 0.3314 -0.8973
vn -0.5332 -0.4209 -0.7339
vn -0.7014 -0.4983 -0.5096
vn -0.673 -0.7066 0.2187
vn -0.6691 -0.5621 0.4861
vn -0.0 0.2405 0.9707
vn 0.2916 0.3314 0.8973
vn 0.4996 0.5269 0.6876
vn 0.7112 0.703 -0.0
vn 0.2988 0.2553 0.9195
vn -0.7374 -0.4113 0.5358
vn -0.7374 -0.4113 -0.5358
vn 0.2988 0.2553 -0.9195
vn 0.8168 0.5769 -0.0
vn 0.0644 0.0029 -0.9979
vn 0.1313 0.0911 -0.9872
vn -0.1507 0.8773 -0.4556
vn -0.1261 0.8721 -0.4729
vn 0.805 0.5213 -0.2832
vn 0.8145 0.5174 -0.2625
vn -0.1929 0.1684 -0.9667
vn -0.8654 0.2499 -0.4343
vn -0.9246 0.1356 -0.356
vn -0.4375 0.8096 -0.3912
vn -0.4652 0.7837 -0.4116
vn -0.0235 -0.3371 -0.9412
vn -0.0519 -0.1983 -0.9788
vn -0.8396 0.3517 -0.414
vn 0.0647 -0.0656 -0.9957
vn 0.6197 0.7801 -0.0864
vn 0.4795 0.7993 0.3622
vn -0.183 0.6213 -0.7619
vn -0.7356 0.4851 0.4728
vn -0.879 0.4766 -0.0138
vn -0.976 -0.2161 0.0286
vn -0.624 -0.7814 0.0055
vn -0.6702 -0.7324 -0.1196
vn -0.8733 -0.238 0.425
vn -0.8408 -0.4004 0.3642
vn -0.1033 -0.8759 -0.4713
vn 0.2079 -0.5514 -0.8079
vn 0.9617 -0.1442 -0.2331
vn 0.9399 -0.3206 0.1174
vn 0.4632 -0.8653 0.1915
vn 0.7459 -0.6633 -0.0596
vn 0.8101 -0.526 -0.259
vn 0.7293 0.6044 -0.3206
vn 0.9664 -0.1084 0.2331
vn 0.8593 -0.0762 0.5057
vn 0.4612 0.8157 0.3491
vn -0.1491 0.5404 -0.8281
vn -0.7321 0.4877 0.4756
vn 0.3439 0.8409 0.4179
vn -0.7753 -0.2517 0.5793
vn -0.6774 -0.7259 -0.1191
vn -0.255 -0.7704 0.5844
vn -0.2528 -0.7749 0.5794
vn -0.0256 -0.0801 0.9965
vn 0.1894 -0.008 0.9819
vn 0.1116 0.8302 0.5461
vn -0.7453 0.4815 0.4612
vn -0.1553 0.0999 0.9828
vn -0.3856 -0.2419 0.8904
vn -0.0544 -0.4091 0.9109
vn 0.1442 -0.3186 0.9368
vn 0.0043 0.0066 1.0
vn 0.94 -0.3215 0.1141
vn 0.9919 -0.0281 0.1237
vn 0.7747 -0.623 -0.1079
vn 0.2419 0.4497 -0.8598
vn -0.8512 0.5237 0.0344
vn -0.6232 0.7477 -0.2294
vn -0.324 -0.5377 0.7784
vn -0.6267 0.214 0.7493
vn 0.073 -0.6539 0.7531
vn 0.4859 -0.8232 -0.2938
vn 0.2323 0.4391 -0.8679
vn -0.2686 0.9625 0.0368
vn -0.4404 0.8405 0.3157
vn -0.4963 0.3194 0.8073
vn -0.1539 -0.3512 0.9236
vn 0.0219 -0.7071 0.7068
vn -0.9477 0.2997 -0.1099
vn 0.1254 0.3186 -0.9396
vn 0.9562 -0.2609 0.1326
vn -0.0918 -0.2796 0.9557
vn -0.058 0.9692 0.2392
vn 0.058 -0.9692 -0.2392
vn 0.7173 0.2071 -0.6653
vn -0.7173 -0.2071 0.6653
vn 0.9867 0.0874 0.1374
vn -0.9867 -0.0874 -0.1374
vn 0.1371 -0.8875 -0.4398
vn 0.1371 -0.8875 -0.4399
vn -0.1371 0.8875 0.4398
vn -0.6975 0.0941 -0.7103
vn -0.819 0.5472 -0.1725
vn -0.8895 0.1651 0.4261
vn -0.8116 -0.5241 0.2582
vn -0.6929 -0.568 -0.4441
vn -0.0478 0.2312 -0.9717
vn -0.2444 0.9643 -0.1015
vn -0.3584 0.3461 0.867
vn -0.2323 -0.7691 0.5955
vn -0.0403 -0.8401 -0.541
vn 0.3584 -0.3461 -0.867
vn 0.2323 0.7691 -0.5955
vn 0.0403 0.8401 0.541
vn 0.0478 -0.2312 0.9717
vn 0.2444 -0.9643 0.1015
vn 0.8895 -0.1651 -0.4261
vn 0.8116 0.5241 -0.2582
vn 0.6929 0.568 0.4441
vn 0.6975 -0.0941 0.7103
vn 0.819 -0.5472 0.1725
vn 0.9842 0.0719 0.1618
vn -0.9842 -0.0719 -0.1618
vn 0.024 0.8511 -0.5245
vn -0.024 -0.8511 0.5245
vn -0.8789 0.4028 0.2557
vn -0.8565 -0.2895 0.4273
vn -0.7313 -0.6607 -0.1692
vn -0.6763 -0.1978 -0.7095
vn -0.7675 0.4595 -0.4469
vn -0.3412 0.7307 0.5913
vn -0.305 -0.3895 0.8691
vn -0.1025 -0.9901 -0.0962
vn -0.0135 -0.241 -0.9704
vn -0.161 0.8225 -0.5455
vn 0.1025 0.9901 0.0962
vn 0.0135 0.241 0.9704
vn 0.161 -0.8225 0.5455
vn 0.3412 -0.7307 -0.5913
vn 0.305 0.3895 -0.8691
vn 0.7313 0.6607 0.1692
vn 0.6763 0.1978 0.7095
vn 0.7675 -0.4595 0.4469
vn 0.8789 -0.4028 -0.2557
vn 0.8565 0.2895 -0.4273
vn 0.6769 -0.5452 -0.4946
vn 0.6769 -0.5452 -0.4945
vn -0.6769 0.5452 0.4945
vn -0.1072 0.5917 -0.799
vn 0.1072 -0.5916 0.799
vn 0.1072 -0.5917 0.799
vn -0.1375 0.8871 0.4406
vn -0.2254 0.3546 0.9075
vn -0.7451 -0.0692 0.6634
vn -0.9784 0.2014 0.0456
vn -0.603 0.7924 -0.0921
vn 0.5208 0.8366 0.1697
vn 0.3787 -0.025 0.9252
vn -0.4622 -0.7108 0.5303
vn -0.8398 -0.2729 -0.4693
vn -0.2323 0.6834 -0.6921
vn 0.4622 0.7108 -0.5303
vn 0.8398 0.2729 0.4693
vn 0.2323 -0.6834 0.6921
vn -0.5208 -0.8366 -0.1697
vn -0.3787 0.025 -0.9252
vn 0.7451 0.0692 -0.6634
vn 0.9784 -0.2014 -0.0456
vn 0.603 -0.7924 0.0921
vn 0.1375 -0.8871 -0.4406
vn 0.2254 -0.3546 -0.9075
vn 0.2146 -0.9302 -0.2978
vn -0.2146 0.9302 0.2978
vn -0.5478 0.1378 -0.8252
vn 0.5478 -0.1378 0.8252
vn 0.1936 0.9614 -0.1953
vn 0.3871 0.7929 0.4706
vn -0.19 0.5501 0.8132
vn -0.7401 0.5686 0.359
vn -0.5031 0.8228 -0.2643
vn 0.5489 0.5341 -0.643
vn 0.8619 0.2614 0.4345
vn -0.0718 -0.1314 0.9887
vn -0.9619 -0.1015 0.2538
vn -0.5783 0.3099 -0.7547
vn 0.0718 0.1314 -0.9887
vn 0.9619 0.1015 -0.2538
vn 0.5783 -0.3099 0.7547
vn -0.5489 -0.5341 0.643
vn -0.8619 -0.2614 -0.4345
vn 0.19 -0.5501 -0.8132
vn 0.7401 -0.5686 -0.359
vn 0.5031 -0.8228 0.2643
vn -0.1936 -0.9614 0.1953
vn -0.3871 -0.7929 -0.4706
vn -0.0239 -0.6282 -0.7777
vn 0.0239 0.6282 0.7777
vn -0.9774 0.1781 -0.1139
vn 0.9774 -0.1781 0.1139
vn -0.0431 0.9699 0.2397
vn 0.5739 0.682 0.4533
vn 0.424 0.1415 0.8945
vn -0.2857 0.0953 0.9536
vn -0.5744 0.6073 0.5488
vn -0.0959 0.8794 -0.4662
vn 0.9025 0.4136 -0.1205
vn 0.6599 -0.461 0.5934
vn -0.4884 -0.5356 0.6889
vn -0.9556 0.2928 0.034
vn -0.6599 0.461 -0.5934
vn 0.4884 0.5356 -0.6889
vn 0.9556 -0.2928 -0.034
vn 0.0959 -0.8794 0.4662
vn -0.9025 -0.4136 0.1205
vn -0.424 -0.1415 -0.8945
vn 0.2857 -0.0953 -0.9536
vn 0.5744 -0.6073 -0.5488
vn 0.0431 -0.9699 -0.2397
vn -0.5739 -0.682 -0.4533
vn 0.2759 -0.9014 -0.3337
vn -0.2759 0.9014 0.3337
vn -0.6208 -0.4321 0.6541
vn -0.6208 -0.4322 0.6541
vn 0.6208 0.4321 -0.6541
vn 0.6208 0.4322 -0.6541
vn -0.7594 0.6506 -0.004
vn -0.1762 0.9381 -0.2983
vn 0.3475 0.919 0.1861
vn 0.088 0.6198 0.7798
vn -0.5961 0.454 0.6623
vn -0.9257 0.0628 -0.373
vn 0.0179 0.5279 -0.8491
vn 0.8652 0.4971 -0.0653
vn 0.4453 0.013 0.8953
vn -0.6615 -0.2554 0.7051
vn -0.8652 -0.4971 0.0653
vn -0.4453 -0.013 -0.8953
vn 0.6615 0.2554 -0.7051
vn 0.9257 -0.0628 0.373
vn -0.0179 -0.5279 0.8491
vn -0.088 -0.6198 -0.7798
vn 0.5961 -0.454 -0.6623
vn 0.7594 -0.6506 0.004
vn 0.1762 -0.9381 0.2983
vn 0.2098 0.8841 -0.4176
vn -0.2098 -0.8841 0.4176
vn -0.3653 -0.4196 0.831
vn 0.3039 -0.6358 0.7095
vn 0.3227 -0.9442 0.0662
vn -0.3349 -0.9186 -0.21
vn -0.76 -0.5944 0.2627
vn -0.3606 0.2919 0.8859
vn 0.7221 -0.0579 0.6893
vn 0.7525 -0.5569 -0.3516
vn -0.3114 -0.5154 -0.7983
vn -0.9994 0.0091 -0.0335
vn -0.7525 0.5569 0.3516
vn 0.3114 0.5154 0.7983
vn 0.9994 -0.0091 0.0335
vn 0.3606 -0.2919 -0.8859
vn -0.7221 0.0579 -0.6893
vn -0.3227 0.9442 -0.0662
vn 0.3349 0.9186 0.21
vn 0.76 0.5944 -0.2627
vn 0.3653 0.4197 -0.831
vn -0.3039 0.6358 -0.7095
vn 0.2037 0.6495 -0.7325
vn -0.2037 -0.6495 0.7325
vn -0.3126 -0.056 0.9482
vn 0.3383 -0.3399 0.8775
vn 0.298 -0.8674 0.3986
vn -0.3779 -0.9095 0.1732
vn -0.7552 -0.408 0.5129
vn -0.2821 0.6227 0.7298
vn 0.7711 0.1634 0.6154
vn 0.7059 -0.6902 -0.1596
vn -0.3877 -0.7583 -0.5241
vn -0.9983 0.0531 0.0255
vn -0.7059 0.6902 0.1596
vn 0.3877 0.7583 0.5241
vn 0.9983 -0.0531 -0.0255
vn 0.2821 -0.6227 -0.7298
vn -0.7711 -0.1634 -0.6154
vn -0.298 0.8674 -0.3986
vn 0.3779 0.9095 -0.1732
vn 0.7552 0.408 -0.5129
vn 0.3126 0.056 -0.9482
vn -0.3383 0.3399 -0.8775
vn 0.5689 0.2513 -0.7831
vn -0.0 0.3097 -0.9508
vn -0.2671 0.5026 -0.8222
vn -0.5473 0.3649 -0.7532
vn -0.8728 0.3972 -0.2836
vn -0.8728 0.3972 0.2836
vn -0.5473 0.3649 0.7532
vn -0.6821 0.5377 0.4956
vn -0.0 0.3097 0.9508
vn 0.5689 0.2513 0.7831
vn -0.0384 0.0051 0.9992
vn 0.9291 0.2137 0.3019
vn 0.9864 0.0801 0.1436
vn 0.9291 0.2137 -0.3019
vn 0.787 0.2315 -0.5718
vn -0.0 0.041 -0.9992
vn -0.5854 -0.0893 -0.8058
vn -0.7978 -0.1659 -0.5796
vn -0.7978 -0.1659 0.5796
vn -0.0 0.041 0.9992
vn 0.7943 0.1898 0.5771
vn 0.5792 0.1704 0.7972
vn 0.9469 0.1048 -0.3041
vn 0.3006 0.6111 -0.7323
vn 0.5593 0.1998 -0.8045
vn -0.5288 0.4962 -0.6886
vn -0.6202 0.6134 -0.4889
vn -0.8321 0.4844 -0.27
vn -0.832 0.4844 0.2703
vn -0.6203 0.6133 0.489
vn -0.3921 0.3334 0.8574
vn 0.0421 0.4417 0.8962
vn 0.5558 0.2808 0.7825
vn 0.8526 -0.0496 0.5202
vn 0.9475 0.1048 0.3022
vn 0.5604 0.3017 -0.7713
vn 0.2615 -0.1833 -0.9476
vn -0.3019 0.2136 -0.9291
vn -0.4234 0.7036 -0.5706
vn -0.5518 0.8144 -0.1793
vn -0.5519 0.8144 -0.1793
vn -0.5518 0.8144 0.1793
vn -0.6208 0.6413 0.451
vn -0.2513 0.7164 0.6508
vn -0.0 0.2311 0.9729
vn 0.6333 -0.6553 0.4117
vn 0.68 -0.6991 -0.2209
vn 0.6775 -0.701 -0.2227
vn 0.645 0.6037 -0.4686
vn 0.5299 0.4348 -0.7281
vn -0.0 0.2443 -0.9697
vn -0.7674 -0.3181 -0.5567
vn -0.767 -0.3181 -0.5573
vn -0.767 -0.3181 0.5573
vn -0.7674 -0.3181 0.5567
vn 0.0093 0.2495 0.9683
vn 0.482 0.5837 0.6535
vn 0.7103 0.6648 0.2316
vn 0.4786 0.5805 0.6588
vn 0.886 0.1436 0.4408
vn 0.8783 0.1428 0.4563
vn 0.6303 -0.704 0.3274
vn 0.7942 -0.5398 -0.2791
vn -0.2463 0.1767 0.9529
vn -0.2973 0.2824 0.9121
vn -0.4313 0.3549 0.8295
vn -0.2385 0.3023 0.9229
vn -0.3399 -0.2588 -0.9041
vn -0.6898 0.636 -0.346
vn -0.1881 0.7456 0.6393
vn 0.5459 -0.0653 0.8353
vn 0.6059 -0.7956 -0.0
vn -0.2852 -0.2172 -0.9335
vn 0.287 -0.6615 -0.6929
vn -0.5914 0.0296 -0.8058
vn -0.8224 0.5104 -0.2513
vn -0.2993 0.6497 0.6988
vn 0.6614 0.0298 0.7495
vn 0.8058 -0.2551 0.5345
vn 0.7749 -0.6219 -0.1133
vn 0.4787 0.0673 -0.8754
vn -0.7237 0.2524 -0.6423
vn 0.8467 0.4161 -0.3316
vn -0.1003 -0.107 -0.9892
vn -0.0651 -0.0642 -0.9958
vn -0.06 -0.1513 -0.9867
vn -0.2882 -0.9057 -0.311
vn -0.1658 -0.8005 -0.576
vn 0.5873 -0.6403 -0.495
vn 0.5922 -0.6391 -0.4908
vn 0.9116 -0.0473 -0.4084
vn 0.0188 0.1663 -0.9859
vn -0.6819 0.2553 -0.6855
vn -0.6945 0.3643 0.6205
vn -0.1445 0.6749 -0.7236
vn -0.8304 -0.0598 -0.5539
vn -0.74 0.0498 -0.6708
vn -0.7953 0.31 -0.5209
vn -0.8999 -0.2639 -0.3471
vn -0.1794 -0.9412 -0.2861
vn -0.7497 -0.5927 0.2943
vn 0.4599 -0.7996 -0.3862
vn 0.6589 -0.33 -0.676
vn 0.6748 0.2889 -0.6791
vn 0.8026 0.1235 -0.5836
vn 0.8319 0.5403 0.1267
vn 0.8506 -0.0979 0.5166
vn -0.9887 0.0832 -0.1245
vn -0.6529 0.494 -0.5742
vn -0.7674 0.479 0.4262
vn -0.7657 -0.4733 -0.4356
vn -0.7571 -0.5372 0.3719
vn -0.6043 -0.6233 0.4963
vn -0.7336 0.6296 0.2558
vn -0.2956 -0.6688 -0.6821
vn -0.3595 -0.7533 -0.5507
vn 0.2068 -0.9035 0.3755
vn -0.7478 -0.5966 0.2911
vn 0.4544 -0.8608 -0.2293
vn 0.9953 -0.0965 0.0093
vn 0.8659 0.2507 0.4328
vn 0.8138 0.3864 -0.434
vn 0.4978 0.5981 0.6281
vn 0.4996 0.5994 0.6254
vn 0.7765 0.3126 0.5472
vn -0.846 0.4972 -0.1927
vn -0.8258 0.401 0.3965
vn -0.8147 0.4212 0.3984
vn -0.4139 0.4702 0.7795
vn -0.8147 0.4215 0.3983
vn -0.4989 0.7687 0.4002
vn -0.6497 -0.4495 0.6131
vn -0.5334 -0.1817 0.8261
vn -0.2713 -0.0384 0.9617
vn -0.4524 0.2951 0.8416
vn 0.4344 -0.7712 0.4654
vn 0.0161 -0.893 0.4498
vn 0.3241 -0.4666 0.823
vn 0.9585 0.007 0.2851
vn 0.6535 -0.5218 0.5483
vn -0.0317 -0.2809 0.9592
vn 0.2411 -0.249 0.938
vn -0.2202 -0.6546 -0.7232
vn -0.554 -0.8245 -0.1157
vn -0.0585 -0.9194 0.389
vn 0.5815 -0.8082 0.0935
vn 0.4815 -0.6445 -0.5939
vn -0.42 0.0053 -0.9075
vn -0.96 -0.2696 0.0755
vn -0.1583 -0.4232 0.8921
vn 0.8772 -0.2432 0.4139
vn 0.7155 0.0216 -0.6983
vn 0.1583 0.4232 -0.8921
vn -0.8772 0.2432 -0.4139
vn -0.7155 -0.0216 0.6983
vn 0.42 -0.0053 0.9075
vn 0.96 0.2696 -0.0755
vn 0.0585 0.9194 -0.389
vn -0.5815 0.8082 -0.0935
vn -0.4815 0.6445 0.5939
vn 0.2202 0.6546 0.7232
vn 0.554 0.8245 0.1157
usemtl Elf_bush_Map
f 1//1 2//1 10//1
f 32//2 11//2 2//2
f 2//3 11//3 10//3
f 11//4 33//4 12//4
f 12//5 33//5 4//5
f 4//6 5//6 12//6
f 5//7 6//7 12//7
f 12//7 6//7 13//7
f 6//8 7//8 13//8
f 7//8 14//8 13//8
f 7//9 8//9 14//9
f 14//9 8//9 15//9
f 8//10 9//10 15//10
f 1//11 10//11 9//11
f 9//12 10//12 15//12
f 10//13 17//13 16//13
f 10//14 11//14 17//14
f 12//15 18//15 11//15
f 11//16 18//16 17//16
f 12//17 13//17 18//17
f 18//17 13//17 19//17
f 13//18 14//18 19//18
f 19//18 14//18 20//18
f 14//19 15//19 20//19
f 15//20 21//20 20//20
f 15//21 10//21 21//21
f 21//22 10//22 16//22
f 16//23 17//23 22//23
f 17//24 18//24 22//24
f 22//25 18//25 23//25
f 19//26 24//26 18//26
f 18//27 24//27 23//27
f 20//28 25//28 19//28
f 19//29 25//29 24//29
f 20//30 26//30 25//30
f 20//31 21//31 26//31
f 21//32 16//32 26//32
f 26//33 16//33 22//33
f 22//34 23//34 27//34
f 27//35 23//35 28//35
f 24//36 29//36 23//36
f 23//36 29//36 28//36
f 25//37 30//37 24//37
f 24//37 30//37 29//37
f 25//38 26//38 30//38
f 26//39 31//39 30//39
f 26//40 22//40 31//40
f 31//40 22//40 27//40
f 11//41 32//41 3//41
f 3//42 33//42 11//42
f 35//43 37//43 34//43
f 34//44 37//44 36//44
f 38//45 39//45 40//45
f 40//46 39//46 41//46
f 35//47 41//47 37//47
f 37//47 41//47 39//47
f 34//48 36//48 40//48
f 40//48 36//48 38//48
f 42//49 44//49 43//49
f 42//50 45//50 44//50
f 42//51 46//51 45//51
f 42//52 47//52 46//52
f 42//53 43//53 47//53
f 43//54 44//54 49//54
f 44//55 45//55 50//55
f 45//56 46//56 51//56
f 46//57 47//57 52//57
f 47//58 43//58 48//58
f 43//59 49//59 48//59
f 44//60 50//60 49//60
f 45//61 51//61 50//61
f 46//62 52//62 51//62
f 47//63 48//63 52//63
f 48//64 49//64 53//64
f 49//65 50//65 53//65
f 50//66 51//66 53//66
f 51//67 52//67 53//67
f 52//68 48//68 53//68
f 54//69 57//69 56//69
f 54//70 58//70 57//70
f 54//71 59//71 58//71
f 54//72 55//72 59//72
f 56//73 57//73 62//73
f 57//74 58//74 63//74
f 58//75 59//75 64//75
f 59//76 55//76 60//76
f 55//77 61//77 60//77
f 56//78 62//78 61//78
f 57//79 63//79 62//79
f 58//80 64//80 63//80
f 59//81 60//81 64//81
f 60//82 61//82 65//82
f 61//83 62//83 65//83
f 62//84 63//84 65//84
f 63//85 64//85 65//85
f 64//86 60//86 65//86
f 66//87 67//87 68//87
f 68//87 67//87 69//87
f 71//88 66//88 70//88
f 70//88 66//88 68//88
f 72//89 84//89 73//89
f 73//90 84//90 85//90
f 84//91 74//91 85//91
f 84//92 72//92 86//92
f 75//93 87//93 86//93
f 86//94 87//94 84//94
f 87//95 74//95 84//95
f 86//96 72//96 90//96
f 90//97 72//97 88//97
f 76//98 89//98 88//98
f 88//99 89//99 90//99
f 75//100 86//100 89//100
f 89//101 86//101 90//101
f 72//102 77//102 88//102
f 72//103 73//103 91//103
f 91//104 77//104 72//104
f 92//105 73//105 85//105
f 85//106 74//106 92//106
f 92//107 74//107 79//107
f 87//108 75//108 80//108
f 80//109 74//109 87//109
f 75//110 89//110 81//110
f 89//111 76//111 81//111
f 88//112 77//112 76//112
f 76//113 77//113 93//113
f 93//114 82//114 76//114
f 94//115 77//115 91//115
f 73//116 78//116 91//116
f 91//117 78//117 94//117
f 78//118 73//118 95//118
f 95//119 73//119 92//119
f 92//120 79//120 95//120
f 74//121 80//121 96//121
f 96//122 79//122 74//122
f 75//123 81//123 80//123
f 81//124 76//124 82//124
f 77//125 94//125 93//125
f 93//126 94//126 97//126
f 94//127 78//127 97//127
f 97//128 82//128 93//128
f 99//129 78//129 95//129
f 95//130 79//130 98//130
f 98//131 83//131 95//131
f 95//132 83//132 99//132
f 98//133 79//133 96//133
f 96//134 80//134 98//134
f 98//135 80//135 83//135
f 81//136 100//136 80//136
f 80//137 100//137 83//137
f 100//138 81//138 82//138
f 100//139 82//139 101//139
f 101//140 82//140 97//140
f 97//141 78//141 101//141
f 101//142 78//142 99//142
f 83//143 100//143 99//143
f 99//144 100//144 101//144
f 102//145 103//145 108//145
f 108//145 103//145 109//145
f 103//146 104//146 109//146
f 105//147 110//147 104//147
f 104//148 110//148 109//148
f 105//149 106//149 110//149
f 107//150 111//150 106//150
f 106//151 111//151 110//151
f 107//152 102//152 111//152
f 102//152 108//152 111//152
f 108//153 109//153 112//153
f 112//153 109//153 113//153
f 109//154 110//154 113//154
f 110//155 114//155 113//155
f 111//156 115//156 110//156
f 110//157 115//157 114//157
f 111//158 112//158 115//158
f 111//158 108//158 112//158
f 116//159 117//159 126//159
f 117//160 118//160 126//160
f 118//161 119//161 127//161
f 119//162 120//162 127//162
f 120//163 121//163 127//163
f 122//164 128//164 121//164
f 121//165 128//165 127//165
f 122//166 123//166 128//166
f 128//167 123//167 129//167
f 123//168 124//168 129//168
f 125//169 130//169 124//169
f 124//169 130//169 129//169
f 125//170 116//170 130//170
f 130//171 116//171 126//171
f 126//172 132//172 131//172
f 126//173 118//173 132//173
f 132//174 118//174 133//174
f 118//175 127//175 133//175
f 127//176 134//176 133//176
f 127//177 128//177 134//177
f 128//178 129//178 134//178
f 134//179 129//179 135//179
f 129//180 136//180 135//180
f 129//181 130//181 136//181
f 126//182 131//182 130//182
f 130//183 131//183 136//183
f 131//184 132//184 146//184
f 132//184 145//184 146//184
f 132//185 133//185 145//185
f 145//186 133//186 144//186
f 133//187 134//187 144//187
f 134//188 143//188 144//188
f 135//189 142//189 134//189
f 134//190 142//190 143//190
f 135//191 136//191 142//191
f 136//192 131//192 142//192
f 142//192 131//192 146//192
f 143//193 142//193 140//193
f 143//194 140//194 144//194
f 144//194 140//194 139//194
f 145//195 144//195 138//195
f 138//195 144//195 139//195
f 146//196 145//196 138//196
f 146//196 138//196 137//196
f 142//197 146//197 137//197
f 142//197 137//197 141//197
f 142//193 141//193 140//193
f 147//198 158//198 160//198
f 160//199 158//199 161//199
f 149//200 159//200 158//200
f 158//201 159//201 161//201
f 148//202 160//202 159//202
f 159//203 160//203 161//203
f 158//204 147//204 163//204
f 150//205 162//205 147//205
f 147//206 162//206 163//206
f 149//207 158//207 162//207
f 162//208 158//208 163//208
f 151//209 164//209 152//209
f 152//210 164//210 147//210
f 164//211 150//211 147//211
f 152//212 147//212 160//212
f 148//213 159//213 149//213
f 149//214 154//214 148//214
f 165//215 149//215 162//215
f 155//216 165//216 150//216
f 150//217 165//217 162//217
f 150//218 164//218 167//218
f 164//219 151//219 167//219
f 167//220 151//220 166//220
f 166//221 156//221 167//221
f 167//222 156//222 150//222
f 169//223 151//223 170//223
f 170//224 151//224 152//224
f 152//225 168//225 170//225
f 168//226 157//226 170//226
f 170//227 157//227 169//227
f 168//228 152//228 171//228
f 171//229 152//229 160//229
f 160//230 148//230 171//230
f 153//231 168//231 148//231
f 148//232 168//232 171//232
f 148//233 154//233 153//233
f 149//234 165//234 172//234
f 165//235 155//235 172//235
f 172//236 154//236 149//236
f 150//237 156//237 155//237
f 166//238 151//238 169//238
f 169//239 157//239 166//239
f 166//240 157//240 156//240
f 155//241 173//241 154//241
f 154//242 173//242 153//242
f 154//243 172//243 174//243
f 172//244 155//244 174//244
f 155//245 154//245 174//245
f 155//246 156//246 175//246
f 156//247 157//247 175//247
f 175//248 157//248 173//248
f 173//249 155//249 175//249
f 173//250 157//250 168//250
f 168//251 153//251 173//251
f 176//252 181//252 180//252
f 176//253 182//253 181//253
f 176//253 177//253 182//253
f 178//254 183//254 177//254
f 177//255 183//255 182//255
f 179//256 184//256 178//256
f 178//257 184//257 183//257
f 179//258 180//258 184//258
f 179//252 176//252 180//252
f 180//259 181//259 192//259
f 192//259 181//259 191//259
f 181//260 182//260 191//260
f 182//260 190//260 191//260
f 183//261 189//261 182//261
f 182//262 189//262 190//262
f 183//263 184//263 189//263
f 189//264 184//264 192//264
f 184//265 180//265 192//265
f 189//266 187//266 190//266
f 190//266 187//266 186//266
f 191//267 190//267 186//267
f 191//267 186//267 185//267
f 192//268 191//268 185//268
f 192//268 185//268 188//268
f 192//269 188//269 187//269
f 189//269 192//269 187//269
f 193//270 194//270 195//270
f 195//270 194//270 196//270
f 197//271 198//271 199//271
f 199//271 198//271 200//271
f 194//272 200//272 196//272
f 196//272 200//272 198//272
f 199//273 193//273 197//273
f 197//273 193//273 195//273
f 201//274 202//274 203//274
f 203//274 202//274 204//274
f 206//275 208//275 205//275
f 205//275 208//275 207//275
f 202//276 208//276 204//276
f 204//277 208//277 206//277
f 201//278 203//278 207//278
f 207//278 203//278 205//278
f 209//279 211//279 210//279
f 209//280 212//280 211//280
f 209//281 213//281 212//281
f 209//282 214//282 213//282
f 209//283 210//283 214//283
f 210//284 211//284 216//284
f 211//285 212//285 217//285
f 212//286 213//286 218//286
f 213//287 214//287 219//287
f 214//288 210//288 215//288
f 210//289 216//289 215//289
f 211//290 217//290 216//290
f 212//291 218//291 217//291
f 213//292 219//292 218//292
f 214//293 215//293 219//293
f 215//294 216//294 220//294
f 216//295 217//295 220//295
f 217//296 218//296 220//296
f 218//297 219//297 220//297
f 219//298 215//298 220//298
f 221//299 222//299 223//299
f 223//299 222//299 224//299
f 225//300 226//300 227//300
f 227//300 226//300 228//300
f 222//301 228//301 224//301
f 224//301 228//301 226//301
f 227//302 221//302 225//302
f 225//302 221//302 223//302
f 229//303 231//303 230//303
f 229//304 232//304 231//304
f 229//305 233//305 232//305
f 229//306 234//306 233//306
f 229//307 230//307 234//307
f 230//308 231//308 236//308
f 231//309 232//309 237//309
f 232//310 233//310 238//310
f 233//311 234//311 239//311
f 234//312 230//312 235//312
f 230//313 236//313 235//313
f 231//314 237//314 236//314
f 232//315 238//315 237//315
f 233//316 239//316 238//316
f 234//317 235//317 239//317
f 235//318 236//318 240//318
f 236//319 237//319 240//319
f 237//320 238//320 240//320
f 238//321 239//321 240//321
f 239//322 235//322 240//322
f 241//323 242//323 243//323
f 243//324 242//324 244//324
f 245//325 246//325 247//325
f 247//325 246//325 248//325
f 242//326 248//326 244//326
f 244//326 248//326 246//326
f 247//327 241//327 245//327
f 245//328 241//328 243//328
f 249//329 251//329 250//329
f 249//330 252//330 251//330
f 249//331 253//331 252//331
f 249//332 254//332 253//332
f 249//333 250//333 254//333
f 250//334 251//334 256//334
f 251//335 252//335 257//335
f 252//336 253//336 258//336
f 253//337 254//337 259//337
f 254//338 250//338 255//338
f 250//339 256//339 255//339
f 251//340 257//340 256//340
f 252//341 258//341 257//341
f 253//342 259//342 258//342
f 254//343 255//343 259//343
f 255//344 256//344 260//344
f 256//345 257//345 260//345
f 257//346 258//346 260//346
f 258//347 259//347 260//347
f 259//348 255//348 260//348
f 261//349 262//349 263//349
f 263//349 262//349 264//349
f 265//350 266//350 267//350
f 267//350 266//350 268//350
f 262//351 268//351 264//351
f 264//351 268//351 266//351
f 267//352 261//352 265//352
f 265//352 261//352 263//352
f 269//353 271//353 270//353
f 269//354 272//354 271//354
f 269//355 273//355 272//355
f 269//356 274//356 273//356
f 269//357 270//357 274//357
f 270//358 271//358 276//358
f 271//359 272//359 277//359
f 272//360 273//360 278//360
f 273//361 274//361 279//361
f 274//362 270//362 275//362
f 270//363 276//363 275//363
f 271//364 277//364 276//364
f 272//365 278//365 277//365
f 273//366 279//366 278//366
f 274//367 275//367 279//367
f 275//368 276//368 280//368
f 276//369 277//369 280//369
f 277//370 278//370 280//370
f 278//371 279//371 280//371
f 279//372 275//372 280//372
f 281//373 282//373 283//373
f 283//373 282//373 284//373
f 285//374 286//374 287//374
f 287//374 286//374 288//374
f 282//375 288//375 284//375
f 284//375 288//375 286//375
f 287//376 281//376 285//376
f 285//376 281//376 283//376
f 289//377 291//377 290//377
f 289//378 292//378 291//378
f 289//379 293//379 292//379
f 289//380 294//380 293//380
f 289//381 290//381 294//381
f 290//382 291//382 296//382
f 291//383 292//383 297//383
f 292//384 293//384 298//384
f 293//385 294//385 299//385
f 294//386 290//386 295//386
f 290//387 296//387 295//387
f 291//388 297//388 296//388
f 292//389 298//389 297//389
f 293//390 299//390 298//390
f 294//391 295//391 299//391
f 295//392 296//392 300//392
f 296//393 297//393 300//393
f 297//394 298//394 300//394
f 298//395 299//395 300//395
f 299//396 295//396 300//396
f 301//397 302//397 303//397
f 303//397 302//397 304//397
f 305//398 306//398 307//398
f 307//398 306//398 308//398
f 302//399 308//399 304//399
f 304//400 308//400 306//400
f 307//401 301//401 305//401
f 305//402 301//402 303//402
f 309//403 311//403 310//403
f 309//404 312//404 311//404
f 309//405 313//405 312//405
f 309//406 314//406 313//406
f 309//407 310//407 314//407
f 310//408 311//408 316//408
f 311//409 312//409 317//409
f 312//410 313//410 318//410
f 313//411 314//411 319//411
f 314//412 310//412 315//412
f 310//413 316//413 315//413
f 311//414 317//414 316//414
f 312//415 318//415 317//415
f 313//416 319//416 318//416
f 314//417 315//417 319//417
f 316//418 317//418 320//418
f 317//419 318//419 320//419
f 318//420 319//420 320//420
f 319//421 315//421 320//421
f 321//422 322//422 323//422
f 323//422 322//422 324//422
f 325//423 326//423 327//423
f 327//423 326//423 328//423
f 322//375 328//375 324//375
f 324//375 328//375 326//375
f 327//376 321//376 325//376
f 325//376 321//376 323//376
f 329//424 331//424 330//424
f 329//425 332//425 331//425
f 329//426 333//426 332//426
f 329//427 334//427 333//427
f 329//428 330//428 334//428
f 330//429 331//429 336//429
f 331//430 332//430 337//430
f 332//431 333//431 338//431
f 333//432 334//432 339//432
f 334//433 330//433 335//433
f 330//434 336//434 335//434
f 331//435 337//435 336//435
f 332//436 338//436 337//436
f 333//437 339//437 338//437
f 334//438 335//438 339//438
f 335//439 336//439 340//439
f 336//440 337//440 340//440
f 337//441 338//441 340//441
f 338//442 339//442 340//442
f 339//443 335//443 340//443
f 341//444 342//444 343//444
f 343//444 342//444 344//444
f 345//445 346//445 347//445
f 347//445 346//445 348//445
f 342//375 348//375 344//375
f 344//375 348//375 346//375
f 347//376 341//376 345//376
f 345//376 341//376 343//376
f 349//446 351//446 350//446
f 349//447 352//447 351//447
f 349//448 353//448 352//448
f 349//449 354//449 353//449
f 349//450 350//450 354//450
f 350//451 351//451 356//451
f 351//452 352//452 357//452
f 352//453 353//453 358//453
f 353//454 354//454 359//454
f 354//455 350//455 355//455
f 350//456 356//456 355//456
f 351//457 357//457 356//457
f 352//458 358//458 357//458
f 353//459 359//459 358//459
f 354//460 355//460 359//460
f 355//461 356//461 360//461
f 356//462 357//462 360//462
f 357//463 358//463 360//463
f 358//464 359//464 360//464
f 359//465 355//465 360//465
f 362//466 372//466 361//466
f 361//466 372//466 371//466
f 362//467 363//467 372//467
f 372//468 363//468 373//468
f 363//469 364//469 373//469
f 365//470 374//470 364//470
f 364//470 374//470 373//470
f 365//471 366//471 374//471
f 367//472 375//472 366//472
f 366//473 375//473 374//473
f 367//474 402//474 375//474
f 375//474 402//474 403//474
f 405//475 369//475 404//475
f 404//476 369//476 377//476
f 370//477 378//477 369//477
f 369//478 378//478 377//478
f 361//479 371//479 370//479
f 370//479 371//479 378//479
f 379//480 380//480 384//480
f 384//480 380//480 385//480
f 380//481 381//481 385//481
f 385//482 381//482 386//482
f 381//483 382//483 386//483
f 382//484 383//484 386//484
f 383//484 387//484 386//484
f 383//485 388//485 387//485
f 383//486 384//486 388//486
f 383//487 379//487 384//487
f 389//488 390//488 401//488
f 390//489 389//489 391//489
f 390//490 391//490 392//490
f 391//491 393//491 392//491
f 392//492 393//492 394//492
f 394//493 393//493 395//493
f 394//494 395//494 396//494
f 394//495 396//495 398//495
f 398//496 396//496 397//496
f 398//497 397//497 399//497
f 399//498 377//498 400//498
f 377//499 401//499 400//499
f 400//500 401//500 390//500
f 372//501 391//501 371//501
f 371//502 391//502 389//502
f 372//503 373//503 391//503
f 373//504 393//504 391//504
f 374//505 395//505 373//505
f 373//506 395//506 393//506
f 374//507 396//507 395//507
f 374//508 375//508 396//508
f 396//509 375//509 397//509
f 375//510 403//510 397//510
f 377//511 378//511 401//511
f 371//512 389//512 378//512
f 378//513 389//513 401//513
f 390//514 380//514 379//514
f 390//515 392//515 380//515
f 380//516 392//516 381//516
f 392//517 394//517 381//517
f 394//518 382//518 381//518
f 394//519 383//519 382//519
f 394//520 398//520 383//520
f 398//521 399//521 383//521
f 399//522 400//522 383//522
f 390//523 379//523 400//523
f 400//524 379//524 383//524
f 402//525 368//525 403//525
f 403//526 368//526 376//526
f 403//527 376//527 397//527
f 397//528 376//528 399//528
f 404//529 377//529 376//529
f 376//530 377//530 399//530
f 405//531 404//531 368//531
f 368//532 404//532 376//532
f 406//533 412//533 411//533
f 406//533 407//533 412//533
f 407//534 408//534 412//534
f 412//534 408//534 413//534
f 408//535 409//535 413//535
f 409//535 414//535 413//535
f 409//536 410//536 414//536
f 414//536 410//536 415//536
f 410//537 406//537 415//537
f 415//537 406//537 411//537
f 411//538 412//538 416//538
f 416//539 412//539 417//539
f 412//540 418//540 417//540
f 412//541 413//541 418//541
f 418//541 413//541 419//541
f 413//542 420//542 419//542
f 413//542 414//542 420//542
f 415//543 416//543 414//543
f 414//544 416//544 420//544
f 415//545 411//545 416//545
f 422//546 421//546 432//546
f 432//547 423//547 433//547
f 433//548 422//548 432//548
f 432//549 421//549 423//549
f 423//550 421//550 424//550
f 424//551 421//551 434//551
f 434//552 425//552 424//552
f 424//553 425//553 435//553
f 426//554 425//554 421//554
f 421//555 425//555 434//555
f 422//556 426//556 421//556
f 437//557 422//557 433//557
f 433//558 423//558 436//558
f 436//559 427//559 433//559
f 427//560 437//560 433//560
f 423//561 424//561 428//561
f 428//562 424//562 438//562
f 424//563 435//563 440//563
f 440//564 435//564 439//564
f 435//565 425//565 439//565
f 439//566 429//566 440//566
f 426//567 430//567 425//567
f 426//568 422//568 441//568
f 441//569 422//569 442//569
f 442//570 422//570 437//570
f 437//571 427//571 442//571
f 442//572 426//572 441//572
f 436//573 423//573 443//573
f 443//574 423//574 428//574
f 443//575 427//575 436//575
f 438//576 424//576 440//576
f 429//577 444//577 440//577
f 440//578 444//578 438//578
f 444//579 428//579 438//579
f 425//580 430//580 439//580
f 439//581 430//581 445//581
f 430//582 429//582 445//582
f 429//583 439//583 445//583
f 446//584 430//584 426//584
f 426//585 442//585 448//585
f 448//586 442//586 449//586
f 442//587 427//587 449//587
f 449//588 427//588 447//588
f 447//589 431//589 449//589
f 449//590 431//590 448//590
f 427//591 443//591 447//591
f 447//592 443//592 450//592
f 443//593 428//593 450//593
f 450//594 431//594 447//594
f 450//595 428//595 452//595
f 452//596 428//596 444//596
f 429//597 451//597 444//597
f 444//598 451//598 452//598
f 451//599 431//599 452//599
f 452//600 431//600 450//600
f 429//601 430//601 451//601
f 430//602 446//602 451//602
f 451//603 446//603 453//603
f 446//604 426//604 453//604
f 453//605 426//605 448//605
f 448//606 431//606 453//606
f 453//607 431//607 451//607
f 454//608 456//608 455//608
f 454//609 457//609 456//609
f 454//610 458//610 457//610
f 454//611 459//611 458//611
f 454//612 455//612 459//612
f 455//613 456//613 461//613
f 456//614 457//614 462//614
f 457//615 458//615 463//615
f 458//616 459//616 464//616
f 459//617 455//617 460//617
f 455//618 461//618 460//618
f 456//619 462//619 461//619
f 457//620 463//620 462//620
f 458//621 464//621 463//621
f 459//622 460//622 464//622
f 460//623 461//623 465//623
f 461//624 462//624 465//624
f 462//625 463//625 465//625
f 463//626 464//626 465//626
f 464//627 460//627 465//627