mtllib flat.mtl
v 0.048058 0.542585 -0.376413
v 0.282907 0.805978 -0.503853
v -0.023887 0.610319 -0.170551
v -0.014819 0.495162 -0.177767
v 0.09671 0.429264 -0.309161
v 0.286548 0.436964 -0.373418
v 0.487933 0.795218 -0.50527
v 0.396847 0.89598 -0.192232
v 0.272046 0.567763 0.170373
v 0.656839 0.664131 -0.231254
v 0.597029 0.816646 -0.213776
v 0.23402 0.840927 -0.310503
v 0.035923 0.427251 -0.188029
v 0.3314 0.676133 -0.572178
v 0.216497 0.627326 -0.513697
v 0.212841 0.802258 -0.045544
v 0.150221 0.394078 0.012671
v 0.16105 0.52609 0.154188
v 0.579829 0.603045 -0.442755
v 0.369426 0.402969 -0.091302
v 0.390605 0.441638 -0.35626
v 0.442396 0.717806 -0.555993
v 0.418957 0.817805 0.014236
v 0.386949 0.61657 0.137678
v 0.515732 0.540477 -0.014043
v -0.526673 0.337493 -0.049832
v -0.364026 0.548429 0.139284
v -0.551373 0.555138 0.03986
v -0.704396 0.418063 0.18099
v -0.551373 0.280989 0.03986
v -0.278509 0.418063 0.097579
v -0.319178 0.511098 0.18099
v -0.456233 0.337493 0.361697
v -0.384981 0.475562 0.315951
v -0.450784 0.511098 -0.037383
v -0.42565 0.568596 0.097579
v -0.359847 0.418063 -0.037383
v -0.597924 0.475562 -0.037383
v -0.640647 0.337493 0.022404
v -0.597924 0.360565 -0.037383
v -0.434466 0.287698 0.022404
v -0.450784 0.325029 -0.037383
v -0.319178 0.325029 0.18099
v -0.42565 0.26753 0.097579
v -0.532121 0.511098 0.315951
v -0.532121 0.325029 0.315951
v -0.557256 0.26753 0.18099
v -0.384981 0.360565 0.315951
v -0.623059 0.418063 0.315951
v -0.247061 -0.005323 -0.114106
v -0.373249 -0.005323 -0.059576
v -0.38905 -0.005323 0.010945
v -0.360382 -0.005323 0.077286
v -0.298195 -0.005323 0.114106
v -0.226242 -0.005323 0.107342
v -0.172007 -0.005323 0.059576
v -0.156206 -0.005323 -0.010945
v -0.24984 0.132307 -0.101704
v -0.362312 0.132307 -0.053101
v -0.341997 0.145903 0.00915
v -0.309154 0.134895 0.055321
v -0.260409 0.221029 0.041183
v -0.16886 0.132307 -0.009756
v -0.214885 0.234625 -0.092669
v -0.272496 0.234625 -0.067774
v -0.293252 0.232037 -0.004988
v -0.20538 0.234625 0.008432
v -0.173406 0.234625 -0.045572
v -0.130761 0.481908 -0.109249
v -0.174657 0.481908 -0.09028
v -0.180153 0.481908 -0.065749
v -0.123519 0.481908 -0.032217
v -0.099157 0.481908 -0.073364
v -0.406541 0.201638 0.073705
v -0.378573 0.192264 0.113023
v -0.365032 0.274986 0.061666
v -0.39977 0.242999 0.048026
v -0.343835 0.224251 0.126662
v -0.462528 0.317287 0.188681
v -0.447807 0.407218 0.132848
v -0.485573 0.372443 0.11802
v -0.424762 0.352062 0.20351
v -0.417402 0.397028 0.175593
v -0.257068 0.918868 -0.579341
v -0.176459 0.800876 -0.70298
v -0.134275 0.805209 -0.687446
v -0.177319 0.785636 -0.688996
v -0.138135 0.801478 -0.670721
v -0.257928 0.903628 -0.565357
v -0.142666 0.767004 -0.719716
v -0.142781 0.764952 -0.717834
v -0.213338 0.907958 -0.566314
v -0.213222 0.91001 -0.568196
v -0.239889 0.842704 -0.686244
v -0.24075 0.827463 -0.67226
v -0.107256 0.853533 -0.635637
v -0.106396 0.868774 -0.64962
v -0.278332 0.866884 -0.661837
v -0.279192 0.851643 -0.647853
v -0.097155 0.887193 -0.597911
v -0.096295 0.902434 -0.611895
v -0.284588 0.888918 -0.613676
v -0.285448 0.873677 -0.599692
v -0.123638 0.905277 -0.555299
v -0.122778 0.920518 -0.569283
v 0.306264 0.796121 -0.474338
v 0.391215 0.812711 -0.451032
v 0.383019 0.761954 -0.643595
v 0.426102 0.764952 -0.630386
v 0.385495 0.742054 -0.638455
v 0.424743 0.753408 -0.617217
v 0.393691 0.792811 -0.445892
v 0.417873 0.745117 -0.676324
v 0.418206 0.742438 -0.675632
v 0.352169 0.787171 -0.470631
v 0.351836 0.78985 -0.471323
v 0.318082 0.781285 -0.605352
v 0.320558 0.761384 -0.600212
v 0.454051 0.787455 -0.563588
v 0.451575 0.807355 -0.568728
v 0.280604 0.78541 -0.570186
v 0.28308 0.76551 -0.565046
v 0.465117 0.80106 -0.515105
v 0.462641 0.82096 -0.520245
v 0.278037 0.781575 -0.517056
v 0.280513 0.761675 -0.511916
v 0.442323 0.793275 -0.467523
v 0.439847 0.813175 -0.472663
v -0.29808 0.752867 0.050722
v -0.378789 0.722521 0.026225
v -0.318878 0.628425 0.191393
v -0.356817 0.609455 0.175889
v -0.309871 0.613823 0.179808
v -0.350603 0.605872 0.159855
v -0.289073 0.738264 0.039137
v -0.369783 0.707919 0.014639
v -0.332978 0.584969 0.213352
v -0.331766 0.583003 0.211793
v -0.330135 0.720339 0.03997
v -0.331347 0.722305 0.04153
v -0.282778 0.693219 0.167908
v -0.273772 0.678617 0.156322
v -0.400601 0.630932 0.117827
v -0.409608 0.645534 0.129413
v -0.259448 0.729558 0.139741
v -0.250441 0.714956 0.128155
v -0.42339 0.64993 0.075661
v -0.432396 0.664532 0.087247
v -0.261683 0.74512 0.088781
v -0.252676 0.730518 0.077195
v -0.406408 0.672717 0.030534
v -0.415415 0.68732 0.042119
v 0.115418 0.5983 0.349218
v 0.031051 0.568886 0.342008
v 0.105638 0.516384 0.519221
v 0.065288 0.496996 0.513255
v 0.11252 0.498643 0.511068
v 0.069387 0.488929 0.498199
v 0.1223 0.580559 0.341066
v 0.037933 0.551145 0.333855
v 0.092226 0.48128 0.553239
v 0.093152 0.478892 0.552142
v 0.080836 0.566635 0.350805
v 0.079909 0.569023 0.351903
v 0.141684 0.56997 0.475836
v 0.148566 0.552229 0.467683
v 0.015989 0.506008 0.456352
v 0.009107 0.523749 0.464505
v 0.163185 0.595914 0.436812
v 0.170067 0.578173 0.42866
v -0.010719 0.515143 0.413208
v -0.017601 0.532884 0.421361
v 0.155663 0.597904 0.384053
v 0.162545 0.580163 0.3759
v 0.001846 0.524137 0.362165
v -0.005036 0.541878 0.370318
v -0.377813 1.121298 -0.018981
v -0.428921 1.110706 -0.091855
v -0.537707 1.077915 0.071896
v -0.56175 1.067281 0.035175
v -0.532631 1.057856 0.071251
v -0.550165 1.055761 0.028724
v -0.372737 1.101239 -0.019625
v -0.423844 1.090646 -0.0925
v -0.581641 1.053921 0.079865
v -0.580958 1.051221 0.079778
v -0.407912 1.099096 -0.047304
v -0.408595 1.101796 -0.047218
v -0.468319 1.112697 0.077244
v -0.463243 1.092637 0.0766
v -0.543555 1.075991 -0.037918
v -0.548631 1.096051 -0.037274
v -0.418563 1.125164 0.072039
v -0.413486 1.105104 0.071395
v -0.523003 1.082405 -0.084766
v -0.528079 1.102465 -0.084121
v -0.381728 1.118605 0.034035
v -0.376652 1.098545 0.03339
v -0.474 1.078368 -0.105419
v -0.479076 1.098428 -0.104775
v 0.032474 1.040172 -0.560944
v -0.037333 1.192011 -0.416669
v -0.583325 1.028626 -0.308862
v -0.40465 0.776593 -0.560944
v -0.237294 0.79201 -0.584196
v 0.029485 0.755176 -0.308862
v 0.067952 1.172816 -0.230964
v -0.017857 1.216309 -0.153066
v -0.451684 0.848926 0.143488
v -0.238683 0.659554 -0.153066
v -0.020846 0.931313 0.099016
v -0.233847 1.120686 -0.560944
v -0.450542 0.957785 -0.560944
v -0.104052 0.82751 -0.560944
v -0.232705 1.292205 -0.308862
v -0.619498 0.789828 -0.153066
v -0.453531 0.67279 -0.308862
v 0.111937 0.923133 -0.153066
v 0.113785 1.09927 -0.308862
v -0.367336 1.061588 0.099016
v -0.448695 1.133922 -0.153066
v -0.101063 1.112506 0.143488
v -0.237541 0.768412 0.099016
v 0.031331 0.980219 -0.257388
v 0.316158 1.041452 -0.257388
v 0.021581 0.782063 -0.257388
v 0.098514 0.644943 -0.144697
v 0.318062 0.795337 -0.27555
v 0.433615 1.041452 0.061199
v 0.271465 1.117339 0.145406
v 0.090024 1.14053 0.061199
v -0.041406 0.735163 0.145406
v 0.18499 0.603474 0.000354
v 0.126298 1.041452 0.258097
v 0.374922 0.881141 -0.257388
v -0.030326 1.019974 -0.170164
v 0.243682 0.72083 -0.257388
v 0.18499 1.158808 0.000354
v -0.063635 1.041452 -0.06049
v -0.122327 0.881141 0.061199
v 0.392632 0.72083 0.061199
v 0.564783 0.881141 -0.06049
v 0.349476 0.881141 0.276259
v 0.338648 0.980219 0.258097
v 0.16446 0.12189 0.022587
v 0.135239 0.171211 0.033954
v 0.16446 0.220532 0.045322
v 0.222904 0.220532 0.045322
v 0.252126 0.171211 0.033954
v 0.21751 0.147161 -0.045461
v 0.169854 0.147161 -0.045461
v 0.146026 0.187378 -0.036192
v 0.17673 0.265083 -0.126074
v 0.21751 0.227595 -0.026923
v 0.241338 0.187378 -0.036192
v 0.210634 0.20786 -0.139263
v 0.159778 0.236471 -0.132668
v 0.210634 0.265083 -0.126074
v 0.227586 0.236471 -0.132668
v 0.205469 0.447463 -0.268069
v 0.181895 0.447463 -0.268069
v 0.170109 0.457711 -0.250411
v 0.205469 0.467958 -0.232754
v 0.217256 0.457711 -0.250411
v 0.230952 0.300805 -0.20228
v 0.212317 0.324322 -0.183898
v 0.175047 0.324322 -0.183898
v 0.156413 0.300805 -0.20228
v 0.175048 0.277289 -0.220662
v 0.394662 1.059365 0.028033
v 0.365272 1.058886 0.112715
v 0.554139 1.122336 0.107459
v 0.541047 1.116805 0.150327
v 0.560749 1.10284 0.109643
v 0.536395 1.099953 0.148617
v 0.401273 1.039869 0.030218
v 0.371883 1.03939 0.114899
v 0.590405 1.125599 0.142723
v 0.591295 1.122975 0.143017
v 0.396046 1.049015 0.073773
v 0.395156 1.051639 0.073479
v 0.512179 1.118677 0.042045
v 0.51879 1.09918 0.044229
v 0.472605 1.098429 0.1773
v 0.465995 1.117925 0.175116
v 0.480882 1.103501 0.003987
v 0.487493 1.084004 0.006171
v 0.424514 1.082979 0.187632
v 0.417904 1.102476 0.185447
v 0.438615 1.071175 0.000431
v 0.445225 1.051679 0.002615
v 0.389244 1.050768 0.163913
v 0.382634 1.070264 0.161729
v -0.262175 0.586033 -0.513284
v -0.122289 0.801697 -0.254525
v -0.262175 0.816895 -0.194775
v -0.488516 0.503657 -0.44788
v -0.262175 0.355172 -0.194775
v -0.066158 0.514693 -0.465715
v 0.054987 0.701464 -0.027324
v -0.714857 0.586033 -0.135025
v -0.628403 0.452745 -0.254525
v -0.035834 0.503657 0.058331
v -0.035834 0.66841 0.058331
v -0.337047 0.701464 -0.465715
v -0.488516 0.66841 -0.44788
v -0.17572 0.452745 -0.44788
v -0.122289 0.370369 -0.254525
v 0.017598 0.586033 -0.44788
v 0.104053 0.719321 -0.135025
v -0.700483 0.657373 -0.194775
v -0.533064 0.772804 -0.194775
v 0.104053 0.452745 -0.135025
v 0.176133 0.657373 -0.194775
v 0.176133 0.514693 -0.194775
v 0.190507 0.586033 -0.254525
v -0.38332 0.772804 -0.027324
v -0.34863 0.452745 0.058331
v -0.402061 0.370369 -0.135025
v -0.34863 0.719321 0.058331
v -0.049707 1.222107 -0.20914
v -0.102553 1.212225 -0.137414
v 0.07629 1.279248 -0.080431
v 0.051499 1.269019 -0.044094
v 0.082901 1.259752 -0.078246
v 0.048368 1.252358 -0.048696
v -0.043097 1.202611 -0.206956
v -0.095942 1.192729 -0.13523
v 0.100437 1.279444 -0.035862
v 0.101327 1.27682 -0.035568
v -0.061285 1.207044 -0.166243
v -0.062175 1.209669 -0.166537
v 0.055558 1.281718 -0.155378
v 0.062168 1.262222 -0.153193
v -0.020875 1.246692 -0.040481
v -0.027485 1.266188 -0.042665
v 0.037548 1.270059 -0.20226
v 0.044158 1.250563 -0.200075
v -0.069082 1.229386 -0.046376
v -0.075693 1.248882 -0.048561
v -0.000219 1.237533 -0.22123
v 0.006392 1.218037 -0.219046
v -0.094266 1.199213 -0.082425
v -0.100877 1.218709 -0.084609
v -0.023352 0.35248 -0.089086
v 0.831203 0.434214 0.102762
v -0.137651 0.548745 -0.004099
v -0.290113 0.36343 0.162046
v 0.370303 0.301966 -0.089086
v 0.613596 0.434214 -0.089086
v 0.780268 0.434214 0.303377
v 0.660651 0.548745 0.328191
v -0.090596 0.434214 0.454067
v -0.079416 0.2489 0.202935
v 0.355727 0.319684 0.430874
v -0.023352 0.515948 -0.089086
v 0.370304 0.566463 -0.089086
v 0.602415 0.619529 0.162046
v -0.308203 0.434214 0.22133
v -0.079416 0.619529 0.162046
v -0.1994 0.566463 0.102762
v -0.1994 0.301966 0.102762
v 0.602415 0.2489 0.162046
v 0.437548 0.220232 0.102762
v 0.813113 0.36343 0.162046
v 0.152696 0.566463 0.413178
v 0.085452 0.648197 0.22133
v 0.085452 0.220232 0.22133
v 0.660651 0.319684 0.328191
v 0.722399 0.301966 0.22133
v 0.566424 0.434214 0.430874
v 0.152696 0.301966 0.413178
v 0.546351 0.35248 0.413178
v 0.23637 -0.005322 -0.016692
v 0.065244 -0.005322 0.038911
v 0.036012 -0.005322 0.128877
v 0.065244 -0.005322 0.218843
v 0.141774 -0.005322 0.274445
v 0.23637 -0.005322 0.274445
v 0.3129 -0.005322 0.218843
v 0.234488 0.115096 0.018926
v 0.163037 0.115096 0.018926
v 0.105233 0.115096 0.060923
v 0.105233 0.115096 0.19683
v 0.234488 0.115096 0.238827
v 0.292292 0.115096 0.19683
v 0.382627 0.285822 0.037535
v 0.304927 0.325523 -0.018918
v 0.208885 0.333691 -0.018918
v 0.131185 0.285822 0.037535
v 0.101506 0.285822 0.128877
v 0.131185 0.285822 0.220219
v 0.208885 0.285822 0.276671
v 0.304927 0.285822 0.276671
v 0.382627 0.285822 0.220219
v 0.412306 0.285822 0.128877
vn -0.7201 0.544 -0.4307
vn -0.9481 -0.055 -0.3132
vn -0.7548 -0.5427 -0.3685
vn -0.7644 -0.5119 -0.3921
vn -0.2426 -0.57 -0.785
vn -0.2716 -0.6337 -0.7243
vn -0.679 0.5344 -0.5033
vn -0.8922 0.3475 -0.2884
vn -0.519 0.2382 -0.8209
vn -0.1312 -0.6189 -0.7744
vn -0.6474 0.7599 0.0592
vn -0.385 0.9172 0.1031
vn -0.168 0.9618 -0.2163
vn -0.7838 -0.4231 0.4547
vn -0.7352 -0.5976 0.3199
vn -0.137 -0.9869 -0.0851
vn -0.0002 -0.9928 -0.1196
vn 0.0673 -0.988 -0.1388
vn 0.1561 -0.6025 -0.7827
vn 0.6451 -0.7639 -0.0143
vn 0.6559 -0.7526 -0.0574
vn 0.3402 -0.6379 -0.6908
vn -0.0404 0.4534 -0.8904
vn 0.0224 0.5386 -0.8422
vn 0.0481 0.9548 -0.2933
vn 0.343 0.9187 -0.1959
vn -0.8755 -0.0986 0.473
vn -0.3718 0.8249 0.4257
vn -0.0104 -0.9942 -0.107
vn 0.3085 -0.7489 0.5865
vn 0.1514 -0.5965 -0.7882
vn 0.6744 0.0839 -0.7335
vn 0.3794 0.878 0.2918
vn -0.5313 0.6508 0.5424
vn 0.022 0.5202 0.8538
vn 0.7649 0.244 0.5961
vn 0.4431 -0.5922 0.6731
vn 0.6783 -0.7344 0.0226
vn 0.7537 0.2248 0.6176
vn 0.7931 0.186 0.58
vn 0.8835 0.3076 -0.3533
vn 0.8319 0.3733 -0.4107
vn 0.0506 0.0494 -0.9975
vn 0.0881 0.9104 -0.4043
vn 0.524 0.744 -0.4146
vn 0.6399 0.6255 -0.4464
vn -0.0193 0.0799 -0.9966
vn -0.7493 0.6316 -0.1991
vn -0.178 0.737 -0.652
vn -0.1721 -0.0 -0.9851
vn -0.3418 -0.7498 -0.5665
vn -0.3666 -0.7495 -0.5512
vn -0.9045 0.1004 -0.4146
vn -0.8136 -0.0 -0.5814
vn 0.1387 -0.1355 -0.981
vn 0.6928 -0.588 -0.4175
vn 0.6046 -0.591 -0.534
vn -0.0322 -0.8416 -0.5391
vn -0.0552 -0.8536 -0.5179
vn -0.4167 0.4073 0.8127
vn 0.0164 -0.9652 -0.2609
vn 0.6944 -0.6243 -0.3578
vn 0.6131 -0.7421 -0.271
vn 0.2803 -0.9194 0.276
vn 0.6928 0.588 -0.4175
vn 0.7563 0.5879 -0.287
vn -0.05 0.9857 0.1607
vn -0.5671 0.8063 0.1682
vn -0.5176 -0.8495 -0.1026
vn -0.0617 -0.9933 -0.0973
vn 0.1716 -0.9472 0.2708
vn -0.0948 -0.9094 0.4051
vn -0.6567 -0.6419 0.3958
vn -0.7135 -0.6974 0.0675
vn 0.8989 -0.0 0.4383
vn 0.5218 -0.7273 0.4459
vn 0.3447 0.8527 0.3926
vn 0.2158 0.8934 0.3941
vn -0.6567 0.6419 0.3958
vn -0.0 -0.0 1.0
vn -0.0852 0.3527 0.9318
vn -0.4203 -0.4108 0.8091
vn 0.5403 -0.0 0.8415
vn -0.3956 0.0745 -0.9154
vn -0.9721 0.0875 -0.2178
vn -0.9264 0.2911 0.2388
vn -0.8816 0.2788 0.3809
vn -0.7192 0.3562 0.5965
vn -0.4851 0.3056 0.8193
vn -0.3464 0.3396 0.8745
vn 0.0895 0.2918 0.9523
vn 0.6213 0.3412 0.7054
vn 0.9721 0.0875 0.2178
vn 0.7484 0.0745 -0.6591
vn -0.3877 0.2117 -0.8972
vn -0.8464 0.5062 0.1657
vn -0.7484 0.6252 -0.2216
vn 0.4276 0.3125 0.8482
vn 0.7867 0.1756 0.5919
vn 0.841 0.2117 0.4979
vn 0.7362 -0.1942 -0.6483
vn -0.3956 0.0732 -0.9155
vn -0.8978 0.3376 -0.2829
vn -0.9163 0.3439 -0.2053
vn -0.4664 0.4026 0.7877
vn -0.6445 0.5008 0.5778
vn 0.5167 -0.0304 0.8556
vn 0.8436 -0.1972 0.4995
vn 0.7189 -0.287 -0.6331
vn -0.5324 -0.8268 0.1816
vn -0.2944 0.6272 -0.7211
vn -0.4351 0.0994 -0.8949
vn -0.7808 -0.2323 -0.58
vn 0.6828 -0.2753 0.6768
vn 0.2024 -0.5618 0.8021
vn 0.4783 0.7611 0.4381
vn 0.4404 0.8921 -0.1006
vn -0.6805 -0.6553 0.3278
vn -0.0584 0.4446 -0.8938
vn -0.9252 -0.079 -0.3711
vn -0.8555 -0.5049 -0.1151
vn 0.0893 -0.4711 0.8775
vn 0.8666 0.4891 0.0992
vn 0.9322 0.0681 0.3555
vn 0.6988 0.6249 -0.3481
vn 0.3088 0.5802 -0.7536
vn -0.7156 -0.4499 -0.5343
vn 0.0894 -0.785 0.6131
vn -0.05 0.6768 0.7345
vn -0.855 0.376 0.3572
vn 0.986 -0.1394 -0.0913
vn 0.9392 -0.3099 0.1476
vn 0.5087 0.7317 -0.4537
vn -0.5342 -0.555 -0.6377
vn 0.205 -0.6624 0.7206
vn 0.18 -0.6209 0.7629
vn 0.9338 -0.2692 -0.2359
vn 0.836 -0.5441 0.0716
vn -0.2175 0.6573 -0.7216
vn 0.1944 0.8326 -0.5186
vn -0.6653 -0.484 -0.5684
vn -0.0982 -0.78 0.618
vn 0.0448 -0.7513 0.6584
vn 0.9797 -0.1627 -0.1171
vn -0.185 0.7574 -0.6262
vn -0.0033 0.9092 -0.4164
vn -0.9931 -0.0439 -0.1089
vn 0.218 -0.8765 0.4293
vn -0.0711 -0.9333 0.3519
vn 0.8599 0.318 0.3994
vn -0.1086 0.889 -0.4448
vn 0.3694 0.7689 -0.5218
vn -0.3358 0.5861 -0.7374
vn -0.3082 -0.7174 0.6248
vn -0.2266 -0.7588 0.6106
vn 0.1509 0.9011 -0.4065
vn -0.7245 -0.2555 -0.6401
vn 0.3885 0.2755 0.8793
vn -0.8393 0.0357 0.5425
vn 0.9764 0.0686 -0.2046
vn 0.9776 -0.1975 -0.0723
vn -0.2293 0.8366 -0.4976
vn 0.3692 0.9256 -0.0831
vn -0.5472 -0.2725 -0.7914
vn 0.3607 -0.8803 0.3083
vn 0.3368 -0.8673 0.3665
vn 0.9207 0.0138 -0.3899
vn 0.891 -0.383 -0.2438
vn -0.3726 0.8744 -0.3108
vn 0.0404 0.9965 -0.0739
vn -0.6755 -0.2621 -0.6892
vn 0.0612 -0.9817 0.1804
vn 0.2043 -0.9536 0.221
vn 0.9695 0.0592 -0.2379
vn -0.3393 0.923 -0.1816
vn -0.1502 0.9866 0.0639
vn -0.9888 -0.1379 -0.0577
vn 0.3602 -0.9316 -0.0498
vn 0.0714 -0.9892 -0.1277
vn 0.8642 0.2239 0.4506
vn -0.2555 0.9661 0.0357
vn 0.2193 0.9686 -0.1171
vn -0.4838 0.8016 -0.3514
vn -0.1518 -0.9617 0.2284
vn -0.0686 -0.9791 0.1915
vn -0.5975 0.4509 0.6632
vn 0.8092 0.0338 0.5865
vn 0.3406 -0.8029 -0.4892
vn -0.2389 0.5089 -0.827
vn -0.2389 0.5088 -0.827
vn -0.5807 0.2552 -0.7731
vn 0.5858 0.6938 -0.419
vn -0.7983 -0.5896 0.1226
vn -0.66 -0.746 -0.0891
vn 0.5135 -0.7345 -0.4436
vn -0.2436 0.5981 0.7635
vn -0.8267 0.4433 0.3465
vn 0.6955 -0.1315 0.7064
vn 0.187 -0.7682 -0.6123
vn 0.1913 -0.726 -0.6605
vn -0.6988 -0.6565 0.2841
vn -0.4611 -0.8871 0.0196
vn -0.1737 0.7701 0.6139
vn -0.6054 0.6926 0.3921
vn 0.7798 -0.0156 0.6258
vn 0.5022 -0.7077 -0.497
vn 0.366 -0.7583 -0.5395
vn -0.7831 -0.6032 0.1515
vn -0.2447 0.8276 0.5051
vn -0.4637 0.8415 0.2773
vn 0.8809 0.4621 0.1025
vn 0.2614 -0.9199 -0.2924
vn 0.5363 -0.8172 -0.2108
vn -0.8795 -0.1998 -0.4319
vn -0.3638 0.8794 0.3071
vn -0.7274 0.5527 0.4067
vn -0.0369 0.7687 0.6386
vn 0.6554 -0.552 -0.5154
vn 0.6035 -0.6257 -0.4944
vn -0.4931 0.651 0.5771
vn 0.8737 0.1225 0.4709
vn -0.3111 0.2945 -0.9036
vn -0.6556 0.0902 -0.7497
vn 0.5638 0.5153 -0.6455
vn -0.8048 -0.4755 0.3553
vn -0.7 -0.6912 0.1798
vn 0.1743 0.4662 -0.8673
vn -0.1234 0.7918 0.5982
vn -0.7583 0.5793 0.2989
vn 0.7673 0.003 0.6412
vn 0.0772 -0.9123 -0.4023
vn 0.0778 -0.8844 -0.4602
vn -0.6901 -0.5056 0.5178
vn -0.4964 -0.8142 0.3011
vn -0.0638 0.9134 0.402
vn -0.5218 0.8144 0.2539
vn 0.8468 0.0874 0.5247
vn 0.4063 -0.8481 -0.34
vn 0.2639 -0.8975 -0.3534
vn -0.7869 -0.4822 0.385
vn -0.1443 0.9462 0.2897
vn -0.3879 0.9173 0.0899
vn 0.9074 0.4044 -0.1141
vn 0.1818 -0.9813 -0.0629
vn 0.469 -0.8823 -0.04
vn -0.9328 -0.2371 -0.2714
vn -0.2835 0.9539 0.0983
vn -0.6476 0.6927 0.3175
vn 0.0748 0.9081 0.4121
vn 0.5634 -0.7146 -0.4146
vn 0.5109 -0.7762 -0.3695
vn -0.5373 0.8434 0.0032
vn 0.1722 0.0119 0.985
vn 0.0949 -0.9945 -0.0435
vn 0.6019 0.1773 -0.7786
vn 0.228 0.0888 -0.9696
vn 0.9667 0.2419 0.0837
vn -0.8697 -0.2057 -0.4486
vn -0.7372 -0.4691 -0.4863
vn 0.2102 -0.9717 0.1076
vn -0.3017 0.8992 0.3169
vn -0.4955 0.7808 -0.3805
vn -0.054 -0.0457 0.9975
vn 0.0901 -0.9662 -0.2414
vn 0.143 -0.9509 -0.2745
vn -0.9379 -0.229 -0.2608
vn -0.7497 -0.6089 -0.2592
vn -0.0818 0.9643 0.2519
vn -0.2581 0.9438 -0.2065
vn 0.1053 -0.0053 0.9944
vn 0.2486 -0.9667 0.0606
vn 0.1633 -0.9845 -0.0631
vn -0.8843 -0.2104 -0.4168
vn -0.0321 0.992 0.1218
vn -0.0259 0.9806 -0.1943
vn 0.7224 0.1612 0.6724
vn -0.131 -0.9904 0.044
vn 0.0439 -0.9557 0.291
vn -0.3923 -0.0698 -0.9172
vn 0.0378 0.9938 -0.1045
vn -0.4139 0.8679 -0.2746
vn -0.0121 0.9301 0.3671
vn 0.4341 -0.8887 0.1475
vn 0.3517 -0.9271 0.1297
vn 0.2186 0.7231 -0.6552
vn -0.0 -0.0 -1.0
vn -0.5285 0.703 -0.4759
vn -0.0195 0.1143 -0.9933
vn -0.1345 -0.0341 -0.9903
vn 0.2042 -0.1311 -0.9701
vn 0.7213 -0.4631 -0.515
vn 0.3008 -0.8625 -0.4069
vn 0.1125 0.8213 -0.5593
vn -0.8868 -0.2246 -0.404
vn -0.8749 -0.1646 -0.4555
vn -0.8342 0.3844 0.3955
vn -0.7425 -0.5563 -0.3731
vn 0.0332 -0.9264 -0.375
vn 0.152 -0.9449 -0.2898
vn -0.304 -0.8885 0.3437
vn 0.6547 -0.6612 0.3663
vn 0.9406 -0.2304 -0.2494
vn 0.6625 0.6531 -0.3668
vn 0.6426 0.7088 -0.2911
vn 0.9192 0.2554 0.2997
vn 0.3663 0.9237 -0.1122
vn 0.4031 0.9081 -0.1135
vn -0.6008 0.7992 -0.021
vn -0.8062 0.4306 0.4057
vn -0.8278 0.4087 0.3844
vn -0.1777 0.9292 0.324
vn -0.1512 0.7905 0.5935
vn -0.3034 -0.8869 0.3484
vn 0.1682 -0.9424 -0.289
vn 0.5032 -0.769 0.3942
vn 0.8514 0.287 0.4391
vn 0.7132 0.4602 0.5287
vn 0.8841 0.3044 0.3546
vn 0.1349 -0.1795 0.9745
vn -0.2237 0.9378 0.2655
vn -0.2099 0.2792 0.937
vn -0.2539 -0.8876 0.3844
vn 0.5685 -0.7562 0.324
vn -0.1807 0.8405 -0.5108
vn -0.0613 0.003 -0.9981
vn -0.0517 -0.1875 -0.9809
vn -0.1887 -0.6846 -0.7041
vn 0.0504 0.1747 -0.9833
vn 0.4259 0.9048 0.0048
vn 0.454 0.8751 -0.1674
vn -0.1549 0.9069 -0.392
vn -0.3523 0.8925 -0.2818
vn -0.7905 -0.587 -0.1745
vn 0.6836 -0.3135 -0.6591
vn 0.696 0.2551 -0.6712
vn 0.6535 0.7176 -0.2409
vn -0.4855 0.6757 -0.5547
vn -0.0065 0.9604 0.2784
vn -0.7026 0.5752 0.4189
vn -0.7988 -0.5639 -0.2099
vn -0.4839 -0.8743 0.0385
vn 0.5321 -0.7942 -0.2935
vn 0.6238 -0.0797 0.7775
vn 0.8627 0.1809 0.4723
vn 0.5639 0.6714 0.4808
vn 0.1955 0.6781 0.7085
vn 0.0536 0.1857 0.9811
vn -0.1018 0.881 0.4621
vn -0.649 0.0769 0.7569
vn 0.0326 -0.7141 0.6992
vn -0.2349 -0.2198 0.9469
vn 0.2465 -0.7527 0.6105
vn 0.9518 -0.1217 0.2817
vn -0.0 -0.9374 -0.3481
vn -0.8588 -0.4543 -0.2368
vn -0.8588 0.5121 -0.014
vn -0.9123 0.4075 0.0406
vn -0.0 0.9953 0.0973
vn 0.2295 0.9379 0.2602
vn 0.8588 0.5121 -0.014
vn 0.4844 -0.8732 0.0533
vn 0.8588 -0.4543 -0.2368
vn -0.0 -0.8396 -0.5433
vn -0.4458 -0.6506 -0.6148
vn -0.8425 -0.422 -0.3348
vn -0.866 0.4847 0.1232
vn -0.0 0.9354 0.3537
vn 0.866 0.4847 0.1232
vn 0.8425 -0.422 -0.3348
vn -0.4836 -0.759 -0.436
vn 0.4623 -0.5646 -0.6837
vn -0.8482 -0.4088 -0.3368
vn -0.8245 0.3951 0.405
vn -0.8449 0.3611 0.3946
vn -0.0 0.6985 0.7156
vn 0.8245 0.3951 0.405
vn 0.8449 0.3611 0.3946
vn 0.8401 -0.418 -0.3457
vn 0.8161 0.2334 0.5287
vn 0.8644 0.1983 0.4619
vn -0.0 0.322 0.9467
vn -0.8161 0.2334 0.5287
vn -0.4987 0.3719 0.7829
vn -0.7788 -0.1391 -0.6116
vn -0.8508 -0.0848 -0.5187
vn 0.3988 -0.261 -0.8791
vn -0.0 -0.4093 -0.9124
vn 0.8508 -0.0848 -0.5187
vn -0.1566 0.9734 0.1672
vn 0.6821 0.1511 -0.7155
vn 0.3865 -0.8922 0.2337
vn -0.8897 -0.2596 0.3754
vn -0.465 -0.2527 -0.8485
vn 0.124 0.1519 0.9806
vn 0.1597 -0.1432 0.9767
vn 0.443 -0.8951 0.0508
vn -0.0415 0.9764 -0.212
vn -0.4424 0.8124 0.3798
vn 0.8162 0.2167 -0.5356
vn 0.2224 -0.9114 0.3463
vn 0.1668 -0.9321 0.3215
vn 0.3095 0.2089 0.9277
vn 0.4056 -0.2024 0.8913
vn -0.217 0.9081 -0.3582
vn -0.4859 0.8725 0.0517
vn 0.7262 0.1717 -0.6657
vn 0.3878 -0.9205 0.0482
vn 0.3371 -0.9219 0.1907
vn 0.1571 0.1624 0.9741
vn -0.352 0.8771 -0.3267
vn -0.5938 0.792 -0.1415
vn 0.1334 -0.0656 -0.9889
vn 0.5498 -0.7576 0.3516
vn 0.6493 -0.7579 0.0637
vn -0.5077 -0.076 0.8582
vn -0.558 0.7924 -0.2464
vn -0.4361 0.8697 0.2311
vn -0.142 0.8715 -0.4694
vn 0.3387 -0.9262 -0.1655
vn 0.3783 -0.9221 -0.0819
vn -0.0606 0.9242 -0.377
vn -0.1719 0.2779 -0.9451
vn -0.2776 -0.0 -0.9607
vn -0.238 0.9155 -0.3243
vn -0.078 -0.4795 -0.8741
vn -0.1473 -0.905 -0.3992
vn 0.0767 -0.3987 -0.9139
vn 0.383 -0.8069 -0.4496
vn -0.0606 -0.9242 -0.377
vn 0.2276 -0.0238 -0.9735
vn 0.1996 0.4812 -0.8536
vn 0.2702 0.734 -0.6231
vn 0.2104 0.9444 0.2525
vn -0.1473 0.905 -0.3992
vn -0.7667 -0.0 -0.6421
vn -0.5197 0.7537 -0.4023
vn -0.4333 0.6284 0.6461
vn -0.8102 -0.0 -0.5862
vn -0.182 -0.9105 -0.3714
vn 0.492 -0.7741 -0.3983
vn 0.1504 -0.9238 0.352
vn 0.238 -0.9155 0.3243
vn 0.6082 -0.5781 -0.5439
vn 0.4567 0.7395 -0.4945
vn 0.6082 0.5781 -0.5439
vn 0.4634 0.8324 -0.3039
vn -0.5435 0.6844 0.486
vn 0.1504 0.9238 0.352
vn -0.8126 -0.2693 -0.517
vn -0.2104 -0.9444 -0.2525
vn 0.1473 -0.905 0.3992
vn 0.0606 -0.9242 0.377
vn -0.5062 -0.7341 0.4526
vn 0.4115 -0.8338 -0.368
vn 0.7074 -0.1587 0.6888
vn 0.6861 -0.0 0.7275
vn 0.1407 0.8644 0.4827
vn -0.5328 0.6039 0.5928
vn -0.4669 -0.0 0.8843
vn 0.7926 -0.1038 0.6008
vn -0.2453 0.9476 0.2049
vn 0.8536 0.2375 -0.4635
vn 0.8537 0.2375 -0.4635
vn 0.3436 -0.9047 0.252
vn -0.9471 -0.3135 0.0685
vn -0.1833 -0.1706 -0.9681
vn -0.1761 0.0504 0.9831
vn -0.1267 -0.2419 0.962
vn 0.4512 -0.8874 0.0946
vn -0.5731 -0.2806 -0.77
vn -0.0245 0.9923 -0.1211
vn -0.5728 0.76 0.307
vn 0.9258 0.2863 -0.2467
vn 0.1548 -0.9385 0.3085
vn 0.11 -0.9575 0.2665
vn 0.0138 0.1159 0.9932
vn 0.136 -0.2875 0.9481
vn -0.146 0.9366 -0.3185
vn -0.5211 0.8534 -0.012
vn 0.8802 0.2535 -0.4012
vn 0.4005 -0.9134 0.0733
vn 0.3104 -0.9307 0.1937
vn -0.1431 0.0621 0.9878
vn -0.2826 0.9001 -0.3316
vn -0.5637 0.7918 -0.2352
vn 0.4201 0.0409 -0.9065
vn 0.4585 -0.7804 0.4252
vn 0.6378 -0.7486 0.181
vn -0.7325 -0.1747 0.658
vn -0.4988 0.8038 -0.3243
vn -0.526 0.8327 0.1729
vn -0.0401 0.9132 -0.4055
vn 0.4165 -0.8975 -0.1448
vn 0.4296 -0.9015 -0.0532
vn -0.6848 -0.0854 -0.7237
vn -0.5967 -0.0 -0.8025
vn 0.4199 0.7725 -0.4763
vn 0.434 0.7123 -0.5516
vn -0.06 0.9864 -0.153
vn -0.2574 0.9182 -0.301
vn -0.8285 0.2197 -0.5152
vn -0.4864 0.746 0.4548
vn -0.5234 0.7657 0.3738
vn -0.6584 -0.3102 -0.6858
vn -0.1191 -0.9283 -0.3522
vn -0.117 -0.9287 -0.3519
vn -0.4934 -0.8591 0.1358
vn 0.4199 -0.7725 -0.4763
vn 0.3312 -0.7662 -0.5506
vn 0.0567 -0.9515 0.3025
vn 0.5171 -0.6234 -0.5865
vn 0.9684 -0.0416 0.2459
vn 0.6462 0.7453 0.1641
vn 0.6968 0.7147 0.0603
vn 0.004 0.9134 -0.4069
vn -0.0218 0.9225 -0.3854
vn -0.3504 0.7968 0.4922
vn -0.3107 0.8303 0.4627
vn 0.093 0.9273 0.3625
vn -0.465 -0.6353 0.6166
vn -0.5244 -0.6961 0.4903
vn -0.1215 -0.9267 -0.3555
vn -0.1191 -0.9278 -0.3535
vn 0.1052 -0.9441 0.3124
vn 0.4046 -0.7443 -0.5313
vn 0.47 -0.8647 -0.1773
vn 0.6833 -0.5767 0.4477
vn 0.6575 -0.5835 0.4767
vn 0.1191 -0.9278 0.3535
vn 0.2574 -0.9182 0.301
vn 0.4835 0.3293 0.811
vn -0.4199 0.7725 0.4763
vn 0.1685 0.2077 0.9636
vn 0.0879 0.143 0.9858
vn -0.3246 -0.7679 0.5522
vn -0.2013 -0.8737 0.4428
vn 0.0478 -0.9249 0.3773
vn -0.048 -0.3746 0.9259
vn 0.1905 -0.8022 0.5658
vn 0.4835 -0.3293 0.811
vn 0.5123 -0.3 0.8047
vn 0.1306 -0.2403 0.9619
vn -0.3077 0.0927 -0.947
vn -0.0 0.2836 -0.9589
vn -0.556 0.3245 -0.7652
vn -0.8913 0.3489 -0.2896
vn -0.8913 0.3489 0.2896
vn -0.867 0.4984 -0.0
vn -0.556 0.3245 0.7652
vn -0.2743 0.4608 0.8441
vn -0.0 0.2836 0.9589
vn 0.5704 0.2411 0.7851
vn 0.9457 0.1057 -0.3073
vn 0.4541 -0.3027 -0.8379
vn -0.0 -0.1706 -0.9853
vn -0.0146 -0.1722 -0.9849
vn -0.5877 -0.0215 -0.8088
vn -0.5798 -0.0194 -0.8145
vn -0.9461 0.1017 -0.3074
vn -0.9998 -0.0218 -0.0
vn -0.9461 0.1017 0.3074
vn -0.308 -0.083 0.9478
vn -0.5678 -0.2584 0.7815
vn -0.0 -0.2164 0.9763
vn 0.5416 -0.3887 0.7454
vn 0.8349 -0.4789 0.2713
vn 0.7457 -0.6206 -0.2423
usemtl Elf_bush_Map
f 12//1 1//1 3//1
f 3//2 1//2 4//2
f 1//3 5//3 4//3
f 4//4 5//4 13//4
f 5//5 1//5 6//5
f 6//6 1//6 15//6
f 15//7 1//7 12//7
f 12//8 2//8 15//8
f 15//9 2//9 14//9
f 14//10 6//10 15//10
f 12//11 3//11 16//11
f 16//12 8//12 12//12
f 12//13 8//13 2//13
f 18//14 4//14 17//14
f 17//15 4//15 13//15
f 13//16 5//16 17//16
f 5//17 6//17 20//17
f 20//18 6//18 21//18
f 6//19 19//19 21//19
f 19//20 10//20 21//20
f 21//21 10//21 20//21
f 22//22 6//22 14//22
f 14//23 2//23 22//23
f 22//24 2//24 7//24
f 2//25 8//25 7//25
f 7//26 8//26 11//26
f 3//27 4//27 18//27
f 9//28 3//28 18//28
f 17//29 5//29 20//29
f 20//30 9//30 17//30
f 19//31 6//31 22//31
f 22//32 7//32 19//32
f 11//33 8//33 23//33
f 3//34 9//34 23//34
f 23//35 9//35 24//35
f 24//36 11//36 23//36
f 24//37 9//37 25//37
f 20//38 10//38 25//38
f 10//39 11//39 25//39
f 25//40 11//40 24//40
f 7//41 11//41 19//41
f 19//42 11//42 10//42
f 37//43 26//43 35//43
f 35//44 28//44 36//44
f 36//45 27//45 35//45
f 35//46 27//46 37//46
f 35//47 26//47 38//47
f 38//48 29//48 28//48
f 28//49 35//49 38//49
f 38//50 26//50 40//50
f 26//51 30//51 40//51
f 40//52 30//52 39//52
f 29//53 38//53 39//53
f 39//54 38//54 40//54
f 26//55 37//55 42//55
f 31//56 41//56 37//56
f 37//57 41//57 42//57
f 30//58 26//58 41//58
f 41//59 26//59 42//59
f 36//60 28//60 27//60
f 44//61 30//61 41//61
f 31//62 43//62 41//62
f 41//63 43//63 44//63
f 43//64 33//64 44//64
f 37//65 27//65 31//65
f 31//66 27//66 32//66
f 27//67 28//67 45//67
f 28//68 29//68 45//68
f 39//69 30//69 47//69
f 47//70 30//70 44//70
f 44//71 33//71 47//71
f 47//72 33//72 46//72
f 46//73 29//73 47//73
f 47//74 29//74 39//74
f 31//75 32//75 43//75
f 43//75 32//75 48//75
f 48//76 33//76 43//76
f 32//77 27//77 34//77
f 34//78 27//78 45//78
f 45//79 29//79 49//79
f 49//80 34//80 45//80
f 49//73 29//73 46//73
f 34//81 49//81 33//81
f 33//82 49//82 46//82
f 48//75 32//75 34//75
f 34//83 33//83 48//83
f 50//84 51//84 58//84
f 58//84 51//84 59//84
f 51//85 52//85 59//85
f 59//86 52//86 60//86
f 52//87 53//87 60//87
f 60//88 53//88 61//88
f 53//89 54//89 61//89
f 61//90 54//90 62//90
f 54//91 55//91 62//91
f 55//92 56//92 63//92
f 56//93 57//93 63//93
f 57//94 50//94 63//94
f 63//94 50//94 58//94
f 59//95 65//95 58//95
f 58//95 65//95 64//95
f 60//96 66//96 59//96
f 59//97 66//97 65//97
f 62//98 55//98 67//98
f 55//99 63//99 67//99
f 67//100 63//100 68//100
f 63//101 58//101 68//101
f 68//101 58//101 64//101
f 65//102 70//102 64//102
f 64//102 70//102 69//102
f 66//103 71//103 65//103
f 65//104 71//104 70//104
f 66//105 72//105 71//105
f 66//106 62//106 72//106
f 62//107 67//107 72//107
f 67//108 68//108 72//108
f 68//108 73//108 72//108
f 68//109 69//109 73//109
f 68//109 64//109 69//109
f 60//110 61//110 74//110
f 74//110 61//110 75//110
f 66//111 77//111 76//111
f 66//112 60//112 77//112
f 77//113 60//113 74//113
f 62//114 78//114 61//114
f 61//115 78//115 75//115
f 62//116 76//116 78//116
f 62//117 66//117 76//117
f 74//118 75//118 79//118
f 77//119 81//119 76//119
f 76//119 81//119 80//119
f 74//120 79//120 77//120
f 77//121 79//121 81//121
f 75//122 78//122 79//122
f 79//122 78//122 82//122
f 78//123 76//123 82//123
f 82//124 76//124 83//124
f 76//125 80//125 83//125
f 84//126 93//126 102//126
f 91//127 87//127 90//127
f 85//127 90//127 87//127
f 103//128 92//128 89//128
f 89//129 93//129 84//129
f 89//130 84//130 103//130
f 103//130 84//130 102//130
f 90//131 86//131 91//131
f 91//132 86//132 88//132
f 85//133 93//133 90//133
f 94//134 85//134 95//134
f 95//134 85//134 87//134
f 87//135 91//135 92//135
f 96//136 92//136 88//136
f 97//137 96//137 86//137
f 86//138 96//138 88//138
f 90//139 93//139 86//139
f 98//140 93//140 94//140
f 99//141 98//141 95//141
f 95//141 98//141 94//141
f 95//142 92//142 99//142
f 100//143 92//143 96//143
f 100//144 96//144 101//144
f 101//144 96//144 97//144
f 97//145 93//145 101//145
f 102//146 93//146 98//146
f 103//147 102//147 99//147
f 99//147 102//147 98//147
f 99//148 92//148 103//148
f 104//149 92//149 100//149
f 104//150 100//150 105//150
f 105//150 100//150 101//150
f 101//151 93//151 105//151
f 94//152 93//152 85//152
f 86//153 93//153 97//153
f 87//154 92//154 95//154
f 88//155 92//155 91//155
f 106//156 116//156 125//156
f 114//157 110//157 113//157
f 108//157 113//157 110//157
f 107//158 112//158 128//158
f 128//158 112//158 127//158
f 126//159 106//159 125//159
f 113//160 109//160 114//160
f 114//161 109//161 111//161
f 128//162 116//162 107//162
f 108//163 116//163 113//163
f 117//164 108//164 118//164
f 118//164 108//164 110//164
f 110//165 114//165 115//165
f 119//166 115//166 111//166
f 120//167 119//167 109//167
f 109//168 119//168 111//168
f 113//169 116//169 109//169
f 121//170 116//170 117//170
f 122//171 121//171 118//171
f 118//171 121//171 117//171
f 118//172 115//172 122//172
f 123//173 115//173 119//173
f 123//174 119//174 124//174
f 124//174 119//174 120//174
f 120//175 116//175 124//175
f 125//176 116//176 121//176
f 126//177 125//177 122//177
f 122//177 125//177 121//177
f 122//178 115//178 126//178
f 127//179 115//179 123//179
f 127//180 123//180 128//180
f 128//180 123//180 124//180
f 124//181 116//181 128//181
f 117//182 116//182 108//182
f 109//183 116//183 120//183
f 110//184 115//184 118//184
f 111//185 115//185 114//185
f 129//186 140//186 149//186
f 138//187 133//187 137//187
f 131//187 137//187 133//187
f 150//188 139//188 135//188
f 139//189 140//189 135//189
f 135//190 140//190 129//190
f 130//191 136//191 152//191
f 152//191 136//191 151//191
f 135//192 129//192 150//192
f 150//192 129//192 149//192
f 137//193 132//193 138//193
f 138//194 132//194 134//194
f 139//195 151//195 136//195
f 152//196 140//196 130//196
f 131//197 140//197 137//197
f 141//198 131//198 142//198
f 142//198 131//198 133//198
f 133//199 138//199 139//199
f 143//200 139//200 134//200
f 144//201 143//201 132//201
f 132//202 143//202 134//202
f 137//203 140//203 132//203
f 145//204 140//204 141//204
f 146//205 145//205 142//205
f 142//205 145//205 141//205
f 142//206 139//206 146//206
f 147//207 139//207 143//207
f 147//208 143//208 148//208
f 148//208 143//208 144//208
f 144//209 140//209 148//209
f 149//210 140//210 145//210
f 150//211 149//211 146//211
f 146//211 149//211 145//211
f 146//212 139//212 150//212
f 151//213 139//213 147//213
f 151//214 147//214 152//214
f 152//214 147//214 148//214
f 148//215 140//215 152//215
f 141//216 140//216 131//216
f 132//217 140//217 144//217
f 133//218 139//218 142//218
f 134//219 139//219 138//219
f 153//220 164//220 173//220
f 162//221 157//221 161//221
f 155//221 161//221 157//221
f 159//222 164//222 153//222
f 154//223 160//223 176//223
f 176//223 160//223 175//223
f 159//224 153//224 174//224
f 174//224 153//224 173//224
f 161//225 156//225 162//225
f 162//226 156//226 158//226
f 164//227 160//227 154//227
f 176//228 164//228 154//228
f 155//229 164//229 161//229
f 165//230 155//230 166//230
f 166//230 155//230 157//230
f 157//231 162//231 163//231
f 167//232 163//232 158//232
f 168//233 167//233 156//233
f 156//234 167//234 158//234
f 161//235 164//235 156//235
f 169//236 164//236 165//236
f 170//237 169//237 166//237
f 166//237 169//237 165//237
f 166//238 163//238 170//238
f 171//239 163//239 167//239
f 171//240 167//240 172//240
f 172//240 167//240 168//240
f 168//241 164//241 172//241
f 173//242 164//242 169//242
f 174//243 173//243 170//243
f 170//243 173//243 169//243
f 170//244 163//244 174//244
f 175//245 163//245 171//245
f 175//246 171//246 176//246
f 176//246 171//246 172//246
f 172//247 164//247 176//247
f 165//248 164//248 155//248
f 156//249 164//249 168//249
f 157//250 163//250 166//250
f 158//251 163//251 162//251
f 177//252 188//252 197//252
f 186//253 181//253 185//253
f 179//253 185//253 181//253
f 198//254 187//254 183//254
f 183//255 188//255 177//255
f 178//256 184//256 200//256
f 200//256 184//256 199//256
f 183//257 177//257 198//257
f 198//257 177//257 197//257
f 185//258 180//258 186//258
f 186//259 180//259 182//259
f 187//260 199//260 184//260
f 200//261 188//261 178//261
f 179//262 188//262 185//262
f 189//263 179//263 190//263
f 190//263 179//263 181//263
f 181//264 186//264 187//264
f 191//265 187//265 182//265
f 192//266 191//266 180//266
f 180//267 191//267 182//267
f 185//268 188//268 180//268
f 193//269 188//269 189//269
f 194//270 193//270 190//270
f 190//270 193//270 189//270
f 190//271 187//271 194//271
f 195//272 187//272 191//272
f 195//273 191//273 196//273
f 196//273 191//273 192//273
f 192//274 188//274 196//274
f 197//275 188//275 193//275
f 198//276 197//276 194//276
f 194//276 197//276 193//276
f 194//277 187//277 198//277
f 199//278 187//278 195//278
f 199//279 195//279 200//279
f 200//279 195//279 196//279
f 196//280 188//280 200//280
f 189//281 188//281 179//281
f 180//282 188//282 192//282
f 181//283 187//283 190//283
f 182//284 187//284 186//284
f 212//285 202//285 201//285
f 212//286 201//286 213//286
f 213//287 203//287 212//287
f 201//288 205//288 213//288
f 213//289 205//289 204//289
f 205//290 201//290 214//290
f 201//291 206//291 214//291
f 206//292 205//292 214//292
f 215//293 202//293 212//293
f 212//287 203//287 215//287
f 213//294 204//294 203//294
f 203//295 204//295 216//295
f 216//296 209//296 203//296
f 216//297 204//297 217//297
f 204//298 205//298 217//298
f 217//299 205//299 210//299
f 210//300 216//300 217//300
f 218//301 211//301 206//301
f 218//302 206//302 219//302
f 219//302 206//302 201//302
f 201//303 202//303 219//303
f 219//304 202//304 207//304
f 207//305 218//305 219//305
f 207//306 202//306 208//306
f 208//307 202//307 215//307
f 215//308 203//308 221//308
f 203//309 209//309 221//309
f 221//310 209//310 220//310
f 220//311 208//311 221//311
f 221//312 208//312 215//312
f 216//313 210//313 209//313
f 210//314 205//314 206//314
f 206//315 211//315 210//315
f 218//316 207//316 211//316
f 207//317 208//317 211//317
f 211//318 208//318 222//318
f 222//319 209//319 211//319
f 222//320 208//320 220//320
f 209//321 222//321 220//321
f 209//322 210//322 223//322
f 210//323 211//323 223//323
f 211//319 209//319 223//319
f 235//286 224//286 225//286
f 236//324 225//324 224//324
f 224//325 228//325 226//325
f 226//326 228//326 237//326
f 237//327 227//327 226//327
f 228//328 224//328 235//328
f 230//329 229//329 238//329
f 238//330 229//330 225//330
f 225//331 236//331 231//331
f 231//332 236//332 239//332
f 226//333 227//333 240//333
f 242//334 228//334 235//334
f 235//335 225//335 242//335
f 242//336 225//336 229//336
f 238//337 225//337 231//337
f 231//338 230//338 238//338
f 240//339 231//339 239//339
f 240//340 227//340 232//340
f 232//341 227//341 233//341
f 241//342 228//342 242//342
f 242//343 229//343 241//343
f 243//344 229//344 244//344
f 229//345 230//345 244//345
f 244//346 230//346 234//346
f 234//347 243//347 244//347
f 234//348 230//348 231//348
f 234//339 231//339 240//339
f 240//349 232//349 234//349
f 233//350 243//350 232//350
f 232//351 243//351 234//351
f 243//352 233//352 241//352
f 241//353 229//353 243//353
f 245//354 251//354 250//354
f 245//355 246//355 251//355
f 251//355 246//355 252//355
f 246//356 247//356 252//356
f 252//357 247//357 253//357
f 248//358 254//358 247//358
f 247//359 254//359 253//359
f 248//360 249//360 254//360
f 254//360 249//360 255//360
f 245//361 250//361 249//361
f 249//362 250//362 255//362
f 250//363 251//363 256//363
f 256//364 251//364 257//364
f 251//365 252//365 257//365
f 252//366 253//366 257//366
f 253//367 254//367 258//367
f 255//368 259//368 254//368
f 254//368 259//368 258//368
f 250//369 256//369 255//369
f 255//369 256//369 259//369
f 257//370 269//370 256//370
f 256//371 269//371 265//371
f 257//372 268//372 269//372
f 257//373 253//373 268//373
f 268//374 253//374 267//374
f 253//375 258//375 267//375
f 267//375 258//375 266//375
f 259//376 265//376 258//376
f 258//377 265//377 266//377
f 259//378 256//378 265//378
f 265//379 264//379 266//379
f 266//380 264//380 263//380
f 267//381 266//381 263//381
f 268//382 267//382 262//382
f 262//383 267//383 263//383
f 269//384 268//384 261//384
f 261//385 268//385 262//385
f 269//386 261//386 265//386
f 265//387 261//387 260//387
f 265//388 260//388 264//388
f 270//389 281//389 290//389
f 279//390 274//390 278//390
f 272//390 278//390 274//390
f 291//391 280//391 276//391
f 271//392 277//392 293//392
f 293//392 277//392 292//392
f 276//393 270//393 291//393
f 291//393 270//393 290//393
f 278//394 273//394 279//394
f 279//395 273//395 275//395
f 280//396 292//396 277//396
f 293//397 281//397 271//397
f 272//398 281//398 278//398
f 282//399 272//399 283//399
f 283//399 272//399 274//399
f 274//400 279//400 280//400
f 284//401 280//401 275//401
f 285//402 284//402 273//402
f 273//403 284//403 275//403
f 278//404 281//404 273//404
f 286//405 281//405 282//405
f 287//406 286//406 283//406
f 283//406 286//406 282//406
f 283//407 280//407 287//407
f 288//408 280//408 284//408
f 288//409 284//409 289//409
f 289//409 284//409 285//409
f 285//410 281//410 289//410
f 290//411 281//411 286//411
f 291//412 290//412 287//412
f 287//412 290//412 286//412
f 287//413 280//413 291//413
f 292//414 280//414 288//414
f 292//415 288//415 293//415
f 293//415 288//415 289//415
f 289//416 281//416 293//416
f 282//417 281//417 272//417
f 273//418 281//418 285//418
f 274//419 280//419 283//419
f 275//420 280//420 279//420
f 305//421 296//421 295//421
f 305//422 294//422 306//422
f 306//423 294//423 297//423
f 306//424 296//424 305//424
f 297//425 294//425 307//425
f 307//426 298//426 297//426
f 307//427 294//427 299//427
f 299//428 308//428 307//428
f 308//429 298//429 307//429
f 299//430 294//430 309//430
f 309//431 294//431 305//431
f 305//432 295//432 309//432
f 296//433 300//433 295//433
f 295//433 300//433 310//433
f 312//434 296//434 306//434
f 297//435 311//435 306//435
f 306//436 311//436 312//436
f 311//437 301//437 312//437
f 301//438 297//438 302//438
f 297//439 298//439 302//439
f 308//440 299//440 313//440
f 313//441 303//441 308//441
f 308//442 303//442 298//442
f 299//443 309//443 315//443
f 315//443 309//443 316//443
f 295//444 314//444 309//444
f 309//445 314//445 316//445
f 314//446 295//446 310//446
f 301//447 317//447 312//447
f 300//448 296//448 317//448
f 311//449 297//449 301//449
f 302//450 298//450 319//450
f 303//451 318//451 298//451
f 298//452 318//452 319//452
f 318//453 302//453 319//453
f 313//454 299//454 315//454
f 315//455 300//455 313//455
f 303//456 300//456 304//456
f 300//457 317//457 304//457
f 304//457 317//457 320//457
f 317//458 301//458 320//458
f 302//453 318//453 301//453
f 301//459 318//459 320//459
f 318//80 304//80 320//80
f 303//80 304//80 318//80
f 313//460 300//460 303//460
f 321//461 332//461 341//461
f 330//462 325//462 329//462
f 323//463 329//463 325//463
f 342//464 331//464 327//464
f 322//465 328//465 344//465
f 344//465 328//465 343//465
f 327//466 321//466 342//466
f 342//466 321//466 341//466
f 329//467 324//467 330//467
f 330//468 324//468 326//468
f 331//469 343//469 328//469
f 332//470 328//470 322//470
f 344//471 332//471 322//471
f 323//472 332//472 329//472
f 333//473 323//473 334//473
f 334//473 323//473 325//473
f 325//474 330//474 331//474
f 335//475 331//475 326//475
f 336//476 335//476 324//476
f 324//477 335//477 326//477
f 329//478 332//478 324//478
f 337//479 332//479 333//479
f 338//480 337//480 334//480
f 334//480 337//480 333//480
f 334//481 331//481 338//481
f 339//482 331//482 335//482
f 339//483 335//483 340//483
f 340//483 335//483 336//483
f 336//484 332//484 340//484
f 341//485 332//485 337//485
f 342//486 341//486 338//486
f 338//486 341//486 337//486
f 338//487 331//487 342//487
f 343//488 331//488 339//488
f 343//489 339//489 344//489
f 344//489 339//489 340//489
f 340//490 332//490 344//490
f 333//491 332//491 323//491
f 324//492 332//492 336//492
f 325//493 331//493 334//493
f 326//494 331//494 330//494
f 357//286 345//286 356//286
f 348//495 347//495 345//495
f 345//496 347//496 356//496
f 349//286 345//286 350//286
f 350//286 345//286 357//286
f 357//497 346//497 350//497
f 358//498 346//498 357//498
f 357//499 347//499 358//499
f 360//500 347//500 361//500
f 347//501 348//501 361//501
f 361//501 348//501 359//501
f 353//502 360//502 359//502
f 359//503 360//503 361//503
f 348//504 345//504 362//504
f 349//505 354//505 345//505
f 345//506 354//506 362//506
f 354//507 348//507 362//507
f 349//508 350//508 364//508
f 364//509 350//509 363//509
f 363//510 355//510 364//510
f 365//511 350//511 346//511
f 351//512 365//512 346//512
f 351//513 346//513 358//513
f 358//514 352//514 351//514
f 358//515 347//515 367//515
f 367//516 347//516 360//516
f 353//517 366//517 360//517
f 360//518 366//518 367//518
f 352//519 358//519 366//519
f 366//519 358//519 367//519
f 348//520 354//520 359//520
f 359//521 354//521 353//521
f 354//522 349//522 368//522
f 368//523 349//523 364//523
f 364//524 355//524 368//524
f 350//525 365//525 363//525
f 363//526 365//526 370//526
f 365//527 351//527 370//527
f 370//528 351//528 369//528
f 355//529 363//529 369//529
f 369//530 363//530 370//530
f 371//531 351//531 352//531
f 352//532 355//532 371//532
f 355//533 352//533 366//533
f 353//534 355//534 366//534
f 353//535 354//535 372//535
f 372//536 354//536 368//536
f 368//537 355//537 372//537
f 355//538 353//538 372//538
f 355//539 369//539 373//539
f 351//540 371//540 369//540
f 369//541 371//541 373//541
f 371//542 355//542 373//542
f 375//543 382//543 374//543
f 374//544 382//544 381//544
f 375//545 383//545 382//545
f 375//546 376//546 383//546
f 377//547 384//547 376//547
f 376//548 384//548 383//548
f 377//549 378//549 384//549
f 384//550 378//550 385//550
f 378//551 379//551 385//551
f 379//552 380//552 385//552
f 385//552 380//552 386//552
f 374//553 381//553 380//553
f 380//553 381//553 386//553
f 381//554 388//554 387//554
f 382//555 389//555 381//555
f 381//556 389//556 388//556
f 383//557 390//557 382//557
f 382//558 390//558 389//558
f 383//559 391//559 390//559
f 383//560 384//560 391//560
f 391//561 384//561 392//561
f 384//562 385//562 392//562
f 392//563 385//563 393//563
f 385//564 394//564 393//564
f 385//565 386//565 394//565
f 394//565 386//565 395//565
f 386//566 396//566 395//566
f 381//567 387//567 386//567
f 386//567 387//567 396//567