mtllib flat.mtl
v -0.202142 0.452763 0.094754
v -0.211648 0.447108 0.112577
v -0.144725 0.469702 0.164655
v -0.134855 0.473538 0.157039
v -0.247701 0.555129 0.126174
v -0.251901 0.550824 0.140786
v -0.207412 0.568314 0.172292
v -0.197449 0.57023 0.163417
v -0.256615 0.571772 0.147607
v -0.255147 0.569497 0.164922
v -0.235744 0.578833 0.179526
v -0.221309 0.580713 0.173335
v -0.265809 0.585975 0.166241
v -0.2416 0.589284 0.181598
v -0.272437 0.591236 0.19739
v -0.24129 0.556915 0.123807
v -0.199863 0.569916 0.154483
v -0.256155 0.588941 0.176376
v -0.250138 0.574472 0.144517
v -0.223281 0.582901 0.164404
v -0.260278 0.59065 0.162594
v -0.243529 0.595906 0.174997
v -0.270008 0.597577 0.191423
v -0.262188 0.587416 0.185168
v -0.008681 0.006075 -0.032419
v -0.046791 0.006075 -0.020036
v -0.046791 0.006075 0.020036
v -0.008681 0.006075 0.032419
v 0.014872 0.006075 0.0
v -0.008029 0.216676 -0.021331
v -0.033105 0.216576 -0.013183
v -0.033105 0.216576 0.013183
v -0.008029 0.216676 0.021331
v 0.007468 0.216737 0.0
v -0.000891 0.300863 -0.014863
v -0.018363 0.300793 -0.009186
v -0.018363 0.300793 0.009186
v -0.000891 0.300863 0.014863
v 0.009908 0.300906 0.0
v -0.001327 0.410523 -0.014863
v -0.018799 0.410453 -0.009186
v -0.018799 0.410453 0.009186
v -0.001327 0.410523 0.014863
v 0.009471 0.410566 0.0
v 0.008534 0.551697 -0.035008
v -0.036089 0.55152 -0.021655
v -0.037731 0.551513 0.025698
v 0.017245 0.551732 0.043145
v 0.033932 0.551798 -5e-05
v 1.1e-05 0.522287 0.022804
v -0.026796 0.52218 0.014093
v -0.026796 0.52218 -0.014093
v 1.1e-05 0.522287 -0.022803
v 0.016578 0.522353 0.0
v -0.002342 0.542238 0.000473
v -0.010245 0.545615 -0.024613
v -0.023023 0.545564 -0.024565
v -0.03198 0.545528 0.0
v -0.023023 0.545564 0.024565
v -0.003615 0.545641 0.032118
v -0.004283 0.590799 -0.070329
v -0.03386 0.590682 -0.064156
v -0.065869 0.590554 -0.037041
v -0.075794 0.590515 0.0
v -0.065869 0.590554 0.037041
v -0.03386 0.590682 0.064157
v -0.004846 0.588483 0.083073
v -0.00052 0.632439 -0.092026
v -0.032184 0.632313 -0.082946
v -0.098198 0.625526 0.0
v -0.032184 0.632313 0.082947
v -0.001557 0.632317 0.105016
v -0.001619 0.696475 -0.077155
v -0.030898 0.696358 -0.070067
v -0.088844 0.696128 0.0
v -0.030898 0.696358 0.070068
v -0.002241 0.696884 0.090197
v -0.013592 0.746058 -0.054578
v -0.042634 0.745942 -0.050515
v -0.068537 0.745839 0.0
v -0.042634 0.745942 0.050516
v -0.014081 0.744912 0.067879
v -0.043693 0.787563 -0.036513
v -0.070285 0.787457 -0.020133
v -0.070285 0.787457 0.020133
v -0.044459 0.783756 0.048263
v -0.071371 0.824276 -0.023075
v -0.08992 0.824202 0.0
v -0.070257 0.816147 0.031234
v -0.121663 0.847191 0.003752
v -0.085721 0.664919 0.045634
v -0.097811 0.664871 0.0
v -0.085721 0.664919 -0.045634
v -0.002394 0.549764 -0.023128
v -0.005209 0.595546 -0.056128
v -0.002394 0.549764 0.023128
v 0.005817 0.59559 0.060985
v -0.000525 0.633334 -0.076308
v 0.0105 0.633378 0.076171
v -0.002178 0.693856 -0.05614
v -0.042381 0.76882 -0.026994
v -0.002869 0.743645 -0.043457
v -0.044258 0.744975 0.0
v 0.014115 0.694008 0.060804
v -0.030686 0.747033 0.021775
v -0.002869 0.743645 0.05059
v -0.075978 0.825014 0.0
v -0.031204 0.786474 0.032797
v -0.057614 0.827146 -0.020454
v -0.057614 0.827146 0.020454
v -0.10614 0.854607 0.0
v -0.028273 0.586281 -0.071943
v -0.028273 0.586281 0.071943
v -0.027185 0.630779 -0.092144
v -0.027185 0.630779 0.092144
v -0.025532 0.699854 -0.078385
v -0.038124 0.751621 -0.058204
v -0.025532 0.699854 0.078385
v -0.038124 0.751621 0.058205
v -0.068517 0.793127 -0.029026
v -0.068517 0.793127 0.029026
v -0.095999 0.82942 0.0
v 0.011234 0.653032 0.051986
v 0.028233 0.653076 0.03542
v -0.041177 0.655071 -0.039959
v -0.052556 0.653019 -0.035481
v 0.01418 0.792254 0.035827
v 0.026405 0.792302 0.020927
v -0.016504 0.79576 -0.034057
v -0.049966 0.79131 -0.02819
v 0.007759 0.818905 0.015251
v 0.014115 0.81893 -0.005158
v -0.005159 0.822482 -0.030116
v -0.02343 0.816343 -0.029232
v 0.008503 0.853352 -0.002019
v -0.012287 0.848057 -0.029925
v 0.013728 0.877406 -0.034718
v 0.005715 0.790646 0.035787
v -0.037784 0.790496 -0.016956
v 0.0009 0.853807 -0.01772
v -0.00153 0.818138 0.016012
v -0.025984 0.818041 -0.01818
v -0.001057 0.855118 -0.000208
v -0.016308 0.855058 -0.021532
v 0.005603 0.882087 -0.02892
v 0.011315 0.856723 -0.025177
v 0.007813 0.545687 0.026474
v 0.019358 0.545733 0.020114
v 0.022737 0.545746 -0.002369
v 0.008784 0.545691 -0.020319
v -0.01081 0.545613 -0.018537
v 0.011229 0.590861 0.067061
v 0.037708 0.590967 0.05141
v 0.06447 0.591073 -0.011999
v 0.010094 0.590857 -0.054189
v -0.021222 0.588418 -0.059331
v 0.022829 0.632532 0.083062
v 0.050701 0.632643 0.064491
v 0.092616 0.626286 -0.019395
v 0.014999 0.632501 -0.072036
v -0.018573 0.632249 -0.079362
v 0.018201 0.665333 0.080271
v 0.048965 0.665455 0.061475
v 0.091095 0.665623 0.021085
v 0.076788 0.696787 -0.015329
v 0.074567 0.665557 -0.05484
v 0.014945 0.66532 -0.068621
v -0.021219 0.666165 -0.074341
v 0.026526 0.746217 0.04905
v 0.052942 0.746322 0.035271
v 0.06713 0.746379 -0.012856
v 0.031199 0.746236 -0.047876
v 0.000654 0.744971 -0.051854
v 0.035867 0.78788 0.03068
v 0.057261 0.787965 0.007384
v 0.059053 0.787972 -0.045
v 0.018393 0.784006 -0.039286
v 0.066682 0.83676 -0.023165
v 0.078853 0.836809 -0.049936
v 0.053979 0.828577 -0.067587
v 0.109382 0.860046 -0.057944
v 0.092972 0.66563 -0.019529
v -0.003467 0.549769 0.024154
v -0.002563 0.595567 0.064043
v 0.004838 0.633377 0.079024
v 0.004965 0.664077 0.043557
v 0.00625 0.662429 0.07664
v 0.031939 0.751454 0.017128
v 0.013471 0.743714 0.037235
v 0.0364 0.745296 0.002507
v 0.006989 0.747183 -0.027015
v -0.007269 0.743627 -0.037879
v 0.065359 0.837512 -0.046408
v 0.019441 0.786686 0.025913
v 0.008069 0.78663 -0.02629
v 0.049234 0.839517 -0.026706
v 0.043175 0.839482 -0.058594
v 0.094307 0.86734 -0.054009
v 0.034013 0.586529 0.059227
v 0.003047 0.586405 -0.059188
v 0.047856 0.631077 0.073323
v 0.008196 0.630919 -0.078342
v 0.045998 0.667208 0.070163
v 0.008104 0.667057 -0.074748
v 0.050189 0.751973 0.042746
v 0.025136 0.751873 -0.053057
v 0.05742 0.793628 0.015156
v 0.055384 0.79362 -0.051866
v 0.084694 0.842074 -0.051469
v -0.037489 0.65914 -0.036578
v -0.057283 0.660739 -0.020445
v 0.002765 0.663204 0.06813
v 0.017949 0.661302 0.063777
v -0.044334 0.800023 -0.02074
v -0.056682 0.799974 -0.005941
v -0.014258 0.803771 0.049395
v 0.000534 0.799469 0.04365
v -0.05348 0.826664 -0.000238
v -0.060004 0.826638 0.020118
v -0.040966 0.830342 0.045234
v -0.02264 0.824349 0.044502
v -0.063058 0.850224 0.016954
v -0.042457 0.845094 0.045032
v -0.079553 0.864973 0.049519
v -0.035858 0.798483 -0.02063
v 0.001425 0.798632 0.032423
v -0.055588 0.850739 0.032717
v -0.044178 0.825971 -0.000922
v -0.020008 0.826067 0.033471
v -0.053497 0.852067 0.015222
v -0.038423 0.852127 0.036672
v -0.071417 0.869718 0.043788
v -0.066088 0.853572 0.040088
v -0.00189 0.006076 0.021448
v -0.024645 0.006075 0.041069
v -0.012859 0.006075 0.071735
v 0.017179 0.006075 0.071067
v 0.023958 0.006076 0.039988
v -0.03442 0.134021 0.043688
v -0.049392 0.125277 0.056598
v -0.041637 0.125277 0.076776
v -0.021873 0.134021 0.076337
v -0.017412 0.139425 0.055887
v -0.054733 0.199074 0.057176
v -0.065166 0.192982 0.066171
v -0.059762 0.192982 0.080231
v -0.045991 0.199074 0.079925
v -0.042883 0.20284 0.065676
v -0.090427 0.280444 0.070893
v -0.100859 0.274352 0.079889
v -0.095455 0.274352 0.093948
v -0.081684 0.280444 0.093642
v -0.078576 0.28421 0.079393
v -0.13507 0.388803 0.070356
v -0.16205 0.373242 0.092453
v -0.149259 0.37267 0.129129
v -0.10605 0.39184 0.127848
v -0.107196 0.397659 0.090349
v -0.114489 0.363992 0.113224
v -0.135618 0.354645 0.113694
v -0.143908 0.354645 0.092123
v -0.127903 0.363992 0.078322
v -0.109721 0.369769 0.091363
v -0.129129 0.37801 0.099236
v -0.141677 0.462881 0.149068
v -0.133404 0.470979 0.131575
v -0.196574 0.452354 0.089645
v -0.210299 0.443004 0.098852
v -0.187952 0.569584 0.152896
v -0.183867 0.573847 0.138238
v -0.23093 0.561582 0.108032
v -0.24318 0.550595 0.117893
v -0.207061 0.587177 0.142167
v -0.208661 0.589393 0.124856
v -0.230523 0.58537 0.111337
v -0.240959 0.574489 0.116124
v -0.222741 0.613042 0.133025
v -0.243666 0.601918 0.116555
v -0.236495 0.63273 0.10959
v -0.193319 0.565463 0.154923
v -0.231911 0.552309 0.128745
v -0.232781 0.610751 0.123093
v -0.213036 0.583395 0.145131
v -0.240029 0.574868 0.125474
v -0.229412 0.61105 0.137179
v -0.246247 0.605732 0.124919
v -0.241939 0.6334 0.116774
v -0.228688 0.61652 0.11497
v 0.062615 0.652657 0.000649
v -0.012622 0.654583 -0.05045
v -0.043648 0.653054 -0.034332
v 0.03159 0.792323 0.012416
v 0.039678 0.792355 -0.005079
v -0.015673 0.795763 -0.040272
v -0.028436 0.791351 -0.030892
v 0.034898 0.819013 -0.00973
v 0.03592 0.819017 -0.031081
v 0.010991 0.822547 -0.050397
v -0.00647 0.81641 -0.044943
v 0.039505 0.84263 -0.028793
v 0.012369 0.83731 -0.050573
v 0.046875 0.857473 -0.064506
v 0.023388 0.790717 0.022951
v -0.026378 0.790519 -0.027063
v 0.028199 0.84307 -0.042079
v 0.026097 0.818248 -0.006658
v -0.006165 0.818119 -0.033606
v 0.030706 0.844399 -0.024639
v 0.010585 0.844319 -0.041445
v 0.040466 0.862161 -0.056856
v 0.036406 0.845977 -0.051918
v -0.143081 0.377788 0.082565
v -0.151917 0.373333 0.086003
v -0.150896 0.370209 0.107187
v -0.137467 0.373333 0.123602
v -0.121803 0.3801 0.124216
v -0.166971 0.41344 0.051593
v -0.185642 0.403126 0.06419
v -0.195818 0.388504 0.124451
v -0.147903 0.403126 0.162387
v -0.121497 0.411523 0.168854
v -0.18418 0.445696 0.039149
v -0.203441 0.434655 0.054526
v -0.227216 0.411584 0.094455
v -0.222663 0.406786 0.134768
v -0.199046 0.411584 0.167754
v -0.154649 0.434655 0.181484
v -0.126907 0.445247 0.190206
v -0.19101 0.471319 0.045737
v -0.210254 0.462352 0.07143
v -0.243582 0.466166 0.107276
v -0.238957 0.462504 0.14103
v -0.219786 0.466166 0.169194
v -0.165933 0.459282 0.182389
v -0.136847 0.47171 0.189665
v -0.218905 0.52564 0.085386
v -0.248237 0.515513 0.092639
v -0.240909 0.506481 0.14178
v -0.20811 0.515513 0.173544
v -0.182858 0.524619 0.17909
v -0.247874 0.546088 0.112386
v -0.261475 0.536816 0.132001
v -0.249632 0.536816 0.162816
v -0.222243 0.542993 0.176997
v -0.274976 0.563811 0.134605
v -0.281037 0.557343 0.157202
v -0.255606 0.558153 0.174862
v -0.309379 0.563458 0.17139
v -0.235092 0.436168 0.139545
v -0.138535 0.383587 0.082122
v -0.164969 0.416648 0.063296
v -0.126147 0.383587 0.114355
v -0.122888 0.420493 0.149988
v -0.179849 0.446359 0.051291
v -0.127415 0.450204 0.164921
v -0.16835 0.481849 0.154979
v -0.134496 0.473023 0.168616
v -0.222198 0.520148 0.104139
v -0.203736 0.530461 0.08306
v -0.223783 0.514233 0.135198
v -0.194189 0.524005 0.155605
v -0.271625 0.562767 0.153585
v -0.232319 0.549596 0.111765
v -0.218471 0.549596 0.166105
v -0.265585 0.570701 0.133298
v -0.253554 0.570701 0.164605
v -0.302105 0.574338 0.165299
v -0.182635 0.401786 0.056195
v -0.140316 0.401786 0.16631
v -0.202182 0.435242 0.045965
v -0.14798 0.435242 0.186999
v -0.212142 0.462356 0.053397
v -0.160355 0.462356 0.18815
v -0.23879 0.521294 0.089843
v -0.204552 0.521294 0.17893
v -0.264694 0.541642 0.125426
v -0.24762 0.541642 0.169854
v -0.286939 0.55912 0.15947
v 0.087341 0.390467 -0.174235
v 0.086367 0.386274 -0.186078
v 0.068372 0.385047 -0.198211
v 0.047533 0.390114 -0.19467
v 0.041447 0.39723 -0.178355
v 0.130803 0.429102 -0.174767
v 0.127655 0.419485 -0.202379
v 0.111306 0.410358 -0.235125
v 0.083604 0.409765 -0.250286
v 0.05275 0.416148 -0.24808
v 0.026234 0.429514 -0.224818
v 0.009272 0.438843 -0.201339
v 0.155762 0.461642 -0.190969
v 0.150648 0.45152 -0.220915
v 0.134364 0.465828 -0.282055
v 0.09385 0.430536 -0.287315
v 0.062736 0.47183 -0.30083
v 0.019522 0.464486 -0.249924
v 0.000162 0.476574 -0.226294
v 0.154363 0.519146 -0.215198
v 0.150445 0.509706 -0.242709
v 0.102562 0.498591 -0.296274
v 0.027724 0.493483 -0.259256
v 0.008913 0.507491 -0.226516
v 0.14631 0.560667 -0.245638
v 0.144746 0.551073 -0.272413
v 0.108931 0.54592 -0.303909
v 0.064889 0.55897 -0.290081
v 0.049414 0.569053 -0.267111
v 0.140875 0.594028 -0.274488
v 0.129185 0.586259 -0.301274
v 0.084895 0.585608 -0.32471
v 0.073383 0.597016 -0.288755
v 0.11447 0.625889 -0.337655
v 0.096211 0.621468 -0.358574
v 0.070073 0.623321 -0.343552
v 0.104927 0.630791 -0.393806
v 0.100214 0.465146 -0.300612
v 0.082609 0.397282 -0.165733
v 0.124597 0.437388 -0.164772
v 0.143751 0.466955 -0.174436
v 0.135957 0.519797 -0.206191
v 0.121841 0.563306 -0.265071
v 0.127586 0.562864 -0.236818
v 0.110023 0.556233 -0.272724
v 0.07356 0.568684 -0.262426
v 0.058125 0.570773 -0.247771
v 0.094117 0.627037 -0.346621
v 0.132806 0.597991 -0.2645
v 0.08096 0.603118 -0.27597
v 0.107695 0.633715 -0.327642
v 0.075361 0.636912 -0.334796
v 0.103631 0.64276 -0.382598
v 0.132219 0.416921 -0.194702
v 0.018489 0.428167 -0.219863
v 0.156876 0.45118 -0.214431
v 0.011212 0.465584 -0.246658
v 0.020087 0.497526 -0.256977
v 0.15672 0.514018 -0.237681
v 0.151007 0.557072 -0.26895
v 0.058995 0.56617 -0.289306
v 0.136834 0.591201 -0.3
v 0.078485 0.59194 -0.326546
v 0.09801 0.623976 -0.365585
v -0.061702 0.006075 -0.116401
v -0.077515 0.006075 0.0659
v -0.087183 0.127848 -0.121257
v -0.134229 0.125547 0.058529
v -0.225676 0.155955 -0.133022
v -0.238118 0.159826 0.010414
v -0.34887 0.204258 -0.097464
v -0.356329 0.206578 -0.011479
v -0.377438 0.288763 -0.058875
v -0.337745 0.222304 -0.052378
v -0.060885 0.156693 -0.025179
v -0.038606 0.039543 -0.020085
v -0.069838 0.006075 -0.022599
v -0.232078 0.157947 -0.059218
v -0.352708 0.205452 -0.053221
v 0.028912 0.006075 0.071733
v 0.03531 0.006075 -0.043647
v 0.057032 0.06189 0.108413
v 0.083194 0.060437 -0.005994
v 0.122959 0.055846 0.077307
v 0.127993 0.058291 -0.013475
v 0.202258 0.096133 0.052829
v 0.205276 0.097598 -0.001592
v 0.273743 0.148543 0.03089
v 0.062789 0.074261 0.049472
v 0.012441 0.006075 0.011392
v 0.032205 0.006075 0.012365
v 0.125549 0.057104 0.030596
v 0.112424 0.006075 -0.033917
v -0.06518 0.006075 -0.077968
v 0.121195 0.107808 -0.058329
v -0.049054 0.105507 -0.132838
v 0.151742 0.103169 -0.186175
v 0.012001 0.10704 -0.220835
v 0.134244 0.132003 -0.309175
v 0.050473 0.134324 -0.329953
v 0.121239 0.214996 -0.426867
v 0.056193 0.133291 -0.182442
v 0.023956 0.116088 -0.056748
v 0.013685 0.006075 -0.026125
v 0.02104 0.006075 -0.056583
v 0.09114 0.133197 -0.319866
v 0.116259 0.460541 -0.228027
v 0.102533 0.451259 -0.258347
v 0.029762 0.480549 -0.220784
v 0.125428 0.585957 -0.274799
v 0.111227 0.583019 -0.288576
v 0.062924 0.605765 -0.260587
v 0.062464 0.607109 -0.245071
v 0.109675 0.60831 -0.295519
v 0.091736 0.607939 -0.305304
v 0.066042 0.620197 -0.294812
v 0.062961 0.621182 -0.276651
v 0.098898 0.627474 -0.314963
v 0.068805 0.632727 -0.300841
v 0.073481 0.637878 -0.340704
v 0.128713 0.587546 -0.263338
v 0.083172 0.632008 -0.311724
v 0.108775 0.610862 -0.286997
v 0.073091 0.622579 -0.272691
v 0.099336 0.632262 -0.306822
v 0.077081 0.63957 -0.2979
v 0.078319 0.644367 -0.333951
v 0.078376 0.631566 -0.323325
v 0.127627 0.467542 -0.200539
v 0.117763 0.463467 -0.219357
v 0.023542 0.486554 -0.203098
v 0.025511 0.493041 -0.185058
v 0.135089 0.59151 -0.253881
v 0.127045 0.58707 -0.269855
v 0.063731 0.605857 -0.260067
v 0.052195 0.610072 -0.236055
v 0.119222 0.617396 -0.266214
v 0.104166 0.615088 -0.27984
v 0.075825 0.625292 -0.276211
v 0.068504 0.626571 -0.259327
v 0.110232 0.647539 -0.285407
v 0.077345 0.650487 -0.278901
v 0.088055 0.666862 -0.311215
v 0.131511 0.593194 -0.239031
v 0.071553 0.606894 -0.234171
v 0.093871 0.650729 -0.286125
v 0.116147 0.620125 -0.258274
v 0.077277 0.629006 -0.253216
v 0.108362 0.652604 -0.277646
v 0.08412 0.658143 -0.274491
v 0.090635 0.673975 -0.303876
v 0.091979 0.649484 -0.29848
v 0.036779 0.397471 -0.179986
v 0.031854 0.402112 -0.169815
v 0.049468 0.405365 -0.152376
v 0.074046 0.402112 -0.149169
v 0.088076 0.395063 -0.161413
v 0.007116 0.435181 -0.218808
v 0.000919 0.445923 -0.192717
v 0.039715 0.461152 -0.132444
v 0.111112 0.445923 -0.138797
v 0.138263 0.433342 -0.153135
v -0.003346 0.470568 -0.244625
v -0.007857 0.482067 -0.215655
v 0.000886 0.495283 -0.157264
v 0.036663 0.500281 -0.126207
v 0.083139 0.495283 -0.117016
v 0.134609 0.482067 -0.145943
v 0.165448 0.47084 -0.160961
v 0.007184 0.49827 -0.256331
v 0.001044 0.510806 -0.225347
v 0.021013 0.555377 -0.182221
v 0.051672 0.55919 -0.15688
v 0.090494 0.555377 -0.148222
v 0.1368 0.510806 -0.158918
v 0.168039 0.499501 -0.177053
v 0.042053 0.575683 -0.255943
v 0.034252 0.58623 -0.231165
v 0.067565 0.595637 -0.189359
v 0.121016 0.58623 -0.188709
v 0.146842 0.57485 -0.203719
v 0.052574 0.623369 -0.23815
v 0.056304 0.633026 -0.210141
v 0.090884 0.633026 -0.19322
v 0.124468 0.620288 -0.200664
v 0.05929 0.665934 -0.222643
v 0.071896 0.67267 -0.198211
v 0.105052 0.658348 -0.198027
v 0.066505 0.704609 -0.17903
v 0.041771 0.398255 -0.186955
v 0.019717 0.439712 -0.213669
v 0.079599 0.398255 -0.168445
v 0.122682 0.435707 -0.174142
v 0.010295 0.47136 -0.23831
v 0.143845 0.467356 -0.183817
v 0.043966 0.508558 -0.224179
v 0.019561 0.495878 -0.248753
v 0.046358 0.530623 -0.14602
v 0.120243 0.522073 -0.195265
v 0.146241 0.492158 -0.197524
v 0.04474 0.590047 -0.230301
v 0.060459 0.56962 -0.261977
v 0.076848 0.585972 -0.20833
v 0.118644 0.576217 -0.216412
v 0.077438 0.668275 -0.209536
v 0.066107 0.617827 -0.246134
v 0.116768 0.617827 -0.21857
v 0.067343 0.663424 -0.233398
v 0.102474 0.663424 -0.216207
v 0.070502 0.705465 -0.195361
v -0.004308 0.439988 -0.198971
v 0.119258 0.439988 -0.138506
v -0.014063 0.478879 -0.222979
v 0.1442 0.478879 -0.145537
v -0.004436 0.510528 -0.233725
v 0.146778 0.510528 -0.159732
v 0.030315 0.589591 -0.239843
v 0.130285 0.589591 -0.190926
v 0.050267 0.637384 -0.217148
v 0.100121 0.637384 -0.192752
v 0.070378 0.679507 -0.195108
v -0.026997 0.006076 -0.054585
v -0.030464 0.006076 -0.025166
v -0.001928 0.006076 -0.011202
v 0.019175 0.006076 -0.031992
v 0.003681 0.006075 -0.058805
v -0.00374 0.131628 -0.082115
v -0.00602 0.139179 -0.062758
v 0.012756 0.139179 -0.05357
v 0.026641 0.131628 -0.06725
v 0.016446 0.12696 -0.084892
v 0.014415 0.191097 -0.10755
v 0.012826 0.196359 -0.094062
v 0.025909 0.196359 -0.08766
v 0.035583 0.191097 -0.097192
v 0.02848 0.187845 -0.109484
v 0.02893 0.27152 -0.137214
v 0.027341 0.276782 -0.123725
v 0.040424 0.276782 -0.117324
v 0.050099 0.27152 -0.126855
v 0.042995 0.268268 -0.139148
v 0.025395 0.396598 -0.210504
v 0.019861 0.415436 -0.162138
v 0.080119 0.415931 -0.131312
v 0.117208 0.392888 -0.175636
v 0.071959 0.387863 -0.211402
v 0.077332 0.377656 -0.168187
v 0.062488 0.385729 -0.153563
v 0.042416 0.385729 -0.163385
v 0.044854 0.377656 -0.184079
v 0.066433 0.372667 -0.187047
v 0.063339 0.392979 -0.17987
v 0.028942 0.496457 -0.191972
v 0.038673 0.500582 -0.176027
v 0.138441 0.48074 -0.187242
v 0.140289 0.473493 -0.200487
v 0.065893 0.618818 -0.232297
v 0.073802 0.623303 -0.216269
v 0.1384 0.611099 -0.227913
v 0.138514 0.601876 -0.240642
v 0.084245 0.645694 -0.225203
v 0.09919 0.648064 -0.211466
v 0.128745 0.644354 -0.217231
v 0.134261 0.632342 -0.230099
v 0.099089 0.67001 -0.218142
v 0.130369 0.657926 -0.220992
v 0.12303 0.689081 -0.196233
v 0.069029 0.61435 -0.238466
v 0.129083 0.60081 -0.245791
v 0.115608 0.667726 -0.217612
v 0.087155 0.641672 -0.232639
v 0.126087 0.632894 -0.237388
v 0.101609 0.668131 -0.227059
v 0.125889 0.662656 -0.230021
v 0.122031 0.690287 -0.206657
v 0.11832 0.674077 -0.20712
v -0.115914 0.006075 0.104264
v 0.038636 0.006075 0.104264
v -0.115914 0.10808 0.077116
v 0.038636 0.10808 0.104264
v -0.115067 0.181218 0.154168
v 0.006534 0.181218 0.154168
v -0.075087 0.218953 0.227381
v -0.002191 0.218953 0.227381
v -0.038639 0.23232 0.272702
v -0.036871 0.19891 0.12702
v -0.036392 0.10808 0.077116
v -0.036392 0.006075 0.077116
v -0.036392 0.006075 0.104264
v -0.052498 0.181218 0.154168
v -0.119637 0.482553 0.095744
v -0.187496 0.457973 0.076941
v -0.203792 0.44611 0.097361
v -0.182779 0.575655 0.130345
v -0.182323 0.578475 0.114803
v -0.232182 0.561871 0.103055
v -0.236856 0.554179 0.113089
v -0.195611 0.59664 0.115825
v -0.201182 0.596996 0.099213
v -0.225301 0.591001 0.091517
v -0.233833 0.580403 0.099586
v -0.205642 0.61579 0.102937
v -0.229161 0.602452 0.092846
v -0.215822 0.629372 0.075482
v -0.184854 0.571625 0.140396
v -0.217537 0.612208 0.095839
v -0.200567 0.593028 0.120429
v -0.230839 0.581779 0.108393
v -0.211097 0.614063 0.108682
v -0.229976 0.607047 0.101176
v -0.219532 0.630641 0.083626
v -0.215674 0.617206 0.086481
v -0.115547 0.384085 0.116855
v -0.109422 0.388111 0.108914
v -0.113694 0.389289 0.090809
v -0.128637 0.384424 0.080785
v -0.141685 0.377591 0.087365
v -0.127997 0.406554 0.152608
v -0.102082 0.428082 0.133582
v -0.102194 0.437414 0.077932
v -0.152266 0.418453 0.060118
v -0.174722 0.405813 0.064232
v -0.116512 0.453838 0.166928
v -0.102669 0.463557 0.145296
v -0.085671 0.472273 0.102759
v -0.096203 0.473322 0.069132
v -0.123131 0.465086 0.047923
v -0.167552 0.451107 0.050316
v -0.192921 0.439313 0.053632
v -0.13113 0.476621 0.170095
v -0.115349 0.487349 0.147521
v -0.119177 0.519753 0.113108
v -0.128744 0.52026 0.085209
v -0.150821 0.513682 0.066785
v -0.177176 0.475486 0.057015
v -0.204226 0.463611 0.062387
v -0.160639 0.539629 0.154013
v -0.146395 0.54884 0.136436
v -0.150722 0.553788 0.095829
v -0.185909 0.541259 0.078593
v -0.207867 0.529757 0.083537
v -0.173006 0.573831 0.142631
v -0.165039 0.581291 0.119108
v -0.179205 0.581916 0.078542
v -0.204459 0.56491 0.093266
v -0.183235 0.620822 0.099268
v -0.182678 0.625066 0.075541
v -0.202473 0.610347 0.067645
v -0.171347 0.652896 0.064153
v -0.126201 0.384093 0.117921
v -0.128647 0.45016 0.167264
v -0.146448 0.462292 0.168353
v -0.204834 0.458042 0.082477
v -0.167962 0.545394 0.128789
v -0.176144 0.525573 0.152318
v -0.167179 0.542358 0.115647
v -0.19688 0.533593 0.101131
v -0.208821 0.526019 0.096178
v -0.191231 0.620924 0.081926
v -0.18539 0.568213 0.143845
v -0.208647 0.563291 0.106291
v -0.194845 0.617788 0.102183
v -0.210845 0.614718 0.078762
v -0.183005 0.653106 0.072089
v -0.100915 0.423505 0.139999
v -0.15719 0.412708 0.057619
v -0.10154 0.461409 0.15262
v -0.173616 0.447579 0.047109
v -0.115419 0.487626 0.155178
v -0.184286 0.474412 0.054366
v -0.147931 0.552089 0.143592
v -0.19346 0.543353 0.076943
v -0.16447 0.585556 0.125715
v -0.185593 0.584846 0.074966
v -0.180775 0.631 0.073463
vn 0.7559 0.638 -0.147
vn -0.2731 0.3151 -0.9089
vn 0.4962 0.8672 -0.0409
vn -0.4002 0.5859 -0.7047
vn 0.5157 0.2804 0.8096
vn 0.5948 0.321 0.737
vn 0.5121 0.5163 0.6864
vn 0.341 0.3074 0.8884
vn -0.6955 -0.6941 0.1859
vn 0.39 0.036 0.9201
vn 0.1784 -0.0943 0.9794
vn -0.2222 -0.968 0.1162
vn 0.1526 -0.8996 0.4091
vn -0.3724 0.1168 -0.9207
vn 0.8083 0.5389 -0.2373
vn -0.5352 0.5448 -0.6456
vn -0.4189 0.5965 -0.6846
vn 0.431 0.8902 -0.1477
vn 0.4409 0.8894 0.1205
vn -0.7043 0.3525 -0.6162
vn -0.5313 0.4611 -0.7107
vn 0.4287 0.8948 0.1245
vn 0.6371 0.6293 0.4452
vn -0.9613 0.1516 -0.2301
vn -0.7305 0.5658 -0.3825
vn 0.4071 0.7016 0.5849
vn 0.4114 0.5361 0.7371
vn -0.9051 -0.2597 -0.3367
vn -0.9706 -0.2351 0.0514
vn -0.9455 -0.1134 -0.3052
vn -0.9198 -0.3914 0.0265
vn -0.1119 -0.7631 0.6365
vn -0.1121 -0.7932 0.5986
vn -0.1178 -0.7582 0.6413
vn -0.4263 -0.3877 0.8173
vn -0.4887 -0.3718 0.7893
vn 0.1878 0.7873 -0.5872
vn 0.4632 0.3954 -0.7932
vn 0.5694 0.3646 -0.7368
vn 0.018 0.9116 -0.4106
vn -0.3086 0.051 -0.9498
vn -0.3088 0.051 -0.9498
vn -0.9979 0.0649 -0.0
vn -0.3086 0.051 0.9498
vn -0.3088 0.051 0.9498
vn 0.8087 0.0284 0.5875
vn 0.8087 0.0284 0.5876
vn 0.8087 0.0284 -0.5875
vn 0.8087 0.0284 -0.5876
vn -0.3079 0.0988 -0.9463
vn -0.985 0.1724 -0.0
vn -0.3079 0.0988 0.9463
vn 0.8088 -0.0234 0.5876
vn 0.8088 -0.0234 -0.5876
vn -0.309 -0.0012 -0.9511
vn -1.0 -0.004 -0.0
vn -0.309 -0.0012 0.9511
vn 0.809 0.0032 0.5878
vn 0.809 0.0032 -0.5878
vn -0.3082 -0.0637 -0.9492
vn -0.9974 -0.0714 -0.0
vn -0.3082 -0.0637 0.9492
vn 0.808 -0.0514 0.5869
vn 0.808 -0.0514 -0.5869
vn -0.2758 -0.4408 0.8542
vn -0.2708 -0.4348 0.8588
vn -0.9533 -0.302 -0.0
vn -0.9407 -0.3377 -0.0326
vn -0.2912 -0.3242 -0.9001
vn -0.2723 -0.3004 -0.9141
vn 0.7305 -0.4314 -0.5295
vn 0.731 -0.4299 0.5299
vn 0.7307 -0.622 0.2813
vn 0.0798 0.9568 0.2796
vn 0.2596 0.9657 0.0091
vn 0.0753 0.9655 -0.2494
vn -0.255 0.9621 -0.097
vn -0.2484 0.9522 0.1777
vn 0.8661 0.3432 0.3634
vn 0.7921 0.3139 -0.5234
vn 0.6867 0.204 -0.6977
vn 0.733 0.1163 0.6702
vn 0.7055 0.2577 -0.6602
vn 0.5729 0.5839 0.5752
vn 0.5729 0.5839 -0.5752
vn 0.0006 -0.7584 -0.6518
vn 0.1797 -0.7113 -0.6796
vn -0.4969 -0.6367 -0.5896
vn -0.6674 -0.7034 -0.2444
vn -0.7034 -0.6851 -0.1892
vn -0.6674 -0.7034 0.2444
vn -0.7034 -0.6851 0.1892
vn -0.4969 -0.6367 0.5896
vn -0.2375 -0.7496 0.6179
vn -0.226 -0.7483 0.6237
vn 0.1382 -0.4122 -0.9005
vn 0.0328 -0.4642 -0.8851
vn -0.6152 -0.3036 -0.7276
vn -0.8215 -0.5257 -0.2207
vn -0.7788 -0.0584 -0.6246
vn -0.8215 -0.5257 0.2207
vn -0.7788 -0.0584 0.6246
vn -0.6152 -0.3036 0.7276
vn -0.3684 -0.3768 0.8499
vn -0.3951 -0.3873 0.833
vn -0.6788 -0.4538 -0.5773
vn -0.9666 0.0095 -0.2561
vn -0.6788 -0.4538 0.5773
vn -0.9666 0.0095 0.2561
vn 0.1073 0.4333 -0.8948
vn 0.2223 0.4006 -0.8889
vn -0.7689 0.0687 -0.6357
vn -0.8365 0.3417 -0.4283
vn -0.8365 0.3417 0.4283
vn -0.7689 0.0687 0.6357
vn -0.3999 0.3033 0.8649
vn -0.2878 0.2863 0.9139
vn 0.2402 0.5286 -0.8142
vn -0.1476 0.4942 -0.8567
vn -0.8614 -0.2501 -0.4422
vn -0.8614 -0.2501 0.4422
vn -0.309 0.225 0.9241
vn -0.5874 0.1313 0.7986
vn -0.2522 0.1593 -0.9545
vn -0.6728 0.0789 -0.7356
vn -0.8763 -0.2391 -0.4182
vn -0.8763 -0.2391 0.4182
vn -0.6482 -0.1211 0.7518
vn -0.7903 -0.1174 0.6014
vn -0.5549 -0.7097 -0.434
vn -0.5554 -0.8247 0.1073
vn -0.4495 0.1953 0.8717
vn -0.4253 0.1866 0.8856
vn -0.4854 0.1817 0.8552
vn -0.5876 0.6486 0.4838
vn -0.9316 0.2672 0.2465
vn -0.9316 0.2672 -0.2465
vn -0.4854 0.1817 -0.8552
vn -0.5876 0.6486 -0.4838
vn -0.0098 0.226 -0.9741
vn 0.0776 0.193 -0.9781
vn 0.9955 -0.0491 0.0813
vn 0.4142 -0.5153 -0.7502
vn 0.9777 -0.2066 0.0381
vn 0.8831 -0.3484 0.3142
vn 0.9962 -0.0873 0.0053
vn 0.9931 -0.0751 0.0899
vn 0.9005 -0.2535 0.3532
vn 0.8965 -0.2503 0.3655
vn 0.7274 0.1789 -0.6625
vn 0.9759 0.2118 0.0523
vn 0.8185 0.3954 0.4168
vn 0.7914 0.3708 0.486
vn 0.7758 0.3281 0.539
vn 0.4468 0.8607 -0.244
vn 0.6811 0.6154 0.3966
vn 0.502 0.6692 0.5478
vn 0.0899 0.4014 -0.9115
vn 0.934 0.2116 0.2879
vn 0.4942 0.679 0.5429
vn 0.3133 0.4562 0.8329
vn -0.3497 0.2795 -0.8942
vn 0.0201 0.6199 -0.7845
vn 0.0602 0.6625 0.7466
vn -0.0819 0.5811 0.8097
vn 0.9169 0.0985 0.3869
vn 0.8746 0.0695 0.4799
vn 0.9994 0.0177 0.0288
vn 0.9998 0.0173 -0.0007
vn -0.8194 -0.4765 -0.3187
vn -0.8194 -0.4765 0.3187
vn -0.8455 -0.191 -0.4987
vn -0.8765 -0.1811 -0.4461
vn -0.8455 -0.191 0.4987
vn -0.8765 -0.1811 0.4461
vn -0.8427 0.0128 -0.5383
vn -0.8594 -0.0097 -0.5113
vn -0.8427 0.0128 0.5383
vn -0.8594 -0.0097 0.5113
vn -0.8748 -0.3105 -0.3719
vn -0.7918 -0.1667 -0.5876
vn -0.8748 -0.3105 0.3719
vn -0.7918 -0.1667 0.5876
vn -0.8911 -0.281 -0.3563
vn -0.6181 -0.7201 0.3152
vn -0.8911 -0.281 0.3563
vn -0.6181 -0.7201 -0.3152
vn -0.8563 0.1183 0.5027
vn -0.8641 0.1181 0.4893
vn -0.8563 0.1183 -0.5027
vn -0.8641 0.1181 -0.4893
vn -0.9935 -0.0348 -0.1084
vn -0.2044 0.1411 0.9687
vn -0.986 0.1169 -0.1189
vn -0.1725 0.3874 0.9056
vn -0.1816 0.073 -0.9807
vn -0.1913 0.1625 -0.968
vn -0.1114 0.1911 -0.9752
vn 0.9911 0.042 0.1265
vn -0.0465 -0.0055 -0.9989
vn 0.1769 0.0566 -0.9826
vn 0.9917 -0.0645 0.111
vn 0.3264 -0.4271 -0.8432
vn -0.0268 0.1158 0.9929
vn -0.6787 -0.026 0.734
vn 0.0179 0.5869 0.8094
vn -0.1158 0.5894 0.7995
vn -0.5281 0.5855 0.6151
vn -0.8911 0.37 -0.2628
vn 0.2441 0.4304 0.869
vn 0.0419 0.4009 0.9152
vn -0.9129 0.3151 -0.2594
vn -0.8273 0.1677 -0.5362
vn 0.6722 0.541 0.5054
vn 0.2558 0.6743 0.6927
vn -0.6755 0.3739 -0.6355
vn -0.4547 0.2642 -0.8505
vn 0.7707 0.076 0.6326
vn 0.6962 0.0682 0.7146
vn 0.77 0.591 0.2405
vn 0.6394 0.5604 0.5264
vn 0.9307 0.2226 0.2901
vn 0.7433 -0.2693 -0.6124
vn 0.7569 -0.2444 -0.6061
vn 0.7543 -0.2295 -0.6152
vn -0.7481 0.2461 0.6163
vn -0.7622 0.3507 0.5441
vn -0.7708 0.0439 0.6356
vn -0.6968 0.5173 0.4969
vn -0.993 0.1096 0.044
vn -0.7921 -0.1324 -0.5959
vn -0.9352 0.1164 -0.3343
vn -0.5906 0.515 0.6213
vn 0.3524 -0.0269 0.9355
vn -0.7705 -0.1757 -0.6127
vn -0.325 0.6409 0.6954
vn -0.6522 0.4844 -0.5831
vn -0.3653 0.5466 0.7535
vn 0.3413 -0.7115 0.6143
vn 0.1251 -0.6683 0.7333
vn 0.7428 -0.6602 0.1112
vn 0.7755 -0.5404 0.3264
vn 0.7118 -0.4345 -0.5519
vn 0.4957 -0.5915 -0.6359
vn -0.0625 -0.6938 -0.7175
vn -0.0535 -0.6957 -0.7163
vn 0.2279 -0.4037 0.8861
vn 0.3173 -0.3743 0.8713
vn 0.8529 -0.3787 0.3594
vn 0.7514 -0.5135 0.4144
vn 0.568 -0.3798 -0.7301
vn 0.4526 -0.5147 -0.7281
vn -0.029 -0.414 -0.9098
vn 0.0153 -0.3967 -0.9178
vn 0.3659 0.0997 0.9253
vn 0.3315 0.1263 0.935
vn 0.6882 0.1024 0.7183
vn 0.8016 -0.4134 0.4319
vn 0.9989 -0.0089 0.0461
vn 0.4726 -0.4608 -0.7512
vn 0.8867 -0.0096 -0.4622
vn 0.2237 0.1012 -0.9694
vn 0.0428 0.099 -0.9942
vn -0.0181 0.1451 -0.9893
vn 0.3055 0.3154 0.8985
vn 0.1784 0.2948 0.9388
vn 0.6782 0.1961 0.7082
vn 0.9046 0.4261 0.0092
vn 0.9451 0.1701 0.2788
vn 0.7892 0.4594 -0.4075
vn 0.6876 0.1691 -0.7062
vn 0.2199 0.2006 -0.9547
vn -0.0218 0.2799 -0.9598
vn -0.1228 0.269 -0.9553
vn 0.1543 0.3694 0.9164
vn 0.4448 0.4396 0.7803
vn 0.9553 0.0896 0.2817
vn 0.645 -0.3849 -0.6602
vn -0.1476 0.3633 -0.9199
vn -0.3758 0.2973 -0.8777
vn 0.375 0.5694 0.7315
vn 0.7695 0.3239 0.5505
vn 0.9249 0.0353 0.3785
vn 0.6997 -0.3468 -0.6246
vn -0.1969 -0.4087 -0.8912
vn 0.5475 -0.3248 -0.7712
vn 0.6118 -0.751 0.2483
vn 0.5102 -0.8075 -0.296
vn 0.7855 0.4633 -0.4104
vn 0.8889 0.4562 0.0412
vn -0.3621 -0.6081 0.7064
vn -0.3649 -0.6068 0.7061
vn -0.2224 -0.2949 0.9293
vn -0.3005 -0.2999 0.9054
vn -0.3101 0.0928 0.9462
vn -0.2163 0.0524 0.9749
vn -0.6678 0.3269 0.6687
vn -0.3568 0.433 0.8278
vn -0.8278 0.354 -0.4353
vn -0.2797 0.4391 0.8538
vn -0.6736 0.2744 0.6862
vn -0.781 0.4825 -0.3964
vn -0.6736 0.4066 -0.6172
vn -0.0175 0.7453 0.6665
vn -0.2343 0.7492 0.6195
vn -0.7651 0.1217 -0.6323
vn -0.6321 0.0127 -0.7748
vn 0.4172 0.4305 0.8004
vn -0.0264 0.7216 0.6918
vn -0.1969 0.5002 -0.8432
vn -0.0562 0.3816 -0.9226
vn 0.8747 -0.4602 0.1522
vn 0.688 -0.448 -0.5709
vn 0.9066 -0.3545 0.2291
vn 0.9071 -0.354 0.2278
vn 0.6785 -0.3554 -0.6429
vn 0.6796 -0.3549 -0.642
vn 0.9481 0.0784 0.308
vn 0.945 0.0764 0.3179
vn 0.676 0.0774 -0.7329
vn 0.6684 0.0753 -0.74
vn 0.9482 0.0547 0.3128
vn 0.9494 0.0532 0.3095
vn 0.6737 0.0536 -0.7371
vn 0.6764 0.0521 -0.7347
vn 0.9548 0.0906 0.2832
vn 0.9896 -0.1249 0.0708
vn 0.4762 -0.2599 -0.84
vn 0.6086 -0.4218 -0.6721
vn 0.958 -0.2407 0.1558
vn 0.5943 -0.7464 -0.2995
vn 0.4867 -0.3011 0.8201
vn 0.6825 -0.342 -0.646
vn 0.9566 0.2587 0.134
vn 0.1974 0.2557 -0.9464
vn 0.799 0.5848 0.1399
vn 0.1376 0.5822 -0.8013
vn 0.2914 0.1738 0.9407
vn 0.399 0.1685 0.9013
vn 0.4279 0.3704 0.8245
vn 0.1293 0.2789 0.9516
vn -0.9418 -0.3274 -0.076
vn 0.0459 0.0184 0.9988
vn -0.2074 -0.0075 0.9782
vn -0.6341 -0.7727 0.0288
vn -0.3833 -0.8139 0.4366
vn 0.0336 0.1133 -0.993
vn 0.9885 0.1346 0.0684
vn -0.0132 0.607 -0.7946
vn 0.1197 0.6022 -0.7893
vn 0.7882 0.6152 0.0167
vn 0.709 0.6512 0.2706
vn -0.247 0.5036 -0.8278
vn -0.0241 0.5197 -0.854
vn 0.6997 0.6615 0.27
vn 0.6598 0.3871 0.6441
vn -0.6748 0.481 -0.5597
vn -0.2553 0.7427 -0.6191
vn 0.4501 0.5644 0.692
vn 0.3345 0.4356 0.8356
vn -0.7661 0.0699 -0.639
vn -0.628 0.0567 -0.7761
vn -0.9374 0.1766 -0.3002
vn -0.7488 0.2232 -0.6241
vn -0.9522 0.0112 -0.3052
vn -0.6235 -0.5516 0.554
vn -0.624 -0.5845 0.5185
vn -0.628 -0.5441 0.5563
vn -0.7902 -0.0601 0.6099
vn -0.8271 -0.0253 0.5614
vn 0.682 0.5511 -0.4808
vn 0.682 0.5512 -0.4808
vn 0.8168 0.0562 -0.5742
vn 0.8754 -0.0051 -0.4835
vn 0.5332 0.7574 -0.3768
vn -0.6527 -0.0344 -0.7569
vn -0.6414 -0.0333 -0.7664
vn -0.9076 -0.2339 0.3488
vn 0.0222 -0.0344 0.9992
vn 0.037 -0.0333 0.9988
vn 0.9414 0.2676 0.2053
vn 0.9232 0.2705 0.2729
vn 0.5616 0.2676 -0.783
vn 0.5029 0.2705 -0.8209
vn -0.6389 -0.0402 -0.7682
vn -0.9016 -0.259 0.3465
vn 0.04 -0.0402 0.9984
vn 0.9046 0.3198 0.2818
vn 0.483 0.3198 -0.8151
vn -0.6022 -0.1314 -0.7874
vn -0.8448 -0.4253 0.3247
vn 0.0801 -0.1314 0.9881
vn 0.8943 0.3441 0.286
vn 0.4726 0.3441 -0.8113
vn -0.5762 -0.1878 -0.7954
vn -0.8161 -0.4854 0.3136
vn 0.1048 -0.1878 0.9766
vn 0.9147 0.2942 0.2772
vn 0.4936 0.2942 -0.8184
vn 0.2465 -0.516 0.8204
vn 0.25 -0.5085 0.824
vn -0.688 -0.6758 0.2644
vn -0.6749 -0.7029 0.2244
vn -0.4417 -0.4168 -0.7945
vn -0.4402 -0.3872 -0.8101
vn 0.5981 -0.0831 -0.7971
vn 0.978 -0.0816 0.1918
vn 0.9642 -0.2559 -0.0692
vn -0.2088 0.9012 0.3797
vn -0.1571 0.9851 0.0702
vn -0.4058 0.9072 -0.1112
vn -0.6293 0.7648 0.1379
vn -0.8661 -0.4505 0.2167
vn 0.119 0.0418 0.992
vn -0.9232 -0.3098 0.2274
vn 0.0264 0.2785 0.9601
vn -0.5969 -0.053 -0.8006
vn -0.6274 0.0007 -0.7787
vn -0.5194 0.1263 -0.8452
vn 0.8677 0.456 -0.198
vn -0.3955 -0.0246 -0.9181
vn -0.2251 0.1259 -0.9662
vn 0.9046 0.3598 -0.2287
vn 0.1419 -0.2496 -0.9579
vn 0.2896 0.0914 0.9528
vn -0.6321 -0.3182 0.7066
vn 0.0745 0.5397 0.8385
vn -0.0432 0.4856 0.8731
vn -0.6981 0.1172 0.7064
vn -0.9404 -0.323 0.1066
vn 0.3489 0.4932 0.7969
vn 0.206 0.3811 0.9013
vn -0.9898 -0.0993 0.1025
vn -0.9585 -0.1968 -0.206
vn 0.5373 0.774 0.3349
vn 0.1995 0.7193 0.6654
vn -0.9469 0.0542 -0.3169
vn -0.794 0.0478 -0.6061
vn 0.8494 0.3939 0.3513
vn 0.7888 0.3233 0.5227
vn 0.5053 0.8606 0.0635
vn 0.5094 0.7778 0.3682
vn 0.8042 0.5944 0.0018
vn 0.5154 0.0693 -0.8541
vn 0.5194 0.0976 -0.8489
vn 0.508 0.11 -0.8543
vn -0.5283 -0.1221 0.8402
vn -0.5686 -0.086 0.8181
vn -0.47 -0.2843 0.8357
vn -0.6151 0.1752 0.7687
vn -0.9606 0.2511 0.119
vn 0.0528 0.2551 0.9655
vn -0.8125 0.5784 0.0727
vn 0.0704 0.5819 0.8102
vn -0.4626 0.0729 -0.8836
vn -0.6016 0.0445 -0.7976
vn -0.6105 0.0942 -0.7864
vn -0.2648 -0.099 -0.9592
vn 0.9318 -0.32 -0.1712
vn -0.3035 0.017 -0.9527
vn -0.0534 -0.0069 -0.9986
vn 0.611 -0.7677 -0.193
vn 0.2634 -0.8113 -0.5219
vn 0.2141 0.6079 0.7646
vn 0.6183 0.5465 0.5648
vn -0.6508 0.5899 0.478
vn -0.7703 0.6333 -0.0748
vn 0.4493 0.5064 0.736
vn 0.2407 0.5208 0.8191
vn -0.7509 0.6557 -0.0786
vn -0.8072 0.3813 -0.4505
vn 0.7931 0.4869 0.366
vn 0.4012 0.7453 0.5324
vn -0.6186 0.5601 -0.551
vn -0.5432 0.4321 -0.7199
vn 0.9817 0.1843 0.0471
vn 0.8833 0.2297 0.4087
vn 0.9987 0.019 0.0478
vn 0.4628 -0.5473 -0.6973
vn 0.3974 -0.6113 -0.6843
vn 0.4068 -0.6483 -0.6436
vn 0.5619 0.0584 -0.8251
vn 0.5383 0.0722 -0.8397
vn -0.5476 0.6372 0.5424
vn -0.5382 0.5463 0.6418
vn -0.4231 0.7536 0.503
vn 0.4195 0.27 -0.8667
vn 0.7389 0.0807 0.669
vn 0.7328 0.6606 0.1632
vn 0.3157 0.5921 -0.7414
vn 0.3214 0.6041 -0.7292
vn 0.666 0.6058 0.4352
vn 0.3094 0.455 -0.835
vn 0.4614 0.771 0.4389
vn 0.0487 0.771 -0.6349
vn 0.0652 -0.6874 -0.7233
vn 0.1883 -0.5692 -0.8004
vn -0.4118 -0.9042 -0.1135
vn -0.5254 -0.8023 -0.2834
vn -0.2298 -0.9042 0.3601
vn -0.2004 -0.8023 0.5623
vn 0.3157 -0.7798 0.5406
vn 0.327 -0.7738 0.5425
vn -0.0438 -0.3155 -0.9479
vn -0.107 -0.407 -0.9071
vn -0.57 -0.5174 -0.6383
vn -0.3819 -0.8813 -0.2783
vn -0.5712 -0.8201 -0.0331
vn -0.0972 -0.8813 0.4625
vn -0.402 -0.8201 0.4071
vn 0.0042 -0.5174 0.8557
vn 0.1414 -0.497 0.8561
vn 0.1169 -0.5178 0.8475
vn -0.4031 0.1012 -0.9095
vn -0.3867 0.1316 -0.9128
vn -0.8754 0.076 -0.4774
vn -0.9162 -0.3967 0.0563
vn -0.9434 0.1928 -0.2699
vn -0.7181 -0.3967 0.5718
vn -0.5535 0.132 0.8223
vn -0.2259 -0.139 0.9642
vn -0.1074 -0.0911 0.99
vn -0.063 -0.0033 0.998
vn -0.45 0.3641 -0.8154
vn -0.2837 0.4083 -0.8677
vn -0.721 -0.2587 -0.6428
vn -0.9903 -0.0462 0.1307
vn -0.9891 -0.0524 0.1379
vn -0.823 -0.0462 0.5662
vn -0.7066 0.1055 0.6997
vn -0.2413 -0.0284 0.97
vn -0.1058 0.1057 0.9888
vn -0.0278 0.1341 0.9906
vn -0.2968 0.5806 -0.7582
vn -0.6268 0.3858 -0.6769
vn -0.8307 -0.5562 0.0216
vn -0.472 -0.59 0.6551
vn -0.0186 0.0737 0.9971
vn -0.2623 -0.1287 0.9564
vn -0.6185 0.0381 -0.7848
vn -0.8644 -0.2122 -0.4559
vn -0.7976 -0.5864 -0.1415
vn -0.4975 -0.5864 0.6392
vn -0.2313 -0.3832 0.8943
vn -0.4069 -0.4397 0.8007
vn -0.346 -0.8775 -0.332
vn -0.107 -0.9819 0.156
vn -0.2614 -0.6078 0.7499
vn -0.808 -0.1507 0.5696
vn -0.5795 -0.6673 -0.4678
vn -0.9815 -0.1507 0.1181
vn 0.891 0.3753 -0.2553
vn 0.2843 -0.2926 -0.913
vn 0.9179 0.2306 -0.3228
vn 0.9973 0.0565 -0.0466
vn 0.8794 0.341 -0.3323
vn 0.9024 0.3507 -0.2505
vn 0.9885 0.1511 -0.001
vn 0.9883 0.1522 0.01
vn 0.6447 0.4291 0.6326
vn 0.886 0.322 -0.3336
vn 0.9346 0.3521 0.0502
vn 0.9532 0.2758 0.1236
vn -0.2777 0.4692 -0.8383
vn 0.8163 -0.1722 0.5513
vn 0.7364 0.6651 0.1237
vn 0.6533 0.6799 -0.333
vn -0.1818 0.6802 -0.7102
vn -0.308 0.6211 -0.7207
vn 0.6194 0.718 -0.3176
vn 0.3224 0.7559 0.5699
vn -0.4089 0.4019 -0.8193
vn -0.1606 0.5694 -0.8062
vn 0.3097 0.7618 0.569
vn 0.3107 0.5706 0.7602
vn -0.7267 0.106 -0.6787
vn -0.5084 0.5705 -0.645
vn 0.058 0.6261 0.7776
vn -0.0076 0.4924 0.8704
vn -0.6203 -0.7776 -0.103
vn -0.3917 -0.7776 0.4919
vn -0.8193 -0.5297 -0.2194
vn -0.8306 -0.5338 -0.1587
vn -0.4615 -0.5297 0.7116
vn -0.5105 -0.5338 0.6741
vn -0.9505 -0.2945 0.0994
vn -0.94 -0.3018 -0.1589
vn -0.5993 -0.3019 0.7414
vn -0.5917 -0.3018 0.7476
vn -0.7949 -0.6011 0.0831
vn -0.4428 0.3182 -0.8383
vn -0.5874 -0.3239 0.7416
vn -0.5891 -0.3261 0.7393
vn -0.8393 -0.5436 0.0119
vn -0.5196 0.5218 -0.6766
vn -0.4848 -0.6505 0.5847
vn -0.3937 -0.4851 0.7808
vn -0.7714 -0.6306 -0.0852
vn -0.1266 -0.9136 0.3863
vn -0.5158 -0.6306 0.5799
vn -0.3527 -0.9136 -0.2022
vn -0.9361 0.2927 0.1949
vn -0.8363 0.2564 0.4847
vn -0.6603 0.4662 0.5888
vn 0.4051 0.7021 0.5856
vn 0.9788 -0.1599 0.1281
vn -0.8242 0.2854 0.4892
vn 0.6007 0.7166 0.3545
vn -0.6177 0.7673 0.172
vn 0.6207 0.6449 0.446
vn 0.5703 -0.788 0.232
vn 0.5968 -0.6652 0.4488
vn 0.605 -0.7921 -0.0813
vn 0.271 -0.9114 -0.3097
vn 0.2193 -0.9047 -0.3653
vn -0.2822 -0.8512 -0.4425
vn -0.2109 -0.8577 -0.4688
vn -0.6601 -0.6478 -0.3802
vn -0.7868 -0.6167 -0.0245
vn -0.7824 -0.622 -0.0308
vn 0.8204 -0.4602 0.3395
vn 0.8484 -0.4674 0.2487
vn 0.7417 -0.6429 -0.1911
vn 0.7363 -0.5885 -0.3338
vn 0.2488 -0.8725 -0.4206
vn 0.6178 -0.6415 -0.4547
vn -0.2084 -0.8273 -0.5217
vn -0.4557 -0.5677 -0.6856
vn -0.6996 -0.5004 -0.51
vn -0.6412 -0.464 -0.6112
vn -0.8988 -0.3713 -0.2332
vn -0.8851 -0.3722 -0.2794
vn 0.4454 -0.3913 -0.8053
vn -0.0568 -0.349 -0.9354
vn -0.7629 0.0077 -0.6465
vn -0.8589 0.075 -0.5066
vn -0.881 0.2465 -0.4038
vn 0.9729 0.2257 0.0505
vn 0.9581 0.2404 0.156
vn 0.9513 -0.0823 -0.2971
vn 0.4473 0.0465 -0.8932
vn 0.6628 -0.2054 -0.7201
vn 0.0318 0.1216 -0.9921
vn -0.3267 -0.1075 -0.939
vn -0.7345 0.1009 -0.6711
vn -0.8618 0.2949 -0.4126
vn -0.8626 0.2955 -0.4107
vn 0.948 0.282 0.1475
vn 0.9556 0.2354 -0.1775
vn 0.6559 -0.2837 -0.6995
vn -0.3961 -0.6029 -0.6926
vn -0.825 0.3921 -0.407
vn -0.8908 0.4187 -0.1765
vn 0.9053 0.382 -0.1857
vn 0.8614 0.004 -0.5079
vn 0.7214 -0.3221 -0.6131
vn -0.3355 -0.5887 -0.7355
vn -0.9493 -0.3019 -0.0876
vn -0.5253 -0.51 -0.6812
vn 0.3448 -0.9282 -0.1396
vn -0.1949 -0.9415 -0.2751
vn 0.0283 0.1266 -0.9915
vn 0.4747 0.0804 -0.8765
vn 0.9553 -0.1008 -0.278
vn 0.9988 0.0373 0.0308
vn 0.9947 0.0379 0.0956
vn 0.4724 -0.5118 0.7176
vn 0.4821 -0.5328 0.6955
vn 0.7401 -0.2586 0.6208
vn 0.7156 -0.2505 0.652
vn 0.3995 0.5912 0.7007
vn 0.3732 0.5848 0.7203
vn -0.716 0.6458 0.2651
vn 0.763 0.4894 0.4222
vn 0.4123 0.5253 0.7443
vn -0.6461 0.7289 0.2262
vn -0.7499 0.6475 0.1354
vn 0.7615 0.6481 0.0086
vn 0.6125 0.7672 0.1904
vn -0.858 0.4058 0.3148
vn -0.9504 0.2542 0.1794
vn 0.9609 0.2375 -0.1426
vn 0.7827 0.6208 0.0443
vn -0.753 0.5375 -0.3796
vn -0.7872 0.374 -0.4904
vn 0.4202 0.361 0.8325
vn 0.7997 0.3915 0.4552
vn 0.4142 -0.7604 -0.5002
vn -0.309 -0.6777 -0.6673
vn 0.514 -0.6751 -0.5292
vn 0.5132 -0.6748 -0.5304
vn -0.3619 -0.5885 -0.723
vn -0.3606 -0.5884 -0.7237
vn -0.3709 -0.1878 -0.9095
vn -0.3807 -0.1868 -0.9056
vn 0.7189 -0.3374 -0.6078
vn 0.6921 -0.3618 -0.6246
vn -0.3795 -0.2088 -0.9013
vn -0.3766 -0.2113 -0.9019
vn 0.6572 -0.2825 -0.6988
vn 0.4442 -0.4949 -0.7468
vn -0.6051 -0.4227 -0.6747
vn -0.4278 -0.6229 -0.655
vn 0.4882 -0.5897 -0.6433
vn -0.1536 -0.9173 -0.3675
vn 0.8834 -0.4647 0.0605
vn -0.3608 -0.5776 -0.7322
vn 0.7037 -0.2471 -0.6662
vn 0.6919 -0.249 -0.6777
vn -0.9746 -0.2073 -0.0845
vn 0.9376 0.165 -0.3062
vn 0.9391 0.185 -0.2895
vn -0.4159 -0.6075 -0.6767
vn -0.1996 -0.9798 0.0091
vn 0.2146 0.9177 -0.3343
vn -0.3667 -0.9303 -0.0067
vn 0.2485 0.8885 -0.3857
vn 0.228 0.8832 -0.4098
vn -0.9546 -0.2884 -0.075
vn 0.8104 0.447 -0.3789
vn 0.1319 0.7994 0.5862
vn 0.2565 0.8574 0.4462
vn 0.101 0.9003 0.4234
vn 0.7106 0.1649 0.684
vn 0.7689 0.396 0.502
vn -0.8988 -0.4315 -0.078
vn -0.675 -0.6274 0.3883
vn -0.3127 -0.9498 -0.0015
vn 0.7162 0.4775 0.509
vn 0.8788 -0.4748 0.0487
vn -0.8947 0.4466 0.0064
vn -0.8398 0.4921 0.2292
vn 0.3825 -0.8384 0.3883
vn -0.1065 -0.9938 -0.0327
vn 0.1913 0.9567 0.2195
vn 0.4532 -0.8914 0.0011
vn -0.1244 0.6824 0.7203
vn 0.5006 -0.8103 -0.3047
vn -0.0985 0.4956 0.863
vn -0.3185 0.7863 -0.5294
vn 0.0065 0.9709 -0.2396
vn -0.6186 0.6783 -0.3966
vn -0.6277 0.7335 -0.2608
vn 0.7356 -0.6762 0.0408
vn 0.4701 -0.6446 -0.6029
vn -0.0528 -0.9982 -0.0298
vn 0.5115 -0.8298 0.2232
vn -0.3213 0.777 -0.5414
vn 0.2333 -0.2459 -0.9408
vn 0.0354 0.2303 0.9725
vn 0.0759 0.2608 0.9624
vn 0.7009 -0.6868 0.1924
vn 0.0863 0.9839 0.1568
vn 0.3018 0.9526 0.0375
vn 0.3173 -0.8843 -0.3425
vn 0.0307 -0.9722 -0.2323
vn 0.3022 0.9367 0.1766
vn 0.1218 -0.8048 -0.581
vn 0.6458 0.6558 0.3911
vn -0.5274 0.8492 0.0264
vn -0.2206 0.9724 0.0765
vn -0.3462 0.9109 -0.2244
vn -0.5284 0.2731 0.8039
vn -0.6789 0.4361 0.5907
vn 0.2087 -0.4982 -0.8415
vn -0.5694 -0.7139 -0.4075
vn -0.333 -0.8114 -0.4804
vn -0.7313 0.6813 0.0331
vn -0.2407 0.6003 0.7627
vn 0.9317 0.2154 0.2926
vn -0.167 0.8458 0.5067
vn 0.8544 0.5104 0.0972
vn -0.9693 0.2409 -0.0496
vn -0.9993 -0.0262 -0.0274
vn -0.9745 -0.1609 -0.1566
vn 0.1705 -0.6529 -0.738
vn -0.9761 0.1321 -0.1728
vn -0.9198 0.0141 -0.3922
vn -0.4987 -0.8503 -0.1684
vn 0.8447 0.5307 -0.0697
vn 0.8541 0.4225 -0.3034
vn -0.2731 0.8803 0.388
vn 0.9288 0.2954 -0.2237
vn 0.9212 0.3886 -0.0191
vn -0.2649 0.8936 0.3625
vn -0.6681 0.6617 0.3403
vn 0.7328 0.1455 -0.6647
vn 0.7668 0.5344 -0.3556
vn -0.6516 0.7545 0.078
vn -0.7942 0.6074 -0.0147
vn 0.9173 -0.1456 -0.3707
vn 0.6961 -0.295 -0.6546
vn 0.4718 -0.2064 -0.8572
vn 0.7043 -0.1474 -0.6945
vn 0.4515 -0.3655 -0.814
vn -0.5308 -0.6829 -0.5019
vn -0.5703 -0.7161 -0.4023
vn -0.519 -0.7696 -0.3718
vn -0.5032 -0.1616 -0.8489
vn -0.5399 -0.1218 -0.8329
vn 0.3673 0.7983 0.4772
vn 0.4526 0.6924 0.5619
vn 0.4071 0.8583 0.3125
vn -0.5065 0.3489 0.7885
vn 0.8109 0.2087 0.5467
vn -0.4874 0.4861 0.7254
vn 0.8087 0.4239 0.4077
vn -0.8917 0.0884 -0.4439
vn -0.8649 0.2155 -0.4533
vn -0.889 0.2192 -0.4021
vn 0.523 -0.3413 -0.781
vn -0.917 0.0127 -0.3986
vn -0.8013 -0.0155 -0.5981
vn 0.4914 -0.4399 -0.7517
vn -0.6969 -0.5196 -0.4943
vn 0.9724 0.0403 0.2298
vn -0.0228 0.4037 0.9146
vn 0.8203 0.5579 0.1259
vn 0.8156 0.5632 0.1327
vn 0.0704 0.7898 0.6093
vn -0.557 0.62 0.5525
vn 0.9522 0.3038 0.0312
vn 0.9066 0.3541 0.2294
vn -0.5505 0.6411 0.5347
vn -0.7892 0.4722 0.3928
vn 0.818 0.2418 -0.5219
vn 0.8397 0.5247 -0.14
vn -0.782 0.6044 0.1523
vn -0.904 0.4184 -0.0876
vn 0.8939 -0.2254 -0.3875
vn 0.8815 -0.2304 -0.4122
vn 0.6282 0.2505 -0.7366
vn 0.8268 0.2724 -0.4921
vn 0.6759 -0.1514 -0.7213
vn -0.2937 -0.5338 -0.793
vn -0.2783 -0.516 -0.8101
vn -0.2851 -0.5012 -0.817
vn 0.2069 0.6442 0.7364
vn 0.2363 0.5983 0.7657
vn 0.2507 0.745 0.6182
vn 0.9996 -0.0115 -0.0273
vn -0.4573 -0.3352 -0.8237
vn 0.8284 -0.4387 0.3482
vn 0.5632 -0.0161 -0.8261
vn -0.1927 -0.013 -0.9812
vn -0.2994 -0.0629 -0.9521
vn 0.9109 0.088 -0.4032
vn -0.2632 -0.0325 -0.9642
vn 0.8476 0.3195 -0.4236
vn -0.1857 0.3195 -0.9292
vn -0.7131 -0.7006 -0.0257
vn -0.6574 -0.7258 -0.2027
vn -0.6229 -0.3575 0.6958
vn -0.7823 -0.2554 0.5681
vn -0.1672 -0.3575 0.9188
vn 0.0315 -0.2554 0.9663
vn 0.3322 -0.6012 0.7268
vn 0.3423 -0.6044 0.7194
vn -0.8223 -0.4337 -0.3685
vn -0.86 -0.4413 -0.2563
vn -0.9765 -0.1262 0.1748
vn -0.7182 -0.4062 0.5649
vn -0.6324 -0.1698 0.7558
vn -0.0053 -0.4062 0.9138
vn -0.2087 -0.1698 0.9631
vn 0.4612 -0.1262 0.8783
vn 0.5504 -0.2067 0.8089
vn 0.5225 -0.2062 0.8273
vn -0.8745 0.1053 -0.4734
vn -0.8572 0.1136 -0.5023
vn -0.946 0.3166 0.07
vn 0.5252 0.3166 0.7899
vn 0.6307 0.2742 0.726
vn 0.6916 0.3051 0.6547
vn -0.7486 0.34 -0.5692
vn -0.6728 0.2416 -0.6993
vn -0.915 0.4034 0.0068
vn -0.513 0.6849 0.5175
vn -0.5951 0.7426 0.3071
vn -0.0939 0.6849 0.7226
vn 0.1227 0.7426 0.6584
vn 0.5561 0.4034 0.7266
vn 0.6945 0.4057 0.5942
vn 0.7518 0.3717 0.5447
vn -0.5447 0.396 -0.7392
vn -0.7462 0.513 -0.4243
vn -0.789 0.0994 0.6063
vn 0.0054 0.0994 0.995
vn 0.7425 0.3263 0.585
vn 0.501 0.3465 0.793
vn -0.9329 0.2438 -0.2652
vn -0.9206 0.3309 0.2076
vn -0.7717 0.1153 0.6255
vn -0.0204 0.1153 0.9931
vn 0.3917 0.1368 0.9099
vn 0.1996 0.1947 0.9603
vn -0.7347 -0.4426 0.514
vn -0.2681 -0.5486 0.7919
vn 0.5136 0.3451 0.7856
vn -0.1225 0.4692 0.8746
vn -0.1445 0.4857 0.8621
vn -0.6154 0.4692 0.6334
vn -0.592 0.4857 0.6431
vn -0.9354 0.3451 0.0765
vn 0.4689 -0.4271 -0.7731
vn -0.5926 -0.6348 -0.4959
vn 0.3923 -0.5621 -0.7281
vn 0.5759 -0.6469 -0.4999
vn 0.3944 -0.4627 -0.794
vn 0.4712 -0.4503 -0.7585
vn 0.6231 -0.5778 -0.5272
vn 0.6385 -0.5707 -0.5165
vn 0.3881 -0.4814 -0.7859
vn 0.3912 -0.4804 -0.7849
vn 0.6962 -0.3983 -0.5973
vn 0.6957 -0.3978 -0.5981
vn -0.271 0.1269 -0.9542
vn 0.4271 -0.3837 -0.8188
vn 0.6938 -0.0588 -0.7177
vn 0.4065 -0.0712 -0.9109
vn -0.3421 0.3938 -0.8532
vn -0.1955 0.3268 -0.9247
vn 0.4091 -0.0289 -0.912
vn 0.8087 0.4255 -0.4062
vn -0.7145 0.3362 -0.6135
vn -0.4115 0.2555 -0.8748
vn 0.8027 0.4375 -0.4053
vn 0.9522 0.3011 -0.051
vn -0.898 0.3922 -0.1992
vn -0.5919 0.5647 -0.575
vn 0.8068 0.5888 0.05
vn 0.792 0.5681 0.2236
vn -0.6992 -0.1257 0.7038
vn -0.1267 -0.1257 0.9839
vn -0.8233 0.1478 0.548
vn -0.787 0.1689 0.5934
vn 0.0726 0.1478 0.9863
vn 0.0144 0.1689 0.9855
vn -0.7714 0.4045 0.4911
vn -0.7776 0.401 0.4843
vn 0.0856 0.4045 0.9105
vn 0.0947 0.401 0.9112
vn -0.7794 0.3815 0.4971
vn -0.7778 0.3806 0.5003
vn 0.0858 0.3815 0.9204
vn 0.0823 0.3806 0.9211
vn -0.7415 0.0487 0.6692
vn -0.8773 0.1497 0.456
vn -0.0734 0.0487 0.9961
vn 0.1783 0.1497 0.9725
vn -0.7291 0.0823 0.6794
vn -0.0892 -0.428 0.8994
vn -0.0891 0.0823 0.9926
vn -0.6554 -0.428 0.6223
vn -0.9822 0.1477 -0.1157
vn -0.9749 0.1432 -0.1707
vn -0.4168 0.3171 0.8519
vn 0.6941 0.1477 0.7045
vn 0.733 0.1432 0.665
vn 0.8503 -0.1885 -0.4914
vn 0.871 -0.1898 -0.4531
vn -0.1338 -0.1885 -0.9729
vn -0.1767 -0.1898 -0.9658
vn -0.9583 0.2093 -0.1946
vn -0.3708 0.537 0.7577
vn 0.7417 0.2093 0.6373
vn 0.8521 -0.3319 -0.4046
vn -0.2034 -0.3319 -0.9211
vn -0.9799 0.1174 -0.1613
vn -0.4066 0.3799 0.8309
vn 0.7286 0.1174 0.6748
vn 0.8569 -0.3073 -0.4139
vn -0.199 -0.3073 -0.9306
vn -0.9855 0.0824 -0.1483
vn -0.4098 0.3616 0.8375
vn 0.7218 0.0824 0.6872
vn 0.8438 -0.3684 -0.3901
vn -0.2097 -0.3684 -0.9057
vn 0.2999 -0.6731 0.676
vn 0.3734 -0.6576 0.6543
vn -0.412 -0.3482 0.842
vn -0.4216 -0.3654 0.8299
vn -0.7855 -0.6023 0.1424
vn -0.7843 -0.6032 0.1452
vn -0.2591 -0.7919 -0.5529
vn -0.17 -0.8559 -0.4884
vn 0.7189 -0.6512 -0.2432
vn 0.3032 -0.9183 -0.2546
vn 0.3341 0.8906 -0.3086
vn 0.2393 0.8433 -0.4813
vn 0.0359 0.8987 -0.4372
vn 0.014 0.9876 -0.1564
vn 0.1812 0.9774 -0.109
vn 0.5522 -0.1279 -0.8238
vn -0.7269 0.1605 -0.6678
vn 0.5486 0.2336 -0.8028
vn -0.5658 0.4849 -0.6669
vn 0.9925 0.0487 0.1119
vn 1.0 0.0025 0.0071
vn 0.9767 0.1779 -0.1202
vn 0.9542 0.208 0.2149
vn -0.5057 0.0588 0.8607
vn 0.9189 -0.0007 0.3946
vn 0.7932 0.0726 0.6046
vn -0.3618 -0.4704 0.8049
vn 0.0994 -0.6046 0.7903
vn -0.8586 0.0932 -0.5041
vn 0.4854 -0.2549 -0.8363
vn -0.6168 0.5656 -0.5474
vn -0.5589 0.5102 -0.6537
vn 0.4387 0.2658 -0.8584
vn 0.6407 0.3294 -0.6935
vn -0.759 0.5599 -0.3325
vn -0.6893 0.4892 -0.5344
vn 0.638 0.3425 -0.6896
vn 0.9116 0.1045 -0.3976
vn -0.6955 0.7031 0.1481
vn -0.5345 0.7838 -0.3162
vn 0.8994 0.3486 -0.2637
vn 0.9598 0.274 -0.0603
vn -0.8731 0.3583 0.3306
vn -0.8289 0.3843 0.4065
vn -0.6204 0.5226 0.5848
vn -0.8269 0.4933 0.27
vn -0.6588 0.3756 0.6519
vn 0.1516 -0.2703 0.9508
vn 0.1139 -0.3005 0.947
vn 0.1531 -0.2617 0.9529
vn 0.217 0.2475 0.9443
vn 0.1643 0.2938 0.9416
vn -0.0621 0.2475 -0.9669
vn -0.0621 0.2474 -0.9669
vn -0.183 -0.3062 -0.9342
vn -0.1417 -0.3429 -0.9286
vn 0.0056 0.495 -0.8689
vn -0.0 0.2572 0.9664
vn -0.0 -0.0 -1.0
vn -0.3133 -0.2442 -0.9177
vn -0.6022 -0.2695 0.7515
vn -0.0 -0.7253 0.6884
vn -0.0 0.4815 -0.8764
vn -0.3736 0.6748 -0.6364
vn -0.0 -0.8889 0.4581
vn -0.3078 0.9037 -0.2977
vn -0.1775 -0.896 0.407
vn -0.0781 0.9715 -0.2238
vn 0.5288 0.7784 -0.3382
vn 0.2669 0.6204 -0.7375
vn 0.5972 0.3886 -0.7016
vn 0.3402 -0.0 -0.9403
vn -0.0 -0.0 1.0
vn 0.3166 -0.2329 0.9195
vn -0.0 -0.5636 0.826
vn 0.1353 -0.9155 0.3789
vn 0.0805 0.9717 -0.2219
vn -0.8692 -0.1774 0.4615
vn 0.2906 0.2536 0.9226
vn -0.8893 0.1818 0.4197
vn 0.1212 0.5573 0.8214
vn -0.7372 -0.129 -0.6633
vn -0.8128 -0.2133 -0.5421
vn -0.8359 -0.172 -0.5212
vn -0.5293 -0.2014 -0.8242
vn 0.8532 0.1028 -0.5113
vn -0.6053 -0.1126 -0.788
vn -0.4007 -0.0288 -0.9158
vn 0.7501 -0.4385 -0.4951
vn 0.355 -0.6246 -0.6956
vn 0.2162 0.6415 0.736
vn 0.5108 0.7563 0.4087
vn -0.9281 0.2494 0.2766
vn 0.445 0.6487 0.6175
vn 0.2925 0.5737 0.765
vn -0.9219 0.2779 0.27
vn -0.9949 0.0053 -0.1003
vn 0.6109 0.7759 0.1574
vn 0.2372 0.845 0.4792
vn -0.9417 0.247 -0.2284
vn -0.8881 0.1628 -0.4299
vn 0.8418 0.5262 0.1202
vn 0.7753 0.5811 -0.2475
vn 0.8038 0.5808 0.129
vn 0.8549 0.4383 -0.2773
vn 0.357 -0.3011 -0.8843
vn 0.3316 -0.3867 -0.8605
vn 0.3687 -0.4163 -0.8311
vn 0.1566 0.2899 -0.9442
vn 0.126 0.2924 -0.9479
vn -0.5243 0.3424 0.7797
vn -0.4349 0.2424 0.8673
vn -0.4743 0.5049 0.7212
vn -0.8432 -0.446 -0.3001
vn -0.9573 -0.2889 0.0097
vn -0.4797 0.2179 0.8499
vn 0.6444 0.1242 0.7545
vn -0.9089 -0.3559 -0.2173
vn -0.2779 0.4441 0.8518
vn -0.9686 0.2044 -0.1412
vn -0.2541 0.3415 0.9049
vn 0.7893 -0.5012 0.3547
vn 0.6107 -0.5571 0.5628
vn 0.9862 -0.163 -0.0293
vn 0.9285 -0.2854 -0.2376
vn 0.5977 -0.3374 -0.7273
vn 0.4073 -0.2506 -0.8782
vn -0.0372 -0.6554 -0.7543
vn -0.0284 -0.6534 -0.7565
vn 0.57 -0.3619 0.7377
vn 0.7285 -0.2056 0.6535
vn 0.9192 -0.388 -0.0669
vn 0.9308 -0.1006 0.3513
vn 0.9272 -0.2276 -0.2975
vn 0.6454 -0.2817 -0.71
vn 0.4495 -0.4782 -0.7545
vn 0.034 -0.2727 -0.9615
vn -0.1879 -0.3876 -0.9025
vn -0.1602 -0.3533 -0.9217
vn 0.6023 0.2447 0.7598
vn 0.5662 0.2543 0.784
vn 0.8204 0.3989 0.4096
vn 0.3516 0.9327 -0.081
vn 0.0925 0.8829 -0.4603
vn -0.1209 0.2183 -0.9684
vn -0.3594 0.1078 -0.9269
vn -0.4273 0.1239 -0.8956
vn 0.4567 0.4148 0.787
vn 0.3717 0.3426 0.8628
vn 0.8076 0.4716 0.3542
vn 0.7702 0.5852 -0.2535
vn 0.7321 0.6811 0.005
vn 0.4486 0.5235 -0.7244
vn 0.1849 0.5761 -0.7962
vn -0.0834 0.3006 -0.9501
vn -0.473 0.2446 -0.8464
vn -0.5525 0.1921 -0.8111
vn 0.3139 0.4 0.8611
vn 0.4834 0.5862 0.6502
vn 0.8744 0.4841 -0.0342
vn 0.4606 -0.0771 -0.8843
vn -0.5979 0.2671 -0.7557
vn -0.7499 0.1111 -0.6521
vn 0.3557 0.6745 0.647
vn 0.7213 0.6181 0.3126
vn 0.9047 0.4221 0.0578
vn 0.5047 -0.0194 -0.8631
vn -0.3254 -0.4536 -0.8297
vn 0.3146 -0.0637 -0.9471
vn 0.9025 -0.423 -0.0808
vn 0.6435 -0.5171 -0.5644
vn 0.1502 0.1465 -0.9777
vn 0.4346 0.5465 -0.7159
vn 0.9383 0.2977 0.1759
vn 0.7544 0.6079 -0.2477
vn 0.0539 -0.8369 0.5447
vn 0.1215 -0.3146 0.9414
vn -0.0124 -0.1075 0.9941
vn 0.0581 -0.1008 0.9932
vn -0.2303 0.138 0.9633
vn -0.2347 0.1339 0.9628
vn -0.9978 -0.0497 -0.044
vn -0.9961 -0.0281 -0.0835
vn -0.0433 0.3013 0.9525
vn -0.2328 0.1408 0.9623
vn -0.9932 0.1082 -0.043
vn -0.9516 0.0846 -0.2955
vn 0.0069 0.679 0.7341
vn -0.2003 0.6076 0.7685
vn -0.9223 -0.2123 -0.3229
vn -0.8179 -0.255 -0.5157
vn 0.4708 0.5662 0.6766
vn 0.0238 0.6438 0.7649
vn -0.6661 0.3705 -0.6473
vn -0.5287 0.3223 -0.7852
vn 0.9761 -0.0484 -0.2121
vn 0.5539 -0.1161 -0.8244
vn 0.989 0.0608 -0.1347
vn 0.9888 0.0616 -0.136
vn 0.4836 -0.0361 -0.8745
vn 0.4846 -0.0352 -0.874
vn 0.8821 0.471 -0.009
vn 0.8838 0.4678 0.0009
vn 0.2788 0.3552 -0.8923
vn 0.2706 0.3501 -0.8967
vn 0.8932 0.4495 -0.0082
vn 0.8937 0.4486 -0.0119
vn 0.2847 0.3327 -0.899
vn 0.2884 0.3324 -0.898
vn 0.874 0.4848 -0.0325
vn 0.9122 0.304 -0.2748
vn 0.204 -0.0349 -0.9783
vn 0.44 -0.1258 -0.8891
vn 0.9615 0.1857 -0.2026
vn 0.6894 -0.4262 -0.5858
vn 0.8246 -0.0678 0.5616
vn 0.4805 -0.0223 -0.8767
vn -0.5213 0.7587 0.3907
usemtl Elf_bush_Map
f 19//1 21//1 18//1
f 18//2 22//2 20//2
f 21//3 23//3 18//3
f 18//4 23//4 22//4
f 4//5 8//5 3//5
f 3//6 8//6 7//6
f 8//7 12//7 7//7
f 7//8 12//8 11//8
f 9//9 24//9 13//9
f 12//10 14//10 11//10
f 11//11 14//11 24//11
f 13//12 24//12 15//12
f 24//13 14//13 15//13
f 5//14 16//14 1//14
f 4//15 17//15 8//15
f 9//16 19//16 5//16
f 5//17 19//17 16//17
f 17//18 20//18 8//18
f 8//19 20//19 12//19
f 13//20 21//20 9//20
f 9//21 21//21 19//21
f 12//22 20//22 14//22
f 14//23 20//23 22//23
f 15//24 23//24 13//24
f 13//25 23//25 21//25
f 22//26 23//26 14//26
f 14//27 23//27 15//27
f 6//28 5//28 2//28
f 10//29 9//29 6//29
f 6//30 9//30 5//30
f 10//31 24//31 9//31
f 10//32 11//32 24//32
f 6//33 7//33 10//33
f 10//34 7//34 11//34
f 6//35 2//35 7//35
f 7//36 2//36 3//36
f 16//37 19//37 17//37
f 17//37 19//37 20//37
f 16//38 17//38 1//38
f 1//39 17//39 4//39
f 18//40 20//40 19//40
f 26//41 31//41 25//41
f 25//42 31//42 30//42
f 26//43 27//43 31//43
f 31//43 27//43 32//43
f 27//44 28//44 32//44
f 32//45 28//45 33//45
f 28//46 29//46 33//46
f 33//47 29//47 34//47
f 25//48 30//48 29//48
f 29//49 30//49 34//49
f 31//50 36//50 30//50
f 30//50 36//50 35//50
f 31//51 32//51 36//51
f 36//51 32//51 37//51
f 32//52 33//52 37//52
f 37//52 33//52 38//52
f 33//53 34//53 38//53
f 38//53 34//53 39//53
f 30//54 35//54 34//54
f 34//54 35//54 39//54
f 35//55 36//55 40//55
f 40//55 36//55 41//55
f 36//56 37//56 41//56
f 41//56 37//56 42//56
f 37//57 38//57 42//57
f 42//57 38//57 43//57
f 38//58 39//58 43//58
f 43//58 39//58 44//58
f 39//59 35//59 44//59
f 44//59 35//59 40//59
f 40//60 41//60 53//60
f 53//60 41//60 52//60
f 41//61 42//61 52//61
f 52//61 42//61 51//61
f 43//62 50//62 42//62
f 42//62 50//62 51//62
f 44//63 54//63 43//63
f 43//63 54//63 50//63
f 44//64 40//64 54//64
f 54//64 40//64 53//64
f 51//65 50//65 47//65
f 47//66 50//66 48//66
f 52//67 51//67 46//67
f 46//68 51//68 47//68
f 52//69 46//69 53//69
f 53//70 46//70 45//70
f 53//71 45//71 54//71
f 54//71 45//71 49//71
f 54//72 49//72 50//72
f 50//73 49//73 48//73
f 45//74 46//74 55//74
f 46//75 47//75 55//75
f 47//76 48//76 55//76
f 48//77 49//77 55//77
f 49//78 45//78 55//78
f 101//79 107//79 103//79
f 103//80 107//80 105//80
f 107//81 108//81 105//81
f 101//82 109//82 107//82
f 107//83 110//83 108//83
f 109//84 111//84 107//84
f 107//85 111//85 110//85
f 57//86 112//86 56//86
f 56//87 112//87 61//87
f 57//88 63//88 62//88
f 57//89 58//89 63//89
f 63//90 58//90 64//90
f 59//91 65//91 58//91
f 58//92 65//92 64//92
f 59//93 66//93 65//93
f 59//94 60//94 113//94
f 113//95 60//95 67//95
f 112//96 114//96 61//96
f 61//97 114//97 68//97
f 62//98 63//98 69//98
f 64//99 70//99 63//99
f 63//100 70//100 69//100
f 64//101 65//101 70//101
f 70//102 65//102 71//102
f 65//103 66//103 71//103
f 113//104 67//104 115//104
f 115//105 67//105 72//105
f 69//106 70//106 93//106
f 93//107 70//107 92//107
f 71//108 91//108 70//108
f 70//109 91//109 92//109
f 73//110 116//110 78//110
f 78//111 116//111 117//111
f 74//112 75//112 79//112
f 75//113 80//113 79//113
f 75//114 81//114 80//114
f 75//115 76//115 81//115
f 77//116 82//116 118//116
f 118//117 82//117 119//117
f 78//118 117//118 83//118
f 83//119 117//119 120//119
f 79//120 80//120 84//120
f 80//121 81//121 85//121
f 82//122 86//122 119//122
f 119//123 86//123 121//123
f 83//124 120//124 87//124
f 87//125 120//125 122//125
f 84//126 80//126 88//126
f 80//127 85//127 88//127
f 86//128 89//128 121//128
f 121//129 89//129 122//129
f 87//130 122//130 90//130
f 122//131 89//131 90//131
f 72//132 77//132 115//132
f 115//133 77//133 118//133
f 71//134 76//134 91//134
f 91//135 76//135 75//135
f 92//136 91//136 75//136
f 93//137 92//137 75//137
f 69//138 93//138 74//138
f 74//139 93//139 75//139
f 68//140 114//140 73//140
f 73//141 114//141 116//141
f 61//142 95//142 56//142
f 56//143 95//143 94//143
f 96//144 97//144 60//144
f 60//145 97//145 67//145
f 68//146 98//146 61//146
f 61//147 98//147 95//147
f 97//148 99//148 67//148
f 67//149 99//149 72//149
f 102//150 100//150 78//150
f 78//151 100//151 73//151
f 77//152 104//152 82//152
f 82//153 104//153 106//153
f 83//154 101//154 78//154
f 78//155 101//155 102//155
f 106//156 108//156 82//156
f 82//157 108//157 86//157
f 87//158 109//158 83//158
f 83//159 109//159 101//159
f 86//160 108//160 89//160
f 89//161 108//161 110//161
f 90//162 111//162 87//162
f 87//163 111//163 109//163
f 110//164 111//164 89//164
f 89//165 111//165 90//165
f 72//166 99//166 77//166
f 77//167 99//167 104//167
f 100//168 98//168 73//168
f 73//169 98//169 68//169
f 57//170 62//170 112//170
f 66//171 59//171 113//171
f 62//172 69//172 112//172
f 112//173 69//173 114//173
f 66//174 113//174 71//174
f 71//175 113//175 115//175
f 74//176 79//176 116//176
f 116//177 79//177 117//177
f 76//178 118//178 81//178
f 81//179 118//179 119//179
f 84//180 120//180 79//180
f 79//181 120//181 117//181
f 85//182 81//182 121//182
f 121//183 81//183 119//183
f 84//184 88//184 120//184
f 120//185 88//185 122//185
f 85//186 121//186 88//186
f 88//187 121//187 122//187
f 76//188 71//188 118//188
f 118//189 71//189 115//189
f 74//190 116//190 69//190
f 69//191 116//191 114//191
f 141//192 143//192 140//192
f 140//193 144//193 142//193
f 143//194 145//194 140//194
f 140//195 145//195 144//195
f 125//196 130//196 129//196
f 130//197 134//197 129//197
f 129//198 134//198 133//198
f 131//199 146//199 135//199
f 134//200 136//200 133//200
f 133//201 136//201 146//201
f 135//202 146//202 137//202
f 146//203 136//203 137//203
f 127//204 138//204 123//204
f 126//205 139//205 130//205
f 141//206 138//206 131//206
f 131//207 138//207 127//207
f 130//208 139//208 134//208
f 134//209 139//209 142//209
f 135//210 143//210 131//210
f 131//211 143//211 141//211
f 134//212 142//212 136//212
f 136//213 142//213 144//213
f 137//214 145//214 135//214
f 135//215 145//215 143//215
f 144//216 145//216 136//216
f 136//217 145//217 137//217
f 128//218 127//218 124//218
f 124//219 127//219 123//219
f 132//220 131//220 128//220
f 128//221 131//221 127//221
f 132//222 146//222 131//222
f 132//223 133//223 146//223
f 128//224 129//224 132//224
f 132//225 129//225 133//225
f 138//226 141//226 139//226
f 139//227 141//227 142//227
f 138//228 139//228 123//228
f 140//229 142//229 141//229
f 187//230 189//230 186//230
f 188//231 194//231 193//231
f 188//232 193//232 190//232
f 190//233 193//233 191//233
f 193//234 195//234 191//234
f 194//235 196//235 193//235
f 193//236 197//236 195//236
f 196//237 198//237 193//237
f 193//238 198//238 197//238
f 148//239 199//239 147//239
f 147//240 199//240 152//240
f 149//241 154//241 148//241
f 148//242 154//242 153//242
f 150//243 155//243 149//243
f 149//244 155//244 154//244
f 150//245 151//245 200//245
f 200//246 151//246 156//246
f 152//247 199//247 157//247
f 157//248 199//248 201//248
f 153//249 154//249 158//249
f 158//250 154//250 159//250
f 155//251 160//251 154//251
f 154//252 160//252 159//252
f 156//253 161//253 200//253
f 200//254 161//254 202//254
f 201//255 203//255 157//255
f 157//256 203//256 162//256
f 158//257 164//257 163//257
f 158//258 159//258 164//258
f 164//259 159//259 182//259
f 160//260 166//260 159//260
f 159//261 166//261 182//261
f 160//262 167//262 166//262
f 202//263 161//263 204//263
f 204//264 161//264 168//264
f 162//265 203//265 169//265
f 169//266 203//266 205//266
f 163//267 164//267 170//267
f 164//268 165//268 170//268
f 170//269 165//269 171//269
f 166//270 172//270 165//270
f 165//271 172//271 171//271
f 166//272 167//272 172//272
f 168//273 173//273 204//273
f 204//274 173//274 206//274
f 169//275 205//275 174//275
f 174//276 205//276 207//276
f 170//277 171//277 175//277
f 171//278 172//278 176//278
f 173//279 177//279 206//279
f 206//280 177//280 208//280
f 174//281 207//281 178//281
f 178//282 207//282 209//282
f 175//283 171//283 179//283
f 171//284 176//284 179//284
f 177//285 180//285 208//285
f 208//286 180//286 209//286
f 178//287 209//287 181//287
f 209//288 180//288 181//288
f 182//289 166//289 165//289
f 164//290 182//290 165//290
f 184//291 183//291 152//291
f 152//292 183//292 147//292
f 157//293 185//293 152//293
f 152//294 185//294 184//294
f 187//295 185//295 162//295
f 162//296 185//296 157//296
f 169//297 189//297 162//297
f 162//298 189//298 187//298
f 168//299 192//299 173//299
f 174//300 194//300 169//300
f 169//301 194//301 189//301
f 173//302 192//302 177//302
f 177//303 192//303 195//303
f 178//304 196//304 174//304
f 174//305 196//305 194//305
f 195//306 197//306 177//306
f 177//307 197//307 180//307
f 181//308 198//308 178//308
f 178//309 198//309 196//309
f 197//310 198//310 180//310
f 180//311 198//311 181//311
f 148//312 153//312 199//312
f 155//313 150//313 200//313
f 158//314 201//314 153//314
f 153//315 201//315 199//315
f 160//316 155//316 202//316
f 202//317 155//317 200//317
f 163//318 203//318 158//318
f 158//319 203//319 201//319
f 167//320 160//320 204//320
f 204//321 160//321 202//321
f 163//322 170//322 203//322
f 203//323 170//323 205//323
f 167//324 204//324 172//324
f 172//325 204//325 206//325
f 170//326 175//326 205//326
f 205//327 175//327 207//327
f 172//328 206//328 176//328
f 176//329 206//329 208//329
f 175//330 179//330 207//330
f 207//331 179//331 209//331
f 209//332 179//332 208//332
f 179//333 176//333 208//333
f 228//334 230//334 227//334
f 227//335 231//335 229//335
f 230//336 232//336 227//336
f 227//337 232//337 231//337
f 213//338 217//338 212//338
f 212//339 217//339 216//339
f 217//340 221//340 216//340
f 216//341 221//341 220//341
f 218//342 233//342 222//342
f 221//343 223//343 220//343
f 220//344 223//344 233//344
f 222//345 233//345 224//345
f 233//346 223//346 224//346
f 214//347 225//347 210//347
f 213//348 226//348 217//348
f 218//349 228//349 214//349
f 214//350 228//350 225//350
f 226//351 229//351 217//351
f 217//352 229//352 221//352
f 222//353 230//353 218//353
f 218//354 230//354 228//354
f 221//355 229//355 223//355
f 223//356 229//356 231//356
f 224//357 232//357 222//357
f 222//358 232//358 230//358
f 231//359 232//359 223//359
f 223//360 232//360 224//360
f 215//361 214//361 211//361
f 211//362 214//362 210//362
f 219//363 218//363 215//363
f 215//364 218//364 214//364
f 219//365 233//365 218//365
f 219//366 220//366 233//366
f 215//367 216//367 219//367
f 219//368 216//368 220//368
f 215//369 211//369 216//369
f 216//370 211//370 212//370
f 225//371 228//371 226//371
f 226//372 228//372 229//372
f 225//373 226//373 210//373
f 210//374 226//374 213//374
f 227//375 229//375 228//375
f 234//376 235//376 239//376
f 239//377 235//377 240//377
f 235//378 236//378 240//378
f 240//378 236//378 241//378
f 237//379 242//379 236//379
f 236//380 242//380 241//380
f 238//381 243//381 237//381
f 237//382 243//382 242//382
f 238//383 234//383 243//383
f 243//384 234//384 239//384
f 240//385 245//385 239//385
f 239//385 245//385 244//385
f 240//386 241//386 245//386
f 245//386 241//386 246//386
f 241//387 242//387 246//387
f 246//387 242//387 247//387
f 242//388 243//388 247//388
f 247//388 243//388 248//388
f 239//389 244//389 243//389
f 243//389 244//389 248//389
f 244//390 245//390 249//390
f 249//390 245//390 250//390
f 245//391 246//391 250//391
f 250//391 246//391 251//391
f 246//392 247//392 251//392
f 251//392 247//392 252//392
f 247//393 248//393 252//393
f 252//393 248//393 253//393
f 248//394 244//394 253//394
f 253//394 244//394 249//394
f 249//395 250//395 262//395
f 262//395 250//395 261//395
f 250//396 251//396 261//396
f 261//396 251//396 260//396
f 252//397 259//397 251//397
f 251//397 259//397 260//397
f 253//398 263//398 252//398
f 252//398 263//398 259//398
f 253//399 249//399 263//399
f 263//399 249//399 262//399
f 260//400 259//400 256//400
f 256//401 259//401 257//401
f 261//402 260//402 255//402
f 255//403 260//403 256//403
f 261//404 255//404 262//404
f 262//405 255//405 254//405
f 262//406 254//406 263//406
f 263//406 254//406 258//406
f 263//407 258//407 259//407
f 259//408 258//408 257//408
f 254//409 255//409 264//409
f 255//410 256//410 264//410
f 256//411 257//411 264//411
f 257//412 258//412 264//412
f 283//413 285//413 282//413
f 282//414 286//414 284//414
f 285//415 287//415 282//415
f 282//416 287//416 286//416
f 267//417 272//417 271//417
f 272//418 276//418 271//418
f 271//419 276//419 275//419
f 273//420 288//420 277//420
f 276//421 278//421 275//421
f 275//422 278//422 288//422
f 277//423 288//423 279//423
f 288//424 278//424 279//424
f 269//425 280//425 265//425
f 268//426 281//426 272//426
f 283//427 280//427 273//427
f 273//428 280//428 269//428
f 272//429 281//429 276//429
f 276//430 281//430 284//430
f 277//431 285//431 273//431
f 273//432 285//432 283//432
f 276//433 284//433 278//433
f 278//434 284//434 286//434
f 279//435 287//435 277//435
f 277//436 287//436 285//436
f 286//437 287//437 278//437
f 278//438 287//438 279//438
f 270//439 269//439 266//439
f 266//440 269//440 265//440
f 274//441 273//441 270//441
f 270//442 273//442 269//442
f 274//443 288//443 273//443
f 274//444 275//444 288//444
f 270//445 271//445 274//445
f 274//446 271//446 275//446
f 280//447 283//447 281//447
f 281//448 283//448 284//448
f 280//449 281//449 265//449
f 282//450 284//450 283//450
f 306//451 308//451 305//451
f 305//452 309//452 307//452
f 308//453 310//453 305//453
f 305//454 310//454 309//454
f 291//455 295//455 290//455
f 290//456 295//456 294//456
f 295//457 299//457 294//457
f 294//458 299//458 298//458
f 296//459 311//459 300//459
f 299//460 301//460 298//460
f 298//461 301//461 311//461
f 300//462 311//462 302//462
f 311//463 301//463 302//463
f 296//464 306//464 292//464
f 292//465 306//465 303//465
f 304//466 307//466 295//466
f 295//467 307//467 299//467
f 300//468 308//468 296//468
f 296//469 308//469 306//469
f 299//470 307//470 301//470
f 301//471 307//471 309//471
f 302//472 310//472 300//472
f 300//473 310//473 308//473
f 309//474 310//474 301//474
f 301//475 310//475 302//475
f 297//476 296//476 293//476
f 293//477 296//477 292//477
f 297//478 311//478 296//478
f 297//479 298//479 311//479
f 293//480 294//480 297//480
f 297//481 294//481 298//481
f 289//482 290//482 293//482
f 293//483 290//483 294//483
f 303//484 306//484 304//484
f 304//485 306//485 307//485
f 305//486 307//486 306//486
f 356//487 361//487 357//487
f 358//488 363//488 362//488
f 358//489 362//489 360//489
f 360//490 362//490 361//490
f 362//491 364//491 361//491
f 363//492 365//492 362//492
f 362//493 366//493 364//493
f 365//494 367//494 362//494
f 362//495 367//495 366//495
f 313//496 368//496 312//496
f 312//497 368//497 317//497
f 314//498 319//498 313//498
f 313//499 319//499 318//499
f 314//500 315//500 319//500
f 319//501 315//501 320//501
f 315//502 316//502 369//502
f 369//503 316//503 321//503
f 368//504 370//504 317//504
f 317//505 370//505 322//505
f 318//506 324//506 323//506
f 318//507 319//507 324//507
f 324//508 319//508 325//508
f 320//509 326//509 319//509
f 319//510 326//510 325//510
f 320//511 327//511 326//511
f 369//512 321//512 371//512
f 371//513 321//513 328//513
f 370//514 372//514 322//514
f 322//515 372//515 329//515
f 323//516 324//516 330//516
f 325//517 349//517 324//517
f 324//518 349//518 330//518
f 325//519 326//519 349//519
f 349//520 326//520 334//520
f 326//521 327//521 334//521
f 371//522 328//522 373//522
f 373//523 328//523 335//523
f 329//524 372//524 336//524
f 336//525 372//525 374//525
f 330//526 331//526 337//526
f 332//527 338//527 331//527
f 331//528 338//528 337//528
f 332//529 333//529 338//529
f 338//530 333//530 339//530
f 333//531 334//531 339//531
f 335//532 340//532 373//532
f 373//533 340//533 375//533
f 336//534 374//534 341//534
f 341//535 374//535 376//535
f 337//536 338//536 342//536
f 338//537 339//537 343//537
f 340//538 344//538 375//538
f 375//539 344//539 377//539
f 341//540 376//540 345//540
f 345//541 376//541 378//541
f 342//542 338//542 346//542
f 338//543 343//543 346//543
f 344//544 347//544 377//544
f 377//545 347//545 378//545
f 345//546 378//546 348//546
f 378//547 347//547 348//547
f 334//548 333//548 349//548
f 349//549 333//549 332//549
f 330//550 349//550 331//550
f 331//551 349//551 332//551
f 317//552 351//552 312//552
f 312//553 351//553 350//553
f 352//554 353//554 316//554
f 316//555 353//555 321//555
f 322//556 354//556 317//556
f 317//557 354//557 351//557
f 353//558 355//558 321//558
f 321//559 355//559 328//559
f 330//560 354//560 329//560
f 329//561 354//561 322//561
f 328//562 355//562 335//562
f 335//563 355//563 357//563
f 336//564 359//564 329//564
f 359//565 330//565 329//565
f 335//566 357//566 340//566
f 340//567 357//567 361//567
f 341//568 363//568 336//568
f 336//569 363//569 359//569
f 361//570 364//570 340//570
f 340//571 364//571 344//571
f 345//572 365//572 341//572
f 341//573 365//573 363//573
f 344//574 364//574 347//574
f 347//575 364//575 366//575
f 348//576 367//576 345//576
f 345//577 367//577 365//577
f 366//578 367//578 347//578
f 347//579 367//579 348//579
f 313//580 318//580 368//580
f 320//581 315//581 369//581
f 318//582 323//582 368//582
f 368//583 323//583 370//583
f 320//584 369//584 327//584
f 327//585 369//585 371//585
f 330//586 372//586 323//586
f 323//587 372//587 370//587
f 334//588 327//588 373//588
f 373//589 327//589 371//589
f 330//590 337//590 372//590
f 372//591 337//591 374//591
f 334//592 373//592 339//592
f 339//593 373//593 375//593
f 342//594 376//594 337//594
f 337//595 376//595 374//595
f 343//596 339//596 377//596
f 377//597 339//597 375//597
f 342//598 346//598 376//598
f 376//599 346//599 378//599
f 343//600 377//600 346//600
f 346//601 377//601 378//601
f 422//602 427//602 421//602
f 421//603 427//603 426//603
f 421//604 426//604 423//604
f 423//605 426//605 424//605
f 426//606 428//606 424//606
f 427//607 429//607 426//607
f 426//608 430//608 428//608
f 429//609 431//609 426//609
f 426//610 431//610 430//610
f 380//611 432//611 379//611
f 379//612 432//612 384//612
f 380//613 386//613 385//613
f 380//614 381//614 386//614
f 386//615 381//615 387//615
f 382//616 388//616 381//616
f 381//617 388//617 387//617
f 382//618 389//618 388//618
f 382//619 383//619 433//619
f 433//620 383//620 390//620
f 384//621 432//621 391//621
f 391//622 432//622 434//622
f 385//623 386//623 392//623
f 392//624 386//624 393//624
f 387//625 394//625 386//625
f 386//626 394//626 393//626
f 387//627 388//627 394//627
f 394//628 388//628 395//628
f 389//629 396//629 388//629
f 388//630 396//630 395//630
f 390//631 397//631 433//631
f 433//632 397//632 435//632
f 393//633 394//633 416//633
f 394//634 395//634 416//634
f 395//635 396//635 401//635
f 435//636 397//636 436//636
f 436//637 397//637 402//637
f 398//638 437//638 403//638
f 403//639 437//639 438//639
f 399//640 393//640 404//640
f 393//641 400//641 404//641
f 404//642 400//642 405//642
f 395//643 406//643 400//643
f 400//644 406//644 405//644
f 395//645 401//645 406//645
f 402//646 407//646 436//646
f 436//647 407//647 439//647
f 403//648 438//648 408//648
f 408//649 438//649 440//649
f 404//650 405//650 409//650
f 405//651 406//651 410//651
f 407//652 411//652 439//652
f 439//653 411//653 441//653
f 408//654 440//654 412//654
f 412//655 440//655 442//655
f 409//656 405//656 413//656
f 405//657 410//657 413//657
f 411//658 414//658 441//658
f 441//659 414//659 442//659
f 412//660 442//660 415//660
f 442//661 414//661 415//661
f 416//662 395//662 400//662
f 393//663 416//663 400//663
f 392//664 393//664 399//664
f 391//665 434//665 398//665
f 398//666 434//666 437//666
f 418//667 417//667 384//667
f 384//668 417//668 379//668
f 391//669 419//669 384//669
f 384//670 419//670 418//670
f 403//671 422//671 398//671
f 398//672 422//672 420//672
f 402//673 425//673 407//673
f 408//674 427//674 403//674
f 403//675 427//675 422//675
f 407//676 425//676 411//676
f 411//677 425//677 428//677
f 412//678 429//678 408//678
f 408//679 429//679 427//679
f 428//680 430//680 411//680
f 411//681 430//681 414//681
f 415//682 431//682 412//682
f 412//683 431//683 429//683
f 430//684 431//684 414//684
f 414//685 431//685 415//685
f 398//686 420//686 391//686
f 391//687 420//687 419//687
f 380//688 385//688 432//688
f 389//689 382//689 433//689
f 392//690 434//690 385//690
f 385//691 434//691 432//691
f 396//692 389//692 435//692
f 435//693 389//693 433//693
f 401//694 396//694 436//694
f 436//695 396//695 435//695
f 399//696 404//696 437//696
f 437//697 404//697 438//697
f 401//698 436//698 406//698
f 406//699 436//699 439//699
f 404//700 409//700 438//700
f 438//701 409//701 440//701
f 406//702 439//702 410//702
f 410//703 439//703 441//703
f 409//704 413//704 440//704
f 440//705 413//705 442//705
f 442//706 413//706 441//706
f 413//707 410//707 441//707
f 399//708 437//708 392//708
f 392//709 437//709 434//709
f 443//710 455//710 445//710
f 453//711 454//711 445//711
f 445//712 454//712 443//712
f 455//713 456//713 445//713
f 445//714 456//714 447//714
f 453//715 445//715 447//715
f 447//716 456//716 449//716
f 449//716 456//716 457//716
f 453//717 447//717 452//717
f 452//718 447//718 449//718
f 449//719 457//719 451//719
f 451//720 452//720 449//720
f 453//721 452//721 448//721
f 448//722 452//722 450//722
f 446//723 453//723 448//723
f 453//724 446//724 454//724
f 454//725 446//725 444//725
f 455//726 444//726 446//726
f 455//727 446//727 456//727
f 456//728 446//728 448//728
f 456//716 448//716 457//716
f 457//716 448//716 450//716
f 451//719 457//719 450//719
f 450//729 452//729 451//729
f 458//730 469//730 460//730
f 460//731 467//731 458//731
f 458//732 467//732 468//732
f 469//733 470//733 460//733
f 460//734 470//734 462//734
f 467//735 460//735 462//735
f 462//736 470//736 464//736
f 467//737 462//737 464//737
f 464//738 470//738 466//738
f 466//739 467//739 464//739
f 463//740 467//740 465//740
f 461//741 467//741 463//741
f 467//742 461//742 468//742
f 468//743 461//743 459//743
f 469//744 459//744 461//744
f 469//745 461//745 470//745
f 470//746 461//746 463//746
f 470//736 463//736 465//736
f 466//747 470//747 465//747
f 465//748 467//748 466//748
f 471//749 483//749 473//749
f 473//750 481//750 471//750
f 471//751 481//751 482//751
f 473//752 483//752 475//752
f 481//753 473//753 480//753
f 480//754 473//754 475//754
f 483//755 484//755 475//755
f 475//756 484//756 477//756
f 480//757 475//757 477//757
f 477//758 484//758 479//758
f 479//759 480//759 477//759
f 476//760 480//760 478//760
f 481//761 480//761 474//761
f 474//762 480//762 476//762
f 482//763 481//763 472//763
f 472//764 481//764 474//764
f 483//765 472//765 474//765
f 483//766 474//766 476//766
f 483//767 476//767 484//767
f 484//756 476//756 478//756
f 479//758 484//758 478//758
f 478//768 480//768 479//768
f 501//769 503//769 500//769
f 500//770 504//770 502//770
f 503//771 505//771 500//771
f 500//772 505//772 504//772
f 487//773 491//773 490//773
f 491//774 495//774 490//774
f 490//775 495//775 494//775
f 492//776 506//776 496//776
f 495//777 497//777 494//777
f 494//778 497//778 506//778
f 506//779 497//779 498//779
f 492//780 501//780 488//780
f 488//781 501//781 499//781
f 491//782 502//782 495//782
f 496//783 503//783 492//783
f 492//784 503//784 501//784
f 495//785 502//785 497//785
f 497//786 502//786 504//786
f 498//787 505//787 496//787
f 496//788 505//788 503//788
f 504//789 505//789 497//789
f 497//790 505//790 498//790
f 486//791 489//791 485//791
f 485//792 489//792 488//792
f 493//793 492//793 489//793
f 489//794 492//794 488//794
f 493//795 506//795 492//795
f 493//796 494//796 506//796
f 489//797 490//797 493//797
f 493//798 490//798 494//798
f 486//799 487//799 489//799
f 489//800 487//800 490//800
f 499//801 501//801 491//801
f 491//802 501//802 502//802
f 500//803 502//803 501//803
f 525//804 527//804 524//804
f 524//805 528//805 526//805
f 527//806 529//806 524//806
f 524//807 529//807 528//807
f 509//808 514//808 513//808
f 514//809 518//809 513//809
f 513//810 518//810 517//810
f 515//811 530//811 519//811
f 518//812 520//812 517//812
f 517//813 520//813 530//813
f 519//814 530//814 521//814
f 530//815 520//815 521//815
f 511//816 522//816 507//816
f 510//817 523//817 514//817
f 525//818 522//818 515//818
f 515//819 522//819 511//819
f 514//820 523//820 518//820
f 518//821 523//821 526//821
f 519//822 527//822 515//822
f 515//823 527//823 525//823
f 518//824 526//824 520//824
f 520//825 526//825 528//825
f 521//826 529//826 519//826
f 519//827 529//827 527//827
f 528//828 529//828 520//828
f 520//829 529//829 521//829
f 512//830 511//830 508//830
f 508//831 511//831 507//831
f 516//832 515//832 512//832
f 512//833 515//833 511//833
f 516//834 530//834 515//834
f 516//835 517//835 530//835
f 512//836 513//836 516//836
f 516//837 513//837 517//837
f 522//838 525//838 523//838
f 523//839 525//839 526//839
f 524//840 526//840 525//840
f 574//841 579//841 576//841
f 577//842 582//842 578//842
f 579//843 584//843 583//843
f 579//844 583//844 581//844
f 581//845 583//845 582//845
f 583//846 585//846 582//846
f 584//847 586//847 583//847
f 583//848 587//848 585//848
f 586//849 588//849 583//849
f 583//850 588//850 587//850
f 532//851 589//851 531//851
f 531//852 589//852 536//852
f 533//853 538//853 532//853
f 532//854 538//854 537//854
f 533//855 534//855 538//855
f 538//856 534//856 539//856
f 534//857 535//857 590//857
f 590//858 535//858 540//858
f 589//859 591//859 536//859
f 536//860 591//860 541//860
f 537//861 543//861 542//861
f 537//862 538//862 543//862
f 543//863 538//863 544//863
f 539//864 545//864 538//864
f 538//865 545//865 544//865
f 539//866 546//866 545//866
f 590//867 540//867 592//867
f 592//868 540//868 547//868
f 591//869 593//869 541//869
f 541//870 593//870 548//870
f 542//871 543//871 549//871
f 545//872 546//872 553//872
f 592//873 547//873 594//873
f 594//874 547//874 554//874
f 548//875 593//875 555//875
f 555//876 593//876 595//876
f 549//877 550//877 556//877
f 551//878 557//878 550//878
f 550//879 557//879 556//879
f 551//880 552//880 557//880
f 557//881 552//881 558//881
f 552//882 553//882 558//882
f 554//883 559//883 594//883
f 594//884 559//884 596//884
f 555//885 595//885 560//885
f 560//886 595//886 597//886
f 556//887 557//887 561//887
f 557//888 558//888 562//888
f 559//889 563//889 596//889
f 596//890 563//890 598//890
f 560//891 597//891 564//891
f 564//892 597//892 599//892
f 561//893 557//893 565//893
f 557//894 562//894 565//894
f 563//895 566//895 598//895
f 598//896 566//896 599//896
f 564//897 599//897 567//897
f 599//898 566//898 567//898
f 545//899 553//899 552//899
f 545//900 552//900 544//900
f 544//901 552//901 551//901
f 543//902 544//902 550//902
f 550//903 544//903 551//903
f 549//904 543//904 550//904
f 536//905 569//905 531//905
f 531//906 569//906 568//906
f 570//907 571//907 535//907
f 535//908 571//908 540//908
f 541//909 572//909 536//909
f 536//910 572//910 569//910
f 571//911 573//911 540//911
f 540//912 573//912 547//912
f 575//913 572//913 548//913
f 548//914 572//914 541//914
f 547//915 573//915 554//915
f 554//916 573//916 578//916
f 555//917 580//917 548//917
f 548//918 580//918 575//918
f 554//919 578//919 559//919
f 559//920 578//920 582//920
f 560//921 584//921 555//921
f 555//922 584//922 580//922
f 582//923 585//923 559//923
f 559//924 585//924 563//924
f 564//925 586//925 560//925
f 560//926 586//926 584//926
f 563//927 585//927 566//927
f 566//928 585//928 587//928
f 567//929 588//929 564//929
f 564//930 588//930 586//930
f 587//931 588//931 566//931
f 566//932 588//932 567//932
f 532//933 537//933 589//933
f 539//934 534//934 590//934
f 537//935 542//935 589//935
f 589//936 542//936 591//936
f 539//937 590//937 546//937
f 546//938 590//938 592//938
f 549//939 593//939 542//939
f 542//940 593//940 591//940
f 553//941 546//941 594//941
f 594//942 546//942 592//942
f 549//943 556//943 593//943
f 593//944 556//944 595//944
f 553//945 594//945 558//945
f 558//946 594//946 596//946
f 561//947 597//947 556//947
f 556//948 597//948 595//948
f 562//949 558//949 598//949
f 598//950 558//950 596//950
f 561//951 565//951 597//951
f 597//952 565//952 599//952
f 562//953 598//953 565//953
f 565//954 598//954 599//954
f 601//955 606//955 600//955
f 600//956 606//956 605//956
f 601//957 602//957 606//957
f 606//957 602//957 607//957
f 602//958 603//958 607//958
f 607//959 603//959 608//959
f 603//960 604//960 608//960
f 608//961 604//961 609//961
f 600//962 605//962 604//962
f 604//963 605//963 609//963
f 606//964 611//964 605//964
f 605//964 611//964 610//964
f 606//965 607//965 611//965
f 611//965 607//965 612//965
f 607//966 608//966 612//966
f 612//966 608//966 613//966
f 608//967 609//967 613//967
f 613//967 609//967 614//967
f 605//968 610//968 609//968
f 609//968 610//968 614//968
f 610//969 611//969 615//969
f 615//969 611//969 616//969
f 611//970 612//970 616//970
f 616//970 612//970 617//970
f 612//971 613//971 617//971
f 617//971 613//971 618//971
f 613//972 614//972 618//972
f 618//972 614//972 619//972
f 614//973 610//973 619//973
f 619//973 610//973 615//973
f 616//974 627//974 615//974
f 615//974 627//974 628//974
f 616//975 617//975 627//975
f 627//975 617//975 626//975
f 617//976 618//976 626//976
f 626//976 618//976 625//976
f 618//977 619//977 625//977
f 625//977 619//977 629//977
f 615//978 628//978 619//978
f 619//978 628//978 629//978
f 626//979 625//979 622//979
f 622//980 625//980 623//980
f 627//981 626//981 621//981
f 621//982 626//982 622//982
f 627//983 621//983 628//983
f 628//984 621//984 620//984
f 629//985 628//985 624//985
f 624//986 628//986 620//986
f 629//987 624//987 625//987
f 625//988 624//988 623//988
f 620//989 621//989 630//989
f 621//990 622//990 630//990
f 622//991 623//991 630//991
f 623//992 624//992 630//992
f 624//993 620//993 630//993
f 649//994 651//994 648//994
f 648//995 652//995 650//995
f 651//996 653//996 648//996
f 648//997 653//997 652//997
f 634//998 638//998 633//998
f 633//999 638//999 637//999
f 638//1000 642//1000 637//1000
f 637//1001 642//1001 641//1001
f 639//1002 654//1002 643//1002
f 642//1003 644//1003 641//1003
f 641//1004 644//1004 654//1004
f 643//1005 654//1005 645//1005
f 654//1006 644//1006 645//1006
f 635//1007 646//1007 631//1007
f 634//1008 647//1008 638//1008
f 639//1009 649//1009 635//1009
f 635//1010 649//1010 646//1010
f 647//1011 650//1011 638//1011
f 638//1012 650//1012 642//1012
f 643//1013 651//1013 639//1013
f 639//1014 651//1014 649//1014
f 642//1015 650//1015 644//1015
f 644//1016 650//1016 652//1016
f 645//1017 653//1017 643//1017
f 643//1018 653//1018 651//1018
f 652//1019 653//1019 644//1019
f 644//1020 653//1020 645//1020
f 636//1021 635//1021 632//1021
f 632//1022 635//1022 631//1022
f 640//1023 639//1023 636//1023
f 636//1024 639//1024 635//1024
f 640//1025 654//1025 639//1025
f 640//1026 641//1026 654//1026
f 636//1027 637//1027 640//1027
f 640//1028 637//1028 641//1028
f 636//1029 632//1029 637//1029
f 637//1030 632//1030 633//1030
f 646//1031 649//1031 647//1031
f 647//1032 649//1032 650//1032
f 646//1033 647//1033 631//1033
f 631//1034 647//1034 634//1034
f 648//1035 650//1035 649//1035
f 655//1036 667//1036 657//1036
f 665//1037 666//1037 657//1037
f 657//1038 666//1038 655//1038
f 667//1039 668//1039 657//1039
f 657//1040 668//1040 659//1040
f 665//1041 657//1041 664//1041
f 664//1042 657//1042 659//1042
f 659//1043 668//1043 661//1043
f 664//1044 659//1044 661//1044
f 661//1045 668//1045 663//1045
f 663//1046 664//1046 661//1046
f 660//1047 664//1047 662//1047
f 658//1048 665//1048 660//1048
f 660//1049 665//1049 664//1049
f 666//1050 665//1050 656//1050
f 656//1050 665//1050 658//1050
f 667//1051 656//1051 658//1051
f 667//1052 658//1052 668//1052
f 668//1053 658//1053 660//1053
f 668//1043 660//1043 662//1043
f 663//1054 668//1054 662//1054
f 662//1055 664//1055 663//1055
f 685//1056 687//1056 684//1056
f 684//1057 688//1057 686//1057
f 687//1058 689//1058 684//1058
f 684//1059 689//1059 688//1059
f 671//1060 675//1060 670//1060
f 670//1061 675//1061 674//1061
f 675//1062 679//1062 674//1062
f 674//1063 679//1063 678//1063
f 676//1064 690//1064 680//1064
f 679//1065 681//1065 678//1065
f 678//1066 681//1066 690//1066
f 680//1067 690//1067 682//1067
f 690//1068 681//1068 682//1068
f 676//1069 685//1069 672//1069
f 672//1070 685//1070 683//1070
f 675//1071 686//1071 679//1071
f 680//1072 687//1072 676//1072
f 676//1073 687//1073 685//1073
f 679//1074 686//1074 681//1074
f 681//1075 686//1075 688//1075
f 682//1076 689//1076 680//1076
f 680//1077 689//1077 687//1077
f 688//1078 689//1078 681//1078
f 681//1079 689//1079 682//1079
f 673//1080 672//1080 669//1080
f 677//1081 676//1081 673//1081
f 673//1082 676//1082 672//1082
f 677//1083 690//1083 676//1083
f 677//1084 678//1084 690//1084
f 673//1085 674//1085 677//1085
f 677//1086 674//1086 678//1086
f 669//1087 670//1087 673//1087
f 673//1088 670//1088 674//1088
f 683//1089 685//1089 675//1089
f 675//1090 685//1090 686//1090
f 684//1091 686//1091 685//1091
f 732//1092 738//1092 737//1092
f 732//1093 737//1093 734//1093
f 734//1094 737//1094 735//1094
f 737//1095 739//1095 735//1095
f 738//1096 740//1096 737//1096
f 737//1097 741//1097 739//1097
f 740//1098 742//1098 737//1098
f 737//1099 742//1099 741//1099
f 692//1100 743//1100 691//1100
f 691//1101 743//1101 696//1101
f 692//1102 698//1102 697//1102
f 692//1103 693//1103 698//1103
f 693//1104 694//1104 698//1104
f 694//1105 699//1105 698//1105
f 694//1106 695//1106 744//1106
f 744//1107 695//1107 700//1107
f 696//1108 743//1108 701//1108
f 701//1109 743//1109 745//1109
f 698//1110 703//1110 697//1110
f 697//1111 703//1111 702//1111
f 698//1112 704//1112 703//1112
f 698//1113 705//1113 704//1113
f 698//1114 699//1114 705//1114
f 705//1115 699//1115 706//1115
f 700//1116 707//1116 744//1116
f 744//1117 707//1117 746//1117
f 745//1118 747//1118 701//1118
f 701//1119 747//1119 708//1119
f 702//1120 703//1120 709//1120
f 703//1121 704//1121 709//1121
f 704//1122 705//1122 713//1122
f 705//1123 706//1123 713//1123
f 746//1124 707//1124 748//1124
f 748//1125 707//1125 714//1125
f 708//1126 747//1126 715//1126
f 715//1127 747//1127 749//1127
f 709//1128 710//1128 716//1128
f 711//1129 717//1129 710//1129
f 710//1130 717//1130 716//1130
f 711//1131 712//1131 717//1131
f 717//1132 712//1132 718//1132
f 712//1133 713//1133 718//1133
f 714//1134 719//1134 748//1134
f 748//1135 719//1135 750//1135
f 715//1136 749//1136 720//1136
f 720//1137 749//1137 751//1137
f 716//1138 717//1138 721//1138
f 717//1139 718//1139 722//1139
f 719//1140 723//1140 750//1140
f 750//1141 723//1141 752//1141
f 720//1142 751//1142 724//1142
f 724//1143 751//1143 753//1143
f 721//1144 717//1144 725//1144
f 717//1145 722//1145 725//1145
f 723//1146 726//1146 752//1146
f 752//1147 726//1147 753//1147
f 724//1148 753//1148 727//1148
f 753//1149 726//1149 727//1149
f 713//1150 712//1150 704//1150
f 704//1151 712//1151 711//1151
f 709//1152 704//1152 710//1152
f 710//1153 704//1153 711//1153
f 696//1154 728//1154 691//1154
f 701//1155 729//1155 696//1155
f 730//1156 729//1156 708//1156
f 708//1157 729//1157 701//1157
f 715//1158 733//1158 708//1158
f 708//1159 733//1159 730//1159
f 731//1160 736//1160 714//1160
f 714//1161 736//1161 719//1161
f 720//1162 738//1162 715//1162
f 715//1163 738//1163 733//1163
f 719//1164 736//1164 723//1164
f 723//1165 736//1165 739//1165
f 724//1166 740//1166 720//1166
f 720//1167 740//1167 738//1167
f 739//1168 741//1168 723//1168
f 723//1169 741//1169 726//1169
f 727//1170 742//1170 724//1170
f 724//1171 742//1171 740//1171
f 741//1172 742//1172 726//1172
f 726//1173 742//1173 727//1173
f 692//1174 697//1174 743//1174
f 699//1175 694//1175 744//1175
f 702//1176 745//1176 697//1176
f 697//1177 745//1177 743//1177
f 706//1178 699//1178 746//1178
f 746//1179 699//1179 744//1179
f 709//1180 747//1180 702//1180
f 702//1181 747//1181 745//1181
f 713//1182 706//1182 748//1182
f 748//1183 706//1183 746//1183
f 709//1184 716//1184 747//1184
f 747//1185 716//1185 749//1185
f 713//1186 748//1186 718//1186
f 718//1187 748//1187 750//1187
f 716//1188 721//1188 749//1188
f 749//1189 721//1189 751//1189
f 718//1190 750//1190 722//1190
f 722//1191 750//1191 752//1191
f 721//1192 725//1192 751//1192
f 751//1193 725//1193 753//1193
f 753//1194 725//1194 752//1194
f 725//1195 722//1195 752//1195
f 254//1196 264//1196 258//1196