mtllib flat.mtl
v 0.102953 0.044855 -0.05012
v 0.108492 -0.002387 -0.061572
v 0.265395 0.170014 -0.003928
v 0.237122 0.253163 0.027133
v 0.12565 0.018537 -0.002057
v 0.12565 0.03528 -0.002057
v 0.237998 0.104522 0.050267
v 0.181013 0.105208 0.015454
v 0.295968 0.19793 0.087284
v 0.226538 0.23152 0.115747
v 0.27508 0.12438 0.093403
v 0.253712 0.126741 0.091427
v 0.212113 0.179279 -0.125488
v 0.187188 0.125569 -0.173144
v 0.057037 0.001519 -0.101584
v 0.052861 0.040774 -0.09613
v 0.166067 0.150361 -0.160392
v 0.256876 0.222457 0.192024
v 0.278208 0.229885 0.192515
v 0.246864 0.270687 0.018504
v 0.244023 0.255919 0.113003
v 0.267204 0.26167 0.206355
v 0.192107 0.199012 -0.103762
v 0.187697 0.255294 -0.039254
v 0.209518 0.260431 -0.044313
v 0.21576 0.199861 -0.116263
v -0.193707 0.043349 -0.361972
v 0.081444 0.065701 -0.404694
v -0.075795 0.054799 -0.546561
v 0.001947 0.015262 -0.066545
v -0.22412 0.03361 -0.207782
v 0.156619 0.064539 -0.266898
v -0.220987 0.066453 -0.304884
v 0.124481 0.094516 -0.358523
v -0.041206 0.068008 -0.338957
v -0.079136 0.02444 -0.076946
v -0.186481 0.02713 -0.147171
v 0.063509 0.035886 -0.097574
v 0.141224 0.053756 -0.198087
v -0.176341 0.1023 -0.310491
v -0.145156 0.072123 -0.217399
v 0.07628 0.122829 -0.349791
v 0.077254 0.09019 -0.251931
v 0.077346 0.064849 -0.24657
v 0.063932 0.01865 -0.099737
v 0.125685 0.037631 -0.210548
v 0.137624 0.046511 -0.27053
v 0.069884 0.082125 -0.316398
v 0.101638 0.079132 -0.344719
v -0.160533 0.053273 -0.298199
v -0.137178 0.047318 -0.213568
v 0.003518 -0.006375 -0.073907
v -0.052185 0.03233 -0.423714
v 0.07373 0.042707 -0.390741
v -0.178665 0.022453 -0.351551
v -0.073089 0.034135 -0.542073
v -0.079235 0.003867 -0.088808
v -0.193478 0.054766 -0.298937
v -0.205188 0.018425 -0.217358
v -0.173621 0.013089 -0.163942
v -0.081841 0.006086 -0.054375
v -0.081841 0.006086 0.092652
v -0.008327 0.006086 0.123103
v 0.065186 0.006086 0.092652
v -0.008327 0.125314 0.019139
v 0.119566 0.087253 -0.108755
v 0.10833 0.122697 -0.097518
v 0.081202 0.137378 -0.070391
v -0.008327 0.087253 -0.16173
v -0.008327 0.122697 -0.145839
v -0.008327 0.137378 -0.107475
v -0.136221 0.087253 -0.108755
v -0.124984 0.122697 -0.097518
v -0.097857 0.137378 -0.070391
v -0.166315 0.077909 0.019139
v -0.173305 0.122697 0.019139
v -0.134941 0.137378 0.019139
v -0.136221 0.087253 0.147033
v -0.124984 0.122697 0.135796
v -0.097857 0.137378 0.108668
v -0.008327 0.087253 0.200008
v -0.008327 0.122697 0.184117
v -0.008327 0.137378 0.145753
v 0.119566 0.087253 0.147033
v 0.10833 0.122697 0.135796
v 0.081202 0.137378 0.108668
v 0.172542 0.087253 0.019139
v 0.156651 0.122697 0.019139
v 0.118287 0.137378 0.019139
v -0.072158 0.013971 0.109871
v 0.003369 0.034657 0.134275
v 0.095183 0.034657 0.096244
v 0.133213 0.034658 0.00443
v -0.090839 0.013971 0.128552
v 0.003369 0.002858 0.160694
v 0.0 0.090714 0.231434
v 0.113864 0.000501 0.114925
v 0.153916 0.151253 0.193983
v 0.155764 0.000501 0.013771
v 0.212281 0.090714 0.026775
v 0.0 0.151253 0.213387
v 0.0 0.188795 0.257737
v 0.127894 0.151253 0.160411
v 0.175228 0.14613 0.053235
v 0.20664 0.14613 0.073795
v -0.10202 0.143347 0.19122
v -0.176788 0.259176 0.217797
v -0.003247 0.246931 0.244898
v 0.159025 0.206871 0.197724
v 0.17868 0.196966 0.113058
v -0.232795 0.257829 0.121275
v -0.207857 0.17506 0.155703
v -0.182049 0.175338 0.121926
v -0.171619 0.120883 0.146404
v -0.182382 0.132926 0.160034
v -0.087014 0.208742 0.233062
v -0.161707 0.270535 0.213715
v -0.086496 0.225924 0.227004
v -0.003601 0.259683 0.232607
v 0.146642 0.219452 0.189463
v -0.006927 0.05686 -0.117299
v -0.017041 0.014642 -0.129284
v 0.0494 0.225964 -0.245907
v 0.07018 0.328473 -0.198478
v 0.07311 0.017849 -0.098194
v 0.074335 0.03211 -0.105957
v 0.159915 0.105165 -0.155067
v 0.130083 0.105807 -0.136045
v 0.230698 0.282219 -0.206343
v 0.227892 0.323631 -0.113876
v 0.211293 0.196743 -0.186799
v 0.198341 0.199653 -0.163732
v -0.047123 0.275128 -0.23311
v -0.117151 0.131112 -0.214597
v -0.094932 0.017056 -0.068038
v -0.098209 0.049428 -0.060597
v -0.113397 0.161677 -0.184414
v 0.32901 0.312458 -0.109743
v 0.340271 0.321615 -0.133517
v 0.065355 0.350076 -0.213779
v 0.233579 0.353711 -0.134942
v 0.350331 0.360801 -0.114178
v -0.044919 0.274082 -0.200202
v -0.118636 0.053404 -0.001782
v -0.131876 0.011185 0.006624
v -0.247425 0.147426 -0.082109
v -0.205374 0.292089 -0.087545
v -0.088913 0.014393 -0.078512
v -0.088913 0.035034 -0.078511
v -0.13663 0.105165 -0.179983
v -0.123839 0.105807 -0.148136
v -0.173348 0.282219 -0.256416
v -0.091193 0.274175 -0.242461
v -0.156601 0.196743 -0.234553
v -0.13549 0.199653 -0.218608
v -0.24288 0.249755 0.052113
v -0.210881 0.088032 0.087143
v -0.08268 0.013599 0.099317
v -0.074762 0.045971 0.096312
v -0.171643 0.083139 0.075284
v -0.064374 0.312458 -0.340803
v -0.086412 0.321615 -0.355168
v -0.221187 0.313692 -0.084827
v -0.102212 0.35371 -0.249643
v -0.065893 0.360801 -0.362528
v -0.207808 0.274082 0.042333
v -0.208723 0.295093 0.012887
v -0.234876 0.301426 0.004021
v -0.240713 0.275128 0.040078
v 0.400076 0.043349 -0.092117
v 0.369224 0.065701 0.184617
v 0.547329 0.054799 0.070034
v 0.063711 0.015262 0.019311
v 0.259238 0.03361 -0.16186
v 0.216548 0.064539 0.221068
v 0.352128 0.072706 -0.1334
v 0.313392 0.10077 0.214056
v 0.337914 0.074262 0.049029
v 0.09499 0.02444 -0.056215
v 0.190883 0.02713 -0.141414
v 0.077529 0.035886 0.086853
v 0.154173 0.053756 0.188184
v 0.345844 0.108554 -0.088844
v 0.247833 0.072123 -0.083135
v 0.317592 0.129082 0.16525
v 0.222895 0.09019 0.140554
v 0.217696 0.064849 0.139239
v 0.088919 0.014921 0.090382
v 0.170269 0.037631 0.176452
v 0.225029 0.046511 0.203688
v 0.287041 0.072675 0.15033
v 0.306054 0.085385 0.188394
v 0.329839 0.059527 -0.076808
v 0.242046 0.047318 -0.076439
v 0.070404 -0.005854 0.022756
v 0.422587 0.02288 0.060637
v 0.357781 0.042707 0.173516
v 0.386078 0.022453 -0.08033
v 0.542289 0.034135 0.071469
v 0.099709 0.002649 -0.053203
v 0.339182 0.061019 -0.108409
v 0.26352 0.018425 -0.141081
v 0.2037 0.013089 -0.124609
v -0.357215 0.043349 0.202345
v -0.406533 0.065701 -0.071702
v -0.544583 0.054799 0.0889
v -0.066573 0.015262 -0.000348
v -0.20234 0.03361 0.229045
v -0.270582 0.064539 -0.150164
v -0.337869 0.073434 0.049334
v -0.075023 0.02444 0.080961
v -0.14265 0.02713 0.189962
v -0.099071 0.035886 -0.061148
v -0.201421 0.053756 -0.136426
v -0.306167 0.107726 0.183747
v -0.21385 0.072123 0.150335
v -0.351522 0.128254 -0.067858
v -0.253714 0.09019 -0.071181
v -0.248356 0.064849 -0.071402
v -0.095697 0.014921 -0.061284
v -0.213505 0.037631 -0.120592
v -0.273757 0.046511 -0.131087
v -0.317985 0.089448 -0.062265
v -0.392399 0.042707 -0.064324
v -0.294257 0.058699 0.167648
v -0.210212 0.047318 0.142267
v -0.07397 0.001438 -0.001742
v -0.422339 0.039653 0.062346
v -0.347158 0.022453 0.187056
v -0.540161 0.034135 0.086087
v -0.086879 0.00883 0.081345
v -0.212368 0.018425 0.210349
v -0.159725 0.013089 0.177508
v 0.156159 0.043349 0.379685
v -0.121901 0.065701 0.394399
v 0.020207 0.104261 0.551421
v 0.201988 0.03361 0.229355
v -0.182774 0.064539 0.249715
v -0.010964 0.001959 0.073174
v 0.189065 0.036208 0.325644
v -0.160054 0.064272 0.344118
v 0.006761 0.037764 0.341385
v 0.07096 0.02444 0.084545
v 0.170664 0.02713 0.165252
v -0.073039 0.035886 0.090661
v -0.160508 0.053756 0.182811
v 0.144081 0.072056 0.326713
v 0.122457 0.072123 0.230947
v -0.111218 0.092584 0.340298
v -0.102303 0.09019 0.242841
v -0.101854 0.064849 0.237497
v -0.074663 0.014921 0.102474
v -0.146307 0.037631 0.196777
v -0.164243 0.046511 0.255247
v -0.101482 0.062686 0.307722
v -0.135934 0.048887 0.332691
v 0.129595 0.023029 0.312887
v 0.114907 0.047318 0.226331
v 0.009124 0.012891 0.426818
v -0.112816 0.042707 0.381297
v 0.142246 0.022453 0.367797
v 0.017968 0.083597 0.546683
v 0.069861 0.003867 0.096356
v 0.162297 0.024521 0.316949
v 0.182186 0.018425 0.23697
v 0.156175 0.013089 0.180639
vn -0.3016 -0.0 0.9534
vn -0.5134 0.1575 0.8435
vn 0.5663 -0.8149 0.1233
vn -0.9632 -0.2111 -0.1666
vn 0.9321 -0.2835 -0.2256
vn -0.7221 0.2221 0.6552
vn -0.7513 0.482 0.4508
vn -0.1409 -0.8477 0.5114
vn -0.3416 -0.7663 0.5441
vn 0.725 -0.5931 -0.3502
vn 0.7517 -0.5777 -0.3182
vn -0.7349 0.2283 0.6386
vn 0.7568 -0.6269 -0.1851
vn 0.9122 -0.0642 -0.4047
vn 0.3844 -0.7296 -0.5656
vn -0.4755 0.7555 0.4507
vn -0.845 0.5341 0.0274
vn -0.1423 -0.7149 0.6846
vn 0.2176 -0.6717 0.7082
vn 0.9402 -0.2476 0.2339
vn -0.8964 -0.3068 0.3201
vn 0.9162 0.0171 -0.4003
vn -0.188 0.9672 0.171
vn -0.7383 0.58 0.3442
vn -0.8095 0.5853 0.0463
vn -0.8615 0.505 0.053
vn 0.8931 0.248 -0.3753
vn 0.7655 0.6318 0.1217
vn -0.7382 0.5697 0.3613
vn -0.9589 0.1693 0.2277
vn 0.1061 -0.3659 0.9246
vn 0.7228 0.6857 -0.0862
vn 0.8788 0.4103 -0.2435
vn -0.5256 0.062 -0.8485
vn -0.5042 0.0145 -0.8635
vn 0.2205 0.5881 -0.7781
vn 0.0268 0.7521 -0.6585
vn -0.4336 0.4314 -0.7911
vn -0.6566 -0.59 0.4699
vn -0.3134 0.7048 -0.6364
vn -0.353 0.7005 -0.6203
vn -0.9434 0.2456 0.2228
vn 0.8681 0.4143 -0.2735
vn 0.809 0.2657 -0.5243
vn -0.3589 -0.9103 -0.2062
vn -0.2795 -0.9083 -0.3113
vn -0.3111 -0.9163 -0.252
vn -0.3538 -0.9161 -0.1888
vn -0.2039 -0.9789 -0.0126
vn -0.3067 -0.9501 -0.0563
vn 0.3284 -0.8274 0.4557
vn 0.0629 -0.9977 -0.0263
vn 0.2961 -0.8672 0.4003
vn -0.0634 -0.9512 -0.3019
vn -0.0503 -0.8573 0.5123
vn -0.0321 -0.9113 -0.4106
vn 0.3933 -0.9032 -0.1721
vn 0.3859 -0.8672 -0.3147
vn 0.2487 -0.873 -0.4195
vn 0.0902 -0.9954 -0.0311
vn -0.0492 -0.8835 0.4659
vn 0.5492 -0.7956 -0.2555
vn 0.4509 -0.8765 -0.1688
vn 0.2694 -0.9254 -0.2666
vn 0.2317 0.911 0.3411
vn 0.3372 0.9156 0.2189
vn 0.5236 0.8097 0.2649
vn 0.3337 0.9243 0.1854
vn 0.2817 0.9364 0.2092
vn 0.2164 0.9643 0.1524
vn 0.2755 0.6789 -0.6805
vn 0.0077 0.6565 -0.7543
vn -0.154 0.9874 -0.0372
vn 0.0707 0.9542 0.2907
vn -0.5712 0.6289 -0.5275
vn -0.3923 0.8751 0.2833
vn -0.5365 0.7334 0.4175
vn -0.2491 0.8754 0.4143
vn -0.3813 0.8639 0.3291
vn -0.014 0.998 -0.0612
vn -0.3576 0.6301 -0.6893
vn -0.34 0.9118 0.2304
vn -0.3814 0.8758 0.2959
vn -0.1546 0.9362 0.3156
vn 0.7947 -0.0564 0.6044
vn 0.6159 -0.7584 0.2133
vn 0.7015 -0.7112 0.0455
vn 0.6852 -0.7278 0.0286
vn 0.6287 -0.5521 -0.5477
vn 0.3354 -0.8543 -0.3971
vn 0.5578 -0.83 -0.0019
vn 0.8843 -0.4202 -0.2036
vn -0.8152 -0.2228 -0.5346
vn -0.6406 -0.6583 -0.3953
vn -0.8308 -0.5471 0.1021
vn -0.4155 -0.8948 0.1636
vn -0.3131 -0.8965 -0.3133
vn -0.688 -0.621 -0.3754
vn -0.3942 -0.8307 0.3932
vn -0.5017 -0.4303 0.7504
vn -0.5335 -0.8128 0.2341
vn -0.5443 -0.8 0.2525
vn 0.615 -0.5495 -0.5655
vn 0.6709 -0.0724 -0.738
vn -0.2879 -0.6587 -0.6952
vn -0.7359 -0.6404 0.2199
vn -0.2879 -0.6587 0.6952
vn 0.6952 -0.6587 0.2879
vn -0.0393 0.9947 0.0948
vn 0.0393 0.9947 0.0948
vn 0.0948 0.9947 0.0393
vn 0.0948 0.9947 -0.0393
vn 0.0393 0.9947 -0.0948
vn -0.0393 0.9947 -0.0948
vn -0.0948 0.9947 -0.0393
vn -0.0948 0.9947 0.0393
vn 0.8536 0.3827 -0.3536
vn 0.3536 0.9239 -0.1464
vn 0.1464 0.9239 -0.3536
vn 0.3536 0.3827 -0.8536
vn -0.1464 0.9239 -0.3536
vn -0.3536 0.3827 -0.8536
vn -0.3536 0.9239 -0.1464
vn -0.9169 0.3509 -0.1901
vn -0.9144 -0.1427 -0.3788
vn -0.3536 0.9239 0.1464
vn -0.9144 -0.1427 0.3788
vn -0.9169 0.3509 0.1901
vn -0.1464 0.9239 0.3536
vn -0.3536 0.3827 0.8536
vn 0.1464 0.9239 0.3536
vn 0.3536 0.3827 0.8536
vn 0.3536 0.9239 0.1464
vn 0.8536 0.3827 0.3536
vn -0.3206 -0.6015 0.7317
vn 0.2977 -0.5918 0.7491
vn 0.3868 -0.5068 0.7704
vn 0.7803 -0.5354 0.3232
vn 0.7884 -0.4367 0.4333
vn 0.3082 -0.0562 -0.9497
vn 0.3155 0.5562 -0.7688
vn 0.1175 0.5479 -0.8282
vn 0.1345 0.559 -0.8182
vn -0.6528 -0.3843 -0.6528
vn -0.8017 -0.5866 -0.1148
vn -0.4132 -0.5165 0.75
vn -0.4013 -0.2373 0.8847
vn -0.3259 0.5244 -0.7867
vn 0.3193 -0.2455 0.9153
vn -0.8211 0.4584 -0.3401
vn -0.8144 0.438 -0.3806
vn 0.8833 -0.2478 0.398
vn -0.0345 0.4117 -0.9107
vn 0.4348 0.6079 -0.6643
vn 0.3609 -0.0956 0.9277
vn 0.3222 0.2213 0.9204
vn 0.9009 0.1967 0.3868
vn 0.966 -0.1046 0.2365
vn 0.3976 0.6878 -0.6074
vn -0.7111 -0.4418 -0.547
vn 0.6845 0.4164 -0.5984
vn -0.6229 -0.3025 0.7214
vn -0.3339 -0.4015 0.8528
vn -0.3565 -0.3756 0.8555
vn -0.8606 -0.3366 -0.3821
vn -0.6967 -0.4764 -0.5363
vn 0.5791 -0.2394 -0.7793
vn -0.2251 0.1981 0.954
vn 0.3447 0.318 -0.8832
vn 0.026 0.3317 0.943
vn 0.0193 0.3152 0.9488
vn -0.3425 0.4463 -0.8267
vn -0.232 0.1623 -0.9591
vn 0.3507 0.7302 0.5863
vn 0.3654 0.6512 0.6651
vn -0.7881 0.4907 -0.3715
vn -0.7916 0.4105 -0.4527
vn 0.6858 0.724 0.0745
vn 0.6877 0.4266 -0.5875
vn -0.8635 -0.0515 0.5018
vn -0.5235 0.8002 0.2926
vn 0.1706 0.3646 -0.9154
vn -0.0045 0.1744 -0.9847
vn -0.2767 0.3269 0.9036
vn -0.3131 0.6546 0.6881
vn 0.2568 -0.6936 -0.673
vn -0.4653 -0.2325 0.8541
vn 0.2856 -0.2748 -0.9181
vn 0.0321 0.2778 0.9601
vn -0.0114 0.3853 0.9227
vn 0.8192 -0.2876 0.4962
vn 0.5303 -0.139 0.8363
vn 0.2386 -0.4347 -0.8684
vn 0.1381 -0.5115 -0.8481
vn 0.0141 0.2735 0.9618
vn 0.1308 -0.5102 -0.85
vn -0.1566 -0.0507 -0.9864
vn -0.4273 -0.7438 -0.514
vn 0.3226 0.7206 0.6137
vn -0.239 0.3397 0.9097
vn 0.5081 -0.7717 0.3826
vn 0.6853 -0.7269 0.0446
vn 0.6008 -0.3053 -0.7388
vn -0.0774 -0.356 0.9313
vn -0.4273 0.9023 0.0573
vn -0.4357 0.4534 0.7775
vn -0.3717 0.5787 0.7259
vn -0.3816 0.476 0.7924
vn 0.1383 0.2315 -0.963
vn 0.3043 0.667 -0.6801
vn 0.0294 0.5697 0.8213
vn -0.1825 0.1693 0.9685
vn 0.8877 -0.3659 0.2796
vn 0.2156 0.6857 -0.6953
vn 0.1355 0.4103 -0.9018
vn -0.9915 -0.1145 0.0613
vn -0.9925 0.0009 0.1226
vn -0.8759 0.3892 -0.2852
vn -0.8471 0.5264 0.0735
vn -0.1111 0.2043 0.9726
vn -0.0007 0.2507 -0.9681
vn 0.8938 -0.0 -0.4484
vn 0.9252 0.0694 -0.373
vn -0.6209 -0.7064 -0.3399
vn 0.7618 -0.2634 0.5919
vn -0.776 -0.2947 -0.5577
vn 0.923 0.3714 0.1002
vn 0.8036 0.5688 0.1751
vn 0.6 -0.3089 -0.738
vn 0.9171 -0.1603 -0.3651
vn -0.6764 -0.4802 -0.5584
vn -0.5884 -0.7281 -0.3517
vn 0.9119 0.3127 0.2657
vn -0.7348 -0.6738 -0.0778
vn -0.975 -0.1594 0.1546
vn -0.5012 -0.8163 0.2873
vn 0.3749 0.9219 -0.0978
vn 0.8114 0.4351 0.3902
vn 0.4476 -0.7717 -0.4518
vn 0.1367 -0.7269 -0.673
vn -0.651 -0.3053 -0.6949
vn 0.8646 -0.5009 0.0408
vn -0.997 0.0743 -0.0229
vn 0.242 0.9701 -0.0209
vn 0.8023 0.5619 0.2012
vn 0.8031 0.163 0.5731
vn 0.6822 0.4244 0.5955
vn -0.946 0.1445 -0.2902
vn -0.6592 0.6853 -0.3095
vn 0.9353 0.1582 0.3166
vn 0.935 0.1693 0.3115
vn 0.3967 -0.3659 -0.8419
vn -0.6598 0.6857 -0.3073
vn -0.8753 0.4103 -0.2558
vn 0.2959 0.6275 0.7202
vn -0.1622 0.1305 0.9781
vn 0.3089 0.2593 0.9151
vn 0.1367 0.1935 0.9715
vn -0.048 0.4314 0.9009
vn 0.9958 0.0863 0.0306
vn -0.0139 0.8137 0.5811
vn -0.0039 0.8082 0.5888
vn 0.9801 0.1934 0.0452
vn -0.9797 0.1525 -0.1299
vn -0.99 0.121 -0.072
vn 0.293 -0.9103 -0.2924
vn 0.4049 -0.9029 -0.1444
vn 0.4431 -0.8932 0.0769
vn 0.1526 -0.9459 -0.2865
vn 0.1284 -0.9333 -0.3355
vn 0.1107 -0.943 -0.3139
vn -0.471 -0.7388 0.482
vn 0.0955 -0.9952 -0.0217
vn -0.5386 -0.8305 0.142
vn 0.3008 -0.9536 0.0093
vn -0.5479 -0.8122 -0.2004
vn 0.4575 -0.8843 0.0935
vn 0.1256 -0.8895 0.4393
vn 0.2026 -0.8672 0.4549
vn 0.3322 -0.8734 0.3561
vn 0.0724 -0.9744 0.2127
vn -0.3749 -0.9256 -0.0526
vn 0.0167 -0.8632 0.5045
vn 0.0163 -0.8637 0.5037
vn 0.2832 -0.9358 0.21
vn -0.3899 0.911 0.1343
vn -0.2996 0.9156 0.2681
vn -0.4365 0.794 0.4231
vn -0.3211 0.9094 0.2644
vn -0.3299 0.9204 0.2099
vn -0.2225 0.9654 0.136
vn 0.6317 0.6457 0.4289
vn 0.7585 0.6209 0.1981
vn 0.1078 0.98 -0.1671
vn -0.2991 0.9542 -0.0079
vn 0.6999 0.6015 -0.3852
vn -0.2238 0.8623 -0.4543
vn -0.3042 0.7208 -0.6228
vn -0.3346 0.8754 -0.3489
vn -0.2177 0.8639 -0.4542
vn 0.0882 0.9952 0.0425
vn 0.7883 0.5981 -0.1443
vn -0.1589 0.9195 -0.3597
vn -0.2372 0.862 -0.4481
vn -0.2641 0.9362 -0.2319
vn -0.7356 -0.2971 0.6088
vn -0.363 -0.7573 0.5429
vn -0.2277 -0.7112 0.6651
vn -0.2072 -0.7278 0.6538
vn 0.3969 -0.5334 0.747
vn 0.3457 -0.8451 0.4078
vn -0.2191 -0.808 0.547
vn -0.0715 -0.4045 0.9117
vn 0.7295 -0.2228 -0.6467
vn 0.5493 -0.6583 -0.5146
vn 0.0736 -0.5269 -0.8467
vn -0.1264 -0.8718 -0.4732
vn 0.4298 -0.8827 -0.1902
vn 0.5769 -0.5983 -0.5561
vn -0.2576 -0.8291 -0.4963
vn -0.6411 -0.2396 -0.7291
vn -0.0862 -0.8128 -0.5762
vn -0.1011 -0.8 -0.5914
vn 0.3847 -0.5495 0.7417
vn 0.5365 -0.0724 0.8408
vn -0.1975 -0.9103 0.3638
vn -0.3152 -0.9072 0.2787
vn 0.3891 -0.6483 0.6545
vn -0.2624 -0.8854 0.3837
vn -0.0572 -0.9679 0.2446
vn -0.0598 -0.9661 0.2513
vn 0.0168 -0.9891 -0.1465
vn 0.4281 -0.8238 -0.3717
vn -0.2786 -0.9595 0.0421
vn 0.1191 -0.5981 -0.7925
vn -0.2373 -0.8915 -0.3859
vn -0.3239 -0.8672 -0.3783
vn -0.4052 -0.874 -0.2683
vn 0.044 -0.9989 -0.0137
vn 0.5269 -0.8435 0.1042
vn -0.338 -0.7416 -0.5794
vn -0.1714 -0.9033 -0.3932
vn -0.3029 -0.9473 -0.104
vn 0.3355 0.911 -0.2399
vn 0.2108 0.9156 -0.3424
vn 0.3286 0.8754 -0.3545
vn -0.446 0.4401 -0.7793
vn 0.2494 0.9226 -0.2942
vn 0.1709 0.9653 -0.1973
vn -0.7799 0.6255 0.0244
vn -0.0528 0.9811 0.1862
vn 0.2889 0.9542 -0.0777
vn 0.4431 0.8291 0.3409
vn -0.1349 0.3723 0.9183
vn 0.4201 0.8754 0.2391
vn 0.3382 0.8639 0.3732
vn -0.092 0.9957 -0.0115
vn -0.7103 0.6022 0.3645
vn 0.2526 0.9185 0.3041
vn 0.3486 0.8639 0.3635
vn 0.3192 0.9362 0.1469
vn 0.6009 0.1019 -0.7928
vn 0.1741 -0.7533 -0.6343
vn 0.0286 -0.7112 -0.7024
vn 0.0122 -0.7278 -0.6857
vn -0.3898 -0.6361 -0.666
vn -0.413 -0.4984 -0.7623
vn -0.5148 -0.2228 0.8278
vn -0.3798 -0.6583 0.6499
vn -0.1505 -0.6299 0.7619
vn -0.1614 -0.7219 0.6729
vn 0.4235 -0.8323 0.3577
vn 0.714 -0.5311 0.4561
vn 0.2468 -0.8128 0.5277
vn 0.2655 -0.8 0.538
vn -0.5801 -0.5495 -0.6012
vn -0.7539 -0.0724 -0.653
vn 0.3362 -0.9103 0.2414
vn 0.2085 -0.9029 0.3759
vn 0.3158 -0.9449 -0.0864
vn 0.2737 -0.9613 -0.0311
vn -0.1496 -0.9583 -0.2435
vn 0.3276 -0.9448 0.0106
vn 0.2178 -0.9498 -0.2244
vn 0.2705 -0.8378 0.4743
vn 0.0608 -0.9978 -0.0245
vn -0.0752 -0.9376 0.3395
vn 0.0483 -0.9986 -0.0216
vn 0.0349 -0.9958 0.0846
vn -0.3609 -0.9121 -0.1947
vn -0.4158 -0.8672 0.2741
vn -0.2898 -0.873 0.3923
vn -0.3756 -0.7859 0.4913
vn -0.1288 -0.9518 -0.2783
vn -0.3866 -0.9219 -0.0264
vn -0.4989 -0.8649 0.0551
vn -0.0346 -0.9396 0.3405
vn -0.1961 0.911 -0.3628
vn -0.3134 0.9156 -0.2519
vn -0.3073 0.9502 -0.0515
vn -0.4908 0.8629 0.1206
vn -0.2365 0.9701 0.0541
vn -0.3689 0.9242 -0.099
vn -0.4558 0.8297 0.3223
vn -0.1596 0.8522 0.4982
vn 0.0424 0.9517 -0.304
vn -0.2281 0.9466 -0.2281
vn 0.6042 0.7502 0.2688
vn 0.4322 0.8965 -0.097
vn 0.6229 0.7798 0.0626
vn 0.2896 0.8754 -0.387
vn 0.4126 0.8639 -0.2889
vn 0.0801 0.9488 -0.3055
vn 0.3681 0.8016 0.471
vn 0.5329 0.8334 -0.1465
vn 0.4212 0.9068 0.0162
vn 0.4147 0.8794 -0.234
vn -0.7206 -0.2971 -0.6264
vn -0.5948 -0.7573 -0.2695
vn -0.6933 -0.7112 -0.1161
vn -0.6788 -0.7278 -0.0977
vn -0.7127 -0.6806 0.1696
vn -0.4602 -0.8662 0.1948
vn -0.4912 -0.8622 0.124
vn -0.6565 -0.5522 0.5139
vn 0.7225 -0.2279 0.6528
vn 0.4972 -0.6548 0.5692
vn 0.6013 -0.6581 0.4531
vn 0.3682 -0.9235 0.1076
vn 0.3516 -0.9227 0.1578
vn 0.6303 -0.7691 0.1054
vn 0.4319 -0.8307 -0.3514
vn 0.5749 -0.4303 -0.6959
vn 0.5544 -0.8128 -0.179
vn 0.567 -0.8 -0.1962
vn -0.5737 -0.5647 0.5933
vn -0.7298 -0.0767 0.6793
usemtl Elf_bush_Map
f 6//1 5//1 8//1
f 8//2 5//2 7//2
f 2//3 7//3 5//3
f 4//4 12//4 10//4
f 11//5 3//5 9//5
f 4//6 1//6 8//6
f 8//7 1//7 6//7
f 11//8 12//8 7//8
f 7//9 12//9 8//9
f 11//10 7//10 3//10
f 3//11 7//11 2//11
f 12//12 4//12 8//12
f 2//13 14//13 3//13
f 3//14 14//14 13//14
f 2//15 15//15 14//15
f 16//16 1//16 17//16
f 17//17 1//17 4//17
f 12//18 11//18 18//18
f 18//19 11//19 19//19
f 11//20 9//20 19//20
f 10//21 12//21 18//21
f 3//22 13//22 26//22
f 24//23 4//23 25//23
f 25//24 4//24 20//24
f 10//25 21//25 4//25
f 4//26 21//26 20//26
f 3//27 20//27 9//27
f 9//28 20//28 21//28
f 10//29 18//29 21//29
f 21//30 18//30 22//30
f 18//31 19//31 22//31
f 9//32 21//32 19//32
f 19//33 21//33 22//33
f 15//34 16//34 14//34
f 14//35 16//35 17//35
f 14//36 17//36 13//36
f 13//37 17//37 23//37
f 23//38 26//38 13//38
f 24//39 23//39 4//39
f 24//40 25//40 23//40
f 23//41 25//41 26//41
f 4//42 23//42 17//42
f 26//43 25//43 3//43
f 3//44 25//44 20//44
f 47//45 46//45 44//45
f 44//46 46//46 45//46
f 49//47 47//47 48//47
f 48//48 47//48 44//48
f 50//49 53//49 51//49
f 51//50 53//50 52//50
f 54//51 49//51 48//51
f 56//52 53//52 55//52
f 55//53 53//53 50//53
f 51//54 52//54 57//54
f 58//55 55//55 50//55
f 58//56 50//56 59//56
f 59//57 50//57 51//57
f 59//58 51//58 60//58
f 60//59 51//59 57//59
f 56//60 54//60 53//60
f 53//61 54//61 48//61
f 48//62 44//62 53//62
f 53//63 44//63 52//63
f 52//64 44//64 45//64
f 38//65 39//65 43//65
f 43//66 39//66 32//66
f 42//67 43//67 34//67
f 34//68 43//68 32//68
f 40//69 41//69 35//69
f 35//70 41//70 30//70
f 28//71 42//71 34//71
f 40//72 35//72 27//72
f 27//73 35//73 29//73
f 41//74 36//74 30//74
f 33//75 40//75 27//75
f 31//76 41//76 33//76
f 33//77 41//77 40//77
f 36//78 41//78 37//78
f 37//79 41//79 31//79
f 29//80 35//80 28//80
f 28//81 35//81 42//81
f 30//82 43//82 35//82
f 35//83 43//83 42//83
f 30//84 38//84 43//84
f 38//85 45//85 39//85
f 39//86 45//86 46//86
f 39//87 46//87 32//87
f 32//88 46//88 47//88
f 47//89 49//89 32//89
f 32//90 49//90 34//90
f 34//91 49//91 28//91
f 28//92 49//92 54//92
f 29//93 56//93 27//93
f 27//94 56//94 55//94
f 55//95 58//95 27//95
f 27//96 58//96 33//96
f 33//97 58//97 31//97
f 31//98 58//98 59//98
f 60//99 57//99 37//99
f 37//100 57//100 36//100
f 59//101 60//101 31//101
f 31//102 60//102 37//102
f 54//103 56//103 28//103
f 28//104 56//104 29//104
f 69//105 61//105 72//105
f 78//106 75//106 62//106
f 63//107 78//107 62//107
f 64//108 87//108 84//108
f 68//109 71//109 65//109
f 71//110 74//110 65//110
f 74//111 77//111 65//111
f 77//112 80//112 65//112
f 80//113 83//113 65//113
f 83//114 86//114 65//114
f 86//115 89//115 65//115
f 89//116 68//116 65//116
f 66//117 67//117 87//117
f 87//117 67//117 88//117
f 67//118 68//118 88//118
f 88//118 68//118 89//118
f 68//119 67//119 71//119
f 71//119 67//119 70//119
f 67//120 66//120 70//120
f 70//120 66//120 69//120
f 71//121 70//121 74//121
f 74//121 70//121 73//121
f 70//122 69//122 73//122
f 73//122 69//122 72//122
f 74//123 73//123 77//123
f 77//123 73//123 76//123
f 72//124 75//124 73//124
f 73//125 75//125 76//125
f 77//126 76//126 80//126
f 80//126 76//126 79//126
f 76//127 75//127 79//127
f 79//128 75//128 78//128
f 80//129 79//129 83//129
f 83//129 79//129 82//129
f 79//130 78//130 82//130
f 82//130 78//130 81//130
f 83//131 82//131 86//131
f 86//131 82//131 85//131
f 82//132 81//132 85//132
f 85//132 81//132 84//132
f 86//133 85//133 89//133
f 89//133 85//133 88//133
f 85//134 84//134 88//134
f 88//134 84//134 87//134
f 94//135 95//135 96//135
f 95//136 97//136 96//136
f 96//137 97//137 98//137
f 99//138 100//138 97//138
f 97//139 100//139 98//139
f 99//140 93//140 100//140
f 114//141 106//141 90//141
f 90//142 106//142 91//142
f 91//143 106//143 101//143
f 90//144 94//144 114//144
f 114//145 94//145 115//145
f 94//146 96//146 115//146
f 115//147 96//147 102//147
f 92//148 91//148 103//148
f 103//148 91//148 101//148
f 96//149 98//149 102//149
f 93//150 92//150 104//150
f 104//151 92//151 103//151
f 98//152 100//152 105//152
f 93//153 104//153 100//153
f 100//154 104//154 105//154
f 98//155 109//155 102//155
f 102//156 109//156 108//156
f 105//157 110//157 98//157
f 98//158 110//158 109//158
f 105//159 104//159 110//159
f 113//160 112//160 111//160
f 106//161 113//161 111//161
f 112//162 115//162 107//162
f 102//163 116//163 115//163
f 115//164 116//164 107//164
f 114//165 115//165 113//165
f 113//166 115//166 112//166
f 113//167 106//167 114//167
f 102//168 108//168 116//168
f 106//169 117//169 118//169
f 116//170 118//170 107//170
f 107//171 118//171 117//171
f 103//172 101//172 120//172
f 120//173 101//173 119//173
f 109//174 120//174 108//174
f 108//175 120//175 119//175
f 104//176 103//176 110//176
f 110//177 103//177 120//177
f 109//178 110//178 120//178
f 106//179 111//179 117//179
f 112//180 107//180 111//180
f 111//181 107//181 117//181
f 106//182 118//182 101//182
f 101//183 118//183 119//183
f 116//184 108//184 118//184
f 118//185 108//185 119//185
f 122//186 127//186 125//186
f 124//187 132//187 130//187
f 131//188 123//188 129//188
f 124//189 121//189 128//189
f 128//190 121//190 126//190
f 131//191 132//191 127//191
f 127//192 132//192 128//192
f 131//193 127//193 123//193
f 123//194 127//194 122//194
f 132//195 124//195 128//195
f 122//196 134//196 123//196
f 123//197 134//197 133//197
f 122//198 135//198 134//198
f 136//199 121//199 137//199
f 137//200 121//200 124//200
f 132//201 131//201 138//201
f 138//202 131//202 139//202
f 131//203 129//203 139//203
f 130//204 132//204 138//204
f 143//205 124//205 133//205
f 133//206 124//206 140//206
f 130//207 141//207 124//207
f 124//208 141//208 140//208
f 123//209 140//209 129//209
f 129//210 140//210 141//210
f 130//211 138//211 141//211
f 141//212 138//212 142//212
f 138//213 139//213 142//213
f 129//214 141//214 139//214
f 139//215 141//215 142//215
f 135//216 136//216 134//216
f 134//217 136//217 137//217
f 134//218 137//218 133//218
f 133//219 137//219 143//219
f 124//220 143//220 137//220
f 123//221 133//221 140//221
f 149//222 148//222 151//222
f 151//223 148//223 150//223
f 145//224 150//224 148//224
f 147//225 155//225 153//225
f 154//226 146//226 152//226
f 147//227 144//227 151//227
f 151//228 144//228 149//228
f 154//229 155//229 150//229
f 150//230 155//230 151//230
f 154//231 150//231 146//231
f 146//232 150//232 145//232
f 155//233 147//233 151//233
f 145//234 157//234 146//234
f 146//235 157//235 156//235
f 145//236 158//236 157//236
f 159//237 144//237 160//237
f 160//238 144//238 147//238
f 155//239 154//239 161//239
f 161//240 154//240 162//240
f 154//241 152//241 162//241
f 153//242 155//242 161//242
f 146//243 156//243 169//243
f 167//244 147//244 168//244
f 168//245 147//245 163//245
f 153//246 164//246 147//246
f 147//247 164//247 163//247
f 146//248 163//248 152//248
f 152//249 163//249 164//249
f 153//250 161//250 164//250
f 164//251 161//251 165//251
f 161//252 162//252 165//252
f 152//253 164//253 162//253
f 162//254 164//254 165//254
f 157//255 158//255 160//255
f 160//256 158//256 159//256
f 157//257 160//257 156//257
f 156//258 160//258 166//258
f 166//259 169//259 156//259
f 167//260 166//260 147//260
f 166//261 167//261 169//261
f 169//262 167//262 168//262
f 147//263 166//263 160//263
f 163//264 146//264 168//264
f 146//265 169//265 168//265
f 190//266 189//266 187//266
f 187//267 189//267 188//267
f 192//268 190//268 191//268
f 191//269 190//269 187//269
f 193//270 196//270 194//270
f 194//271 196//271 195//271
f 197//272 192//272 191//272
f 199//273 196//273 198//273
f 198//274 196//274 193//274
f 194//275 195//275 200//275
f 201//276 198//276 193//276
f 201//277 193//277 202//277
f 202//278 193//278 194//278
f 202//279 194//279 203//279
f 203//280 194//280 200//280
f 199//281 197//281 196//281
f 196//282 197//282 191//282
f 191//283 187//283 196//283
f 196//284 187//284 195//284
f 195//285 187//285 188//285
f 181//286 182//286 186//286
f 186//287 182//287 175//287
f 185//288 186//288 177//288
f 177//289 186//289 175//289
f 183//290 184//290 178//290
f 178//291 184//291 173//291
f 171//292 185//292 177//292
f 183//293 178//293 170//293
f 170//294 178//294 172//294
f 184//295 179//295 173//295
f 176//296 183//296 170//296
f 174//297 184//297 176//297
f 176//298 184//298 183//298
f 179//299 184//299 180//299
f 180//300 184//300 174//300
f 172//301 178//301 171//301
f 171//302 178//302 185//302
f 173//303 186//303 178//303
f 178//304 186//304 185//304
f 173//305 181//305 186//305
f 181//306 188//306 182//306
f 182//307 188//307 189//307
f 182//308 189//308 175//308
f 175//309 189//309 190//309
f 190//310 192//310 175//310
f 175//311 192//311 177//311
f 177//312 192//312 171//312
f 171//313 192//313 197//313
f 172//314 199//314 170//314
f 170//315 199//315 198//315
f 198//316 201//316 170//316
f 170//317 201//317 176//317
f 176//318 201//318 174//318
f 174//319 201//319 202//319
f 203//320 200//320 180//320
f 180//321 200//321 179//321
f 202//322 203//322 174//322
f 174//323 203//323 180//323
f 197//324 199//324 171//324
f 171//325 199//325 172//325
f 222//326 221//326 219//326
f 219//327 221//327 220//327
f 224//328 222//328 223//328
f 223//329 222//329 219//329
f 225//330 228//330 226//330
f 226//331 228//331 227//331
f 230//332 228//332 229//332
f 229//333 228//333 225//333
f 226//334 227//334 231//334
f 229//335 225//335 232//335
f 232//336 225//336 226//336
f 232//337 226//337 233//337
f 233//338 226//338 231//338
f 230//339 224//339 228//339
f 228//340 224//340 223//340
f 223//341 219//341 228//341
f 228//342 219//342 227//342
f 227//343 219//343 220//343
f 213//344 214//344 218//344
f 218//345 214//345 209//345
f 218//346 209//346 217//346
f 217//347 209//347 205//347
f 215//348 216//348 210//348
f 210//349 216//349 207//349
f 215//350 210//350 204//350
f 204//351 210//351 206//351
f 216//352 211//352 207//352
f 216//353 215//353 208//353
f 208//354 215//354 204//354
f 211//355 216//355 212//355
f 212//356 216//356 208//356
f 206//357 210//357 205//357
f 205//358 210//358 217//358
f 207//359 218//359 210//359
f 210//360 218//360 217//360
f 207//361 213//361 218//361
f 213//362 220//362 214//362
f 214//363 220//363 221//363
f 214//364 221//364 209//364
f 209//365 221//365 222//365
f 209//366 222//366 205//366
f 205//367 222//367 224//367
f 206//368 230//368 204//368
f 204//369 230//369 229//369
f 229//370 232//370 204//370
f 204//371 232//371 208//371
f 233//372 231//372 212//372
f 212//373 231//373 211//373
f 232//374 233//374 208//374
f 208//375 233//375 212//375
f 224//376 230//376 205//376
f 205//377 230//377 206//377
f 254//378 253//378 251//378
f 251//379 253//379 252//379
f 256//380 254//380 255//380
f 255//381 254//381 251//381
f 257//382 259//382 258//382
f 258//383 259//383 239//383
f 260//384 256//384 255//384
f 262//385 259//385 261//385
f 261//386 259//386 257//386
f 258//387 239//387 263//387
f 264//388 261//388 257//388
f 264//389 257//389 265//389
f 265//390 257//390 258//390
f 265//391 258//391 266//391
f 266//392 258//392 263//392
f 262//393 260//393 259//393
f 259//394 260//394 255//394
f 255//395 251//395 259//395
f 259//396 251//396 239//396
f 239//397 251//397 252//397
f 245//398 246//398 250//398
f 250//399 246//399 238//399
f 250//400 238//400 249//400
f 249//401 238//401 241//401
f 247//402 248//402 242//402
f 242//403 248//403 239//403
f 235//404 249//404 241//404
f 247//405 242//405 234//405
f 234//406 242//406 236//406
f 248//407 243//407 239//407
f 240//408 247//408 234//408
f 248//409 247//409 237//409
f 237//410 247//410 240//410
f 243//411 248//411 244//411
f 244//412 248//412 237//412
f 236//413 242//413 235//413
f 235//414 242//414 249//414
f 239//415 250//415 242//415
f 242//416 250//416 249//416
f 239//417 245//417 250//417
f 245//418 252//418 246//418
f 246//419 252//419 253//419
f 246//420 253//420 238//420
f 238//421 253//421 254//421
f 238//422 254//422 241//422
f 241//423 254//423 256//423
f 256//424 260//424 241//424
f 241//425 260//425 235//425
f 236//426 262//426 234//426
f 234//427 262//427 261//427
f 234//428 261//428 240//428
f 240//429 261//429 264//429
f 264//430 265//430 240//430
f 240//431 265//431 237//431
f 266//432 263//432 244//432
f 244//433 263//433 243//433
f 265//434 266//434 237//434
f 237//435 266//435 244//435
f 260//436 262//436 235//436
f 235//437 262//437 236//437