mtllib flat.mtl
v -0.057988 0.589496 -0.100201
v -0.018108 0.562183 -0.10004
v -0.000739 0.56434 -0.126813
v -0.019487 0.577545 -0.143586
v -0.042928 0.593599 -0.14368
v -0.0697 0.61098 -0.100073
v -0.001437 0.563638 -0.072781
v 0.030205 0.563525 -0.099399
v -0.005089 0.589011 -0.159709
v -0.027731 0.63117 -0.170021
v -0.06375 0.628685 -0.136963
v -0.064711 0.627719 -0.062594
v -0.006644 0.587448 -0.039378
v 0.039402 0.582693 -0.055303
v 0.040531 0.583828 -0.142729
v 0.010196 0.605194 -0.169869
v -0.058764 0.651834 -0.143129
v -0.071049 0.659293 -0.099463
v -0.059894 0.650698 -0.055703
v -0.016929 0.649891 -0.024492
v 0.008369 0.603356 -0.02841
v 0.037502 0.645069 -0.168998
v -0.015007 0.651823 -0.17323
v -0.022262 0.710877 -0.098162
v -0.032588 0.690573 -0.054832
v 0.066708 0.622567 -0.054432
v 0.078993 0.615108 -0.098098
v 0.067837 0.623703 -0.141858
v -0.000425 0.671045 -0.16915
v -0.011811 0.704531 -0.135307
v -0.002253 0.669207 -0.027692
v 0.035675 0.643231 -0.027539
v 0.052001 0.681938 -0.141306
v 0.014587 0.686954 -0.158183
v 0.008682 0.710061 -0.070748
v 0.070051 0.668032 -0.070501
v 0.070749 0.668733 -0.124533
v 0.027431 0.696856 -0.053975
v 0.05245 0.69464 -0.120397
v 0.029676 0.709425 -0.083302
v -0.071538 0.00024 0.077689
v -0.09631 0.00024 0.087156
v -0.100498 0.00024 0.113344
v -0.079913 0.00024 0.130064
v -0.05514 0.00024 0.120597
v -0.050953 0.00024 0.09441
v -0.076145 0.076481 0.081768
v -0.091072 0.124192 0.099443
v -0.116177 0.144289 0.128606
v -0.140094 0.14289 0.156439
v -0.171108 0.1303 0.193301
v -0.182301 0.131931 0.208001
v -0.184366 0.137492 0.211403
v -0.210025 0.190348 0.242276
v -0.246891 0.255954 0.284589
v -0.099629 0.075108 0.090735
v -0.111592 0.113511 0.106132
v -0.126841 0.122131 0.1252
v -0.168468 0.107497 0.177798
v -0.17664 0.087595 0.203855
v -0.192443 0.119772 0.21066
v -0.217913 0.176463 0.243176
v -0.252847 0.240775 0.284253
v -0.103583 0.074188 0.115579
v -0.12059 0.101243 0.136555
v -0.129308 0.097261 0.147228
v -0.152595 0.085999 0.175118
v -0.189593 0.103067 0.219264
v -0.216833 0.163374 0.251573
v -0.250918 0.226466 0.29061
v -0.084054 0.074641 0.131456
v -0.095204 0.104054 0.142937
v -0.103673 0.102512 0.151315
v -0.113842 0.098606 0.161591
v -0.139361 0.087305 0.18794
v -0.165032 0.088902 0.214458
v -0.178666 0.104082 0.22861
v -0.207864 0.164169 0.259071
v -0.243034 0.227335 0.297302
v -0.060571 0.076014 0.12249
v -0.074683 0.114735 0.136249
v -0.093009 0.12467 0.15472
v -0.111502 0.122094 0.173378
v -0.142001 0.110109 0.203442
v -0.162059 0.111724 0.221832
v -0.17059 0.121802 0.229352
v -0.239007 0.256823 0.291281
v -0.072618 0.124804 0.114502
v -0.099261 0.145558 0.143365
v -0.124628 0.144236 0.170802
v -0.170694 0.133238 0.218604
v -0.201057 0.191143 0.249774
v -0.0818 0.00024 0.036527
v -0.05528 0.00024 0.036527
v -0.09506 0.00024 0.059494
v -0.0818 0.00024 0.082461
v -0.05528 0.00024 0.082461
v -0.04202 0.00024 0.059494
v -0.059522 0.13505 0.03816
v -0.090943 0.181247 0.040102
v -0.127717 0.237577 0.052909
v -0.216756 0.281201 0.071127
v -0.277952 0.316174 0.083849
v -0.300731 0.354433 0.08899
v -0.328233 0.413584 0.095062
v -0.366288 0.465224 0.103217
v -0.390004 0.502063 0.108543
v -0.379741 0.535709 0.107161
v -0.369753 0.666058 0.105835
v -0.08519 0.134226 0.038156
v -0.141447 0.216717 0.05088
v -0.225418 0.257736 0.068263
v -0.287284 0.29351 0.081284
v -0.346451 0.402518 0.094582
v -0.380967 0.449591 0.102204
v -0.404881 0.487945 0.107734
v -0.406243 0.543458 0.122718
v -0.386953 0.668152 0.105816
v -0.098021 0.133645 0.060394
v -0.103216 0.178948 0.061584
v -0.146559 0.202721 0.070304
v -0.227271 0.241991 0.0864
v -0.282845 0.28576 0.119068
v -0.325958 0.330574 0.106209
v -0.355147 0.395093 0.112136
v -0.387433 0.439101 0.118674
v -0.411623 0.478472 0.123614
v -0.39554 0.669556 0.120771
v -0.085184 0.133888 0.082635
v -0.090871 0.180075 0.083111
v -0.137939 0.209584 0.091757
v -0.220462 0.249711 0.1074
v -0.316597 0.335272 0.125085
v -0.345625 0.398733 0.13017
v -0.379219 0.444244 0.136156
v -0.403488 0.483117 0.140301
v -0.397318 0.541933 0.138439
v -0.386928 0.668868 0.135744
v -0.059517 0.134712 0.082638
v -0.066253 0.183502 0.083157
v -0.124208 0.230443 0.093786
v -0.211801 0.273176 0.110264
v -0.273513 0.308423 0.121634
v -0.299303 0.34955 0.125914
v -0.327408 0.409799 0.13065
v -0.388611 0.497235 0.14111
v -0.379605 0.537295 0.138522
v -0.05398 0.185801 0.061676
v -0.271066 0.32363 0.104024
v -0.29137 0.359131 0.107866
v -0.358074 0.470368 0.1207
v -0.370816 0.534183 0.122883
v -0.361141 0.665369 0.120808
v -0.246956 0.209012 0.316649
v -0.205107 0.233199 0.316649
v -0.199391 0.249334 0.289628
v -0.219292 0.237832 0.272929
v -0.24389 0.223615 0.272929
v -0.271391 0.20772 0.316649
v -0.199391 0.249334 0.34367
v -0.185468 0.277366 0.316649
v -0.223321 0.255488 0.256473
v -0.271059 0.253078 0.245908
v -0.284568 0.220088 0.279458
v -0.284568 0.220088 0.35384
v -0.223321 0.255488 0.376825
v -0.199059 0.294692 0.360369
v -0.199059 0.294692 0.272929
v -0.231259 0.276082 0.245908
v -0.303259 0.234467 0.272929
v -0.315558 0.227359 0.316649
v -0.303259 0.234467 0.360369
v -0.284177 0.27341 0.39103
v -0.231259 0.276082 0.38739
v -0.255446 0.317931 0.245908
v -0.284177 0.27341 0.242267
v -0.341038 0.293643 0.316649
v -0.327446 0.276316 0.360369
v -0.223247 0.336541 0.360369
v -0.210948 0.34365 0.316649
v -0.223247 0.336541 0.272929
v -0.295247 0.294927 0.245908
v -0.330575 0.29969 0.279458
v -0.295247 0.294927 0.38739
v -0.255446 0.317931 0.38739
v -0.282616 0.347394 0.272929
v -0.303185 0.315521 0.256473
v -0.327114 0.321675 0.34367
v -0.262716 0.358896 0.34367
v -0.262716 0.358896 0.289628
v -0.307214 0.333177 0.360369
v -0.294008 0.35364 0.293664
v -0.317402 0.340119 0.330855
v 0.133812 0.00024 0.016192
v 0.160332 0.00024 0.016192
v 0.120552 0.00024 0.039159
v 0.133812 0.00024 0.062126
v 0.160332 0.00024 0.062126
v 0.173592 0.00024 0.039159
v 0.164071 0.107704 0.015654
v 0.159109 0.157763 0.016537
v 0.160216 0.190741 0.018337
v 0.170729 0.188492 0.019237
v 0.194636 0.184268 0.021067
v 0.22269 0.173172 0.024449
v 0.2601 0.158179 0.028092
v 0.320797 0.149196 0.026331
v 0.39638 0.196898 0.028182
v 0.138617 0.108905 0.015644
v 0.134778 0.155341 0.016556
v 0.169197 0.214144 0.019256
v 0.204439 0.209081 0.021084
v 0.244516 0.201938 0.037728
v 0.270547 0.174564 0.028104
v 0.325155 0.169686 0.02854
v 0.125899 0.109856 0.037704
v 0.122629 0.154132 0.037732
v 0.130108 0.206876 0.037732
v 0.168436 0.226955 0.037732
v 0.209337 0.221472 0.037731
v 0.275767 0.182748 0.037725
v 0.325354 0.179241 0.039921
v 0.396022 0.221689 0.037726
v 0.138633 0.109607 0.059773
v 0.159141 0.157766 0.058871
v 0.140164 0.201489 0.057089
v 0.169206 0.214113 0.056189
v 0.204434 0.209051 0.05436
v 0.237234 0.192334 0.050977
v 0.27054 0.174546 0.047334
v 0.316836 0.147814 0.046887
v 0.396148 0.213412 0.047244
v 0.164087 0.108406 0.059782
v 0.160246 0.190728 0.057071
v 0.170738 0.188461 0.056171
v 0.222679 0.173149 0.050963
v 0.260093 0.158161 0.047323
v 0.396389 0.196878 0.047232
v 0.176806 0.107455 0.037722
v 0.17129 0.158976 0.037695
v 0.171499 0.17565 0.037695
v 0.189733 0.171846 0.037696
v 0.215408 0.163568 0.037698
v 0.316638 0.13826 0.035505
v 0.396506 0.188621 0.037701
v 0.056437 0.006678 0.082743
v 0.082234 0.006678 0.088892
v 0.038214 0.006678 0.10201
v 0.045788 0.006678 0.127426
v 0.071585 0.006678 0.133574
v 0.089809 0.006678 0.114307
v 0.076544 0.201826 0.126878
v 0.069311 0.276126 0.118621
v 0.049114 0.349095 0.092335
v 0.026732 0.410539 0.062923
v 0.01747 0.467917 0.052295
v 0.032991 0.552585 0.077151
v 0.059938 0.621202 0.118367
v 0.060733 0.692876 0.122139
v 0.026896 0.883077 0.076325
v 0.052238 0.202371 0.121138
v 0.04668 0.273319 0.113115
v 0.028893 0.340825 0.088494
v -0.005954 0.402851 0.074355
v -0.000453 0.463156 0.04817
v 0.016887 0.559223 0.073842
v 0.04682 0.632833 0.117546
v 0.046992 0.693999 0.118638
v 0.015115 0.87735 0.073842
v 0.035121 0.19833 0.138904
v 0.030369 0.274039 0.129938
v 0.013406 0.342947 0.103862
v -0.013645 0.464378 0.061557
v 0.00467 0.55752 0.085993
v 0.035279 0.629848 0.128031
v 0.037054 0.693711 0.128784
v 0.006116 0.87882 0.0827
v 0.066616 0.193199 0.16815
v 0.03669 0.277567 0.152265
v 0.01814 0.35334 0.123072
v -0.002447 0.415848 0.090962
v -0.008914 0.470361 0.079069
v 0.049974 0.603601 0.140157
v 0.040856 0.6923 0.142431
v 0.008898 0.886016 0.09404
v 0.075633 0.279653 0.140949
v 0.038361 0.36161 0.126913
v 0.01565 0.426191 0.09355
v 0.009008 0.475123 0.083194
v 0.024662 0.542538 0.104762
v 0.054598 0.691177 0.145931
v 0.02068 0.891743 0.096522
v 0.083733 0.19724 0.150384
v 0.030239 0.423536 0.07953
v 0.036879 0.544242 0.092611
v 0.061515 0.606586 0.129672
v -0.195396 0.00024 -0.070911
v -0.178869 0.00024 -0.08104
v -0.194888 0.00024 -0.051534
v -0.177852 0.00024 -0.042286
v -0.161325 0.00024 -0.052415
v -0.161834 0.00024 -0.071792
v -0.179506 0.085337 -0.079842
v -0.161039 0.142191 -0.108927
v -0.139387 0.181528 -0.143176
v -0.10837 0.227034 -0.160902
v -0.11671 0.288776 -0.178378
v -0.123472 0.346636 -0.16676
v -0.148424 0.403702 -0.125781
v -0.180572 0.46455 -0.073185
v -0.193633 0.527238 -0.051399
v -0.189193 0.588817 -0.057865
v -0.172142 0.659757 -0.084686
v -0.158558 0.791022 -0.105913
v -0.195458 0.085172 -0.070065
v -0.175224 0.150778 -0.101453
v -0.151459 0.193898 -0.138538
v -0.135636 0.237254 -0.162803
v -0.130246 0.291665 -0.170227
v -0.136297 0.342497 -0.159183
v -0.158691 0.392321 -0.121757
v -0.203302 0.514324 -0.033332
v -0.199936 0.590609 -0.051347
v -0.181576 0.666776 -0.079706
v -0.168036 0.794303 -0.100287
v -0.194967 0.085071 -0.051361
v -0.173641 0.158822 -0.085238
v -0.133775 0.246257 -0.148439
v -0.12972 0.29437 -0.15441
v -0.122201 0.338881 -0.136885
v -0.156215 0.38166 -0.110491
v -0.18696 0.440792 -0.060287
v -0.188467 0.592174 -0.032724
v -0.180543 0.673352 -0.06892
v -0.167599 0.797375 -0.089239
v -0.178524 0.085136 -0.042435
v -0.157872 0.158279 -0.076497
v -0.133373 0.204703 -0.116746
v -0.119212 0.245649 -0.140307
v -0.11566 0.294187 -0.146743
v -0.143473 0.38238 -0.10325
v -0.174837 0.441568 -0.053323
v -0.191646 0.514746 -0.026891
v -0.160642 0.665888 -0.068094
v -0.157685 0.797168 -0.083818
v -0.163063 0.085401 -0.070915
v -0.121301 0.192333 -0.121384
v -0.106509 0.236038 -0.146538
v -0.10265 0.288594 -0.170711
v -0.109377 0.34302 -0.144463
v -0.135681 0.404422 -0.11854
v -0.165581 0.453835 -0.05629
v -0.180983 0.521414 -0.032704
v -0.177724 0.590382 -0.039242
v -0.148644 0.790815 -0.100491
v -0.14527 0.141648 -0.100186
v -0.124308 0.180746 -0.134599
v -0.110013 0.346898 -0.1594
v -0.168449 0.465326 -0.066221
v -0.181977 0.52766 -0.044958
v -0.178087 0.588704 -0.051812
v -0.161675 0.659313 -0.07888
v -0.015255 0.849951 0.088158
v 0.03266 0.856317 0.088158
v 0.044107 0.869044 0.061138
v 0.021322 0.866017 0.044438
v -0.006842 0.862276 0.044438
v -0.03833 0.858092 0.088158
v 0.044107 0.869044 0.115179
v 0.067683 0.889631 0.088158
v 0.024343 0.883873 0.027982
v -0.020695 0.899883 0.017417
v -0.045782 0.874557 0.050968
v -0.045782 0.874557 0.125349
v 0.024343 0.883873 0.148334
v 0.061742 0.910836 0.131879
v 0.061742 0.910836 0.044438
v 0.024875 0.905938 0.017417
v -0.057562 0.894985 0.044438
v -0.071644 0.893115 0.088158
v -0.057562 0.894985 0.131879
v -0.02505 0.923685 0.16254
v 0.024875 0.905938 0.158899
v 0.018509 0.953853 0.017417
v -0.025051 0.923685 0.013777
v -0.069869 0.964105 0.088158
v -0.063928 0.942901 0.131879
v 0.055376 0.958751 0.131879
v 0.069458 0.960621 0.088158
v 0.055376 0.958751 0.044438
v -0.027061 0.947798 0.017417
v -0.05789 0.965696 0.050968
v -0.027061 0.947798 0.158899
v 0.018509 0.953853 0.158899
v 0.004656 0.991461 0.044438
v -0.026529 0.969863 0.027982
v -0.046293 0.984692 0.115179
v 0.027441 0.994488 0.115179
v 0.027441 0.994488 0.061138
v -0.023508 0.987719 0.131879
v -0.003486 1.001585 0.065173
v -0.030271 0.998027 0.102364
v 0.359371 0.189809 0.029356
v 0.405032 0.174476 0.025305
v 0.42197 0.189783 0.002902
v 0.400885 0.20306 -0.010749
v 0.374047 0.212072 -0.008368
v 0.342397 0.206478 0.035076
v 0.419938 0.170415 0.053312
v 0.451232 0.187018 0.031986
v 0.412194 0.222454 -0.020483
v 0.379515 0.258876 -0.019132
v 0.344505 0.236655 0.006886
v 0.341708 0.209996 0.07627
v 0.407669 0.179318 0.091782
v 0.453769 0.191473 0.08067
v 0.457056 0.222812 -0.000896
v 0.42294 0.244294 -0.022984
v 0.343367 0.260989 0.00919
v 0.328303 0.249825 0.051163
v 0.340079 0.229649 0.090756
v 0.380818 0.228458 0.12481
v 0.417621 0.193586 0.108992
v 0.438694 0.286734 -0.006042
v 0.386411 0.281776 -0.013957
v 0.361657 0.307885 0.074816
v 0.355833 0.27209 0.107697
v 0.469523 0.233913 0.097611
v 0.484586 0.245077 0.055638
v 0.472811 0.265253 0.016046
v 0.395269 0.301316 -0.00219
v 0.374471 0.317381 0.039111
v 0.389949 0.250608 0.129786
v 0.433375 0.236026 0.125933
v 0.44213 0.314169 0.033604
v 0.40522 0.315584 0.015019
v 0.390919 0.305119 0.103899
v 0.461183 0.281524 0.097666
v 0.463215 0.300893 0.047256
v 0.412004 0.291842 0.117551
v 0.438607 0.318629 0.057405
v 0.411684 0.31387 0.094361
v 0.17547 0.577133 -0.147991
v 0.21535 0.549821 -0.147831
v 0.232719 0.551977 -0.174603
v 0.213971 0.565182 -0.191376
v 0.19053 0.581236 -0.191471
v 0.163758 0.598617 -0.147863
v 0.232021 0.551275 -0.120571
v 0.263663 0.551162 -0.147189
v 0.228369 0.576648 -0.2075
v 0.205727 0.618807 -0.217812
v 0.169708 0.616322 -0.184753
v 0.168747 0.615356 -0.110384
v 0.226814 0.575085 -0.087168
v 0.27286 0.57033 -0.103093
v 0.273989 0.571466 -0.190519
v 0.243654 0.592832 -0.217659
v 0.174694 0.639471 -0.190919
v 0.162408 0.64693 -0.147253
v 0.173564 0.638336 -0.103493
v 0.216529 0.637528 -0.072282
v 0.241827 0.590994 -0.076201
v 0.27096 0.632706 -0.216788
v 0.218451 0.63946 -0.22102
v 0.211196 0.698514 -0.145953
v 0.20087 0.67821 -0.102622
v 0.300166 0.610205 -0.102222
v 0.312451 0.602746 -0.145888
v 0.301295 0.611341 -0.189649
v 0.233033 0.658682 -0.216941
v 0.221647 0.692169 -0.183097
v 0.231205 0.656845 -0.075482
v 0.269132 0.630869 -0.07533
v 0.285459 0.669576 -0.189097
v 0.248045 0.674591 -0.205973
v 0.24214 0.697699 -0.118538
v 0.303509 0.655669 -0.118291
v 0.304207 0.656371 -0.172323
v 0.260888 0.684494 -0.101765
v 0.285908 0.682278 -0.168187
v 0.263134 0.697063 -0.131092
v 0.053343 0.00024 -0.060978
v 0.079863 0.00024 -0.060978
v 0.040083 0.00024 -0.038011
v 0.053343 0.00024 -0.015044
v 0.079863 0.00024 -0.015044
v 0.093123 0.00024 -0.038011
v 0.08435 0.135686 -0.062024
v 0.056188 0.19053 -0.058772
v 0.089296 0.234937 -0.063191
v 0.086362 0.288852 -0.072559
v 0.11844 0.320899 -0.077931
v 0.120945 0.371528 -0.078536
v 0.117409 0.428927 -0.075754
v 0.115844 0.473704 -0.074077
v 0.124163 0.488249 -0.077942
v 0.152232 0.49267 -0.092878
v 0.224861 0.559337 -0.132796
v 0.059219 0.136824 -0.062035
v 0.067442 0.240406 -0.063517
v 0.100001 0.328937 -0.078641
v 0.10264 0.372719 -0.078556
v 0.100477 0.427555 -0.075779
v 0.100247 0.473173 -0.074085
v 0.112079 0.49865 -0.079155
v 0.152995 0.514551 -0.100528
v 0.220783 0.577267 -0.136967
v 0.046662 0.137819 -0.040259
v 0.04435 0.188733 -0.038206
v 0.067989 0.245719 -0.024985
v 0.077456 0.297888 -0.055235
v 0.091388 0.336859 -0.06228
v 0.093496 0.373893 -0.062697
v 0.092024 0.426202 -0.061107
v 0.114164 0.508755 -0.055667
v 0.159997 0.536121 -0.096918
v 0.222349 0.594942 -0.131109
v 0.059237 0.137675 -0.018472
v 0.05624 0.188759 -0.017599
v 0.087958 0.297757 -0.036979
v 0.119653 0.328707 -0.0445
v 0.102657 0.373876 -0.046818
v 0.100503 0.426222 -0.04641
v 0.100243 0.472658 -0.047063
v 0.166234 0.535808 -0.085658
v 0.227993 0.594686 -0.12108
v 0.096924 0.135542 -0.040238
v 0.079968 0.190582 -0.017559
v 0.089843 0.24025 -0.024659
v 0.107367 0.28859 -0.036048
v 0.120962 0.372685 -0.046798
v 0.125888 0.428947 -0.061057
v 0.11584 0.473188 -0.047055
v 0.126247 0.498354 -0.054454
v 0.158469 0.492357 -0.081618
v 0.091806 0.192379 -0.038125
v 0.100497 0.234859 -0.043762
v 0.116274 0.279553 -0.053372
v 0.128266 0.320785 -0.06086
v 0.123641 0.473711 -0.060562
v 0.131246 0.488101 -0.065591
v 0.230505 0.55908 -0.122767
v -0.003473 0.00024 -0.111022
v 0.020119 0.00024 -0.123135
v -0.004778 0.00024 -0.084534
v 0.017508 0.00024 -0.07016
v 0.0411 0.00024 -0.082273
v 0.042405 0.00024 -0.108761
v 0.021384 0.169418 -0.129786
v 0.038206 0.225557 -0.134757
v 0.006742 0.272726 -0.105078
v -0.029688 0.315551 -0.070988
v -0.045514 0.372388 -0.055199
v -0.04966 0.440037 -0.049783
v -0.001131 0.579475 -0.091153
v 0.017969 0.222576 -0.124424
v -0.006302 0.254453 -0.100529
v -0.040313 0.296275 -0.067983
v -0.059461 0.355695 -0.031982
v -0.063489 0.437681 -0.042721
v -0.011752 0.589966 -0.086336
v 0.020461 0.173127 -0.105359
v 0.036125 0.221246 -0.089198
v -0.003218 0.241239 -0.083145
v -0.036558 0.282335 -0.052929
v -0.064208 0.435978 -0.02716
v -0.011228 0.597553 -0.073611
v 0.041097 0.171545 -0.091862
v 0.012909 0.246298 -0.070311
v -0.022178 0.287671 -0.04088
v -0.045196 0.358377 -0.022169
v -0.051098 0.43663 -0.01866
v -8.4e-05 0.594649 -0.065703
v 0.062657 0.166254 -0.102793
v 0.056362 0.224227 -0.099532
v 0.022869 0.277785 -0.092243
v -0.011554 0.306948 -0.043885
v -0.03109 0.368065 -0.028872
v -0.037268 0.438986 -0.025722
v 0.06358 0.162545 -0.12722
v 0.057403 0.226382 -0.122311
v -0.031249 0.37507 -0.045386
v 0.010013 0.57657 -0.083245
v -0.404003 0.637383 0.127209
v -0.355667 0.637383 0.127209
v -0.342644 0.648492 0.100189
v -0.365629 0.648492 0.083489
v -0.394041 0.648492 0.083489
v -0.425805 0.648492 0.127209
v -0.342644 0.648492 0.15423
v -0.316562 0.665794 0.127209
v -0.360283 0.665794 0.067033
v -0.40282 0.687596 0.056468
v -0.431024 0.665794 0.090019
v -0.431024 0.665794 0.1644
v -0.360283 0.665794 0.187385
v -0.319659 0.687596 0.17093
v -0.319659 0.687596 0.083489
v -0.35685 0.687596 0.056468
v -0.440011 0.687596 0.083489
v -0.454216 0.687596 0.127209
v -0.440011 0.687596 0.17093
v -0.404003 0.711764 0.201591
v -0.35685 0.687596 0.19795
v -0.35685 0.735933 0.056468
v -0.404003 0.711765 0.052828
v -0.443108 0.757735 0.127209
v -0.440011 0.735933 0.17093
v -0.319659 0.735933 0.17093
v -0.305453 0.735933 0.127209
v -0.319659 0.735933 0.083489
v -0.40282 0.735933 0.056468
v -0.431024 0.757735 0.090019
v -0.40282 0.735932 0.19795
v -0.35685 0.735932 0.19795
v -0.365629 0.775037 0.083489
v -0.399387 0.757735 0.067033
v -0.417026 0.775037 0.15423
v -0.342644 0.775037 0.15423
v -0.342644 0.775037 0.100189
v -0.394041 0.775037 0.17093
v -0.372367 0.786146 0.104224
v -0.399387 0.786146 0.141415
v -0.209445 0.796234 -0.077998
v -0.169566 0.768921 -0.077838
v -0.152197 0.771078 -0.104611
v -0.170945 0.784283 -0.121384
v -0.194385 0.800337 -0.121478
v -0.221158 0.817718 -0.077871
v -0.152895 0.770376 -0.050578
v -0.121253 0.770263 -0.077196
v -0.156547 0.795749 -0.137507
v -0.179189 0.837908 -0.147819
v -0.215208 0.835423 -0.114761
v -0.216169 0.834457 -0.040392
v -0.158101 0.794186 -0.017176
v -0.112056 0.789431 -0.033101
v -0.110926 0.790566 -0.120527
v -0.141261 0.811932 -0.147666
v -0.210222 0.858572 -0.120926
v -0.222507 0.866031 -0.077261
v -0.211352 0.857436 -0.0335
v -0.168387 0.856629 -0.002289
v -0.143089 0.810095 -0.006208
v -0.113955 0.851807 -0.146796
v -0.166465 0.858561 -0.151027
v -0.173719 0.917615 -0.07596
v -0.184046 0.897311 -0.032629
v -0.08475 0.829305 -0.03223
v -0.072465 0.821846 -0.075896
v -0.08362 0.830441 -0.119656
v -0.151883 0.877783 -0.146948
v -0.163269 0.911269 -0.113104
v -0.153711 0.875945 -0.00549
v -0.115783 0.849969 -0.005337
v -0.099457 0.888676 -0.119104
v -0.136871 0.893692 -0.135981
v -0.142775 0.916799 -0.048546
v -0.081407 0.87477 -0.048299
v -0.080709 0.875472 -0.102331
v -0.124027 0.903595 -0.031772
v -0.099008 0.901378 -0.098195
v -0.121782 0.916163 -0.0611
vn -0.4615 -0.8708 -0.1697
vn -0.5443 -0.7963 -0.2637
vn -0.8297 -0.4504 -0.3299
vn -0.5274 -0.7679 0.3635
vn 0.1057 -0.9943 -0.0116
vn -0.5176 -0.758 -0.3968
vn -0.0303 -0.8016 -0.5971
vn 0.4832 -0.6686 -0.5653
vn -0.38 -0.5591 -0.7369
vn -0.3972 -0.4137 -0.8192
vn -0.6463 -0.2452 -0.7226
vn -0.8355 -0.4305 -0.3414
vn -0.8327 -0.4558 0.3144
vn -0.6193 -0.6033 0.5025
vn -0.5397 -0.723 0.4312
vn 0.121 -0.7993 0.5886
vn -0.0147 -0.9998 -0.0132
vn 0.2775 -0.9009 0.3337
vn 0.0508 -0.9089 -0.4138
vn 0.1995 -0.6492 -0.734
vn -0.2347 -0.3481 -0.9076
vn -0.6734 -0.0514 -0.7375
vn -0.9849 -0.0254 -0.171
vn -0.9489 0.1275 -0.2887
vn -0.989 -0.0295 0.1448
vn -0.9561 0.1203 0.2673
vn -0.5167 -0.2781 0.8098
vn -0.5851 -0.118 0.8024
vn -0.3627 -0.2722 0.8913
vn 0.1807 -0.6681 0.7218
vn 0.4954 -0.3216 -0.8069
vn -0.0714 -0.11 -0.9914
vn 0.0764 -0.0305 -0.9966
vn -0.5533 0.2159 -0.8045
vn -0.6878 0.6583 -0.306
vn -0.7887 0.5334 0.3058
vn -0.7206 0.6778 0.1459
vn -0.5447 0.3564 0.7591
vn 0.4745 -0.3426 0.8108
vn 0.7168 -0.6817 0.1468
vn 0.7807 -0.5414 0.3121
vn 0.7206 -0.6778 -0.1459
vn 0.0969 0.1357 -0.986
vn -0.48 0.5313 -0.698
vn -0.5002 0.5255 -0.6882
vn -0.4057 0.4409 0.8006
vn 0.0506 -0.0564 0.9971
vn 0.0714 0.11 0.9914
vn 0.7887 -0.5334 -0.3058
vn 0.7287 0.2044 -0.6536
vn 0.258 0.3714 -0.8919
vn 0.4181 0.4347 -0.7977
vn -0.1807 0.6681 -0.7218
vn -0.2863 0.892 0.3497
vn -0.0864 0.7336 0.6741
vn 0.4125 0.6062 0.68
vn 0.7115 0.1871 0.6773
vn 0.9634 0.0235 0.267
vn 0.2813 0.8899 -0.3592
vn 0.4955 0.2568 0.8298
vn 0.9872 0.1591 0.0148
vn 0.97 0.0301 -0.2413
vn 0.7319 0.5753 -0.3652
vn 0.2449 0.8263 -0.5072
vn 0.204 0.946 -0.2518
vn 0.0701 0.9864 -0.1488
vn 0.0287 0.9996 -0.0027
vn 0.264 0.8791 0.3969
vn 0.6141 0.7073 0.3501
vn 0.818 0.5749 0.018
vn 0.6874 0.7131 0.1378
vn -0.3568 0.0284 -0.9337
vn -0.358 0.0287 -0.9333
vn -0.3591 0.2234 -0.9062
vn -0.4069 0.2279 -0.8846
vn -0.4844 0.4677 -0.7393
vn -0.6182 0.4014 -0.6758
vn -0.6972 0.4244 -0.5778
vn -0.7789 0.2884 -0.5569
vn -0.9302 -0.0854 -0.357
vn -0.7363 0.3201 -0.5962
vn -0.3084 0.0495 -0.95
vn -0.5444 0.2812 -0.7903
vn -0.5096 0.2359 -0.8274
vn -0.4894 0.2579 -0.8331
vn -0.519 0.2418 -0.8199
vn -0.5323 0.2269 -0.8156
vn -0.9868 -0.0362 -0.1578
vn -0.9867 -0.0364 -0.1584
vn -0.9588 -0.234 -0.1613
vn -0.7829 -0.4613 -0.4175
vn -0.5568 -0.5191 -0.6484
vn -0.9426 -0.1641 -0.2908
vn -0.6289 -0.3798 -0.6784
vn -0.6129 0.0146 -0.79
vn -0.6985 -0.446 -0.5597
vn -0.8597 -0.342 -0.3793
vn -0.9255 -0.2556 -0.2793
vn -0.9258 -0.2855 -0.2477
vn -0.9011 -0.2843 -0.3273
vn -0.9003 -0.2722 -0.3395
vn -0.6297 -0.0496 0.7753
vn -0.6294 -0.0497 0.7755
vn -0.548 -0.4762 0.6877
vn -0.9182 -0.0946 0.3846
vn 0.1835 -0.9293 -0.3205
vn 0.124 -0.9906 -0.0569
vn 0.2105 -0.9647 -0.1583
vn 0.2361 -0.9577 -0.1645
vn 0.253 -0.9535 -0.1639
vn 0.2478 -0.9524 -0.1776
vn 0.0304 -0.9955 0.0894
vn 0.0247 -0.9968 0.076
vn -0.3605 -0.7922 0.4924
vn -0.3562 -0.7881 0.5021
vn -0.4956 -0.5721 0.6535
vn -0.5011 -0.5735 0.6481
vn -0.4624 -0.6336 0.6203
vn -0.4592 -0.6329 0.6233
vn 0.357 0.0022 0.9341
vn 0.3566 0.0024 0.9343
vn 0.3598 -0.1932 0.9128
vn 0.3961 -0.1997 0.8962
vn 0.4856 -0.4722 0.7357
vn 0.676 -0.4186 0.6064
vn 0.6735 -0.4179 0.6098
vn 0.7275 -0.3643 0.5814
vn 0.7254 -0.3276 0.6054
vn 0.7427 -0.358 0.5658
vn 0.6283 -0.3121 0.7126
vn 0.656 -0.3709 0.6574
vn 0.4818 -0.3256 0.8135
vn 0.4611 -0.2459 0.8526
vn 0.4306 -0.2328 0.872
vn 0.7591 0.0291 0.6503
vn 0.9853 0.0667 0.1576
vn 0.9399 0.2669 0.2129
vn 0.7746 0.5426 0.3248
vn 0.7383 0.4791 0.4748
vn 0.571 0.5174 0.6374
vn 0.6435 0.4532 0.6168
vn 0.5525 0.4118 0.7247
vn 0.646 0.3603 0.673
vn 0.8239 0.3921 0.4092
vn -0.1689 0.6742 0.719
vn 0.8813 -0.0609 0.4686
vn 0.751 0.6603 0.0007
vn 0.7615 0.0309 0.6474
vn 0.6285 0.0794 -0.7738
vn 0.907 0.2427 -0.3441
vn 0.9211 0.1701 -0.3503
vn 0.5602 0.4362 -0.7042
vn 0.2788 0.883 -0.3776
vn 0.2661 0.8854 -0.3811
vn -0.0678 0.9977 -0.0081
vn -0.0707 0.9973 -0.0173
vn -0.2189 0.9649 0.1454
vn 0.1757 0.6323 0.7546
vn -0.0066 0.9933 -0.1152
vn 0.5909 0.8002 -0.1026
vn 0.5137 0.5783 -0.6337
vn 0.4788 0.6044 -0.6368
vn 0.4533 0.6489 -0.6111
vn 0.4499 0.6482 -0.6143
vn -0.0 0.0121 -0.9999
vn -0.0003 0.0122 -0.9999
vn -0.0012 0.0412 -0.9992
vn -0.0975 0.1597 -0.9823
vn -0.118 0.1728 -0.9779
vn -0.1201 0.1638 -0.9792
vn -0.113 0.1614 -0.9804
vn -0.1137 0.1579 -0.9809
vn -0.0208 0.1209 -0.9924
vn -0.0279 0.0892 -0.9956
vn -0.0494 0.1243 -0.991
vn -0.0551 0.116 -0.9917
vn -0.0504 0.1117 -0.9925
vn -0.051 0.1106 -0.9926
vn -0.1873 0.2517 -0.9495
vn -0.4789 0.1103 -0.8709
vn -0.4996 0.0295 -0.8658
vn -0.015 -0.132 -0.9911
vn -0.8659 -0.0158 -0.4999
vn -0.8659 -0.0158 -0.5
vn -0.8621 -0.0848 -0.4996
vn -0.8611 -0.0856 -0.5011
vn -0.5815 -0.7041 -0.4076
vn -0.4756 -0.6495 -0.5932
vn -0.4485 -0.665 -0.5972
vn -0.441 -0.6549 -0.6136
vn -0.4916 -0.6321 -0.599
vn -0.6453 -0.7597 -0.08
vn -0.7106 -0.701 -0.0603
vn -0.5529 -0.0167 -0.8331
vn -0.4702 -0.1326 -0.8725
vn -0.638 -0.5432 -0.5458
vn -0.7142 -0.4435 -0.5414
vn -0.7114 -0.4319 -0.5544
vn -0.7452 -0.39 -0.5409
vn -0.7441 -0.3853 -0.5458
vn -0.9329 0.0724 -0.3529
vn -0.8627 0.0655 -0.5015
vn -0.8658 -0.0226 0.4999
vn -0.8602 -0.111 0.4977
vn -0.8595 -0.1117 0.4987
vn -0.4637 -0.8302 0.3094
vn -0.3719 -0.8303 0.415
vn -0.336 -0.8495 0.4068
vn -0.3287 -0.8469 0.4179
vn -0.3914 -0.8154 0.4266
vn -0.6973 -0.5335 0.4786
vn -0.7791 -0.397 0.4852
vn -0.7772 -0.3948 0.49
vn -0.6763 -0.5662 0.4713
vn -0.6737 -0.5606 0.4815
vn -0.717 -0.5013 0.4844
vn -0.7161 -0.4991 0.488
vn -0.9046 0.0807 0.4185
vn -0.8603 0.106 0.4986
vn -0.8634 0.0812 0.498
vn -0.8624 0.0809 0.4997
vn -0.0 -0.0013 1.0
vn -0.0001 -0.0013 1.0
vn 0.0002 -0.0106 0.9999
vn -0.0004 -0.0104 0.9999
vn 0.0248 -0.1915 0.9812
vn 0.0855 -0.1521 0.9847
vn 0.1057 -0.1649 0.9806
vn 0.1069 -0.1593 0.9814
vn 0.0944 -0.1549 0.9834
vn 0.0953 -0.1506 0.984
vn 0.0076 -0.1156 0.9933
vn 0.0249 -0.088 0.9958
vn 0.0132 -0.0739 0.9972
vn 0.0166 -0.0707 0.9974
vn 0.0367 -0.1036 0.9939
vn 0.0293 -0.0879 0.9957
vn -0.0932 0.0413 0.9948
vn 0.0115 0.0619 0.998
vn 0.0009 0.0212 0.9998
vn 0.8657 0.0266 0.4998
vn 0.8575 0.113 0.502
vn 0.6159 0.6646 0.423
vn 0.4538 0.8825 0.1235
vn 0.6418 0.7632 0.0752
vn 0.4742 0.6327 0.6123
vn 0.7657 0.4304 0.4781
vn 0.7581 0.3759 0.5328
vn 0.7888 0.3271 0.5204
vn 0.2948 0.2984 0.9078
vn 0.5702 0.0243 0.8211
vn 0.6873 0.7222 0.0777
vn 0.8739 -0.474 -0.1077
vn 0.8471 -0.1577 0.5074
vn 0.8656 -0.056 0.4976
vn 0.5054 0.0463 0.8617
vn 0.8655 0.0333 -0.4997
vn 0.9917 0.1289 0.0009
vn 0.9941 -0.1081 -0.0009
vn 0.4434 0.3365 -0.8308
vn 0.2373 0.785 -0.5723
vn 0.8395 0.5429 0.0227
vn 0.4559 0.8826 0.1149
vn 0.3782 0.8189 -0.4317
vn 0.7445 0.5023 -0.4397
vn 0.7365 0.4735 -0.4831
vn 0.7728 0.4091 -0.4851
vn 0.8229 0.5667 0.0412
vn 0.89 0.4552 0.0278
vn 0.6678 0.5681 -0.4809
vn 0.7024 0.5221 -0.4837
vn 0.8253 -0.2721 -0.4949
vn 0.8644 -0.0716 -0.4977
vn 0.8632 -0.0712 -0.4998
vn 0.5873 -0.7949 -0.1524
vn 0.485 -0.8391 -0.2463
vn 0.0501 -0.9483 -0.3132
vn 0.4628 -0.8008 0.3802
vn 0.9426 -0.3339 -0.0
vn 0.4628 -0.8008 -0.3802
vn 0.7136 -0.3835 -0.5862
vn 0.8151 0.1376 -0.5627
vn 0.3449 -0.5967 -0.7246
vn 0.2068 -0.5509 -0.8086
vn -0.0533 -0.7012 -0.711
vn 0.0298 -0.9453 -0.3249
vn 0.0498 -0.9423 0.331
vn 0.2738 -0.8102 0.5182
vn 0.4166 -0.7913 0.4475
vn 0.7696 -0.2256 0.5973
vn 0.8956 -0.4448 -0.0
vn 0.9304 -0.1326 0.3418
vn 0.8444 -0.3535 -0.4026
vn 0.6762 -0.1129 -0.728
vn 0.2182 -0.3776 -0.8999
vn -0.2397 -0.6422 -0.728
vn -0.4012 -0.9023 -0.1579
vn -0.5228 -0.8058 -0.2781
vn -0.4012 -0.9023 0.1579
vn -0.5228 -0.8058 0.2781
vn 0.0229 -0.572 0.8199
vn -0.151 -0.5648 0.8113
vn 0.0835 -0.4292 0.8993
vn 0.6762 -0.1129 0.728
vn 0.5089 0.2941 -0.809
vn 0.0745 -0.129 -0.9888
vn 0.0666 0.0385 -0.997
vn -0.4287 -0.4198 -0.8
vn -0.8888 -0.3416 -0.3056
vn -0.8234 -0.4759 0.309
vn -0.9234 -0.3549 0.1464
vn -0.5613 -0.3244 0.7614
vn 0.5089 0.2941 0.809
vn 0.9234 0.3549 0.1464
vn 0.8234 0.4759 0.309
vn 0.9234 0.3549 -0.1464
vn -0.0745 0.129 -0.9888
vn -0.6822 -0.2158 -0.6986
vn -0.6857 -0.2363 -0.6885
vn -0.5778 -0.1619 0.8
vn 0.0666 0.0385 0.997
vn -0.0745 0.129 0.9888
vn 0.8234 0.4759 -0.309
vn 0.1342 0.7342 -0.6656
vn -0.2182 0.3776 -0.8999
vn -0.2068 0.5509 -0.8086
vn -0.6762 0.1129 -0.728
vn -0.9304 0.1326 0.3418
vn -0.7031 0.2502 0.6656
vn -0.373 0.6453 0.6667
vn 0.1342 0.7342 0.6656
vn 0.393 0.8837 0.2542
vn -0.6791 0.6315 -0.3743
vn -0.0229 0.572 0.8199
vn 0.2825 0.9593 -0.0
vn 0.393 0.8837 -0.2542
vn -0.2008 0.9021 -0.3821
vn -0.6365 0.5686 -0.521
vn -0.7637 0.5879 -0.2667
vn -0.8586 0.4863 -0.1625
vn -0.8893 0.4571 -0.016
vn -0.6814 0.6243 0.3821
vn -0.3751 0.8651 0.333
vn -0.1656 0.9862 -0.0
vn -0.3474 0.9301 0.1196
vn -0.0 -0.005 -1.0
vn 0.0001 -0.005 -1.0
vn 0.0012 0.0178 -0.9998
vn -0.0027 0.0194 -0.9998
vn -0.0062 0.0547 -0.9985
vn 0.0865 0.0059 -0.9962
vn 0.0772 0.0053 -0.997
vn 0.0491 -0.0187 -0.9986
vn 0.1039 -0.0403 -0.9938
vn 0.3986 0.1174 -0.9096
vn 0.2032 0.279 -0.9385
vn -0.2137 0.1369 -0.9673
vn -0.0264 0.0175 -0.9995
vn 0.0172 0.1035 -0.9945
vn -0.0499 0.1175 -0.9918
vn -0.8655 0.0356 -0.4997
vn -0.8651 0.0357 -0.5003
vn -0.8658 -0.0618 -0.4965
vn -0.8641 -0.0635 -0.4994
vn -0.3855 0.3206 -0.8652
vn -0.8639 0.1225 -0.4886
vn -0.2626 0.5012 -0.8245
vn -0.892 0.3534 -0.2818
vn 0.1462 0.8158 -0.5596
vn 0.1049 0.7827 -0.6135
vn 0.3802 0.6848 -0.6217
vn 0.3684 0.6 -0.7102
vn 0.0715 0.7403 -0.6685
vn 0.0824 0.7626 -0.6416
vn -0.2845 0.7367 -0.6135
vn -0.2361 0.3461 -0.908
vn -0.865 0.0488 0.4994
vn -0.8649 0.0489 0.4996
vn -0.8647 -0.0642 0.4982
vn -0.5046 0.2305 0.832
vn -0.8663 0.1228 0.4842
vn -0.4805 -0.1735 0.8597
vn -0.4171 0.7962 0.4382
vn -0.3185 0.7719 0.5503
vn 0.1462 0.8149 0.5609
vn 0.1048 0.7817 0.6148
vn 0.4059 0.6708 0.6207
vn 0.3608 0.6496 0.6692
vn 0.4047 0.6202 0.672
vn 0.3679 0.5989 0.7113
vn 0.3567 0.6059 0.7111
vn -0.0274 0.2234 0.9743
vn -0.2266 0.2689 0.9361
vn -0.3959 0.6904 0.6055
vn -0.0 0.0215 0.9998
vn 0.0007 0.0216 0.9998
vn 0.0005 0.0185 0.9998
vn 0.0296 0.0535 0.9981
vn 0.0175 0.031 0.9994
vn 0.0864 0.0044 0.9962
vn 0.0522 0.0024 0.9986
vn 0.0738 -0.0567 0.9957
vn 0.074 -0.0569 0.9956
vn 0.0809 -0.0523 0.9953
vn 0.0068 -0.005 1.0
vn -0.0038 -0.0008 1.0
vn 0.8659 -0.0192 0.4999
vn 0.8658 -0.0193 0.5
vn 0.8643 0.0928 0.4943
vn 0.8611 0.0955 0.4995
vn 0.8674 -0.0019 0.4976
vn 0.861 -0.0108 0.5085
vn -0.1285 -0.8174 0.5615
vn -0.1697 -0.8131 0.5568
vn 0.3446 -0.4938 0.7984
vn -0.3513 -0.2636 0.8984
vn -0.2332 -0.7231 0.6502
vn -0.2276 -0.7259 0.6491
vn -0.1333 -0.7579 0.6386
vn 0.4238 -0.6973 0.578
vn 0.4191 -0.6837 0.5974
vn 0.8656 -0.0326 -0.4997
vn 0.8655 -0.0326 -0.4998
vn 0.8629 0.0921 -0.4969
vn 0.8604 0.0941 -0.5008
vn 0.8667 -0.0019 -0.4989
vn 0.8602 -0.0108 -0.5098
vn -0.1266 -0.8167 -0.563
vn -0.1014 -0.8186 -0.5653
vn -0.1601 -0.7676 -0.6206
vn -0.2394 -0.7427 -0.6254
vn -0.2116 -0.7324 -0.6472
vn -0.2272 -0.7249 -0.6503
vn -0.1199 -0.9928 -0.001
vn -0.3322 -0.9432 -0.001
vn -0.1134 -0.6129 -0.782
vn 0.4387 -0.6696 -0.5993
vn 0.4403 -0.6746 -0.5924
vn 0.2275 0.1922 -0.9546
vn 0.2296 0.1924 -0.9541
vn 0.2272 -0.0857 -0.9701
vn 0.2459 -0.0899 -0.9651
vn 0.2587 -0.2632 -0.9294
vn 0.2825 -0.2621 -0.9228
vn 0.3015 -0.3201 -0.8981
vn -0.2379 -0.341 -0.9095
vn -0.2279 -0.3702 -0.9006
vn 0.2564 -0.1359 -0.957
vn 0.1606 0.2277 -0.9604
vn 0.2832 0.222 -0.933
vn 0.3353 0.3848 -0.8599
vn 0.3709 0.3579 -0.8569
vn 0.1074 0.0511 -0.9929
vn 0.2481 0.0166 -0.9686
vn 0.2278 -0.1895 -0.9551
vn 0.2859 -0.1802 -0.9412
vn -0.7214 0.1184 -0.6823
vn -0.7284 0.1182 -0.6749
vn -0.6997 -0.1272 -0.703
vn -0.7144 -0.1336 -0.6869
vn -0.666 -0.4018 -0.6285
vn -0.6717 -0.4036 -0.6212
vn -0.6452 -0.4951 -0.5818
vn -0.7038 -0.2279 -0.6728
vn -0.665 0.3025 -0.6829
vn -0.6923 0.3074 -0.6529
vn -0.6163 0.5741 -0.5391
vn -0.6284 0.5699 -0.5294
vn -0.6761 0.0275 -0.7363
vn -0.7145 0.0145 -0.6995
vn -0.6814 -0.282 -0.6754
vn -0.696 -0.2823 -0.6602
vn -0.956 -0.0703 0.2849
vn -0.6853 -0.0815 0.7237
vn -0.6859 -0.1078 0.7197
vn -0.9607 -0.0276 0.2763
vn -0.9499 -0.1215 0.2881
vn -0.9469 -0.1202 0.2984
vn -0.9382 -0.1495 0.3121
vn -0.9379 -0.1478 0.3137
vn -0.9643 -0.0672 0.2563
vn -0.9593 -0.0533 0.2773
vn -0.9673 0.1336 0.2156
vn -0.7248 -0.0902 0.683
vn -0.7265 -0.0921 0.681
vn -0.9624 0.0235 0.2706
vn -0.9615 -0.0941 0.2582
vn -0.9532 -0.0873 0.2893
vn -0.2279 -0.1833 0.9563
vn 0.2559 0.2658 0.9295
vn 0.2547 0.2746 0.9272
vn -0.289 0.2817 0.9149
vn -0.3113 0.3511 0.8831
vn -0.322 0.3427 0.8825
vn -0.2392 0.1798 0.9542
vn -0.2628 0.1655 0.9506
vn -0.2129 -0.0444 0.9761
vn -0.7072 -0.0612 0.7044
vn -0.7198 -0.0998 0.687
vn -0.2504 -0.0505 0.9668
vn -0.2269 0.1966 0.9539
vn -0.2887 0.1869 0.939
vn 0.7224 -0.1063 0.6833
vn 0.728 -0.1062 0.6773
vn 0.695 0.1488 0.7035
vn 0.8952 0.4282 0.1234
vn 0.9423 0.2724 0.1945
vn 0.6397 0.5182 0.5676
vn 0.6951 0.2379 0.6784
vn 0.6823 -0.3617 0.6353
vn 0.618 -0.57 0.5414
vn 0.63 -0.5654 0.5324
vn 0.6819 -0.0839 0.7266
vn 0.9673 0.0307 0.2516
vn 0.9401 0.2226 0.2583
vn 0.9551 0.2182 0.2004
vn 0.955 0.0832 -0.2846
vn 0.9574 0.0829 -0.2766
vn 0.9578 0.062 -0.2808
vn 0.9577 0.062 -0.2809
vn 0.9437 0.1561 -0.2918
vn 0.9257 0.1772 -0.3342
vn 0.9542 0.1019 -0.2813
vn 0.916 0.3652 0.1657
vn 0.9145 -0.2589 0.3108
vn 0.874 -0.3004 -0.3819
vn 0.9291 -0.1728 -0.3269
vn 0.9273 -0.1613 -0.3378
vn 0.9898 -0.0035 -0.1426
vn -0.5225 0.0081 -0.8526
vn -0.5226 0.0081 -0.8525
vn -0.5054 -0.2406 -0.8287
vn -0.558 -0.2271 -0.7982
vn -0.5855 -0.3184 -0.7455
vn -0.601 -0.3104 -0.7365
vn -0.4179 -0.0681 -0.906
vn -0.1089 -0.4549 -0.8838
vn -0.0368 -0.2768 -0.9602
vn -0.5248 -0.0638 -0.8489
vn -0.4943 0.1152 -0.8616
vn -0.5332 0.1185 -0.8376
vn -0.5559 0.3106 -0.771
vn -0.6067 0.2848 -0.7422
vn -0.6182 0.301 -0.7261
vn -0.8769 -0.0157 -0.4805
vn -0.8522 -0.0843 -0.5163
vn -0.5243 -0.0514 -0.85
vn -0.532 -0.1798 -0.8274
vn -0.5574 -0.173 -0.812
vn -0.5138 -0.0849 -0.8537
vn -0.5292 -0.0801 -0.8447
vn -0.9997 -0.001 0.0262
vn -0.9997 -0.001 0.0263
vn -0.957 0.289 0.0267
vn -0.9603 0.2756 -0.043
vn -0.9078 0.4042 -0.1118
vn -0.949 0.3074 -0.0697
vn -0.9924 0.1067 0.0617
vn -0.9961 0.0862 0.0183
vn -0.99 -0.1298 0.0551
vn -0.8482 -0.0638 0.5259
vn -0.6496 -0.6998 0.2972
vn -0.9352 -0.3359 -0.1124
vn -0.922 -0.3612 -0.1392
vn -0.9048 0.0122 -0.4257
vn -0.8797 -0.0214 -0.475
vn -0.8467 0.1574 0.5082
vn -0.8243 0.2957 0.4828
vn -0.9747 0.2198 -0.0406
vn -0.9935 0.11 0.0281
vn -0.9944 0.1054 0.01
vn -0.4771 -0.0022 0.8788
vn -0.421 0.4763 0.772
vn -0.4133 0.4777 0.7752
vn -0.3218 0.7115 0.6247
vn -0.6662 0.7195 0.1962
vn -0.7977 0.3608 0.4832
vn -0.3871 0.5568 0.7349
vn -0.4773 0.1497 0.8659
vn -0.472 0.1476 0.8691
vn -0.4655 -0.255 0.8475
vn -0.3361 -0.6735 0.6584
vn -0.3202 -0.7044 0.6335
vn -0.3193 -0.7042 0.6342
vn -0.4388 -0.3936 0.8078
vn -0.4339 -0.3926 0.8109
vn -0.4842 0.0855 0.8708
vn 0.1106 0.3957 0.9117
vn 0.0034 0.1188 0.9929
vn -0.468 0.1902 0.863
vn 0.5225 0.0056 0.8526
vn 0.8719 0.1209 0.4745
vn 0.8787 -0.0261 0.4767
vn 0.6043 0.3154 0.7317
vn 0.566 0.2589 0.7827
vn 0.5727 0.251 0.7804
vn 0.5934 0.3 0.7469
vn 0.8788 -0.001 0.4772
vn 0.8576 -0.1335 0.4967
vn 0.5313 -0.1076 0.8403
vn 0.5564 -0.3206 0.7665
vn 0.8142 0.1079 0.5705
vn 0.8664 0.0391 0.4979
vn 0.689 -0.369 0.6238
vn 0.5135 -0.1847 0.838
vn 0.5483 -0.1614 0.8206
vn 0.4546 0.0483 0.8894
vn 0.5247 0.0557 0.8495
vn 0.5323 0.1944 0.8239
vn 0.8842 0.0359 0.4658
vn 0.9995 0.0147 -0.0262
vn 0.8751 -0.0253 0.4833
vn 0.821 -0.1589 0.5483
vn 0.9161 -0.3808 0.1254
vn 0.9524 -0.3011 0.0473
vn 0.9553 -0.2899 0.058
vn 0.9927 -0.1025 -0.0644
vn 0.9919 0.127 -0.0092
vn 0.9262 0.3726 0.0573
vn 0.9192 0.3624 0.1539
vn 0.9735 0.2279 -0.0174
vn 0.9787 0.204 0.0246
vn 0.9923 -0.0573 -0.1097
vn 0.9976 -0.0658 -0.02
vn 0.9755 -0.2202 0.0012
vn 0.9764 -0.213 0.0363
vn 0.9941 -0.1038 -0.032
vn 0.477 0.0159 -0.8787
vn 0.477 0.0159 -0.8788
vn 0.4098 -0.5174 -0.7512
vn 0.4005 -0.5195 -0.7548
vn 0.3194 -0.7161 -0.6206
vn 0.3163 -0.7167 -0.6215
vn 0.3901 -0.5528 -0.7364
vn 0.469 -0.1813 -0.8644
vn 0.4687 0.2249 -0.8542
vn 0.4639 0.2262 -0.8565
vn 0.3583 0.6416 -0.6782
vn 0.3508 0.6426 -0.6812
vn 0.3169 0.7105 -0.6283
vn 0.3159 0.7103 -0.629
vn 0.4435 0.3753 -0.8139
vn 0.4381 0.3739 -0.8174
vn 0.4833 -0.1258 -0.8664
vn 0.4736 -0.128 -0.8714
vn 0.4335 -0.4087 -0.8032
vn 0.4296 -0.4079 -0.8057
vn 0.4703 -0.1883 -0.8622
vn 0.4682 -0.1881 -0.8634
vn 0.2391 -0.959 -0.1524
vn 0.1276 -0.9608 -0.2463
vn -0.316 -0.8956 -0.3132
vn 0.1218 -0.9168 0.3802
vn 0.7435 -0.6687 -0.0
vn 0.1218 -0.9168 -0.3802
vn 0.513 -0.6271 -0.5862
vn 0.8058 -0.1842 -0.5627
vn 0.0908 -0.6831 -0.7246
vn -0.0194 -0.5881 -0.8086
vn -0.3172 -0.6276 -0.711
vn -0.3336 -0.885 -0.3249
vn -0.3139 -0.8899 0.331
vn -0.0565 -0.8534 0.5182
vn 0.0827 -0.8904 0.4475
vn 0.6251 -0.5025 0.5973
vn 0.6577 -0.7532 -0.0
vn 0.8091 -0.478 0.3418
vn 0.6452 -0.6493 -0.4026
vn 0.5818 -0.3626 -0.728
vn 0.0574 -0.4323 -0.8999
vn -0.4669 -0.5019 -0.728
vn -0.7155 -0.6806 -0.1579
vn -0.791 -0.545 -0.2781
vn -0.7155 -0.6806 0.1579
vn -0.791 -0.545 0.2781
vn -0.1973 -0.5374 0.8199
vn -0.3553 -0.4642 0.8113
vn -0.0868 -0.4285 0.8993
vn 0.5818 -0.3626 0.728
vn 0.5827 0.0774 -0.809
vn 0.0196 -0.1477 -0.9888
vn 0.0763 0.0101 -0.997
vn -0.5565 -0.2242 -0.8
vn -0.9519 0.0238 -0.3056
vn -0.9428 -0.1253 0.309
vn -0.9889 0.0247 0.1464
vn -0.6427 -0.0854 0.7614
vn 0.5827 0.0774 0.809
vn 0.9889 -0.0247 0.1464
vn 0.9428 0.1253 0.309
vn 0.9889 -0.0247 -0.1464
vn -0.0196 0.1477 -0.9888
vn -0.7129 0.0612 -0.6986
vn -0.7239 0.0436 -0.6885
vn -0.5958 0.0711 0.8
vn 0.0763 0.0101 0.997
vn -0.0196 0.1477 0.9888
vn 0.9428 0.1253 -0.309
vn 0.4045 0.6272 -0.6656
vn -0.0574 0.4323 -0.8999
vn 0.0194 0.5881 -0.8086
vn -0.5818 0.3626 -0.728
vn -0.8091 0.478 0.3418
vn -0.5542 0.4998 0.6656
vn -0.0982 0.7389 0.6667
vn 0.4045 0.6272 0.6656
vn 0.7008 0.6666 0.2542
vn -0.3863 0.843 -0.3743
vn 0.1973 0.5374 0.8199
vn 0.6275 0.7786 -0.0
vn 0.7008 0.6666 -0.2542
vn 0.1591 0.9103 -0.3821
vn -0.371 0.7687 -0.521
vn -0.4812 0.8351 -0.2667
vn -0.6077 0.7774 -0.1625
vn -0.6472 0.7622 -0.016
vn -0.3912 0.8372 0.3821
vn -0.0161 0.9428 0.333
vn 0.2237 0.9747 -0.0
vn 0.0343 0.9922 0.1196
vn -0.2098 -0.8428 -0.4956
vn -0.3066 -0.7627 -0.5694
vn -0.6713 -0.4939 -0.5526
vn -0.3157 -0.9484 0.0305
vn 0.3651 -0.8739 -0.321
vn -0.2872 -0.6758 -0.6789
vn 0.1998 -0.5301 -0.8241
vn 0.6587 -0.2975 -0.6911
vn -0.1974 -0.3454 -0.9175
vn -0.2501 -0.1892 -0.9496
vn -0.5375 -0.1288 -0.8333
vn -0.6819 -0.4733 -0.5577
vn -0.6912 -0.721 0.05
vn -0.4518 -0.8686 0.2036
vn -0.3414 -0.9338 0.1072
vn 0.3112 -0.8993 0.3074
vn 0.2506 -0.907 -0.3384
vn 0.4962 -0.8666 0.0535
vn 0.3011 -0.6712 -0.6774
vn 0.3849 -0.2897 -0.8763
vn -0.1083 -0.0604 -0.9923
vn -0.6144 0.0458 -0.7876
vn -0.9379 -0.1996 -0.2838
vn -0.9402 -0.0117 -0.3405
vn -0.9498 -0.3128 0.0108
vn -0.9611 -0.2111 0.1783
vn -0.4476 -0.6543 0.6095
vn -0.5557 -0.5226 0.6466
vn -0.3031 -0.6401 0.706
vn 0.3302 -0.8116 0.4819
vn 0.5857 0.1035 -0.8039
vn -0.0114 0.2236 -0.9746
vn 0.1102 0.3329 -0.9365
vn -0.5675 0.3403 -0.7497
vn -0.8284 0.5386 -0.154
vn -0.91 0.1909 0.368
vn -0.878 0.3933 0.2727
vn -0.6411 -0.0672 0.7645
vn 0.5248 -0.4764 0.7054
vn 0.867 -0.4983 0.0004
vn 0.8868 -0.4124 0.2086
vn 0.878 -0.3933 -0.2727
vn 0.0857 0.4852 -0.8702
vn -0.5833 0.6077 -0.539
vn -0.6014 0.5942 -0.534
vn -0.5306 0.0284 0.8472
vn 0.0352 -0.3818 0.9236
vn 0.0114 -0.2236 0.9746
vn 0.91 -0.1909 -0.368
vn 0.6671 0.5843 -0.4621
vn 0.176 0.7054 -0.6866
vn 0.3109 0.7687 -0.5589
vn -0.3302 0.8116 -0.4819
vn -0.5219 0.6216 0.5842
vn -0.2965 0.414 0.8606
vn 0.2179 0.4155 0.8831
vn 0.6171 0.1072 0.7796
vn 0.9148 0.1598 0.3708
vn 0.0461 0.9988 -0.0156
vn 0.386 0.0666 0.9201
vn 0.9091 0.3752 0.1808
vn 0.934 0.3421 -0.1035
vn 0.5639 0.8228 -0.0707
vn 0.0321 0.9832 -0.1795
vn -0.0463 0.9945 0.0943
vn -0.189 0.9637 0.1885
vn -0.2366 0.9156 0.3251
vn 0.0107 0.7251 0.6886
vn 0.395 0.6688 0.6298
vn 0.636 0.7114 0.299
vn 0.4702 0.7645 0.441
vn -0.5534 0.2159 -0.8045
vn -0.0 -0.0077 -1.0
vn 0.0001 -0.0077 -1.0
vn 0.0032 0.0608 -0.9981
vn -0.0084 -0.0928 -0.9956
vn -0.0285 -0.1726 -0.9846
vn -0.0238 -0.142 -0.9896
vn 0.0326 -0.0135 -0.9994
vn 0.0012 0.0019 -1.0
vn 0.0043 0.0487 -0.9988
vn -0.0026 0.0505 -0.9987
vn -0.0015 0.0371 -0.9993
vn -0.0008 0.0374 -0.9993
vn 0.0073 -0.1984 -0.9801
vn -0.0837 -0.2109 -0.9739
vn -0.3461 -0.4951 -0.7969
vn -0.3482 -0.2985 -0.8886
vn -0.2182 -0.3153 -0.9236
vn -0.2476 -0.2726 -0.9297
vn -0.8655 0.0332 -0.4997
vn -0.8652 0.0333 -0.5004
vn -0.8665 -0.0186 -0.4988
vn -0.8658 -0.0192 -0.5
vn -0.8626 0.1486 -0.4835
vn -0.9195 0.3909 -0.0408
vn -0.9849 0.173 -0.0099
vn -0.8165 0.2192 -0.5341
vn -0.8249 0.2005 -0.5286
vn -0.8242 0.1988 -0.5302
vn -0.8727 0.0535 -0.4854
vn -0.8641 0.0435 -0.5015
vn -0.8666 -0.0089 -0.499
vn -0.8661 -0.0092 -0.4998
vn -0.867 0.0141 -0.4982
vn -0.91 0.4041 -0.0931
vn -0.4808 0.8202 -0.3102
vn -0.733 0.3368 -0.591
vn -0.6645 0.3281 -0.6715
vn -0.6555 0.2893 -0.6976
vn -0.865 0.0495 0.4994
vn -0.8649 0.0496 0.4995
vn -0.8647 -0.0593 0.4987
vn -0.8646 -0.0594 0.499
vn -0.8417 0.2366 0.4854
vn -0.7899 0.4085 0.4574
vn -0.8036 0.3714 0.465
vn -0.3354 0.5323 0.7773
vn -0.5592 -0.1688 0.8116
vn -0.8648 0.0548 0.499
vn -0.8655 -0.0395 0.4993
vn -0.8655 -0.0395 0.4994
vn -0.8662 0.0022 0.4997
vn -0.9849 0.1733 0.0032
vn -0.9325 0.3612 0.0068
vn -0.3481 0.9117 0.2181
vn -0.5482 0.7706 0.3251
vn -0.5471 0.7703 0.3275
vn -0.0 0.0249 0.9997
vn 0.5019 0.0968 0.8595
vn 0.481 -0.2032 0.8528
vn -0.0004 -0.0171 0.9999
vn -0.0117 0.131 0.9913
vn 0.0197 0.1377 0.9903
vn 0.0381 0.2105 0.9768
vn 0.0527 0.2108 0.9761
vn 0.0441 0.193 0.9802
vn 0.0023 0.0521 0.9986
vn -0.0016 -0.0079 1.0
vn 0.4777 0.1763 0.8607
vn 0.5062 -0.1536 0.8486
vn -0.001 0.0141 0.9999
vn -0.0085 0.2349 0.972
vn 0.1086 0.2388 0.965
vn 0.5401 0.6845 0.4896
vn 0.5028 -0.0095 0.8644
vn 0.5046 -0.0099 0.8633
vn 0.8659 -0.0161 0.4999
vn 0.8629 0.0591 0.5019
vn 0.866 -0.1022 0.4895
vn 0.8551 -0.1076 0.5072
vn 0.8363 -0.1812 0.5175
vn 0.8328 -0.1816 0.5229
vn 0.8444 -0.1523 0.5136
vn 0.8432 -0.1495 0.5163
vn 0.8845 -0.0019 0.4666
vn 0.99 0.1409 -0.0057
vn 0.9962 -0.0866 0.0026
vn 0.8647 0.0379 0.5009
vn 0.8502 -0.2096 0.4829
vn 0.7956 -0.2237 0.5631
vn 0.4925 -0.5189 0.6987
vn 0.5 -0.0058 0.866
vn 0.8656 -0.0325 -0.4997
vn 0.8655 -0.0325 -0.4998
vn 0.8624 0.0961 -0.4971
vn 0.4686 0.2901 -0.8344
vn 0.4699 -0.4272 -0.7724
vn 0.8413 -0.2366 -0.486
vn 0.8 -0.3819 -0.4627
vn 0.5092 -0.1204 -0.8522
vn 0.3572 -0.4908 -0.7947
vn 0.8189 -0.3242 -0.4736
vn 0.8655 -0.0488 -0.4985
vn 0.8636 0.0773 -0.4983
vn 0.8651 0.0489 -0.4992
vn 0.8651 0.0489 -0.4991
vn 0.7336 -0.5319 -0.4229
vn 0.7303 -0.5346 -0.4253
vn 0.1146 -0.9904 -0.0777
vn 0.1046 -0.9908 -0.0854
vn 0.5389 -0.7792 -0.3201
vn 0.5378 -0.779 -0.3225
vn -0.4565 -0.0315 -0.8891
vn -0.4609 0.0597 -0.8854
vn -0.4692 0.2244 -0.8541
vn -0.5503 0.1904 -0.813
vn -0.5481 0.1884 -0.8149
vn -0.5528 0.1778 -0.8141
vn -0.6385 0.2378 -0.732
vn -0.8292 -0.0771 -0.5536
vn -0.813 -0.1147 -0.5709
vn -0.4601 0.0428 -0.8868
vn -0.4376 -0.107 -0.8928
vn -0.4837 -0.09 -0.8706
vn -0.9892 0.1385 -0.0488
vn -0.9886 0.1388 -0.0584
vn -0.9977 -0.0612 -0.0284
vn -0.879 0.1323 0.4581
vn -0.4226 -0.8874 0.1843
vn -0.8482 -0.4832 -0.2169
vn -0.8321 -0.5026 -0.2345
vn -0.8367 -0.4898 -0.2449
vn -0.9565 -0.2901 -0.03
vn -0.9971 -0.0558 -0.0522
vn -0.951 0.3089 -0.0101
vn -0.9495 0.2851 -0.1309
vn -0.5334 0.1775 0.827
vn -0.529 0.178 0.8297
vn -0.55 -0.0995 0.8292
vn -0.2728 -0.7275 0.6296
vn -0.2899 -0.7084 0.6435
vn -0.2841 -0.704 0.6509
vn -0.5075 -0.3793 0.7737
vn -0.4793 -0.367 0.7972
vn -0.5542 -0.0825 0.8283
vn -0.5396 -0.0783 0.8383
vn -0.5148 0.3885 0.7642
vn -0.4644 0.3871 0.7966
vn 0.4562 0.0497 0.8885
vn 0.4613 0.0496 0.8859
vn 0.452 -0.0011 0.892
vn 0.455 -0.0022 0.8905
vn 0.469 -0.2118 0.8574
vn 0.6323 0.2981 0.7151
vn 0.7556 0.1963 0.6249
vn 0.6946 -0.2795 0.6629
vn 0.4304 -0.0973 0.8974
vn 0.4658 -0.0678 0.8823
vn 0.4335 -0.0077 0.9011
vn 0.4548 0.0001 0.8906
vn 0.4342 0.1254 0.8921
vn 0.9912 -0.1227 0.0489
vn 0.9908 -0.1229 0.0561
vn 0.9953 0.0945 0.0233
vn 0.993 0.1047 0.0553
vn 0.8499 0.5195 0.088
vn 0.5515 0.8274 -0.1064
vn 0.8223 0.3692 -0.433
vn 0.9997 0.0257 0.0013
vn 0.996 0.0856 0.0267
vn 0.837 -0.0602 0.5439
vn 0.5347 -0.164 -0.829
vn 0.0542 -0.0396 -0.9977
vn 0.0741 0.0836 -0.9937
vn 0.5361 -0.2325 -0.8115
vn 0.3951 0.6469 -0.6522
vn 0.3363 0.652 -0.6796
vn 0.2706 0.7299 -0.6277
vn 0.483 0.3566 -0.7997
vn 0.551 0.1001 -0.8285
vn 0.8716 0.2173 -0.4394
vn 0.7867 -0.4479 -0.4247
vn 0.4605 -0.396 -0.7944
vn 0.1107 -0.9821 -0.1524
vn -0.0 -0.9692 -0.2463
vn -0.4311 -0.8462 -0.3132
vn -0.0 -0.9249 0.3802
vn 0.649 -0.7608 -0.0
vn -0.0 -0.9249 -0.3802
vn 0.4259 -0.6892 -0.5862
vn 0.7746 -0.2888 -0.5627
vn -0.0 -0.6892 -0.7246
vn -0.0967 -0.5804 -0.8086
vn -0.3971 -0.5804 -0.711
vn -0.4472 -0.8333 -0.3249
vn -0.4284 -0.8408 0.331
vn -0.1684 -0.8385 0.5182
vn -0.0353 -0.8936 0.4475
vn 0.5535 -0.5804 0.5973
vn 0.5528 -0.8333 -0.0
vn 0.7391 -0.5804 0.3418
vn 0.5541 -0.7286 -0.4026
vn 0.529 -0.4361 -0.728
vn -0.0 -0.4361 -0.8999
vn -0.529 -0.4361 -0.728
vn -0.7989 -0.5804 -0.1579
vn -0.8559 -0.4361 -0.2781
vn -0.7989 -0.5804 0.1579
vn -0.8559 -0.4361 0.2781
vn -0.2664 -0.5067 0.8199
vn -0.4134 -0.4134 0.8113
vn -0.1424 -0.4134 0.8993
vn 0.529 -0.4361 0.728
vn 0.5878 -0.0 -0.809
vn -0.0 -0.149 -0.9888
vn 0.077 -0.0 -0.997
vn -0.5812 -0.149 -0.8
vn -0.9404 0.149 -0.3056
vn -0.9511 -0.0 0.309
vn -0.977 0.1548 0.1464
vn -0.6483 -0.0 0.7614
vn 0.5878 -0.0 0.809
vn 0.977 -0.1547 0.1464
vn 0.9511 -0.0 0.309
vn 0.977 -0.1548 -0.1464
vn -0.0 0.149 -0.9888
vn -0.6986 0.1546 -0.6986
vn -0.7119 0.1385 -0.6885
vn -0.5812 0.149 0.8
vn 0.077 -0.0 0.997
vn -0.0 0.149 0.9888
vn 0.9511 -0.0 -0.309
vn 0.4836 0.5685 -0.6656
vn -0.0 0.4361 -0.8999
vn 0.0967 0.5804 -0.8086
vn -0.5289 0.4361 -0.728
vn -0.7391 0.5804 0.3418
vn -0.4836 0.5685 0.6656
vn -0.0 0.7454 0.6667
vn 0.4836 0.5685 0.6656
vn 0.7824 0.5685 0.2542
vn -0.2719 0.8865 -0.3743
vn 0.2664 0.5067 0.8199
vn 0.7246 0.6892 -0.0
vn 0.7824 0.5685 -0.2542
vn 0.2776 0.8815 -0.3821
vn -0.2666 0.8108 -0.521
vn -0.3671 0.8912 -0.2667
vn -0.5 0.8507 -0.1625
vn -0.5412 0.8408 -0.016
vn -0.2776 0.8815 0.382
vn 0.1082 0.9367 0.333
vn 0.3501 0.9367 -0.0
vn 0.1647 0.9791 0.1196
vn 0.264 0.8791 0.397
usemtl Elf_bush_Map
f 1//1 4//1 3//1
f 1//2 5//2 4//2
f 1//3 6//3 5//3
f 1//4 2//4 7//4
f 2//5 3//5 7//5
f 2//6 1//6 3//6
f 4//7 9//7 3//7
f 3//8 9//8 8//8
f 4//9 5//9 9//9
f 9//10 5//10 10//10
f 5//11 11//11 10//11
f 5//12 6//12 11//12
f 6//13 1//13 12//13
f 12//14 1//14 13//14
f 1//15 7//15 13//15
f 7//16 14//16 13//16
f 3//17 8//17 7//17
f 7//18 8//18 14//18
f 8//19 9//19 15//19
f 15//20 9//20 16//20
f 9//21 10//21 16//21
f 10//22 11//22 17//22
f 6//23 18//23 11//23
f 11//24 18//24 17//24
f 6//25 12//25 18//25
f 18//26 12//26 19//26
f 13//27 20//27 12//27
f 12//28 20//28 19//28
f 13//29 21//29 20//29
f 13//30 14//30 21//30
f 15//31 16//31 22//31
f 10//32 23//32 16//32
f 16//33 23//33 22//33
f 10//34 17//34 23//34
f 17//35 18//35 24//35
f 19//36 25//36 18//36
f 18//37 25//37 24//37
f 19//38 20//38 25//38
f 21//39 14//39 26//39
f 8//40 27//40 14//40
f 14//41 27//41 26//41
f 8//42 15//42 27//42
f 15//31 22//31 28//31
f 22//43 23//43 29//43
f 17//44 30//44 23//44
f 23//45 30//45 29//45
f 17//35 24//35 30//35
f 25//46 20//46 31//46
f 21//47 32//47 20//47
f 20//48 32//48 31//48
f 21//39 26//39 32//39
f 27//49 15//49 28//49
f 28//50 22//50 33//50
f 29//51 34//51 22//51
f 22//52 34//52 33//52
f 29//53 30//53 34//53
f 24//54 25//54 35//54
f 25//55 31//55 35//55
f 31//56 32//56 36//56
f 32//57 26//57 36//57
f 26//58 27//58 36//58
f 28//50 33//50 37//50
f 33//59 34//59 30//59
f 35//55 31//55 38//55
f 31//60 36//60 38//60
f 36//61 27//61 37//61
f 27//62 28//62 37//62
f 37//63 33//63 39//63
f 33//64 30//64 39//64
f 39//65 30//65 40//65
f 30//66 24//66 40//66
f 24//67 35//67 40//67
f 35//68 38//68 40//68
f 38//69 36//69 40//69
f 36//70 37//70 39//70
f 36//71 39//71 40//71
f 41//72 42//72 47//72
f 47//73 42//73 56//73
f 47//74 56//74 48//74
f 48//75 56//75 57//75
f 48//76 57//76 49//76
f 49//77 57//77 58//77
f 49//78 58//78 50//78
f 59//79 51//79 50//79
f 60//80 52//80 59//80
f 59//81 52//81 51//81
f 60//82 61//82 52//82
f 52//83 61//83 53//83
f 54//84 53//84 62//84
f 62//85 53//85 61//85
f 62//86 63//86 54//86
f 54//87 63//87 55//87
f 42//88 43//88 56//88
f 56//89 43//89 64//89
f 56//90 64//90 57//90
f 57//91 65//91 58//91
f 65//92 66//92 58//92
f 58//93 66//93 50//93
f 67//94 59//94 66//94
f 66//95 59//95 50//95
f 60//96 59//96 67//96
f 60//97 68//97 61//97
f 62//98 61//98 69//98
f 69//99 61//99 68//99
f 69//100 70//100 62//100
f 62//101 70//101 63//101
f 44//102 71//102 43//102
f 43//103 71//103 64//103
f 71//104 72//104 64//104
f 64//105 72//105 57//105
f 57//106 72//106 65//106
f 65//107 72//107 73//107
f 73//108 74//108 65//108
f 65//109 74//109 66//109
f 75//110 67//110 74//110
f 74//111 67//111 66//111
f 76//112 60//112 75//112
f 75//113 60//113 67//113
f 60//114 76//114 68//114
f 68//115 76//115 77//115
f 78//116 69//116 77//116
f 77//117 69//117 68//117
f 69//118 78//118 70//118
f 70//119 78//119 79//119
f 45//120 80//120 44//120
f 44//121 80//121 71//121
f 80//122 81//122 71//122
f 71//123 81//123 72//123
f 81//124 82//124 72//124
f 72//125 82//125 73//125
f 82//126 83//126 73//126
f 73//127 83//127 74//127
f 84//128 75//128 83//128
f 83//129 75//129 74//129
f 85//130 76//130 84//130
f 84//131 76//131 75//131
f 76//132 85//132 77//132
f 77//133 85//133 86//133
f 78//134 77//134 86//134
f 78//135 87//135 79//135
f 45//136 46//136 80//136
f 80//137 88//137 81//137
f 88//138 89//138 81//138
f 81//139 89//139 82//139
f 82//140 89//140 83//140
f 83//141 89//141 90//141
f 84//142 83//142 90//142
f 91//143 85//143 84//143
f 85//144 91//144 86//144
f 86//145 91//145 53//145
f 92//146 78//146 53//146
f 53//147 78//147 86//147
f 78//148 92//148 87//148
f 41//149 47//149 46//149
f 46//150 47//150 80//150
f 80//151 47//151 88//151
f 88//152 47//152 48//152
f 88//153 48//153 89//153
f 89//154 48//154 49//154
f 49//155 50//155 89//155
f 89//156 50//156 90//156
f 50//157 51//157 90//157
f 90//158 51//158 84//158
f 52//159 91//159 51//159
f 51//160 91//160 84//160
f 91//161 52//161 53//161
f 53//162 54//162 92//162
f 54//163 55//163 92//163
f 92//164 55//164 87//164
f 94//165 93//165 99//165
f 99//166 93//166 110//166
f 99//167 110//167 100//167
f 100//168 111//168 101//168
f 111//169 112//169 101//169
f 101//170 112//170 102//170
f 112//171 113//171 102//171
f 102//172 113//172 103//172
f 103//173 113//173 104//173
f 104//174 114//174 105//174
f 114//175 115//175 105//175
f 105//176 115//176 106//176
f 115//177 116//177 106//177
f 106//178 116//178 107//178
f 116//179 117//179 107//179
f 107//180 117//180 108//180
f 108//181 117//181 109//181
f 109//182 117//182 118//182
f 93//183 95//183 110//183
f 110//184 95//184 119//184
f 110//185 119//185 100//185
f 100//186 119//186 120//186
f 100//187 120//187 111//187
f 111//188 120//188 121//188
f 111//189 121//189 112//189
f 112//190 121//190 122//190
f 112//191 122//191 113//191
f 113//192 122//192 123//192
f 123//193 124//193 113//193
f 113//194 124//194 104//194
f 124//195 125//195 104//195
f 104//196 125//196 114//196
f 125//197 126//197 114//197
f 114//198 126//198 115//198
f 126//199 127//199 115//199
f 115//200 127//200 116//200
f 116//201 127//201 117//201
f 117//202 128//202 118//202
f 96//203 129//203 95//203
f 95//203 129//203 119//203
f 129//204 130//204 119//204
f 119//205 130//205 120//205
f 130//206 131//206 120//206
f 120//207 131//207 121//207
f 131//208 132//208 121//208
f 121//209 132//209 122//209
f 122//210 132//210 123//210
f 123//211 133//211 124//211
f 124//212 133//212 125//212
f 125//213 133//213 134//213
f 125//214 134//214 126//214
f 126//215 134//215 135//215
f 126//216 135//216 127//216
f 127//217 135//217 136//217
f 127//218 136//218 117//218
f 117//219 136//219 137//219
f 137//220 138//220 117//220
f 117//221 138//221 128//221
f 97//222 139//222 96//222
f 96//223 139//223 129//223
f 139//224 140//224 129//224
f 129//225 140//225 130//225
f 140//226 141//226 130//226
f 130//227 141//227 131//227
f 131//228 141//228 132//228
f 132//229 141//229 142//229
f 132//230 142//230 123//230
f 123//231 142//231 143//231
f 123//232 143//232 133//232
f 133//233 143//233 144//233
f 133//234 144//234 134//234
f 134//235 144//235 145//235
f 134//236 145//236 135//236
f 135//237 146//237 136//237
f 136//238 146//238 137//238
f 137//239 146//239 147//239
f 137//240 147//240 138//240
f 97//241 98//241 139//241
f 139//242 148//242 140//242
f 140//243 148//243 141//243
f 141//244 102//244 142//244
f 102//245 149//245 142//245
f 142//246 149//246 143//246
f 143//247 149//247 144//247
f 144//248 149//248 150//248
f 144//249 150//249 145//249
f 145//250 151//250 135//250
f 135//251 151//251 146//251
f 146//252 151//252 107//252
f 107//253 152//253 146//253
f 146//254 152//254 147//254
f 152//255 153//255 147//255
f 147//256 153//256 138//256
f 94//257 99//257 98//257
f 98//258 99//258 139//258
f 139//259 99//259 148//259
f 148//260 99//260 100//260
f 148//261 100//261 141//261
f 141//262 100//262 101//262
f 141//263 101//263 102//263
f 102//264 103//264 149//264
f 103//265 104//265 149//265
f 149//266 104//266 150//266
f 104//267 105//267 150//267
f 150//268 105//268 145//268
f 145//269 105//269 151//269
f 151//270 105//270 106//270
f 151//271 106//271 107//271
f 107//272 108//272 152//272
f 152//273 108//273 153//273
f 153//274 108//274 109//274
f 154//275 157//275 156//275
f 154//276 158//276 157//276
f 154//277 159//277 158//277
f 154//278 155//278 160//278
f 155//279 156//279 160//279
f 155//280 154//280 156//280
f 157//281 162//281 156//281
f 156//282 162//282 161//282
f 157//283 158//283 162//283
f 162//284 158//284 163//284
f 158//285 164//285 163//285
f 158//286 159//286 164//286
f 159//287 154//287 165//287
f 165//288 154//288 166//288
f 154//289 160//289 166//289
f 160//290 167//290 166//290
f 156//291 161//291 160//291
f 160//292 161//292 167//292
f 161//293 162//293 168//293
f 168//294 162//294 169//294
f 162//295 163//295 169//295
f 163//296 164//296 170//296
f 159//297 171//297 164//297
f 164//298 171//298 170//298
f 159//299 165//299 171//299
f 171//300 165//300 172//300
f 166//301 173//301 165//301
f 165//302 173//302 172//302
f 166//303 174//303 173//303
f 166//304 167//304 174//304
f 168//305 169//305 175//305
f 163//306 176//306 169//306
f 169//307 176//307 175//307
f 163//308 170//308 176//308
f 170//309 171//309 177//309
f 172//310 178//310 171//310
f 171//311 178//311 177//311
f 172//312 173//312 178//312
f 174//313 167//313 179//313
f 161//314 180//314 167//314
f 167//315 180//315 179//315
f 161//316 168//316 180//316
f 168//305 175//305 181//305
f 175//317 176//317 182//317
f 170//318 183//318 176//318
f 176//319 183//319 182//319
f 170//309 177//309 183//309
f 178//320 173//320 184//320
f 174//321 185//321 173//321
f 173//322 185//322 184//322
f 174//313 179//313 185//313
f 180//323 168//323 181//323
f 181//324 175//324 186//324
f 182//325 187//325 175//325
f 175//326 187//326 186//326
f 182//327 183//327 187//327
f 177//328 178//328 188//328
f 178//329 184//329 188//329
f 184//330 185//330 189//330
f 185//331 179//331 189//331
f 179//332 180//332 189//332
f 181//324 186//324 190//324
f 186//333 187//333 183//333
f 188//329 184//329 191//329
f 184//334 189//334 191//334
f 189//335 180//335 190//335
f 180//336 181//336 190//336
f 190//337 186//337 192//337
f 186//338 183//338 192//338
f 192//339 183//339 193//339
f 183//340 177//340 193//340
f 177//341 188//341 193//341
f 188//342 191//342 193//342
f 191//343 189//343 193//343
f 189//344 190//344 192//344
f 189//345 192//345 193//345
f 194//346 209//346 195//346
f 195//347 209//347 200//347
f 200//348 209//348 201//348
f 201//349 209//349 210//349
f 202//350 201//350 210//350
f 202//351 211//351 203//351
f 203//352 211//352 204//352
f 204//353 211//353 212//353
f 204//354 212//354 205//354
f 205//355 212//355 213//355
f 205//356 213//356 206//356
f 206//357 213//357 214//357
f 206//358 214//358 207//358
f 207//359 214//359 215//359
f 207//360 215//360 208//360
f 196//361 216//361 194//361
f 194//362 216//362 209//362
f 209//363 216//363 210//363
f 210//364 216//364 217//364
f 202//365 210//365 218//365
f 218//366 210//366 217//366
f 218//367 219//367 202//367
f 202//368 219//368 211//368
f 211//369 219//369 212//369
f 212//370 219//370 220//370
f 212//371 220//371 213//371
f 213//372 221//372 214//372
f 214//373 221//373 215//373
f 215//374 221//374 222//374
f 215//375 222//375 208//375
f 208//376 222//376 223//376
f 196//377 197//377 216//377
f 216//378 197//378 224//378
f 216//379 224//379 217//379
f 217//380 224//380 225//380
f 218//381 217//381 226//381
f 226//382 217//382 225//382
f 218//383 226//383 219//383
f 219//384 226//384 227//384
f 227//385 228//385 219//385
f 219//386 228//386 220//386
f 228//387 229//387 220//387
f 220//388 229//388 213//388
f 229//389 230//389 213//389
f 213//390 230//390 221//390
f 230//391 231//391 221//391
f 221//392 231//392 222//392
f 231//393 232//393 222//393
f 222//394 232//394 223//394
f 197//395 198//395 224//395
f 224//396 198//396 233//396
f 224//397 233//397 225//397
f 234//398 226//398 225//398
f 226//399 234//399 227//399
f 227//400 234//400 235//400
f 227//401 235//401 228//401
f 228//402 236//402 229//402
f 236//403 237//403 229//403
f 229//404 237//404 230//404
f 230//405 237//405 231//405
f 231//406 238//406 232//406
f 198//407 199//407 233//407
f 233//408 199//408 239//408
f 239//409 240//409 233//409
f 233//410 240//410 225//410
f 240//411 234//411 225//411
f 240//412 241//412 234//412
f 234//413 241//413 235//413
f 241//414 242//414 235//414
f 235//415 242//415 228//415
f 228//416 242//416 236//416
f 236//417 242//417 243//417
f 236//418 243//418 237//418
f 237//419 244//419 231//419
f 244//420 245//420 231//420
f 231//421 245//421 238//421
f 195//422 200//422 199//422
f 199//423 200//423 239//423
f 239//424 200//424 240//424
f 240//425 200//425 201//425
f 201//426 202//426 240//426
f 240//427 202//427 241//427
f 241//428 202//428 203//428
f 203//429 204//429 241//429
f 241//430 204//430 242//430
f 242//431 204//431 243//431
f 243//432 204//432 205//432
f 205//433 206//433 243//433
f 243//434 206//434 237//434
f 237//435 206//435 244//435
f 244//436 206//436 207//436
f 244//437 207//437 245//437
f 245//438 207//438 208//438
f 246//439 261//439 247//439
f 247//440 261//440 252//440
f 252//441 261//441 253//441
f 253//442 261//442 262//442
f 253//443 262//443 254//443
f 254//444 262//444 263//444
f 254//445 263//445 255//445
f 255//446 263//446 264//446
f 264//447 265//447 255//447
f 255//448 265//448 256//448
f 265//449 266//449 256//449
f 256//450 266//450 257//450
f 257//451 266//451 258//451
f 258//452 266//452 267//452
f 258//453 267//453 259//453
f 259//454 267//454 268//454
f 259//455 268//455 260//455
f 260//456 268//456 269//456
f 246//457 248//457 261//457
f 261//458 248//458 270//458
f 270//459 271//459 261//459
f 261//460 271//460 262//460
f 271//461 272//461 262//461
f 262//462 272//462 263//462
f 263//463 272//463 264//463
f 264//464 273//464 265//464
f 265//465 273//465 266//465
f 266//466 273//466 274//466
f 274//467 275//467 266//467
f 266//468 275//468 267//468
f 275//469 276//469 267//469
f 267//470 276//470 268//470
f 276//471 277//471 268//471
f 268//472 277//472 269//472
f 248//473 249//473 270//473
f 270//474 249//474 278//474
f 278//475 279//475 270//475
f 270//476 279//476 271//476
f 279//477 280//477 271//477
f 271//478 280//478 272//478
f 272//479 280//479 264//479
f 264//480 280//480 281//480
f 264//481 281//481 273//481
f 273//482 281//482 282//482
f 273//483 282//483 274//483
f 274//484 283//484 275//484
f 283//485 284//485 275//485
f 275//486 284//486 276//486
f 284//487 285//487 276//487
f 276//488 285//488 277//488
f 249//489 250//489 278//489
f 278//490 286//490 279//490
f 286//491 287//491 279//491
f 279//492 287//492 280//492
f 280//493 287//493 281//493
f 281//494 287//494 288//494
f 281//495 288//495 282//495
f 282//496 288//496 289//496
f 282//497 289//497 274//497
f 274//498 289//498 290//498
f 274//499 290//499 283//499
f 283//500 291//500 284//500
f 291//501 292//501 284//501
f 284//502 292//502 285//502
f 251//503 293//503 250//503
f 250//504 293//504 278//504
f 278//505 293//505 286//505
f 286//506 254//506 287//506
f 254//507 294//507 287//507
f 287//508 294//508 288//508
f 288//509 294//509 289//509
f 289//510 295//510 290//510
f 290//511 295//511 283//511
f 283//512 295//512 296//512
f 283//513 296//513 291//513
f 291//514 296//514 259//514
f 291//515 259//515 292//515
f 292//516 259//516 260//516
f 247//517 252//517 251//517
f 251//518 252//518 293//518
f 293//519 252//519 286//519
f 286//520 252//520 253//520
f 286//521 253//521 254//521
f 254//522 255//522 294//522
f 255//523 256//523 294//523
f 294//524 256//524 289//524
f 256//525 257//525 289//525
f 289//526 257//526 295//526
f 295//527 257//527 296//527
f 296//528 257//528 258//528
f 296//529 258//529 259//529
f 298//530 297//530 303//530
f 303//531 297//531 315//531
f 315//532 316//532 303//532
f 303//533 316//533 304//533
f 316//534 317//534 304//534
f 304//535 317//535 305//535
f 305//536 317//536 306//536
f 306//537 317//537 318//537
f 306//538 318//538 307//538
f 307//539 318//539 319//539
f 307//540 319//540 308//540
f 308//541 319//541 320//541
f 308//542 320//542 309//542
f 309//543 320//543 321//543
f 309//544 321//544 310//544
f 310//545 322//545 311//545
f 322//546 323//546 311//546
f 311//547 323//547 312//547
f 323//548 324//548 312//548
f 312//549 324//549 313//549
f 313//550 324//550 314//550
f 314//551 324//551 325//551
f 297//552 299//552 315//552
f 315//553 299//553 326//553
f 326//554 327//554 315//554
f 315//555 327//555 316//555
f 316//556 327//556 317//556
f 317//557 328//557 318//557
f 318//558 328//558 319//558
f 319//559 328//559 329//559
f 319//560 329//560 320//560
f 320//561 329//561 330//561
f 330//562 331//562 320//562
f 320//563 331//563 321//563
f 331//564 332//564 321//564
f 321//565 332//565 310//565
f 310//566 332//566 322//566
f 322//567 333//567 323//567
f 333//568 334//568 323//568
f 323//569 334//569 324//569
f 324//570 334//570 325//570
f 325//571 334//571 335//571
f 300//572 336//572 299//572
f 299//572 336//572 326//572
f 326//573 336//573 327//573
f 327//574 336//574 337//574
f 337//575 338//575 327//575
f 327//576 338//576 317//576
f 317//577 338//577 328//577
f 328//578 338//578 339//578
f 339//579 340//579 328//579
f 328//580 340//580 329//580
f 329//581 340//581 330//581
f 330//582 341//582 331//582
f 331//583 341//583 332//583
f 332//584 341//584 342//584
f 332//585 342//585 322//585
f 322//586 342//586 343//586
f 322//587 343//587 333//587
f 333//588 344//588 334//588
f 344//589 345//589 334//589
f 334//590 345//590 335//590
f 300//591 301//591 336//591
f 336//592 301//592 346//592
f 336//593 346//593 337//593
f 337//594 347//594 338//594
f 347//595 348//595 338//595
f 338//596 348//596 339//596
f 348//597 349//597 339//597
f 339//598 349//598 340//598
f 349//599 350//599 340//599
f 340//600 350//600 330//600
f 330//601 350//601 341//601
f 341//602 350//602 351//602
f 341//603 351//603 342//603
f 342//604 351//604 352//604
f 342//605 352//605 343//605
f 343//606 352//606 353//606
f 343//607 353//607 333//607
f 333//608 353//608 354//608
f 333//609 354//609 344//609
f 344//610 355//610 345//610
f 301//611 302//611 346//611
f 346//612 356//612 337//612
f 337//613 356//613 347//613
f 347//614 356//614 357//614
f 357//615 306//615 347//615
f 347//616 306//616 348//616
f 348//617 306//617 349//617
f 349//618 358//618 350//618
f 350//619 358//619 351//619
f 351//620 359//620 352//620
f 352//621 359//621 353//621
f 353//622 359//622 360//622
f 353//623 360//623 354//623
f 354//624 360//624 361//624
f 354//625 361//625 344//625
f 344//626 361//626 362//626
f 344//627 362//627 355//627
f 302//628 298//628 346//628
f 346//629 298//629 303//629
f 303//630 304//630 346//630
f 346//631 304//631 356//631
f 304//632 305//632 356//632
f 356//633 305//633 357//633
f 357//634 305//634 306//634
f 306//635 307//635 349//635
f 349//636 307//636 358//636
f 358//637 307//637 308//637
f 358//638 308//638 351//638
f 351//639 308//639 309//639
f 309//640 310//640 351//640
f 351//641 310//641 359//641
f 310//642 311//642 359//642
f 359//643 311//643 360//643
f 311//644 312//644 360//644
f 360//645 312//645 361//645
f 361//646 312//646 362//646
f 362//647 312//647 313//647
f 362//648 313//648 355//648
f 355//649 313//649 314//649
f 363//650 366//650 365//650
f 363//651 367//651 366//651
f 363//652 368//652 367//652
f 363//653 364//653 369//653
f 364//654 365//654 369//654
f 364//655 363//655 365//655
f 366//656 371//656 365//656
f 365//657 371//657 370//657
f 366//658 367//658 371//658
f 371//659 367//659 372//659
f 367//660 373//660 372//660
f 367//661 368//661 373//661
f 368//662 363//662 374//662
f 374//663 363//663 375//663
f 363//664 369//664 375//664
f 369//665 376//665 375//665
f 365//666 370//666 369//666
f 369//667 370//667 376//667
f 370//668 371//668 377//668
f 377//669 371//669 378//669
f 371//670 372//670 378//670
f 372//671 373//671 379//671
f 368//672 380//672 373//672
f 373//673 380//673 379//673
f 368//674 374//674 380//674
f 380//675 374//675 381//675
f 375//676 382//676 374//676
f 374//677 382//677 381//677
f 375//678 383//678 382//678
f 375//679 376//679 383//679
f 377//680 378//680 384//680
f 372//681 385//681 378//681
f 378//682 385//682 384//682
f 372//683 379//683 385//683
f 379//684 380//684 386//684
f 381//685 387//685 380//685
f 380//686 387//686 386//686
f 381//687 382//687 387//687
f 383//688 376//688 388//688
f 370//689 389//689 376//689
f 376//690 389//690 388//690
f 370//691 377//691 389//691
f 377//680 384//680 390//680
f 384//692 385//692 391//692
f 379//693 392//693 385//693
f 385//694 392//694 391//694
f 379//684 386//684 392//684
f 387//695 382//695 393//695
f 383//696 394//696 382//696
f 382//697 394//697 393//697
f 383//688 388//688 394//688
f 389//698 377//698 390//698
f 390//699 384//699 395//699
f 391//700 396//700 384//700
f 384//701 396//701 395//701
f 391//702 392//702 396//702
f 386//703 387//703 397//703
f 387//704 393//704 397//704
f 393//705 394//705 398//705
f 394//706 388//706 398//706
f 388//707 389//707 398//707
f 390//699 395//699 399//699
f 395//708 396//708 392//708
f 397//704 393//704 400//704
f 393//709 398//709 400//709
f 398//710 389//710 399//710
f 389//711 390//711 399//711
f 399//712 395//712 401//712
f 395//713 392//713 401//713
f 401//714 392//714 402//714
f 392//715 386//715 402//715
f 386//716 397//716 402//716
f 397//717 400//717 402//717
f 400//718 398//718 402//718
f 398//719 399//719 401//719
f 398//720 401//720 402//720
f 403//721 406//721 405//721
f 403//722 407//722 406//722
f 403//723 408//723 407//723
f 403//724 404//724 409//724
f 404//725 405//725 409//725
f 404//726 403//726 405//726
f 406//727 411//727 405//727
f 405//728 411//728 410//728
f 406//729 407//729 411//729
f 411//730 407//730 412//730
f 407//731 413//731 412//731
f 407//732 408//732 413//732
f 408//733 403//733 414//733
f 414//734 403//734 415//734
f 403//735 409//735 415//735
f 409//736 416//736 415//736
f 405//737 410//737 409//737
f 409//738 410//738 416//738
f 410//739 411//739 417//739
f 417//740 411//740 418//740
f 411//741 412//741 418//741
f 412//742 413//742 419//742
f 408//743 420//743 413//743
f 413//744 420//744 419//744
f 408//745 414//745 420//745
f 420//746 414//746 421//746
f 415//747 422//747 414//747
f 414//748 422//748 421//748
f 415//749 423//749 422//749
f 415//750 416//750 423//750
f 417//751 418//751 424//751
f 412//752 425//752 418//752
f 418//753 425//753 424//753
f 412//754 419//754 425//754
f 419//755 420//755 426//755
f 421//756 427//756 420//756
f 420//757 427//757 426//757
f 421//758 422//758 427//758
f 423//759 416//759 428//759
f 410//760 429//760 416//760
f 416//761 429//761 428//761
f 410//762 417//762 429//762
f 417//751 424//751 430//751
f 424//763 425//763 431//763
f 419//764 432//764 425//764
f 425//765 432//765 431//765
f 419//755 426//755 432//755
f 427//766 422//766 433//766
f 423//767 434//767 422//767
f 422//768 434//768 433//768
f 423//759 428//759 434//759
f 429//769 417//769 430//769
f 430//770 424//770 435//770
f 431//771 436//771 424//771
f 424//772 436//772 435//772
f 431//773 432//773 436//773
f 426//774 427//774 437//774
f 427//775 433//775 437//775
f 433//776 434//776 438//776
f 434//777 428//777 438//777
f 428//778 429//778 438//778
f 430//770 435//770 439//770
f 435//779 436//779 432//779
f 437//775 433//775 440//775
f 433//780 438//780 440//780
f 438//781 429//781 439//781
f 429//782 430//782 439//782
f 439//783 435//783 441//783
f 435//784 432//784 441//784
f 441//785 432//785 442//785
f 432//786 426//786 442//786
f 426//787 437//787 442//787
f 437//788 440//788 442//788
f 440//789 438//789 442//789
f 438//790 439//790 441//790
f 438//791 441//791 442//791
f 443//1 446//1 445//1
f 443//2 447//2 446//2
f 443//3 448//3 447//3
f 443//4 444//4 449//4
f 444//5 445//5 449//5
f 444//6 443//6 445//6
f 446//7 451//7 445//7
f 445//8 451//8 450//8
f 446//9 447//9 451//9
f 451//10 447//10 452//10
f 447//11 453//11 452//11
f 447//12 448//12 453//12
f 448//13 443//13 454//13
f 454//14 443//14 455//14
f 443//15 449//15 455//15
f 449//16 456//16 455//16
f 445//17 450//17 449//17
f 449//18 450//18 456//18
f 450//19 451//19 457//19
f 457//20 451//20 458//20
f 451//21 452//21 458//21
f 452//22 453//22 459//22
f 448//23 460//23 453//23
f 453//24 460//24 459//24
f 448//25 454//25 460//25
f 460//26 454//26 461//26
f 455//27 462//27 454//27
f 454//28 462//28 461//28
f 455//29 463//29 462//29
f 455//30 456//30 463//30
f 457//31 458//31 464//31
f 452//32 465//32 458//32
f 458//33 465//33 464//33
f 452//792 459//792 465//792
f 459//35 460//35 466//35
f 461//36 467//36 460//36
f 460//37 467//37 466//37
f 461//38 462//38 467//38
f 463//39 456//39 468//39
f 450//40 469//40 456//40
f 456//41 469//41 468//41
f 450//42 457//42 469//42
f 457//31 464//31 470//31
f 464//43 465//43 471//43
f 459//44 472//44 465//44
f 465//45 472//45 471//45
f 459//35 466//35 472//35
f 467//46 462//46 473//46
f 463//47 474//47 462//47
f 462//48 474//48 473//48
f 463//39 468//39 474//39
f 469//49 457//49 470//49
f 470//50 464//50 475//50
f 471//51 476//51 464//51
f 464//52 476//52 475//52
f 471//53 472//53 476//53
f 466//54 467//54 477//54
f 467//55 473//55 477//55
f 473//56 474//56 478//56
f 474//57 468//57 478//57
f 468//58 469//58 478//58
f 470//50 475//50 479//50
f 475//59 476//59 472//59
f 477//55 473//55 480//55
f 473//60 478//60 480//60
f 478//61 469//61 479//61
f 469//62 470//62 479//62
f 479//63 475//63 481//63
f 475//64 472//64 481//64
f 481//65 472//65 482//65
f 472//66 466//66 482//66
f 466//67 477//67 482//67
f 477//68 480//68 482//68
f 480//69 478//69 482//69
f 478//70 479//70 481//70
f 478//71 481//71 482//71
f 483//793 500//793 484//793
f 484//794 500//794 489//794
f 489//795 500//795 490//795
f 490//796 501//796 491//796
f 491//797 501//797 492//797
f 492//798 502//798 493//798
f 493//799 502//799 494//799
f 494//800 502//800 503//800
f 494//801 503//801 495//801
f 495//802 503//802 504//802
f 504//803 505//803 495//803
f 495//804 505//804 496//804
f 505//805 506//805 496//805
f 496//806 506//806 497//806
f 497//807 506//807 498//807
f 498//808 506//808 507//808
f 498//809 507//809 499//809
f 499//810 507//810 508//810
f 485//811 509//811 483//811
f 483//812 509//812 500//812
f 500//813 509//813 490//813
f 490//814 509//814 510//814
f 490//815 510//815 501//815
f 501//816 510//816 511//816
f 511//817 512//817 501//817
f 501//818 512//818 492//818
f 492//819 512//819 502//819
f 502//820 512//820 513//820
f 502//821 513//821 503//821
f 503//822 513//822 514//822
f 503//823 514//823 504//823
f 504//824 514//824 515//824
f 504//825 515//825 505//825
f 505//826 516//826 506//826
f 506//827 516//827 507//827
f 507//828 516//828 517//828
f 507//829 517//829 508//829
f 508//830 517//830 518//830
f 485//831 486//831 509//831
f 509//832 486//832 519//832
f 519//833 520//833 509//833
f 509//834 520//834 510//834
f 510//835 520//835 511//835
f 511//836 521//836 512//836
f 512//837 521//837 513//837
f 513//838 521//838 522//838
f 522//839 523//839 513//839
f 513//840 523//840 514//840
f 514//841 523//841 515//841
f 515//842 523//842 524//842
f 524//843 525//843 515//843
f 515//844 525//844 505//844
f 505//845 525//845 516//845
f 516//846 526//846 517//846
f 526//847 527//847 517//847
f 517//848 527//848 518//848
f 486//849 487//849 519//849
f 519//850 487//850 528//850
f 528//851 529//851 519//851
f 519//852 529//852 520//852
f 520//853 529//853 511//853
f 511//854 529//854 530//854
f 511//855 530//855 521//855
f 521//856 530//856 531//856
f 521//857 531//857 522//857
f 522//858 532//858 523//858
f 523//859 532//859 524//859
f 524//860 532//860 533//860
f 533//861 534//861 524//861
f 524//862 534//862 525//862
f 525//863 534//863 516//863
f 516//864 534//864 535//864
f 535//865 536//865 516//865
f 516//866 536//866 526//866
f 526//867 536//867 527//867
f 487//868 488//868 528//868
f 528//869 537//869 529//869
f 529//870 537//870 530//870
f 530//871 537//871 538//871
f 530//872 538//872 531//872
f 531//873 538//873 539//873
f 539//874 540//874 531//874
f 531//875 540//875 522//875
f 522//876 540//876 532//876
f 532//877 540//877 494//877
f 532//878 494//878 533//878
f 533//879 541//879 534//879
f 534//880 541//880 535//880
f 535//881 541//881 542//881
f 535//882 542//882 536//882
f 536//883 543//883 527//883
f 484//884 489//884 488//884
f 488//885 489//885 528//885
f 528//886 489//886 537//886
f 537//887 489//887 490//887
f 490//888 491//888 537//888
f 537//889 491//889 538//889
f 538//890 491//890 539//890
f 539//891 491//891 492//891
f 492//892 493//892 539//892
f 539//893 493//893 540//893
f 540//894 493//894 494//894
f 494//895 495//895 533//895
f 533//896 495//896 541//896
f 541//897 495//897 496//897
f 496//898 497//898 541//898
f 541//899 497//899 542//899
f 497//900 498//900 542//900
f 542//901 498//901 536//901
f 536//902 498//902 543//902
f 543//903 498//903 499//903
f 545//904 544//904 550//904
f 550//905 557//905 551//905
f 551//906 557//906 552//906
f 552//907 557//907 558//907
f 558//908 559//908 552//908
f 552//909 559//909 553//909
f 559//910 560//910 553//910
f 553//911 560//911 554//911
f 560//912 561//912 554//912
f 554//913 561//913 555//913
f 561//914 562//914 555//914
f 555//915 562//915 556//915
f 546//916 563//916 544//916
f 544//917 563//917 550//917
f 550//918 563//918 557//918
f 557//919 563//919 564//919
f 564//920 565//920 557//920
f 557//921 565//921 558//921
f 565//922 566//922 558//922
f 558//923 566//923 559//923
f 559//924 566//924 560//924
f 560//925 567//925 561//925
f 567//926 568//926 561//926
f 561//927 568//927 562//927
f 546//928 547//928 563//928
f 563//929 547//929 569//929
f 563//930 569//930 564//930
f 564//931 570//931 565//931
f 565//932 570//932 566//932
f 566//933 570//933 571//933
f 566//934 571//934 560//934
f 560//935 571//935 572//935
f 560//936 572//936 567//936
f 567//937 572//937 573//937
f 567//938 573//938 568//938
f 568//939 573//939 574//939
f 547//940 548//940 569//940
f 569//941 548//941 575//941
f 575//942 576//942 569//942
f 569//943 576//943 564//943
f 564//944 576//944 570//944
f 570//945 576//945 577//945
f 570//946 577//946 571//946
f 571//947 577//947 578//947
f 571//948 578//948 572//948
f 572//949 578//949 579//949
f 572//950 579//950 573//950
f 573//951 579//951 580//951
f 573//952 580//952 574//952
f 548//953 549//953 575//953
f 575//954 549//954 581//954
f 581//955 582//955 575//955
f 575//956 582//956 576//956
f 576//957 582//957 577//957
f 577//958 553//958 578//958
f 578//959 553//959 579//959
f 579//960 553//960 583//960
f 579//961 583//961 580//961
f 580//962 584//962 574//962
f 549//963 545//963 581//963
f 581//964 545//964 550//964
f 581//965 550//965 582//965
f 582//966 550//966 551//966
f 582//967 551//967 577//967
f 577//968 551//968 552//968
f 577//969 552//969 553//969
f 553//970 554//970 583//970
f 554//971 555//971 583//971
f 583//972 555//972 580//972
f 580//973 555//973 584//973
f 584//974 555//974 556//974
f 585//975 588//975 587//975
f 585//976 589//976 588//976
f 585//977 590//977 589//977
f 585//978 586//978 591//978
f 586//979 587//979 591//979
f 586//980 585//980 587//980
f 588//981 593//981 587//981
f 587//982 593//982 592//982
f 588//983 589//983 593//983
f 593//984 589//984 594//984
f 589//985 595//985 594//985
f 589//986 590//986 595//986
f 590//987 585//987 596//987
f 596//988 585//988 597//988
f 585//989 591//989 597//989
f 591//990 598//990 597//990
f 587//991 592//991 591//991
f 591//992 592//992 598//992
f 592//993 593//993 599//993
f 599//994 593//994 600//994
f 593//995 594//995 600//995
f 594//996 595//996 601//996
f 590//997 602//997 595//997
f 595//998 602//998 601//998
f 590//999 596//999 602//999
f 602//1000 596//1000 603//1000
f 597//1001 604//1001 596//1001
f 596//1002 604//1002 603//1002
f 597//1003 605//1003 604//1003
f 597//1004 598//1004 605//1004
f 599//1005 600//1005 606//1005
f 594//1006 607//1006 600//1006
f 600//1007 607//1007 606//1007
f 594//1008 601//1008 607//1008
f 601//1009 602//1009 608//1009
f 603//1010 609//1010 602//1010
f 602//1011 609//1011 608//1011
f 603//1012 604//1012 609//1012
f 605//1013 598//1013 610//1013
f 592//1014 611//1014 598//1014
f 598//1015 611//1015 610//1015
f 592//1016 599//1016 611//1016
f 599//1005 606//1005 612//1005
f 606//1017 607//1017 613//1017
f 601//1018 614//1018 607//1018
f 607//1019 614//1019 613//1019
f 601//1009 608//1009 614//1009
f 609//1020 604//1020 615//1020
f 605//1021 616//1021 604//1021
f 604//1022 616//1022 615//1022
f 605//1013 610//1013 616//1013
f 611//1023 599//1023 612//1023
f 612//1024 606//1024 617//1024
f 613//1025 618//1025 606//1025
f 606//1026 618//1026 617//1026
f 613//1027 614//1027 618//1027
f 608//1028 609//1028 619//1028
f 609//1029 615//1029 619//1029
f 615//1030 616//1030 620//1030
f 616//1031 610//1031 620//1031
f 610//1032 611//1032 620//1032
f 612//1024 617//1024 621//1024
f 617//1033 618//1033 614//1033
f 619//1029 615//1029 622//1029
f 615//1034 620//1034 622//1034
f 620//1035 611//1035 621//1035
f 611//1036 612//1036 621//1036
f 621//1037 617//1037 623//1037
f 617//1038 614//1038 623//1038
f 623//1039 614//1039 624//1039
f 614//1040 608//1040 624//1040
f 608//1041 619//1041 624//1041
f 619//1042 622//1042 624//1042
f 622//1043 620//1043 624//1043
f 620//1044 621//1044 623//1044
f 620//1045 623//1045 624//1045
f 625//1 628//1 627//1
f 625//2 629//2 628//2
f 625//3 630//3 629//3
f 625//4 626//4 631//4
f 626//5 627//5 631//5
f 626//6 625//6 627//6
f 628//7 633//7 627//7
f 627//8 633//8 632//8
f 628//9 629//9 633//9
f 633//10 629//10 634//10
f 629//11 635//11 634//11
f 629//12 630//12 635//12
f 630//13 625//13 636//13
f 636//14 625//14 637//14
f 625//15 631//15 637//15
f 631//16 638//16 637//16
f 627//17 632//17 631//17
f 631//18 632//18 638//18
f 632//19 633//19 639//19
f 639//20 633//20 640//20
f 633//21 634//21 640//21
f 634//22 635//22 641//22
f 630//23 642//23 635//23
f 635//24 642//24 641//24
f 630//25 636//25 642//25
f 642//26 636//26 643//26
f 637//27 644//27 636//27
f 636//28 644//28 643//28
f 637//29 645//29 644//29
f 637//30 638//30 645//30
f 639//31 640//31 646//31
f 634//32 647//32 640//32
f 640//33 647//33 646//33
f 634//792 641//792 647//792
f 641//35 642//35 648//35
f 643//36 649//36 642//36
f 642//37 649//37 648//37
f 643//38 644//38 649//38
f 645//39 638//39 650//39
f 632//40 651//40 638//40
f 638//41 651//41 650//41
f 632//42 639//42 651//42
f 639//31 646//31 652//31
f 646//43 647//43 653//43
f 641//44 654//44 647//44
f 647//45 654//45 653//45
f 641//35 648//35 654//35
f 649//46 644//46 655//46
f 645//47 656//47 644//47
f 644//48 656//48 655//48
f 645//39 650//39 656//39
f 651//49 639//49 652//49
f 652//50 646//50 657//50
f 653//51 658//51 646//51
f 646//52 658//52 657//52
f 653//53 654//53 658//53
f 648//54 649//54 659//54
f 649//55 655//55 659//55
f 655//56 656//56 660//56
f 656//57 650//57 660//57
f 650//58 651//58 660//58
f 652//50 657//50 661//50
f 657//59 658//59 654//59
f 659//55 655//55 662//55
f 655//60 660//60 662//60
f 660//61 651//61 661//61
f 651//62 652//62 661//62
f 661//63 657//63 663//63
f 657//64 654//64 663//64
f 663//65 654//65 664//65
f 654//66 648//66 664//66
f 648//67 659//67 664//67
f 659//1046 662//1046 664//1046
f 662//69 660//69 664//69
f 660//70 661//70 663//70
f 660//71 663//71 664//71