mtllib flat.mtl
v 0.000945 0.013825 -0.023441
v -0.055806 0.055911 -0.075439
v 0.049801 0.053117 -0.086378
v -0.05778 0.050021 -0.092986
v 0.047828 0.047228 -0.103925
v -0.001028 -0.000542 -0.026141
v -0.044564 0.101149 -0.110314
v 0.070946 0.098391 -0.121113
v 0.068973 0.092501 -0.13866
v -0.046537 0.095259 -0.127861
v -0.068585 0.149619 -0.121772
v 0.05515 0.146346 -0.134589
v 0.053177 0.140456 -0.152136
v -0.070558 0.143729 -0.13932
v -0.058599 0.282407 -0.190596
v 0.007644 0.280654 -0.197457
v 0.005671 0.274765 -0.215004
v -0.060572 0.276517 -0.208143
v -0.030699 0.308881 -0.282964
v -0.032126 0.304622 -0.295651
v 0.017715 0.099799 -0.133601
v -0.007145 0.147994 -0.146138
v -0.025829 0.28154 -0.211992
v -0.027803 0.27565 -0.229539
v 0.015742 0.093909 -0.151148
v -0.074866 0.18067 -0.132855
v -0.077239 0.240862 -0.162527
v -0.035306 0.241033 -0.185668
v 0.024646 0.180369 -0.144048
v 0.006848 0.240866 -0.172622
v 0.004875 0.234976 -0.190169
v 0.022673 0.17448 -0.161595
v -0.076839 0.174781 -0.150402
v -0.079212 0.234972 -0.180074
v -0.027498 0.174785 -0.174012
v -0.026701 -0.000542 -0.010935
v -0.070178 0.028189 -0.037385
v -0.02065 0.013094 -0.014872
v -0.064127 0.037424 -0.041322
v -0.024578 0.042403 0.031137
v -0.030628 0.033168 0.035074
v -0.055504 0.058707 0.056745
v -0.103307 0.052689 -0.030835
v -0.049453 0.067942 0.052808
v -0.097256 0.061924 -0.034772
v -0.077931 0.081119 0.074847
v -0.131936 0.07432 -0.024097
v -0.07188 0.090354 0.07091
v -0.125885 0.083555 -0.028034
v -0.107512 0.101585 0.092403
v -0.165911 0.094232 -0.014591
v -0.101461 0.110819 0.088466
v -0.15986 0.103467 -0.018529
v -0.135771 0.10939 0.107692
v -0.194506 0.101995 8.2e-05
v -0.12972 0.118625 0.103755
v -0.188455 0.11123 -0.003855
v -0.157004 0.104845 0.109647
v -0.211009 0.098046 0.010703
v -0.158659 0.116448 0.109753
v -0.212664 0.109649 0.010809
v -0.204008 0.089803 0.119276
v -0.243716 0.084804 0.046525
v -0.213354 0.095055 0.124016
v -0.253062 0.090056 0.051266
v -0.219195 0.058736 0.110066
v -0.242974 0.055743 0.066499
v -0.228541 0.063988 0.114806
v -0.25232 0.060994 0.07124
v -0.272091 0.040561 0.129943
v -0.286762 0.038714 0.103064
v -0.274721 0.051965 0.130595
v -0.289392 0.050118 0.103716
v -0.326937 0.042368 0.142493
v -0.329567 0.053773 0.143144
v -0.131485 0.102097 0.038566
v -0.074392 0.059859 0.012225
v -0.165956 0.100647 0.057496
v -0.211837 0.069116 0.071929
v -0.28113 0.027553 0.118491
v -0.283759 0.045885 0.119143
v -0.241951 0.057357 0.095345
v -0.186574 0.107991 0.063717
v 0.03183 -0.000542 0.005625
v 0.026894 0.035807 0.090719
v 0.02125 0.010524 -0.000228
v 0.016314 0.051275 0.084866
v 0.09238 0.059614 -0.030594
v 0.102961 0.044146 -0.02474
v 0.154569 0.086921 -0.004989
v 0.062628 0.076842 0.134564
v 0.143988 0.102389 -0.010843
v 0.052048 0.092309 0.128711
v 0.198973 0.12446 0.013945
v 0.095103 0.113072 0.171607
v 0.188393 0.139928 0.008092
v 0.084523 0.12854 0.165754
v 0.270268 0.158738 0.05416
v 0.157946 0.146424 0.22465
v 0.259688 0.174206 0.048307
v 0.147366 0.161892 0.218796
v 0.315096 0.171812 0.083932
v 0.202129 0.159426 0.255402
v 0.304516 0.187279 0.078079
v 0.191548 0.174894 0.249549
v 0.366108 0.164199 0.126927
v 0.262238 0.152811 0.284589
v 0.367567 0.183634 0.129292
v 0.263697 0.172246 0.286954
v 0.417305 0.139005 0.188872
v 0.340932 0.130632 0.304796
v 0.431663 0.147801 0.198968
v 0.355291 0.139428 0.314891
v 0.455856 0.0973 0.244723
v 0.410121 0.092286 0.314144
v 0.470215 0.106096 0.254818
v 0.424479 0.101082 0.324239
v 0.48661 0.056529 0.281175
v 0.458393 0.053435 0.324005
v 0.489641 0.07563 0.284551
v 0.461424 0.072536 0.327382
v 0.548291 0.059556 0.352421
v 0.551323 0.078657 0.355798
v 0.209495 0.159596 0.131943
v 0.103577 0.088852 0.057947
v 0.264593 0.157168 0.168039
v 0.384364 0.126287 0.246322
v 0.47678 0.046344 0.303546
v 0.479811 0.065446 0.306923
v 0.451977 0.09499 0.28995
v 0.32143 0.169469 0.206772
v -0.157531 0.175678 -0.039076
v -0.190328 0.182155 0.020283
v -0.131727 0.230667 -0.002634
v -0.210697 0.203191 0.053481
v -0.157479 0.228581 0.057848
v -0.131176 0.269022 0.022383
v -0.228411 0.231668 0.085266
v -0.141391 0.303707 0.051234
v -0.250937 0.27437 0.10764
v -0.191476 0.298573 0.13301
v -0.167815 0.343183 0.075133
v -0.271966 0.316106 0.115259
v -0.199774 0.375869 0.087026
v -0.292665 0.363695 0.110099
v -0.292742 0.41958 0.122112
v -0.242399 0.405307 0.090441
v -0.162609 0.188457 -0.03477
v -0.221205 0.220846 0.048305
v -0.147956 0.28161 0.019787
v -0.204838 0.310335 0.091892
v -0.255425 0.283037 0.094541
v -0.180441 0.345112 0.065217
v -0.2947 0.415524 0.107995
v -0.291957 0.361976 0.095928
v -0.246719 0.399426 0.078237
v -0.157531 0.175678 -0.039076
v -0.223948 0.160572 -0.037783
v -0.18609 0.195769 0.022555
v -0.267043 0.16702 -0.029984
v -0.246994 0.171117 0.025488
v -0.215669 0.214781 0.051895
v -0.309574 0.179566 -0.016996
v -0.253357 0.231831 0.072603
v -0.351493 0.209818 -0.004385
v -0.34379 0.200795 0.063617
v -0.297794 0.259743 0.081202
v -0.380882 0.246187 0.003079
v -0.334245 0.289546 0.077411
v -0.401814 0.293627 0.008658
v -0.426521 0.3337 0.041078
v -0.369341 0.323817 0.060414
v -0.167278 0.18546 -0.034959
v -0.273903 0.187017 -0.031389
v -0.226715 0.231051 0.044144
v -0.32287 0.234565 0.04289
v -0.346314 0.224691 -0.008725
v -0.297873 0.269727 0.068482
v -0.41561 0.337906 0.031978
v -0.38998 0.29905 0.002757
v -0.360755 0.32622 0.049336
v -0.157531 0.175678 -0.039076
v -0.127925 0.222214 -0.079063
v -0.197743 0.188288 -0.096012
v -0.125528 0.257865 -0.105194
v -0.162682 0.225241 -0.137614
v -0.220271 0.211828 -0.128193
v -0.130912 0.294258 -0.13315
v -0.234588 0.24388 -0.158318
v -0.150707 0.338713 -0.154677
v -0.18024 0.305786 -0.207674
v -0.24974 0.290591 -0.178717
v -0.176242 0.377556 -0.163694
v -0.262252 0.335762 -0.184574
v -0.212125 0.415397 -0.163248
v -0.25472 0.443988 -0.18846
v -0.272012 0.386297 -0.177786
v -0.16498 0.186935 -0.044118
v -0.139261 0.27345 -0.101018
v -0.226585 0.231135 -0.122349
v -0.202821 0.31163 -0.169417
v -0.162013 0.343003 -0.143694
v -0.251349 0.299593 -0.165381
v -0.256441 0.440084 -0.17427
v -0.216725 0.410271 -0.150725
v -0.270622 0.384081 -0.163809
v -0.157531 0.175678 -0.039076
v -0.188387 0.1834 -0.09932
v -0.227678 0.169071 -0.031765
v -0.21897 0.19788 -0.127861
v -0.254032 0.166599 -0.091973
v -0.272287 0.178436 -0.036189
v -0.255276 0.214422 -0.151167
v -0.313621 0.193144 -0.050851
v -0.29643 0.245166 -0.165047
v -0.34384 0.200763 -0.141686
v -0.352162 0.224841 -0.069224
v -0.328864 0.279581 -0.167466
v -0.377266 0.261929 -0.084244
v -0.358819 0.321228 -0.158085
v -0.409853 0.344401 -0.146862
v -0.392521 0.308937 -0.100139
v -0.168892 0.184424 -0.040518
v -0.227583 0.216752 -0.123549
v -0.276867 0.198856 -0.039158
v -0.32688 0.231991 -0.114394
v -0.294873 0.257714 -0.154705
v -0.345147 0.239379 -0.068264
v -0.398232 0.349061 -0.138937
v -0.349645 0.324943 -0.147775
v -0.379976 0.313882 -0.095625
v -0.157531 0.175678 -0.039076
v -0.128236 0.223733 -0.000273
v -0.136928 0.227328 -0.082956
v -0.113585 0.265532 0.007243
v -0.096971 0.267424 -0.049469
v -0.130243 0.269621 -0.099201
v -0.105331 0.310679 0.012593
v -0.123561 0.315153 -0.103888
v -0.112174 0.363449 0.012647
v -0.075111 0.373273 -0.044754
v -0.129587 0.367723 -0.098618
v -0.130234 0.40709 0.009273
v -0.145357 0.410802 -0.087359
v -0.160901 0.448281 0.000179
v -0.171749 0.497251 -0.027237
v -0.171431 0.450865 -0.067104
v -0.164439 0.189001 -0.036631
v -0.128853 0.280132 0.005612
v -0.144138 0.284061 -0.092479
v -0.119129 0.365356 -0.047475
v -0.128121 0.36476 0.009358
v -0.14383 0.368615 -0.091012
v -0.182747 0.487392 -0.026048
v -0.171687 0.439183 -0.002088
v -0.181164 0.441509 -0.062641
v -0.157107 0.18988 -0.039652
v -0.183374 0.212756 -0.041455
v -0.172256 0.212453 -0.068375
v -0.178457 0.216405 -0.0603
v -0.197668 0.193593 -0.058093
v -0.196246 0.203202 -0.053102
v -0.197668 0.193593 -0.024818
v -0.196246 0.203202 -0.029809
v -0.172256 0.212453 -0.014535
v -0.178457 0.216405 -0.022611
v -0.156551 0.224109 -0.041455
v -0.167463 0.224565 -0.041455
v 0.188784 0.319405 0.002379
v 0.182518 0.352243 0.061739
v 0.249434 0.316053 0.038821
v 0.194404 0.379004 0.094937
v 0.237863 0.339154 0.099303
v 0.285209 0.329894 0.063838
v 0.214184 0.406088 0.126721
v 0.313551 0.352347 0.09269
v 0.245354 0.442956 0.149095
v 0.290049 0.396872 0.174465
v 0.340271 0.391622 0.116588
v 0.276189 0.478074 0.156714
v 0.358624 0.433491 0.128482
v 0.312575 0.515077 0.151554
v 0.364371 0.536061 0.163567
v 0.369973 0.484035 0.131896
v 0.198734 0.328897 0.006686
v 0.206844 0.395356 0.08976
v 0.290603 0.350166 0.061243
v 0.295956 0.413664 0.133347
v 0.251712 0.450361 0.135996
v 0.337336 0.404053 0.106672
v 0.359877 0.536359 0.14945
v 0.311246 0.513778 0.137384
v 0.362903 0.48584 0.119692
v 0.188784 0.319405 0.002379
v 0.149923 0.375345 0.003673
v 0.196728 0.353408 0.064011
v 0.139776 0.417722 0.011472
v 0.151078 0.400662 0.066943
v 0.203292 0.387953 0.09335
v 0.135495 0.461858 0.024459
v 0.205 0.429282 0.114058
v 0.147864 0.512052 0.03707
v 0.142379 0.501532 0.105072
v 0.214256 0.480935 0.122657
v 0.170593 0.552915 0.044535
v 0.228254 0.52589 0.118866
v 0.206754 0.590077 0.050114
v 0.234671 0.627985 0.082534
v 0.246903 0.571261 0.101869
v 0.194208 0.332105 0.006496
v 0.155754 0.431566 0.010066
v 0.214246 0.404284 0.0856
v 0.181524 0.494768 0.084345
v 0.163594 0.512814 0.032731
v 0.223485 0.484744 0.109937
v 0.242654 0.61944 0.073434
v 0.216211 0.581133 0.044213
v 0.252344 0.564198 0.090792
v 0.188784 0.319405 0.002379
v 0.243018 0.309364 -0.037608
v 0.185431 0.361415 -0.054556
v 0.276976 0.320482 -0.063738
v 0.232819 0.342729 -0.096159
v 0.198831 0.391114 -0.086738
v 0.30871 0.339092 -0.091695
v 0.223196 0.416385 -0.116863
v 0.342528 0.374085 -0.113221
v 0.300942 0.389151 -0.166219
v 0.260844 0.447916 -0.137262
v 0.368994 0.412299 -0.122239
v 0.298052 0.476421 -0.143118
v 0.390659 0.459736 -0.121793
v 0.401233 0.509935 -0.147005
v 0.341263 0.504383 -0.13633
v 0.196436 0.330526 -0.002663
v 0.286289 0.339049 -0.059563
v 0.214372 0.404195 -0.080893
v 0.297912 0.412278 -0.127962
v 0.342275 0.386175 -0.102239
v 0.26859 0.452777 -0.123926
v 0.396969 0.510069 -0.132814
v 0.384184 0.462083 -0.10927
v 0.339729 0.502264 -0.122354
v 0.188784 0.319405 0.002379
v 0.184399 0.35091 -0.057865
v 0.156409 0.381984 0.00969
v 0.186383 0.384689 -0.086406
v 0.144255 0.405498 -0.050517
v 0.1484 0.426857 0.005266
v 0.188137 0.424548 -0.109712
v 0.146573 0.470692 -0.009396
v 0.201248 0.474216 -0.123592
v 0.142331 0.501566 -0.10023
v 0.161545 0.518294 -0.027769
v 0.221026 0.517171 -0.12601
v 0.186544 0.555452 -0.042788
v 0.248438 0.560534 -0.11663
v 0.250831 0.616532 -0.105407
v 0.224429 0.587188 -0.058684
v 0.192643 0.333214 0.000938
v 0.200661 0.399738 -0.082093
v 0.165624 0.438745 0.002298
v 0.177636 0.497524 -0.072938
v 0.213467 0.477467 -0.113249
v 0.177652 0.517228 -0.026809
v 0.259501 0.607499 -0.097482
v 0.255317 0.553417 -0.10632
v 0.233709 0.577405 -0.05417
v 0.188784 0.319405 0.002379
v 0.24431 0.310221 0.041182
v 0.244392 0.319627 -0.041501
v 0.288555 0.312275 0.048698
v 0.296526 0.297576 -0.008014
v 0.286113 0.329254 -0.057746
v 0.33351 0.321515 0.054048
v 0.330838 0.340095 -0.062433
v 0.379886 0.347607 0.054102
v 0.402865 0.316913 -0.003299
v 0.377333 0.365355 -0.057162
v 0.413599 0.380686 0.050728
v 0.411382 0.396099 -0.045904
v 0.440321 0.424538 0.041634
v 0.481674 0.452922 0.014218
v 0.438777 0.43527 -0.025649
v 0.198554 0.330797 0.004824
v 0.29638 0.331897 0.047067
v 0.294305 0.347543 -0.051024
v 0.379052 0.354771 -0.00602
v 0.375134 0.362886 0.050813
v 0.372831 0.378896 -0.049556
v 0.468416 0.459432 0.015407
v 0.427848 0.431136 0.039367
v 0.426459 0.440795 -0.021186
v 0.190978 0.322611 0.003381
v 0.213498 0.357245 0.0
v 0.217377 0.346822 -0.02692
v 0.218722 0.354051 -0.018845
v 0.190378 0.363331 -0.016637
v 0.199822 0.365608 -0.011647
v 0.190378 0.363331 0.016637
v 0.199822 0.365608 0.011647
v 0.217377 0.346822 0.02692
v 0.218722 0.354051 0.018845
v 0.234064 0.336619 0.0
v 0.230403 0.346909 0.0
v -0.025601 -0.000542 -0.06004
v -0.050032 -0.000542 -0.052102
v -0.050032 -0.000542 -0.026414
v -0.025601 -0.000542 -0.018477
v -0.010502 -0.000542 -0.039258
v -0.156628 0.187019 -0.054844
v -0.171437 0.17623 -0.048891
v -0.171437 0.17623 -0.029626
v -0.156628 0.187019 -0.023673
v -0.147476 0.193687 -0.039258
v -0.034708 0.076682 -0.061338
v -0.051964 0.104003 -0.06334
v -0.055864 0.061552 -0.052904
v -0.075006 0.087481 -0.054137
v -0.055864 0.061552 -0.025612
v -0.075006 0.087481 -0.02438
v -0.034709 0.076684 -0.017179
v -0.051962 0.104002 -0.015177
v -0.021703 0.08615 -0.039258
v -0.037818 0.114303 -0.039258
v -0.113095 0.151601 -0.023427
v -0.128193 0.140694 -0.029476
v -0.128193 0.140694 -0.049041
v -0.113095 0.151602 -0.055089
v -0.103798 0.158373 -0.039258
v 0.006478 -0.000542 -0.036594
v -0.036448 -0.000542 -0.022616
v -0.036448 -0.000542 0.022616
v 0.006478 -0.000542 0.036594
v 0.033007 -0.000542 -0.0
v 0.031621 0.118983 -0.036594
v -0.011304 0.121816 -0.022616
v -0.011304 0.121816 0.022616
v 0.031621 0.118983 0.036594
v 0.05815 0.117233 0.0
v 0.097759 0.219968 -0.028634
v 0.070214 0.239315 -0.017697
v 0.070214 0.239315 0.017697
v 0.097759 0.219968 0.028634
v 0.114783 0.20801 0.0
v 0.14938 0.278714 -0.02489
v 0.122454 0.290164 -0.015383
v 0.122454 0.290164 0.015383
v 0.14938 0.278714 0.02489
v 0.166021 0.271637 0.0
v 0.208616 0.322478 -0.026468
v 0.180612 0.343248 -0.022683
v 0.17461 0.347199 0.011644
v 0.198904 0.32887 0.029074
v 0.219921 0.313592 0.00552
v 0.077428 0.153682 0.0
v 0.055726 0.164015 0.033082
v 0.020612 0.180732 0.020446
v 0.020612 0.180732 -0.020446
v 0.055726 0.164015 -0.033082
v 0.166623 0.323254 -0.011659
v 0.187031 0.314576 -0.018864
v 0.199643 0.309212 0.0
v 0.187031 0.314576 0.018864
v 0.166623 0.323254 0.011659
vn 0.8315 -0.2108 0.5139
vn 0.7832 -0.6107 0.1169
vn -0.6912 -0.0407 0.7215
vn -0.7982 -0.5383 0.2705
vn 0.0183 0.7868 0.6169
vn 0.3066 0.5322 0.7892
vn 0.9148 -0.4025 0.0322
vn -0.0007 -0.7978 -0.6029
vn -0.3066 -0.5322 -0.7892
vn -0.9661 0.2573 0.0223
vn 0.3295 0.3933 0.8584
vn 0.3501 0.3763 0.8578
vn 0.9468 0.2576 -0.193
vn -0.3324 -0.3698 -0.8676
vn -0.8925 -0.3878 0.2305
vn 0.2423 0.9108 0.3342
vn 0.8658 0.4369 -0.244
vn -0.2665 -0.8891 -0.3722
vn -0.8287 0.552 -0.0921
vn 0.1901 0.7597 0.6219
vn -0.158 0.6465 0.7464
vn -0.1757 0.162 0.971
vn -0.219 0.1964 0.9557
vn -0.1338 0.9216 0.3642
vn 0.152 -0.9016 -0.405
vn 0.219 -0.1964 -0.9557
vn -0.2188 -0.7642 -0.6068
vn 0.158 -0.6465 -0.7464
vn -0.9941 0.0137 0.1072
vn 0.4392 0.4111 0.7988
vn 0.3783 0.4566 0.8052
vn -0.342 0.2779 0.8977
vn -0.2765 0.3427 0.8978
vn 0.9638 0.2006 -0.1757
vn 0.2218 -0.3623 -0.9053
vn -0.3919 -0.4192 -0.819
vn 0.3501 0.3769 0.8576
vn 0.7518 0.595 -0.2843
vn -0.3602 -0.4271 -0.8294
vn -0.3994 -0.3788 -0.8349
vn -0.9773 -0.1415 0.1574
vn 0.4512 0.3517 0.8202
vn 0.5127 0.3803 0.7698
vn 0.9935 -0.0741 -0.0869
vn -0.4178 -0.4391 -0.7954
vn -0.527 -0.3006 -0.7949
vn -0.9191 0.3931 -0.0286
vn -0.1783 0.112 0.9776
vn -0.3151 0.5679 0.7604
vn -0.2514 0.5161 0.8188
vn 0.4158 -0.4376 -0.7972
vn 0.3327 -0.5041 -0.797
vn 0.1478 -0.1397 -0.9791
vn 0.2369 -0.1449 -0.9607
vn 0.2842 -0.3802 -0.8801
vn 0.2257 -0.5035 -0.834
vn 0.8472 -0.4123 0.335
vn 0.9 -0.3113 0.3049
vn -0.5826 -0.8089 0.0789
vn 0.6148 -0.0679 0.7857
vn 0.5749 0.7881 -0.22
vn 0.5484 0.8035 -0.2315
vn -0.3209 -0.1857 -0.9287
vn -0.585 -0.805 0.0987
vn 0.5968 -0.0496 0.8008
vn 0.5508 0.8015 -0.2328
vn -0.3444 -0.1681 -0.9236
vn -0.5406 -0.8037 -0.2487
vn 0.5215 0.022 0.853
vn 0.5273 0.829 -0.1865
vn 0.452 0.8684 -0.2038
vn -0.3527 -0.1618 -0.9216
vn -0.5626 -0.8235 0.0729
vn -0.2195 -0.9718 0.0863
vn 0.4865 0.0531 0.8721
vn 0.2197 0.9718 -0.0859
vn -0.4699 -0.0673 -0.8801
vn 0.1665 -0.9803 -0.1058
vn 0.1736 0.2878 0.9418
vn 0.0909 0.0038 0.9959
vn 0.1261 0.991 0.044
vn -0.0356 0.9982 0.0488
vn -0.5167 -0.0263 -0.8558
vn -0.5285 -0.0676 -0.8463
vn 0.4403 -0.8141 -0.3787
vn -0.1028 -0.8988 -0.4261
vn 0.1949 0.0188 0.9807
vn 0.3307 -0.2363 0.9137
vn -0.2863 0.9428 0.1707
vn -0.7172 -0.096 -0.6903
vn -0.5727 -0.35 -0.7413
vn 0.3592 -0.5224 -0.7734
vn 0.2386 -0.3814 0.8931
vn -0.3107 0.7243 0.6156
vn -0.8714 0.2626 0.4145
vn -0.5943 -0.4658 -0.6556
vn 0.4145 -0.8922 -0.1795
vn -0.1362 -0.8256 -0.5476
vn 0.3882 -0.1324 0.912
vn 0.3189 0.0194 0.9476
vn -0.114 0.974 0.196
vn -0.0931 0.951 0.2949
vn -0.5524 -0.2717 -0.7881
vn -0.6381 -0.1035 -0.763
vn -0.4653 -0.7891 -0.401
vn 0.2229 -0.0043 0.9748
vn 0.2527 0.9526 0.1692
vn -0.7009 -0.1214 -0.7029
vn -0.7009 -0.1215 -0.7029
vn 0.3961 0.8077 -0.4367
vn 0.3692 0.852 -0.3711
vn 0.4418 0.7882 -0.4285
vn 0.4433 0.7727 -0.4544
vn 0.4392 0.7903 -0.4273
vn -0.3255 -0.7758 0.5406
vn -0.3452 -0.7741 0.5307
vn -0.1492 -0.7592 0.6336
vn -0.3077 -0.786 0.5362
vn -0.1318 -0.9601 0.2465
vn 0.2128 -0.9762 0.042
vn 0.5997 -0.765 0.2351
vn 0.3091 -0.9508 0.0235
vn 0.8914 -0.4504 0.0494
vn 0.4265 -0.8902 -0.16
vn 0.4432 -0.7458 0.4974
vn 0.1357 -0.7061 0.6949
vn -0.0677 0.9023 -0.4257
vn -0.2895 0.9491 -0.1239
vn -0.3624 0.9108 -0.1976
vn -0.7167 0.6755 -0.1734
vn -0.8339 0.264 0.4847
vn -0.3542 0.9342 0.0431
vn -0.0084 0.9694 -0.2455
vn -0.0994 0.9876 -0.1212
vn 0.1316 0.9601 -0.247
vn -0.7604 -0.612 0.2173
vn -0.8424 -0.5035 0.1922
vn -0.1019 -0.4123 -0.9053
vn -0.0509 -0.5046 -0.8619
vn 0.4678 -0.8027 0.37
vn 0.4052 -0.0679 -0.9117
vn -0.4641 0.7881 -0.4043
vn -0.4619 0.8035 -0.3756
vn -0.6694 -0.1857 0.7193
vn 0.4742 -0.8003 0.367
vn 0.427 -0.0496 -0.9029
vn -0.4641 0.8015 -0.3771
vn -0.6539 -0.1681 0.7377
vn -0.0564 -0.8137 0.5785
vn 0.4895 0.0049 -0.872
vn -0.3181 0.8701 -0.3765
vn -0.2938 0.9266 -0.2346
vn -0.6044 -0.1151 0.7884
vn 0.302 -0.8629 0.4051
vn 0.1793 -0.9718 0.1533
vn 0.5417 0.0531 -0.8389
vn -0.179 0.9718 -0.1537
vn -0.5566 -0.0673 0.8281
vn -0.0906 -0.9951 -0.039
vn 0.6291 0.141 -0.7645
vn 0.6477 0.0439 -0.7607
vn -0.0011 0.9916 -0.1292
vn 0.0398 0.9992 -0.006
vn -0.4595 0.0217 0.8879
vn -0.4423 -0.0755 0.8937
vn -0.2243 -0.9737 -0.0409
vn -0.2435 -0.9637 -0.1093
vn 0.7744 0.0188 -0.6324
vn 0.6516 -0.2363 -0.7209
vn 0.2851 0.9428 0.1727
vn -0.2729 -0.096 0.9573
vn -0.3858 -0.35 0.8536
vn -0.4402 -0.8585 -0.2632
vn 0.6649 -0.3009 -0.6836
vn 0.6649 -0.3008 -0.6836
vn 0.4385 0.8919 0.1105
vn 0.4524 0.8671 0.2087
vn -0.3421 -0.4113 0.8449
vn -0.5775 -0.7963 -0.1799
vn -0.5762 -0.7788 -0.2479
vn 0.6584 -0.267 -0.7038
vn 0.7609 -0.0061 -0.6488
vn 0.5631 0.7636 0.3159
vn 0.6078 0.7392 0.29
vn -0.3654 -0.3793 0.8501
vn -0.2916 -0.1215 0.9488
vn -0.0308 -0.9526 0.3025
vn 0.7561 -0.0043 -0.6544
vn 0.0308 0.9526 -0.3025
vn -0.2916 -0.1214 0.9488
vn -0.5339 0.8445 -0.0431
vn -0.396 0.9149 -0.0778
vn -0.5857 0.7882 -0.189
vn -0.6093 0.7727 -0.1781
vn -0.5834 0.7903 -0.1872
vn 0.5803 -0.7905 0.1959
vn 0.5798 -0.7888 0.2042
vn 0.5661 -0.7316 -0.3799
vn 0.5531 -0.8329 0.0161
vn 0.2795 -0.9601 0.0007
vn -0.0016 -0.985 -0.1725
vn -0.0533 -0.9541 -0.2948
vn -0.1259 -0.9509 -0.2827
vn -0.3534 -0.85 -0.3908
vn -0.3241 -0.7691 -0.5509
vn -0.3927 -0.7597 -0.5184
vn 0.3441 -0.9023 -0.2596
vn -0.3441 0.9023 0.2596
vn 0.4553 0.7534 0.4745
vn 0.4473 0.7235 0.5259
vn 0.2026 0.8659 0.4574
vn 0.3033 0.852 0.4268
vn 0.2043 0.9342 0.2925
vn -0.1919 0.9684 0.1592
vn -0.0604 0.9876 0.1446
vn -0.2798 0.9601 -0.0002
vn -0.2929 0.4614 -0.8374
vn -0.6535 0.4247 -0.6265
vn -0.5886 0.4755 -0.6538
vn -0.7726 0.0571 -0.6323
vn -0.0494 -0.0053 -0.9988
vn 0.0873 0.2232 -0.9708
vn -0.5763 -0.3817 -0.7227
vn -0.4375 -0.3336 -0.8351
vn 0.25 -0.6477 0.7197
vn 0.8661 -0.1433 0.4789
vn 0.2492 -0.6499 0.718
vn -0.1479 -0.5191 0.8418
vn 0.8486 -0.1367 0.5111
vn 0.8219 0.2364 0.5182
vn -0.2676 -0.3018 0.915
vn 0.6677 0.4323 0.6061
vn -0.2371 -0.1115 0.9651
vn -0.5891 -0.1706 0.7898
vn 0.4986 0.4821 0.7204
vn 0.516 0.688 0.5102
vn -0.8679 -0.1903 -0.4588
vn 0.3202 0.4143 -0.8519
vn -0.8256 -0.5397 -0.1646
vn -0.8271 -0.331 -0.4543
vn 0.2601 0.4572 -0.8505
vn 0.4723 0.4768 -0.7414
vn -0.8571 -0.5149 -0.0163
vn 0.5529 0.6231 -0.5532
vn -0.8854 -0.4648 -0.0042
vn -0.8873 -0.4597 -0.0384
vn 0.4956 0.6586 -0.5662
vn 0.5195 0.6693 -0.5312
vn -0.8925 -0.451 0.0073
vn 0.5107 0.6873 -0.5166
vn -0.9887 -0.0329 0.1465
vn -0.9982 -0.041 -0.0449
vn -0.9171 -0.3986 0.0026
vn -0.9065 -0.4185 -0.0557
vn 0.4514 0.6873 -0.5691
vn 0.4599 0.7253 -0.5123
vn 0.0269 0.8968 -0.4417
vn 0.0901 0.9538 -0.2866
vn 0.2905 -0.7176 0.633
vn 0.5697 -0.7215 0.3935
vn 0.767 -0.5634 0.3071
vn 0.8928 -0.255 0.3713
vn 0.3532 0.8762 -0.328
vn -0.0059 0.8404 -0.5419
vn 0.0383 0.8779 -0.4772
vn 0.0316 0.5734 -0.8187
vn 0.7454 0.5049 -0.4352
vn 0.7391 0.6416 -0.205
vn 0.3345 0.203 -0.9203
vn 0.4875 0.2601 -0.8335
vn -0.2354 -0.9593 0.1559
vn 0.164 -0.594 0.7876
vn -0.2339 -0.9601 0.1536
vn -0.5926 -0.8046 -0.0396
vn 0.1273 -0.5997 0.79
vn 0.0039 -0.2887 0.9574
vn -0.7773 -0.6291 0.0046
vn -0.206 -0.1286 0.9701
vn -0.851 -0.5056 0.1423
vn -0.9004 -0.3704 -0.2283
vn -0.4048 -0.0978 0.9092
vn -0.2889 0.1713 0.9419
vn -0.0889 0.3098 -0.9466
vn 0.7277 0.6759 0.1169
vn -0.196 -0.1355 -0.9712
vn -0.0303 0.1805 -0.9831
vn 0.6804 0.727 0.0922
vn 0.7119 0.6306 0.3091
vn -0.3355 -0.1801 -0.9247
vn 0.5723 0.6355 0.5183
vn -0.3748 -0.137 -0.9169
vn -0.3509 -0.1153 -0.9293
vn 0.5398 0.687 0.4865
vn 0.5234 0.6718 0.5241
vn -0.3916 -0.1295 -0.911
vn 0.5021 0.6818 0.532
vn -0.6692 0.1722 -0.7229
vn -0.5244 0.2631 -0.8098
vn -0.4164 -0.0772 -0.9059
vn -0.3598 -0.0676 -0.9306
vn 0.5089 0.7242 0.4655
vn 0.4593 0.725 0.5133
vn 0.1102 0.9502 0.2915
vn 0.0106 0.9028 0.43
vn -0.126 -0.985 0.1183
vn 0.2198 -0.9461 0.2377
vn 0.3558 -0.8274 0.4346
vn 0.2932 -0.6399 0.7103
vn -0.642 0.2373 0.7291
vn -0.4064 0.5833 0.7033
vn -0.482 0.5439 0.6869
vn -0.057 0.5164 0.8544
vn -0.3904 -0.2242 0.8929
vn -0.6181 -0.2296 0.7519
vn 0.2152 0.1264 0.9684
vn 0.0828 0.0003 0.9966
vn 0.7661 -0.3165 -0.5595
vn 0.0369 -0.6756 -0.7363
vn 0.7675 -0.3173 -0.5571
vn 0.8365 0.1128 -0.5362
vn 0.0502 -0.6492 -0.759
vn -0.2557 -0.4554 -0.8528
vn 0.7207 0.3326 -0.6082
vn -0.336 -0.212 -0.9177
vn 0.5694 0.4062 -0.7147
vn 0.6623 0.6327 -0.4014
vn -0.2763 -0.0153 -0.961
vn -0.5437 0.0077 -0.8392
vn 0.256 0.5312 0.8077
vn -0.8076 -0.3097 0.5018
vn 0.6606 0.4144 0.626
vn 0.3642 0.4337 0.8241
vn -0.8239 -0.2387 0.514
vn -0.8648 -0.3816 0.3263
vn 0.7108 0.4916 0.5031
vn -0.9382 -0.3342 0.0903
vn 0.6824 0.5416 0.4909
vn 0.6645 0.5365 0.5201
vn -0.9551 -0.2727 0.1159
vn -0.9576 -0.2789 0.0727
vn 0.6777 0.557 0.4801
vn -0.964 -0.2594 0.0588
vn 0.4104 0.8653 0.2878
vn 0.3417 0.8191 0.4608
vn 0.6392 0.6004 0.4806
vn 0.6287 0.567 0.5322
vn -0.9663 -0.2228 0.129
vn -0.978 -0.1978 0.0659
vn -0.9538 0.2672 0.1372
vn -0.9591 0.2802 -0.0392
vn 0.7767 -0.4055 -0.482
vn 0.5904 -0.7082 -0.3871
vn 0.3561 -0.8272 -0.4347
vn 0.079 -0.7774 -0.624
vn 0.1744 0.7614 0.6244
vn 0.1694 0.953 0.2513
vn 0.1293 0.9363 0.3264
vn 0.4919 0.8689 0.0556
vn 0.5781 0.3975 0.7126
vn 0.3491 0.3913 0.8515
vn 0.8445 0.5304 0.0748
vn 0.8371 0.4846 0.2539
vn 0.0496 -0.7764 -0.6283
vn -0.3592 -0.9299 0.0798
vn 0.0525 -0.7763 -0.6282
vn -0.0278 -0.442 -0.8966
vn -0.3784 -0.9244 0.0484
vn -0.6719 -0.7225 0.1629
vn -0.2131 -0.2669 -0.9399
vn -0.8404 -0.5358 0.0815
vn -0.3993 -0.2156 -0.8911
vn -0.1712 0.0977 -0.9804
vn -0.9046 -0.4186 -0.0806
vn -0.9535 -0.2554 0.1599
vn 0.6127 0.7602 -0.2164
vn 0.0761 0.2576 0.9632
vn 0.714 0.4487 -0.5374
vn 0.7121 0.657 -0.2475
vn 0.0554 0.3258 0.9438
vn -0.0713 0.1278 0.9892
vn 0.6183 0.4322 -0.6564
vn -0.312 0.0678 0.9476
vn 0.5784 0.4749 -0.6632
vn 0.594 0.4912 -0.6371
vn -0.3194 0.1354 0.9379
vn -0.3532 0.1091 0.9292
vn 0.5626 0.4831 -0.6709
vn -0.3737 0.1196 0.9198
vn 0.1755 0.7144 -0.6774
vn 0.2919 0.7871 -0.5434
vn 0.5296 0.5301 -0.6622
vn 0.5757 0.5329 -0.6202
vn -0.3302 0.1855 0.9255
vn -0.3943 0.177 0.9018
vn -0.4684 0.5788 0.6675
vn -0.6157 0.5007 0.6084
vn 0.1443 -0.8115 -0.5663
vn 0.2167 -0.9482 -0.2325
vn 0.0937 -0.9956 -0.0002
vn -0.2163 -0.967 0.1344
vn -0.9876 0.0154 -0.1561
vn -0.937 0.2554 0.2384
vn -0.9643 0.2526 0.0795
vn -0.8699 -0.0054 0.4931
vn -0.8451 -0.5161 -0.1391
vn -0.8493 -0.378 -0.3686
vn -0.699 -0.4605 0.5471
vn -0.7513 -0.5351 0.3862
vn 0.9413 -0.204 0.269
vn 0.8145 -0.1764 -0.5527
vn 0.9404 -0.2063 0.2704
vn 0.8269 0.1067 0.5522
vn 0.8313 -0.1478 -0.5358
vn 0.6874 0.15 -0.7106
vn 0.7563 0.3554 0.5492
vn 0.6223 0.4032 -0.6709
vn 0.7399 0.5156 0.4321
vn 0.4685 0.5083 0.7226
vn 0.6271 0.5646 -0.5366
vn 0.3841 0.6033 -0.6989
vn -0.4476 -0.3806 0.8092
vn -0.7226 -0.2569 -0.6417
vn -0.2032 -0.1038 0.9736
vn -0.6644 -0.0847 0.7425
vn -0.7607 -0.2003 -0.6175
vn -0.5913 -0.206 -0.7797
vn -0.1835 -0.0825 0.9795
vn -0.456 -0.0246 -0.8896
vn -0.2041 -0.0275 0.9786
vn -0.235 -0.041 0.9711
vn -0.5042 0.0168 -0.8634
vn -0.4691 0.0347 -0.8825
vn -0.2026 -0.0081 0.9792
vn -0.4673 0.0594 -0.8821
vn -0.2833 0.42 0.8622
vn -0.4426 0.3156 0.8393
vn -0.2364 0.0384 0.9709
vn -0.2727 -0.0117 0.962
vn -0.5358 0.0535 -0.8427
vn -0.4994 0.1095 -0.8594
vn -0.6871 0.4384 -0.5794
vn -0.5533 0.5408 -0.6336
vn 0.8985 -0.3601 0.2512
vn 0.8361 -0.5467 0.0458
vn 0.7866 -0.5508 -0.279
vn 0.7782 -0.3286 -0.5352
vn 0.0379 0.9087 -0.4156
vn 0.038 0.9087 -0.4156
vn -0.5969 0.4376 -0.6725
vn -0.9892 0.1464 -0.0
vn -0.5969 0.4376 0.6725
vn 0.038 0.9087 0.4156
vn 0.2433 -0.6961 -0.6754
vn -0.0912 -0.9958 -0.0
vn 0.2022 -0.6646 0.7193
vn 0.8613 0.0128 0.508
vn 0.8705 -0.04 -0.4905
vn -0.596 0.803 -0.0
vn 0.3183 0.4443 -0.8374
vn 0.1493 0.765 -0.6265
vn 0.2207 0.7238 -0.6538
vn -0.2362 0.7379 -0.6323
vn -0.0234 0.0439 -0.9988
vn 0.2397 0.0025 -0.9708
vn -0.5696 0.3916 -0.7227
vn -0.4731 0.2808 -0.8351
vn -0.5071 -0.4742 0.7197
vn 0.1912 -0.8568 0.4789
vn -0.5095 -0.4743 0.718
vn -0.5367 -0.0571 0.8418
vn 0.1907 -0.8381 0.5111
vn 0.5268 -0.6737 0.5182
vn -0.38 0.1352 0.915
vn 0.6507 -0.4574 0.6061
vn -0.1922 0.1782 0.9651
vn -0.3787 0.4825 0.7898
vn 0.6336 -0.2819 0.7204
vn 0.8311 -0.2211 0.5102
vn -0.5013 0.7337 -0.4588
vn 0.504 -0.1419 -0.8519
vn -0.8094 0.5637 -0.1646
vn -0.6165 0.6431 -0.4543
vn 0.5213 -0.0701 -0.8505
vn 0.6189 -0.2596 -0.7414
vn -0.7982 0.6021 -0.0163
vn 0.7847 -0.2796 -0.5532
vn -0.7624 0.6471 -0.0042
vn -0.7583 0.6508 -0.0384
vn 0.7962 -0.2131 -0.5662
vn 0.8151 -0.2313 -0.5312
vn -0.7522 0.6589 0.0073
vn 0.8284 -0.2164 -0.5166
vn -0.4004 0.9045 0.1465
vn -0.4115 0.9103 -0.0449
vn -0.7128 0.7013 0.0026
vn -0.7273 0.684 -0.0557
vn 0.8063 -0.1614 -0.5691
vn 0.8447 -0.1551 -0.5123
vn 0.8417 0.3106 -0.4417
vn 0.9182 0.2733 -0.2866
vn -0.5568 -0.5379 0.633
vn -0.4559 -0.7983 0.3935
vn -0.2355 -0.9221 0.3071
vn 0.0976 -0.9234 0.3713
vn 0.9447 0.0003 -0.328
vn 0.7772 0.3199 -0.5419
vn 0.8285 0.293 -0.4772
vn 0.5436 0.1852 -0.8187
vn 0.7472 -0.5023 -0.4352
vn 0.8716 -0.4453 -0.205
vn 0.3134 -0.2342 -0.9203
vn 0.4236 -0.3547 -0.8335
vn -0.9777 -0.1407 0.1559
vn -0.4895 -0.3744 0.7876
vn -0.9778 -0.1424 0.1536
vn -0.9678 0.2484 -0.0396
vn -0.5085 -0.3425 0.79
vn -0.2662 -0.1117 0.9574
vn -0.8743 0.4854 0.0046
vn -0.1964 0.1429 0.9701
vn -0.7873 0.6 0.1423
vn -0.6804 0.6964 -0.2283
vn -0.2421 0.3388 0.9092
vn 0.0508 0.332 0.9419
vn 0.254 0.1984 -0.9466
vn 0.8991 -0.4219 0.1169
vn -0.199 0.1311 -0.9712
vn 0.156 0.0956 -0.9831
vn 0.9288 -0.3589 0.0922
vn 0.8512 -0.4242 0.3091
vn -0.2925 0.2437 -0.9247
vn 0.8034 -0.2929 0.5183
vn -0.2673 0.2963 -0.9169
vn -0.2382 0.2822 -0.9293
vn 0.8391 -0.2435 0.4865
vn 0.8189 -0.234 0.5241
vn -0.2666 0.3147 -0.911
vn 0.8201 -0.2105 0.532
vn -0.0907 0.685 -0.7229
vn 0.0478 0.5848 -0.8098
vn -0.2274 0.3572 -0.9059
vn -0.1973 0.3084 -0.9306
vn 0.862 -0.2009 0.4655
vn 0.8442 -0.1547 0.5133
vn 0.9224 0.2534 0.2915
vn 0.8412 0.3279 0.43
vn -0.9605 -0.2518 0.1183
vn -0.7951 -0.5579 0.2377
vn -0.6341 -0.6396 0.4346
vn -0.4837 -0.5114 0.7103
vn -0.0202 0.6842 0.7291
vn 0.3889 0.5951 0.7033
vn 0.3241 0.6505 0.6869
vn 0.4576 0.2462 0.8544
vn -0.354 0.2782 0.8929
vn -0.4442 0.4872 0.7519
vn 0.1977 -0.1522 0.9684
vn 0.0313 -0.0767 0.9966
vn -0.0068 -0.8288 -0.5595
vn -0.6127 -0.287 -0.7363
vn -0.007 -0.8304 -0.5571
vn 0.4176 -0.7335 -0.5362
vn -0.5832 -0.2895 -0.759
vn -0.518 0.0668 -0.8528
vn 0.5781 -0.5439 -0.6082
vn -0.3224 0.2322 -0.9177
vn 0.5898 -0.376 -0.7147
vn 0.8346 -0.3774 -0.4014
vn -0.1175 0.2505 -0.961
vn -0.1963 0.5071 -0.8392
vn 0.5884 -0.0386 0.8077
vn -0.5894 0.6331 0.5018
vn 0.6315 -0.4575 0.626
vn 0.5385 -0.1755 0.8241
vn -0.5297 0.6747 0.514
vn -0.6775 0.6592 0.3263
vn 0.7219 -0.4752 0.5031
vn -0.661 0.745 0.0903
vn 0.7576 -0.4301 0.4909
vn 0.7462 -0.4155 0.5201
vn -0.6102 0.7837 0.1159
vn -0.6169 0.7836 0.0727
vn 0.7701 -0.4201 0.4801
vn -0.6013 0.7969 0.0588
vn 0.956 -0.0568 0.2878
vn 0.8874 -0.0104 0.4608
vn 0.796 -0.3681 0.4806
vn 0.761 -0.3709 0.5323
vn -0.5682 0.8127 0.129
vn -0.5494 0.833 0.0659
vn -0.1092 0.9845 0.1372
vn -0.099 0.9943 -0.0392
vn -0.0854 -0.872 -0.482
vn -0.4358 -0.8125 -0.3871
vn -0.6339 -0.6397 -0.4347
vn -0.6914 -0.3642 -0.624
vn 0.7714 0.1232 0.6244
vn 0.9471 0.1995 0.2513
vn 0.9167 0.2305 0.3264
vn 0.9898 -0.1311 0.0556
vn 0.5849 -0.3873 0.7126
vn 0.4935 -0.1773 0.8515
vn 0.8078 -0.5846 0.0748
vn 0.7626 -0.595 0.2539
vn -0.7014 -0.3365 -0.6283
vn -0.9967 -0.0149 0.0798
vn -0.7002 -0.3391 -0.6282
vn -0.4203 -0.1396 -0.8966
vn -0.9988 0.005 0.0484
vn -0.9214 0.3527 0.1629
vn -0.3273 0.0978 -0.9399
vn -0.8114 0.5788 0.0815
vn -0.3493 0.2896 -0.8911
vn 0.0265 0.1953 -0.9804
vn -0.7267 0.6822 -0.0806
vn -0.5936 0.7887 0.1599
vn 0.9342 -0.2837 -0.2164
vn 0.2674 0.0258 0.9632
vn 0.6833 -0.4942 -0.5374
vn 0.8758 -0.4145 -0.2475
vn 0.3229 0.0705 0.9438
vn 0.0919 0.1139 0.9892
vn 0.6322 -0.4117 -0.6564
vn -0.0539 0.3147 0.9476
vn 0.6568 -0.3587 -0.6632
vn 0.6778 -0.367 -0.6371
vn 0.006 0.3469 0.9379
vn -0.031 0.3684 0.9292
vn 0.6585 -0.341 -0.6709
vn -0.0289 0.3913 0.9198
vn 0.7282 0.1046 -0.6774
vn 0.8392 0.0239 -0.5434
vn 0.6897 -0.2928 -0.6622
vn 0.7096 -0.3344 -0.6202
vn 0.0485 0.3756 0.9255
vn 0.0166 0.4319 0.9018
vn 0.3615 0.6509 0.6675
vn 0.2339 0.7584 0.6084
vn -0.6985 -0.4375 -0.5663
vn -0.7982 -0.5557 -0.2325
vn -0.8882 -0.4595 -0.0002
vn -0.9777 -0.1612 0.1344
vn -0.3552 0.9216 -0.1561
vn -0.1138 0.9645 0.2384
vn -0.1266 0.9888 0.0795
vn -0.3305 0.8047 0.4931
vn -0.7949 0.5906 -0.1391
vn -0.6683 0.6461 -0.3686
vn -0.6886 0.4759 0.5471
vn -0.7774 0.4965 0.3862
vn 0.1631 -0.9492 0.269
vn 0.1412 -0.8213 -0.5527
vn 0.1606 -0.9492 0.2704
vn 0.4083 -0.7269 0.5522
vn 0.174 -0.8262 -0.5358
vn 0.3964 -0.5813 -0.7106
vn 0.6126 -0.5684 0.5492
vn 0.6067 -0.4263 -0.6709
vn 0.755 -0.4932 0.4321
vn 0.6467 -0.2442 0.7226
vn 0.7583 -0.3703 -0.5366
vn 0.7032 -0.1304 -0.6989
vn -0.5204 0.2726 0.8092
vn -0.5087 0.574 -0.6417
vn -0.1723 0.1496 0.9736
vn -0.3272 0.5844 0.7425
vn -0.4704 0.6304 -0.6175
vn -0.4123 0.4713 -0.7797
vn -0.1452 0.1393 0.9795
vn -0.1935 0.4137 -0.8896
vn -0.1018 0.179 0.9786
vn -0.1259 0.2026 0.9711
vn -0.1731 0.4738 -0.8634
vn -0.1434 0.448 -0.8825
vn -0.0834 0.1848 0.9792
vn -0.1198 0.4556 -0.8821
vn 0.2834 0.4198 0.8622
vn 0.1271 0.5285 0.8393
vn -0.0529 0.2336 0.9709
vn -0.1129 0.2485 0.962
vn -0.1508 0.5169 -0.8427
vn -0.0853 0.5041 -0.8594
vn 0.1494 0.8012 -0.5794
vn 0.2944 0.7154 -0.6336
vn 0.0023 -0.9679 0.2512
vn -0.1941 -0.9799 0.0458
vn -0.2165 -0.9356 -0.279
vn -0.0135 -0.8446 -0.5352
vn 0.8569 0.3049 -0.4156
vn 0.1824 0.7173 -0.6725
vn -0.2344 0.9721 -0.0
vn 0.1824 0.7173 0.6725
vn 0.8569 0.3049 0.4156
vn -0.5236 -0.3821 -0.7615
vn -0.9999 -0.0147 -0.0
vn -0.4853 -0.2771 0.8293
vn 0.3034 -0.8134 0.4963
vn 0.2393 -0.8495 -0.4703
vn 0.5217 0.8532 -0.0
vn 0.7035 0.4013 -0.5865
vn 0.7036 0.4027 -0.5855
vn -0.2269 -0.2129 -0.9504
vn -0.2268 -0.2126 -0.9504
vn -0.8045 -0.5939 -0.0
vn -0.2268 -0.2126 0.9504
vn -0.2269 -0.213 0.9504
vn 0.7035 0.4013 0.5865
vn 0.7036 0.4027 0.5855
vn -0.3088 -0.0413 -0.9502
vn -0.3353 -0.0553 -0.9405
vn -0.9956 -0.0935 -0.0
vn -0.3088 -0.0413 0.9502
vn -0.3353 -0.0553 0.9405
vn 0.8061 0.0852 0.5856
vn 0.8357 0.108 0.5385
vn 0.8061 0.0852 -0.5856
vn 0.8357 0.108 -0.5385
vn -0.2593 -0.1682 -0.951
vn -0.2594 -0.1682 -0.951
vn -0.7073 -0.7069 -0.0
vn -0.2593 -0.1682 0.9511
vn -0.2594 -0.1682 0.951
vn 0.4589 0.687 0.5634
vn 0.4589 0.687 -0.5634
vn -0.2037 -0.2438 0.9482
vn -0.2036 -0.2438 0.9482
vn -0.6349 -0.7726 -0.0
vn -0.2037 -0.2438 -0.9482
vn -0.2036 -0.2438 -0.9482
vn 0.5146 0.6365 -0.5745
vn 0.5146 0.6365 0.5745
vn -0.309 0.0635 -0.9489
vn -0.3052 0.0642 -0.9501
vn -0.9795 0.2013 -0.0
vn -0.309 0.0635 0.9489
vn -0.3052 0.0642 0.9501
vn 0.7981 -0.1679 0.5786
vn 0.794 -0.1695 0.5838
vn 0.7981 -0.1679 -0.5786
vn 0.794 -0.1695 -0.5838
vn -0.2923 0.1928 -0.9367
vn -0.2438 0.2045 -0.948
vn -0.8793 0.4763 -0.0
vn -0.2923 0.1928 0.9367
vn -0.2438 0.2044 0.948
vn 0.7481 -0.3568 0.5594
vn 0.7154 -0.3783 0.5874
vn 0.7481 -0.3568 -0.5594
vn 0.7154 -0.3783 -0.5874
vn -0.2009 0.2495 -0.9473
vn -0.2232 0.2561 -0.9405
vn -0.6975 0.7166 -0.0
vn -0.2009 0.2495 0.9473
vn -0.2232 0.2561 0.9405
vn 0.6265 -0.5131 0.5867
vn 0.6383 -0.514 0.573
vn 0.6265 -0.5131 -0.5867
vn 0.6383 -0.514 -0.573
vn -0.1795 0.3433 -0.9219
vn -0.5996 0.8003 -0.0
vn -0.1795 0.3433 0.9219
vn 0.614 -0.5494 0.5667
vn 0.614 -0.5494 -0.5667
vn 0.6711 -0.4578 0.5832
vn 0.6666 -0.4584 0.5878
vn -0.2272 0.2367 0.9446
vn -0.2119 0.2346 0.9487
vn -0.7632 0.6462 -0.0
vn -0.2272 0.2367 -0.9446
vn -0.2119 0.2346 -0.9487
vn 0.6711 -0.4578 -0.5832
vn 0.6666 -0.4584 -0.5878
vn -0.4034 -0.2089 -0.8909
vn -0.2654 -0.1854 -0.9461
vn 0.1941 -0.9018 -0.3862
vn 0.2877 -0.8917 -0.3494
vn 0.448 -0.7353 0.5086
vn 0.0263 -0.8278 0.5604
vn -0.2938 0.0986 0.9508
vn -0.6102 -0.0575 0.7901
vn -0.9486 0.3164 -0.0
vn -0.8514 0.483 -0.2045
usemtl Elf_bush_Map
f 1//1 6//1 3//1
f 3//2 6//2 5//2
f 1//3 2//3 6//3
f 6//4 2//4 4//4
f 1//5 21//5 2//5
f 2//6 21//6 7//6
f 3//7 5//7 8//7
f 8//7 5//7 9//7
f 6//8 4//8 25//8
f 25//9 4//9 10//9
f 2//10 7//10 4//10
f 4//10 7//10 10//10
f 21//11 22//11 7//11
f 7//12 22//12 11//12
f 9//13 13//13 8//13
f 8//13 13//13 12//13
f 25//14 10//14 14//14
f 10//15 7//15 14//15
f 14//15 7//15 11//15
f 15//16 23//16 19//16
f 16//17 17//17 19//17
f 19//17 17//17 20//17
f 24//18 18//18 20//18
f 15//19 19//19 18//19
f 18//19 19//19 20//19
f 1//20 3//20 21//20
f 21//21 3//21 8//21
f 22//22 21//22 12//22
f 12//23 21//23 8//23
f 19//24 23//24 16//24
f 17//25 24//25 20//25
f 9//26 25//26 13//26
f 6//27 25//27 5//27
f 5//28 25//28 9//28
f 26//29 27//29 33//29
f 33//29 27//29 34//29
f 27//30 26//30 28//30
f 28//31 26//31 22//31
f 22//32 29//32 28//32
f 28//33 29//33 30//33
f 29//34 32//34 30//34
f 30//34 32//34 31//34
f 31//35 32//35 35//35
f 33//36 34//36 35//36
f 11//37 22//37 26//37
f 12//38 13//38 29//38
f 29//38 13//38 32//38
f 25//39 14//39 35//39
f 35//40 14//40 33//40
f 11//41 26//41 14//41
f 14//41 26//41 33//41
f 27//42 28//42 15//42
f 15//43 28//43 23//43
f 30//44 31//44 16//44
f 16//44 31//44 17//44
f 35//45 34//45 24//45
f 24//46 34//46 18//46
f 27//47 15//47 34//47
f 34//47 15//47 18//47
f 22//48 12//48 29//48
f 23//49 28//49 16//49
f 16//50 28//50 30//50
f 35//51 24//51 31//51
f 31//52 24//52 17//52
f 13//53 25//53 32//53
f 32//54 25//54 35//54
f 36//55 37//55 38//55
f 38//56 37//56 39//56
f 40//57 41//57 38//57
f 38//58 41//58 36//58
f 37//59 36//59 43//59
f 41//60 40//60 42//60
f 42//60 40//60 44//60
f 38//61 39//61 77//61
f 77//62 39//62 45//62
f 39//63 37//63 45//63
f 45//63 37//63 43//63
f 43//64 36//64 47//64
f 42//65 44//65 46//65
f 46//65 44//65 48//65
f 77//66 45//66 49//66
f 45//67 43//67 49//67
f 49//67 43//67 47//67
f 47//68 36//68 51//68
f 48//69 52//69 46//69
f 46//69 52//69 50//69
f 77//70 49//70 76//70
f 76//71 49//71 53//71
f 49//72 47//72 53//72
f 53//72 47//72 51//72
f 36//73 78//73 51//73
f 51//74 78//74 55//74
f 52//75 56//75 50//75
f 50//75 56//75 54//75
f 76//76 53//76 57//76
f 53//77 51//77 57//77
f 57//77 51//77 55//77
f 55//78 78//78 59//78
f 56//79 60//79 54//79
f 54//80 60//80 58//80
f 76//81 57//81 83//81
f 83//82 57//82 61//82
f 57//83 55//83 61//83
f 61//84 55//84 59//84
f 78//85 79//85 59//85
f 59//86 79//86 63//86
f 58//87 60//87 62//87
f 62//88 60//88 64//88
f 83//89 61//89 65//89
f 59//90 63//90 61//90
f 61//91 63//91 65//91
f 63//92 79//92 67//92
f 64//93 68//93 62//93
f 62//93 68//93 66//93
f 83//94 65//94 82//94
f 82//95 65//95 69//95
f 65//96 63//96 69//96
f 69//96 63//96 67//96
f 79//97 80//97 67//97
f 67//98 80//98 71//98
f 66//99 68//99 70//99
f 70//100 68//100 72//100
f 69//101 73//101 82//101
f 82//102 73//102 81//102
f 67//103 71//103 69//103
f 69//104 71//104 73//104
f 71//105 80//105 74//105
f 70//106 72//106 74//106
f 74//106 72//106 75//106
f 81//107 73//107 75//107
f 71//108 74//108 73//108
f 73//109 74//109 75//109
f 77//110 76//110 48//110
f 48//111 76//111 52//111
f 44//112 77//112 48//112
f 38//113 77//113 40//113
f 40//114 77//114 44//114
f 36//115 41//115 42//115
f 36//116 42//116 46//116
f 36//117 46//117 50//117
f 36//118 50//118 78//118
f 78//119 50//119 54//119
f 78//120 54//120 58//120
f 79//121 78//121 62//121
f 62//122 78//122 58//122
f 79//123 62//123 66//123
f 79//124 66//124 80//124
f 80//125 66//125 70//125
f 74//126 80//126 70//126
f 72//127 81//127 75//127
f 68//128 82//128 72//128
f 72//129 82//129 81//129
f 83//130 82//130 64//130
f 64//131 82//131 68//131
f 60//132 83//132 64//132
f 76//133 83//133 56//133
f 56//134 83//134 60//134
f 52//135 76//135 56//135
f 84//136 85//136 86//136
f 86//137 85//137 87//137
f 88//138 89//138 86//138
f 86//139 89//139 84//139
f 85//140 84//140 91//140
f 89//141 88//141 90//141
f 90//141 88//141 92//141
f 86//142 87//142 125//142
f 125//143 87//143 93//143
f 87//144 85//144 93//144
f 93//144 85//144 91//144
f 91//145 84//145 95//145
f 90//146 92//146 94//146
f 94//146 92//146 96//146
f 125//147 93//147 97//147
f 93//148 91//148 97//148
f 97//148 91//148 95//148
f 95//149 84//149 99//149
f 96//150 100//150 94//150
f 94//150 100//150 98//150
f 125//151 97//151 124//151
f 124//152 97//152 101//152
f 97//153 95//153 101//153
f 101//153 95//153 99//153
f 84//154 126//154 99//154
f 99//155 126//155 103//155
f 100//156 104//156 98//156
f 98//156 104//156 102//156
f 124//157 101//157 105//157
f 101//158 99//158 105//158
f 105//158 99//158 103//158
f 103//159 126//159 107//159
f 104//160 108//160 102//160
f 102//161 108//161 106//161
f 124//162 105//162 131//162
f 131//163 105//163 109//163
f 105//164 103//164 109//164
f 109//165 103//165 107//165
f 126//166 127//166 107//166
f 107//167 127//167 111//167
f 106//168 108//168 110//168
f 110//169 108//169 112//169
f 131//170 109//170 113//170
f 107//171 111//171 109//171
f 109//172 111//172 113//172
f 111//173 127//173 115//173
f 110//174 112//174 114//174
f 114//175 112//175 116//175
f 131//176 113//176 130//176
f 130//177 113//177 117//177
f 111//178 115//178 113//178
f 113//178 115//178 117//178
f 127//179 128//179 115//179
f 115//180 128//180 119//180
f 116//181 120//181 114//181
f 114//182 120//182 118//182
f 117//183 121//183 130//183
f 130//184 121//184 129//184
f 117//185 115//185 121//185
f 121//186 115//186 119//186
f 119//187 128//187 122//187
f 118//188 120//188 122//188
f 122//188 120//188 123//188
f 129//189 121//189 123//189
f 119//190 122//190 121//190
f 121//186 122//186 123//186
f 125//191 124//191 96//191
f 96//192 124//192 100//192
f 92//193 125//193 96//193
f 86//194 125//194 88//194
f 88//195 125//195 92//195
f 84//196 89//196 90//196
f 84//197 90//197 94//197
f 84//198 94//198 98//198
f 84//199 98//199 126//199
f 126//200 98//200 102//200
f 126//201 102//201 106//201
f 126//202 106//202 127//202
f 127//203 106//203 110//203
f 127//204 110//204 114//204
f 127//205 114//205 128//205
f 128//206 114//206 118//206
f 122//207 128//207 118//207
f 120//208 129//208 123//208
f 116//209 130//209 120//209
f 120//210 130//210 129//210
f 131//211 130//211 112//211
f 112//212 130//212 116//212
f 108//213 131//213 112//213
f 124//214 131//214 104//214
f 104//215 131//215 108//215
f 100//216 124//216 104//216
f 152//217 151//217 149//217
f 149//218 151//218 148//218
f 148//219 151//219 150//219
f 150//220 151//220 153//220
f 152//221 155//221 151//221
f 151//222 155//222 154//222
f 154//223 156//223 151//223
f 151//224 156//224 153//224
f 135//225 136//225 138//225
f 136//226 137//226 139//226
f 136//227 141//227 138//227
f 138//228 141//228 140//228
f 136//229 139//229 141//229
f 141//230 139//230 142//230
f 140//231 141//231 143//231
f 141//232 142//232 144//232
f 141//233 146//233 143//233
f 143//234 146//234 145//234
f 141//235 144//235 146//235
f 146//236 144//236 147//236
f 133//237 148//237 132//237
f 132//238 148//238 134//238
f 135//239 149//239 133//239
f 133//240 149//240 148//240
f 148//241 150//241 134//241
f 134//242 150//242 137//242
f 138//243 149//243 135//243
f 137//244 150//244 139//244
f 140//245 152//245 138//245
f 138//246 152//246 149//246
f 150//247 153//247 139//247
f 139//248 153//248 142//248
f 143//249 152//249 140//249
f 142//250 153//250 144//250
f 146//251 154//251 145//251
f 145//252 154//252 155//252
f 145//253 155//253 143//253
f 143//254 155//254 152//254
f 153//255 156//255 144//255
f 144//256 156//256 147//256
f 156//257 154//257 147//257
f 147//258 154//258 146//258
f 135//259 133//259 136//259
f 136//260 133//260 132//260
f 132//261 134//261 136//261
f 136//262 134//262 137//262
f 177//263 176//263 174//263
f 174//264 176//264 173//264
f 173//265 176//265 175//265
f 175//266 176//266 178//266
f 177//267 180//267 176//267
f 176//268 180//268 179//268
f 179//269 181//269 176//269
f 176//270 181//270 178//270
f 160//271 161//271 163//271
f 161//272 162//272 164//272
f 161//273 166//273 163//273
f 163//274 166//274 165//274
f 161//275 164//275 166//275
f 166//276 164//276 167//276
f 165//277 166//277 168//277
f 166//278 167//278 169//278
f 166//279 171//279 168//279
f 168//280 171//280 170//280
f 166//281 169//281 171//281
f 171//282 169//282 172//282
f 158//283 173//283 157//283
f 157//284 173//284 159//284
f 160//285 174//285 158//285
f 158//286 174//286 173//286
f 173//287 175//287 159//287
f 159//288 175//288 162//288
f 163//289 174//289 160//289
f 162//290 175//290 164//290
f 165//291 177//291 163//291
f 163//292 177//292 174//292
f 175//293 178//293 164//293
f 164//294 178//294 167//294
f 168//295 177//295 165//295
f 167//296 178//296 169//296
f 171//297 179//297 170//297
f 170//298 179//298 180//298
f 170//299 180//299 168//299
f 168//300 180//300 177//300
f 178//301 181//301 169//301
f 169//302 181//302 172//302
f 181//303 179//303 172//303
f 172//304 179//304 171//304
f 160//305 158//305 161//305
f 161//306 158//306 157//306
f 157//307 159//307 161//307
f 161//308 159//308 162//308
f 202//309 201//309 199//309
f 199//310 201//310 198//310
f 198//311 201//311 200//311
f 200//312 201//312 203//312
f 202//313 205//313 201//313
f 201//314 205//314 204//314
f 204//315 206//315 201//315
f 201//316 206//316 203//316
f 185//317 186//317 188//317
f 186//318 187//318 189//318
f 186//319 191//319 188//319
f 188//320 191//320 190//320
f 186//321 189//321 191//321
f 191//322 189//322 192//322
f 190//323 191//323 193//323
f 191//324 192//324 194//324
f 191//325 196//325 193//325
f 193//326 196//326 195//326
f 191//327 194//327 196//327
f 196//328 194//328 197//328
f 183//329 198//329 182//329
f 182//330 198//330 184//330
f 185//331 199//331 183//331
f 183//332 199//332 198//332
f 198//333 200//333 184//333
f 184//334 200//334 187//334
f 188//335 199//335 185//335
f 187//336 200//336 189//336
f 190//337 202//337 188//337
f 188//338 202//338 199//338
f 200//339 203//339 189//339
f 189//340 203//340 192//340
f 193//341 202//341 190//341
f 192//342 203//342 194//342
f 196//343 204//343 195//343
f 195//344 204//344 205//344
f 195//345 205//345 193//345
f 193//346 205//346 202//346
f 203//347 206//347 194//347
f 194//348 206//348 197//348
f 206//349 204//349 197//349
f 197//350 204//350 196//350
f 185//351 183//351 186//351
f 186//352 183//352 182//352
f 182//353 184//353 186//353
f 186//354 184//354 187//354
f 227//355 226//355 224//355
f 224//356 226//356 223//356
f 223//357 226//357 225//357
f 225//358 226//358 228//358
f 227//359 230//359 226//359
f 226//360 230//360 229//360
f 229//361 231//361 226//361
f 226//362 231//362 228//362
f 210//363 211//363 213//363
f 211//364 212//364 214//364
f 211//365 216//365 213//365
f 213//366 216//366 215//366
f 211//367 214//367 216//367
f 216//368 214//368 217//368
f 215//369 216//369 218//369
f 216//370 217//370 219//370
f 216//371 221//371 218//371
f 218//372 221//372 220//372
f 216//373 219//373 221//373
f 221//374 219//374 222//374
f 208//375 223//375 207//375
f 207//376 223//376 209//376
f 210//377 224//377 208//377
f 208//378 224//378 223//378
f 223//379 225//379 209//379
f 209//380 225//380 212//380
f 213//381 224//381 210//381
f 212//382 225//382 214//382
f 215//383 227//383 213//383
f 213//384 227//384 224//384
f 225//385 228//385 214//385
f 214//386 228//386 217//386
f 218//387 227//387 215//387
f 217//388 228//388 219//388
f 221//389 229//389 220//389
f 220//390 229//390 230//390
f 220//391 230//391 218//391
f 218//392 230//392 227//392
f 228//393 231//393 219//393
f 219//394 231//394 222//394
f 231//395 229//395 222//395
f 222//396 229//396 221//396
f 210//397 208//397 211//397
f 211//398 208//398 207//398
f 207//399 209//399 211//399
f 211//400 209//400 212//400
f 252//401 251//401 249//401
f 249//402 251//402 248//402
f 248//403 251//403 250//403
f 250//404 251//404 253//404
f 252//405 255//405 251//405
f 251//406 255//406 254//406
f 254//407 256//407 251//407
f 251//408 256//408 253//408
f 235//409 236//409 238//409
f 236//410 237//410 239//410
f 236//411 241//411 238//411
f 238//412 241//412 240//412
f 236//413 239//413 241//413
f 241//414 239//414 242//414
f 240//415 241//415 243//415
f 241//416 242//416 244//416
f 241//417 246//417 243//417
f 243//418 246//418 245//418
f 241//419 244//419 246//419
f 246//420 244//420 247//420
f 233//421 248//421 232//421
f 232//422 248//422 234//422
f 235//423 249//423 233//423
f 233//424 249//424 248//424
f 248//425 250//425 234//425
f 234//426 250//426 237//426
f 238//427 249//427 235//427
f 237//428 250//428 239//428
f 240//429 252//429 238//429
f 238//430 252//430 249//430
f 250//431 253//431 239//431
f 239//432 253//432 242//432
f 243//433 252//433 240//433
f 242//434 253//434 244//434
f 246//435 254//435 245//435
f 245//436 254//436 255//436
f 245//437 255//437 243//437
f 243//438 255//438 252//438
f 253//439 256//439 244//439
f 244//440 256//440 247//440
f 256//441 254//441 247//441
f 247//442 254//442 246//442
f 235//443 233//443 236//443
f 236//444 233//444 232//444
f 232//445 234//445 236//445
f 236//446 234//446 237//446
f 259//447 260//447 267//447
f 267//448 260//448 268//448
f 260//449 259//449 262//449
f 262//449 259//449 261//449
f 262//450 261//450 264//450
f 264//450 261//450 263//450
f 264//451 263//451 266//451
f 266//451 263//451 265//451
f 266//452 265//452 268//452
f 268//452 265//452 267//452
f 257//453 261//453 259//453
f 257//454 263//454 261//454
f 257//455 265//455 263//455
f 257//456 267//456 265//456
f 257//457 259//457 267//457
f 260//458 262//458 258//458
f 262//458 264//458 258//458
f 264//458 266//458 258//458
f 266//458 268//458 258//458
f 268//458 260//458 258//458
f 289//459 288//459 286//459
f 286//460 288//460 285//460
f 285//461 288//461 287//461
f 287//462 288//462 290//462
f 289//463 292//463 288//463
f 288//464 292//464 291//464
f 291//465 293//465 288//465
f 288//466 293//466 290//466
f 272//467 273//467 275//467
f 273//468 274//468 276//468
f 273//469 278//469 275//469
f 275//470 278//470 277//470
f 273//471 276//471 278//471
f 278//472 276//472 279//472
f 277//473 278//473 280//473
f 278//474 279//474 281//474
f 278//475 283//475 280//475
f 280//476 283//476 282//476
f 278//477 281//477 283//477
f 283//478 281//478 284//478
f 270//479 285//479 269//479
f 269//480 285//480 271//480
f 272//481 286//481 270//481
f 270//482 286//482 285//482
f 285//483 287//483 271//483
f 271//484 287//484 274//484
f 275//485 286//485 272//485
f 274//486 287//486 276//486
f 277//487 289//487 275//487
f 275//488 289//488 286//488
f 287//489 290//489 276//489
f 276//490 290//490 279//490
f 280//491 289//491 277//491
f 279//492 290//492 281//492
f 283//493 291//493 282//493
f 282//494 291//494 292//494
f 282//495 292//495 280//495
f 280//496 292//496 289//496
f 290//497 293//497 281//497
f 281//498 293//498 284//498
f 293//499 291//499 284//499
f 284//500 291//500 283//500
f 272//501 270//501 273//501
f 273//502 270//502 269//502
f 269//503 271//503 273//503
f 273//504 271//504 274//504
f 314//505 313//505 311//505
f 311//506 313//506 310//506
f 310//507 313//507 312//507
f 312//508 313//508 315//508
f 314//509 317//509 313//509
f 313//510 317//510 316//510
f 316//511 318//511 313//511
f 313//512 318//512 315//512
f 297//513 298//513 300//513
f 298//514 299//514 301//514
f 298//515 303//515 300//515
f 300//516 303//516 302//516
f 298//517 301//517 303//517
f 303//518 301//518 304//518
f 302//519 303//519 305//519
f 303//520 304//520 306//520
f 303//521 308//521 305//521
f 305//522 308//522 307//522
f 303//523 306//523 308//523
f 308//524 306//524 309//524
f 295//525 310//525 294//525
f 294//526 310//526 296//526
f 297//527 311//527 295//527
f 295//528 311//528 310//528
f 310//529 312//529 296//529
f 296//530 312//530 299//530
f 300//531 311//531 297//531
f 299//532 312//532 301//532
f 302//533 314//533 300//533
f 300//534 314//534 311//534
f 312//535 315//535 301//535
f 301//536 315//536 304//536
f 305//537 314//537 302//537
f 304//538 315//538 306//538
f 308//539 316//539 307//539
f 307//540 316//540 317//540
f 307//541 317//541 305//541
f 305//542 317//542 314//542
f 315//543 318//543 306//543
f 306//544 318//544 309//544
f 318//545 316//545 309//545
f 309//546 316//546 308//546
f 297//547 295//547 298//547
f 298//548 295//548 294//548
f 294//549 296//549 298//549
f 298//550 296//550 299//550
f 339//551 338//551 336//551
f 336//552 338//552 335//552
f 335//553 338//553 337//553
f 337//554 338//554 340//554
f 339//555 342//555 338//555
f 338//556 342//556 341//556
f 341//557 343//557 338//557
f 338//558 343//558 340//558
f 322//559 323//559 325//559
f 323//560 324//560 326//560
f 323//561 328//561 325//561
f 325//562 328//562 327//562
f 323//563 326//563 328//563
f 328//564 326//564 329//564
f 327//565 328//565 330//565
f 328//566 329//566 331//566
f 328//567 333//567 330//567
f 330//568 333//568 332//568
f 328//569 331//569 333//569
f 333//570 331//570 334//570
f 320//571 335//571 319//571
f 319//572 335//572 321//572
f 322//573 336//573 320//573
f 320//574 336//574 335//574
f 335//575 337//575 321//575
f 321//576 337//576 324//576
f 325//577 336//577 322//577
f 324//578 337//578 326//578
f 327//579 339//579 325//579
f 325//580 339//580 336//580
f 337//581 340//581 326//581
f 326//582 340//582 329//582
f 330//583 339//583 327//583
f 329//584 340//584 331//584
f 333//585 341//585 332//585
f 332//586 341//586 342//586
f 332//587 342//587 330//587
f 330//588 342//588 339//588
f 340//589 343//589 331//589
f 331//590 343//590 334//590
f 343//591 341//591 334//591
f 334//592 341//592 333//592
f 322//593 320//593 323//593
f 323//594 320//594 319//594
f 319//595 321//595 323//595
f 323//596 321//596 324//596
f 364//597 363//597 361//597
f 361//598 363//598 360//598
f 360//599 363//599 362//599
f 362//600 363//600 365//600
f 364//601 367//601 363//601
f 363//602 367//602 366//602
f 366//603 368//603 363//603
f 363//604 368//604 365//604
f 347//605 348//605 350//605
f 348//606 349//606 351//606
f 348//607 353//607 350//607
f 350//608 353//608 352//608
f 348//609 351//609 353//609
f 353//610 351//610 354//610
f 352//611 353//611 355//611
f 353//612 354//612 356//612
f 353//613 358//613 355//613
f 355//614 358//614 357//614
f 353//615 356//615 358//615
f 358//616 356//616 359//616
f 345//617 360//617 344//617
f 344//618 360//618 346//618
f 347//619 361//619 345//619
f 345//620 361//620 360//620
f 360//621 362//621 346//621
f 346//622 362//622 349//622
f 350//623 361//623 347//623
f 349//624 362//624 351//624
f 352//625 364//625 350//625
f 350//626 364//626 361//626
f 362//627 365//627 351//627
f 351//628 365//628 354//628
f 355//629 364//629 352//629
f 354//630 365//630 356//630
f 358//631 366//631 357//631
f 357//632 366//632 367//632
f 357//633 367//633 355//633
f 355//634 367//634 364//634
f 365//635 368//635 356//635
f 356//636 368//636 359//636
f 368//637 366//637 359//637
f 359//638 366//638 358//638
f 347//639 345//639 348//639
f 348//640 345//640 344//640
f 344//641 346//641 348//641
f 348//642 346//642 349//642
f 389//643 388//643 386//643
f 386//644 388//644 385//644
f 385//645 388//645 387//645
f 387//646 388//646 390//646
f 389//647 392//647 388//647
f 388//648 392//648 391//648
f 391//649 393//649 388//649
f 388//650 393//650 390//650
f 372//651 373//651 375//651
f 373//652 374//652 376//652
f 373//653 378//653 375//653
f 375//654 378//654 377//654
f 373//655 376//655 378//655
f 378//656 376//656 379//656
f 377//657 378//657 380//657
f 378//658 379//658 381//658
f 378//659 383//659 380//659
f 380//660 383//660 382//660
f 378//661 381//661 383//661
f 383//662 381//662 384//662
f 370//663 385//663 369//663
f 369//664 385//664 371//664
f 372//665 386//665 370//665
f 370//666 386//666 385//666
f 385//667 387//667 371//667
f 371//668 387//668 374//668
f 375//669 386//669 372//669
f 374//670 387//670 376//670
f 377//671 389//671 375//671
f 375//672 389//672 386//672
f 387//673 390//673 376//673
f 376//674 390//674 379//674
f 380//675 389//675 377//675
f 379//676 390//676 381//676
f 383//677 391//677 382//677
f 382//678 391//678 392//678
f 382//679 392//679 380//679
f 380//680 392//680 389//680
f 390//681 393//681 381//681
f 381//682 393//682 384//682
f 393//683 391//683 384//683
f 384//684 391//684 383//684
f 372//685 370//685 373//685
f 373//686 370//686 369//686
f 369//687 371//687 373//687
f 373//688 371//688 374//688
f 396//689 397//689 404//689
f 404//689 397//689 405//689
f 397//690 396//690 399//690
f 399//690 396//690 398//690
f 399//691 398//691 401//691
f 401//691 398//691 400//691
f 401//692 400//692 403//692
f 403//692 400//692 402//692
f 403//693 402//693 405//693
f 405//693 402//693 404//693
f 394//694 398//694 396//694
f 394//695 400//695 398//695
f 394//696 402//696 400//696
f 394//697 404//697 402//697
f 394//698 396//698 404//698
f 397//699 399//699 395//699
f 399//699 401//699 395//699
f 401//699 403//699 395//699
f 403//699 405//699 395//699
f 405//699 397//699 395//699
f 416//700 417//700 424//700
f 424//701 417//701 425//701
f 417//702 416//702 419//702
f 419//703 416//703 418//703
f 419//704 418//704 421//704
f 421//704 418//704 420//704
f 420//705 422//705 421//705
f 421//706 422//706 423//706
f 422//707 424//707 423//707
f 423//708 424//708 425//708
f 407//709 418//709 406//709
f 406//710 418//710 416//710
f 407//711 408//711 418//711
f 418//711 408//711 420//711
f 408//712 409//712 420//712
f 420//713 409//713 422//713
f 409//714 410//714 422//714
f 422//715 410//715 424//715
f 406//716 416//716 410//716
f 410//717 416//717 424//717
f 417//718 419//718 429//718
f 429//719 419//719 428//719
f 419//720 421//720 428//720
f 428//720 421//720 427//720
f 423//721 426//721 421//721
f 421//722 426//722 427//722
f 425//723 430//723 423//723
f 423//723 430//723 426//723
f 425//724 417//724 430//724
f 430//724 417//724 429//724
f 426//725 414//725 427//725
f 427//726 414//726 413//726
f 428//727 427//727 412//727
f 412//727 427//727 413//727
f 429//728 428//728 411//728
f 411//729 428//729 412//729
f 430//730 429//730 415//730
f 415//730 429//730 411//730
f 430//731 415//731 426//731
f 426//731 415//731 414//731
f 432//732 437//732 431//732
f 431//733 437//733 436//733
f 432//734 433//734 437//734
f 437//734 433//734 438//734
f 433//735 434//735 438//735
f 438//736 434//736 439//736
f 434//737 435//737 439//737
f 439//738 435//738 440//738
f 431//739 436//739 435//739
f 435//740 436//740 440//740
f 437//741 459//741 436//741
f 436//742 459//742 460//742
f 437//743 438//743 459//743
f 459//743 438//743 458//743
f 438//744 439//744 458//744
f 458//745 439//745 457//745
f 439//746 440//746 457//746
f 457//747 440//747 456//747
f 436//748 460//748 440//748
f 440//749 460//749 456//749
f 442//750 447//750 441//750
f 441//751 447//751 446//751
f 442//752 443//752 447//752
f 447//752 443//752 448//752
f 443//753 444//753 448//753
f 448//754 444//754 449//754
f 444//755 445//755 449//755
f 449//756 445//756 450//756
f 441//757 446//757 445//757
f 445//758 446//758 450//758
f 447//759 461//759 446//759
f 446//759 461//759 462//759
f 447//760 448//760 461//760
f 461//760 448//760 465//760
f 448//761 449//761 465//761
f 465//761 449//761 464//761
f 449//762 450//762 464//762
f 464//762 450//762 463//762
f 446//763 462//763 450//763
f 450//763 462//763 463//763
f 457//764 456//764 444//764
f 444//765 456//765 445//765
f 458//766 457//766 443//766
f 443//767 457//767 444//767
f 459//768 458//768 442//768
f 442//768 458//768 443//768
f 459//769 442//769 460//769
f 460//770 442//770 441//770
f 460//771 441//771 456//771
f 456//772 441//772 445//772
f 461//773 452//773 462//773
f 462//774 452//774 451//774
f 462//775 451//775 463//775
f 463//776 451//776 455//776
f 464//777 463//777 454//777
f 454//778 463//778 455//778
f 465//779 464//779 453//779
f 453//780 464//780 454//780
f 465//781 453//781 461//781
f 461//782 453//782 452//782