mtllib flat.mtl
v 0.16352 -0.009567 -0.077399
v 0.13223 -0.009567 -0.079255
v 0.168673 0.11029 -0.074102
v 0.137383 0.11029 -0.075959
v 0.15977 0.110289 0.075959
v 0.12848 0.110289 0.074102
v 0.154226 -0.009567 0.079255
v 0.122936 -0.009567 0.077399
v 0.200121 0.204143 -0.065451
v 0.172939 0.219668 -0.067063
v 0.192108 0.204142 0.069611
v 0.164926 0.219668 0.067998
v 0.270124 0.312512 -0.024608
v 0.242942 0.328038 -0.02622
v 0.266436 0.312512 0.037542
v 0.239254 0.328038 0.035929
v 0.361904 0.422497 0.009907
v 0.158841 -0.009567 -0.002036
v 0.164182 0.11029 -0.001912
v 0.200166 0.219668 -0.000234
v 0.27225 0.328038 0.005527
v 0.279871 0.312512 0.009701
v 0.230551 0.204142 0.009656
v 0.198621 0.11029 0.009117
v 0.193257 -0.009567 0.009386
v 0.072299 -0.007664 -0.181798
v 0.028099 -0.007664 -0.172591
v 0.078109 0.363867 -0.176429
v 0.043327 0.363867 -0.170449
v 0.112865 0.363867 -0.029889
v 0.078082 0.363867 -0.023909
v 0.104458 -0.007664 -0.027408
v 0.060258 -0.007664 -0.018201
v 0.103332 0.467881 -0.177562
v 0.065493 0.490245 -0.163717
v 0.115622 0.467881 -0.050935
v 0.077782 0.490245 -0.03709
v 0.165144 0.602682 -0.179015
v 0.126746 0.625045 -0.166079
v 0.177902 0.602682 -0.079951
v 0.139505 0.625045 -0.067015
v 0.297822 0.808895 -0.150751
v 0.08748 -0.007664 -0.107452
v 0.094602 0.363867 -0.105881
v 0.114675 0.490245 -0.118622
v 0.176793 0.625045 -0.133206
v 0.188631 0.602682 -0.131027
v 0.158372 0.467881 -0.126787
v 0.13555 0.363867 -0.103821
v 0.138799 -0.007664 -0.108529
v 0.000897 -0.007664 0.046547
v 0.045696 -0.007664 0.052163
v 0.007853 0.409159 0.043255
v 0.042697 0.409159 0.04887
v 0.022467 0.409159 -0.106639
v 0.05731 0.409159 -0.101024
v 0.020512 -0.007664 -0.109932
v 0.065311 -0.007664 -0.104316
v -0.028662 0.660375 0.009325
v 0.010255 0.682739 0.012481
v -0.011751 0.660375 -0.077956
v 0.027166 0.682739 -0.0748
v -0.111242 0.826881 -0.017408
v -0.072325 0.849244 -0.01253
v -0.10346 0.826881 -0.079488
v -0.064543 0.849244 -0.07461
v -0.210959 1.053476 -0.058852
v 0.010632 -0.007664 -0.028706
v 0.015116 0.409159 -0.02883
v -0.02611 0.682739 -0.033124
v -0.113082 0.849244 -0.047978
v -0.123845 0.826881 -0.05309
v -0.069288 0.660375 -0.041915
v -0.022955 0.409159 -0.044051
v -0.038266 -0.007664 -0.044319
v -0.062791 -0.007664 0.11302
v -0.017642 -0.007664 0.11302
v -0.062791 0.131576 0.108264
v -0.017642 0.131576 0.108264
v -0.062791 0.131576 -0.108264
v -0.017642 0.131576 -0.108264
v -0.062791 -0.007664 -0.11302
v -0.017642 -0.007664 -0.11302
v -0.090805 0.282167 0.097442
v -0.051584 0.304531 0.097442
v -0.090805 0.282167 -0.097442
v -0.051584 0.304531 -0.097442
v -0.197507 0.502455 0.044839
v -0.158285 0.524818 0.044839
v -0.197507 0.502455 -0.044839
v -0.158285 0.524818 -0.044839
v -0.281156 0.678852 0.0
v -0.062492 -0.007664 0.00426
v -0.062492 0.131576 0.004081
v -0.096434 0.304531 0.003673
v -0.203135 0.524818 0.00169
v -0.21445 0.502455 -0.003661
v -0.140966 0.282167 -0.007956
v -0.112952 0.131576 -0.008839
v -0.112952 -0.007664 -0.009228
vn 0.0592 0.0249 -0.9979
vn -0.0592 0.0302 0.9978
vn -0.945 0.0317 0.3256
vn -0.9395 0.0415 0.34
vn 0.9455 -0.0317 -0.324
vn 0.9401 -0.0428 -0.3383
vn 0.0591 0.0618 -0.9963
vn 0.0934 0.0603 -0.9938
vn -0.0591 0.0752 0.9954
vn -0.0172 0.0734 0.9972
vn 0.9051 -0.2733 -0.3257
vn 0.8845 -0.2988 -0.3583
vn -0.906 0.2678 0.3279
vn -0.8873 0.2864 0.3615
vn 0.1911 0.2357 -0.9529
vn 0.0764 0.2344 0.9691
vn 0.8429 -0.4158 -0.3415
vn 0.8812 -0.401 -0.2504
vn -0.8426 0.4149 0.3433
vn -0.6694 0.4124 0.6179
vn 0.1571 0.174 -0.9721
vn 0.0551 0.1981 0.9786
vn 0.7818 -0.5827 -0.2221
vn -0.6116 0.5543 0.5646
vn -0.9108 0.0308 -0.4117
vn -0.9044 0.0407 -0.4248
vn -0.8512 0.2868 -0.4396
vn -0.8721 0.2677 -0.4096
vn -0.6085 0.4399 -0.6604
vn -0.803 0.428 -0.4147
vn 0.7768 -0.3854 0.4981
vn 0.8333 -0.3794 0.4021
vn 0.8359 -0.2552 0.4859
vn 0.8086 -0.2781 0.5185
vn 0.8727 -0.027 0.4875
vn 0.864 -0.0375 0.5022
vn -0.5611 0.5607 -0.6089
vn 0.7473 -0.5581 0.3606
vn -0.2039 0.014 -0.9789
vn -0.1694 0.0169 -0.9854
vn 0.1694 0.0027 0.9855
vn 0.2039 0.0053 0.979
vn -0.7388 0.0264 0.6735
vn -0.783 0.0124 0.6218
vn 0.7405 -0.0019 -0.6721
vn 0.7842 0.0147 -0.6204
vn -0.1694 0.0303 -0.9851
vn -0.2885 0.1013 -0.9521
vn 0.1663 0.1913 0.9673
vn 0.3918 0.0964 0.915
vn 0.7695 -0.1932 -0.6087
vn 0.6475 -0.297 -0.7018
vn -0.7789 0.1037 0.6185
vn -0.6649 0.1787 0.7252
vn -0.2791 0.1177 -0.953
vn -0.2633 0.1028 -0.9592
vn 0.361 0.0338 0.932
vn 0.345 0.0501 0.9373
vn 0.646 -0.3038 -0.7003
vn 0.878 -0.2106 -0.4297
vn -0.6437 0.3048 0.702
vn -0.5192 0.3248 0.7905
vn -0.1782 0.2453 -0.9529
vn 0.3703 0.1017 0.9233
vn 0.7977 -0.4597 -0.3904
vn -0.5023 0.4036 0.7647
vn -0.9557 0.0414 -0.2915
vn -0.9801 0.0196 -0.1975
vn -0.9063 0.1026 -0.4101
vn -0.98 -0.0229 -0.1975
vn -0.8228 0.329 -0.4635
vn -0.8663 0.3096 -0.392
vn 0.8352 -0.2845 0.4707
vn 0.9571 -0.2085 0.201
vn 0.9555 0.034 0.2932
vn 0.8682 -0.0825 0.4893
vn 0.9207 -0.0182 0.3898
vn 0.956 0.0046 0.2933
vn -0.7709 0.466 -0.4343
vn 0.8758 -0.4462 0.184
vn -0.1244 0.0099 0.9922
vn -0.1591 0.0067 0.9872
vn 0.1591 0.0071 -0.9872
vn 0.1244 0.0102 -0.9922
vn 0.9175 0.0035 -0.3978
vn 0.9423 -0.0102 -0.3345
vn -0.9178 0.0335 0.3956
vn -0.9429 0.0184 0.3327
vn -0.1582 0.1096 0.9813
vn -0.145 0.1135 0.9829
vn 0.1577 0.1332 -0.9785
vn 0.0243 0.098 -0.9949
vn -0.939 -0.0917 0.3314
vn -0.7749 -0.1482 0.6144
vn 0.9403 0.0671 -0.3338
vn 0.7773 0.1074 -0.6198
vn -0.1331 0.0924 0.9868
vn -0.1622 0.0674 0.9845
vn 0.0655 0.0269 -0.9975
vn 0.0942 0.053 -0.9941
vn -0.7528 -0.2775 0.5969
vn -0.9064 -0.2755 0.3201
vn 0.7501 0.2822 -0.5981
vn 0.6327 0.2656 -0.7274
vn -0.18 0.0998 0.9786
vn 0.0569 0.1173 -0.9915
vn -0.8889 -0.3337 0.3139
vn 0.6329 0.2646 -0.7277
vn 0.8103 0.0109 0.586
vn 0.8633 -0.0091 0.5046
vn 0.6128 0.1046 0.7833
vn 0.8624 0.0467 0.5041
vn 0.4569 0.3129 0.8327
vn 0.5836 0.3206 0.7461
vn -0.5084 -0.2875 -0.8117
vn -0.758 -0.2877 -0.5853
vn -0.8086 -0.0431 -0.5868
vn -0.5287 -0.0903 -0.844
vn -0.7445 0.0278 -0.667
vn -0.8093 0.0084 -0.5873
vn 0.4635 0.2671 0.8449
vn -0.7539 -0.3046 -0.5821
vn -0.0 0.0341 0.9994
vn -0.0 0.0341 -0.9994
vn 0.9244 -0.013 -0.3812
vn 0.9185 -0.0005 -0.3954
vn -0.9251 0.013 0.3796
vn -0.9192 -0.0011 0.3937
vn -0.0 0.0717 0.9974
vn -0.032 0.0562 0.9979
vn -0.0 0.0717 -0.9974
vn -0.032 0.0562 -0.9979
vn -0.91 -0.1413 0.3898
vn -0.8901 -0.1681 0.4236
vn 0.9076 0.1537 -0.3907
vn 0.8885 0.1734 -0.425
vn -0.1043 0.1829 0.9776
vn -0.1043 0.1829 -0.9776
vn -0.8563 -0.3174 0.4075
vn -0.8988 -0.3059 0.314
vn 0.8557 0.3167 -0.4093
vn 0.6585 0.3128 -0.6845
vn -0.1112 0.195 0.9745
vn -0.1112 0.195 -0.9745
vn -0.8872 -0.3419 0.3099
vn 0.6557 0.3247 -0.6816
vn 0.934 -0.0122 0.3572
vn 0.9287 0.0005 0.3708
vn 0.8996 0.1775 0.399
vn 0.9172 0.1571 0.3662
vn 0.6785 0.3345 0.654
vn 0.8639 0.3269 0.3832
vn -0.8342 -0.2924 -0.4676
vn -0.8855 -0.2883 -0.3643
vn -0.8849 -0.1325 -0.4465
vn -0.8614 -0.1574 -0.4829
vn -0.9003 0.0149 -0.4351
vn -0.8928 0.0013 -0.4504
vn 0.6747 0.3489 0.6504
vn -0.8751 -0.3234 -0.3601
usemtl Elf_bush_Map
f 2//1 4//1 1//1
f 1//1 4//1 3//1
f 5//2 6//2 7//2
f 7//2 6//2 8//2
f 2//3 18//3 4//3
f 4//4 18//4 19//4
f 1//5 3//5 25//5
f 25//6 3//6 24//6
f 4//7 10//7 3//7
f 3//8 10//8 9//8
f 6//9 5//9 12//9
f 12//10 5//10 11//10
f 3//11 9//11 24//11
f 24//12 9//12 23//12
f 4//13 19//13 10//13
f 10//14 19//14 20//14
f 10//15 14//15 9//15
f 9//15 14//15 13//15
f 12//16 11//16 16//16
f 16//16 11//16 15//16
f 9//17 13//17 23//17
f 23//18 13//18 22//18
f 10//19 20//19 14//19
f 14//20 20//20 21//20
f 13//21 14//21 17//21
f 16//22 15//22 17//22
f 17//23 22//23 13//23
f 14//24 21//24 17//24
f 8//25 6//25 18//25
f 18//26 6//26 19//26
f 20//27 19//27 12//27
f 12//28 19//28 6//28
f 21//29 20//29 16//29
f 16//30 20//30 12//30
f 11//31 23//31 15//31
f 15//32 23//32 22//32
f 5//33 24//33 11//33
f 11//34 24//34 23//34
f 7//35 25//35 5//35
f 5//36 25//36 24//36
f 17//37 21//37 16//37
f 15//38 22//38 17//38
f 27//39 29//39 26//39
f 26//40 29//40 28//40
f 30//41 31//41 32//41
f 32//42 31//42 33//42
f 27//43 43//43 29//43
f 29//44 43//44 44//44
f 26//45 28//45 50//45
f 50//46 28//46 49//46
f 28//47 29//47 34//47
f 34//48 29//48 35//48
f 30//49 36//49 31//49
f 31//50 36//50 37//50
f 28//51 34//51 49//51
f 49//52 34//52 48//52
f 29//53 44//53 35//53
f 35//54 44//54 45//54
f 34//55 35//55 38//55
f 38//56 35//56 39//56
f 36//57 40//57 37//57
f 37//58 40//58 41//58
f 34//59 38//59 48//59
f 48//60 38//60 47//60
f 35//61 45//61 39//61
f 39//62 45//62 46//62
f 38//63 39//63 42//63
f 41//64 40//64 42//64
f 42//65 47//65 38//65
f 39//66 46//66 42//66
f 33//67 31//67 43//67
f 43//68 31//68 44//68
f 45//69 44//69 37//69
f 37//70 44//70 31//70
f 46//71 45//71 41//71
f 41//72 45//72 37//72
f 36//73 48//73 40//73
f 40//74 48//74 47//74
f 30//75 49//75 36//75
f 36//76 49//76 48//76
f 32//77 50//77 30//77
f 30//78 50//78 49//78
f 42//79 46//79 41//79
f 40//80 47//80 42//80
f 51//81 52//81 53//81
f 53//82 52//82 54//82
f 55//83 56//83 57//83
f 57//84 56//84 58//84
f 52//85 68//85 54//85
f 54//86 68//86 69//86
f 75//87 51//87 74//87
f 74//88 51//88 53//88
f 53//89 54//89 59//89
f 59//90 54//90 60//90
f 55//91 61//91 56//91
f 56//92 61//92 62//92
f 53//93 59//93 74//93
f 74//94 59//94 73//94
f 54//95 69//95 60//95
f 60//96 69//96 70//96
f 59//97 60//97 63//97
f 63//98 60//98 64//98
f 61//99 65//99 62//99
f 62//100 65//100 66//100
f 59//101 63//101 73//101
f 73//102 63//102 72//102
f 60//103 70//103 64//103
f 64//104 70//104 71//104
f 63//105 64//105 67//105
f 66//106 65//106 67//106
f 67//107 72//107 63//107
f 64//108 71//108 67//108
f 58//109 56//109 68//109
f 68//110 56//110 69//110
f 70//111 69//111 62//111
f 62//112 69//112 56//112
f 71//113 70//113 66//113
f 66//114 70//114 62//114
f 61//115 73//115 65//115
f 65//116 73//116 72//116
f 55//117 74//117 61//117
f 61//118 74//118 73//118
f 75//119 74//119 57//119
f 57//120 74//120 55//120
f 67//121 71//121 66//121
f 65//122 72//122 67//122
f 76//123 77//123 78//123
f 78//123 77//123 79//123
f 80//124 81//124 82//124
f 82//124 81//124 83//124
f 77//125 93//125 79//125
f 79//126 93//126 94//126
f 76//127 78//127 100//127
f 100//128 78//128 99//128
f 78//129 79//129 84//129
f 84//130 79//130 85//130
f 80//131 86//131 81//131
f 81//132 86//132 87//132
f 78//133 84//133 99//133
f 99//134 84//134 98//134
f 79//135 94//135 85//135
f 85//136 94//136 95//136
f 84//137 85//137 88//137
f 88//137 85//137 89//137
f 86//138 90//138 87//138
f 87//138 90//138 91//138
f 84//139 88//139 98//139
f 98//140 88//140 97//140
f 85//141 95//141 89//141
f 89//142 95//142 96//142
f 88//143 89//143 92//143
f 91//144 90//144 92//144
f 92//145 97//145 88//145
f 89//146 96//146 92//146
f 83//147 81//147 93//147
f 93//148 81//148 94//148
f 95//149 94//149 87//149
f 87//150 94//150 81//150
f 96//151 95//151 91//151
f 91//152 95//152 87//152
f 86//153 98//153 90//153
f 90//154 98//154 97//154
f 80//155 99//155 86//155
f 86//156 99//156 98//156
f 82//157 100//157 80//157
f 80//158 100//158 99//158
f 92//159 96//159 91//159
f 90//160 97//160 92//160