mtllib flat.mtl
v 0.065241 0.369751 -0.041903
v -0.013085 0.332864 -0.050842
v -0.063723 0.369751 0.0
v -0.031671 0.369751 0.055298
v 0.029596 0.369751 0.0678
v 0.078856 0.369751 0.0
v 0.039623 0.423127 0.015314
v -0.028639 0.423127 -0.053211
v -0.067299 0.423127 0.0
v -0.056614 0.423127 0.032886
v 0.051074 0.332864 -0.066369
v -0.030431 0.332864 0.008268
v 0.003975 0.332864 0.063238
v 0.082731 0.280013 0.073539
v 0.086859 0.332864 0.050842
v 0.1072 0.332864 0.011759
v 0.137459 0.280013 0.004472
v 0.001126 0.280013 -0.04825
v -0.016577 0.280013 0.022792
v 0.011601 0.280013 0.063931
v 0.176137 0.229157 -0.019902
v 0.144701 0.229157 -0.07685
v 0.056101 0.229157 -0.098725
v -0.022526 0.229157 -0.044647
v -0.059187 0.161927 0.08539
v -0.016468 0.15038 0.098979
v 0.092028 0.229157 0.098233
v 0.1474 0.229157 0.066765
v 0.200591 0.077968 -0.117949
v 0.090018 0.077586 -0.160828
v 0.065609 0.15038 -0.13039
v -0.0955 0.077586 -0.095211
v 0.067759 0.161927 0.142924
v 0.131892 0.15038 0.099802
v 0.191709 0.15038 -0.001867
v -0.017001 0.077968 -0.182491
v -0.12492 0.077586 0.003972
v -0.105836 0.077968 0.116998
v -0.100973 -0.002205 0.173037
v 0.056087 0.077968 0.182977
v 0.180332 0.077586 0.094516
v 0.194124 0.077586 -0.048852
v 0.225071 -0.002205 -0.088941
v 0.114996 -0.002205 -0.173689
v -0.009987 -0.002205 -0.235354
v -0.124497 -0.002205 -0.156597
v -0.191235 -0.002205 -0.049453
v -0.211508 -0.002205 0.088175
v -0.042402 -0.002205 0.218245
v 0.08061 -0.002205 0.179439
v 0.19959 -0.002205 0.113826
v 0.051043 0.490618 -0.020116
v 0.028167 0.490618 -0.05529
v -0.058868 0.490618 -0.059088
v -0.079081 0.490618 0.044403
v 0.00538 0.490618 0.071846
v 0.043151 0.490618 0.044403
v 0.091998 0.53191 -0.095115
v 0.013136 0.549997 -0.1539
v -0.084344 0.572353 -0.1539
v -0.193329 0.597349 0.0
v -0.163206 0.59044 0.095116
v -0.084344 0.572353 0.1539
v 0.013136 0.549997 0.1539
v 0.091998 0.53191 0.095116
v 0.122122 0.525002 0.0
v 0.071033 0.599831 -0.177121
v -0.000118 0.616149 -0.230157
v -0.145898 0.649583 -0.230157
v -0.28472 0.681421 -0.076307
v -0.288181 0.682215 0.065376
v -0.202836 0.662641 0.187716
v -0.068153 0.631753 0.230157
v 0.141892 0.58358 0.066239
v 0.142461 0.583449 -0.064441
v 0.249741 0.626451 -0.124993
v 0.019792 0.685697 -0.341332
v -0.086551 0.713874 -0.35355
v -0.355957 0.786939 -0.19458
v -0.411384 0.803549 0.016277
v -0.257136 0.764994 0.295402
v -0.053229 0.711271 0.353233
v 0.051483 0.683222 0.330858
v 0.216177 0.638207 0.194264
v 0.271604 0.621597 -0.016593
v 0.309339 0.709976 -0.274559
v 0.089482 0.764404 -0.423036
v -0.1731 0.829418 -0.410027
v -0.378108 0.880185 -0.2405
v -0.447237 0.917597 0.020791
v -0.354082 0.874264 0.274041
v -0.134225 0.819836 0.422519
v 0.128357 0.754822 0.409509
v 0.333365 0.704054 0.239983
v 0.402495 0.686925 -0.021308
v 0.288199 0.738308 -0.257426
v 0.082083 0.789163 -0.396441
v -0.163966 0.850019 -0.384122
v -0.355965 0.897631 -0.225174
v -0.420578 0.934096 0.01969
v -0.333124 0.892385 0.256941
v -0.127009 0.84153 0.395956
v 0.11904 0.780674 0.383637
v 0.31104 0.733061 0.224689
v 0.375652 0.716879 -0.020175
v 0.353676 0.66927 0.000201
v 0.276005 0.688761 0.238758
v 0.187758 0.710754 0.327957
v -0.318263 0.846575 -0.368882
v -0.047588 0.747452 -0.443206
v 0.193831 0.708694 -0.330811
v -0.266609 0.859074 0.370295
v -0.282592 0.837784 0.395057
v -0.140211 -0.002205 0.12641
v -0.433094 0.915077 0.156913
v -0.460102 0.896733 0.167235
v -0.389521 0.798694 0.124676
v -0.06388 0.15038 0.030914
v -0.109065 0.077586 0.048798
v -0.187106 -0.002205 0.008415
v -0.42236 0.930166 -0.116497
v -0.450041 0.912205 -0.124564
v 0.001317 0.229157 -0.070126
v -0.127421 0.077968 -0.056861
v -0.180579 -0.002205 -0.123338
v -0.300521 0.866863 -0.345501
v -0.051568 0.077586 -0.128895
v -0.061905 -0.002205 -0.18199
v -0.052102 0.805349 -0.442627
v -0.05309 0.780915 -0.472399
v 0.045454 0.077586 -0.159678
v 0.062201 -0.002205 -0.186772
v 0.204323 0.741998 -0.370777
v 0.220503 0.713179 -0.395575
v 0.14144 0.077586 -0.125458
v 0.164029 -0.002205 -0.115422
v 0.370808 0.701005 -0.157395
v 0.398014 0.669241 -0.167753
v 0.171739 0.229157 0.015405
v 0.18062 0.15038 -0.037543
v 0.201187 -0.002205 -0.008239
v 0.383761 0.69803 0.116015
v 0.411639 0.665883 0.124046
v 0.206123 0.161927 0.040444
v 0.224577 0.077968 0.047814
v 0.238235 0.734209 0.345019
v 0.256174 0.704387 0.368365
v 0.059432 0.602492 0.185769
v -0.010184 0.795722 0.442145
v -0.008998 0.770048 0.471882
v -0.045214 0.768683 0.403393
v 0.251221 0.702286 -0.161609
v 0.106844 0.737876 -0.296522
v -0.086923 0.785775 -0.318267
v -0.256069 0.827687 -0.218537
v -0.335985 0.847602 -0.035426
v -0.296146 0.837914 0.161124
v -0.15177 0.802324 0.296037
v 0.041997 0.754425 0.317782
v 0.211143 0.712513 0.218053
v 0.291059 0.692598 0.034941
v 0.24753 0.730469 -0.153857
v 0.110089 0.76435 -0.28229
v -0.074371 0.809948 -0.302991
v -0.235391 0.849846 -0.208052
v -0.311469 0.868805 -0.033736
v -0.273544 0.859582 0.153372
v -0.136103 0.825701 0.281805
v 0.048356 0.780103 0.302506
v 0.209377 0.740205 0.207567
v 0.285455 0.721246 0.033251
v 0.152952 0.714935 -0.18871
v 0.013698 0.749317 -0.253225
v -0.135756 0.786303 -0.221109
v -0.222282 0.807767 -0.141388
v -0.235748 0.811261 0.055949
v -0.07861 0.772563 0.248375
v 0.090592 0.730701 0.224739
v 0.212311 0.7005 0.104145
v 0.228815 0.696288 -0.052207
v -0.036013 0.687374 -0.000243
vn 0.4774 0.7389 -0.4756
vn 0.1162 -0.006 -0.9932
vn -0.8078 -0.0541 -0.5869
vn -0.9491 -0.0636 0.3084
vn 0.1609 0.4451 0.8809
vn 0.7443 0.3919 0.5408
vn -0.1895 0.5922 -0.7832
vn -0.7029 -0.6807 -0.2063
vn -0.1443 -0.0222 0.9893
vn 0.4533 0.3216 0.8313
vn 0.5762 0.702 0.4186
vn 0.683 0.6381 0.3555
vn 0.6908 0.1963 -0.6959
vn -0.2338 -0.1102 -0.966
vn -0.9259 -0.2623 -0.2717
vn -0.8199 -0.1109 0.5616
vn -0.1339 -0.0063 0.991
vn 0.8107 0.406 0.4219
vn 0.8132 0.5054 -0.2885
vn 0.2287 0.3 -0.9261
vn -0.5359 0.2277 -0.813
vn -0.701 0.2796 -0.656
vn -0.9392 0.3432 0.0082
vn -0.7831 0.3146 0.5364
vn -0.2094 0.2972 0.9316
vn 0.4397 0.4561 0.7737
vn 0.8147 0.571 0.1015
vn 0.5495 0.2444 -0.7989
vn 0.2211 0.3866 -0.8954
vn -0.4326 0.6022 0.671
vn 0.4773 0.2583 0.8399
vn 0.6096 0.6872 -0.3952
vn 0.9919 0.0288 0.1236
vn 0.9708 0.0016 0.2397
vn 0.3317 0.2717 -0.9034
vn -0.524 0.5083 -0.6834
vn -0.6366 0.4898 -0.5957
vn -0.8225 0.5676 0.0374
vn -0.8531 0.5205 -0.0368
vn -0.8673 0.4963 0.0383
vn 0.9177 0.1702 -0.3591
vn 0.9301 0.2205 -0.2939
vn 0.9815 0.1677 0.0928
vn 0.5413 0.2963 -0.7869
vn 0.7582 0.1344 -0.638
vn 0.3215 0.3643 -0.874
vn 0.4796 0.5119 -0.7127
vn -0.4678 0.6394 -0.6101
vn -0.313 0.5539 -0.7715
vn -0.7803 0.6244 0.036
vn -0.7825 0.6124 -0.1129
vn -0.6085 0.7932 0.0244
vn -0.6486 0.7348 -0.1984
vn 0.8386 -0.4774 -0.2623
vn 0.943 0.3205 0.09
vn 0.9346 0.2235 0.2766
vn 0.6027 -0.5257 -0.6003
vn 0.0435 -0.0673 -0.9968
vn -0.8929 -0.4151 -0.1744
vn -0.7857 0.2384 -0.5708
vn -0.8922 -0.3465 0.2899
vn 0.1786 -0.1075 0.978
vn 0.5496 -0.3547 0.7564
vn 0.9873 -0.1037 0.1208
vn 0.0287 -0.7533 -0.6571
vn -0.6503 -0.749 -0.127
vn -0.526 -0.6934 0.4924
vn -0.1809 -0.7886 0.5877
vn 0.2995 -0.8605 0.4122
vn 0.423 -0.9047 0.0517
vn 0.3282 -0.6846 -0.6509
vn -0.174 -0.7586 -0.6279
vn -0.5064 -0.8125 -0.2888
vn -0.6714 -0.741 -0.0123
vn -0.4792 -0.7798 0.4029
vn -0.174 -0.7586 0.6279
vn 0.7287 -0.3883 0.5641
vn 0.9459 -0.3243 0.0044
vn 0.7418 -0.4109 -0.53
vn 0.1773 -0.8483 -0.4989
vn -0.1904 -0.8301 -0.5241
vn -0.5541 -0.7585 -0.343
vn -0.699 -0.715 -0.0131
vn -0.6176 -0.7098 0.3388
vn -0.3546 -0.7605 0.544
vn -0.105 -0.8295 0.5486
vn 0.1982 -0.9378 0.2851
vn 0.169 -0.8573 0.4863
vn 0.2825 -0.9593 0.0022
vn 0.2197 -0.9359 -0.2753
vn 0.1411 -0.8025 -0.5798
vn -0.4145 -0.7783 -0.4716
vn -0.8773 -0.363 -0.3139
vn -0.9532 -0.3008 0.0295
vn -0.7115 -0.5444 0.4443
vn -0.6079 -0.641 0.4686
vn -0.3603 -0.6778 0.6409
vn -0.1993 -0.8149 0.5443
vn -0.0148 -0.6567 0.754
vn 0.1292 -0.5526 0.8233
vn 0.1819 -0.8476 0.4986
vn 0.3077 -0.8073 0.5035
vn 0.4562 -0.8625 0.219
vn 0.7264 -0.5471 -0.4159
vn 0.3999 0.7164 -0.5717
vn 0.3977 0.7241 -0.5635
vn -0.017 0.7732 -0.634
vn -0.011 0.7845 -0.62
vn -0.4056 0.82 -0.4038
vn -0.3867 0.8349 -0.3917
vn -0.5399 0.8415 -0.0208
vn -0.5267 0.8499 -0.0176
vn -0.3432 0.7906 0.507
vn -0.3055 0.8162 0.4905
vn -0.0261 0.7663 0.642
vn -0.0181 0.7768 0.6295
vn 0.3532 0.7151 0.6033
vn 0.3533 0.7223 0.5945
vn 0.632 0.6763 0.3783
vn 0.6291 0.6814 0.3741
vn 0.7485 0.6613 0.0486
vn 0.7448 0.6656 0.0478
vn 0.6733 0.675 -0.3016
vn 0.6692 0.6802 -0.299
vn -0.136 -0.99 0.0366
vn 0.275 -0.9489 -0.1547
vn -0.1483 -0.9843 0.096
vn 0.2515 -0.9556 0.1537
vn -0.0869 -0.9016 0.4238
vn -0.0816 -0.9947 0.063
vn -0.2763 -0.0343 -0.9605
vn -0.5463 -0.5999 -0.5846
vn 0.1869 -0.7329 -0.6542
vn -0.3211 -0.9265 -0.1964
vn -0.1576 -0.9866 -0.0414
vn 0.2664 -0.806 -0.5286
vn -0.3655 0.8093 0.4599
vn -0.3483 0.8242 0.4466
vn -0.7473 -0.6129 0.2567
vn -0.6393 -0.692 0.3353
vn -0.6096 -0.7302 0.3085
vn -0.8494 -0.1902 0.4923
vn -0.6928 -0.5762 0.4336
vn -0.7193 -0.5557 0.4169
vn -0.8452 -0.0762 0.529
vn -0.136 0.5019 0.8542
vn -0.2765 0.5392 0.7955
vn -0.1671 0.4273 0.8885
vn -0.7095 0.3743 0.5971
vn -0.4519 0.2927 0.8427
vn -0.5415 0.8376 0.0718
vn -0.5229 0.8495 0.0701
vn -0.9372 -0.3016 0.1755
vn -0.8321 -0.5342 -0.1492
vn -0.7199 -0.6846 0.1145
vn -0.6072 -0.7829 0.1354
vn -0.7075 -0.6848 0.1743
vn -0.9239 -0.3055 -0.2302
vn -0.9297 0.3288 -0.166
vn -0.8901 0.3982 -0.2218
vn -0.7843 0.555 0.2774
vn -0.7857 0.5902 0.1853
vn -0.753 0.6017 0.2663
vn -0.786 0.6157 0.0561
vn -0.3454 0.8274 -0.4428
vn -0.3797 0.7965 -0.4705
vn -0.832 -0.5258 -0.1773
vn -0.8256 -0.3947 -0.4032
vn -0.739 -0.6585 -0.1424
vn -0.752 -0.1464 -0.6427
vn -0.4326 0.3549 -0.8288
vn -0.4232 0.4045 -0.8107
vn -0.6578 0.5117 -0.5527
vn -0.5287 0.7214 -0.4473
vn -0.3892 0.6464 -0.6563
vn -0.0823 0.7828 -0.6168
vn -0.0732 0.793 -0.6048
vn -0.442 -0.8151 -0.3745
vn -0.513 -0.635 -0.5776
vn -0.5861 -0.7557 -0.2923
vn -0.6719 -0.6406 -0.3717
vn -0.223 0.3403 -0.9135
vn -0.5031 0.8033 -0.3187
vn -0.7625 0.424 -0.4887
vn -0.6662 0.3691 -0.6481
vn 0.2967 0.7333 -0.6117
vn 0.2973 0.7387 -0.6049
vn 0.1888 -0.6278 -0.7552
vn -0.1881 -0.8901 -0.4151
vn -0.156 -0.8246 -0.5438
vn -0.1956 -0.853 -0.4838
vn 0.6792 0.648 -0.3448
vn 0.1731 0.4288 -0.8867
vn -0.0239 0.3788 -0.9252
vn -0.0245 0.3168 -0.9482
vn 0.2343 0.2258 -0.9456
vn 0.5918 0.6904 -0.4162
vn 0.591 0.6918 -0.4148
vn 0.0373 -0.9979 -0.0538
vn 0.1438 -0.9049 -0.4006
vn 0.2706 -0.8159 -0.511
vn 0.4034 -0.8766 -0.2624
vn 0.2042 -0.8246 -0.5276
vn 0.7707 -0.3935 -0.5012
vn 0.6516 0.6679 -0.3597
vn 0.1182 0.3009 -0.9463
vn 0.7969 0.4142 -0.4399
vn 0.126 -0.0886 -0.9881
vn 0.3895 -0.2059 -0.8977
vn 0.7386 0.6662 -0.103
vn 0.7388 0.666 -0.1031
vn 0.3769 -0.9209 0.0997
vn 0.5188 -0.843 -0.1424
vn 0.3177 -0.9422 -0.1063
vn 0.7641 -0.5791 -0.2841
vn 0.4735 -0.8549 -0.2121
vn 0.7471 0.6188 -0.2428
vn 0.8039 0.5344 -0.2612
vn 0.7399 0.5741 0.3506
vn 0.9128 0.2936 -0.2838
vn 0.8955 0.134 0.4244
vn 0.932 0.2179 -0.2897
vn 0.9954 0.0948 0.013
vn 0.6992 0.6692 0.2517
vn 0.6984 0.6701 0.2514
vn 0.2229 -0.8712 0.4374
vn 0.5378 -0.8176 0.2058
vn 0.3759 -0.9108 0.1706
vn 0.7641 -0.5791 0.2841
vn 0.4895 -0.8448 0.2164
vn 0.7677 0.2013 0.6083
vn 0.5786 0.6746 0.4584
vn 0.5903 0.2106 0.7792
vn 0.7081 0.2147 0.6726
vn 0.5614 0.3181 0.764
vn 0.6856 0.3233 0.6522
vn 0.4588 0.3121 0.8319
vn 0.4537 0.7023 0.5485
vn 0.4519 0.7071 0.5439
vn -0.264 -0.9158 0.3026
vn -0.0319 -0.8741 0.4846
vn 0.3282 -0.6846 0.6509
vn 0.1369 -0.5995 0.7886
vn 0.2313 -0.7984 0.5559
vn -0.1218 0.4154 0.9014
vn 0.5687 0.303 0.7647
vn 0.5519 0.311 0.7738
vn 0.5695 0.2881 0.7699
vn 0.5746 0.1402 0.8064
vn 0.3005 0.0499 0.9525
vn 0.044 0.7571 0.6519
vn 0.0479 0.7672 0.6396
vn -0.4413 -0.8616 0.2506
vn -0.1998 -0.6287 0.7515
vn -0.3459 -0.7684 0.5384
vn -0.3558 -0.6992 0.6201
vn -0.189 -0.7913 0.5816
vn -0.2237 -0.69 0.6883
vn -0.1413 0.7075 0.6925
vn -0.1999 0.0177 0.9797
vn -0.4629 0.4333 0.7733
vn -0.3312 0.5541 0.7637
vn -0.4113 0.7396 0.5328
vn -0.0112 0.9991 0.0408
vn -0.0726 0.9425 0.3263
vn 0.0596 0.9834 0.1715
vn 0.1741 0.8929 0.4152
vn 0.1831 0.9556 0.2307
vn 0.4113 0.8446 0.3427
vn 0.6119 0.7783 0.1408
vn 0.5596 0.814 0.1557
vn 0.4805 0.8617 0.1632
vn 0.6781 0.7279 -0.1016
vn 0.4443 0.8959 0.0025
vn 0.4751 0.8311 -0.2891
vn 0.4705 0.7755 -0.4209
vn 0.2565 0.9443 -0.2059
vn 0.1586 0.8392 -0.5201
vn 0.1271 0.9729 -0.1934
vn 0.1361 0.9659 -0.2203
vn -0.1861 0.9647 -0.1861
vn 0.0147 0.9932 -0.1154
vn -0.2187 0.9714 0.0922
vn 0.1861 0.8981 -0.3985
vn 0.4768 0.8305 -0.2881
vn 0.7051 0.7085 -0.0297
vn 0.5704 0.8197 0.0532
vn 0.4739 0.8398 0.2649
vn 0.2593 0.8838 0.3894
vn -0.0023 0.9363 0.3511
vn -0.1842 0.9721 0.1455
vn -0.1919 0.9734 -0.1254
vn -0.0395 0.9432 -0.3298
vn 0.6918 0.2743 -0.668
vn 0.2075 0.4434 -0.872
vn -0.283 0.6131 -0.7376
vn -0.6014 0.7225 -0.341
vn -0.6514 0.7398 0.1685
vn -0.4194 0.6603 0.623
vn 0.0283 0.5059 0.8621
vn 0.5388 0.3282 0.7759
vn 0.9059 0.1993 0.3737
vn 0.9661 0.178 -0.187
vn -0.3298 0.764 0.5545
vn 0.0983 0.7128 0.6945
vn 0.4957 0.6616 0.5627
vn 0.7352 0.629 0.2525
vn 0.5855 0.8103 0.0256
vn 0.6749 0.731 -0.1008
vn 0.4472 0.8582 -0.2522
vn 0.2474 0.6934 -0.6768
vn 0.1493 0.8693 -0.4712
vn -0.1485 0.7962 -0.5865
vn -0.5302 0.7864 -0.3169
vn -0.5883 0.793 0.1583
vn 0.5514 0.781 -0.2932
vn 0.533 0.7589 0.3742
vn 0.3058 0.8288 0.4686
vn 0.0025 0.8848 0.466
vn -0.2511 0.9305 0.2667
vn -0.3256 0.9436 -0.0598
vn -0.1259 0.9249 -0.3587
vn 0.5313 0.8469 0.0213
vn 0.1918 0.9381 -0.2886
vn 0.4712 0.856 -0.2126
vn 0.4134 0.886 0.2101
vn 0.287 0.9159 0.2807
vn 0.1173 0.959 0.2579
vn -0.0061 0.9903 0.1387
vn -0.0397 0.9987 -0.0311
vn 0.036 0.9774 -0.2085
usemtl Elf_bush_Map
f 1//1 8//1 7//1
f 1//2 2//2 8//2
f 3//3 9//3 8//3
f 3//4 10//4 9//4
f 4//5 7//5 10//5
f 5//6 6//6 7//6
f 2//7 1//7 11//7
f 3//8 2//8 12//8
f 5//9 13//9 14//9
f 5//10 14//10 15//10
f 5//11 15//11 6//11
f 6//12 15//12 16//12
f 11//13 1//13 17//13
f 2//14 11//14 18//14
f 12//15 2//15 18//15
f 13//16 19//16 20//16
f 14//17 13//17 20//17
f 16//18 15//18 17//18
f 1//19 16//19 17//19
f 11//20 22//20 23//20
f 18//21 11//21 23//21
f 18//22 123//22 24//22
f 19//23 118//23 25//23
f 20//24 19//24 26//24
f 20//25 26//25 27//25
f 14//26 27//26 28//26
f 17//27 139//27 21//27
f 22//28 135//28 30//28
f 23//29 22//29 31//29
f 27//30 26//30 33//30
f 28//31 27//31 34//31
f 28//32 144//32 35//32
f 139//33 140//33 21//33
f 21//34 140//34 29//34
f 31//35 131//35 36//35
f 32//36 23//36 127//36
f 123//37 124//37 24//37
f 24//38 124//38 37//38
f 118//39 119//39 25//39
f 25//40 119//40 38//40
f 144//41 145//41 35//41
f 35//42 145//42 42//42
f 29//43 140//43 42//43
f 30//44 135//44 44//44
f 44//45 135//45 136//45
f 131//46 132//46 36//46
f 36//47 132//47 45//47
f 32//48 127//48 46//48
f 46//49 127//49 128//49
f 37//50 124//50 47//50
f 47//51 124//51 125//51
f 38//52 119//52 48//52
f 48//53 119//53 120//53
f 42//54 145//54 51//54
f 29//55 42//55 43//55
f 43//56 42//56 141//56
f 7//57 8//57 53//57
f 8//58 54//58 53//58
f 8//59 55//59 54//59
f 8//60 9//60 55//60
f 9//61 10//61 55//61
f 10//62 7//62 55//62
f 7//63 57//63 56//63
f 7//64 52//64 57//64
f 53//65 54//65 60//65
f 54//66 55//66 61//66
f 55//67 63//67 62//67
f 56//68 64//68 63//68
f 56//69 57//69 65//69
f 57//70 52//70 66//70
f 59//71 68//71 67//71
f 60//72 69//72 68//72
f 61//73 70//73 69//73
f 61//74 71//74 70//74
f 62//75 63//75 72//75
f 63//76 64//76 73//76
f 65//77 74//77 148//77
f 66//78 75//78 74//78
f 58//79 67//79 75//79
f 67//80 68//80 77//80
f 68//81 69//81 78//81
f 69//82 70//82 79//82
f 70//83 71//83 80//83
f 71//84 81//84 117//84
f 72//85 82//85 81//85
f 73//86 83//86 82//86
f 74//87 84//87 148//87
f 148//88 84//88 83//88
f 74//89 75//89 85//89
f 75//90 67//90 76//90
f 77//91 110//91 111//91
f 78//92 109//92 110//92
f 79//93 89//93 109//93
f 80//94 90//94 122//94
f 81//95 91//95 117//95
f 117//96 91//96 116//96
f 82//97 92//97 81//97
f 81//98 92//98 113//98
f 82//99 83//99 151//99
f 151//100 83//100 108//100
f 83//101 84//101 108//101
f 108//102 84//102 107//102
f 85//103 106//103 107//103
f 76//104 111//104 106//104
f 134//105 87//105 133//105
f 133//106 87//106 97//106
f 130//107 88//107 129//107
f 129//108 88//108 98//108
f 109//109 89//109 126//109
f 126//110 89//110 99//110
f 122//111 90//111 121//111
f 121//112 90//112 100//112
f 116//113 91//113 115//113
f 115//114 91//114 101//114
f 113//115 92//115 112//115
f 112//116 92//116 102//116
f 150//117 93//117 149//117
f 149//118 93//118 103//118
f 147//119 94//119 146//119
f 146//120 94//120 104//120
f 143//121 95//121 142//121
f 142//122 95//122 105//122
f 138//123 86//123 137//123
f 137//124 86//124 96//124
f 107//125 106//125 143//125
f 143//126 106//126 95//126
f 108//127 107//127 147//127
f 147//128 107//128 94//128
f 108//129 93//129 151//129
f 151//130 93//130 150//130
f 109//131 88//131 110//131
f 110//132 88//132 130//132
f 110//133 87//133 111//133
f 111//134 87//134 134//134
f 106//135 111//135 138//135
f 138//136 111//136 86//136
f 113//137 112//137 91//137
f 91//138 112//138 101//138
f 81//139 113//139 91//139
f 71//140 72//140 81//140
f 62//141 72//141 71//141
f 3//142 4//142 10//142
f 13//143 4//143 12//143
f 12//144 4//144 3//144
f 19//145 13//145 12//145
f 26//146 19//146 25//146
f 39//147 26//147 38//147
f 38//148 26//148 25//148
f 39//149 38//149 114//149
f 114//150 38//150 48//150
f 116//151 115//151 90//151
f 90//152 115//152 100//152
f 80//153 117//153 90//153
f 90//154 117//154 116//154
f 71//155 117//155 80//155
f 61//156 62//156 71//156
f 55//157 62//157 61//157
f 19//158 12//158 18//158
f 118//159 19//159 24//159
f 24//160 19//160 18//160
f 119//161 118//161 37//161
f 37//162 118//162 24//162
f 119//163 37//163 120//163
f 120//164 37//164 47//164
f 89//165 122//165 99//165
f 99//166 122//166 121//166
f 80//167 122//167 79//167
f 79//168 122//168 89//168
f 70//169 80//169 79//169
f 2//170 3//170 8//170
f 123//171 18//171 23//171
f 123//172 23//172 32//172
f 124//173 123//173 32//173
f 124//174 32//174 125//174
f 125//175 32//175 46//175
f 109//176 126//176 88//176
f 88//177 126//177 98//177
f 78//178 79//178 109//178
f 69//179 79//179 78//179
f 60//180 61//180 69//180
f 54//181 61//181 60//181
f 23//182 31//182 127//182
f 127//183 31//183 36//183
f 127//184 36//184 128//184
f 128//185 36//185 45//185
f 130//186 129//186 87//186
f 87//187 129//187 97//187
f 110//188 130//188 87//188
f 77//189 78//189 110//189
f 68//190 78//190 77//190
f 59//72 60//72 68//72
f 53//191 60//191 59//191
f 22//192 11//192 17//192
f 31//193 22//193 30//193
f 131//194 31//194 30//194
f 131//195 30//195 132//195
f 132//196 30//196 44//196
f 134//197 133//197 86//197
f 86//198 133//198 96//198
f 111//199 134//199 86//199
f 76//200 77//200 111//200
f 67//201 77//201 76//201
f 58//71 59//71 67//71
f 52//202 53//202 58//202
f 58//203 53//203 59//203
f 7//204 53//204 52//204
f 22//205 17//205 21//205
f 135//206 22//206 29//206
f 29//207 22//207 21//207
f 135//208 29//208 136//208
f 136//209 29//209 43//209
f 138//210 137//210 95//210
f 95//211 137//211 105//211
f 106//212 138//212 95//212
f 85//213 76//213 106//213
f 75//214 76//214 85//214
f 66//215 58//215 75//215
f 52//216 58//216 66//216
f 6//217 1//217 7//217
f 16//218 1//218 6//218
f 139//219 17//219 28//219
f 140//220 139//220 35//220
f 35//221 139//221 28//221
f 42//222 140//222 35//222
f 141//223 42//223 51//223
f 143//224 142//224 94//224
f 94//225 142//225 104//225
f 107//226 143//226 94//226
f 84//227 85//227 107//227
f 74//228 85//228 84//228
f 65//229 66//229 74//229
f 57//230 66//230 65//230
f 17//231 15//231 14//231
f 28//232 17//232 14//232
f 144//233 28//233 34//233
f 145//234 144//234 41//234
f 41//235 144//235 34//235
f 145//236 41//236 51//236
f 51//237 41//237 50//237
f 147//238 146//238 93//238
f 93//239 146//239 103//239
f 108//240 147//240 93//240
f 73//241 148//241 83//241
f 65//242 148//242 64//242
f 64//243 148//243 73//243
f 56//244 65//244 64//244
f 27//245 14//245 20//245
f 34//246 27//246 33//246
f 41//247 34//247 40//247
f 40//248 34//248 33//248
f 41//249 40//249 50//249
f 50//250 40//250 49//250
f 150//251 149//251 92//251
f 92//252 149//252 102//252
f 92//253 151//253 150//253
f 82//254 151//254 92//254
f 72//255 73//255 82//255
f 63//256 73//256 72//256
f 55//257 56//257 63//257
f 7//258 56//258 55//258
f 4//259 5//259 7//259
f 13//260 5//260 4//260
f 33//261 26//261 40//261
f 40//262 26//262 39//262
f 49//263 40//263 39//263
f 133//264 153//264 96//264
f 96//265 153//265 152//265
f 129//266 154//266 97//266
f 97//267 154//267 153//267
f 126//268 155//268 98//268
f 98//269 155//269 154//269
f 121//270 156//270 99//270
f 99//271 156//271 155//271
f 115//272 157//272 100//272
f 100//273 157//273 156//273
f 112//274 158//274 101//274
f 101//275 158//275 157//275
f 102//276 149//276 158//276
f 158//277 149//277 159//277
f 103//278 146//278 159//278
f 159//279 146//279 160//279
f 142//280 161//280 104//280
f 104//281 161//281 160//281
f 137//282 152//282 105//282
f 105//283 152//283 161//283
f 112//284 102//284 158//284
f 115//285 101//285 157//285
f 121//286 100//286 156//286
f 126//287 99//287 155//287
f 129//288 98//288 154//288
f 133//289 97//289 153//289
f 137//290 96//290 152//290
f 142//291 105//291 161//291
f 146//292 104//292 160//292
f 149//293 103//293 159//293
f 153//294 163//294 152//294
f 152//294 163//294 162//294
f 154//295 164//295 153//295
f 153//295 164//295 163//295
f 155//296 165//296 154//296
f 154//296 165//296 164//296
f 156//297 166//297 155//297
f 155//297 166//297 165//297
f 156//298 157//298 166//298
f 166//298 157//298 167//298
f 157//299 158//299 167//299
f 167//299 158//299 168//299
f 158//300 159//300 168//300
f 168//300 159//300 169//300
f 159//301 160//301 169//301
f 169//301 160//301 170//301
f 160//302 161//302 170//302
f 170//302 161//302 171//302
f 152//303 162//303 161//303
f 161//303 162//303 171//303
f 162//304 163//304 172//304
f 163//305 164//305 173//305
f 164//306 165//306 174//306
f 165//307 166//307 175//307
f 175//308 166//308 176//308
f 166//309 167//309 176//309
f 167//310 168//310 176//310
f 168//311 169//311 177//311
f 177//312 169//312 178//312
f 169//313 170//313 178//313
f 170//314 171//314 179//314
f 171//315 162//315 180//315
f 168//316 177//316 176//316
f 165//317 175//317 174//317
f 164//318 174//318 173//318
f 163//319 173//319 172//319
f 162//320 172//320 180//320
f 171//321 180//321 179//321
f 170//322 179//322 178//322
f 175//323 176//323 181//323
f 177//324 178//324 181//324
f 176//325 177//325 181//325
f 174//326 175//326 181//326
f 173//327 174//327 181//327
f 172//328 173//328 181//328
f 180//329 172//329 181//329
f 179//330 180//330 181//330
f 178//331 179//331 181//331