mtllib flat.mtl
v 0.439731 0.45371 -0.218902
v 0.31388 0.442202 -0.379149
v 0.143033 0.458628 -0.437804
v -0.134828 0.548495 -0.379149
v -0.256483 0.578953 -0.218902
v -0.34974 0.693425 0.0
v -0.256483 0.578953 0.218902
v -0.134828 0.548495 0.379149
v 0.143033 0.458628 0.437804
v 0.31388 0.442201 0.379149
v 0.439731 0.45371 0.218902
v 0.537185 0.501314 0.0
v 0.45298 0.59427 -0.201778
v 0.30796 0.622346 -0.34949
v 0.149728 0.639714 -0.403557
v -0.056765 0.675967 -0.34949
v -0.155622 0.701944 -0.201778
v -0.259062 0.741597 0.0
v -0.155622 0.701944 0.201778
v -0.056765 0.675967 0.34949
v 0.149728 0.639714 0.403557
v 0.30796 0.622346 0.34949
v 0.45298 0.59427 0.201778
v 0.50606 0.583994 0.0
v 0.294963 0.708638 -0.271145
v 0.175813 0.75488 -0.277186
v 0.011997 0.750239 -0.271145
v -0.064699 0.770393 -0.156546
v -0.104967 0.824859 0.0
v -0.064699 0.770393 0.156546
v 0.033982 0.779781 0.24005
v 0.172201 0.722113 0.313092
v 0.284497 0.742951 0.24005
v 0.407473 0.686856 0.156546
v 0.420563 0.716609 0.0
v 0.384104 0.723667 -0.138593
v 0.397206 0.746273 -0.14373
v 0.293907 0.766271 -0.248948
v 0.181195 0.778643 -0.28746
v 0.034107 0.804467 -0.248948
v -0.03631 0.82297 -0.14373
v -0.109993 0.851216 0.0
v -0.03631 0.82297 0.14373
v 0.034107 0.804466 0.248948
v 0.181195 0.778643 0.28746
v 0.293907 0.766271 0.248948
v 0.397206 0.746273 0.14373
v 0.435017 0.738953 0.0
v 0.331443 0.845953 -0.075881
v 0.217402 0.863043 -0.151763
v 0.139747 0.876676 -0.13143
v 0.063671 0.901357 0.0
v 0.139747 0.876676 0.13143
v 0.217402 0.863043 0.151763
v 0.331443 0.845953 0.075881
v 0.21676 0.911112 0.0
v 0.357663 0.437306 -0.171986
v 0.258785 0.428264 -0.297889
v 0.124554 0.44117 -0.343972
v -0.093755 0.511776 -0.297888
v -0.189336 0.535706 -0.171986
v -0.262605 0.625644 0.0
v -0.189336 0.535706 0.171986
v -0.093755 0.511776 0.297889
v 0.124554 0.44117 0.343972
v 0.258785 0.428264 0.297889
v 0.357663 0.437306 0.171986
v 0.43423 0.474707 0.0
v 0.118536 0.663571 0.0
v 0.101428 0.001692 -0.100184
v 0.028088 0.001692 -0.173524
v -0.072096 0.001692 -0.200368
v -0.17228 0.001692 -0.221595
v -0.24562 0.001692 -0.100184
v -0.272464 0.001692 0.0
v -0.24562 0.001692 0.100184
v -0.155029 0.001692 0.173524
v -0.072096 0.001692 0.202806
v 0.013615 0.001692 0.173524
v 0.101428 0.001692 0.100184
v 0.128272 0.001692 0.0
v 0.073993 0.241272 0.0
v 0.01697 0.256866 -0.102394
v -0.097077 0.288053 -0.102394
v -0.1541 0.303647 0.0
v -0.138821 0.299468 0.059117
v -0.097077 0.288053 0.102394
v -0.040053 0.272459 0.118234
v 0.058714 0.24545 0.059117
v -0.094748 0.125792 0.231476
v -0.226578 0.13697 0.10077
v -0.226578 0.13697 -0.10077
v -0.15364 0.130785 -0.222609
v -0.054004 0.122337 -0.201539
v 0.045631 0.113889 -0.174538
v 0.118569 0.107704 -0.10077
v 0.145266 0.10544 0.0
v 0.118569 0.107704 0.10077
v 0.02838 0.113889 0.174538
v 0.150706 0.373263 -0.060895
v 0.106236 0.376366 -0.105473
v -0.015258 0.384842 -0.105473
v -0.059728 0.387944 -0.060895
v -0.059728 0.387944 0.060895
v 0.045489 0.380604 0.121789
v 0.106236 0.376366 0.105473
v 0.19165 0.651872 0.0
v 0.137735 0.655634 -0.093609
v 0.083821 0.659395 -0.10809
v -0.024007 0.666918 0.0
v 0.029907 0.663157 0.093609
v 0.137735 0.655634 0.093609
v -0.112755 0.001692 0.251496
v -0.014253 0.118966 0.2322
v -0.02392 0.001692 0.243414
v 0.007037 0.463851 0.114988
v -0.050317 0.467852 0.099583
v -0.107672 0.471854 0.0
v -0.050317 0.467852 -0.099583
v 0.064392 0.45985 -0.099583
v 0.106378 0.45692 -0.057494
v 0.121747 0.455848 0.0
v 0.064392 0.45985 0.099583
v 0.470678 0.220479 0.108639
v 0.399436 0.26993 0.058823
v 0.309892 0.230254 0.049435
v 0.222037 0.222638 0.072277
v 0.157748 0.236135 0.144384
v 0.134216 0.20872 0.227816
v 0.157748 0.147737 0.300217
v 0.22286 0.16227 0.371062
v 0.311856 0.122834 0.380585
v 0.405861 0.129316 0.36124
v 0.5069 0.184695 0.307743
v 0.501176 0.188706 0.199779
v 0.443787 0.263224 0.151175
v 0.381043 0.294099 0.150302
v 0.310097 0.27199 0.098073
v 0.237525 0.265912 0.114735
v 0.186169 0.248698 0.165423
v 0.17255 0.224028 0.235396
v 0.194323 0.205398 0.302976
v 0.258396 0.228445 0.352768
v 0.320735 0.195305 0.354528
v 0.405556 0.194506 0.350253
v 0.481526 0.212057 0.299517
v 0.473955 0.24325 0.218245
v 0.310502 0.300205 0.119838
v 0.216173 0.30655 0.200215
v 0.320385 0.227428 0.359824
v 0.445785 0.250517 0.31025
v 0.446608 0.273027 0.240574
v 0.415222 0.312549 0.213535
v 0.310879 0.329863 0.150005
v 0.24893 0.325736 0.154715
v 0.216916 0.284968 0.260863
v 0.269142 0.266381 0.354529
v 0.371711 0.263859 0.354604
v 0.406037 0.288278 0.316071
v 0.310496 0.327599 0.267039
v 0.4425 0.197181 0.110723
v 0.382229 0.230795 0.079459
v 0.309937 0.197828 0.073367
v 0.239226 0.191293 0.092473
v 0.18752 0.202149 0.150466
v 0.168658 0.180073 0.217583
v 0.18752 0.131053 0.275798
v 0.240952 0.14406 0.331175
v 0.313017 0.112975 0.338056
v 0.393527 0.117728 0.324461
v 0.483104 0.163047 0.279109
v 0.469402 0.168695 0.189702
v 0.309859 0.23113 0.231878
v 0.308322 0.001692 0.081406
v 0.235853 0.001692 0.081406
v 0.177224 0.001692 0.124002
v 0.15483 0.001692 0.192924
v 0.177225 0.001692 0.261846
v 0.235853 0.001692 0.304442
v 0.308322 0.001692 0.304442
v 0.36695 0.001692 0.261846
v 0.389344 0.001692 0.192924
v 0.353122 0.12617 0.152578
v 0.258612 0.150836 0.126044
v 0.216346 0.151989 0.158351
v 0.258612 0.115097 0.285867
v 0.353122 0.104082 0.251354
v 0.359954 0.220001 0.186801
v 0.287461 0.239052 0.166571
v 0.255041 0.239776 0.191357
v 0.242658 0.233393 0.229722
v 0.255041 0.222343 0.267011
v 0.287461 0.210845 0.288982
v 0.359954 0.202568 0.262455
vn 0.7756 0.1273 -0.6183
vn 0.7152 0.0177 -0.6987
vn 0.3344 0.1638 -0.9281
vn 0.335 0.1631 -0.928
vn -0.1439 0.189 -0.9714
vn -0.1848 0.3287 -0.9262
vn -0.5989 0.5695 -0.5629
vn -0.6597 0.5284 -0.5344
vn -0.3913 0.7365 -0.5518
vn -0.6565 0.6017 -0.4548
vn -0.3913 0.7365 0.5518
vn -0.6565 0.6017 0.4548
vn -0.5989 0.5695 0.5629
vn -0.6597 0.5284 0.5344
vn -0.1439 0.189 0.9714
vn -0.1848 0.3287 0.9262
vn 0.3344 0.1638 0.9281
vn 0.335 0.1631 0.928
vn 0.7756 0.1273 0.6183
vn 0.7152 0.0177 0.6987
vn 0.9159 -0.0377 0.3996
vn 0.9124 0.3435 0.2225
vn 0.9159 -0.0377 -0.3996
vn 0.9124 0.3435 -0.2225
vn 0.6388 0.5677 -0.5193
vn 0.3045 0.6719 -0.6752
vn 0.2934 0.6665 -0.6854
vn -0.044 0.744 -0.6667
vn -0.0457 0.743 -0.6677
vn -0.4063 0.814 -0.4151
vn -0.4388 0.8121 -0.3846
vn -0.4204 0.8179 -0.3927
vn -0.4388 0.8121 0.3846
vn -0.4204 0.8179 0.3927
vn -0.4159 0.8065 0.4202
vn -0.416 0.8168 0.3998
vn -0.044 0.744 0.6667
vn -0.0434 0.7425 0.6684
vn 0.3058 0.6648 0.6815
vn 0.3128 0.6709 0.6723
vn 0.6388 0.5677 0.5193
vn 0.6202 0.5899 0.5171
vn 0.8392 0.5077 0.1949
vn 0.8281 0.5339 0.1707
vn 0.8252 0.532 -0.19
vn 0.6412 0.5842 -0.4975
vn 0.7951 0.2306 -0.5609
vn 0.5768 -0.4839 -0.6582
vn 0.1847 0.3562 -0.916
vn 0.249 -0.4313 -0.8672
vn -0.045 0.3941 -0.918
vn -0.2924 -0.323 -0.9001
vn -0.6777 0.4978 -0.5411
vn -0.7738 0.5095 -0.3763
vn -0.8901 -0.1697 -0.423
vn -0.7738 0.5095 0.3763
vn -0.8901 -0.1697 0.423
vn -0.5934 0.4782 0.6475
vn -0.8315 -0.1847 0.524
vn -0.2733 0.433 0.859
vn -0.2924 -0.323 0.9001
vn 0.4812 0.2973 0.8246
vn 0.249 -0.4313 0.8672
vn 0.6217 0.2663 0.7366
vn 0.5768 -0.4839 0.6582
vn 0.9739 0.1938 0.1183
vn 0.8149 -0.5271 0.2412
vn 0.8149 -0.5271 -0.2412
vn 0.8148 -0.5271 -0.2412
vn 0.5815 0.6837 -0.4409
vn 0.277 0.781 -0.5597
vn 0.4194 0.7866 -0.4531
vn 0.0101 0.8479 -0.5301
vn -0.2543 0.9091 -0.33
vn -0.2633 0.9121 -0.3142
vn -0.256 0.9124 -0.3195
vn -0.2633 0.9121 0.3142
vn -0.256 0.9124 0.3195
vn -0.2543 0.9091 0.33
vn 0.0101 0.8479 0.5301
vn 0.277 0.781 0.5597
vn 0.5815 0.6837 0.4409
vn 0.4194 0.7866 0.4531
vn 0.7655 0.6206 0.1698
vn 0.7185 0.6955 -0.0
vn 0.7655 0.6206 -0.1698
vn 0.3244 0.9022 -0.2844
vn 0.0881 0.9497 -0.3004
vn -0.062 0.9738 -0.2188
vn -0.062 0.9738 0.2188
vn 0.0881 0.9497 0.3004
vn 0.3244 0.9022 0.2844
vn 0.494 0.8695 -0.0
vn 0.1638 -0.9848 -0.0579
vn -0.0297 -0.9816 -0.1885
vn -0.3439 -0.9087 -0.2368
vn -0.4459 -0.8785 -0.1716
vn -0.6071 -0.7804 0.1495
vn -0.6071 -0.7804 -0.1495
vn -0.4459 -0.8785 0.1716
vn -0.3439 -0.9087 0.2368
vn -0.0297 -0.9816 0.1885
vn 0.1638 -0.9848 0.0579
vn 0.249 -0.9635 -0.0987
vn 0.249 -0.9635 0.0987
vn -0.4522 -0.7911 0.412
vn -0.2573 -0.8135 0.5215
vn -0.1559 -0.8307 0.5344
vn 0.2004 -0.9233 0.3276
vn 0.0863 -0.8673 0.4903
vn 0.0863 -0.8673 -0.4903
vn 0.2004 -0.9233 -0.3276
vn -0.1559 -0.8307 -0.5344
vn -0.2573 -0.8135 -0.5215
vn -0.4522 -0.7911 -0.412
vn -0.4741 -0.7926 -0.3834
vn -0.4741 -0.7926 0.3834
vn 0.7023 -0.1162 -0.7023
vn 0.7013 -0.1173 -0.7032
vn 0.2585 -0.0481 -0.9648
vn 0.2574 -0.049 -0.9651
vn 0.2071 -0.0376 -0.9776
vn 0.2035 -0.04 -0.9783
vn -0.85 0.1174 -0.5135
vn -0.8493 0.1186 -0.5144
vn -0.9573 0.1336 -0.2565
vn -0.947 0.3212 -0.0
vn -0.9573 0.1336 0.2565
vn -0.6269 0.0849 0.7744
vn -0.7036 0.01 0.7105
vn -0.8613 0.2003 0.467
vn 0.8807 -0.0274 0.473
vn 0.7946 -0.11 0.5972
vn 0.6384 -0.0909 0.7643
vn 0.6253 -0.1054 0.7733
vn 0.9541 -0.1557 0.2557
vn 0.9539 -0.1563 0.2562
vn 0.9541 -0.1557 -0.2557
vn 0.9539 -0.1563 -0.2562
vn -0.0473 0.6214 0.782
vn -0.5889 0.4979 0.6366
vn -0.5659 0.4778 0.6719
vn -0.8241 0.5088 0.249
vn -0.9171 0.3988 -0.0
vn -0.6844 0.5819 -0.4393
vn -0.6753 0.5738 -0.4634
vn 0.2176 0.5421 -0.8116
vn 0.1465 0.5356 -0.8316
vn 0.2674 0.4763 -0.8377
vn 0.6566 0.4405 -0.6122
vn 0.7754 0.5243 -0.352
vn 0.8641 0.4534 -0.2187
vn 0.8641 0.4534 0.2187
vn 0.8765 0.44 0.1954
vn 0.5819 0.4564 0.6731
vn 0.7225 0.4863 0.4914
vn 0.5435 0.4793 0.6891
vn 0.7006 -0.5355 -0.4717
vn 0.5498 -0.5916 -0.5897
vn -0.0017 -0.0245 -0.9997
vn -0.0071 -0.0258 -0.9996
vn -0.7358 0.4754 -0.4822
vn -0.6008 0.4878 -0.6333
vn -0.6662 0.7458 -0.0
vn -0.7272 0.6454 0.2336
vn -0.5605 0.4876 0.6693
vn -0.4151 0.477 0.7747
vn -0.227 0.1479 0.9626
vn 0.4085 -0.3508 0.8427
vn 0.2127 -0.3938 0.8942
vn 0.8763 -0.4085 0.2554
vn 0.8831 -0.4009 0.2435
vn 0.668 0.3799 -0.6399
vn 0.0051 0.0729 -0.9973
vn -0.6948 -0.2455 -0.676
vn -0.8683 -0.4961 -0.0
vn -0.8609 -0.136 -0.4903
vn -0.4897 -0.3326 0.806
vn -0.8609 -0.136 0.4903
vn -0.2619 -0.0422 0.9642
vn 0.2672 0.2004 0.9426
vn 0.7908 0.4273 0.4383
vn 0.956 0.1489 0.2528
vn 0.8581 0.4636 -0.2207
vn 0.7675 -0.008 0.6409
vn 0.8738 0.0477 0.4839
vn -0.8032 0.2621 0.5349
vn -0.6394 0.1252 0.7586
vn -0.2486 0.1315 0.9596
vn -0.8069 0.3461 0.4787
vn -0.8069 0.3461 -0.4787
vn -0.6305 0.4123 -0.6576
vn -0.003 -0.0423 -0.9991
vn 0.2546 -0.0659 -0.9648
vn 0.6802 -0.2336 -0.6948
vn 0.841 -0.2224 -0.4933
vn 0.912 -0.3252 -0.2499
vn 0.8232 -0.2936 0.4859
vn 0.2635 0.073 0.9619
vn 0.0021 0.0297 0.9996
vn 0.6696 0.6913 -0.2714
vn 0.4384 0.8868 -0.1461
vn -0.2591 0.7335 -0.6283
vn -0.0977 0.9572 -0.2725
vn -0.232 0.7223 -0.6515
vn -0.2083 0.7427 -0.6364
vn -0.4633 0.6996 -0.544
vn -0.3678 0.9281 -0.0574
vn -0.4879 0.8607 0.1452
vn -0.4002 0.8859 0.2345
vn -0.7008 0.4168 0.5789
vn -0.4066 0.8388 0.3622
vn -0.7088 0.4226 0.5648
vn -0.6358 0.5032 0.5852
vn 0.0467 0.3329 0.9418
vn 0.0897 0.2203 0.9713
vn 0.1704 0.3148 0.9337
vn 0.0512 0.1662 0.9848
vn 0.3949 0.1545 0.9057
vn 0.3656 0.5621 0.7419
vn 0.7353 0.6777 -0.0138
vn 0.9024 0.4237 0.0786
vn 0.8118 0.5798 -0.0695
vn 0.8377 0.4957 -0.2292
vn 0.3679 0.5646 -0.7388
vn -0.2267 0.5969 -0.7696
vn -0.6509 0.6097 -0.4524
vn -0.8856 0.4645 -0.0086
vn -0.1142 -0.1628 0.98
vn 0.0481 -0.162 0.9856
vn 0.502 0.2341 0.8326
vn 0.7834 0.6012 0.1578
vn 0.7446 0.6325 0.2131
vn 0.6943 0.7127 -0.1001
vn 0.3995 0.7992 -0.4491
vn 0.3431 0.6677 -0.6607
vn -0.2127 0.5706 -0.7932
vn -0.1003 0.7101 -0.6969
vn -0.8101 0.4246 -0.4042
vn -0.8299 0.5223 0.196
vn -0.8157 0.434 0.3824
vn -0.6393 0.146 0.755
vn -0.7276 0.4707 0.4991
vn -0.1133 -0.014 0.9935
vn 0.108 -0.0097 0.9941
vn 0.5298 0.2069 0.8225
vn 0.5192 0.4329 0.7369
vn 0.6877 0.6884 0.2305
vn 0.6817 0.6959 0.2258
vn 0.8088 0.5812 -0.0893
vn -0.004 0.9605 -0.2781
vn 0.454 0.8908 0.0187
vn -0.065 0.9977 0.0191
vn -0.3224 0.9328 0.1612
vn -0.411 0.8573 0.3101
vn -0.403 0.8283 0.3891
vn 0.419 0.6389 0.6451
vn -0.364 0.6133 0.7009
vn 0.0488 0.8234 0.5653
vn 0.2591 0.9344 0.2444
vn 0.2103 -0.5268 -0.8236
vn 0.2493 -0.3811 -0.8903
vn 0.324 -0.5488 -0.7706
vn 0.3206 -0.5622 -0.7623
vn -0.1557 -0.5867 -0.7947
vn -0.1581 -0.5946 -0.7883
vn -0.6325 -0.6338 -0.4453
vn -0.6539 -0.6446 -0.3962
vn -0.6545 -0.6442 -0.3958
vn -0.6584 -0.6673 -0.3481
vn -0.659 -0.6668 -0.3479
vn -0.1691 -0.9233 0.3448
vn -0.1851 -0.9018 0.3904
vn -0.4148 -0.884 0.2155
vn -0.4041 -0.8934 0.1961
vn 0.1135 -0.9672 0.2273
vn 0.1018 -0.9581 0.2678
vn 0.5419 -0.8227 0.1717
vn 0.4916 -0.8642 0.1074
vn 0.7124 -0.6988 -0.0637
vn 0.5587 -0.8179 -0.1373
vn 0.5746 -0.6938 -0.4342
vn 0.5516 -0.7068 -0.4428
vn -0.4018 -0.8961 -0.1888
vn 0.3942 -0.8994 0.1891
vn 0.1445 -0.9684 0.2035
vn 0.0682 -0.9679 0.242
vn 0.3511 -0.9143 -0.2021
vn 0.3117 -0.6747 -0.6691
vn 0.5268 -0.786 -0.3237
vn -0.2139 -0.6561 -0.7237
vn -0.0856 -0.6672 -0.7399
vn -0.0512 -0.654 -0.7548
vn -0.3651 -0.931 -0.0029
vn -0.4005 -0.897 -0.1871
vn 0.3396 0.3718 -0.864
vn -0.0 0.2867 -0.958
vn -0.5579 0.3149 -0.7678
vn -0.5696 0.3212 -0.7566
vn -0.9063 0.3032 -0.2945
vn -0.8094 0.5252 0.263
vn -0.8157 0.4243 0.3931
vn -0.5702 0.243 0.7848
vn -0.0 0.1616 0.9868
vn 0.5802 0.1602 0.7986
vn 0.3579 0.3016 0.8837
vn 0.9391 0.1581 0.3051
vn 0.8082 0.0449 -0.5872
vn 0.952 0.2987 0.0668
vn 0.3299 0.3022 -0.8943
vn 0.3292 0.3032 -0.8943
vn -0.5203 0.4918 -0.6982
vn -0.5221 0.4911 -0.6973
vn -0.8655 0.4579 -0.2032
vn -0.9468 0.0246 0.3209
vn -0.9465 0.0251 0.3217
vn -0.5241 0.1305 0.8416
vn 0.3277 -0.1292 0.9359
vn 0.327 -0.1282 0.9363
vn 0.9976 -0.0675 -0.0155
vn 0.9976 -0.0672 -0.015
usemtl Elf_bush_Map
f 2//1 14//1 1//1
f 1//2 14//2 13//2
f 2//3 3//3 14//3
f 14//4 3//4 15//4
f 3//5 4//5 15//5
f 15//6 4//6 16//6
f 5//7 17//7 4//7
f 4//8 17//8 16//8
f 6//9 18//9 5//9
f 5//10 18//10 17//10
f 6//11 7//11 18//11
f 18//12 7//12 19//12
f 7//13 8//13 19//13
f 19//14 8//14 20//14
f 9//15 21//15 8//15
f 8//16 21//16 20//16
f 10//17 22//17 9//17
f 9//18 22//18 21//18
f 10//19 11//19 22//19
f 22//20 11//20 23//20
f 11//21 12//21 23//21
f 23//22 12//22 24//22
f 1//23 13//23 12//23
f 12//24 13//24 24//24
f 13//25 14//25 25//25
f 15//26 26//26 14//26
f 14//27 26//27 25//27
f 16//28 27//28 15//28
f 15//29 27//29 26//29
f 16//30 17//30 27//30
f 27//30 17//30 28//30
f 18//31 29//31 17//31
f 17//32 29//32 28//32
f 18//33 19//33 29//33
f 29//34 19//34 30//34
f 20//35 31//35 19//35
f 19//36 31//36 30//36
f 21//37 32//37 20//37
f 20//38 32//38 31//38
f 21//39 22//39 32//39
f 32//40 22//40 33//40
f 23//41 34//41 22//41
f 22//42 34//42 33//42
f 23//43 24//43 34//43
f 34//44 24//44 35//44
f 24//45 13//45 35//45
f 13//46 25//46 36//46
f 35//45 13//45 36//45
f 25//47 38//47 36//47
f 36//48 38//48 37//48
f 25//49 26//49 38//49
f 38//50 26//50 39//50
f 27//51 40//51 26//51
f 26//52 40//52 39//52
f 27//53 28//53 40//53
f 40//53 28//53 41//53
f 28//54 29//54 41//54
f 41//55 29//55 42//55
f 30//56 43//56 29//56
f 29//57 43//57 42//57
f 30//58 31//58 43//58
f 43//59 31//59 44//59
f 32//60 45//60 31//60
f 31//61 45//61 44//61
f 32//62 33//62 45//62
f 45//63 33//63 46//63
f 34//64 47//64 33//64
f 33//65 47//65 46//65
f 34//66 35//66 47//66
f 47//67 35//67 48//67
f 35//68 36//68 48//68
f 48//69 36//69 37//69
f 37//70 38//70 49//70
f 39//71 50//71 38//71
f 38//72 50//72 49//72
f 40//73 51//73 39//73
f 39//73 51//73 50//73
f 40//74 41//74 51//74
f 42//75 52//75 41//75
f 41//76 52//76 51//76
f 42//77 43//77 52//77
f 52//78 43//78 53//78
f 43//79 44//79 53//79
f 44//80 45//80 53//80
f 53//80 45//80 54//80
f 45//81 46//81 54//81
f 47//82 55//82 46//82
f 46//83 55//83 54//83
f 47//84 48//84 55//84
f 55//85 48//85 49//85
f 48//86 37//86 49//86
f 49//87 50//87 56//87
f 50//88 51//88 56//88
f 51//89 52//89 56//89
f 52//90 53//90 56//90
f 53//91 54//91 56//91
f 54//92 55//92 56//92
f 55//93 49//93 56//93
f 2//94 1//94 58//94
f 58//94 1//94 57//94
f 2//95 58//95 3//95
f 3//95 58//95 59//95
f 4//96 3//96 60//96
f 60//96 3//96 59//96
f 4//97 60//97 5//97
f 5//97 60//97 61//97
f 6//98 5//98 62//98
f 62//98 5//98 61//98
f 6//99 62//99 7//99
f 7//99 62//99 63//99
f 8//100 7//100 64//100
f 64//100 7//100 63//100
f 8//101 64//101 9//101
f 9//101 64//101 65//101
f 10//102 9//102 66//102
f 66//102 9//102 65//102
f 10//103 66//103 11//103
f 11//103 66//103 67//103
f 12//104 11//104 68//104
f 68//104 11//104 67//104
f 12//105 68//105 1//105
f 1//105 68//105 57//105
f 58//106 57//106 69//106
f 59//107 58//107 69//107
f 60//108 59//108 69//108
f 61//109 60//109 69//109
f 62//110 61//110 69//110
f 63//111 62//111 69//111
f 64//112 63//112 69//112
f 65//113 64//113 69//113
f 66//114 65//114 69//114
f 67//115 66//115 69//115
f 68//116 67//116 69//116
f 57//117 68//117 69//117
f 71//118 95//118 70//118
f 70//119 95//119 96//119
f 72//120 94//120 71//120
f 71//121 94//121 95//121
f 73//122 93//122 72//122
f 72//123 93//123 94//123
f 74//124 92//124 73//124
f 73//125 92//125 93//125
f 74//126 75//126 92//126
f 92//127 75//127 91//127
f 75//128 76//128 91//128
f 76//129 77//129 91//129
f 91//130 77//130 90//130
f 77//131 113//131 90//131
f 115//132 79//132 114//132
f 114//133 79//133 99//133
f 79//134 80//134 99//134
f 99//135 80//135 98//135
f 80//136 81//136 98//136
f 98//137 81//137 97//137
f 70//138 96//138 81//138
f 81//139 96//139 97//139
f 90//140 88//140 87//140
f 90//141 87//141 91//141
f 91//142 87//142 86//142
f 91//143 86//143 85//143
f 92//144 91//144 85//144
f 93//145 92//145 84//145
f 84//146 92//146 85//146
f 93//147 84//147 94//147
f 94//148 84//148 83//148
f 95//149 94//149 83//149
f 95//150 83//150 96//150
f 96//151 83//151 82//151
f 97//152 96//152 82//152
f 97//153 82//153 98//153
f 98//154 82//154 89//154
f 99//155 98//155 89//155
f 114//156 99//156 88//156
f 88//157 99//157 89//157
f 83//158 101//158 82//158
f 82//159 101//159 100//159
f 83//160 102//160 101//160
f 83//161 84//161 102//161
f 85//162 103//162 84//162
f 84//163 103//163 102//163
f 85//164 104//164 103//164
f 85//165 86//165 104//165
f 86//166 87//166 104//166
f 104//167 87//167 105//167
f 87//168 88//168 105//168
f 88//169 89//169 105//169
f 105//170 89//170 106//170
f 89//171 82//171 106//171
f 106//172 82//172 100//172
f 100//173 101//173 121//173
f 121//173 101//173 120//173
f 101//174 102//174 120//174
f 102//174 119//174 120//174
f 102//175 103//175 119//175
f 104//176 118//176 103//176
f 103//177 118//177 119//177
f 105//178 117//178 104//178
f 104//179 117//179 118//179
f 105//180 116//180 117//180
f 106//181 123//181 105//181
f 105//181 123//181 116//181
f 106//182 122//182 123//182
f 106//183 100//183 122//183
f 100//184 121//184 122//184
f 90//185 113//185 78//185
f 88//186 90//186 78//186
f 78//187 114//187 88//187
f 78//188 115//188 114//188
f 117//189 116//189 111//189
f 118//190 117//190 111//190
f 118//190 111//190 110//190
f 119//191 118//191 110//191
f 119//192 110//192 109//192
f 120//193 119//193 109//193
f 120//194 109//194 108//194
f 120//195 108//195 121//195
f 121//196 108//196 107//196
f 122//197 121//197 107//197
f 122//198 107//198 112//198
f 123//198 122//198 112//198
f 116//199 123//199 111//199
f 111//200 123//200 112//200
f 124//201 125//201 136//201
f 136//202 125//202 137//202
f 126//203 138//203 125//203
f 125//204 138//204 137//204
f 127//205 139//205 126//205
f 126//206 139//206 138//206
f 127//207 128//207 139//207
f 139//208 128//208 140//208
f 128//209 129//209 140//209
f 140//210 129//210 141//210
f 130//211 142//211 129//211
f 129//212 142//212 141//212
f 130//213 131//213 142//213
f 142//214 131//214 143//214
f 132//215 144//215 131//215
f 131//216 144//216 143//216
f 132//217 133//217 144//217
f 144//218 133//218 145//218
f 133//219 134//219 145//219
f 145//220 134//220 146//220
f 134//221 135//221 146//221
f 146//222 135//222 147//222
f 124//223 136//223 135//223
f 135//224 136//224 147//224
f 137//225 138//225 148//225
f 138//226 139//226 148//226
f 139//227 140//227 149//227
f 140//228 141//228 149//228
f 143//229 144//229 150//229
f 144//230 145//230 150//230
f 145//231 146//231 151//231
f 147//232 152//232 146//232
f 146//233 152//233 151//233
f 147//234 136//234 152//234
f 136//235 137//235 153//235
f 137//236 148//236 154//236
f 139//237 155//237 148//237
f 148//238 155//238 154//238
f 139//239 149//239 155//239
f 149//240 141//240 156//240
f 141//241 142//241 156//241
f 143//242 157//242 142//242
f 142//243 157//243 156//243
f 143//244 150//244 157//244
f 150//245 145//245 158//245
f 145//246 151//246 158//246
f 158//247 151//247 159//247
f 151//248 152//248 159//248
f 159//249 152//249 153//249
f 152//250 136//250 153//250
f 153//251 137//251 160//251
f 137//252 154//252 160//252
f 154//253 155//253 160//253
f 155//254 149//254 160//254
f 149//255 156//255 160//255
f 156//256 157//256 160//256
f 157//257 150//257 160//257
f 150//258 158//258 160//258
f 158//259 159//259 160//259
f 159//260 153//260 160//260
f 125//261 124//261 162//261
f 162//262 124//262 161//262
f 125//263 162//263 126//263
f 126//264 162//264 163//264
f 126//265 163//265 127//265
f 127//266 163//266 164//266
f 128//267 127//267 165//267
f 165//267 127//267 164//267
f 129//268 128//268 166//268
f 166//269 128//269 165//269
f 129//270 166//270 130//270
f 130//271 166//271 167//271
f 131//272 130//272 168//272
f 168//273 130//273 167//273
f 131//274 168//274 132//274
f 132//275 168//275 169//275
f 132//276 169//276 133//276
f 133//277 169//277 170//277
f 134//278 133//278 171//278
f 171//279 133//279 170//279
f 134//280 171//280 135//280
f 135//281 171//281 172//281
f 135//282 172//282 124//282
f 124//283 172//283 161//283
f 162//284 161//284 173//284
f 163//285 162//285 173//285
f 164//286 163//286 173//286
f 165//287 164//287 173//287
f 166//288 165//288 173//288
f 167//289 166//289 173//289
f 168//290 167//290 173//290
f 169//291 168//291 173//291
f 170//292 169//292 173//292
f 171//293 170//293 173//293
f 172//294 171//294 173//294
f 161//295 172//295 173//295
f 174//296 184//296 183//296
f 174//297 175//297 184//297
f 175//298 176//298 184//298
f 184//299 176//299 185//299
f 176//300 177//300 185//300
f 178//301 186//301 177//301
f 177//302 186//302 185//302
f 178//303 179//303 186//303
f 179//304 180//304 186//304
f 181//305 187//305 180//305
f 180//306 187//306 186//306
f 181//307 182//307 187//307
f 174//308 183//308 182//308
f 182//309 183//309 187//309
f 183//310 184//310 188//310
f 184//311 189//311 188//311
f 185//312 190//312 184//312
f 184//313 190//313 189//313
f 185//314 191//314 190//314
f 185//315 186//315 191//315
f 191//316 186//316 192//316
f 186//317 193//317 192//317
f 186//318 194//318 193//318
f 186//319 187//319 194//319
f 187//320 188//320 194//320
f 187//321 183//321 188//321