mtllib flat.mtl
v -0.132807 0.68795 0.023083
v -0.12611 0.743869 -0.010852
v -0.147512 0.689489 -0.040986
v -0.207067 0.725923 0.007297
v 0.128271 0.765165 0.038837
v 0.094903 0.821807 0.040108
v 0.087996 0.778475 0.089078
v 0.161086 0.82144 0.093261
v 0.062909 0.764949 -0.1089
v 0.061824 0.821633 -0.075597
v 0.114011 0.781882 -0.071149
v 0.111539 0.824829 -0.144327
v 0.008773 0.886236 0.082836
v 0.014194 0.94421 0.052293
v -0.044982 0.916705 0.060357
v -0.014894 0.951483 0.131707
v 0.032013 0.112274 -0.031109
v 0.014063 0.112274 -0.062404
v -0.020814 0.112274 -0.048274
v -0.059297 0.112274 -0.038568
v -0.071829 0.112274 0.0
v -0.044439 0.112274 0.024437
v -0.026489 0.112274 0.062404
v 0.014063 0.112274 0.062404
v 0.032013 0.112274 0.024437
v 0.059403 0.112274 0.0
v 0.041443 0.174652 -0.027101
v -0.010106 0.174652 -0.04385
v -0.033159 0.174652 -0.027101
v -0.033159 0.174652 0.027101
v -0.010106 0.174652 0.04385
v 0.050249 0.174652 0.0
v 0.027133 0.04393 -0.038935
v 0.004667 0.04393 -0.078104
v -0.046164 -0.001773 -0.084156
v -0.08715 0.04393 -0.048271
v -0.102834 0.04393 0.0
v -0.068554 0.04393 0.030585
v -0.046088 0.04393 0.078104
v 0.004667 0.04393 0.078104
v 0.027133 0.04393 0.030585
v 0.061413 0.04393 0.0
v 0.04593 -0.001773 -0.054232
v 0.014638 -0.001773 -0.10879
v -0.113252 -0.001773 -0.067236
v -0.135099 -0.001773 0.0
v -0.08735 -0.001773 0.042602
v -0.056058 -0.001773 0.10879
v 0.014638 -0.001773 0.10879
v 0.04593 -0.001773 0.042602
v 0.093678 -0.001773 0.0
v 0.026734 0.280274 -0.027101
v 0.008292 0.280274 -0.04385
v -0.014505 0.280274 -0.04385
v -0.032947 0.280274 -0.027101
v -0.039992 0.280274 0.0
v -0.032947 0.280274 0.027101
v 0.008292 0.280274 0.04385
v 0.026734 0.280274 0.027101
v 0.033779 0.280274 0.0
v -0.004953 0.475985 -0.036718
v -0.039485 0.475985 -0.022693
v -0.045383 0.475985 0.0
v -0.024042 0.475985 0.036718
v 0.01049 0.475985 0.022693
v 0.016389 0.475985 0.0
v 0.190861 0.680018 -0.110193
v 0.07793 0.680018 -0.134978
v 0.0 0.680018 -0.220387
v -0.07793 0.680018 -0.134978
v -0.190861 0.680018 -0.110193
v -0.15586 0.680018 0.0
v -0.190861 0.680018 0.110193
v -0.07793 0.680018 0.134978
v 0.0 0.680018 0.220387
v 0.07793 0.680018 0.134978
v 0.190861 0.680018 0.110193
v 0.15586 0.680018 0.0
v 0.122702 0.764901 -0.070842
v 0.070842 0.764901 -0.122702
v 0.0 0.764901 -0.141684
v -0.070842 0.764901 -0.122702
v -0.122702 0.764901 -0.070842
v -0.141684 0.764901 0.0
v -0.122702 0.764901 0.070842
v -0.070842 0.764901 0.122702
v 0.0 0.764901 0.141684
v 0.070842 0.764901 0.122702
v 0.122702 0.764901 0.070842
v 0.141684 0.764901 0.0
v 0.125241 0.806361 -0.072308
v 0.072308 0.806361 -0.12524
v 0.0 0.806361 -0.144615
v -0.072308 0.806361 -0.12524
v -0.125241 0.806361 -0.072308
v -0.144615 0.806361 0.0
v -0.125241 0.806361 0.072308
v -0.072308 0.806361 0.125241
v 0.0 0.806361 0.144615
v 0.072308 0.806361 0.125241
v 0.125241 0.806361 0.072308
v 0.144615 0.806361 0.0
v 0.090965 0.843676 -0.052518
v 0.0 0.843676 -0.105037
v -0.090965 0.843676 -0.052518
v -0.090965 0.843676 0.052519
v -0.052518 0.843676 0.090965
v 0.052518 0.843676 0.090965
v 0.105037 0.843676 0.0
v 0.07827 0.926598 -0.045189
v 0.045189 0.926598 -0.07827
v 0.0 0.926598 -0.090378
v -0.045189 0.926598 -0.07827
v -0.07827 0.926598 -0.045189
v -0.090378 0.926598 0.0
v -0.07827 0.926598 0.045189
v -0.045189 0.926598 0.07827
v 0.0 0.926598 0.090378
v 0.045189 0.926598 0.07827
v 0.07827 0.926598 0.045189
v 0.090378 0.926598 0.0
v 0.048059 0.951475 -0.034928
v -0.012438 0.951475 -0.069856
v -0.072935 0.951475 -0.034928
v -0.082294 0.951475 0.0
v -0.072935 0.951475 0.034928
v -0.012438 0.951475 0.069856
v 0.048059 0.951475 0.034928
v 0.0492 1.01574 -0.031996
v -0.006219 1.01574 -0.063992
v -0.061638 1.01574 -0.031996
v -0.061638 1.01574 0.031996
v -0.006219 1.01574 0.063993
v 0.0492 1.01574 0.031996
v 0.003755 1.059274 -0.01294
v -0.018657 1.059274 -0.02588
v -0.04107 1.059274 -0.01294
v -0.04107 1.059274 0.01294
v -0.018657 1.059274 0.02588
v 0.003755 1.059274 0.01294
v -0.012438 1.104881 0.0
v 0.21936 0.65942 -0.126648
v 0.089566 0.65942 -0.155134
v 0.0 0.65942 -0.253295
v -0.089566 0.65942 -0.155134
v -0.21936 0.65942 -0.126648
v -0.179133 0.65942 0.0
v -0.21936 0.65942 0.126648
v -0.089566 0.65942 0.155134
v 0.0 0.659419 0.253296
v 0.089566 0.65942 0.155134
v 0.21936 0.65942 0.126648
v 0.179133 0.65942 0.0
v 0.165499 0.632338 -0.095551
v 0.067575 0.632338 -0.117042
v 0.0 0.632338 -0.191102
v -0.067575 0.632338 -0.117042
v -0.165499 0.632338 -0.095551
v -0.135149 0.632338 0.0
v -0.165499 0.632338 0.095551
v -0.067575 0.632338 0.117043
v 0.0 0.632338 0.191102
v 0.067575 0.632338 0.117043
v 0.165499 0.632338 0.095551
v 0.135149 0.632338 0.0
v -0.01286 0.692267 0.0
v 0.049103 0.463564 -0.034926
v 0.023535 0.463564 -0.060494
v -0.011391 0.463564 -0.069852
v -0.046317 0.463564 -0.060494
v -0.071884 0.463564 -0.034926
v -0.081243 0.463564 0.0
v -0.071884 0.463564 0.034926
v -0.046317 0.463564 0.060494
v -0.011391 0.463564 0.069852
v 0.023535 0.463564 0.060494
v 0.049103 0.463564 0.034926
v 0.058461 0.463564 0.0
v 0.02664 0.513101 -0.021957
v -0.011391 0.513101 -0.043914
v -0.049422 0.513101 -0.021957
v -0.055305 0.513101 0.0
v -0.033348 0.513101 0.038031
v -0.011391 0.513101 0.043915
v 0.032524 0.513101 0.0
v -0.011391 1.072486 0.0
v 0.096356 0.362992 -0.09599
v 0.0846 0.362992 -0.107747
v 0.033926 0.362992 -0.137003
v 0.017866 0.362992 -0.141307
v -0.040647 0.362992 -0.141307
v -0.056707 0.362992 -0.137003
v -0.119074 0.362992 -0.086131
v -0.139824 0.362992 -0.050191
v -0.152697 0.362992 0.029257
v -0.148394 0.362992 0.045316
v -0.119137 0.362992 0.09599
v -0.107381 0.362992 0.107747
v -0.056707 0.362992 0.137003
v -0.040647 0.362992 0.141307
v 0.017866 0.362992 0.141307
v 0.033926 0.362992 0.137003
v 0.0846 0.362992 0.107747
v 0.096356 0.362992 0.09599
v 0.125613 0.362992 0.045316
v 0.129916 0.362992 0.029257
v 0.129916 0.362992 -0.029257
v 0.125613 0.362992 -0.045316
v -0.007144 0.474727 0.002452
v 0.084543 0.350269 -0.084177
v 0.072786 0.350269 -0.095933
v 0.029602 0.350269 -0.120866
v 0.013542 0.350269 -0.125169
v -0.036323 0.350269 -0.125169
v -0.052383 0.350269 -0.120866
v -0.106884 0.351044 -0.073898
v -0.123135 0.351044 -0.045751
v -0.13656 0.350269 0.024933
v -0.132257 0.350269 0.040992
v -0.107324 0.350269 0.084177
v -0.095567 0.350269 0.095933
v -0.052383 0.350269 0.120866
v -0.036323 0.350269 0.125169
v 0.013542 0.350269 0.125169
v 0.029602 0.350269 0.120866
v 0.072786 0.350269 0.095933
v 0.084543 0.350269 0.084177
v 0.109475 0.350269 0.040992
v 0.113779 0.350269 0.024933
v 0.113779 0.350269 -0.024933
v 0.109475 0.350269 -0.040992
v 0.062684 0.408941 -0.058542
v 0.047152 0.408941 -0.074075
v 0.023489 0.408941 -0.087736
v 0.002271 0.408941 -0.093422
v -0.025052 0.408941 -0.093422
v -0.04627 0.408941 -0.087736
v -0.075393 0.408941 -0.063981
v -0.092572 0.408941 -0.04687
v -0.098801 0.408941 -0.023437
v -0.104812 0.408941 0.013662
v -0.099127 0.408941 0.03488
v -0.085465 0.408941 0.058542
v -0.069933 0.408941 0.074075
v -0.04627 0.408941 0.087736
v -0.025052 0.408941 0.093422
v 0.002271 0.408941 0.093422
v 0.023489 0.408941 0.087736
v 0.047152 0.408941 0.074075
v 0.062684 0.408941 0.058542
v 0.076346 0.408941 0.03488
v 0.082031 0.408941 0.013662
v 0.082031 0.408941 -0.013662
v 0.076346 0.408941 -0.03488
v 0.046081 0.408941 -0.043453
v 0.032062 0.408941 -0.057471
v 0.016654 0.408941 -0.066367
v -0.002495 0.408941 -0.071498
v -0.020286 0.408941 -0.071498
v -0.039363 0.408941 -0.066397
v -0.059106 0.408941 -0.049626
v -0.078226 0.408941 -0.016509
v -0.082878 0.408941 0.008974
v -0.077758 0.408941 0.028045
v -0.068862 0.408941 0.043453
v -0.054844 0.408941 0.057471
v -0.039436 0.408941 0.066367
v -0.020286 0.408941 0.071498
v -0.002495 0.408941 0.071498
v 0.016654 0.408941 0.066367
v 0.032062 0.408941 0.057471
v 0.046081 0.408941 0.043453
v 0.054977 0.408941 0.028045
v 0.060108 0.408941 0.008896
v 0.060108 0.408941 -0.008896
v 0.054977 0.408941 -0.028045
v 0.083199 0.886236 -0.004101
v 0.053008 0.94421 -0.01123
v 0.057732 0.916705 0.048305
v 0.130661 0.951483 0.022277
v -0.065864 0.765165 0.116721
v -0.05983 0.821807 0.083878
v -0.106117 0.778475 0.066463
v -0.126132 0.82144 0.136883
v -0.082212 0.886236 0.013418
v -0.051411 0.94421 0.017112
v -0.062791 0.916705 -0.041517
v -0.132336 0.951483 -0.007464
v -0.01802 0.886236 -0.081327
v -0.019976 0.94421 -0.050368
v 0.03792 0.916705 -0.065026
v 1e-05 0.951483 -0.132546
v -0.022906 0.69196 -0.141387
v 0.008235 0.748788 -0.130243
v 0.04241 0.695516 -0.148062
v 0.000751 0.731063 -0.21292
v 0.124675 0.688169 -0.04822
v 0.118726 0.744997 -0.015684
v 0.141849 0.691725 0.01515
v 0.199096 0.727272 -0.036472
v -0.099557 0.765165 -0.089723
v -0.068819 0.821807 -0.076675
v -0.041733 0.778475 -0.118053
v -0.106097 0.82144 -0.152937
v 0.087359 0.688169 0.10118
v 0.054719 0.744997 0.106526
v 0.033463 0.691725 0.138676
v 0.101337 0.727272 0.175215
v 0.263025 0.463786 -0.021756
v 0.281236 0.484351 -0.037918
v 0.286879 0.462602 -0.042861
v 0.268104 0.452049 -0.05095
v 0.250858 0.467276 -0.051007
v 0.258974 0.48724 -0.042953
v 0.278677 0.481413 -0.048365
v 0.282164 0.467971 -0.051419
v 0.270561 0.461449 -0.056418
v 0.259902 0.47086 -0.056454
v 0.264918 0.483198 -0.051476
v 0.272021 0.473847 -0.055763
v -0.228562 -0.001773 -0.064623
v -0.303182 -0.001773 -0.064623
v -0.340492 -0.001773 -0.0
v -0.303182 -0.001773 0.064623
v -0.228562 -0.001773 0.064623
v -0.191253 -0.001773 0.0
v -0.241054 0.080669 -0.034426
v -0.280806 0.080669 -0.034426
v -0.300682 0.080669 0.0
v -0.280806 0.080669 0.034426
v -0.241054 0.080669 0.034426
v -0.221179 0.080669 0.0
v 0.294434 0.303518 -0.051779
v 0.318767 0.323983 -0.049565
v 0.326011 0.303144 -0.056089
v 0.314921 0.297499 -0.07544
v 0.300825 0.314849 -0.080875
v 0.303201 0.331217 -0.064884
v 0.322488 0.323715 -0.060072
v 0.326965 0.310836 -0.064104
v 0.320111 0.307347 -0.076063
v 0.311399 0.31807 -0.079422
v 0.312868 0.328186 -0.069539
v 0.321066 0.318964 -0.071547
v 0.201481 0.352149 -0.040395
v 0.212062 0.396937 -0.063401
v 0.224657 0.368289 -0.083402
v 0.195848 0.346181 -0.091187
v 0.165449 0.361165 -0.075998
v 0.17547 0.392534 -0.058826
v 0.203199 0.394666 -0.0789
v 0.210982 0.37696 -0.091261
v 0.193178 0.363296 -0.096073
v 0.17439 0.372557 -0.086686
v 0.180583 0.391944 -0.076072
v 0.191614 0.382506 -0.09009
v -0.216752 0.093991 -0.048954
v -0.244871 0.080325 -0.079209
v -0.278772 0.07997 -0.079209
v -0.30761 0.087996 -0.048954
v -0.322365 0.090286 0.0
v -0.30761 0.087996 0.048954
v -0.278772 0.07997 0.079209
v -0.244871 0.080325 0.079209
v -0.216752 0.093991 0.048954
v -0.211105 0.148 0.0
v -0.300479 0.249759 -0.00475
v -0.18714 0.067682 -0.088618
v -0.202122 0.0604 -0.104738
v -0.247574 0.03706 -0.120854
v -0.265636 0.03687 -0.120854
v -0.30657 0.034135 -0.104505
v -0.321935 0.038412 -0.088385
v -0.344436 0.037269 -0.050624
v -0.352298 0.038489 -0.024541
v -0.352298 0.038489 0.024541
v -0.344436 0.037269 0.050624
v -0.321935 0.038412 0.088385
v -0.30657 0.034135 0.104505
v -0.265636 0.03687 0.120854
v -0.247574 0.037059 0.120854
v -0.202122 0.0604 0.104738
v -0.18714 0.067682 0.088618
v -0.176969 0.102382 0.059452
v -0.168787 0.123571 0.033369
v -0.168787 0.123571 -0.033369
v -0.176969 0.102382 -0.059452
v -0.259583 0.08161 0.000285
v -0.192248 0.056219 -0.078693
v -0.20723 0.048937 -0.094813
v -0.247457 0.02596 -0.109331
v -0.26552 0.025771 -0.109331
v -0.298997 0.024088 -0.094621
v -0.314362 0.028364 -0.078501
v -0.332003 0.028105 -0.046448
v -0.339864 0.029325 -0.020365
v -0.339864 0.029325 0.020365
v -0.332003 0.028105 0.046448
v -0.314362 0.028364 0.078501
v -0.298997 0.024088 0.094621
v -0.26552 0.025771 0.109331
v -0.247457 0.02596 0.109331
v -0.20723 0.048937 0.094813
v -0.192248 0.056219 0.078693
v -0.181912 0.091367 0.048953
v -0.17373 0.112555 0.02287
v -0.17373 0.112555 -0.02287
v -0.181912 0.091367 -0.048953
v 0.169124 0.334305 0.051345
v 0.170828 0.367432 0.058408
v 0.148768 0.36138 0.049688
v 0.139345 0.34412 0.064269
v 0.155581 0.339504 0.082
v 0.175039 0.353912 0.078378
v 0.162207 0.368259 0.066517
v 0.148573 0.364518 0.061128
v 0.14275 0.353851 0.070139
v 0.152784 0.350998 0.081097
v 0.16481 0.359903 0.078859
v 0.152816 0.361888 0.073458
v 0.215166 0.412027 0.006028
v 0.196996 0.445596 -0.004908
v 0.188843 0.423587 -0.02136
v 0.17781 0.403379 -0.004289
v 0.179145 0.412898 0.022714
v 0.191003 0.43899 0.022331
v 0.183745 0.441917 -0.002956
v 0.178706 0.428315 -0.013124
v 0.171887 0.415825 -0.002573
v 0.172712 0.421708 0.014115
v 0.180041 0.437834 0.013879
v 0.17385 0.430736 0.001475
v 0.255781 0.346592 0.054144
v 0.26899 0.38804 0.077332
v 0.235318 0.379305 0.084824
v 0.235318 0.346663 0.098992
v 0.26899 0.335225 0.100257
v 0.2898 0.360797 0.08687
v 0.266718 0.383165 0.093716
v 0.245908 0.377766 0.098346
v 0.245908 0.357592 0.107103
v 0.266718 0.350523 0.107885
v 0.27958 0.366328 0.099611
v 0.261457 0.369011 0.105793
v 0.288334 0.403465 -0.002789
v 0.318298 0.424508 -0.00871
v 0.309951 0.426497 0.016652
v 0.309951 0.401937 0.027313
v 0.318298 0.384769 0.00854
v 0.323457 0.398718 -0.013723
v 0.326512 0.419186 -0.000191
v 0.321353 0.420416 0.015483
v 0.321353 0.405237 0.022072
v 0.326512 0.394626 0.01047
v 0.3297 0.403248 -0.00329
v 0.32856 0.409023 0.010015
v 0.341861 0.242057 -0.068514
v 0.284313 0.271047 -0.09497
v 0.226726 0.270806 -0.137028
v 0.160253 0.287404 -0.11867
v 0.136371 0.307987 -0.054112
v 0.09378 0.304002 0.0
v 0.136371 0.307987 0.057515
v 0.160253 0.287404 0.11867
v 0.230162 0.284568 0.113328
v 0.293199 0.254208 0.11867
v 0.323954 0.261149 0.057515
v 0.359672 0.23761 0.0
v 0.343251 0.282795 -0.063595
v 0.236383 0.309479 -0.12719
v 0.174682 0.324886 -0.11015
v 0.129514 0.336164 -0.063595
v 0.112981 0.340292 0.0
v 0.129514 0.336164 0.063595
v 0.174682 0.324885 0.11015
v 0.236383 0.309479 0.12719
v 0.298083 0.294073 0.11015
v 0.343251 0.282795 0.063595
v 0.359784 0.278667 0.0
v 0.336091 0.330599 0.0
v 0.247198 0.352795 -0.091622
v 0.170215 0.372017 -0.045811
v 0.158305 0.37499 0.0
v 0.170215 0.372017 0.045811
v 0.291645 0.341697 0.079347
v 0.324182 0.333572 0.045811
v 0.299432 0.430448 -0.024243
v 0.282681 0.402259 -0.056409
v 0.251084 0.410149 -0.065135
v 0.219486 0.418038 -0.056409
v 0.196355 0.423814 -0.032568
v 0.196355 0.423814 0.032568
v 0.219486 0.418038 0.056409
v 0.251084 0.410149 0.065135
v 0.282681 0.402259 0.056409
v 0.305812 0.396483 0.032568
v 0.314279 0.394369 0.0
v 0.282214 0.434747 -0.041991
v 0.258692 0.44062 -0.048486
v 0.217953 0.450792 -0.024243
v 0.21165 0.452366 0.0
v 0.217953 0.450792 0.024243
v 0.258692 0.44062 0.048487
v 0.282214 0.434747 0.041991
v 0.305735 0.428874 0.0
v 0.300115 0.484585 -0.017054
v 0.271457 0.491741 -0.034108
v 0.254911 0.495872 -0.029538
v 0.238365 0.500004 0.0
v 0.254911 0.495872 0.029538
v 0.288003 0.487609 0.029538
v 0.300115 0.484585 0.017054
v 0.304549 0.483478 0.0
v 0.310037 0.535343 0.0
v 0.302669 0.537182 -0.013154
v 0.282539 0.542209 -0.007594
v 0.280565 0.542702 0.0
v 0.287933 0.540862 0.013154
v 0.295301 0.539022 0.015189
v 0.308063 0.535836 0.007594
v 0.298067 0.550101 0.0
v 0.316595 0.233214 -0.057374
v 0.269852 0.256761 -0.078862
v 0.223077 0.256565 -0.113024
v 0.169084 0.270047 -0.098113
v 0.149686 0.286766 -0.045675
v 0.115091 0.283529 -0.001723
v 0.149686 0.286766 0.044993
v 0.169084 0.270047 0.094666
v 0.225868 0.267744 0.090327
v 0.27707 0.243084 0.094666
v 0.30205 0.248722 0.044993
v 0.331062 0.229602 -0.001723
v 0.230748 0.286398 -0.005053
v 0.278557 0.284555 0.089631
v 0.296602 0.306445 0.108215
v 0.274476 0.302692 0.117995
v 0.272124 0.278729 0.122416
v 0.292797 0.267671 0.115367
v 0.307925 0.284801 0.106591
v 0.29698 0.30058 0.118521
v 0.283305 0.298261 0.124566
v 0.281851 0.283451 0.127298
v 0.294627 0.276617 0.122941
v 0.303977 0.287204 0.117517
v 0.293433 0.289664 0.125244
v 0.213041 -0.001773 -0.038792
v 0.169758 -0.001773 -0.063577
v 0.137402 -0.001773 -0.021528
v 0.125515 -0.001773 0.028294
v 0.169758 -0.001773 0.063577
v 0.213041 -0.001773 0.038792
v 0.249481 -0.001773 -0.0
v 0.223721 0.169476 -0.029909
v 0.191358 0.169476 -0.037295
v 0.165404 0.169476 -0.016598
v 0.165404 0.169476 0.016598
v 0.191358 0.169476 0.037295
v 0.223721 0.169476 0.029909
v 0.238125 0.169476 0.0
v 0.222093 0.035535 0.0
v 0.20743 0.035535 0.030448
v 0.174483 0.035535 0.037968
v 0.148061 0.035535 0.016897
v 0.148061 0.035535 -0.016897
v 0.174483 0.035535 -0.037968
v 0.20743 0.035535 -0.030448
v 0.22454 0.099343 0.0
v 0.210014 0.099343 0.030165
v 0.177372 0.099343 0.037615
v 0.151196 0.099343 0.01674
v 0.151196 0.099343 -0.01674
v 0.177372 0.099343 -0.037615
v 0.210014 0.099343 -0.030165
v 0.288695 0.15543 -0.038854
v 0.264589 0.161457 -0.070013
v 0.229754 0.170166 -0.087305
v 0.19109 0.179832 -0.087305
v 0.156255 0.188541 -0.070013
v 0.132149 0.194568 -0.038854
v 0.123546 0.196719 0.0
v 0.132149 0.194568 0.038854
v 0.156255 0.188541 0.070013
v 0.19109 0.179832 0.087305
v 0.229754 0.170166 0.087305
v 0.264589 0.161457 0.070013
v 0.288695 0.15543 0.038854
v 0.297298 0.153279 0.0
v 0.228886 0.394059 0.030025
v 0.162756 0.226633 0.026564
v 0.156874 0.228104 0.0
v 0.179237 0.222513 -0.047867
v 0.229486 0.20995 -0.059689
v 0.269783 0.199875 -0.026564
v 0.269783 0.199875 0.026564
v 0.229486 0.20995 0.059689
v 0.29818 0.118947 -0.056468
v 0.274073 0.124973 -0.087627
v 0.267062 0.114465 -0.09587
v 0.232228 0.123174 -0.113162
v 0.217942 0.116582 -0.116566
v 0.179279 0.126248 -0.116566
v 0.158925 0.127112 -0.114175
v 0.124091 0.135821 -0.096883
v 0.123746 0.156092 -0.088888
v 0.09964 0.162119 -0.057729
v 0.102412 0.158307 -0.03789
v 0.093809 0.160458 0.000965
v 0.089881 0.171183 0.006792
v 0.098484 0.169032 0.045646
v 0.099367 0.161027 0.057729
v 0.123473 0.155 0.088888
v 0.123741 0.134425 0.096883
v 0.158576 0.125716 0.114175
v 0.180033 0.129264 0.116566
v 0.218696 0.119598 0.116566
v 0.231153 0.118875 0.113162
v 0.265987 0.110166 0.09587
v 0.274326 0.125985 0.087627
v 0.298433 0.119958 0.056468
v 0.308881 0.123612 0.045086
v 0.317484 0.121461 0.006231
v 0.315824 0.11482 -0.006231
v 0.30722 0.116971 -0.045086
v 0.217355 0.147676 0.099143
v 0.192653 0.153851 0.099143
v 0.152832 0.160535 0.08101
v 0.178373 0.154149 0.098302
v 0.233423 0.142773 0.098251
v 0.255377 0.143694 0.080959
v 0.191237 0.151265 -0.100503
v 0.217526 0.144692 -0.100503
v 0.146299 0.154163 -0.08406
v 0.165016 0.149483 -0.101352
v 0.208887 0.168143 -3.6e-05
v 0.286015 0.107867 -0.049199
v 0.261908 0.113894 -0.080358
v 0.257937 0.099793 -0.084877
v 0.223103 0.108502 -0.102169
v 0.189793 0.145492 -0.088023
v 0.216083 0.138919 -0.088023
v 0.214919 0.104488 -0.104086
v 0.176255 0.114154 -0.104086
v 0.151289 0.146793 -0.073479
v 0.170006 0.142114 -0.090771
v 0.161618 0.110553 -0.103594
v 0.126783 0.119262 -0.086303
v 0.128895 0.139221 -0.081641
v 0.104789 0.145248 -0.050482
v 0.101653 0.150169 -0.043149
v 0.093049 0.15232 -0.004295
v 0.093049 0.15232 0.004295
v 0.101653 0.150169 0.043149
v 0.104789 0.145247 0.050482
v 0.128895 0.139221 0.081641
v 0.157364 0.153524 0.070038
v 0.182905 0.147138 0.08733
v 0.215912 0.141903 0.086663
v 0.19121 0.148078 0.086663
v 0.176255 0.114154 0.104086
v 0.214919 0.104488 0.104086
v 0.226211 0.137954 0.087494
v 0.248165 0.138875 0.070202
v 0.261908 0.113894 0.080358
v 0.286015 0.107867 0.049199
v 0.295408 0.111481 0.042774
v 0.304011 0.10933 0.003919
v 0.301789 0.103771 -0.003735
v 0.293186 0.105922 -0.04259
v 0.125892 0.118751 0.086288
v 0.160727 0.110042 0.10358
v 0.222644 0.108292 0.102564
v 0.257479 0.099583 0.085272
v -0.247599 0.216684 -0.077859
v -0.232167 0.223771 -0.102228
v -0.251551 0.232931 -0.102408
v -0.253343 0.244994 -0.084774
v -0.235066 0.243289 -0.073695
v -0.221978 0.230173 -0.084483
v -0.231822 0.234105 -0.101207
v -0.243802 0.239766 -0.101318
v -0.24491 0.247221 -0.09042
v -0.233614 0.246168 -0.083573
v -0.225525 0.238062 -0.09024
v -0.234832 0.243369 -0.094816
v -0.329125 0.240992 -0.036063
v -0.333366 0.218366 -0.070267
v -0.358888 0.231896 -0.063105
v -0.353813 0.261206 -0.062173
v -0.325154 0.265791 -0.06876
v -0.312518 0.239315 -0.073762
v -0.337165 0.228659 -0.079628
v -0.352938 0.237021 -0.075202
v -0.349801 0.255136 -0.074626
v -0.332089 0.25797 -0.078697
v -0.324279 0.241606 -0.081789
v -0.340212 0.24437 -0.081951
v -0.345513 0.180321 -0.000961
v -0.366575 0.15425 -0.007339
v -0.367249 0.160608 0.016444
v -0.373726 0.184329 0.017799
v -0.377055 0.192632 -0.005146
v -0.372635 0.174042 -0.020682
v -0.376964 0.159127 -0.004066
v -0.377381 0.163056 0.010632
v -0.381384 0.177717 0.011469
v -0.383442 0.182848 -0.002711
v -0.38071 0.171359 -0.012313
v -0.383234 0.169923 0.00075
v -0.311477 0.285485 0.01554
v -0.29519 0.322714 0.022511
v -0.322508 0.320595 0.034127
v -0.322619 0.29781 0.053273
v -0.295368 0.285848 0.053491
v -0.278416 0.30124 0.034479
v -0.295258 0.322821 0.036933
v -0.312142 0.321511 0.044112
v -0.31221 0.30743 0.055946
v -0.295368 0.300037 0.05608
v -0.284891 0.309549 0.04433
v -0.298887 0.314801 0.050499
v -0.305008 0.198419 0.066959
v -0.302489 0.236192 0.083291
v -0.330684 0.2267 0.082477
v -0.332255 0.20122 0.097775
v -0.305031 0.194964 0.108043
v -0.286634 0.216579 0.099091
v -0.308008 0.233643 0.09637
v -0.325433 0.227776 0.095867
v -0.326404 0.212029 0.105321
v -0.309579 0.208163 0.111667
v -0.298209 0.221521 0.106135
v -0.314332 0.222725 0.106485
v -0.194478 0.230086 -0.068118
v -0.233735 0.19877 -0.135097
v -0.305044 0.162535 -0.110217
v -0.369259 0.11597 -0.083495
v -0.373377 0.120786 0.0
v -0.369259 0.11597 0.083495
v -0.30865 0.152999 0.135097
v -0.243924 0.199876 0.110217
v -0.173126 0.235799 0.083495
v -0.149976 0.249943 0.0
v -0.251586 0.252556 -0.043509
v -0.317874 0.277202 -0.068001
v -0.322208 0.209409 -0.0704
v -0.38609 0.235524 -0.042027
v -0.376391 0.221865 0.0
v -0.355583 0.254163 0.068001
v -0.311231 0.261675 0.055478
v -0.287367 0.29584 0.042027
v -0.275714 0.30296 0.0
v -0.370646 0.344622 -0.037584
v -0.408349 0.321587 -0.023228
v -0.408349 0.321587 0.023228
v -0.370646 0.344622 0.037584
v -0.353785 0.354923 0.023228
v -0.347344 0.358858 0.0
v -0.425165 0.3716 0.0
v -0.331329 0.213137 0.086291
v -0.370041 0.189485 0.053331
v -0.365855 0.182742 0.0
v -0.370041 0.189485 -0.053331
v -0.283478 0.242372 -0.086291
v -0.229978 0.275058 0.0
v -0.244765 0.266024 0.053331
v -0.206694 0.204539 -0.048373
v -0.234572 0.1823 -0.095937
v -0.285211 0.156568 -0.07827
v -0.330813 0.123501 -0.059293
v -0.333738 0.126921 0.0
v -0.330813 0.123501 0.059293
v -0.287773 0.149797 0.095937
v -0.241808 0.183086 0.07827
v -0.191532 0.208596 0.059293
v -0.175092 0.21864 0.0
v -0.267262 0.181429 0.000756
vn 0.0789 0.5103 0.8564
vn -0.2969 0.5496 -0.7809
vn -0.4681 -0.8795 0.0863
vn 0.5852 0.361 -0.7261
vn -0.4441 0.7012 0.5578
vn 0.4087 -0.7463 0.5253
vn -0.7778 0.3073 -0.5483
vn 0.5282 0.74 0.4165
vn 0.5559 -0.7086 -0.4346
vn 0.9379 0.089 0.3354
vn -0.4359 0.8677 -0.2391
vn -0.5744 -0.6139 0.5415
vn 0.8632 -0.0987 -0.4951
vn -0.3724 0.1291 -0.9191
vn 0.2867 0.3735 -0.8822
vn -0.2354 0.2703 -0.9336
vn -0.5806 0.1563 -0.7991
vn -0.8656 0.4144 -0.2812
vn -0.8499 0.5269 -0.0
vn -0.6632 0.0882 0.7433
vn -0.8947 0.1437 0.423
vn -0.5467 0.3674 0.7524
vn -0.0 0.2851 0.9585
vn 0.8158 0.4308 0.3857
vn 0.5817 0.1436 0.8006
vn 0.6626 0.0972 0.7426
vn 0.7487 -0.0708 -0.6592
vn 0.9419 0.1382 -0.3061
vn 0.8674 -0.005 -0.4975
vn -0.363 0.2557 -0.896
vn -0.1892 0.3327 -0.9239
vn -0.2379 0.2309 -0.9434
vn -0.3628 0.3521 -0.8628
vn -0.8732 0.3962 -0.2837
vn -0.6373 0.2891 0.7143
vn -0.8513 0.3366 0.4025
vn -0.0 0.2239 0.9746
vn 0.9037 -0.0261 0.4273
vn 0.6656 0.0196 0.746
vn 0.7504 0.0221 -0.6607
vn 0.7686 0.4636 -0.4408
vn -0.3304 0.4754 -0.8154
vn -0.215 0.4765 -0.8525
vn -0.7896 0.5574 -0.2566
vn -0.6025 0.4254 0.6753
vn -0.8137 0.4358 0.3847
vn -0.0 0.5574 0.8302
vn 0.8137 0.4358 0.3847
vn 0.6025 0.4254 0.6753
vn 0.6632 0.4682 -0.5839
vn 0.6694 0.0932 -0.7371
vn 0.3086 -0.0537 -0.9497
vn -0.0 -0.0 -1.0
vn -0.5876 -0.0245 -0.8088
vn -0.6723 0.0013 -0.7403
vn -0.9979 -0.0646 -0.0
vn -0.9678 0.0019 -0.2516
vn -0.9678 0.0019 0.2516
vn -0.5878 0.0012 0.809
vn -0.3755 0.0654 0.9245
vn 0.5861 -0.0765 0.8066
vn 0.6677 -0.1163 0.7353
vn 0.957 0.1492 0.2488
vn 0.9408 0.1467 -0.3057
vn 0.9592 0.1336 -0.2493
vn 0.6705 0.0723 -0.7383
vn -0.0 0.0364 -0.9993
vn -0.3758 0.0521 -0.9252
vn -0.6723 -0.0058 -0.7403
vn -0.9675 -0.0267 -0.2515
vn -0.9675 -0.0267 0.2515
vn -0.8645 0.0146 0.5025
vn -0.3761 -0.0284 0.9261
vn 0.6705 0.0723 0.7383
vn 0.3746 0.0955 0.9223
vn 0.9643 0.0857 0.2507
vn 0.9643 0.0857 -0.2507
vn 0.8589 0.1145 -0.4992
vn 0.1818 0.53 -0.8283
vn 0.6981 0.1593 -0.6981
vn 0.6264 0.53 -0.5716
vn 0.2555 0.1593 -0.9536
vn -0.6264 0.53 -0.5716
vn -0.2555 0.1593 -0.9536
vn -0.1818 0.53 -0.8283
vn -0.6981 0.1593 -0.6981
vn -0.8082 0.53 0.2567
vn -0.9536 0.1593 -0.2555
vn -0.8082 0.53 -0.2567
vn -0.9536 0.1593 0.2555
vn -0.1818 0.53 0.8283
vn -0.6981 0.1593 0.6981
vn -0.6264 0.53 0.5716
vn -0.2555 0.1593 0.9536
vn 0.6264 0.53 0.5716
vn 0.2555 0.1593 0.9536
vn 0.1818 0.53 0.8283
vn 0.6981 0.1593 0.6981
vn 0.8082 0.53 -0.2567
vn 0.9536 0.1593 0.2555
vn 0.8082 0.53 0.2567
vn 0.9536 0.1593 -0.2555
vn 0.7055 -0.0681 -0.7055
vn 0.2582 -0.0681 -0.9637
vn -0.2582 -0.0681 -0.9637
vn -0.7055 -0.0681 -0.7055
vn -0.9637 -0.0681 -0.2582
vn -0.9637 -0.0681 0.2582
vn -0.7055 -0.0681 0.7055
vn -0.2582 -0.0681 0.9637
vn 0.2582 -0.0681 0.9637
vn 0.7055 -0.0681 0.7055
vn 0.9637 -0.0681 0.2582
vn 0.9637 -0.0681 -0.2582
vn 0.4939 0.7156 -0.4939
vn 0.1808 0.7156 -0.6747
vn 0.2855 0.821 -0.4945
vn -0.1808 0.7156 -0.6747
vn -0.4939 0.7156 -0.4939
vn -0.2855 0.821 -0.4945
vn -0.6747 0.7156 -0.1808
vn -0.6747 0.7156 0.1808
vn -0.571 0.821 -0.0
vn -0.4939 0.7156 0.4939
vn -0.1808 0.7156 0.6747
vn 0.1808 0.7156 0.6747
vn -0.0 0.821 0.571
vn 0.4939 0.7156 0.4939
vn 0.4945 0.821 0.2855
vn 0.6747 0.7156 0.1808
vn 0.6747 0.7156 -0.1808
vn 0.697 0.1683 -0.697
vn 0.5 0.0071 -0.866
vn 0.2551 0.1683 -0.9521
vn -0.2551 0.1683 -0.9521
vn -0.5 0.0071 -0.866
vn -0.697 0.1683 -0.697
vn -0.9521 0.1683 -0.2551
vn -1.0 0.0071 -0.0
vn -0.9521 0.1683 0.2551
vn -0.697 0.1683 0.697
vn -0.2551 0.1683 0.9521
vn -0.0 0.0071 1.0
vn 0.2551 0.1683 0.9521
vn 0.866 0.0071 0.5
vn 0.697 0.1683 0.697
vn 0.9521 0.1683 0.2551
vn 0.9521 0.1683 -0.2551
vn 0.4639 0.7547 -0.4639
vn 0.1899 0.6795 -0.7086
vn -0.2153 0.5551 -0.8034
vn -0.3623 0.6892 -0.6275
vn -0.6464 0.4053 -0.6464
vn -0.9216 0.2995 -0.2469
vn -0.9216 0.2995 0.2469
vn -0.6464 0.4053 0.6464
vn -0.2153 0.5551 0.8034
vn -0.3623 0.6892 0.6275
vn 0.1899 0.6795 0.7086
vn 0.4639 0.7547 0.4639
vn 0.5947 0.788 0.1594
vn 0.5068 0.8621 -0.0
vn 0.5947 0.788 -0.1594
vn 0.7882 0.5098 -0.3448
vn 0.4998 0.0306 -0.8656
vn -0.1013 0.1001 -0.9898
vn -0.496 0.1264 -0.8591
vn -0.9504 0.1787 -0.2547
vn -0.952 0.306 -0.0
vn -0.9504 0.1787 0.2547
vn -0.496 0.1264 0.8591
vn -0.1013 0.1001 0.9898
vn 0.7882 0.5098 0.3448
vn 0.4998 0.0306 0.8656
vn 0.9998 -0.0178 -0.0
vn 0.3715 0.6694 -0.6434
vn -0.4258 0.5241 -0.7376
vn -0.9042 0.4272 -0.0
vn -0.4258 0.5241 0.7376
vn 0.3715 0.6694 0.6434
vn 0.6918 0.7221 -0.0
vn 0.4605 0.3898 -0.7975
vn -0.4363 0.4883 -0.7557
vn -0.8469 0.5317 -0.0
vn -0.4363 0.4883 0.7557
vn 0.4605 0.3898 0.7975
vn 0.9424 0.3346 -0.0
vn 0.1459 0.7328 -0.6647
vn 0.5027 0.7328 -0.4587
vn -0.5027 0.7328 -0.4587
vn -0.1459 0.7328 -0.6647
vn -0.6485 0.7328 0.206
vn -0.6485 0.7328 -0.206
vn -0.1459 0.7328 0.6647
vn -0.5027 0.7328 0.4587
vn 0.5027 0.7328 0.4587
vn 0.1459 0.7328 0.6647
vn 0.6485 0.7328 -0.206
vn 0.6485 0.7328 0.206
vn 0.1163 -0.84 -0.53
vn 0.4009 -0.84 -0.3658
vn -0.4009 -0.84 -0.3658
vn -0.1163 -0.84 -0.53
vn -0.5172 -0.84 0.1643
vn -0.5172 -0.84 -0.1643
vn -0.1163 -0.84 0.53
vn -0.4009 -0.84 0.3658
vn 0.4009 -0.84 0.3658
vn 0.1163 -0.84 0.53
vn 0.5172 -0.84 -0.1643
vn 0.5172 -0.84 0.1643
vn -0.0889 -0.91 0.4049
vn -0.2937 -0.9176 0.268
vn 0.3316 -0.8936 0.3025
vn 0.092 -0.9031 0.4194
vn 0.4358 -0.8893 -0.1384
vn 0.4358 -0.8893 0.1384
vn 0.092 -0.9031 -0.4194
vn 0.3316 -0.8936 -0.3025
vn -0.2937 -0.9176 -0.268
vn -0.0889 -0.91 -0.4049
vn -0.3727 -0.9204 0.1184
vn -0.3727 -0.9204 -0.1184
vn 0.631 0.4513 -0.631
vn 0.231 0.4513 -0.862
vn 0.4207 0.5405 -0.7286
vn -0.231 0.4513 -0.862
vn -0.631 0.4513 -0.631
vn -0.4207 0.5405 -0.7286
vn -0.862 0.4513 -0.231
vn -0.862 0.4513 0.231
vn -0.631 0.4513 0.631
vn -0.7286 0.5405 0.4207
vn -0.231 0.4513 0.862
vn 0.231 0.4513 0.862
vn 0.5697 0.5923 0.5697
vn 0.862 0.4513 0.231
vn 0.862 0.4513 -0.231
vn 0.4988 0.0678 -0.864
vn -0.4988 0.0678 -0.864
vn -0.9632 0.0756 -0.2581
vn -0.864 0.0678 0.4988
vn -0.2581 0.0756 0.9632
vn 0.706 0.0554 0.706
vn 0.9632 0.0756 -0.2581
vn 0.6371 0.4339 -0.6371
vn 0.2332 0.4339 -0.8703
vn -0.2332 0.4339 -0.8703
vn -0.6516 0.3884 -0.6516
vn -0.6501 0.389 -0.6527
vn -0.8901 0.3884 -0.2385
vn -0.8903 0.389 -0.2367
vn -0.8703 0.4339 0.2332
vn -0.6371 0.4339 0.6371
vn -0.2332 0.4339 0.8703
vn 0.2332 0.4339 0.8703
vn 0.2332 0.4338 0.8703
vn 0.6371 0.4338 0.6371
vn 0.8703 0.4339 0.2332
vn 0.8703 0.4339 -0.2332
vn 0.7236 -0.0317 0.6895
vn 0.6708 -0.0726 0.7381
vn -0.7316 -0.151 -0.6648
vn -0.898 -0.1628 -0.4088
vn 0.4284 -0.7956 -0.4284
vn 0.9714 -0.0317 0.2353
vn 0.95 -0.0726 0.3038
vn -0.966 -0.151 -0.21
vn -0.9832 -0.1626 0.0828
vn 0.1568 -0.7956 -0.5852
vn 0.9589 -0.0317 -0.2819
vn 0.9746 -0.0726 -0.2119
vn -0.9403 -0.1526 0.3043
vn -0.8243 -0.1635 0.542
vn -0.1568 -0.7956 -0.5852
vn 0.596 -0.1906 -0.78
vn 0.6442 -0.2252 -0.7309
vn -0.5044 -0.8128 -0.2912
vn -0.3053 -0.2909 0.9067
vn 0.0118 -0.2887 0.9573
vn -0.2819 -0.0317 -0.9589
vn -0.2084 -0.0746 -0.9752
vn 0.3011 -0.151 0.9416
vn 0.4645 -0.1597 0.8711
vn -0.5852 -0.7956 0.1568
vn -0.7236 -0.0317 -0.6895
vn -0.6708 -0.0726 -0.7381
vn 0.7316 -0.151 0.6648
vn 0.8322 -0.1593 0.531
vn -0.4284 -0.7956 0.4284
vn -0.9714 -0.0317 -0.2353
vn -0.95 -0.0726 -0.3038
vn 0.966 -0.151 0.21
vn 0.9865 -0.1596 0.0357
vn -0.1568 -0.7956 0.5852
vn -0.9589 -0.0317 0.2819
vn -0.9746 -0.0726 0.2119
vn 0.9416 -0.151 -0.3011
vn 0.8596 -0.1605 -0.4852
vn 0.1568 -0.7956 0.5852
vn -0.6895 -0.0317 0.7236
vn -0.7381 -0.0726 0.6708
vn 0.6648 -0.151 -0.7316
vn 0.4692 -0.1615 -0.8682
vn 0.4284 -0.7956 0.4284
vn -0.2353 -0.0317 0.9714
vn -0.3038 -0.0726 0.95
vn 0.21 -0.151 -0.966
vn -0.0644 -0.1623 -0.9846
vn 0.5852 -0.7956 0.1568
vn 0.2819 -0.0317 0.9589
vn 0.2119 -0.0726 0.9746
vn -0.3011 -0.151 -0.9416
vn -0.5683 -0.1627 -0.8066
vn 0.5852 -0.7956 -0.1568
vn -0.6988 -0.6904 0.1872
vn -0.6988 -0.6904 -0.1872
vn -0.5115 -0.6904 -0.5115
vn -0.1872 -0.6904 -0.6988
vn 0.1872 -0.6904 -0.6988
vn 0.5115 -0.6904 -0.5115
vn 0.6988 -0.6903 -0.1873
vn 0.6987 -0.6904 -0.1876
vn 0.1872 -0.6904 0.6988
vn 0.1869 -0.6903 0.6989
vn -0.1872 -0.6904 0.6988
vn -0.5115 -0.6904 0.5115
vn 0.636 -0.6788 0.3672
vn 0.477 0.7383 -0.477
vn 0.1746 0.7383 -0.6515
vn -0.1746 0.7383 -0.6515
vn -0.4959 0.7115 -0.4979
vn -0.6352 0.6797 -0.3667
vn -0.6791 0.7115 -0.1805
vn -0.6515 0.7383 0.1746
vn -0.477 0.7383 0.477
vn -0.1746 0.7383 0.6515
vn 0.1746 0.7383 0.6515
vn 0.477 0.7383 0.477
vn 0.6515 0.7383 0.1746
vn 0.6515 0.7383 -0.1746
vn 0.6648 -0.151 0.7316
vn 0.5242 -0.1596 0.8365
vn -0.7381 -0.0726 -0.6708
vn -0.6895 -0.0317 -0.7236
vn 0.9416 -0.151 0.3011
vn 0.876 -0.1593 0.4552
vn -0.9746 -0.0726 -0.2119
vn -0.9589 -0.0317 -0.2819
vn 0.966 -0.151 -0.21
vn 0.9866 -0.1597 -0.0333
vn -0.9488 -0.0746 0.3071
vn -0.9714 -0.0317 0.2353
vn 0.6326 -0.2909 -0.7178
vn 0.835 -0.2887 -0.4684
vn -0.3109 -0.2252 0.9234
vn -0.3775 -0.1906 0.9062
vn -0.2066 -0.1526 -0.9665
vn 0.0572 -0.1635 -0.9849
vn 0.3038 -0.0726 0.95
vn 0.2353 -0.0317 0.9714
vn -0.6648 -0.151 -0.7316
vn -0.4199 -0.1626 -0.8929
vn 0.7381 -0.0726 0.6708
vn 0.6895 -0.0317 0.7236
vn -0.9416 -0.151 -0.3011
vn -0.803 -0.1628 -0.5733
vn 0.9746 -0.0726 0.2119
vn 0.9589 -0.0317 0.2819
vn -0.966 -0.151 0.21
vn -0.9827 -0.1627 -0.0889
vn 0.95 -0.0726 -0.3038
vn 0.9714 -0.0317 -0.2353
vn -0.7316 -0.151 0.6648
vn -0.8849 -0.1623 0.4365
vn 0.6708 -0.0726 -0.7381
vn 0.7236 -0.0317 -0.6895
vn -0.3011 -0.151 0.9416
vn -0.5173 -0.1615 0.8404
vn 0.2119 -0.0726 -0.9746
vn 0.2819 -0.0317 -0.9589
vn 0.21 -0.151 0.966
vn 0.0096 -0.1605 0.987
vn -0.3038 -0.0726 -0.95
vn -0.2353 -0.0317 -0.9714
vn -0.6721 -0.7182 0.1801
vn -0.6787 -0.7116 -0.1818
vn -0.4968 -0.7116 -0.4968
vn -0.1801 -0.7182 -0.6721
vn 0.1771 -0.7292 -0.661
vn 0.4747 -0.7412 -0.4747
vn 0.6377 -0.7511 -0.1712
vn 0.1706 -0.7511 0.6378
vn -0.1737 -0.7412 0.6484
vn -0.4839 -0.7292 0.4839
vn 0.5884 -0.7337 0.3397
vn 0.3876 0.089 -0.9175
vn -0.2632 0.8677 0.4217
vn 0.5083 -0.6139 0.6039
vn 0.5811 0.361 0.7294
vn -0.4476 0.7012 -0.555
vn -0.6018 -0.7463 0.2843
vn -0.2821 0.089 0.9552
vn 0.2142 0.8677 -0.4486
vn -0.5729 -0.6139 -0.543
vn -0.9696 0.089 -0.2279
vn 0.46 0.8677 0.1887
vn 0.51 -0.6139 -0.6025
vn -0.8747 0.4841 -0.0246
vn 0.7945 0.575 -0.1952
vn -0.0013 -0.8773 -0.48
vn -0.1175 0.4841 -0.8671
vn 0.3214 0.575 0.7524
vn 0.4734 -0.8773 -0.0791
vn -0.8385 0.361 0.4081
vn 0.6392 0.7012 -0.3158
vn -0.1463 -0.7463 -0.6493
vn 0.777 0.4841 -0.4024
vn -0.6004 0.575 0.5558
vn 0.2338 -0.8773 0.4192
vn 0.6627 0.0017 0.7489
vn 0.3117 -0.8616 0.4006
vn -0.651 -0.7367 0.1829
vn -0.8951 0.2039 0.3966
vn -0.0831 0.6602 0.7464
vn 0.9021 0.3037 -0.3065
vn 0.5674 -0.5198 -0.6387
vn -0.3509 -0.4007 -0.8463
vn -0.5837 0.4965 -0.6425
vn 0.1907 0.9318 -0.3088
vn 0.5221 0.3155 -0.7923
vn 0.3947 0.0021 -0.9188
vn 0.0452 0.0474 -0.9979
vn -0.0434 0.3889 -0.9203
vn 0.2514 0.5546 -0.7932
vn -0.0 0.3439 -0.939
vn -0.799 0.3858 -0.4613
vn -0.799 0.3858 0.4613
vn -0.0 0.3439 0.939
vn 0.8262 0.2999 0.477
vn 0.8262 0.2999 -0.477
vn 0.1278 -0.2556 0.9583
vn 0.025 -0.9634 0.2667
vn -0.6482 -0.6506 -0.3957
vn -0.9614 0.2506 -0.1136
vn -0.4819 0.4947 0.7232
vn 0.9213 0.2198 0.3207
vn 0.8233 -0.4553 -0.339
vn 0.1812 -0.1569 -0.9708
vn -0.1176 0.7027 -0.7017
vn 0.3398 0.9355 0.0965
vn 0.8799 0.3906 -0.2707
vn 0.8425 0.1336 -0.5218
vn 0.5981 0.2472 -0.7623
vn 0.4844 0.5744 -0.6599
vn 0.6585 0.663 -0.3561
vn 0.8725 0.0438 0.4866
vn 0.6041 -0.7965 0.0266
vn -0.3762 -0.9144 0.1492
vn -0.7136 -0.147 0.685
vn 0.0582 0.4452 0.8935
vn 0.6488 0.6063 -0.4599
vn 0.3927 -0.1953 -0.8987
vn -0.5423 -0.3078 -0.7818
vn -0.8641 0.4242 -0.2707
vn -0.128 0.9892 -0.0718
vn 0.1255 0.6044 -0.7867
vn 0.028 0.2993 -0.9537
vn -0.3279 0.2565 -0.9092
vn -0.4504 0.5351 -0.7147
vn -0.1702 0.7502 -0.639
vn 0.0681 -0.9314 0.3575
vn 0.0093 -0.8912 0.4535
vn 0.2172 -0.8721 0.4384
vn 0.5009 -0.8443 0.1905
vn 0.5018 -0.8437 -0.1907
vn 0.2189 -0.8711 -0.4397
vn 0.0093 -0.8903 -0.4554
vn 0.0666 -0.9311 -0.3587
vn 0.407 -0.7673 -0.4956
vn 0.4097 -0.7667 0.4943
vn 0.5233 0.4809 -0.7035
vn -0.0042 0.4012 -0.916
vn -0.6757 0.2219 -0.703
vn -0.9488 0.1215 -0.2916
vn -0.9464 0.1386 0.2917
vn -0.6629 0.2621 0.7014
vn -0.0046 0.4428 0.8966
vn 0.5025 0.5106 0.6977
vn 0.5612 0.5229 0.6416
vn 0.6027 0.5004 -0.6216
vn 0.1091 0.8639 -0.4916
vn -0.0073 0.6937 -0.7202
vn -0.4733 0.628 -0.6177
vn -0.7771 0.5727 -0.261
vn -0.7771 0.5727 0.261
vn -0.4733 0.628 0.6177
vn -0.0073 0.6937 0.7202
vn 0.1091 0.8639 0.4916
vn -0.18 0.6709 0.7194
vn -0.3077 0.7835 0.5399
vn -0.18 0.6709 -0.7194
vn -0.3077 0.7835 -0.5399
vn 0.7571 -0.0228 0.6529
vn 0.8292 0.1058 0.5489
vn 0.6931 -0.6229 -0.3628
vn -0.596 -0.3572 -0.7192
vn -0.6632 -0.7402 -0.1108
vn 0.9722 -0.1473 0.1823
vn 0.999 -0.0273 -0.0364
vn 0.0075 -0.7202 -0.6937
vn -0.9768 -0.1591 -0.1434
vn -0.9095 -0.3484 0.2267
vn 0.9351 -0.2778 -0.22
vn 0.7457 -0.0877 -0.6605
vn -0.5629 -0.755 -0.3362
vn -0.8528 -0.1511 0.4998
vn -0.7095 -0.2467 0.6601
vn 0.6635 -0.2989 -0.6859
vn 0.2264 -0.1326 -0.965
vn -0.5595 -0.8185 -0.1303
vn -0.4264 -0.1741 0.8876
vn -0.0464 -0.3045 0.9514
vn -0.0381 -0.3068 -0.951
vn -0.4264 -0.1741 -0.8876
vn -0.5595 -0.8185 0.1303
vn 0.2264 -0.1326 0.965
vn 0.6597 -0.2976 0.6901
vn -0.7055 -0.2489 -0.6635
vn -0.8528 -0.1511 -0.4998
vn -0.5629 -0.755 0.3362
vn 0.7457 -0.0877 0.6605
vn 0.9349 -0.2773 0.2215
vn -0.9089 -0.3491 -0.2282
vn -0.9768 -0.1591 0.1434
vn 0.0075 -0.7202 0.6937
vn 0.999 -0.0273 0.0364
vn 0.9718 -0.1479 -0.1836
vn -0.6633 -0.74 0.1116
vn -0.596 -0.3572 0.7192
vn 0.6931 -0.6229 0.3628
vn 0.8292 0.1058 -0.5489
vn 0.7539 -0.0277 -0.6564
vn -0.0715 -0.9498 0.3046
vn -0.051 -0.677 0.7343
vn 0.9212 -0.3882 -0.0264
vn 0.6926 0.31 -0.6513
vn 0.3278 -0.2433 -0.9129
vn 0.3321 -0.2386 0.9126
vn 0.6926 0.31 0.6513
vn 0.9212 -0.3882 0.0264
vn -0.051 -0.677 -0.7343
vn -0.0716 -0.9508 -0.3014
vn 0.3179 0.1821 -0.9305
vn -0.4729 -0.4035 -0.7833
vn -0.3018 -0.953 0.0283
vn 0.5948 -0.707 0.3827
vn 0.9777 -0.0055 -0.2099
vn -0.1569 0.9517 -0.2638
vn -0.9111 0.3932 -0.1233
vn -0.7479 -0.1309 0.6508
vn 0.1073 0.1037 0.9888
vn 0.4726 0.7728 0.4236
vn -0.3642 0.8773 0.3125
vn -0.6513 0.6647 0.366
vn -0.5892 0.4652 0.6606
vn -0.2637 0.5545 0.7893
vn -0.1246 0.8092 0.5741
vn 0.7471 0.1976 -0.6346
vn 0.3355 -0.7081 -0.6214
vn 0.1275 -0.9374 0.3242
vn 0.4105 -0.1734 0.8952
vn 0.7934 0.5281 0.3027
vn -0.2828 0.6393 -0.7151
vn -0.6754 -0.2246 -0.7024
vn -0.8739 -0.4433 0.1995
vn -0.6039 0.2854 0.7442
vn -0.2386 0.9545 0.179
vn -0.7666 0.5417 -0.3448
vn -0.916 0.2129 -0.34
vn -0.9916 0.1296 0.0033
vn -0.8888 0.407 0.2107
vn -0.7498 0.6617 -0.0045
vn -0.3136 0.5378 -0.7826
vn -0.8955 -0.1772 -0.4083
vn -0.3136 -0.9389 -0.1416
vn 0.6278 -0.6947 -0.3511
vn 0.6278 0.2179 -0.7472
vn -0.189 0.948 0.2559
vn -0.744 0.2661 0.6129
vn -0.189 -0.4605 0.8673
vn 0.709 -0.2275 0.6675
vn 0.709 0.643 0.2896
vn 0.001 0.6489 0.7609
vn -0.2103 0.3893 0.8968
vn 0.001 0.1127 0.9936
vn 0.3428 0.2014 0.9176
vn 0.3428 0.5328 0.7737
vn -0.589 0.7672 -0.254
vn -0.7807 0.2488 0.5733
vn -0.589 -0.7095 0.387
vn -0.2788 -0.7834 -0.5555
vn -0.2788 0.1292 -0.9516
vn 0.4758 0.8751 0.0879
vn 0.4758 0.8751 0.088
vn 0.2929 0.3807 0.8771
vn 0.4758 -0.5334 0.6994
vn 0.7717 -0.6039 -0.1996
vn 0.7717 0.2666 -0.5775
vn 0.8679 0.428 0.2521
vn 0.7983 0.2398 0.5524
vn 0.8679 -0.1081 0.4848
vn 0.9805 -0.135 0.1426
vn 0.9805 0.1964 -0.0012
vn 0.4536 0.0916 -0.8865
vn 0.5886 0.0581 -0.8063
vn -0.1881 0.286 -0.9396
vn -0.8064 0.4078 -0.4283
vn -0.7093 -0.3738 -0.5976
vn -0.7373 0.3901 -0.5516
vn -0.9277 -0.3004 -0.2217
vn -0.7505 0.3971 0.5283
vn -0.9345 -0.276 0.225
vn -0.7955 0.4081 0.448
vn -0.7189 -0.3093 0.6225
vn 0.0825 0.1906 0.9782
vn -0.3347 -0.393 0.8565
vn 0.0168 0.207 0.9782
vn 0.1106 -0.5042 0.8565
vn 0.8939 -0.0138 0.448
vn 0.4891 -0.6109 0.6225
vn 0.8491 -0.0023 0.5283
vn 0.695 -0.6828 0.225
vn 0.9678 -0.0026 -0.2518
vn 0.4219 0.2275 -0.8777
vn 0.6102 0.6648 -0.431
vn 0.6976 0.3425 -0.6293
vn -0.0513 0.6414 -0.7655
vn -0.1538 0.792 -0.5908
vn -0.396 0.7275 -0.5604
vn -0.595 0.7771 -0.2051
vn -0.595 0.7771 0.2051
vn -0.396 0.7275 0.5604
vn 0.039 0.8074 0.5887
vn 0.3467 0.542 0.7655
vn 0.6914 0.4559 0.5604
vn 0.8904 0.4062 0.2051
vn 0.8904 0.4062 -0.2051
vn 0.7156 -0.0163 -0.6983
vn 0.8106 0.1609 -0.5631
vn 0.3328 0.3767 -0.8645
vn -0.4402 0.2744 -0.8549
vn -0.1416 0.4229 -0.895
vn -0.5773 0.4633 -0.6724
vn -0.8374 0.4864 -0.2493
vn -0.7888 0.6147 -0.0
vn -0.8374 0.4864 0.2493
vn -0.6526 0.5889 0.4767
vn -0.5773 0.4633 0.6724
vn 0.1719 0.4289 0.8868
vn -0.2543 0.0498 0.9658
vn 0.3328 0.3767 0.8645
vn 0.7151 0.3376 0.612
vn 0.9231 0.3157 0.2195
vn 0.9417 0.3221 -0.0974
vn 0.7211 0.2897 -0.6294
vn 0.3339 0.3864 -0.8598
vn -0.1131 0.498 -0.8598
vn -0.5002 0.5947 -0.6294
vn -0.8815 0.4722 -0.0
vn -0.7237 0.6505 -0.2304
vn -0.7237 0.6505 0.2304
vn -0.5002 0.5947 0.6294
vn -0.1131 0.498 0.8598
vn 0.3339 0.3864 0.8598
vn 0.7211 0.2897 0.6294
vn 0.9446 0.2339 0.2304
vn 0.9446 0.2339 -0.2304
vn 0.7251 0.0816 -0.6838
vn 0.5385 0.2143 -0.8149
vn 0.3046 0.1867 -0.934
vn 0.0041 0.3246 -0.9458
vn -0.1811 0.3079 -0.934
vn -0.682 0.496 -0.5375
vn -0.8445 0.4736 -0.2503
vn -0.7087 0.5257 -0.4705
vn -0.8445 0.4736 0.2503
vn -0.682 0.496 0.5375
vn -0.7087 0.5257 0.4705
vn 0.0041 0.3246 0.9458
vn 0.082 0.3283 0.941
vn 0.3046 0.1867 0.934
vn 0.5981 0.1763 0.7818
vn 0.7251 0.0816 0.6837
vn 0.9942 0.0774 0.0746
vn 0.9679 0.021 0.2503
vn 0.9679 0.021 -0.2503
vn 0.518 0.0382 -0.8545
vn 0.8721 -0.0061 -0.4893
vn -0.1193 0.4822 -0.8679
vn -0.637 0.6296 -0.4449
vn -0.7795 0.5785 -0.2402
vn -0.637 0.6296 0.4449
vn 0.0733 0.2934 0.9532
vn -0.1872 0.2886 0.9389
vn 0.5336 0.1562 0.8312
vn 0.7196 0.0165 0.6942
vn 0.9612 -0.1017 0.2565
vn 0.9612 -0.1017 -0.2565
vn 0.7338 0.5951 -0.3278
vn -0.0169 0.7104 -0.7036
vn -0.3844 0.9094 -0.159
vn -0.3679 0.8702 0.3278
vn 0.0369 0.8041 0.5933
vn 0.501 0.6532 0.5677
vn 0.7668 0.6219 0.159
vn -0.0493 -0.7249 -0.6871
vn 0.3282 -0.8335 -0.4446
vn -0.3391 -0.7856 -0.5176
vn -0.8178 -0.5621 -0.1233
vn -0.6114 -0.5922 -0.5248
vn -0.5872 -0.6517 0.48
vn -0.8072 -0.5777 0.1208
vn 0.0122 -0.8081 0.5889
vn -0.3904 -0.7068 0.5899
vn 0.4377 -0.8912 0.1189
vn 0.2097 -0.8524 0.4791
vn 0.2097 -0.8523 0.4791
vn 0.2746 -0.9523 -0.1332
vn -0.4821 -0.871 0.0943
vn -0.1962 -0.9415 0.2741
vn -0.1613 -0.9483 0.2735
vn -0.1327 -0.9575 0.2562
vn 0.0232 -0.9982 -0.0553
vn 0.0262 -0.9984 0.0498
vn -0.163 -0.9526 -0.257
vn -0.0546 -0.9794 -0.1943
vn -0.4121 -0.89 -0.1951
vn -0.3042 -0.9172 -0.2571
vn -0.4933 -0.8685 0.0491
vn -0.4932 -0.8669 0.0719
vn -0.3666 0.759 -0.5381
vn -0.9814 0.0629 -0.1814
vn -0.5212 -0.8168 -0.2474
vn 0.378 -0.6643 -0.6449
vn 0.4736 0.3096 -0.8245
vn 0.07 0.8681 0.4914
vn -0.5165 0.2041 0.8316
vn -0.0775 -0.6349 0.7687
vn 0.7802 -0.4895 0.3895
vn 0.8714 0.4395 0.2182
vn 0.3044 0.4258 0.8521
vn 0.0812 0.1731 0.9816
vn 0.2482 -0.1463 0.9576
vn 0.5747 -0.0909 0.8133
vn 0.6094 0.2627 0.7481
vn 0.4386 0.4702 -0.7659
vn 0.2158 0.2439 -0.9455
vn -0.7034 0.4606 -0.5413
vn -0.6011 0.2653 -0.7538
vn -0.8641 0.4592 -0.2062
vn -0.9615 0.2747 -0.0
vn -0.5309 0.5242 0.6658
vn 0.4386 0.4702 0.7659
vn 0.2158 0.2439 0.9455
vn 0.6427 0.4718 0.6037
vn 0.8776 0.2265 0.4226
vn 0.6427 0.4718 -0.6037
vn 0.8776 0.2265 -0.4226
vn 0.9004 -0.0345 0.4336
vn 0.2225 -0.0047 0.9749
vn -0.6232 0.0325 0.7814
vn -0.9988 0.0491 -0.0
vn -0.6232 0.0325 -0.7814
vn 0.2225 -0.0047 -0.9749
vn 0.9004 -0.0345 -0.4336
vn 0.8876 -0.1719 0.4274
vn 0.2223 -0.0399 0.9742
vn -0.6185 0.1269 0.7755
vn -0.9801 0.1986 -0.0
vn -0.6185 0.1269 -0.7755
vn 0.2223 -0.0399 -0.9742
vn 0.8876 -0.1719 -0.4274
vn -0.5044 -0.8325 0.2293
vn -0.4098 -0.8114 0.4168
vn -0.1044 -0.4176 0.9026
vn 0.2421 -0.5784 0.779
vn 0.5496 -0.4357 0.7128
vn 0.0884 -0.963 0.2547
vn 0.1318 -0.9877 0.0839
vn 0.1318 -0.9877 -0.0839
vn 0.0883 -0.963 -0.2546
vn -0.0701 -0.965 -0.2528
vn -0.1044 -0.4176 -0.9026
vn -0.1867 -0.9395 -0.2871
vn -0.5043 -0.8325 -0.2292
vn -0.5226 -0.8498 -0.0687
vn -0.5656 -0.8208 0.0798
vn -0.2339 -0.9357 -0.2642
vn 0.3699 -0.5494 -0.7492
vn 0.2406 -0.5811 -0.7774
vn -0.5539 -0.4094 -0.725
vn -0.4852 -0.349 -0.8017
vn -0.2322 -0.9286 0.2894
vn 0.0104 -0.9623 0.2716
vn 0.7455 0.4525 -0.4893
vn 0.6055 0.5589 -0.5666
vn 0.482 0.5018 -0.7182
vn 0.1413 0.5652 -0.8128
vn -0.0034 0.6782 -0.7349
vn -0.2129 0.6306 -0.7464
vn -0.5066 0.6845 -0.5243
vn -0.5273 0.7798 -0.3375
vn -0.6732 0.7149 -0.1887
vn -0.6732 0.7149 0.1887
vn -0.5066 0.6845 0.5243
vn -0.1302 0.7551 0.6425
vn 0.1413 0.5652 0.8128
vn 0.482 0.5018 0.7182
vn 0.6055 0.5589 0.5666
vn 0.7455 0.4525 0.4893
vn 0.8881 0.4258 0.1731
vn 0.8611 0.5085 -0.0
vn 0.8881 0.4258 -0.1731
vn -0.9087 0.3543 0.2208
vn -0.8005 0.424 -0.4235
vn -0.1016 0.4355 -0.8944
vn 0.6468 0.3358 -0.6847
vn 0.9785 0.2061 -0.0
vn 0.6484 0.1232 0.7513
vn -0.411 0.1437 0.9003
vn 0.7509 0.4351 -0.4968
vn 0.4851 0.441 -0.7551
vn 0.1234 0.4937 -0.8608
vn -0.5007 0.529 -0.6851
vn -0.1721 0.6959 -0.6972
vn -0.4534 0.7417 -0.4942
vn -0.7599 0.6178 -0.2025
vn -0.5732 0.8013 0.1713
vn -0.4622 0.7328 0.4994
vn -0.3335 0.3796 0.863
vn -0.3869 0.5182 0.7628
vn 0.1318 0.5272 0.8395
vn 0.4811 0.2654 0.8355
vn 0.5651 0.3703 0.7372
vn 0.7467 0.4488 0.4909
vn 0.821 0.5505 0.1513
vn 0.8769 0.4498 -0.1693
vn 0.1044 0.4176 0.9026
vn -0.3254 0.6235 0.7109
vn -0.1956 0.6593 0.726
vn 0.5307 0.4789 0.6993
vn 0.4854 0.4291 0.7617
vn 0.1044 0.4176 -0.9026
vn -0.2451 0.5727 -0.7823
vn -0.5439 0.4476 -0.7098
vn 0.399 -0.2163 0.8911
vn 0.6297 -0.1988 0.7509
vn 0.4204 -0.7732 -0.4748
vn -0.6297 0.1988 -0.7509
vn -0.7615 0.1785 -0.6232
vn 0.7505 -0.2303 0.6194
vn 0.8692 -0.2025 0.4512
vn 0.1936 -0.6625 -0.7236
vn -0.8691 0.2025 -0.4512
vn -0.9612 0.1582 -0.2262
vn 0.9945 -0.0403 0.0964
vn 0.9848 -0.0996 0.1421
vn -0.1716 -0.6864 -0.7067
vn -0.9317 0.3462 0.1098
vn -0.9175 0.3907 0.0746
vn 0.9041 -0.0012 -0.4273
vn 0.9214 -0.0915 -0.3776
vn -0.48 -0.5265 -0.7018
vn -0.6889 0.3074 0.6565
vn -0.6847 0.4057 0.6055
vn 0.7341 -0.2592 -0.6277
vn 0.6049 -0.1512 -0.7818
vn -0.7491 -0.441 -0.4943
vn -0.6049 0.1512 0.7818
vn -0.4418 0.0338 0.8965
vn 0.246 0.5099 -0.8243
vn 0.3439 -0.3056 -0.8879
vn -0.9469 0.2322 -0.2225
vn 0.0437 -0.5452 0.8372
vn 0.0073 0.0206 0.9998
vn -0.0266 -0.0781 -0.9966
vn -0.2579 0.0841 -0.9625
vn -0.961 -0.1882 0.2024
vn 0.2579 -0.0841 0.9625
vn 0.3935 -0.1831 0.9009
vn -0.4424 0.0341 -0.8962
vn -0.6049 0.1512 -0.7818
vn -0.7384 -0.474 0.4796
vn 0.6049 -0.1512 0.7818
vn 0.7343 -0.2595 0.6273
vn -0.9304 -0.0297 -0.3653
vn -0.8028 -0.0258 -0.5957
vn 0.848 -0.2119 0.4857
vn 0.9454 -0.2365 0.2243
vn -0.9093 0.4076 -0.0834
vn -0.9303 0.342 -0.1325
vn -0.1517 -0.6066 0.7804
vn 0.9799 -0.105 -0.1695
vn 0.9942 -0.0185 -0.1064
vn -0.8461 0.0961 0.5242
vn -0.9675 0.1077 0.2287
vn 0.7783 -0.5682 -0.2672
vn 0.6611 -0.4856 -0.572
vn -0.7618 0.1784 0.6228
vn -0.6319 0.1986 0.7492
vn 0.4445 -0.7505 0.489
vn 0.6319 -0.1986 -0.7492
vn 0.3996 -0.2163 -0.8908
vn -0.4363 0.0136 0.8997
vn -0.2159 0.054 0.9749
vn 0.6403 -0.746 0.1831
vn 0.2159 -0.054 -0.9749
vn -0.0149 -0.0911 -0.9957
vn -0.0133 -0.0764 0.997
vn 0.2159 -0.054 0.9749
vn 0.5898 -0.7885 -0.1742
vn -0.2159 0.054 -0.9749
vn -0.4335 0.0286 -0.9007
vn -0.993 -0.0061 0.1177
vn -0.9799 0.0003 -0.1997
vn 0.8927 -0.4395 0.1001
vn 0.8816 -0.4272 -0.2007
vn -0.6997 0.4349 -0.5669
vn -0.6966 0.3337 -0.6351
vn -0.4791 -0.5357 0.6953
vn 0.8083 -0.2496 0.5333
vn 0.8117 -0.2786 0.5133
vn -0.8446 0.3388 0.4145
vn -0.8678 0.3041 0.3931
vn 0.1322 -0.7524 0.6453
vn 0.7987 -0.0409 -0.6004
vn 0.8279 0.0126 -0.5607
vn 0.895 -0.3963 0.2048
vn 0.914 -0.3981 -0.0784
vn -0.9945 0.0396 -0.0967
vn -0.9784 0.0327 0.2039
vn 0.8573 -0.4575 -0.2361
vn 0.7275 -0.3525 -0.5887
vn -0.8837 0.0667 0.4632
vn -0.7923 0.0437 0.6086
vn -0.3737 -0.8001 -0.4693
vn -0.981 -0.1914 0.0313
vn -0.5082 0.1057 0.8547
vn 0.3913 -0.3194 0.8631
vn 0.4744 -0.8792 0.0448
vn 0.0548 0.0964 -0.9938
vn -0.5245 0.6769 -0.5164
vn -0.0736 0.9603 0.2691
vn 0.7844 0.5549 0.2771
vn 0.8638 0.0209 -0.5035
vn 0.293 0.6056 -0.7398
vn 0.0725 0.8266 -0.5581
vn 0.2442 0.9345 -0.2591
vn 0.5708 0.7801 -0.2561
vn 0.601 0.5769 -0.5532
vn -0.2628 -0.7894 0.5548
vn -0.6852 0.0957 0.722
vn 0.0117 0.796 0.6052
vn 0.8649 0.3437 0.3657
vn 0.6953 -0.6361 0.3346
vn -0.5079 -0.6746 -0.5356
vn -0.9109 0.1697 -0.3761
vn -0.2461 0.8377 -0.4876
vn 0.5677 0.4062 -0.716
vn 0.4059 -0.5284 -0.7457
vn -0.3636 -0.2049 -0.9087
vn -0.517 0.1165 -0.848
vn -0.264 0.3707 -0.8904
vn 0.0458 0.2065 -0.9774
vn -0.0158 -0.1492 -0.9887
vn 0.561 0.1063 0.821
vn 0.3162 0.9059 0.2819
vn 0.3434 0.649 -0.6789
vn 0.6051 -0.3093 -0.7336
vn -0.3524 -0.9066 0.2324
vn -0.3523 -0.9066 0.2324
vn -0.5227 -0.1902 0.8311
vn -0.7562 0.5725 0.3169
vn -0.7302 0.3275 -0.5996
vn -0.4806 -0.5866 -0.6518
vn -0.8343 -0.5381 0.1202
vn -0.8991 -0.2654 0.3481
vn -0.988 0.0249 0.1524
vn -0.9781 -0.0683 -0.1965
vn -0.8831 -0.4163 -0.2163
vn -0.3908 0.3317 -0.8586
vn -0.9575 -0.1828 -0.223
vn -0.3968 -0.9007 0.177
vn 0.5165 -0.8298 -0.2113
vn 0.5202 -0.0681 -0.8513
vn -0.0806 0.9967 -0.0078
vn -0.6212 0.5059 0.5985
vn -0.0863 -0.1788 0.9801
vn 0.7848 -0.1113 0.6097
vn 0.7883 0.6153 -0.0008
vn 0.1627 0.8297 0.534
vn -0.0431 0.6429 0.7648
vn 0.1605 0.3822 0.91
vn 0.4921 0.4079 0.769
vn 0.4934 0.6845 0.5366
vn -0.1086 0.4006 -0.9098
vn -0.7236 -0.322 -0.6105
vn -0.1936 -0.9776 -0.0823
vn 0.749 -0.6603 -0.0551
vn 0.8015 0.1915 -0.5665
vn -0.32 0.9461 0.0494
vn -0.9066 0.2569 0.3349
vn -0.9066 0.2569 0.3348
vn -0.401 -0.3685 0.8387
vn 0.4981 -0.0658 0.8646
vn 0.5481 0.7467 0.3768
vn -0.265 0.7335 0.6259
vn -0.4883 0.4711 0.7346
vn -0.2958 0.2331 0.9264
vn 0.0464 0.3483 0.9362
vn 0.0654 0.6575 0.7506
vn 0.2196 0.828 -0.5159
vn 0.2001 0.909 -0.3656
vn -0.4672 0.3672 -0.8043
vn -0.6063 0.3741 -0.7017
vn -0.549 0.3123 -0.7753
vn -0.4636 0.4689 -0.7518
vn -0.9987 0.0098 -0.0498
vn -0.9884 0.12 0.0928
vn -0.9987 0.0098 0.0498
vn -0.9884 0.12 -0.0928
vn -0.7131 0.2596 0.6512
vn -0.1267 0.5958 0.793
vn -0.0443 0.6511 0.7577
vn -0.1083 0.6474 0.7544
vn 0.2909 0.9268 0.2377
vn 0.2707 0.8622 -0.4282
vn 0.1203 0.8561 -0.5025
vn 0.4642 0.6397 -0.6126
vn -0.4194 0.0589 -0.9059
vn -0.404 0.0942 -0.9099
vn -0.3667 0.107 -0.9242
vn -0.9526 -0.2749 0.1305
vn -0.9523 -0.3052 -0.0
vn -0.8278 -0.3646 0.4265
vn -0.4589 0.2136 0.8624
vn 0.2012 0.3421 0.9179
vn 0.1194 0.2904 0.9494
vn 0.2967 0.5759 0.7618
vn 0.5886 0.7543 0.291
vn 0.5073 0.6893 -0.5172
vn 0.5087 0.6519 -0.5623
vn -0.469 0.2374 -0.8507
vn -0.9479 -0.3187 -0.0
vn -0.469 0.2374 0.8507
vn 0.0001 0.8124 0.5831
vn 0.1581 0.9654 0.2074
vn 0.146 0.8918 -0.4283
vn 0.1621 0.4802 0.8621
vn -0.6363 -0.0326 0.7707
vn -0.9647 -0.2598 -0.0429
vn -0.9623 0.1662 0.2155
vn -0.9647 -0.2598 0.0429
vn -0.9314 -0.3496 0.1013
vn -0.3703 0.0977 -0.9237
vn -0.4215 0.059 -0.9049
vn 0.4593 0.7239 -0.5147
vn 0.4266 0.6993 -0.5735
vn 0.5003 0.8201 0.2776
vn -0.008 0.5383 0.8427
vn 0.0064 0.3625 0.932
vn 0.8061 -0.5514 -0.2147
vn 0.319 -0.8761 -0.3616
vn 0.4172 -0.8109 -0.4104
vn 0.1526 -0.9862 0.0644
vn 0.1526 -0.9862 -0.0644
vn 0.3375 -0.9064 0.2541
vn 0.3375 -0.9064 0.254
vn 0.6337 -0.6667 0.3924
vn 0.5318 -0.7346 0.4213
vn 0.7753 -0.622 0.1096
vn 0.7413 -0.5948 -0.3109
vn 0.4534 -0.8794 0.1454
vn 0.4906 -0.8569 0.1581
vn 0.6125 -0.7831 0.1073
vn 0.6317 -0.7715 0.0757
vn 0.6328 -0.7706 -0.0757
vn 0.5973 -0.7907 -0.1341
vn 0.5383 -0.8276 -0.1591
vn 0.414 -0.9028 -0.1167
vn 0.3735 -0.9261 -0.0533
vn 0.3744 -0.9269 0.0256
usemtl Elf_bush_Map
f 1//1 2//1 4//1
f 2//2 3//2 4//2
f 3//3 1//3 4//3
f 5//4 6//4 8//4
f 6//5 7//5 8//5
f 7//6 5//6 8//6
f 9//7 10//7 12//7
f 10//8 11//8 12//8
f 11//9 9//9 12//9
f 13//10 14//10 16//10
f 14//11 15//11 16//11
f 15//12 13//12 16//12
f 17//13 18//13 27//13
f 19//14 28//14 18//14
f 18//15 28//15 27//15
f 20//16 29//16 19//16
f 19//17 29//17 28//17
f 20//18 21//18 29//18
f 29//19 21//19 30//19
f 21//20 22//20 30//20
f 22//21 23//21 30//21
f 30//22 23//22 31//22
f 23//23 24//23 31//23
f 24//24 25//24 31//24
f 31//25 25//25 32//25
f 25//26 26//26 32//26
f 17//27 27//27 26//27
f 26//28 27//28 32//28
f 17//29 33//29 18//29
f 18//29 33//29 34//29
f 18//30 34//30 19//30
f 19//31 34//31 35//31
f 20//32 19//32 36//32
f 36//33 19//33 35//33
f 20//34 36//34 21//34
f 21//34 36//34 37//34
f 22//35 21//35 38//35
f 38//35 21//35 37//35
f 22//36 38//36 23//36
f 23//36 38//36 39//36
f 24//37 23//37 40//37
f 40//37 23//37 39//37
f 25//38 24//38 41//38
f 41//38 24//38 40//38
f 26//39 25//39 42//39
f 42//39 25//39 41//39
f 26//40 42//40 17//40
f 17//40 42//40 33//40
f 33//41 43//41 34//41
f 34//41 43//41 44//41
f 35//42 34//42 44//42
f 36//43 35//43 45//43
f 37//44 36//44 46//44
f 46//44 36//44 45//44
f 38//45 37//45 47//45
f 47//45 37//45 46//45
f 38//46 47//46 39//46
f 39//46 47//46 48//46
f 40//47 39//47 49//47
f 49//47 39//47 48//47
f 41//48 40//48 50//48
f 50//48 40//48 49//48
f 41//49 50//49 42//49
f 42//49 50//49 51//49
f 33//50 42//50 43//50
f 43//50 42//50 51//50
f 27//51 53//51 52//51
f 27//52 28//52 53//52
f 53//53 28//53 54//53
f 28//54 29//54 54//54
f 54//55 29//55 55//55
f 30//56 56//56 29//56
f 29//57 56//57 55//57
f 30//58 57//58 56//58
f 30//59 31//59 57//59
f 31//60 58//60 57//60
f 32//61 59//61 31//61
f 31//62 59//62 58//62
f 32//63 60//63 59//63
f 32//64 27//64 60//64
f 60//65 27//65 52//65
f 52//66 53//66 61//66
f 53//67 54//67 61//67
f 61//68 54//68 62//68
f 54//69 55//69 62//69
f 55//70 56//70 62//70
f 62//70 56//70 63//70
f 56//71 57//71 63//71
f 57//72 64//72 63//72
f 57//73 58//73 64//73
f 59//74 65//74 58//74
f 58//75 65//75 64//75
f 60//76 66//76 59//76
f 59//76 66//76 65//76
f 60//77 52//77 66//77
f 66//78 52//78 61//78
f 67//79 68//79 79//79
f 79//80 68//80 80//80
f 69//81 81//81 68//81
f 68//82 81//82 80//82
f 69//83 70//83 81//83
f 81//84 70//84 82//84
f 71//85 83//85 70//85
f 70//86 83//86 82//86
f 71//87 72//87 83//87
f 83//88 72//88 84//88
f 73//89 85//89 72//89
f 72//90 85//90 84//90
f 73//91 74//91 85//91
f 85//92 74//92 86//92
f 75//93 87//93 74//93
f 74//94 87//94 86//94
f 75//95 76//95 87//95
f 87//96 76//96 88//96
f 77//97 89//97 76//97
f 76//98 89//98 88//98
f 77//99 78//99 89//99
f 89//100 78//100 90//100
f 67//101 79//101 78//101
f 78//102 79//102 90//102
f 79//103 80//103 91//103
f 91//103 80//103 92//103
f 80//104 81//104 92//104
f 92//104 81//104 93//104
f 81//105 82//105 93//105
f 93//105 82//105 94//105
f 82//106 83//106 94//106
f 94//106 83//106 95//106
f 83//107 84//107 95//107
f 95//107 84//107 96//107
f 84//108 85//108 96//108
f 96//108 85//108 97//108
f 85//109 86//109 97//109
f 97//109 86//109 98//109
f 86//110 87//110 98//110
f 98//110 87//110 99//110
f 87//111 88//111 99//111
f 99//111 88//111 100//111
f 88//112 89//112 100//112
f 100//112 89//112 101//112
f 89//113 90//113 101//113
f 101//113 90//113 102//113
f 90//114 79//114 102//114
f 102//114 79//114 91//114
f 91//115 92//115 103//115
f 93//116 104//116 92//116
f 92//117 104//117 103//117
f 93//118 94//118 104//118
f 95//119 105//119 94//119
f 94//120 105//120 104//120
f 95//121 96//121 105//121
f 97//122 106//122 96//122
f 96//123 106//123 105//123
f 97//124 98//124 106//124
f 106//124 98//124 107//124
f 98//125 99//125 107//125
f 100//126 108//126 99//126
f 99//127 108//127 107//127
f 100//128 101//128 108//128
f 108//129 101//129 109//129
f 101//130 102//130 109//130
f 102//131 91//131 109//131
f 109//131 91//131 103//131
f 103//132 111//132 110//132
f 103//133 104//133 111//133
f 111//134 104//134 112//134
f 104//135 113//135 112//135
f 104//136 105//136 113//136
f 113//137 105//137 114//137
f 105//138 115//138 114//138
f 105//139 106//139 115//139
f 115//140 106//140 116//140
f 106//141 107//141 116//141
f 116//141 107//141 117//141
f 107//142 118//142 117//142
f 107//143 108//143 118//143
f 118//144 108//144 119//144
f 109//145 120//145 108//145
f 108//146 120//146 119//146
f 109//147 121//147 120//147
f 109//148 103//148 121//148
f 121//148 103//148 110//148
f 110//149 111//149 122//149
f 111//150 112//150 123//150
f 112//151 113//151 123//151
f 123//152 113//152 124//152
f 113//153 114//153 124//153
f 114//154 115//154 124//154
f 124//154 115//154 125//154
f 116//155 126//155 115//155
f 115//155 126//155 125//155
f 116//156 117//156 126//156
f 118//157 127//157 117//157
f 117//158 127//158 126//158
f 118//159 119//159 127//159
f 119//160 120//160 128//160
f 120//161 121//161 128//161
f 128//162 121//162 122//162
f 121//163 110//163 122//163
f 111//164 130//164 122//164
f 122//165 130//165 129//165
f 111//166 123//166 130//166
f 124//167 131//167 123//167
f 123//167 131//167 130//167
f 124//168 125//168 131//168
f 131//169 125//169 132//169
f 125//170 126//170 132//170
f 126//171 133//171 132//171
f 126//171 127//171 133//171
f 127//172 119//172 133//172
f 119//173 128//173 133//173
f 133//174 128//174 134//174
f 128//175 122//175 134//175
f 134//175 122//175 129//175
f 129//176 130//176 135//176
f 135//176 130//176 136//176
f 130//177 131//177 136//177
f 136//177 131//177 137//177
f 131//178 132//178 137//178
f 137//178 132//178 138//178
f 133//179 139//179 132//179
f 132//179 139//179 138//179
f 133//180 140//180 139//180
f 133//180 134//180 140//180
f 134//181 129//181 140//181
f 140//181 129//181 135//181
f 135//182 136//182 141//182
f 136//183 137//183 141//183
f 137//184 138//184 141//184
f 138//185 139//185 141//185
f 139//186 140//186 141//186
f 140//187 135//187 141//187
f 68//188 67//188 143//188
f 143//188 67//188 142//188
f 68//189 143//189 69//189
f 69//189 143//189 144//189
f 70//190 69//190 145//190
f 145//190 69//190 144//190
f 70//191 145//191 71//191
f 71//191 145//191 146//191
f 72//192 71//192 147//192
f 147//192 71//192 146//192
f 72//193 147//193 73//193
f 73//193 147//193 148//193
f 74//194 73//194 149//194
f 149//194 73//194 148//194
f 74//195 149//195 75//195
f 75//195 149//195 150//195
f 76//196 75//196 151//196
f 151//196 75//196 150//196
f 76//197 151//197 77//197
f 77//197 151//197 152//197
f 78//198 77//198 153//198
f 153//198 77//198 152//198
f 78//199 153//199 67//199
f 67//199 153//199 142//199
f 142//200 154//200 143//200
f 143//200 154//200 155//200
f 144//201 143//201 156//201
f 156//201 143//201 155//201
f 144//202 156//202 145//202
f 145//202 156//202 157//202
f 146//203 145//203 158//203
f 158//203 145//203 157//203
f 146//204 158//204 147//204
f 147//204 158//204 159//204
f 148//205 147//205 160//205
f 160//205 147//205 159//205
f 148//206 160//206 149//206
f 149//206 160//206 161//206
f 150//207 149//207 162//207
f 162//207 149//207 161//207
f 150//208 162//208 151//208
f 151//208 162//208 163//208
f 152//209 151//209 164//209
f 164//209 151//209 163//209
f 152//210 164//210 153//210
f 153//210 164//210 165//210
f 142//211 153//211 154//211
f 154//211 153//211 165//211
f 155//212 154//212 166//212
f 156//213 155//213 166//213
f 157//214 156//214 166//214
f 158//215 157//215 166//215
f 159//216 158//216 166//216
f 160//217 159//217 166//217
f 161//218 160//218 166//218
f 162//219 161//219 166//219
f 163//220 162//220 166//220
f 164//221 163//221 166//221
f 165//222 164//222 166//222
f 154//223 165//223 166//223
f 167//224 168//224 179//224
f 169//225 180//225 168//225
f 168//226 180//226 179//226
f 169//227 170//227 180//227
f 171//228 181//228 170//228
f 170//229 181//229 180//229
f 171//230 172//230 181//230
f 181//230 172//230 182//230
f 172//231 173//231 182//231
f 174//232 183//232 173//232
f 173//233 183//233 182//233
f 174//234 175//234 183//234
f 183//234 175//234 184//234
f 175//235 176//235 184//235
f 176//236 177//236 184//236
f 184//236 177//236 185//236
f 177//237 178//237 185//237
f 178//238 167//238 185//238
f 185//238 167//238 179//238
f 180//239 186//239 179//239
f 181//240 186//240 180//240
f 182//241 186//241 181//241
f 183//242 186//242 182//242
f 184//243 186//243 183//243
f 185//244 186//244 184//244
f 179//245 186//245 185//245
f 168//246 167//246 233//246
f 233//246 167//246 232//246
f 169//247 168//247 235//247
f 235//247 168//247 234//247
f 170//248 169//248 237//248
f 237//248 169//248 236//248
f 170//249 238//249 171//249
f 171//250 238//250 239//250
f 172//251 171//251 240//251
f 240//252 171//252 239//252
f 173//253 172//253 242//253
f 242//253 172//253 241//253
f 174//254 173//254 244//254
f 244//254 173//254 243//254
f 175//255 174//255 246//255
f 246//255 174//255 245//255
f 176//256 175//256 248//256
f 248//257 175//257 247//257
f 177//258 176//258 250//258
f 250//258 176//258 249//258
f 178//259 177//259 252//259
f 252//259 177//259 251//259
f 167//260 178//260 254//260
f 254//260 178//260 253//260
f 187//261 232//261 210//261
f 210//262 232//262 255//262
f 233//263 256//263 168//263
f 168//264 256//264 209//264
f 188//265 187//265 211//265
f 211//265 187//265 210//265
f 189//266 234//266 212//266
f 212//267 234//267 257//267
f 235//268 258//268 169//268
f 169//269 258//269 209//269
f 190//270 189//270 213//270
f 213//270 189//270 212//270
f 191//271 236//271 214//271
f 214//272 236//272 259//272
f 237//273 260//273 170//273
f 170//274 260//274 209//274
f 192//275 191//275 215//275
f 215//275 191//275 214//275
f 193//276 238//276 216//276
f 216//277 238//277 261//277
f 194//278 193//278 217//278
f 217//278 193//278 216//278
f 240//279 262//279 172//279
f 172//280 262//280 209//280
f 195//281 241//281 218//281
f 218//282 241//282 263//282
f 242//283 264//283 173//283
f 173//284 264//284 209//284
f 196//285 195//285 219//285
f 219//285 195//285 218//285
f 197//286 243//286 220//286
f 220//287 243//287 265//287
f 244//288 266//288 174//288
f 174//289 266//289 209//289
f 198//290 197//290 221//290
f 221//290 197//290 220//290
f 199//291 245//291 222//291
f 222//292 245//292 267//292
f 246//293 268//293 175//293
f 175//294 268//294 209//294
f 200//295 199//295 223//295
f 223//295 199//295 222//295
f 201//296 247//296 224//296
f 224//297 247//297 269//297
f 248//298 270//298 176//298
f 176//299 270//299 209//299
f 202//300 201//300 225//300
f 225//300 201//300 224//300
f 203//301 249//301 226//301
f 226//302 249//302 271//302
f 250//303 272//303 177//303
f 177//304 272//304 209//304
f 204//305 203//305 227//305
f 227//305 203//305 226//305
f 205//306 251//306 228//306
f 228//307 251//307 273//307
f 252//308 274//308 178//308
f 178//309 274//309 209//309
f 206//310 205//310 229//310
f 229//310 205//310 228//310
f 207//311 253//311 230//311
f 230//312 253//312 275//312
f 254//313 276//313 167//313
f 167//314 276//314 209//314
f 208//315 207//315 231//315
f 231//315 207//315 230//315
f 230//316 275//316 231//316
f 231//316 275//316 276//316
f 228//317 273//317 229//317
f 229//317 273//317 274//317
f 226//318 271//318 227//318
f 227//318 271//318 272//318
f 224//319 269//319 225//319
f 225//319 269//319 270//319
f 222//320 267//320 223//320
f 223//320 267//320 268//320
f 220//321 265//321 221//321
f 221//321 265//321 266//321
f 218//322 263//322 219//322
f 219//323 263//323 264//323
f 214//324 259//324 215//324
f 215//325 259//325 260//325
f 212//326 257//326 213//326
f 213//326 257//326 258//326
f 210//327 255//327 211//327
f 211//327 255//327 256//327
f 216//328 261//328 217//328
f 217//328 261//328 262//328
f 233//329 232//329 188//329
f 188//329 232//329 187//329
f 235//330 234//330 190//330
f 190//330 234//330 189//330
f 237//331 236//331 192//331
f 192//331 236//331 191//331
f 238//332 193//332 239//332
f 239//333 193//333 194//333
f 240//334 239//334 194//334
f 242//335 241//335 196//335
f 196//335 241//335 195//335
f 244//336 243//336 198//336
f 198//336 243//336 197//336
f 246//337 245//337 200//337
f 200//337 245//337 199//337
f 248//338 247//338 202//338
f 202//338 247//338 201//338
f 250//339 249//339 204//339
f 204//339 249//339 203//339
f 252//340 251//340 206//340
f 206//340 251//340 205//340
f 254//341 253//341 208//341
f 208//341 253//341 207//341
f 232//342 167//342 255//342
f 255//343 167//343 209//343
f 256//344 233//344 211//344
f 211//345 233//345 188//345
f 234//346 168//346 257//346
f 257//347 168//347 209//347
f 258//348 235//348 213//348
f 213//349 235//349 190//349
f 236//350 169//350 259//350
f 259//351 169//351 209//351
f 260//352 237//352 215//352
f 215//353 237//353 192//353
f 238//354 170//354 261//354
f 261//355 170//355 209//355
f 262//356 240//356 217//356
f 217//357 240//357 194//357
f 241//358 172//358 263//358
f 263//359 172//359 209//359
f 264//360 242//360 219//360
f 219//361 242//361 196//361
f 243//362 173//362 265//362
f 265//363 173//363 209//363
f 266//364 244//364 221//364
f 221//365 244//365 198//365
f 245//366 174//366 267//366
f 267//367 174//367 209//367
f 268//368 246//368 223//368
f 223//369 246//369 200//369
f 247//370 175//370 269//370
f 269//371 175//371 209//371
f 270//372 248//372 225//372
f 225//373 248//373 202//373
f 249//374 176//374 271//374
f 271//375 176//375 209//375
f 272//376 250//376 227//376
f 227//377 250//377 204//377
f 251//378 177//378 273//378
f 273//379 177//379 209//379
f 274//380 252//380 229//380
f 229//381 252//381 206//381
f 253//382 178//382 275//382
f 275//383 178//383 209//383
f 276//384 254//384 231//384
f 231//385 254//385 208//385
f 276//386 275//386 209//386
f 274//387 273//387 209//387
f 272//388 271//388 209//388
f 270//389 269//389 209//389
f 268//390 267//390 209//390
f 266//391 265//391 209//391
f 264//392 263//392 209//392
f 260//393 259//393 209//393
f 258//394 257//394 209//394
f 256//395 255//395 209//395
f 262//396 261//396 209//396
f 277//397 278//397 280//397
f 278//398 279//398 280//398
f 279//399 277//399 280//399
f 281//400 282//400 284//400
f 282//401 283//401 284//401
f 283//402 281//402 284//402
f 285//403 286//403 288//403
f 286//404 287//404 288//404
f 287//405 285//405 288//405
f 289//406 290//406 292//406
f 290//407 291//407 292//407
f 291//408 289//408 292//408
f 293//409 294//409 296//409
f 294//410 295//410 296//410
f 295//411 293//411 296//411
f 297//412 298//412 300//412
f 298//413 299//413 300//413
f 299//414 297//414 300//414
f 301//415 302//415 304//415
f 302//416 303//416 304//416
f 303//417 301//417 304//417
f 305//418 306//418 308//418
f 306//419 307//419 308//419
f 307//420 305//420 308//420
f 309//421 311//421 310//421
f 309//422 312//422 311//422
f 309//423 313//423 312//423
f 309//424 314//424 313//424
f 309//425 310//425 314//425
f 310//426 311//426 315//426
f 315//426 311//426 316//426
f 311//427 312//427 316//427
f 316//427 312//427 317//427
f 312//428 313//428 317//428
f 317//428 313//428 318//428
f 313//429 314//429 318//429
f 318//429 314//429 319//429
f 314//430 310//430 319//430
f 319//430 310//430 315//430
f 315//431 316//431 320//431
f 316//432 317//432 320//432
f 317//433 318//433 320//433
f 318//434 319//434 320//434
f 319//435 315//435 320//435
f 322//436 328//436 321//436
f 321//436 328//436 327//436
f 323//437 329//437 322//437
f 322//437 329//437 328//437
f 323//438 324//438 329//438
f 329//438 324//438 330//438
f 324//439 325//439 330//439
f 330//439 325//439 331//439
f 325//440 326//440 331//440
f 331//440 326//440 332//440
f 321//441 327//441 326//441
f 326//441 327//441 332//441
f 333//442 335//442 334//442
f 333//443 336//443 335//443
f 333//444 337//444 336//444
f 333//445 338//445 337//445
f 333//446 334//446 338//446
f 334//447 335//447 339//447
f 339//447 335//447 340//447
f 335//448 336//448 340//448
f 340//448 336//448 341//448
f 336//449 337//449 341//449
f 341//449 337//449 342//449
f 337//450 338//450 342//450
f 342//450 338//450 343//450
f 338//451 334//451 343//451
f 343//451 334//451 339//451
f 339//452 340//452 344//452
f 340//453 341//453 344//453
f 341//454 342//454 344//454
f 342//455 343//455 344//455
f 343//456 339//456 344//456
f 345//457 347//457 346//457
f 345//458 348//458 347//458
f 345//459 349//459 348//459
f 345//460 350//460 349//460
f 345//461 346//461 350//461
f 346//462 347//462 351//462
f 351//462 347//462 352//462
f 347//463 348//463 352//463
f 352//463 348//463 353//463
f 348//464 349//464 353//464
f 353//464 349//464 354//464
f 349//465 350//465 354//465
f 354//465 350//465 355//465
f 350//466 346//466 355//466
f 355//466 346//466 351//466
f 351//467 352//467 356//467
f 352//468 353//468 356//468
f 353//469 354//469 356//469
f 354//470 355//470 356//470
f 355//471 351//471 356//471
f 388//472 390//472 389//472
f 388//473 392//473 391//473
f 388//474 394//474 393//474
f 388//475 396//475 395//475
f 388//476 398//476 397//476
f 388//477 400//477 399//477
f 388//478 402//478 401//478
f 388//479 404//479 403//479
f 388//480 406//480 405//480
f 388//481 408//481 407//481
f 357//482 358//482 367//482
f 358//483 359//483 367//483
f 359//484 360//484 367//484
f 360//485 361//485 367//485
f 361//486 362//486 367//486
f 362//487 363//487 367//487
f 363//488 364//488 367//488
f 364//489 365//489 367//489
f 365//490 366//490 367//490
f 366//491 357//491 367//491
f 357//492 368//492 358//492
f 358//492 368//492 369//492
f 359//493 358//493 371//493
f 371//493 358//493 370//493
f 360//494 359//494 373//494
f 373//494 359//494 372//494
f 361//495 360//495 375//495
f 375//495 360//495 374//495
f 361//496 376//496 362//496
f 362//496 376//496 377//496
f 362//497 378//497 363//497
f 363//497 378//497 379//497
f 363//498 380//498 364//498
f 364//498 380//498 381//498
f 365//499 364//499 383//499
f 383//499 364//499 382//499
f 366//500 365//500 385//500
f 385//501 365//501 384//501
f 366//502 386//502 357//502
f 357//503 386//503 387//503
f 388//504 389//504 357//504
f 357//505 389//505 368//505
f 368//506 389//506 369//506
f 369//506 389//506 390//506
f 369//507 390//507 358//507
f 358//508 390//508 388//508
f 388//509 391//509 358//509
f 358//510 391//510 370//510
f 370//511 391//511 371//511
f 371//511 391//511 392//511
f 371//512 392//512 359//512
f 359//513 392//513 388//513
f 388//514 393//514 359//514
f 359//515 393//515 372//515
f 372//516 393//516 373//516
f 373//516 393//516 394//516
f 373//517 394//517 360//517
f 360//518 394//518 388//518
f 388//519 395//519 360//519
f 360//520 395//520 374//520
f 374//521 395//521 375//521
f 375//521 395//521 396//521
f 375//522 396//522 361//522
f 361//523 396//523 388//523
f 388//524 397//524 361//524
f 361//525 397//525 376//525
f 376//526 397//526 377//526
f 377//526 397//526 398//526
f 377//527 398//527 362//527
f 362//528 398//528 388//528
f 388//529 399//529 362//529
f 362//530 399//530 378//530
f 378//531 399//531 379//531
f 379//531 399//531 400//531
f 379//532 400//532 363//532
f 363//533 400//533 388//533
f 388//534 401//534 363//534
f 363//535 401//535 380//535
f 380//536 401//536 381//536
f 381//536 401//536 402//536
f 381//537 402//537 364//537
f 364//538 402//538 388//538
f 388//539 403//539 364//539
f 364//540 403//540 382//540
f 382//541 403//541 383//541
f 383//541 403//541 404//541
f 383//542 404//542 365//542
f 365//543 404//543 388//543
f 388//544 405//544 365//544
f 365//545 405//545 384//545
f 384//546 405//546 385//546
f 385//546 405//546 406//546
f 385//547 406//547 366//547
f 366//548 406//548 388//548
f 388//549 407//549 366//549
f 366//550 407//550 386//550
f 386//551 407//551 387//551
f 387//551 407//551 408//551
f 387//552 408//552 357//552
f 357//553 408//553 388//553
f 409//554 411//554 410//554
f 409//555 412//555 411//555
f 409//556 413//556 412//556
f 409//557 414//557 413//557
f 409//558 410//558 414//558
f 410//559 411//559 415//559
f 415//559 411//559 416//559
f 411//560 412//560 416//560
f 416//560 412//560 417//560
f 412//561 413//561 417//561
f 417//561 413//561 418//561
f 413//562 414//562 418//562
f 418//562 414//562 419//562
f 414//563 410//563 419//563
f 419//563 410//563 415//563
f 415//564 416//564 420//564
f 416//565 417//565 420//565
f 417//566 418//566 420//566
f 418//567 419//567 420//567
f 419//568 415//568 420//568
f 421//569 423//569 422//569
f 421//570 424//570 423//570
f 421//571 425//571 424//571
f 421//572 426//572 425//572
f 421//573 422//573 426//573
f 422//574 423//574 427//574
f 427//574 423//574 428//574
f 423//575 424//575 428//575
f 428//575 424//575 429//575
f 424//576 425//576 429//576
f 429//576 425//576 430//576
f 425//577 426//577 430//577
f 430//577 426//577 431//577
f 426//578 422//578 431//578
f 431//578 422//578 427//578
f 427//579 428//579 432//579
f 428//580 429//580 432//580
f 429//581 430//581 432//581
f 430//582 431//582 432//582
f 431//583 427//583 432//583
f 433//584 435//584 434//584
f 433//585 436//585 435//585
f 433//586 437//586 436//586
f 433//587 438//587 437//587
f 433//588 434//588 438//588
f 434//589 435//589 439//589
f 439//589 435//589 440//589
f 435//590 436//590 440//590
f 440//590 436//590 441//590
f 436//591 437//591 441//591
f 441//591 437//591 442//591
f 437//592 438//592 442//592
f 442//592 438//592 443//592
f 438//593 434//593 443//593
f 443//593 434//593 439//593
f 439//594 440//594 444//594
f 440//595 441//595 444//595
f 441//596 442//596 444//596
f 442//597 443//597 444//597
f 443//598 439//598 444//598
f 445//599 447//599 446//599
f 445//600 448//600 447//600
f 445//601 449//601 448//601
f 445//602 450//602 449//602
f 445//603 446//603 450//603
f 446//604 447//604 451//604
f 451//605 447//605 452//605
f 447//606 448//606 452//606
f 452//606 448//606 453//606
f 448//607 449//607 453//607
f 453//607 449//607 454//607
f 449//608 450//608 454//608
f 454//608 450//608 455//608
f 450//609 446//609 455//609
f 455//609 446//609 451//609
f 451//610 452//610 456//610
f 452//611 453//611 456//611
f 453//612 454//612 456//612
f 454//613 455//613 456//613
f 455//614 451//614 456//614
f 457//615 458//615 469//615
f 458//616 459//616 470//616
f 459//617 460//617 470//617
f 470//617 460//617 471//617
f 460//618 461//618 471//618
f 471//619 461//619 472//619
f 462//620 473//620 461//620
f 461//621 473//621 472//621
f 462//622 463//622 473//622
f 473//623 463//623 474//623
f 464//624 475//624 463//624
f 463//625 475//625 474//625
f 464//626 465//626 475//626
f 475//627 465//627 476//627
f 466//628 477//628 465//628
f 465//629 477//629 476//629
f 466//630 467//630 477//630
f 477//631 467//631 478//631
f 468//632 479//632 467//632
f 467//633 479//633 478//633
f 468//634 457//634 479//634
f 479//634 457//634 469//634
f 458//635 481//635 469//635
f 469//636 481//636 480//636
f 458//637 470//637 481//637
f 470//638 471//638 481//638
f 481//639 471//639 482//639
f 471//640 472//640 482//640
f 472//641 473//641 482//641
f 482//641 473//641 483//641
f 473//642 474//642 483//642
f 483//642 474//642 484//642
f 474//643 475//643 484//643
f 475//644 476//644 485//644
f 476//645 477//645 485//645
f 477//646 478//646 485//646
f 485//646 478//646 486//646
f 478//647 479//647 486//647
f 486//647 479//647 480//647
f 479//648 469//648 480//648
f 481//649 488//649 480//649
f 480//650 488//650 487//650
f 481//651 489//651 488//651
f 482//652 490//652 481//652
f 481//653 490//653 489//653
f 482//654 491//654 490//654
f 482//655 483//655 491//655
f 491//656 483//656 492//656
f 483//657 484//657 492//657
f 475//658 493//658 484//658
f 484//659 493//659 492//659
f 475//660 485//660 493//660
f 493//661 485//661 494//661
f 485//662 495//662 494//662
f 486//663 496//663 485//663
f 485//663 496//663 495//663
f 480//664 497//664 486//664
f 486//664 497//664 496//664
f 480//665 487//665 497//665
f 487//666 488//666 498//666
f 488//667 489//667 498//667
f 498//667 489//667 499//667
f 489//668 490//668 499//668
f 490//669 491//669 500//669
f 492//670 501//670 491//670
f 491//671 501//671 500//671
f 492//672 502//672 501//672
f 492//673 493//673 502//673
f 493//674 494//674 503//674
f 494//675 495//675 503//675
f 503//675 495//675 504//675
f 495//676 496//676 504//676
f 496//677 497//677 505//677
f 497//678 487//678 505//678
f 487//679 498//679 506//679
f 506//680 498//680 507//680
f 498//681 499//681 507//681
f 490//682 508//682 499//682
f 499//683 508//683 507//683
f 490//684 500//684 508//684
f 501//685 509//685 500//685
f 500//686 509//686 508//686
f 501//687 502//687 509//687
f 493//688 510//688 502//688
f 502//689 510//689 509//689
f 493//690 503//690 510//690
f 510//691 503//691 511//691
f 503//692 504//692 511//692
f 496//693 512//693 504//693
f 504//694 512//694 511//694
f 496//695 505//695 512//695
f 512//696 505//696 513//696
f 505//697 487//697 513//697
f 513//697 487//697 506//697
f 507//698 515//698 506//698
f 506//699 515//699 514//699
f 508//700 516//700 507//700
f 507//700 516//700 515//700
f 509//701 517//701 508//701
f 508//702 517//702 516//702
f 509//703 510//703 517//703
f 517//703 510//703 518//703
f 510//704 511//704 518//704
f 518//705 511//705 519//705
f 511//706 520//706 519//706
f 511//707 512//707 520//707
f 512//708 513//708 520//708
f 520//708 513//708 514//708
f 513//709 506//709 514//709
f 514//710 515//710 521//710
f 515//711 516//711 521//711
f 516//712 517//712 521//712
f 517//713 518//713 521//713
f 518//714 519//714 521//714
f 519//715 520//715 521//715
f 520//716 514//716 521//716
f 457//717 522//717 458//717
f 458//717 522//717 523//717
f 459//718 458//718 524//718
f 524//718 458//718 523//718
f 460//719 459//719 525//719
f 525//719 459//719 524//719
f 460//720 525//720 461//720
f 461//720 525//720 526//720
f 462//721 461//721 527//721
f 527//721 461//721 526//721
f 462//722 527//722 463//722
f 463//722 527//722 528//722
f 464//723 463//723 529//723
f 529//723 463//723 528//723
f 464//724 529//724 465//724
f 465//724 529//724 530//724
f 466//725 465//725 531//725
f 531//725 465//725 530//725
f 466//726 531//726 467//726
f 467//726 531//726 532//726
f 468//727 467//727 533//727
f 533//728 467//728 532//728
f 468//729 533//729 457//729
f 457//729 533//729 522//729
f 523//730 522//730 534//730
f 524//731 523//731 534//731
f 525//732 524//732 534//732
f 526//733 525//733 534//733
f 527//734 526//734 534//734
f 528//735 527//735 534//735
f 529//736 528//736 534//736
f 530//737 529//737 534//737
f 531//738 530//738 534//738
f 532//739 531//739 534//739
f 533//740 532//740 534//740
f 522//741 533//741 534//741
f 535//742 537//742 536//742
f 535//743 538//743 537//743
f 535//744 539//744 538//744
f 535//745 540//745 539//745
f 535//746 536//746 540//746
f 536//747 537//747 541//747
f 541//747 537//747 542//747
f 537//748 538//748 542//748
f 542//748 538//748 543//748
f 538//749 539//749 543//749
f 543//749 539//749 544//749
f 539//750 540//750 544//750
f 544//750 540//750 545//750
f 540//751 536//751 545//751
f 545//751 536//751 541//751
f 541//752 542//752 546//752
f 542//753 543//753 546//753
f 543//754 544//754 546//754
f 544//755 545//755 546//755
f 545//756 541//756 546//756
f 548//757 566//757 547//757
f 547//758 566//758 567//758
f 548//759 549//759 566//759
f 566//760 549//760 565//760
f 550//761 564//761 549//761
f 549//762 564//762 565//762
f 551//763 563//763 550//763
f 550//763 563//763 564//763
f 551//764 552//764 563//764
f 563//765 552//765 562//765
f 553//766 561//766 552//766
f 552//767 561//767 562//767
f 553//768 547//768 561//768
f 561//769 547//769 567//769
f 562//770 561//770 569//770
f 569//770 561//770 568//770
f 563//771 562//771 570//771
f 570//771 562//771 569//771
f 564//772 563//772 571//772
f 571//772 563//772 570//772
f 565//773 564//773 572//773
f 572//773 564//773 571//773
f 565//774 572//774 566//774
f 566//774 572//774 573//774
f 566//775 573//775 567//775
f 567//775 573//775 574//775
f 567//776 574//776 561//776
f 561//776 574//776 568//776
f 569//777 568//777 559//777
f 559//777 568//777 560//777
f 570//778 569//778 558//778
f 558//778 569//778 559//778
f 571//779 570//779 557//779
f 557//779 570//779 558//779
f 572//780 571//780 556//780
f 556//780 571//780 557//780
f 572//781 556//781 573//781
f 573//781 556//781 555//781
f 573//782 555//782 574//782
f 574//782 555//782 554//782
f 574//783 554//783 568//783
f 568//783 554//783 560//783
f 635//784 637//784 636//784
f 635//785 639//785 638//785
f 640//786 643//786 641//786
f 641//786 643//786 642//786
f 647//787 646//787 644//787
f 644//788 646//788 645//788
f 635//789 649//789 648//789
f 635//790 651//790 650//790
f 635//791 653//791 652//791
f 635//792 655//792 654//792
f 635//793 657//793 656//793
f 661//794 660//794 658//794
f 658//794 660//794 659//794
f 635//795 663//795 662//795
f 635//796 665//796 664//796
f 635//797 667//797 666//797
f 635//798 669//798 668//798
f 635//799 658//799 659//799
f 657//800 671//800 656//800
f 656//801 671//801 670//801
f 663//802 673//802 662//802
f 662//803 673//803 672//803
f 635//804 640//804 641//804
f 635//805 644//805 645//805
f 575//806 576//806 594//806
f 594//807 576//807 593//807
f 576//808 577//808 593//808
f 577//809 578//809 593//809
f 593//810 578//810 592//810
f 578//811 579//811 592//811
f 579//812 580//812 592//812
f 592//813 580//813 591//813
f 580//814 581//814 591//814
f 582//815 590//815 581//815
f 581//815 590//815 591//815
f 582//816 583//816 590//816
f 584//817 596//817 583//817
f 583//817 596//817 590//817
f 584//818 585//818 596//818
f 585//819 586//819 596//819
f 596//820 586//820 595//820
f 586//821 587//821 595//821
f 587//822 588//822 595//822
f 595//823 588//823 594//823
f 588//824 575//824 594//824
f 591//825 590//825 589//825
f 592//826 591//826 589//826
f 593//827 592//827 589//827
f 594//828 593//828 589//828
f 595//829 594//829 589//829
f 596//830 595//830 589//830
f 590//831 596//831 589//831
f 575//832 597//832 576//832
f 576//832 597//832 598//832
f 577//833 576//833 600//833
f 600//833 576//833 599//833
f 631//834 632//834 602//834
f 602//834 632//834 601//834
f 634//835 603//835 633//835
f 633//836 603//836 604//836
f 580//837 579//837 606//837
f 606//837 579//837 605//837
f 580//838 607//838 581//838
f 581//838 607//838 608//838
f 581//839 609//839 582//839
f 582//839 609//839 610//839
f 583//840 582//840 612//840
f 612//840 582//840 611//840
f 583//841 627//841 584//841
f 584//842 627//842 628//842
f 626//843 615//843 625//843
f 625//843 615//843 616//843
f 586//844 585//844 630//844
f 630//845 585//845 629//845
f 587//846 586//846 620//846
f 620//846 586//846 619//846
f 588//847 587//847 622//847
f 622//847 587//847 621//847
f 575//848 588//848 624//848
f 624//848 588//848 623//848
f 584//849 626//849 585//849
f 585//849 626//849 625//849
f 628//850 627//850 614//850
f 614//851 627//851 613//851
f 630//852 629//852 618//852
f 618//853 629//853 617//853
f 578//854 577//854 631//854
f 631//854 577//854 632//854
f 578//855 634//855 579//855
f 579//856 634//856 633//856
f 635//857 636//857 575//857
f 575//858 636//858 597//858
f 597//859 636//859 598//859
f 598//859 636//859 637//859
f 598//860 637//860 576//860
f 576//861 637//861 635//861
f 635//862 638//862 576//862
f 576//863 638//863 599//863
f 599//864 638//864 600//864
f 600//864 638//864 639//864
f 600//865 639//865 577//865
f 577//866 639//866 635//866
f 632//867 641//867 601//867
f 601//868 641//868 642//868
f 601//869 642//869 602//869
f 602//869 642//869 643//869
f 643//870 640//870 602//870
f 602//871 640//871 631//871
f 634//872 645//872 603//872
f 603//873 645//873 646//873
f 646//874 647//874 603//874
f 603//874 647//874 604//874
f 647//875 644//875 604//875
f 604//876 644//876 633//876
f 635//877 648//877 579//877
f 579//878 648//878 605//878
f 605//879 648//879 606//879
f 606//879 648//879 649//879
f 606//880 649//880 580//880
f 580//881 649//881 635//881
f 650//882 607//882 635//882
f 580//883 635//883 607//883
f 650//884 651//884 607//884
f 607//884 651//884 608//884
f 651//885 635//885 608//885
f 608//886 635//886 581//886
f 635//887 652//887 581//887
f 581//888 652//888 609//888
f 652//889 653//889 609//889
f 609//889 653//889 610//889
f 610//890 653//890 582//890
f 582//891 653//891 635//891
f 635//892 654//892 582//892
f 582//893 654//893 611//893
f 611//894 654//894 612//894
f 612//894 654//894 655//894
f 612//895 655//895 583//895
f 583//896 655//896 635//896
f 627//897 583//897 656//897
f 583//898 635//898 656//898
f 628//899 657//899 584//899
f 657//900 635//900 584//900
f 626//901 659//901 615//901
f 615//902 659//902 660//902
f 615//903 660//903 616//903
f 616//903 660//903 661//903
f 661//904 658//904 616//904
f 616//905 658//905 625//905
f 629//906 585//906 662//906
f 585//907 635//907 662//907
f 630//908 663//908 586//908
f 663//909 635//909 586//909
f 635//910 664//910 586//910
f 586//911 664//911 619//911
f 619//912 664//912 620//912
f 620//912 664//912 665//912
f 620//913 665//913 587//913
f 587//914 665//914 635//914
f 635//915 666//915 587//915
f 587//916 666//916 621//916
f 621//917 666//917 622//917
f 622//917 666//917 667//917
f 622//918 667//918 588//918
f 588//919 667//919 635//919
f 635//920 668//920 588//920
f 588//921 668//921 623//921
f 623//922 668//922 624//922
f 624//922 668//922 669//922
f 624//923 669//923 575//923
f 575//924 669//924 635//924
f 626//925 584//925 659//925
f 584//926 635//926 659//926
f 625//927 658//927 585//927
f 658//928 635//928 585//928
f 627//929 656//929 613//929
f 613//930 656//930 670//930
f 613//931 670//931 614//931
f 614//931 670//931 671//931
f 671//932 657//932 614//932
f 614//933 657//933 628//933
f 629//934 662//934 617//934
f 617//935 662//935 672//935
f 672//936 673//936 617//936
f 617//936 673//936 618//936
f 673//937 663//937 618//937
f 618//938 663//938 630//938
f 635//939 641//939 577//939
f 577//940 641//940 632//940
f 631//941 640//941 578//941
f 578//942 640//942 635//942
f 635//943 645//943 578//943
f 578//944 645//944 634//944
f 633//945 644//945 579//945
f 644//946 635//946 579//946
f 674//947 676//947 675//947
f 674//948 677//948 676//948
f 674//949 678//949 677//949
f 674//950 679//950 678//950
f 674//951 675//951 679//951
f 675//952 676//952 680//952
f 680//952 676//952 681//952
f 676//953 677//953 681//953
f 681//953 677//953 682//953
f 677//954 678//954 682//954
f 682//954 678//954 683//954
f 678//955 679//955 683//955
f 683//955 679//955 684//955
f 679//956 675//956 684//956
f 684//956 675//956 680//956
f 680//957 681//957 685//957
f 681//958 682//958 685//958
f 682//959 683//959 685//959
f 683//960 684//960 685//960
f 684//961 680//961 685//961
f 686//962 688//962 687//962
f 686//963 689//963 688//963
f 686//964 690//964 689//964
f 686//965 691//965 690//965
f 686//966 687//966 691//966
f 687//967 688//967 692//967
f 692//967 688//967 693//967
f 688//968 689//968 693//968
f 693//968 689//968 694//968
f 689//969 690//969 694//969
f 694//969 690//969 695//969
f 690//970 691//970 695//970
f 695//970 691//970 696//970
f 691//971 687//971 696//971
f 696//971 687//971 692//971
f 692//972 693//972 697//972
f 693//973 694//973 697//973
f 694//974 695//974 697//974
f 695//975 696//975 697//975
f 696//976 692//976 697//976
f 698//977 701//977 700//977
f 698//978 702//978 701//978
f 698//979 703//979 702//979
f 698//980 699//980 703//980
f 699//981 700//981 704//981
f 704//982 700//982 705//982
f 700//983 701//983 705//983
f 705//983 701//983 706//983
f 701//984 702//984 706//984
f 706//984 702//984 707//984
f 702//985 703//985 707//985
f 707//985 703//985 708//985
f 703//986 699//986 708//986
f 708//986 699//986 704//986
f 704//987 705//987 709//987
f 705//988 706//988 709//988
f 706//989 707//989 709//989
f 707//990 708//990 709//990
f 708//991 704//991 709//991
f 710//992 712//992 711//992
f 710//993 713//993 712//993
f 710//994 714//994 713//994
f 710//995 715//995 714//995
f 710//996 711//996 715//996
f 711//997 712//997 716//997
f 716//997 712//997 717//997
f 712//998 713//998 717//998
f 717//998 713//998 718//998
f 713//999 714//999 718//999
f 718//999 714//999 719//999
f 714//1000 715//1000 719//1000
f 719//1000 715//1000 720//1000
f 715//1001 711//1001 720//1001
f 720//1001 711//1001 716//1001
f 716//1002 717//1002 721//1002
f 717//1003 718//1003 721//1003
f 718//1004 719//1004 721//1004
f 719//1005 720//1005 721//1005
f 720//1006 716//1006 721//1006
f 722//1007 724//1007 723//1007
f 722//1008 725//1008 724//1008
f 722//1009 726//1009 725//1009
f 722//1010 727//1010 726//1010
f 722//1011 723//1011 727//1011
f 723//1012 724//1012 728//1012
f 728//1012 724//1012 729//1012
f 724//1013 725//1013 729//1013
f 729//1014 725//1014 730//1014
f 725//1015 726//1015 730//1015
f 730//1015 726//1015 731//1015
f 726//1016 727//1016 731//1016
f 731//1016 727//1016 732//1016
f 727//1017 723//1017 732//1017
f 732//1017 723//1017 728//1017
f 728//1018 729//1018 733//1018
f 729//1019 730//1019 733//1019
f 730//1020 731//1020 733//1020
f 731//1021 732//1021 733//1021
f 732//1022 728//1022 733//1022
f 735//1023 764//1023 734//1023
f 734//1024 764//1024 744//1024
f 735//1025 736//1025 764//1025
f 764//1026 736//1026 746//1026
f 737//1027 763//1027 736//1027
f 736//1028 763//1028 746//1028
f 737//1029 738//1029 763//1029
f 763//1030 738//1030 762//1030
f 739//1031 761//1031 738//1031
f 738//1032 761//1032 762//1032
f 740//1033 760//1033 739//1033
f 739//1033 760//1033 761//1033
f 740//1034 741//1034 760//1034
f 742//1035 766//1035 741//1035
f 741//1036 766//1036 760//1036
f 743//1037 765//1037 742//1037
f 742//1037 765//1037 766//1037
f 743//1038 734//1038 765//1038
f 765//1039 734//1039 744//1039
f 744//1040 745//1040 753//1040
f 746//1041 754//1041 745//1041
f 745//1042 754//1042 753//1042
f 746//1043 747//1043 754//1043
f 747//1044 748//1044 754//1044
f 754//1045 748//1045 755//1045
f 748//1046 749//1046 755//1046
f 749//1047 756//1047 755//1047
f 749//1048 750//1048 756//1048
f 750//1049 751//1049 756//1049
f 756//1050 751//1050 757//1050
f 751//1051 752//1051 757//1051
f 757//1051 752//1051 758//1051
f 744//1052 753//1052 752//1052
f 752//1053 753//1053 758//1053
f 753//1054 754//1054 759//1054
f 754//1055 755//1055 759//1055
f 755//1056 756//1056 759//1056
f 756//1057 757//1057 759//1057
f 757//1058 758//1058 759//1058
f 758//1059 753//1059 759//1059
f 760//1060 750//1060 749//1060
f 761//1061 760//1061 749//1061
f 762//1062 761//1062 748//1062
f 748//1063 761//1063 749//1063
f 762//1064 748//1064 763//1064
f 763//1065 748//1065 747//1065
f 746//1066 763//1066 747//1066
f 764//1067 746//1067 745//1067
f 744//1068 764//1068 745//1068
f 765//1069 744//1069 752//1069
f 765//1070 752//1070 766//1070
f 766//1070 752//1070 751//1070
f 760//1071 766//1071 750//1071
f 750//1072 766//1072 751//1072
f 735//1073 734//1073 768//1073
f 768//1073 734//1073 767//1073
f 735//1074 768//1074 736//1074
f 736//1074 768//1074 769//1074
f 737//1075 736//1075 770//1075
f 770//1075 736//1075 769//1075
f 737//1076 770//1076 738//1076
f 738//1076 770//1076 771//1076
f 739//1077 738//1077 772//1077
f 772//1077 738//1077 771//1077
f 739//1078 772//1078 740//1078
f 740//1079 772//1079 773//1079
f 740//1080 773//1080 741//1080
f 741//1080 773//1080 774//1080
f 742//1081 741//1081 775//1081
f 775//1081 741//1081 774//1081
f 742//1082 775//1082 743//1082
f 743//1082 775//1082 776//1082
f 743//1083 776//1083 734//1083
f 734//1083 776//1083 767//1083
f 768//1084 767//1084 777//1084
f 769//1085 768//1085 777//1085
f 770//1086 769//1086 777//1086
f 771//1087 770//1087 777//1087
f 772//1088 771//1088 777//1088
f 773//1089 772//1089 777//1089
f 774//1090 773//1090 777//1090
f 775//1091 774//1091 777//1091
f 776//1092 775//1092 777//1092
f 767//1093 776//1093 777//1093