mtllib flat.mtl
v 0.321021 -0.007146 -0.00433
v -0.151017 0.103059 -0.534345
v 0.328997 0.251561 -0.996949
v 0.811447 0.246293 -0.691474
v 0.318768 -0.007146 -1.116363
v 0.993076 -0.007146 -0.704477
v 0.299332 0.098123 -1.094104
v 0.969458 0.102755 -0.706376
v -0.130914 -0.007146 -0.473657
v -0.178119 -0.007146 -0.740387
v 0.202762 0.272245 -0.292309
v 0.619429 0.319616 -0.314375
v 0.032554 0.108885 -0.891482
v 0.013314 -0.007146 -0.960016
v 0.717702 0.095819 -0.33533
v 0.745567 -0.007146 -0.330702
v 0.041399 -0.007146 0.399024
v -0.506235 0.182275 0.191113
v -0.506047 0.184186 -0.203849
v -0.045231 0.223653 -0.2881
v -0.578652 -0.007146 -0.270152
v 0.057037 -0.007146 -0.396991
v -0.571938 0.103349 0.262583
v -0.577985 0.099299 -0.245918
v 0.041741 0.1031 -0.384995
v 0.033681 0.100262 0.389769
v -0.492182 -0.007146 0.367513
v -0.669039 -0.007146 0.232969
v -0.208536 0.270094 0.226464
v 0.03039 0.267967 -0.018657
v -0.019115 0.194546 0.311421
v -0.554156 0.169063 0.02459
v -0.626091 0.108128 0.024665
v -0.67582 -0.007146 -0.005949
v 0.096397 0.097409 -0.021229
v 0.115771 -0.007146 -0.033942
v -0.454595 -0.007146 0.590361
v -0.508926 0.027775 0.647735
v -0.515519 0.033537 0.493936
v -0.607502 -0.007146 0.491716
v -0.567546 -0.007146 0.651733
v -0.565775 0.033537 0.646363
v -0.620307 0.012602 0.568227
v -0.626698 -0.007146 0.549937
v -0.460987 0.012602 0.572072
v -0.513748 -0.007146 0.488565
v -0.473792 -0.007146 0.648583
v -0.593408 0.012602 0.486642
v 0.291257 -0.007146 0.317869
v 0.413116 0.045474 0.282173
v 0.272358 0.03127 0.342665
v 0.165935 -0.007146 0.412183
v 0.500277 -0.007146 0.389571
v 0.400126 0.065795 0.427853
v 0.24987 0.03288 0.513183
v 0.373443 -0.007146 0.480886
v 0.328604 0.048703 0.320032
v 0.371524 -0.007146 0.244354
v 0.196767 -0.007146 0.331995
v 0.19266 0.03127 0.386128
v 0.205707 0.022316 0.33646
v 0.427354 -0.007146 0.261709
v 0.186013 -0.007146 0.473718
v 0.478586 -0.007146 0.324836
v 0.470633 -0.007146 0.297104
v 0.473835 0.043865 0.416187
v 0.235349 -0.007146 0.533084
v 0.19329 -0.007146 0.500108
v 0.392342 0.03127 0.45609
v 0.470899 -0.007146 0.472645
v 0.461757 0.022316 0.467779
v 0.314704 -0.007146 0.527432
v 0.290209 -0.007146 0.548517
v 0.132094 -0.007146 0.578034
v 0.172914 0.063526 0.738467
v -0.060142 0.095903 0.634783
v -0.213733 -0.007146 0.738467
v 0.114397 -0.007146 0.846767
v 0.106867 0.0374 0.837621
v -0.092549 0.031737 0.846767
v -0.132094 -0.007146 0.837621
v -0.106867 0.0374 0.578034
v 0.057199 0.090971 0.621958
v 0.092549 0.031737 0.568888
v -0.114397 -0.007146 0.568888
v 0.213733 -0.007146 0.677187
v -0.206946 0.031737 0.707827
vn -0.0432 0.7081 0.7048
vn 0.4815 0.2655 -0.8353
vn 0.5188 0.0968 -0.8494
vn 0.8009 0.2414 0.5479
vn 0.8193 0.1854 0.5425
vn -0.9813 -0.0834 0.1737
vn 0.4463 0.5635 -0.6952
vn 0.4541 0.4123 -0.7898
vn -0.6987 0.2431 0.6728
vn -0.6707 0.4565 -0.5846
vn -0.6182 0.724 -0.3059
vn 0.8622 0.3437 0.3722
vn 0.6269 0.6447 0.4374
vn 0.0998 0.985 -0.1407
vn -0.1154 0.9921 -0.0498
vn -0.3762 0.9217 -0.0944
vn -0.6402 0.4031 0.654
vn -0.4991 0.5304 -0.6853
vn -0.4886 0.8396 -0.2374
vn -0.4532 0.1035 -0.8854
vn -0.5116 0.4983 -0.7
vn 0.5994 0.1904 0.7775
vn 0.5976 0.1967 0.7773
vn 0.2615 0.9331 0.2468
vn -0.215 0.2181 -0.952
vn -0.1951 0.0793 -0.9776
vn 0.97 0.1971 -0.1427
vn 0.9756 0.1525 -0.1578
vn -0.5769 0.3037 0.7583
vn -0.6771 0.7163 0.1685
vn -0.6413 0.7572 0.1245
vn -0.1964 0.5243 -0.8286
vn -0.185 0.5578 -0.8091
vn -0.1587 0.6173 0.7706
vn -0.0588 0.0815 0.9949
vn -0.9204 0.3901 0.0261
vn -0.7622 0.62 0.1859
vn 0.8863 0.3476 -0.3059
vn 0.7646 0.6359 -0.1049
vn -0.1085 0.9854 -0.1316
vn -0.1131 0.9865 -0.1188
vn -0.2827 0.9592 0.004
vn -0.2835 0.9589 0.0055
vn -0.1379 0.7254 0.6743
vn -0.2131 0.5511 0.8068
vn -0.2277 0.418 0.8794
vn -0.7165 0.6814 -0.1496
vn -0.6441 0.7602 -0.0853
vn -0.9352 0.0842 -0.3439
vn -0.8872 0.4283 -0.1717
vn 0.8198 0.5597 0.1212
vn 0.912 0.3497 0.2146
vn 0.982 0.0851 0.1687
vn 0.9755 0.1628 0.1477
vn 0.7362 -0.316 -0.5985
vn 0.86 0.1034 -0.4997
vn -0.0333 0.1294 -0.991
vn 0.6714 0.6826 0.2885
vn 0.8153 0.5128 0.2688
vn 0.2514 0.9643 0.0829
vn 0.1837 -0.3655 -0.9125
vn 0.1031 0.9858 -0.1324
vn 0.0335 0.058 0.9978
vn -0.2514 0.9643 -0.0829
vn -0.8153 0.5128 -0.2688
vn -0.0106 0.1313 0.9913
vn -0.86 0.1034 0.4997
vn -0.7362 -0.316 0.5985
vn -0.6088 0.4329 -0.6648
vn -0.438 0.3254 -0.838
vn -0.2721 0.6941 -0.6665
vn -0.1287 0.4923 -0.8609
vn 0.075 0.1271 -0.989
vn -0.8648 0.3761 -0.3325
vn -0.9013 0.3181 -0.2941
vn -0.1116 0.9725 -0.2046
vn 0.2705 0.4116 -0.8703
vn -0.2827 0.9585 0.0356
vn -0.0055 0.9999 -0.0102
vn -0.7166 0.6571 0.2338
vn -0.6263 0.7303 0.2728
vn 0.5724 0.4271 -0.6999
vn 0.6891 0.6972 -0.1976
vn -0.025 0.9898 -0.1403
vn 0.2675 0.9573 -0.1097
vn 0.7924 0.5493 -0.2655
vn 0.7107 0.6293 -0.3144
vn -0.2356 0.971 -0.0402
vn -0.5255 0.5239 0.6703
vn -0.5947 0.7871 0.164
vn 0.8993 0.3002 0.318
vn 0.8794 0.3296 0.3435
vn 0.3193 0.8455 0.4279
vn -0.0469 0.6387 0.768
vn 0.0722 0.5156 0.8538
vn -0.1504 0.1155 0.9819
vn 0.3142 0.5576 0.7684
vn 0.609 0.1964 0.7685
vn 0.2768 0.6874 0.6714
vn 0.3927 0.7985 0.4562
vn -0.2346 0.4997 0.8338
vn -0.0519 -0.2784 -0.9591
vn -0.0463 0.7143 -0.6983
vn -0.0156 0.662 -0.7493
vn 0.5771 0.7084 -0.4063
vn 0.0364 0.1951 -0.9801
vn -0.8372 0.2422 -0.4904
vn 0.5896 0.696 -0.4099
vn 0.6515 0.5364 -0.5364
vn 0.0656 0.9718 0.2263
vn -0.5198 0.7713 -0.3672
vn -0.74 -0.3319 -0.5851
vn -0.0163 0.9695 0.2446
vn 0.8613 0.06 0.5045
vn -0.2877 0.928 0.2369
vn -0.014 0.9576 0.2877
vn -0.6515 0.5364 0.5364
vn 0.7741 0.2503 0.5816
vn -0.0364 0.1951 0.9801
vn 0.0519 -0.2784 0.9591
usemtl Elf_bush_Map
f 1//1 12//1 11//1
f 7//2 8//2 5//2
f 5//3 8//3 6//3
f 15//4 16//4 8//4
f 8//5 16//5 6//5
f 2//6 10//6 9//6
f 4//7 8//7 3//7
f 3//8 8//8 7//8
f 2//9 9//9 1//9
f 14//10 10//10 13//10
f 13//11 10//11 2//11
f 12//12 15//12 4//12
f 4//13 15//13 8//13
f 4//14 3//14 12//14
f 12//15 3//15 11//15
f 3//16 2//16 11//16
f 1//17 11//17 2//17
f 7//18 13//18 3//18
f 3//19 13//19 2//19
f 5//20 14//20 7//20
f 7//21 14//21 13//21
f 1//22 15//22 12//22
f 1//23 16//23 15//23
f 31//24 30//24 29//24
f 24//25 25//25 21//25
f 21//26 25//26 22//26
f 35//27 36//27 25//27
f 25//28 36//28 22//28
f 23//29 28//29 27//29
f 23//30 18//30 33//30
f 33//31 18//31 32//31
f 20//32 25//32 19//32
f 19//33 25//33 24//33
f 23//34 27//34 26//34
f 26//35 27//35 17//35
f 34//36 28//36 33//36
f 33//37 28//37 23//37
f 30//38 35//38 20//38
f 20//39 35//39 25//39
f 20//40 19//40 30//40
f 30//41 19//41 29//41
f 19//42 32//42 29//42
f 18//43 29//43 32//43
f 23//44 26//44 18//44
f 26//45 31//45 18//45
f 31//46 29//46 18//46
f 24//47 33//47 19//47
f 19//48 33//48 32//48
f 21//49 34//49 24//49
f 24//50 34//50 33//50
f 26//51 35//51 31//51
f 31//52 35//52 30//52
f 17//53 36//53 26//53
f 26//54 36//54 35//54
f 45//55 37//55 39//55
f 39//56 37//56 46//56
f 46//57 40//57 39//57
f 38//58 47//58 45//58
f 45//59 47//59 37//59
f 39//60 42//60 45//60
f 39//61 40//61 48//61
f 45//62 42//62 38//62
f 38//63 41//63 47//63
f 48//64 43//64 39//64
f 39//64 43//64 42//64
f 43//65 48//65 44//65
f 44//65 48//65 40//65
f 41//66 38//66 42//66
f 42//67 44//67 41//67
f 43//68 44//68 42//68
f 58//69 49//69 57//69
f 57//70 49//70 51//70
f 57//71 50//71 58//71
f 49//72 59//72 51//72
f 51//73 59//73 61//73
f 52//74 60//74 59//74
f 59//75 60//75 61//75
f 60//76 51//76 61//76
f 58//77 50//77 62//77
f 57//78 51//78 54//78
f 55//79 51//79 60//79
f 52//80 63//80 60//80
f 60//81 63//81 55//81
f 62//82 50//82 65//82
f 65//83 50//83 64//83
f 57//84 54//84 50//84
f 50//85 54//85 66//85
f 53//86 64//86 66//86
f 66//87 64//87 50//87
f 54//88 51//88 55//88
f 67//89 55//89 68//89
f 68//90 55//90 63//90
f 53//91 66//91 70//91
f 70//92 66//92 71//92
f 66//93 54//93 71//93
f 71//94 54//94 69//94
f 56//95 70//95 69//95
f 69//96 70//96 71//96
f 69//97 54//97 55//97
f 56//98 69//98 72//98
f 72//99 69//99 55//99
f 72//100 55//100 73//100
f 73//101 55//101 67//101
f 84//102 74//102 82//102
f 76//103 83//103 82//103
f 82//104 83//104 84//104
f 83//105 75//105 84//105
f 82//106 74//106 85//106
f 85//107 77//107 82//107
f 75//108 86//108 84//108
f 84//109 86//109 74//109
f 76//110 79//110 83//110
f 87//111 76//111 82//111
f 82//112 77//112 87//112
f 83//113 79//113 75//113
f 75//114 78//114 86//114
f 87//115 80//115 76//115
f 76//116 80//116 79//116
f 80//117 87//117 81//117
f 81//117 87//117 77//117
f 78//118 75//118 79//118
f 79//119 81//119 78//119
f 80//120 81//120 79//120