mtllib flat.mtl
v 0.367788 0.010047 0.499599
v 0.082229 0.923571 0.285328
v 0.178174 1.019298 0.099003
v -0.070862 0.926563 0.114553
v 0.086007 0.913139 0.004813
v -0.728825 0.010047 0.01918
v -0.023287 0.010047 -0.394848
v -0.524357 0.461334 0.119769
v -0.00798 0.451646 -0.272699
v 0.382391 0.450356 0.355473
v 0.054529 0.663242 -0.212008
v -0.390822 0.65711 0.100962
v 0.41675 0.674861 0.204973
v -0.617724 0.235117 0.127246
v -0.02389 0.235167 -0.347251
v 0.384497 0.223899 0.420427
v 0.058369 0.647957 0.370332
v 0.016485 1.016321 0.035309
v -0.204767 0.654501 -0.168363
v -0.352365 0.46024 -0.256717
v -0.394159 0.243567 -0.237077
v -0.419641 0.010047 -0.236583
v 0.250298 0.010047 0.658016
v 0.223968 0.231259 0.572636
v 0.200798 0.446738 0.481714
v -0.220468 0.421414 0.489927
v -0.525407 0.010047 0.474784
v 0.44702 0.010047 -0.062815
v 0.285506 0.239745 -0.122527
v 0.267467 0.451887 -0.117736
v 0.254405 0.668427 -0.094394
v 0.175496 0.913906 0.00744
v -0.02132 0.667037 0.516255
v -0.339399 0.010047 0.645634
v -0.148825 0.010047 0.757002
v -0.10113 0.226691 0.683767
v -0.083308 0.442647 0.590916
v 0.0239 0.443076 0.452884
v -0.00707 0.228251 0.525935
v -0.004462 0.010047 0.622563
v 0.308824 0.842107 0.15405
v 0.273808 0.842618 -0.05647
v -0.575722 0.032337 0.020254
v -0.479011 0.234282 -0.177764
v -0.287549 0.217406 -0.33885
v -0.189983 0.010047 -0.388466
v -0.710444 0.118152 0.043699
v -0.690507 0.010047 0.130347
v -0.629961 0.010047 -0.071169
v 0.427867 0.447891 0.025952
v 0.44365 0.242163 0.02084
vn -0.7292 0.6242 0.2804
vn -0.1413 0.9778 -0.1546
vn 0.6449 0.2674 -0.7159
vn -0.7836 0.5895 -0.196
vn -0.5784 0.7073 -0.4064
vn 0.5462 0.8329 -0.0888
vn 0.7656 0.4107 -0.4951
vn -0.6137 0.662 -0.4303
vn -0.7863 0.5017 -0.3607
vn 0.8057 0.3907 -0.4453
vn 0.6641 0.1196 -0.738
vn -0.5752 0.0369 -0.8172
vn 0.6694 0.0697 -0.7396
vn 0.6664 0.0734 -0.7419
vn 0.5446 0.2038 0.8136
vn 0.5529 0.5904 0.588
vn -0.1562 0.5553 -0.8168
vn 0.4917 0.5345 -0.6874
vn -0.031 0.4332 -0.9008
vn -0.1678 0.3173 -0.9334
vn -0.6806 0.0651 -0.7297
vn -0.6793 0.0726 -0.7303
vn -0.5506 -0.0599 -0.8326
vn 0.7638 0.3095 0.5664
vn 0.678 0.208 0.705
vn 0.4251 0.6497 0.6302
vn 0.335 0.4887 0.8055
vn -0.8214 0.3538 0.4473
vn -0.6584 0.4663 0.5908
vn -0.8875 0.1773 0.4254
vn -0.8294 0.3419 0.4418
vn 0.5663 0.1897 -0.8021
vn 0.5774 0.1704 -0.7985
vn 0.4894 0.0613 -0.8699
vn 0.5697 0.2299 -0.789
vn 0.501 0.1226 -0.8567
vn 0.4876 0.1046 -0.8668
vn 0.0157 0.6794 -0.7336
vn -0.0004 0.6554 -0.7553
vn 0.3182 0.4595 -0.8292
vn 0.0165 0.6555 -0.755
vn -0.248 0.7655 0.5937
vn -0.3165 0.9001 0.2995
vn -0.5724 0.6548 0.4936
vn -0.5459 0.6715 0.5011
vn -0.6444 0.4955 0.5825
vn -0.6629 0.4754 0.5784
vn 0.5517 0.2347 0.8003
vn 0.6522 0.3532 0.6708
vn -0.468 0.3737 0.8008
vn -0.5098 0.4295 0.7454
vn -0.5887 0.3598 0.7239
vn -0.5833 0.3969 0.7087
vn -0.1869 0.3959 0.8991
vn -0.1294 0.3436 0.9302
vn -0.6112 0.4286 0.6654
vn -0.1582 0.3383 0.9277
vn -0.1891 0.3644 0.9118
vn -0.1559 0.3916 0.9068
vn 0.8489 0.1481 0.5074
vn 0.7861 0.0944 0.6109
vn 0.6783 0.0969 0.7284
vn 0.8347 0.2313 0.4997
vn 0.8793 0.0692 0.4712
vn 0.7897 -0.0141 0.6133
vn 0.8792 0.0433 0.4745
vn 0.341 0.4682 0.8152
vn 0.8077 0.3853 -0.4463
vn 0.9837 -0.0739 -0.1638
vn 0.5003 0.1306 -0.856
vn -0.6371 0.7134 -0.2917
vn -0.8543 0.3421 -0.3913
vn -0.8556 0.3402 -0.3901
vn -0.0363 0.3115 -0.9496
vn -0.0522 0.3286 -0.943
vn -0.0454 0.2122 -0.9762
vn -0.0374 0.2066 -0.9777
vn -0.4503 -0.5058 -0.7358
vn -0.026 0.2253 -0.9739
vn -0.9419 0.0865 0.3247
vn -0.5763 0.0612 -0.8149
vn -0.6176 0.0425 -0.7853
vn 0.9888 -0.0596 0.1369
vn 0.9875 0.0518 0.1486
vn 0.9881 0.0724 0.1358
vn 0.9896 -0.0359 0.1394
vn 0.9891 -0.0235 0.1453
usemtl Elf_bush_Map
f 44//1 49//1 43//1
f 43//2 49//2 6//2
f 51//3 28//3 29//3
f 18//4 19//4 4//4
f 4//5 19//5 12//5
f 42//6 32//6 41//6
f 41//7 32//7 3//7
f 19//8 20//8 12//8
f 12//9 20//9 8//9
f 13//10 50//10 31//10
f 31//11 50//11 30//11
f 20//12 21//12 44//12
f 51//13 29//13 50//13
f 50//14 29//14 30//14
f 17//15 41//15 2//15
f 2//16 41//16 3//16
f 19//17 18//17 11//17
f 11//18 18//18 5//18
f 20//19 19//19 9//19
f 9//20 19//20 11//20
f 21//21 20//21 45//21
f 21//22 45//22 22//22
f 22//23 45//23 46//23
f 23//24 1//24 24//24
f 24//25 1//25 16//25
f 25//26 10//26 17//26
f 17//27 10//27 13//27
f 14//28 27//28 8//28
f 8//29 27//29 26//29
f 48//30 27//30 47//30
f 47//31 27//31 14//31
f 28//32 7//32 29//32
f 29//33 7//33 15//33
f 30//34 29//34 9//34
f 9//35 29//35 15//35
f 31//36 30//36 11//36
f 11//37 30//37 9//37
f 32//38 42//38 5//38
f 5//39 42//39 11//39
f 18//40 3//40 5//40
f 5//41 3//41 32//41
f 18//42 4//42 3//42
f 3//43 4//43 2//43
f 12//44 33//44 4//44
f 4//45 33//45 2//45
f 8//46 26//46 12//46
f 12//47 26//47 33//47
f 10//48 25//48 16//48
f 16//49 25//49 24//49
f 34//50 35//50 36//50
f 34//51 36//51 26//51
f 26//52 36//52 37//52
f 26//53 37//53 33//53
f 39//54 40//54 24//54
f 24//55 40//55 23//55
f 34//56 26//56 27//56
f 38//57 39//57 25//57
f 25//58 39//58 24//58
f 17//59 38//59 25//59
f 36//60 39//60 37//60
f 37//61 39//61 38//61
f 35//62 40//62 36//62
f 36//63 40//63 39//63
f 33//64 17//64 2//64
f 37//65 38//65 33//65
f 33//66 38//66 17//66
f 17//67 13//67 41//67
f 13//68 31//68 41//68
f 41//69 31//69 42//69
f 11//70 42//70 31//70
f 44//71 47//71 14//71
f 20//72 44//72 8//72
f 8//73 44//73 14//73
f 20//74 9//74 45//74
f 45//75 9//75 15//75
f 45//76 15//76 46//76
f 46//77 15//77 7//77
f 44//78 43//78 47//78
f 43//79 6//79 47//79
f 6//80 48//80 47//80
f 21//81 22//81 44//81
f 44//82 22//82 49//82
f 10//83 50//83 13//83
f 16//84 51//84 10//84
f 10//85 51//85 50//85
f 28//86 51//86 1//86
f 1//87 51//87 16//87