mtllib container.mtl
v 0.287500 0.400000 0.000000
v 0.203293 0.400000 0.203293
v 0.203293 0.400000 -0.203293
v 0.000000 0.400000 -0.287500
v 0.000000 0.400000 0.287500
v -0.203293 0.400000 -0.203293
v -0.203293 0.400000 0.203293
v -0.287500 0.400000 0.000000
v -0.203293 0.200000 -0.203293
v 0.000000 0.200000 -0.287500
v 0.287500 0.200000 0.000000
v 0.203293 0.200000 0.203293
v 0.000000 0.200000 0.287500
v -0.287500 0.200000 0.000000
v 0.203293 0.200000 -0.203293
v -0.203293 0.200000 0.203293
v 0.200000 0.000000 0.000000
v 0.141421 0.000000 -0.141421
v 0.141421 0.000000 0.141421
v -0.000000 0.000000 0.200000
v -0.000000 0.000000 -0.200000
v -0.141421 0.000000 0.141421
v -0.141421 0.000000 -0.141421
v -0.200000 0.000000 0.000000
v 0.000000 0.100000 0.250000
v -0.176777 0.100000 0.176777
v 0.000000 0.500000 0.250000
v -0.176777 0.500000 0.176777
v -0.176777 0.100000 -0.176777
v -0.176777 0.500000 -0.176777
v -0.250000 0.100000 0.000000
v -0.250000 0.500000 0.000000
v 0.250000 0.500000 0.000000
v 0.250000 0.100000 0.000000
v 0.176777 0.500000 0.176777
v 0.176777 0.100000 0.176777
v 0.176777 0.500000 -0.176777
v 0.176777 0.100000 -0.176777
v 0.000000 0.100000 -0.250000
v 0.000000 0.500000 -0.250000
v 0.200000 0.600000 0.000000
v 0.141421 0.600000 0.141421
v 0.141421 0.600000 -0.141421
v -0.000000 0.600000 -0.200000
v -0.000000 0.600000 0.200000
v -0.141421 0.600000 -0.141421
v -0.141421 0.600000 0.141421
v -0.200000 0.600000 0.000000
vn 0.000000 1.000000 0.000000
vn -0.707107 0.000000 -0.707107
vn 0.000000 0.000000 -1.000000
vn 1.000000 0.000000 0.000000
vn 0.707107 0.000000 0.707107
vn 0.000000 0.000000 1.000000
vn -1.000000 0.000000 0.000000
vn 0.707107 0.000000 -0.707107
vn 0.000000 -1.000000 0.000000
vn -0.707107 0.000000 0.707107
vn 0.000000 -0.447214 0.894427
vn -0.632455 -0.447214 0.632455
vn -0.894427 -0.447214 0.000000
vn 0.632455 -0.447214 0.632455
vn -0.632455 -0.447214 -0.632455
vn 0.000000 -0.447214 -0.894427
vn 0.632455 -0.447214 -0.632455
vn 0.894427 -0.447214 0.000000
vn 0.894427 0.447214 0.000000
vn 0.632455 0.447214 0.632455
vn 0.000000 0.447214 0.894427
vn 0.632455 0.447214 -0.632455
vn -0.632455 0.447214 -0.632455
vn 0.000000 0.447214 -0.894427
vn -0.894427 0.447214 0.000000
vn -0.632455 0.447214 0.632455
usemtl colormap
f 3/1/1 2/1/1 1/1/1
f 2/1/1 3/1/1 4/1/1
f 2/1/1 4/1/1 5/1/1
f 5/1/1 4/1/1 6/1/1
f 5/1/1 6/1/1 7/1/1
f 7/1/1 6/1/1 8/1/1
f 6/1/2 10/2/3 9/2/2
f 10/2/3 6/1/2 4/1/3
f 2/1/5 11/2/4 1/1/4
f 11/2/4 2/1/5 12/2/5
f 2/1/5 13/2/6 12/2/5
f 13/2/6 2/1/5 5/1/6
f 14/2/7 6/1/2 9/2/2
f 6/1/2 14/2/7 8/1/7
f 1/1/4 15/2/8 3/1/8
f 15/2/8 1/1/4 11/2/4
f 12/2/9 15/2/9 11/2/9
f 15/2/9 12/2/9 13/2/9
f 15/2/9 13/2/9 10/2/9
f 10/2/9 13/2/9 16/2/9
f 10/2/9 16/2/9 9/2/9
f 9/2/9 16/2/9 14/2/9
f 5/1/6 16/2/10 13/2/6
f 16/2/10 5/1/6 7/1/10
f 4/1/3 15/2/8 10/2/3
f 15/2/8 4/1/3 3/1/8
f 16/2/10 8/1/7 14/2/7
f 8/1/7 16/2/10 7/1/10
f 19/3/9 18/3/9 17/3/9
f 18/3/9 19/3/9 20/3/9
f 18/3/9 20/3/9 21/3/9
f 21/3/9 20/3/9 22/3/9
f 21/3/9 22/3/9 23/3/9
f 23/3/9 22/3/9 24/3/9
f 27/5/6 26/4/10 25/4/6
f 26/4/10 27/5/6 28/5/10
f 31/4/7 30/5/2 29/4/2
f 30/5/2 31/4/7 32/5/7
f 35/5/5 34/4/4 33/5/4
f 34/4/4 35/5/5 36/4/5
f 33/5/4 38/4/8 37/5/8
f 38/4/8 33/5/4 34/4/4
f 35/5/5 25/4/6 36/4/5
f 25/4/6 35/5/5 27/5/6
f 30/5/2 39/4/3 29/4/2
f 39/4/3 30/5/2 40/5/3
f 26/4/10 32/5/7 31/4/7
f 32/5/7 26/4/10 28/5/10
f 40/5/3 38/4/8 39/4/3
f 38/4/8 40/5/3 37/5/8
f 25/4/11 22/3/12 20/3/11
f 22/3/12 25/4/11 26/4/12
f 22/3/12 31/4/13 24/3/13
f 31/4/13 22/3/12 26/4/12
f 36/4/14 20/3/11 19/3/14
f 20/3/11 36/4/14 25/4/11
f 29/4/15 21/3/16 23/3/15
f 21/3/16 29/4/15 39/4/16
f 34/4/18 18/3/17 38/4/17
f 18/3/17 34/4/18 17/3/18
f 39/4/16 18/3/17 21/3/16
f 18/3/17 39/4/16 38/4/17
f 23/3/15 31/4/13 29/4/15
f 31/4/13 23/3/15 24/3/13
f 36/4/14 17/3/18 34/4/18
f 17/3/18 36/4/14 19/3/14
f 42/6/20 33/5/19 41/6/19
f 33/5/19 42/6/20 35/5/20
f 43/6/1 42/6/1 41/6/1
f 42/6/1 43/6/1 44/6/1
f 42/6/1 44/6/1 45/6/1
f 45/6/1 44/6/1 46/6/1
f 45/6/1 46/6/1 47/6/1
f 47/6/1 46/6/1 48/6/1
f 42/6/20 27/5/21 35/5/20
f 27/5/21 42/6/20 45/6/21
f 43/6/22 33/5/19 37/5/22
f 33/5/19 43/6/22 41/6/19
f 46/6/23 40/5/24 30/5/23
f 40/5/24 46/6/23 44/6/24
f 44/6/24 37/5/22 40/5/24
f 37/5/22 44/6/24 43/6/22
f 32/5/25 46/6/23 30/5/23
f 46/6/23 32/5/25 48/6/25
f 45/6/21 28/5/26 27/5/21
f 28/5/26 45/6/21 47/6/26
f 28/5/26 48/6/25 32/5/25
f 48/6/25 28/5/26 47/6/26
f 3/1/1 2/1/1 1/1/1
f 2/1/1 3/1/1 4/1/1
f 2/1/1 4/1/1 5/1/1
f 5/1/1 4/1/1 6/1/1
f 5/1/1 6/1/1 7/1/1
f 7/1/1 6/1/1 8/1/1
f 6/1/2 10/2/3 9/2/2
f 10/2/3 6/1/2 4/1/3
f 2/1/5 11/2/4 1/1/4
f 11/2/4 2/1/5 12/2/5
f 2/1/5 13/2/6 12/2/5
f 13/2/6 2/1/5 5/1/6
f 14/2/7 6/1/2 9/2/2
f 6/1/2 14/2/7 8/1/7
f 1/1/4 15/2/8 3/1/8
f 15/2/8 1/1/4 11/2/4
f 12/2/9 15/2/9 11/2/9
f 15/2/9 12/2/9 13/2/9
f 15/2/9 13/2/9 10/2/9
f 10/2/9 13/2/9 16/2/9
f 10/2/9 16/2/9 9/2/9
f 9/2/9 16/2/9 14/2/9
f 5/1/6 16/2/10 13/2/6
f 16/2/10 5/1/6 7/1/10
f 4/1/3 15/2/8 10/2/3
f 15/2/8 4/1/3 3/1/8
f 16/2/10 8/1/7 14/2/7
f 8/1/7 16/2/10 7/1/10
f 19/3/9 18/3/9 17/3/9
f 18/3/9 19/3/9 20/3/9
f 18/3/9 20/3/9 21/3/9
f 21/3/9 20/3/9 22/3/9
f 21/3/9 22/3/9 23/3/9
f 23/3/9 22/3/9 24/3/9
f 27/5/6 26/4/10 25/4/6
f 26/4/10 27/5/6 28/5/10
f 31/4/7 30/5/2 29/4/2
f 30/5/2 31/4/7 32/5/7
f 35/5/5 34/4/4 33/5/4
f 34/4/4 35/5/5 36/4/5
f 33/5/4 38/4/8 37/5/8
f 38/4/8 33/5/4 34/4/4
f 35/5/5 25/4/6 36/4/5
f 25/4/6 35/5/5 27/5/6
f 30/5/2 39/4/3 29/4/2
f 39/4/3 30/5/2 40/5/3
f 26/4/10 32/5/7 31/4/7
f 32/5/7 26/4/10 28/5/10
f 40/5/3 38/4/8 39/4/3
f 38/4/8 40/5/3 37/5/8
f 25/4/11 22/3/12 20/3/11
f 22/3/12 25/4/11 26/4/12
f 22/3/12 31/4/13 24/3/13
f 31/4/13 22/3/12 26/4/12
f 36/4/14 20/3/11 19/3/14
f 20/3/11 36/4/14 25/4/11
f 29/4/15 21/3/16 23/3/15
f 21/3/16 29/4/15 39/4/16
f 34/4/18 18/3/17 38/4/17
f 18/3/17 34/4/18 17/3/18
f 39/4/16 18/3/17 21/3/16
f 18/3/17 39/4/16 38/4/17
f 23/3/15 31/4/13 29/4/15
f 31/4/13 23/3/15 24/3/13
f 36/4/14 17/3/18 34/4/18
f 17/3/18 36/4/14 19/3/14
f 42/6/20 33/5/19 41/6/19
f 33/5/19 42/6/20 35/5/20
f 43/6/1 42/6/1 41/6/1
f 42/6/1 43/6/1 44/6/1
f 42/6/1 44/6/1 45/6/1
f 45/6/1 44/6/1 46/6/1
f 45/6/1 46/6/1 47/6/1
f 47/6/1 46/6/1 48/6/1
f 42/6/20 27/5/21 35/5/20
f 27/5/21 42/6/20 45/6/21
f 43/6/22 33/5/19 37/5/22
f 33/5/19 43/6/22 41/6/19
f 46/6/23 40/5/24 30/5/23
f 40/5/24 46/6/23 44/6/24
f 44/6/24 37/5/22 40/5/24
f 37/5/22 44/6/24 43/6/22
f 32/5/25 46/6/23 30/5/23
f 46/6/23 32/5/25 48/6/25
f 45/6/21 28/5/26 27/5/21
f 28/5/26 45/6/21 47/6/26
f 28/5/26 48/6/25 32/5/25
f 48/6/25 28/5/26 47/6/26
