mtllib bridge_stone.mtl
v -0.400000 0.000000 -0.450000
v 0.400000 0.000000 -0.450000
v -0.400000 0.150000 -0.450000
v 0.400000 0.150000 -0.450000
v -0.500000 0.050000 0.400000
v -0.520000 0.050000 0.400000
v -0.500000 0.100000 0.400000
v -0.520000 0.100000 0.400000
v 0.520000 0.050000 0.400000
v 0.520000 0.050000 -0.400000
v 0.500000 0.050000 0.400000
v 0.500000 0.050000 -0.400000
v 0.500000 0.100000 -0.400000
v 0.520000 0.100000 -0.400000
v 0.420000 0.200000 -0.400000
v 0.420000 0.150000 -0.400000
v 0.420000 0.200000 0.400000
v 0.420000 0.150000 0.400000
v 0.520000 0.100000 0.400000
v 0.500000 0.100000 0.400000
v -0.500000 0.050000 -0.400000
v -0.500000 0.100000 -0.400000
v -0.520000 0.050000 -0.400000
v -0.520000 0.100000 -0.400000
v -0.400000 0.150000 0.400000
v -0.400000 0.150000 -0.400000
v -0.420000 0.150000 0.400000
v -0.420000 0.150000 -0.400000
v -0.420000 0.200000 -0.400000
v -0.420000 0.200000 0.400000
v 0.400000 0.100000 -0.400000
v 0.400000 0.100000 0.400000
v 0.400000 0.150000 0.400000
v 0.400000 0.150000 -0.400000
v -0.400000 0.100000 -0.400000
v -0.400000 0.100000 0.400000
v 0.400000 0.000000 0.450000
v -0.400000 0.000000 0.450000
v 0.400000 0.150000 0.450000
v -0.400000 0.150000 0.450000
v 0.380000 0.350000 0.380000
v 0.520000 0.350000 0.380000
v 0.380000 0.375000 0.380000
v 0.520000 0.375000 0.380000
v 0.380000 0.350000 0.520000
v 0.380000 0.375000 0.520000
v -0.520000 0.350000 -0.520000
v -0.380000 0.350000 -0.520000
v -0.520000 0.375000 -0.520000
v -0.380000 0.375000 -0.520000
v -0.380000 0.375000 0.520000
v -0.520000 0.375000 0.520000
v -0.397500 0.400000 0.502500
v -0.502500 0.400000 0.502500
v -0.502500 0.400000 -0.502500
v -0.397500 0.400000 -0.502500
v 0.397500 0.400000 0.397500
v 0.397500 0.400000 0.502500
v 0.520000 0.375000 -0.520000
v 0.520000 0.350000 -0.520000
v 0.520000 0.375000 -0.380000
v 0.520000 0.350000 -0.380000
v 0.502500 0.400000 -0.397500
v 0.397500 0.400000 -0.397500
v 0.502500 0.400000 -0.502500
v 0.397500 0.400000 -0.502500
v -0.380000 0.375000 -0.380000
v -0.397500 0.400000 -0.397500
v -0.380000 0.350000 -0.380000
v -0.520000 0.350000 -0.380000
v -0.520000 0.375000 -0.380000
v 0.520000 0.375000 0.520000
v 0.520000 0.350000 0.520000
v 0.380000 0.375000 -0.520000
v 0.380000 0.375000 -0.380000
v -0.380000 0.375000 0.380000
v -0.380000 0.350000 0.380000
v -0.380000 0.350000 0.520000
v -0.520000 0.350000 0.520000
v 0.502500 0.400000 0.397500
v -0.502500 0.400000 -0.397500
v -0.520000 0.375000 0.380000
v -0.502500 0.400000 0.397500
v -0.397500 0.400000 0.397500
v 0.502500 0.400000 0.502500
v -0.520000 0.350000 0.380000
v 0.380000 0.350000 -0.520000
v 0.380000 0.350000 -0.380000
v -0.400000 0.350000 0.400000
v -0.400000 0.300000 0.400000
v -0.400000 0.350000 0.500000
v -0.400000 0.300000 0.500000
v 0.400000 0.250000 -0.450000
v -0.400000 0.250000 -0.450000
v -0.500000 0.350000 0.500000
v -0.500000 0.350000 0.400000
v -0.400000 0.250000 -0.500000
v -0.400000 0.000000 -0.500000
v 0.500000 0.000000 0.500000
v 0.400000 0.000000 0.500000
v 0.500000 0.350000 0.500000
v 0.400000 0.250000 0.500000
v 0.400000 0.300000 0.500000
v -0.400000 0.250000 0.500000
v 0.400000 0.350000 0.500000
v -0.500000 0.000000 0.500000
v -0.400000 0.000000 0.500000
v 0.500000 0.350000 -0.400000
v 0.400000 0.350000 -0.400000
v 0.400000 0.350000 -0.500000
v 0.500000 0.350000 -0.500000
v -0.500000 0.350000 -0.500000
v -0.500000 0.000000 -0.500000
v -0.500000 0.350000 -0.400000
v 0.400000 0.250000 -0.500000
v -0.400000 0.300000 -0.500000
v 0.400000 0.300000 -0.500000
v -0.400000 0.350000 -0.500000
v 0.500000 0.000000 -0.500000
v 0.400000 0.000000 -0.500000
v 0.400000 0.300000 -0.400000
v -0.400000 0.300000 -0.400000
v -0.400000 0.350000 -0.400000
v 0.500000 0.350000 0.400000
v 0.400000 0.300000 0.400000
v 0.400000 0.350000 0.400000
v -0.400000 0.250000 0.450000
v 0.400000 0.250000 0.450000
vn 0.000000 0.000000 -1.000000
vn 0.000000 0.000000 1.000000
vn 0.000000 -1.000000 0.000000
vn 1.000000 0.000000 0.000000
vn 0.000000 1.000000 0.000000
vn -1.000000 0.000000 0.000000
vn 0.000000 0.573462 0.819232
vn 0.000000 0.573462 -0.819232
vn -0.819232 0.573462 0.000000
vn 0.819232 0.573462 0.000000
usemtl stone
f 3/3/1 2/2/1 1/1/1
f 2/2/1 3/3/1 4/4/1
f 7/7/2 6/6/2 5/5/2
f 6/6/2 7/7/2 8/8/2
f 11/11/3 10/10/3 9/9/3
f 10/10/3 11/11/3 12/12/3
f 13/7/1 10/6/1 12/5/1
f 10/6/1 13/7/1 14/8/1
f 17/14/4 16/3/4 15/13/4
f 16/3/4 17/14/4 18/4/4
f 19/17/2 11/16/2 9/15/2
f 11/16/2 19/17/2 20/18/2
f 23/15/1 22/18/1 21/16/1
f 22/18/1 23/15/1 24/17/1
f 27/21/3 26/20/3 25/19/3
f 26/20/3 27/21/3 28/22/3
f 29/23/5 17/21/5 15/22/5
f 17/21/5 29/23/5 30/24/5
f 13/27/5 19/26/5 14/25/5
f 19/26/5 13/27/5 20/28/5
f 20/28/5 13/27/5 31/20/5
f 20/28/5 31/20/5 32/19/5
f 33/29/3 16/23/3 18/24/3
f 16/23/3 33/29/3 34/30/3
f 6/26/3 21/27/3 5/28/3
f 21/27/3 6/26/3 23/25/3
f 27/3/6 29/14/6 28/4/6
f 29/14/6 27/3/6 30/13/6
f 6/33/6 24/32/6 23/31/6
f 24/32/6 6/33/6 8/34/6
f 22/12/5 36/29/5 35/30/5
f 36/29/5 22/12/5 7/11/5
f 7/11/5 22/12/5 24/10/5
f 7/11/5 24/10/5 8/9/5
f 19/32/4 10/33/4 14/34/4
f 10/33/4 19/32/4 9/31/4
f 39/3/2 38/2/2 37/1/2
f 38/2/2 39/3/2 40/4/2
f 43/37/1 42/36/1 41/35/1
f 42/36/1 43/37/1 44/38/1
f 45/41/6 43/40/6 41/39/6
f 43/40/6 45/41/6 46/42/6
f 49/42/1 48/39/1 47/41/1
f 48/39/1 49/42/1 50/40/1
f 53/45/7 52/44/7 51/43/7
f 52/44/7 53/45/7 54/46/7
f 55/49/8 50/48/8 49/47/8
f 50/48/8 55/49/8 56/50/8
f 46/53/9 57/52/9 43/51/9
f 57/52/9 46/53/9 58/54/9
f 61/40/4 60/41/4 59/42/4
f 60/41/4 61/40/4 62/39/4
f 65/57/5 64/56/5 63/55/5
f 64/56/5 65/57/5 66/58/5
f 56/54/10 67/51/10 50/53/10
f 67/51/10 56/54/10 68/52/10
f 67/37/2 70/36/2 69/35/2
f 70/36/2 67/37/2 71/38/2
f 72/38/4 42/35/4 44/37/4
f 42/35/4 72/38/4 73/36/4
f 75/61/9 66/60/9 74/59/9
f 66/60/9 75/61/9 64/62/9
f 47/36/6 71/37/6 49/38/6
f 71/37/6 47/36/6 70/35/6
f 51/38/4 77/35/4 76/37/4
f 77/35/4 51/38/4 78/36/4
f 63/54/7 75/51/7 61/53/7
f 75/51/7 63/54/7 64/52/7
f 51/37/2 79/36/2 78/35/2
f 79/36/2 51/37/2 52/38/2
f 57/62/8 44/59/8 43/61/8
f 44/59/8 57/62/8 80/60/8
f 71/43/9 55/46/9 49/44/9
f 55/46/9 71/43/9 81/45/9
f 68/62/7 71/59/7 67/61/7
f 71/59/7 68/62/7 81/60/7
f 56/65/5 81/64/5 68/63/5
f 81/64/5 56/65/5 55/66/5
f 67/40/4 48/41/4 50/42/4
f 48/41/4 67/40/4 69/39/4
f 83/54/8 76/51/8 82/53/8
f 76/51/8 83/54/8 84/52/8
f 85/49/7 46/48/7 72/47/7
f 46/48/7 85/49/7 58/50/7
f 79/41/6 82/40/6 86/39/6
f 82/40/6 79/41/6 52/42/6
f 84/69/5 54/68/5 53/67/5
f 54/68/5 84/69/5 83/70/5
f 72/42/2 45/39/2 73/41/2
f 45/39/2 72/42/2 46/40/2
f 65/49/10 61/48/10 59/47/10
f 61/48/10 65/49/10 63/50/10
f 52/47/9 83/50/9 82/48/9
f 83/50/9 52/47/9 54/49/9
f 88/35/6 74/38/6 87/36/6
f 74/38/6 88/35/6 75/37/6
f 80/73/5 58/72/5 85/71/5
f 58/72/5 80/73/5 57/74/5
f 61/42/2 88/39/2 62/41/2
f 88/39/2 61/42/2 75/40/2
f 82/42/1 77/39/1 86/41/1
f 77/39/1 82/42/1 76/40/1
f 84/62/10 51/59/10 76/61/10
f 51/59/10 84/62/10 53/60/10
f 80/45/10 72/44/10 44/43/10
f 72/44/10 80/45/10 85/46/10
f 66/45/8 59/44/8 74/43/8
f 59/44/8 66/45/8 65/46/8
f 74/37/1 60/36/1 87/35/1
f 60/36/1 74/37/1 59/38/1
usemtl stoneDark
f 91/77/4 90/76/4 89/75/4
f 90/76/4 91/77/4 92/78/4
f 3/3/1 93/79/1 4/4/1
f 93/79/1 3/3/1 94/80/1
f 78/83/3 91/82/3 77/81/3
f 91/82/3 78/83/3 79/84/3
f 91/82/3 79/84/3 95/85/3
f 95/85/3 79/84/3 96/28/3
f 89/19/3 77/81/3 91/82/3
f 77/81/3 89/19/3 86/86/3
f 86/86/3 89/19/3 96/28/3
f 86/86/3 96/28/3 79/84/3
f 94/89/4 98/88/4 97/87/4
f 98/88/4 94/89/4 1/90/4
f 1/90/4 94/89/4 3/91/4
f 36/34/6 26/4/6 35/32/6
f 26/4/6 36/34/6 25/3/6
f 33/4/4 31/34/4 34/3/4
f 31/34/4 33/4/4 32/32/4
f 101/94/2 100/93/2 99/92/2
f 100/93/2 101/94/2 102/80/2
f 102/80/2 101/94/2 103/95/2
f 102/80/2 103/95/2 104/79/2
f 104/79/2 103/95/2 92/76/2
f 103/95/2 101/94/2 105/96/2
f 95/77/2 104/79/2 92/76/2
f 106/97/2 104/79/2 95/77/2
f 104/79/2 106/97/2 107/98/2
f 95/77/2 92/76/2 91/75/2
f 62/100/3 108/12/3 60/99/3
f 108/12/3 62/100/3 88/101/3
f 108/12/3 88/101/3 109/30/3
f 109/30/3 88/101/3 110/102/3
f 111/103/3 60/99/3 108/12/3
f 60/99/3 111/103/3 87/104/3
f 87/104/3 111/103/3 110/102/3
f 87/104/3 110/102/3 88/101/3
f 113/105/6 21/31/6 112/77/6
f 21/31/6 113/105/6 106/106/6
f 21/31/6 106/106/6 5/33/6
f 5/33/6 106/106/6 95/94/6
f 95/94/6 7/34/6 5/33/6
f 7/34/6 95/94/6 96/96/6
f 22/32/6 112/77/6 21/31/6
f 112/77/6 22/32/6 114/75/6
f 94/108/3 115/102/3 93/107/3
f 115/102/3 94/108/3 97/109/3
f 112/94/1 98/111/1 113/110/1
f 98/111/1 112/94/1 97/80/1
f 97/80/1 112/94/1 116/95/1
f 97/80/1 116/95/1 115/79/1
f 115/79/1 116/95/1 117/76/1
f 116/95/1 112/94/1 118/96/1
f 111/77/1 115/79/1 117/76/1
f 119/112/1 115/79/1 111/77/1
f 115/79/1 119/112/1 120/113/1
f 111/77/1 117/76/1 110/75/1
f 108/94/2 16/114/2 13/18/2
f 16/114/2 108/94/2 15/115/2
f 15/115/2 108/94/2 121/95/2
f 15/115/2 121/95/2 29/116/2
f 121/95/2 108/94/2 109/96/2
f 122/76/2 29/116/2 121/95/2
f 114/77/2 29/116/2 122/76/2
f 114/77/2 28/117/2 29/116/2
f 114/77/2 35/32/2 28/117/2
f 35/32/2 114/77/2 22/7/2
f 28/117/2 35/32/2 26/4/2
f 114/77/2 122/76/2 123/75/2
f 34/3/2 13/18/2 16/114/2
f 13/18/2 34/3/2 31/34/2
f 33/4/1 20/7/1 32/32/1
f 20/7/1 33/4/1 18/117/1
f 18/117/1 124/77/1 20/7/1
f 124/77/1 18/117/1 17/116/1
f 124/77/1 17/116/1 125/76/1
f 125/76/1 17/116/1 30/115/1
f 125/76/1 30/115/1 90/95/1
f 30/115/1 96/94/1 90/95/1
f 27/114/1 96/94/1 30/115/1
f 36/34/1 96/94/1 27/114/1
f 96/94/1 36/34/1 7/18/1
f 36/34/1 27/114/1 25/3/1
f 90/95/1 96/94/1 89/96/1
f 124/77/1 125/76/1 126/75/1
f 123/96/4 116/118/4 118/94/4
f 116/118/4 123/96/4 122/95/4
f 121/76/6 110/77/6 117/78/6
f 110/77/6 121/76/6 109/75/6
f 117/109/5 122/30/5 121/20/5
f 122/30/5 117/109/5 116/102/5
f 69/120/3 123/20/3 48/119/3
f 123/20/3 69/120/3 70/121/3
f 123/20/3 70/121/3 114/27/3
f 114/27/3 70/121/3 112/122/3
f 118/109/3 48/119/3 123/20/3
f 48/119/3 118/109/3 47/123/3
f 47/123/3 118/109/3 112/122/3
f 47/123/3 112/122/3 70/121/3
f 108/96/4 119/124/4 111/94/4
f 119/124/4 108/96/4 12/33/4
f 12/33/4 108/96/4 13/34/4
f 12/33/4 99/125/4 119/124/4
f 99/125/4 12/33/4 11/31/4
f 99/125/4 11/31/4 20/32/4
f 99/125/4 20/32/4 101/77/4
f 101/77/4 20/32/4 124/75/4
f 103/118/6 126/96/6 125/95/6
f 126/96/6 103/118/6 105/94/6
f 39/3/2 127/79/2 40/4/2
f 127/79/2 39/3/2 128/80/2
f 100/127/6 39/91/6 37/126/6
f 39/91/6 100/127/6 128/89/6
f 128/89/6 100/127/6 102/87/6
f 73/130/3 101/129/3 42/128/3
f 101/129/3 73/130/3 45/131/3
f 101/129/3 45/131/3 105/132/3
f 105/132/3 45/131/3 126/29/3
f 124/11/3 42/128/3 101/129/3
f 42/128/3 124/11/3 41/133/3
f 41/133/3 124/11/3 126/29/3
f 41/133/3 126/29/3 45/131/3
f 106/85/3 38/134/3 107/82/3
f 38/134/3 106/85/3 1/108/3
f 1/108/3 106/85/3 98/109/3
f 98/109/3 106/85/3 113/122/3
f 2/107/3 38/134/3 1/108/3
f 38/134/3 2/107/3 37/135/3
f 119/103/3 37/135/3 2/107/3
f 119/103/3 100/132/3 37/135/3
f 100/132/3 119/103/3 99/129/3
f 119/103/3 2/107/3 120/102/3
f 2/138/6 115/137/6 120/136/6
f 115/137/6 2/138/6 93/139/6
f 93/139/6 2/138/6 4/140/6
f 104/137/4 40/140/4 127/139/4
f 40/140/4 104/137/4 38/141/4
f 38/141/4 104/137/4 107/142/4
f 90/29/5 103/82/5 125/19/5
f 103/82/5 90/29/5 92/132/5
f 104/82/3 128/135/3 102/132/3
f 128/135/3 104/82/3 127/134/3
