mtllib lily_small.mtl
v 0.000000 0.000000 0.100000
v -0.086603 0.000000 0.050000
v 0.000000 0.020000 0.100000
v -0.086603 0.020000 0.050000
v -0.086603 0.020000 -0.050000
v 0.000000 0.020000 -0.100000
v -0.094397 0.040000 -0.054500
v 0.000000 0.040000 -0.109000
v 0.000000 0.000000 -0.100000
v 0.086603 0.000000 -0.050000
v 0.086603 0.020000 -0.050000
v -0.086603 0.000000 -0.050000
v 0.000000 0.040000 0.109000
v -0.094397 0.040000 0.054500
v 0.094397 0.040000 -0.054500
v 0.094397 0.040000 0.054500
v 0.086603 0.020000 0.050000
v 0.086603 0.000000 0.050000
v -0.036603 0.000000 0.000000
v -0.036603 0.020000 0.000000
v -0.039897 0.040000 0.000000
vn -0.500000 0.000000 0.866025
vn -0.465873 -0.363112 -0.806915
vn 0.465873 0.363112 0.806915
vn 0.500000 0.000000 -0.866025
vn -0.500000 0.000000 -0.866025
vn -0.465873 -0.363112 0.806915
vn 0.465873 0.363112 -0.806915
vn 0.931746 -0.363112 0.000000
vn -0.931746 0.363112 0.000000
vn 0.500000 0.000000 0.866025
vn -0.707107 0.000000 -0.707107
vn -0.707107 0.000000 0.707107
vn -0.702359 -0.115687 0.702359
vn 0.702359 0.115687 -0.702359
vn 0.000000 -1.000000 0.000000
vn -0.702359 -0.115687 -0.702359
vn 0.702359 0.115687 0.702359
vn 0.465873 -0.363112 -0.806915
vn -0.465873 0.363112 0.806915
vn 1.000000 0.000000 0.000000
vn 0.465873 -0.363112 0.806915
vn -0.465873 0.363112 -0.806915
vn 0.000000 1.000000 0.000000
usemtl leafsGreen
f 3/3/1 2/2/1 1/1/1
f 2/2/1 3/3/1 4/4/1
f 7/7/2 6/6/2 5/5/2
f 6/6/2 7/7/2 8/8/2
f 5/5/3 6/6/3 7/7/3
f 8/8/3 7/7/3 6/6/3
f 6/3/4 10/2/4 9/1/4
f 10/2/4 6/3/4 11/4/4
f 5/3/5 9/2/5 12/1/5
f 9/2/5 5/3/5 6/4/5
f 13/7/6 4/6/6 3/5/6
f 4/6/6 13/7/6 14/8/6
f 3/5/7 4/6/7 13/7/7
f 14/8/7 13/7/7 4/6/7
f 16/8/8 11/5/8 15/7/8
f 11/5/8 16/8/8 17/6/8
f 15/7/9 11/5/9 16/8/9
f 17/6/9 16/8/9 11/5/9
f 17/3/10 1/2/10 18/1/10
f 1/2/10 17/3/10 3/4/10
f 2/11/11 20/10/11 19/9/11
f 20/10/11 2/11/11 4/12/11
f 19/15/12 5/14/12 12/13/12
f 5/14/12 19/15/12 20/16/12
f 5/19/13 21/18/13 7/17/13
f 21/18/13 5/19/13 20/20/13
f 7/17/14 21/18/14 5/19/14
f 20/20/14 5/19/14 21/18/14
f 1/23/15 10/22/15 18/21/15
f 10/22/15 1/23/15 9/24/15
f 9/24/15 1/23/15 19/25/15
f 19/25/15 1/23/15 2/26/15
f 12/27/15 9/24/15 19/25/15
f 4/30/16 21/29/16 20/28/16
f 21/29/16 4/30/16 14/31/16
f 20/28/17 21/29/17 4/30/17
f 14/31/17 4/30/17 21/29/17
f 8/7/18 11/6/18 6/5/18
f 11/6/18 8/7/18 15/8/18
f 6/5/19 11/6/19 8/7/19
f 15/8/19 8/7/19 11/6/19
f 17/4/20 10/1/20 11/3/20
f 10/1/20 17/4/20 18/2/20
f 16/7/21 3/6/21 17/5/21
f 3/6/21 16/7/21 13/8/21
f 17/5/22 3/6/22 16/7/22
f 13/8/22 16/7/22 3/6/22
usemtl leafsDark
f 6/24/23 17/26/23 11/27/23
f 17/26/23 6/24/23 3/23/23
f 3/23/23 6/24/23 20/32/23
f 20/32/23 6/24/23 5/22/23
f 4/21/23 3/23/23 20/32/23
