mtllib lily_large.mtl
v -0.124708 0.000000 -0.072000
v 0.000000 0.000000 -0.144000
v -0.124708 0.020000 -0.072000
v 0.000000 0.020000 -0.144000
v -0.135931 0.040000 -0.078480
v -0.057451 0.040000 0.000000
v -0.052708 0.020000 0.000000
v 0.000000 0.040000 -0.156960
v 0.124708 0.020000 -0.072000
v 0.135931 0.040000 -0.078480
v 0.124708 0.000000 -0.072000
v 0.124708 0.020000 0.072000
v 0.124708 0.000000 0.072000
v 0.000000 0.020000 0.144000
v 0.135931 0.040000 0.078480
v 0.000000 0.040000 0.156960
v 0.000000 0.000000 0.144000
v -0.052708 0.000000 0.000000
v -0.124708 0.000000 0.072000
v -0.124708 0.020000 0.072000
v -0.135931 0.040000 0.078480
v 0.007292 0.020000 0.000000
v 0.046292 0.059000 0.000000
v -0.012208 0.059000 -0.000000
v 0.026792 0.059000 0.000000
v 0.046292 0.098000 -0.000000
v 0.065792 0.059000 0.000000
v 0.104792 0.059000 0.000000
v 0.085292 0.020000 0.000000
v 0.046292 0.020000 -0.039000
v 0.046292 0.020000 0.039000
v 0.046292 0.059000 -0.058500
v 0.046292 0.059000 -0.019500
v 0.046292 0.059000 0.019500
v 0.046292 0.059000 0.058500
vn -0.500000 0.000000 -0.866025
vn -0.697367 -0.165405 0.697367
vn 0.697367 0.165405 -0.697367
vn -0.436033 -0.489389 -0.755231
vn 0.436033 0.489389 0.755231
vn 0.436033 -0.489389 -0.755231
vn -0.436033 0.489389 0.755231
vn 1.000000 0.000000 0.000000
vn 0.436033 -0.489389 0.755231
vn -0.436033 0.489389 -0.755231
vn 0.000000 -1.000000 0.000000
vn 0.500000 0.000000 0.866025
vn -0.707107 0.000000 -0.707107
vn -0.707107 0.000000 0.707107
vn 0.500000 0.000000 -0.866025
vn -0.697367 -0.165405 -0.697367
vn 0.697367 0.165405 0.697367
vn 0.872065 -0.489389 0.000000
vn -0.872065 0.489389 0.000000
vn -0.500000 0.000000 0.866025
vn -0.436033 -0.489389 0.755231
vn 0.436033 0.489389 -0.755231
vn 0.000000 0.000000 -1.000000
vn 0.000000 0.000000 1.000000
vn 0.577350 0.577350 -0.577350
vn 0.577350 0.577350 0.577350
vn -0.577350 0.577350 0.577350
vn -1.000000 0.000000 0.000000
vn -0.577350 0.577350 -0.577350
vn 0.000000 1.000000 0.000000
usemtl leafsGreen
f 3/3/1 2/2/1 1/1/1
f 2/2/1 3/3/1 4/4/1
f 3/7/2 6/6/2 5/5/2
f 6/6/2 3/7/2 7/8/2
f 5/5/3 6/6/3 3/7/3
f 7/8/3 3/7/3 6/6/3
f 5/11/4 4/10/4 3/9/4
f 4/10/4 5/11/4 8/12/4
f 3/9/5 4/10/5 5/11/5
f 8/12/5 5/11/5 4/10/5
f 8/11/6 9/10/6 4/9/6
f 9/10/6 8/11/6 10/12/6
f 4/9/7 9/10/7 8/11/7
f 10/12/7 8/11/7 9/10/7
f 12/4/8 11/13/8 9/3/8
f 11/13/8 12/4/8 13/14/8
f 15/11/9 14/10/9 12/9/9
f 14/10/9 15/11/9 16/12/9
f 12/9/10 14/10/10 15/11/10
f 16/12/10 15/11/10 14/10/10
f 17/17/11 11/16/11 13/15/11
f 11/16/11 17/17/11 2/18/11
f 2/18/11 17/17/11 18/19/11
f 18/19/11 17/17/11 19/20/11
f 1/21/11 2/18/11 18/19/11
f 12/3/12 17/23/12 13/22/12
f 17/23/12 12/3/12 14/4/12
f 20/26/13 18/25/13 19/24/13
f 18/25/13 20/26/13 7/27/13
f 7/30/14 1/29/14 18/28/14
f 1/29/14 7/30/14 3/31/14
f 4/3/15 11/23/15 2/22/15
f 11/23/15 4/3/15 9/4/15
f 20/34/16 6/33/16 7/32/16
f 6/33/16 20/34/16 21/35/16
f 7/32/17 6/33/17 20/34/17
f 21/35/17 20/34/17 6/33/17
f 15/12/18 9/9/18 10/11/18
f 9/9/18 15/12/18 12/10/18
f 10/11/19 9/9/19 15/12/19
f 12/10/19 15/12/19 9/9/19
f 14/3/20 19/2/20 17/1/20
f 19/2/20 14/3/20 20/4/20
f 16/11/21 20/10/21 14/9/21
f 20/10/21 16/11/21 21/12/21
f 14/9/22 20/10/22 16/11/22
f 21/12/22 16/11/22 20/10/22
usemtl colorRed
f 24/38/23 23/37/23 22/36/23
f 23/37/23 24/38/23 25/39/23
f 23/37/23 25/39/23 26/40/23
f 27/41/23 23/37/23 26/40/23
f 28/42/23 23/37/23 27/41/23
f 23/37/23 28/42/23 29/43/23
f 22/36/24 23/37/24 24/38/24
f 25/39/24 24/38/24 23/37/24
f 26/40/24 25/39/24 23/37/24
f 26/40/24 23/37/24 27/41/24
f 27/41/24 23/37/24 28/42/24
f 29/43/24 28/42/24 23/37/24
f 29/46/25 30/45/25 23/44/25
f 23/49/26 31/48/26 29/47/26
f 23/52/27 22/51/27 31/50/27
f 33/55/8 30/54/8 32/53/8
f 30/54/8 33/55/8 23/56/8
f 23/56/8 33/55/8 26/57/8
f 34/58/8 23/56/8 26/57/8
f 23/56/8 34/58/8 31/59/8
f 31/59/8 34/58/8 35/60/8
f 32/53/28 30/54/28 33/55/28
f 23/56/28 33/55/28 30/54/28
f 26/57/28 33/55/28 23/56/28
f 26/57/28 23/56/28 34/58/28
f 31/59/28 34/58/28 23/56/28
f 35/60/28 34/58/28 31/59/28
f 22/63/29 23/62/29 30/61/29
usemtl leafsDark
f 9/21/30 29/64/30 12/20/30
f 29/64/30 9/21/30 4/18/30
f 29/64/30 4/18/30 30/65/30
f 30/65/30 4/18/30 22/66/30
f 29/64/30 14/17/30 12/20/30
f 14/17/30 22/66/30 4/18/30
f 14/17/30 29/64/30 31/67/30
f 14/17/30 31/67/30 22/66/30
f 14/17/30 4/18/30 7/68/30
f 7/68/30 4/18/30 3/16/30
f 20/15/30 14/17/30 7/68/30
