mtllib log.mtl
v 0.086804 0.109458 0.198605
v 0.063196 0.150350 0.198605
v 0.109244 0.130592 0.191522
v 0.092718 0.159216 0.191522
v 0.050000 0.000000 -0.355000
v -0.033008 0.029431 -0.355000
v -0.050000 0.000000 -0.355000
v -0.100000 0.086603 -0.355000
v -0.066017 0.086603 -0.355000
v -0.050000 0.173205 -0.355000
v -0.033008 0.143775 -0.355000
v 0.033008 0.143775 -0.355000
v 0.033008 0.029431 -0.355000
v 0.100000 0.086603 -0.355000
v 0.066017 0.086603 -0.355000
v 0.050000 0.173205 -0.355000
v -0.050000 0.000000 0.355000
v -0.100000 0.086603 0.355000
v -0.085518 0.111686 -0.161875
v -0.124717 0.143791 -0.170079
v -0.064482 0.148121 -0.161875
v -0.111885 0.166017 -0.170079
v 0.109244 0.130592 0.158470
v 0.086804 0.109458 0.151387
v -0.085518 0.111686 -0.203946
v -0.124717 0.143791 -0.195743
v 0.092718 0.159216 0.158470
v 0.063196 0.150350 0.151387
v -0.064482 0.148121 -0.203946
v -0.111885 0.166017 -0.195743
v 0.032762 0.029857 0.355000
v 0.050000 0.000000 0.355000
v 0.100000 0.086603 0.355000
v 0.065524 0.086603 0.355000
v 0.050000 0.173205 0.355000
v 0.032762 0.143348 0.355000
v -0.032762 0.143348 0.355000
v -0.032762 0.029857 0.355000
v -0.065524 0.086603 0.355000
v -0.050000 0.173205 0.355000
v -0.026407 0.040865 -0.335000
v 0.026407 0.040865 -0.335000
v -0.052813 0.086603 -0.335000
v 0.052813 0.086603 -0.335000
v -0.026407 0.132340 -0.335000
v 0.026407 0.132340 -0.335000
v 0.026209 0.041206 0.335000
v 0.052419 0.086603 0.335000
v -0.026209 0.131999 0.335000
v -0.052419 0.086603 0.335000
v 0.026209 0.131999 0.335000
v -0.026209 0.041206 0.335000
vn 0.198987 0.114885 0.973245
vn 0.000000 0.000000 -1.000000
vn -0.866025 -0.500000 0.000000
vn -0.140221 0.080956 0.986805
vn 0.685612 -0.727968 0.000000
vn -0.633625 -0.773640 0.000000
vn 0.866025 0.500000 0.000000
vn 0.198990 0.114887 -0.973244
vn -0.140221 0.080956 -0.986805
vn 0.000000 0.000000 1.000000
vn 0.866025 -0.500000 0.000000
vn -0.866025 0.500001 0.000000
vn -0.287633 0.957741 0.000000
vn 0.000000 1.000000 0.000000
vn 0.000000 -1.000000 0.000000
vn -0.866026 0.500000 0.000000
vn 0.353181 0.935555 0.000000
vn 0.866025 0.500000 0.000000
vn -0.198987 -0.114885 -0.973245
vn -0.753208 0.434865 0.493529
vn 0.753208 -0.434865 -0.493529
vn 0.866025 0.500000 0.000000
vn 0.140221 -0.080956 -0.986805
vn -0.685612 0.727968 0.000000
vn 0.633625 0.773640 0.000000
vn 0.753208 -0.434865 0.493529
vn -0.753208 0.434865 -0.493529
vn 0.000000 -0.869730 0.493528
vn 0.000000 0.869730 -0.493528
vn -0.866025 -0.500000 0.000000
vn -0.198990 -0.114887 0.973244
vn -0.751826 -0.434067 -0.496331
vn 0.751826 0.434067 0.496331
vn 0.140221 -0.080956 0.986805
vn 0.000000 0.869730 0.493528
vn 0.000000 -0.869730 -0.493528
vn -0.753208 -0.434865 0.493529
vn 0.753208 0.434865 -0.493529
vn -0.751826 0.434067 -0.496330
vn 0.751826 -0.434067 0.496330
vn 0.000000 -0.868132 -0.496333
vn 0.000000 0.868132 0.496333
vn 0.000000 0.868134 -0.496330
vn 0.000000 -0.868134 0.496330
vn -0.866025 0.500000 0.000000
vn 0.866025 -0.500001 0.000000
vn 0.287633 -0.957741 0.000000
vn 0.751826 -0.434067 -0.496331
vn -0.751826 0.434067 0.496331
vn 0.751826 0.434067 -0.496330
vn -0.751826 -0.434067 0.496330
vn 0.866026 -0.500000 0.000000
vn 0.753208 0.434865 0.493529
vn -0.753208 -0.434865 -0.493529
vn -0.353181 -0.935555 0.000000
vn -0.866025 -0.500000 0.000000
usemtl woodBark
f 3/3/1 2/2/1 1/1/1
f 2/2/1 3/3/1 4/4/1
f 7/7/2 6/6/2 5/5/2
f 6/6/2 7/7/2 8/8/2
f 6/6/2 8/8/2 9/9/2
f 9/9/2 8/8/2 10/10/2
f 9/9/2 10/10/2 11/11/2
f 11/11/2 10/10/2 12/12/2
f 13/13/2 5/5/2 6/6/2
f 5/5/2 13/13/2 14/14/2
f 14/14/2 13/13/2 15/15/2
f 14/14/2 15/15/2 12/12/2
f 14/14/2 12/12/2 16/16/2
f 16/16/2 12/12/2 10/10/2
f 17/19/3 8/18/3 7/17/3
f 8/18/3 17/19/3 18/20/3
f 21/23/4 20/22/4 19/21/4
f 20/22/4 21/23/4 22/24/4
f 1/27/5 23/26/5 3/25/5
f 23/26/5 1/27/5 24/28/5
f 20/31/6 25/30/6 19/29/6
f 25/30/6 20/31/6 26/32/6
f 4/35/7 23/34/7 27/33/7
f 23/34/7 4/35/7 3/36/7
f 28/39/8 23/38/8 24/37/8
f 23/38/8 28/39/8 27/40/8
f 26/43/9 29/42/9 25/41/9
f 29/42/9 26/43/9 30/44/9
f 32/47/10 31/46/10 17/45/10
f 31/46/10 32/47/10 33/48/10
f 31/46/10 33/48/10 34/49/10
f 34/49/10 33/48/10 35/10/10
f 34/49/10 35/10/10 36/50/10
f 36/50/10 35/10/10 37/51/10
f 38/52/10 17/45/10 31/46/10
f 17/45/10 38/52/10 18/53/10
f 18/53/10 38/52/10 39/54/10
f 18/53/10 39/54/10 37/51/10
f 18/53/10 37/51/10 40/16/10
f 40/16/10 37/51/10 35/10/10
f 33/57/11 5/56/11 14/55/11
f 5/56/11 33/57/11 32/58/11
f 20/61/12 30/60/12 26/59/12
f 30/60/12 20/61/12 22/62/12
f 28/65/13 4/64/13 27/63/13
f 4/64/13 28/65/13 2/66/13
f 10/69/14 35/68/14 16/67/14
f 35/68/14 10/69/14 40/70/14
f 17/68/15 5/69/15 32/70/15
f 5/69/15 17/68/15 7/67/15
f 8/72/16 25/71/16 10/57/16
f 25/71/16 8/72/16 18/73/16
f 25/71/16 18/73/16 19/74/16
f 19/74/16 18/73/16 21/75/16
f 29/76/16 10/57/16 25/71/16
f 10/57/16 29/76/16 40/55/16
f 40/55/16 29/76/16 21/75/16
f 40/55/16 21/75/16 18/73/16
f 30/79/17 21/78/17 29/77/17
f 21/78/17 30/79/17 22/80/17
f 16/20/18 28/82/18 14/81/18
f 28/82/18 16/20/18 35/18/18
f 28/82/18 35/18/18 2/83/18
f 2/83/18 35/18/18 1/84/18
f 24/85/18 14/81/18 28/82/18
f 14/81/18 24/85/18 33/86/18
f 33/86/18 24/85/18 1/84/18
f 33/86/18 1/84/18 35/18/18
usemtl woodInner
f 1/1/19 2/2/19 3/3/19
f 4/4/19 3/3/19 2/2/19
f 43/89/2 42/88/2 41/87/2
f 42/88/2 43/89/2 44/90/2
f 44/90/2 43/89/2 45/91/2
f 44/90/2 45/91/2 46/92/2
f 41/87/10 42/88/10 43/89/10
f 44/90/10 43/89/10 42/88/10
f 45/91/10 43/89/10 44/90/10
f 46/92/10 45/91/10 44/90/10
f 31/95/20 48/94/20 47/93/20
f 48/94/20 31/95/20 34/96/20
f 47/93/21 48/94/21 31/95/21
f 34/96/21 31/95/21 48/94/21
f 5/5/10 6/6/10 7/7/10
f 8/8/10 7/7/10 6/6/10
f 9/9/10 8/8/10 6/6/10
f 10/10/10 8/8/10 9/9/10
f 11/11/10 10/10/10 9/9/10
f 12/12/10 10/10/10 11/11/10
f 6/6/10 5/5/10 13/13/10
f 14/14/10 13/13/10 5/5/10
f 15/15/10 13/13/10 14/14/10
f 12/12/10 15/15/10 14/14/10
f 16/16/10 12/12/10 14/14/10
f 10/10/10 12/12/10 16/16/10
f 7/17/22 8/18/22 17/19/22
f 18/20/22 17/19/22 8/18/22
f 19/21/23 20/22/23 21/23/23
f 22/24/23 21/23/23 20/22/23
f 3/25/24 23/26/24 1/27/24
f 24/28/24 1/27/24 23/26/24
f 19/29/25 25/30/25 20/31/25
f 26/32/25 20/31/25 25/30/25
f 37/99/26 50/98/26 49/97/26
f 50/98/26 37/99/26 39/100/26
f 49/97/27 50/98/27 37/99/27
f 39/100/27 37/99/27 50/98/27
f 37/103/28 51/102/28 36/101/28
f 51/102/28 37/103/28 49/104/28
f 36/101/29 51/102/29 37/103/29
f 49/104/29 37/103/29 51/102/29
f 27/33/30 23/34/30 4/35/30
f 3/36/30 4/35/30 23/34/30
f 24/37/31 23/38/31 28/39/31
f 27/40/31 28/39/31 23/38/31
f 44/107/32 12/106/32 15/105/32
f 12/106/32 44/107/32 46/108/32
f 15/105/33 12/106/33 44/107/33
f 46/108/33 44/107/33 12/106/33
f 25/41/34 29/42/34 26/43/34
f 30/44/34 26/43/34 29/42/34
f 17/45/2 31/46/2 32/47/2
f 33/48/2 32/47/2 31/46/2
f 34/49/2 33/48/2 31/46/2
f 35/10/2 33/48/2 34/49/2
f 36/50/2 35/10/2 34/49/2
f 37/51/2 35/10/2 36/50/2
f 31/46/2 17/45/2 38/52/2
f 18/53/2 38/52/2 17/45/2
f 39/54/2 38/52/2 18/53/2
f 37/51/2 39/54/2 18/53/2
f 40/16/2 37/51/2 18/53/2
f 35/10/2 37/51/2 40/16/2
f 47/111/35 38/110/35 31/109/35
f 38/110/35 47/111/35 52/112/35
f 31/109/36 38/110/36 47/111/36
f 52/112/36 47/111/36 38/110/36
f 34/115/37 51/114/37 48/113/37
f 51/114/37 34/115/37 36/116/37
f 48/113/38 51/114/38 34/115/38
f 36/116/38 34/115/38 51/114/38
f 42/119/39 15/118/39 13/117/39
f 15/118/39 42/119/39 44/120/39
f 13/117/40 15/118/40 42/119/40
f 44/120/40 42/119/40 15/118/40
f 46/123/41 11/122/41 12/121/41
f 11/122/41 46/123/41 45/124/41
f 12/121/42 11/122/42 46/123/42
f 45/124/42 46/123/42 11/122/42
f 6/127/43 42/126/43 13/125/43
f 42/126/43 6/127/43 41/128/43
f 13/125/44 42/126/44 6/127/44
f 41/128/44 6/127/44 42/126/44
f 14/55/45 5/56/45 33/57/45
f 32/58/45 33/57/45 5/56/45
f 48/131/10 52/130/10 47/129/10
f 52/130/10 48/131/10 50/132/10
f 50/132/10 48/131/10 51/133/10
f 50/132/10 51/133/10 49/134/10
f 47/129/2 52/130/2 48/131/2
f 50/132/2 48/131/2 52/130/2
f 51/133/2 48/131/2 50/132/2
f 49/134/2 51/133/2 50/132/2
f 26/59/46 30/60/46 20/61/46
f 22/62/46 20/61/46 30/60/46
f 27/63/47 4/64/47 28/65/47
f 2/66/47 28/65/47 4/64/47
f 45/137/48 9/136/48 11/135/48
f 9/136/48 45/137/48 43/138/48
f 11/135/49 9/136/49 45/137/49
f 43/138/49 45/137/49 9/136/49
f 43/141/50 6/140/50 9/139/50
f 6/140/50 43/141/50 41/142/50
f 9/139/51 6/140/51 43/141/51
f 41/142/51 43/141/51 6/140/51
f 16/67/15 35/68/15 10/69/15
f 40/70/15 10/69/15 35/68/15
f 32/70/14 5/69/14 17/68/14
f 7/67/14 17/68/14 5/69/14
f 10/57/52 25/71/52 8/72/52
f 18/73/52 8/72/52 25/71/52
f 19/74/52 18/73/52 25/71/52
f 21/75/52 18/73/52 19/74/52
f 25/71/52 10/57/52 29/76/52
f 40/55/52 29/76/52 10/57/52
f 21/75/52 29/76/52 40/55/52
f 18/73/52 21/75/52 40/55/52
f 39/145/53 52/144/53 50/143/53
f 52/144/53 39/145/53 38/146/53
f 50/143/54 52/144/54 39/145/54
f 38/146/54 39/145/54 52/144/54
f 29/77/55 21/78/55 30/79/55
f 22/80/55 30/79/55 21/78/55
f 14/81/56 28/82/56 16/20/56
f 35/18/56 16/20/56 28/82/56
f 2/83/56 35/18/56 28/82/56
f 1/84/56 35/18/56 2/83/56
f 28/82/56 14/81/56 24/85/56
f 33/86/56 24/85/56 14/81/56
f 1/84/56 24/85/56 33/86/56
f 35/18/56 1/84/56 33/86/56
