mtllib mushroom_red.mtl
v 0.046980 0.000000 -0.046980
v 0.046980 0.000000 0.046980
v 0.034912 0.098360 -0.034912
v 0.034912 0.098360 0.034912
v 0.064325 0.098360 0.032634
v -0.000912 0.098360 0.070299
v 0.086071 0.126360 0.045189
v -0.000912 0.126360 0.095409
v 0.086071 0.126360 -0.055251
v 0.064325 0.098360 -0.042696
v -0.034912 0.098360 0.034912
v -0.066150 0.098360 0.032634
v -0.034912 0.098360 -0.034912
v -0.000912 0.098360 -0.080361
v -0.066150 0.098360 -0.042696
v -0.046980 0.000000 -0.046980
v -0.046980 0.000000 0.046980
v -0.087896 0.126360 0.045189
v -0.087896 0.126360 -0.055251
v -0.000912 0.126360 -0.105471
v -0.000912 0.202800 0.018969
v -0.021697 0.202800 0.006969
v 0.019872 0.202800 0.006969
v -0.021697 0.202800 -0.017031
v 0.019872 0.202800 -0.017031
v -0.000912 0.202800 -0.029031
vn 0.992557 0.121779 0.000000
vn 0.394894 -0.613380 0.683976
vn 0.789787 -0.613381 0.000000
vn 0.000000 -1.000000 0.000000
vn -0.992557 0.121779 0.000000
vn -0.394894 -0.613380 0.683976
vn -0.789787 -0.613381 0.000000
vn 0.000000 0.121779 -0.992557
vn 0.394894 -0.613380 -0.683976
vn -0.394894 -0.613380 -0.683976
vn 0.000000 0.121779 0.992557
vn -0.377964 0.654653 0.654654
vn 0.377964 0.654653 0.654654
vn -0.755929 0.654654 0.000000
vn 0.000000 1.000000 0.000000
vn 0.377964 0.654653 -0.654654
vn -0.377964 0.654653 -0.654654
vn 0.755929 0.654654 0.000000
usemtl _defaultMat
f 3/1/1 2/1/1 1/1/1
f 2/1/1 3/1/1 4/1/1
f 7/1/2 6/1/2 5/1/2
f 6/1/2 7/1/2 8/1/2
f 7/4/3 10/3/3 9/2/3
f 10/4/3 7/3/3 5/2/3
f 5/7/4 4/6/4 10/5/4
f 4/7/4 5/6/4 6/5/4
f 4/7/4 6/6/4 11/5/4
f 11/7/4 6/6/4 12/5/4
f 11/7/4 12/6/4 13/5/4
f 10/7/4 3/6/4 14/5/4
f 3/7/4 10/6/4 4/5/4
f 14/7/4 3/6/4 13/5/4
f 14/7/4 13/6/4 15/5/4
f 15/7/4 13/6/4 12/5/4
f 17/7/5 13/6/5 16/5/5
f 13/7/5 17/6/5 11/5/5
f 8/7/6 12/6/6 6/5/6
f 12/7/6 8/6/6 18/5/6
f 15/7/7 18/6/7 19/5/7
f 18/7/7 15/6/7 12/5/7
f 13/7/8 1/6/8 16/5/8
f 1/7/8 13/6/8 3/5/8
f 20/7/9 10/6/9 14/5/9
f 10/7/9 20/6/9 9/5/9
f 19/10/10 14/9/10 15/8/10
f 14/10/10 19/9/10 20/8/10
f 4/13/11 17/12/11 2/11/11
f 17/13/11 4/12/11 11/11/11
f 17/13/4 1/12/4 2/11/4
f 1/13/4 17/12/4 16/11/4
usemtl colorRed
f 21/16/12 18/15/12 8/14/12
f 18/15/12 21/16/12 22/17/12
f 23/3/13 8/4/13 7/18/13
f 8/4/13 23/3/13 21/2/13
f 18/6/14 24/7/14 19/19/14
f 24/7/14 18/6/14 22/5/14
f 26/22/15 23/21/15 25/20/15
f 23/21/15 26/22/15 21/10/15
f 21/10/15 26/22/15 24/9/15
f 21/10/15 24/9/15 22/8/15
f 26/25/16 9/24/16 20/23/16
f 9/24/16 26/25/16 25/26/16
f 24/12/17 20/13/17 19/27/17
f 20/13/17 24/12/17 26/11/17
f 25/30/18 7/29/18 9/28/18
f 7/29/18 25/30/18 23/31/18
