mtllib obelisk.mtl
v 0.130483 0.094274 0.130483
v 0.091395 0.094274 -0.091395
v 0.130483 0.094274 -0.130483
v -0.130483 0.094274 -0.130483
v -0.091395 0.094274 -0.091395
v -0.091395 0.094274 0.091395
v 0.091395 0.094274 0.091395
v -0.130483 0.094274 0.130483
v 0.073116 0.443310 0.073116
v -0.073116 0.443310 0.073116
v -0.073116 0.443310 -0.073116
v 0.073116 0.443310 -0.073116
v -0.054837 0.792347 -0.054837
v -0.054837 0.792347 0.054837
v 0.054837 0.792347 -0.054837
v -0.000000 0.875397 0.000000
v 0.054837 0.792347 0.054837
v -0.153509 0.000000 -0.153509
v 0.153509 0.000000 -0.153509
v 0.153509 0.000000 0.153509
v -0.153509 0.000000 0.153509
vn 0.000000 1.000000 0.000000
vn 0.000000 0.052298 0.998631
vn 0.000000 0.052298 -0.998631
vn -0.998631 0.052298 0.000000
vn 0.998631 0.052298 0.000000
vn 0.000000 0.551009 -0.834499
vn 0.000000 0.551009 0.834499
vn 0.000000 0.237276 -0.971442
vn 0.834499 0.551009 0.000000
vn 0.000000 0.237276 0.971442
vn 0.000000 -1.000000 0.000000
vn -0.834499 0.551009 0.000000
vn 0.971442 0.237276 0.000000
vn -0.971442 0.237276 0.000000
usemtl stoneDark
f 3/3/1 2/2/1 1/1/1
f 2/2/1 3/3/1 4/4/1
f 2/2/1 4/4/1 5/5/1
f 5/5/1 4/4/1 6/6/1
f 7/7/1 1/1/1 2/2/1
f 1/1/1 7/7/1 8/8/1
f 8/8/1 7/7/1 6/6/1
f 8/8/1 6/6/1 4/4/1
f 9/11/2 6/10/2 7/9/2
f 6/10/2 9/11/2 10/12/2
f 11/11/3 2/10/3 5/9/3
f 2/10/3 11/11/3 12/12/3
f 6/9/4 11/12/4 5/10/4
f 11/12/4 6/9/4 10/11/4
f 12/11/5 7/10/5 2/9/5
f 7/10/5 12/11/5 9/12/5
usemtl stone
f 10/11/4 13/13/4 11/12/4
f 13/13/4 10/11/4 14/14/4
f 16/17/6 15/16/6 13/15/6
f 13/14/3 12/12/3 11/11/3
f 12/12/3 13/14/3 15/13/3
f 16/18/7 14/16/7 17/15/7
f 4/21/8 19/20/8 18/19/8
f 19/20/8 4/21/8 3/22/8
f 17/16/9 15/15/9 16/23/9
f 1/21/10 21/20/10 20/19/10
f 21/20/10 1/21/10 8/22/10
f 17/14/2 10/12/2 9/11/2
f 10/12/2 17/14/2 14/13/2
f 21/26/11 19/25/11 20/24/11
f 19/25/11 21/26/11 18/27/11
f 14/15/12 16/28/12 13/16/12
f 3/21/13 20/20/13 19/19/13
f 20/20/13 3/21/13 1/22/13
f 21/19/14 4/22/14 18/20/14
f 4/22/14 21/19/14 8/21/14
f 15/14/5 9/12/5 12/11/5
f 9/12/5 15/14/5 17/13/5
