mtllib riverBend.mtl
v 0.252456 0.000000 -0.298380
v 0.174634 0.000000 -0.110500
v 0.192569 -0.050000 -0.314427
v 0.120940 -0.050000 -0.141500
v -0.110500 0.000000 0.174634
v -0.298380 0.000000 0.252456
v -0.141500 -0.050000 0.120940
v -0.314427 -0.050000 0.192569
v 0.050836 0.000000 0.050836
v 0.006996 -0.050000 0.006996
v -0.217000 -0.050000 -0.500000
v -0.254915 -0.050000 -0.358500
v -0.279000 0.000000 -0.500000
v -0.308608 0.000000 -0.389500
v -0.358500 -0.050000 -0.254915
v -0.389500 0.000000 -0.308608
v 0.279000 0.000000 -0.500000
v 0.217000 -0.050000 -0.500000
v -0.500000 0.000000 0.279000
v -0.500000 -0.050000 0.217000
v -0.500000 -0.050000 -0.217000
v -0.500000 0.000000 -0.279000
v 0.379000 0.000000 -0.500000
v 0.349049 0.000000 -0.272498
v 0.261236 0.000000 -0.060500
v 0.121547 0.000000 0.121547
v -0.060500 0.000000 0.261236
v -0.272498 0.000000 0.349049
v -0.500000 0.000000 0.379000
v -0.379000 0.000000 -0.500000
v -0.417355 0.000000 -0.417355
v -0.500000 0.000000 -0.379000
v -0.500000 0.000000 -0.500000
v -0.500000 0.000000 0.500000
v 0.500000 0.000000 0.500000
v 0.500000 0.000000 -0.500000
vn -0.582985 0.775768 -0.241480
vn -0.241480 0.775768 -0.582985
vn -0.384139 0.775768 -0.500620
vn 0.619056 0.767629 0.165876
vn 0.453180 0.767629 0.453180
vn -0.625619 0.775768 -0.082364
vn -0.082364 0.775768 -0.625619
vn 0.165876 0.767629 0.619056
vn -0.500620 0.775768 -0.384139
vn 0.000000 1.000000 0.000000
usemtl dirtDark
f 3/3/1 2/2/1 1/1/1
f 2/2/1 3/3/1 4/4/1
f 7/7/2 6/6/2 5/5/2
f 6/6/2 7/7/2 8/8/2
f 10/11/3 5/10/3 9/9/3
f 5/10/3 10/11/3 7/12/3
f 13/15/4 12/14/4 11/13/4
f 12/14/4 13/15/4 14/16/4
f 14/19/5 15/18/5 12/17/5
f 15/18/5 14/19/5 16/20/5
f 18/23/6 1/22/6 17/21/6
f 1/22/6 18/23/6 3/24/6
f 8/27/7 19/26/7 6/25/7
f 19/26/7 8/27/7 20/28/7
f 16/31/8 21/30/8 15/29/8
f 21/30/8 16/31/8 22/32/8
f 4/35/9 9/34/9 2/33/9
f 9/34/9 4/35/9 10/36/9
usemtl dirt
f 17/39/10 24/38/10 23/37/10
f 24/38/10 17/39/10 25/40/10
f 25/40/10 17/39/10 1/41/10
f 25/40/10 1/41/10 26/42/10
f 26/42/10 1/41/10 2/43/10
f 26/42/10 2/43/10 9/44/10
f 26/42/10 9/44/10 27/45/10
f 27/45/10 9/44/10 5/46/10
f 27/45/10 5/46/10 28/47/10
f 28/47/10 5/46/10 6/48/10
f 28/47/10 6/48/10 29/49/10
f 29/49/10 6/48/10 19/50/10
f 30/53/10 14/52/10 13/51/10
f 14/52/10 30/53/10 16/54/10
f 16/54/10 30/53/10 31/55/10
f 16/54/10 31/55/10 22/56/10
f 22/56/10 31/55/10 32/57/10
usemtl grass
f 33/58/10 31/55/10 30/53/10
f 31/55/10 33/58/10 32/57/10
f 35/60/10 27/45/10 34/59/10
f 27/45/10 35/60/10 26/42/10
f 26/42/10 35/60/10 25/40/10
f 25/40/10 35/60/10 36/61/10
f 25/40/10 36/61/10 24/38/10
f 24/38/10 36/61/10 23/37/10
f 34/59/10 27/45/10 28/47/10
f 34/59/10 28/47/10 29/49/10
usemtl water
f 11/64/10 3/63/10 18/62/10
f 3/63/10 11/64/10 4/65/10
f 4/65/10 11/64/10 10/66/10
f 10/66/10 11/64/10 7/67/10
f 7/67/10 11/64/10 8/68/10
f 8/68/10 11/64/10 12/69/10
f 8/68/10 12/69/10 15/70/10
f 8/68/10 15/70/10 20/71/10
f 20/71/10 15/70/10 21/72/10
