mtllib rock_largeB.mtl
v -0.309455 0.170478 -0.257361
v -0.216343 0.430254 -0.232779
v -0.309455 0.170478 -0.031133
v -0.216343 0.430254 -0.021482
v 0.297018 0.000000 0.225074
v 0.159326 0.000000 0.396030
v 0.383358 0.170478 0.288556
v 0.206830 0.170478 0.507731
v 0.261697 0.430254 0.199104
v 0.139893 0.430254 0.350334
v -0.358379 0.085239 0.157244
v -0.379964 0.127859 0.166961
v -0.243829 0.000000 0.244116
v -0.355502 0.170478 0.245256
v -0.172449 0.000000 0.350423
v -0.218522 0.170478 0.449260
v -0.162318 0.430254 -0.350334
v -0.375504 0.170478 -0.461608
v -0.243376 0.000000 -0.263142
v -0.294894 0.000000 -0.360054
v 0.170726 0.430254 -0.012237
v 0.273350 0.300366 0.058161
v 0.241619 0.430254 0.123298
v -0.279888 0.430254 0.121908
v -0.216744 0.430254 0.215949
v -0.383358 0.209321 0.168489
v -0.186061 0.300366 0.379625
v 0.288391 0.085239 0.061258
v 0.154169 0.000000 -0.060865
v 0.274321 0.000000 0.139380
v -0.243376 0.000000 -0.024284
v -0.086310 0.170478 -0.414832
v -0.069323 0.000000 -0.323568
v 0.325159 0.170478 0.068829
v -0.006854 0.430254 0.330162
v -0.279292 0.000000 0.056763
v -0.355502 0.170478 0.072773
v -0.182304 0.000000 -0.396030
v -0.231157 0.170478 -0.507731
v -0.062374 0.430254 -0.286234
vn -0.941358 0.337410 0.000000
vn 0.659531 -0.531832 0.531201
vn 0.673476 0.502192 0.542433
vn -0.728191 -0.480278 0.488949
vn -0.667181 0.678863 -0.306618
vn -0.831277 -0.337196 0.441903
vn -0.878218 -0.299582 0.372805
vn -0.892369 -0.286348 0.348830
vn 0.808390 0.409533 -0.422834
vn -0.740674 0.451734 0.497331
vn 0.731029 -0.522684 -0.438632
vn -0.932407 -0.361411 0.000000
vn -0.919371 -0.257617 0.297305
vn 0.735146 -0.261556 -0.625419
vn -0.118560 0.492018 0.862474
vn -0.650871 -0.749125 0.123202
vn -0.867294 0.497795 0.000000
vn -0.812636 -0.582771 0.000000
vn -0.857255 -0.347544 -0.379902
vn 0.899305 -0.366760 -0.238195
vn 0.908200 0.342503 -0.240551
vn 0.501800 -0.368845 -0.782400
vn 0.506821 0.344489 -0.790228
vn 0.000000 -1.000000 0.000000
vn -0.248016 -0.579656 -0.776200
vn -0.254284 0.549562 -0.795815
vn -0.908323 0.297775 0.293733
vn 0.738817 0.243072 -0.628542
vn -0.864857 0.324230 -0.383271
vn -0.116200 -0.521486 0.845310
vn -0.339000 0.704961 0.622984
vn 0.000000 1.000000 0.000000
usemtl dirt
f 3/3/1 2/2/1 1/1/1
f 2/2/1 3/3/1 4/4/1
f 7/7/2 6/6/2 5/5/2
f 6/6/2 7/7/2 8/8/2
f 10/11/3 7/10/3 9/9/3
f 7/10/3 10/11/3 8/12/3
f 13/15/4 12/14/4 11/13/4
f 12/14/4 13/15/4 14/16/4
f 14/16/4 13/15/4 15/17/4
f 14/16/4 15/17/4 16/18/4
f 18/21/5 2/20/5 17/19/5
f 1/24/8 20/23/7 19/22/6
f 23/27/9 22/26/9 21/25/9
f 26/30/10 25/29/10 24/28/10
f 25/29/10 26/30/10 14/31/10
f 25/29/10 14/31/10 27/32/10
f 27/32/10 14/31/10 16/33/10
f 30/36/11 29/35/11 28/34/11
f 31/39/12 1/38/12 19/37/12
f 1/38/12 31/39/12 3/40/12
f 1/43/8 18/42/13 20/41/7
f 34/46/14 33/45/14 32/44/14
f 33/45/14 34/46/14 29/47/14
f 29/47/14 34/46/14 28/48/14
f 10/51/15 16/50/15 8/49/15
f 16/50/15 10/51/15 27/52/15
f 27/52/15 10/51/15 35/53/15
f 11/56/16 36/55/16 13/54/16
f 14/59/17 37/58/17 12/57/17
f 14/62/18 26/61/18 37/60/18
f 31/65/19 37/64/19 3/63/19
f 37/64/19 31/65/19 36/66/19
f 37/64/19 36/66/19 11/67/19
f 37/64/19 11/67/19 12/68/19
f 34/71/20 30/70/20 28/69/20
f 30/70/20 34/71/20 7/72/20
f 30/70/20 7/72/20 5/73/20
f 23/76/21 34/75/21 22/74/21
f 34/75/21 23/76/21 7/77/21
f 7/77/21 23/76/21 9/78/21
f 39/81/22 33/80/22 38/79/22
f 33/80/22 39/81/22 32/82/22
f 17/85/23 32/84/23 39/83/23
f 32/84/23 17/85/23 40/86/23
f 6/89/24 30/88/24 5/87/24
f 30/88/24 6/89/24 29/90/24
f 29/90/24 6/89/24 15/91/24
f 29/90/24 15/91/24 33/92/24
f 33/92/24 15/91/24 38/93/24
f 38/93/24 15/91/24 13/94/24
f 38/93/24 13/94/24 31/95/24
f 31/95/24 13/94/24 36/96/24
f 19/97/24 38/93/24 31/95/24
f 38/93/24 19/97/24 20/98/24
f 18/101/25 38/100/25 20/99/25
f 38/100/25 18/101/25 39/102/25
f 17/105/26 39/104/26 18/103/26
f 2/108/27 18/107/27 1/106/27
f 40/111/28 34/110/28 32/109/28
f 34/110/28 40/111/28 21/112/28
f 34/110/28 21/112/28 22/113/28
f 37/116/29 4/115/29 3/114/29
f 4/115/29 37/116/29 24/117/29
f 24/117/29 37/116/29 26/118/29
f 8/121/30 15/120/30 6/119/30
f 15/120/30 8/121/30 16/122/30
f 25/125/31 27/124/31 35/123/31
usemtl _defaultMat
f 8/43/24 34/42/24 7/41/24
f 34/43/24 8/42/24 32/41/24
f 32/43/24 8/42/24 16/41/24
f 32/43/24 16/42/24 39/41/24
f 39/43/24 16/42/24 3/41/24
f 3/43/24 16/42/24 14/41/24
f 3/43/24 14/42/24 37/41/24
f 39/43/24 1/42/24 18/41/24
f 1/43/24 39/42/24 3/41/24
usemtl grass
f 23/128/32 10/127/32 9/126/32
f 10/127/32 23/128/32 21/129/32
f 10/127/32 21/129/32 40/130/32
f 10/127/32 40/130/32 35/131/32
f 35/131/32 40/130/32 25/132/32
f 25/132/32 40/130/32 17/133/32
f 25/132/32 17/133/32 4/134/32
f 4/134/32 17/133/32 2/135/32
f 25/132/32 4/134/32 24/136/32
