mtllib rock_largeA.mtl
v -0.077215 0.144320 -0.414832
v 0.334255 0.144320 0.068829
v -0.053278 0.259776 -0.286234
v 0.230636 0.259776 0.047492
v 0.215925 0.144320 0.507731
v -0.209427 0.144320 0.449260
v 0.182457 0.202048 0.429032
v 0.002242 0.259776 0.330162
v -0.144504 0.259776 0.309989
v 0.260719 0.000000 0.053687
v 0.306114 0.000000 0.225074
v 0.334255 0.075768 0.068829
v 0.392453 0.075768 0.288556
v 0.168422 0.000000 0.396030
v -0.060228 0.000000 -0.323568
v -0.163353 0.000000 0.350423
v -0.173208 0.000000 -0.396030
v -0.234280 0.000000 -0.024284
v -0.306114 0.000000 0.137809
v -0.234280 0.000000 -0.263142
v -0.285799 0.000000 -0.360054
v 0.215925 0.075768 0.507731
v -0.209427 0.075768 0.449260
v 0.392453 0.144320 0.288556
v -0.300359 0.075768 -0.031133
v -0.300359 0.144320 -0.031133
v -0.392453 0.075768 0.176679
v -0.392453 0.144320 0.176679
v -0.077215 0.075768 -0.414832
v -0.222062 0.075768 -0.507731
v 0.209891 0.259776 0.274719
v 0.270793 0.259776 0.199104
v -0.366408 0.075768 -0.461608
v -0.270793 0.259776 0.121908
v -0.366408 0.144320 -0.461608
v -0.252822 0.259776 -0.318510
v -0.300359 0.144320 -0.337361
v -0.207248 0.259776 -0.232779
v -0.153223 0.259776 -0.350334
v -0.222062 0.144320 -0.507731
v -0.300359 0.075768 -0.337361
v -0.207248 0.259776 -0.021482
vn 0.663470 0.491136 -0.564440
vn -0.084183 0.786053 0.612399
vn 0.723166 -0.663583 -0.191542
vn 0.000000 -1.000000 0.000000
vn -0.136184 0.000000 0.990684
vn 0.966667 0.000000 -0.256037
vn -0.914246 0.000000 -0.405159
vn -0.523204 -0.776428 0.351309
vn 0.402706 -0.666015 -0.627894
vn 0.097143 0.926387 0.363828
vn 0.473323 0.794124 0.381226
vn 0.761661 0.000000 -0.647976
vn -0.702127 -0.640469 -0.311156
vn -0.161274 -0.848080 -0.504728
vn -0.547670 0.751550 0.367737
vn -0.880448 0.075823 0.468041
vn -0.848745 0.275790 0.451189
vn -0.870325 0.168762 0.462660
vn -0.080095 -0.808763 0.582656
vn -0.170397 0.828599 -0.533281
vn 0.650312 -0.520589 -0.553247
vn -0.880285 -0.078210 0.467955
vn -0.868137 -0.182641 0.461498
vn -0.843328 -0.296339 0.448309
vn 0.539866 0.000000 -0.841751
vn -0.778407 0.627759 0.000000
vn -0.723972 0.610679 -0.320837
vn -0.304367 0.000000 -0.952555
vn -0.830210 0.000000 0.557450
vn -0.753650 -0.657276 0.000000
vn 0.778804 0.000000 0.627267
vn -1.000000 0.000000 0.000000
vn 0.747403 0.634192 -0.197962
vn 0.416308 0.636676 -0.649101
vn 0.449894 -0.816268 0.362356
vn 0.000000 1.000000 0.000000
usemtl dirt
f 3/3/1 2/2/1 1/1/1
f 2/2/1 3/3/1 4/4/1
f 7/7/2 6/6/2 5/5/2
f 6/6/2 7/7/2 8/8/2
f 6/6/2 8/8/2 9/9/2
f 12/12/3 11/11/3 10/10/3
f 11/11/3 12/12/3 13/13/3
f 14/16/4 10/15/4 11/14/4
f 10/15/4 14/16/4 15/17/4
f 15/17/4 14/16/4 16/18/4
f 15/17/4 16/18/4 17/19/4
f 17/19/4 16/18/4 18/20/4
f 18/20/4 16/18/4 19/21/4
f 20/22/4 17/19/4 18/20/4
f 17/19/4 20/22/4 21/23/4
f 5/26/5 23/25/5 22/24/5
f 23/25/5 5/26/5 6/27/5
f 24/30/6 12/29/6 2/28/6
f 12/29/6 24/30/6 13/31/6
f 27/34/7 26/33/7 25/32/7
f 26/33/7 27/34/7 28/35/7
f 23/38/8 19/37/8 16/36/8
f 19/37/8 23/38/8 27/39/8
f 17/42/9 29/41/9 15/40/9
f 29/41/9 17/42/9 30/43/9
f 8/46/10 7/45/10 31/44/10
f 32/49/11 5/48/11 24/47/11
f 5/48/11 32/49/11 31/50/11
f 5/48/11 31/50/11 7/51/11
f 2/54/12 29/53/12 1/52/12
f 29/53/12 2/54/12 12/55/12
f 18/58/13 27/57/13 25/56/13
f 27/57/13 18/58/13 19/59/13
f 21/62/14 30/61/14 17/60/14
f 30/61/14 21/62/14 33/63/14
f 34/66/15 6/65/15 9/64/15
f 6/65/15 34/66/15 28/67/15
f 37/70/18 36/69/17 35/68/16
f 36/69/17 37/70/18 38/71/17
f 23/74/19 14/73/19 22/72/19
f 14/73/19 23/74/19 16/75/19
f 40/78/20 36/77/20 39/76/20
f 36/77/20 40/78/20 35/79/20
f 12/82/21 15/81/21 29/80/21
f 15/81/21 12/82/21 10/83/21
f 41/86/23 35/85/16 33/84/22
f 35/85/16 41/86/23 37/87/18
f 21/90/24 41/89/23 33/88/22
f 41/89/23 21/90/24 20/91/24
f 40/94/25 29/93/25 30/92/25
f 29/93/25 40/94/25 1/95/25
f 26/98/26 38/97/26 37/96/26
f 38/97/26 26/98/26 42/99/26
f 28/102/27 42/101/27 26/100/27
f 42/101/27 28/102/27 34/103/27
f 35/106/28 30/105/28 33/104/28
f 30/105/28 35/106/28 40/107/28
f 23/110/29 28/109/29 27/108/29
f 28/109/29 23/110/29 6/111/29
f 20/114/30 25/113/30 41/112/30
f 25/113/30 20/114/30 18/115/30
f 5/118/31 13/117/31 24/116/31
f 13/117/31 5/118/31 22/119/31
f 25/122/32 37/121/32 41/120/32
f 37/121/32 25/122/32 26/123/32
f 32/126/33 2/125/33 4/124/33
f 2/125/33 32/126/33 24/127/33
f 39/130/34 1/129/34 40/128/34
f 1/129/34 39/130/34 3/131/34
f 22/134/35 11/133/35 13/132/35
f 11/133/35 22/134/35 14/135/35
usemtl grass
f 36/138/36 38/137/36 39/136/36
f 42/139/36 39/136/36 38/137/36
f 9/140/36 39/136/36 42/139/36
f 9/140/36 3/141/36 39/136/36
f 8/142/36 3/141/36 9/140/36
f 31/143/36 3/141/36 8/142/36
f 31/143/36 4/144/36 3/141/36
f 4/144/36 31/143/36 32/145/36
f 9/140/36 42/139/36 34/146/36
