mtllib sign.mtl
v 0.017500 0.000000 0.017500
v -0.017500 0.000000 0.017500
v 0.017500 0.203171 0.017500
v -0.017500 0.203171 0.017500
v -0.017500 0.000000 -0.017500
v -0.017500 0.408770 -0.017500
v -0.017500 0.408770 0.017500
v -0.017500 0.380771 0.017500
v 0.017500 0.408770 0.017500
v 0.017500 0.408770 -0.017500
v 0.120000 0.233171 0.052500
v -0.120000 0.233171 0.052500
v 0.120000 0.350770 0.052500
v -0.120000 0.350770 0.052500
v 0.017500 0.380771 0.017500
v 0.017500 0.000000 -0.017500
v -0.150000 0.203171 0.017500
v -0.150000 0.380771 0.017500
v -0.150000 0.203171 0.052500
v -0.150000 0.380771 0.052500
v 0.150000 0.380771 0.017500
v 0.150000 0.203171 0.017500
v 0.150000 0.380771 0.052500
v 0.150000 0.203171 0.052500
vn 0.000000 0.000000 1.000000
vn -1.000000 0.000000 0.000000
vn 0.000000 1.000000 0.000000
vn 1.000000 0.000000 0.000000
vn 0.000000 0.000000 -1.000000
vn 0.000000 -1.000000 0.000000
usemtl wood
f 3/3/1 2/2/1 1/1/1
f 2/2/1 3/3/1 4/4/1
f 2/7/2 6/6/2 5/5/2
f 6/6/2 2/7/2 7/8/2
f 7/8/2 2/7/2 4/9/2
f 7/8/2 4/9/2 8/10/2
f 10/13/3 7/12/3 9/11/3
f 7/12/3 10/13/3 6/14/3
f 13/17/1 12/16/1 11/15/1
f 12/16/1 13/17/1 14/18/1
f 9/21/1 8/20/1 15/19/1
f 8/20/1 9/21/1 7/22/1
f 9/6/4 16/7/4 10/8/4
f 16/7/4 9/6/4 1/5/4
f 1/5/4 9/6/4 15/23/4
f 1/5/4 15/23/4 3/24/4
f 6/21/5 16/26/5 5/25/5
f 16/26/5 6/21/5 10/22/5
usemtl woodDark
f 19/27/2 18/10/2 17/9/2
f 18/10/2 19/27/2 20/28/2
f 23/29/4 22/24/4 21/23/4
f 22/24/4 23/29/4 24/30/4
f 3/4/5 21/32/5 22/31/5
f 21/32/5 3/4/5 15/20/5
f 19/35/6 22/34/6 24/33/6
f 22/34/6 19/35/6 3/12/6
f 3/12/6 19/35/6 4/11/6
f 4/11/6 19/35/6 17/36/6
f 15/11/3 23/35/3 21/36/3
f 23/35/3 15/11/3 20/33/3
f 20/33/3 15/11/3 8/12/3
f 20/33/3 8/12/3 18/34/3
f 18/38/5 4/3/5 17/37/5
f 4/3/5 18/38/5 8/19/5
f 24/37/1 11/15/1 19/31/1
f 11/15/1 24/37/1 23/38/1
f 11/15/1 23/38/1 13/17/1
f 13/17/1 23/38/1 14/18/1
f 12/16/1 19/31/1 11/15/1
f 19/31/1 12/16/1 20/32/1
f 20/32/1 12/16/1 14/18/1
f 20/32/1 14/18/1 23/38/1
usemtl _defaultMat
f 2/26/6 16/21/6 1/22/6
f 16/26/6 2/21/6 5/22/6
