mtllib tent_small.mtl
v 0.157226 0.284285 -0.089830
v 0.100159 0.369115 -0.073088
v 0.169241 0.266425 0.041619
v 0.112174 0.351254 0.058361
v 0.152342 0.291546 0.078587
v 0.147569 0.298641 0.174406
v 0.189369 0.236505 0.084507
v 0.184596 0.243600 0.180326
v -0.273800 0.000000 -0.318200
v 0.273800 0.000000 -0.318200
v -0.273800 0.111000 -0.318200
v 0.273800 0.111000 -0.318200
v -0.064721 0.194500 -0.318200
v -0.064721 0.274500 -0.318200
v 0.000000 0.518000 -0.318200
v 0.064721 0.274500 -0.318200
v 0.064721 0.194500 -0.318200
v -0.000000 0.518000 0.260184
v 0.014208 0.496880 0.260184
v -0.000000 0.518000 0.288600
v 0.014208 0.496880 0.288600
v -0.000000 0.518000 0.318200
v 0.014208 0.496880 -0.261368
v 0.000000 0.518000 -0.261368
v 0.210235 0.205488 0.063941
v 0.237834 0.164464 -0.004427
v 0.014208 0.496880 -0.289784
v 0.000000 0.518000 -0.289784
v 0.273800 0.111000 0.318200
v 0.239131 0.162535 0.062133
v 0.208938 0.207417 -0.002619
v 0.205350 0.000000 0.318200
v 0.136900 0.000000 0.318200
v 0.136900 0.000000 0.348200
v -0.000000 0.444136 0.318200
v 0.273800 0.000000 0.318200
v -0.273800 0.111000 0.318200
v -0.205350 0.000000 0.318200
v -0.273800 0.000000 0.318200
v -0.136900 0.000000 0.318200
v -0.184331 0.243995 -0.222829
v -0.225337 0.183040 -0.213939
v -0.177384 0.254322 -0.119980
v -0.218390 0.193367 -0.111089
v -0.136900 0.000000 0.348200
v -0.185176 0.242738 -0.091438
v -0.189484 0.236335 -0.014122
v -0.156406 0.285505 -0.086293
v -0.160713 0.279102 -0.008977
v -0.014208 0.496880 0.260184
v -0.014208 0.496880 0.288600
v -0.014208 0.496880 -0.289784
v -0.014208 0.496880 -0.261368
v 0.014208 0.000000 -0.289784
v -0.014208 0.000000 -0.289784
v 0.014208 0.000000 -0.261368
v -0.014208 0.000000 -0.261368
v -0.014208 0.561131 -0.289784
v 0.014208 0.561131 -0.289784
v 0.014208 0.561131 -0.261368
v -0.014208 0.561131 -0.261368
v -0.014208 0.561131 0.260184
v 0.014208 0.561131 0.260184
v 0.014208 0.000000 0.260184
v -0.014208 0.000000 0.260184
v 0.014208 0.561131 0.288600
v -0.014208 0.561131 0.288600
v 0.014208 0.000000 0.288600
v -0.014208 0.000000 0.288600
vn -0.829722 -0.558177 0.000000
vn -0.829723 -0.558176 -0.000000
vn 0.000000 0.000000 -1.000000
vn 0.000000 0.000000 1.000000
vn 0.829722 0.558177 0.000000
vn 0.829722 0.558177 0.000000
vn -0.829722 -0.558177 0.000000
vn -0.829722 -0.558177 0.000000
vn 0.000000 -1.000000 0.000000
vn 0.829723 -0.558176 0.000001
vn 0.394675 0.182481 0.900518
vn -0.394675 0.182481 0.900518
vn 0.829722 -0.558177 0.000001
vn -0.829722 0.558177 0.000000
vn -0.829722 0.558177 0.000000
vn 0.829722 -0.558177 0.000000
vn 0.829722 -0.558177 0.000000
vn 0.955632 -0.294563 0.000000
vn -0.955632 -0.294563 0.000000
vn -0.829723 -0.558176 0.000000
vn -1.000000 0.000000 0.000000
vn 1.000000 0.000000 0.000000
vn 0.829722 0.558177 0.000000
vn 0.829723 0.558176 0.000000
vn -0.829723 0.558176 -0.000001
vn -0.829722 0.558177 -0.000001
vn 0.829723 0.558176 0.000000
vn 0.000000 1.000000 0.000000
usemtl colorRed
f 3/3/1 2/2/1 1/1/1
f 2/2/1 3/3/1 4/4/1
f 7/7/2 6/6/2 5/5/2
f 6/6/2 7/7/2 8/8/2
f 11/11/3 10/10/3 9/9/3
f 10/10/3 11/11/3 12/12/3
f 12/12/3 11/11/3 13/13/3
f 13/13/3 11/11/3 14/14/3
f 14/14/3 11/11/3 15/15/3
f 14/14/3 15/15/3 16/16/3
f 12/12/3 16/16/3 15/15/3
f 16/16/3 12/12/3 17/17/3
f 17/17/3 12/12/3 13/13/3
f 9/9/4 10/10/4 11/11/4
f 12/12/4 11/11/4 10/10/4
f 13/13/4 11/11/4 12/12/4
f 14/14/4 11/11/4 13/13/4
f 15/15/4 11/11/4 14/14/4
f 16/16/4 15/15/4 14/14/4
f 15/15/4 16/16/4 12/12/4
f 17/17/4 12/12/4 16/16/4
f 13/13/4 12/12/4 17/17/4
f 20/20/5 19/19/5 18/18/5
f 19/19/5 20/20/5 21/21/5
f 22/22/6 21/21/5 20/20/5
f 19/19/5 8/23/6 18/18/5
f 6/24/6 18/18/5 8/23/6
f 5/25/6 18/18/5 6/24/6
f 4/26/6 18/18/5 5/25/6
f 2/27/6 18/18/5 4/26/6
f 23/28/6 18/18/5 2/27/6
f 18/18/5 23/28/6 24/29/6
f 23/28/6 2/27/6 1/30/6
f 4/26/6 5/25/6 25/31/6
f 26/32/6 23/28/6 1/30/6
f 26/32/6 27/33/6 23/28/6
f 12/34/6 27/33/6 26/32/6
f 12/34/6 28/35/6 27/33/6
f 28/35/6 12/34/6 15/36/6
f 12/34/6 26/32/6 29/37/6
f 29/37/6 26/32/6 30/38/6
f 29/37/6 30/38/6 25/31/6
f 29/37/6 25/31/6 7/39/6
f 7/39/6 25/31/6 5/25/6
f 29/37/6 7/39/6 8/23/6
f 29/37/6 8/23/6 19/19/5
f 29/37/6 19/19/5 21/21/5
f 29/37/6 21/21/5 22/22/6
f 1/30/6 31/40/6 26/32/6
f 31/40/6 1/30/6 3/41/6
f 31/40/6 3/41/6 25/31/6
f 25/31/6 3/41/6 4/26/6
f 18/18/7 19/19/7 20/20/7
f 21/21/7 20/20/7 19/19/7
f 20/20/7 21/21/7 22/22/8
f 18/18/7 8/23/8 19/19/7
f 8/23/8 18/18/7 6/24/8
f 6/24/8 18/18/7 5/25/8
f 5/25/8 18/18/7 4/26/8
f 4/26/8 18/18/7 2/27/8
f 2/27/8 18/18/7 23/28/8
f 24/29/8 23/28/8 18/18/7
f 1/30/8 2/27/8 23/28/8
f 25/31/8 5/25/8 4/26/8
f 1/30/8 23/28/8 26/32/8
f 23/28/8 27/33/8 26/32/8
f 26/32/8 27/33/8 12/34/8
f 27/33/8 28/35/8 12/34/8
f 15/36/8 12/34/8 28/35/8
f 29/37/8 26/32/8 12/34/8
f 30/38/8 26/32/8 29/37/8
f 25/31/8 30/38/8 29/37/8
f 7/39/8 25/31/8 29/37/8
f 5/25/8 25/31/8 7/39/8
f 8/23/8 7/39/8 29/37/8
f 19/19/7 8/23/8 29/37/8
f 21/21/7 19/19/7 29/37/8
f 22/22/8 21/21/7 29/37/8
f 26/32/8 31/40/8 1/30/8
f 3/41/8 1/30/8 31/40/8
f 25/31/8 3/41/8 31/40/8
f 4/26/8 3/41/8 25/31/8
f 34/44/9 33/43/9 32/42/9
f 35/47/4 33/46/4 32/45/4
f 36/9/4 35/47/4 32/45/4
f 35/47/4 36/9/4 29/11/4
f 35/47/4 29/11/4 22/48/4
f 37/12/4 35/47/4 22/48/4
f 37/12/4 38/49/4 35/47/4
f 38/49/4 37/12/4 39/10/4
f 35/47/4 38/49/4 40/50/4
f 32/45/3 33/46/3 35/47/3
f 32/45/3 35/47/3 36/9/3
f 29/11/3 36/9/3 35/47/3
f 22/48/3 29/11/3 35/47/3
f 22/48/3 35/47/3 37/12/3
f 35/47/3 38/49/3 37/12/3
f 39/10/3 37/12/3 38/49/3
f 40/50/3 38/49/3 35/47/3
f 43/53/10 42/52/10 41/51/10
f 42/52/10 43/53/10 44/54/10
f 38/57/9 40/56/9 45/55/9
f 35/60/11 34/59/11 32/58/11
f 35/63/12 38/62/12 45/61/12
f 48/66/13 47/65/13 46/64/13
f 47/65/13 48/66/13 49/67/13
f 51/70/14 18/69/14 50/68/14
f 18/69/14 51/70/14 20/71/14
f 50/68/14 37/34/15 51/70/14
f 51/70/14 37/34/15 20/71/14
f 49/72/15 37/34/15 50/68/14
f 18/69/14 49/72/15 50/68/14
f 47/73/15 37/34/15 49/72/15
f 46/74/15 37/34/15 47/73/15
f 44/75/15 37/34/15 46/74/15
f 42/76/15 37/34/15 44/75/15
f 42/76/15 11/37/15 37/34/15
f 11/37/15 42/76/15 15/22/15
f 15/22/15 42/76/15 52/77/15
f 52/77/15 42/76/15 53/78/15
f 53/78/15 42/76/15 41/79/15
f 53/78/15 41/79/15 24/80/15
f 41/79/15 18/69/14 24/80/15
f 20/71/14 37/34/15 22/36/15
f 18/69/14 41/79/15 48/81/15
f 48/81/15 44/75/15 46/74/15
f 18/69/14 48/81/15 49/72/15
f 48/81/15 41/79/15 43/82/15
f 48/81/15 43/82/15 44/75/15
f 28/83/15 15/22/15 52/77/15
f 50/68/16 18/69/16 51/70/16
f 20/71/16 51/70/16 18/69/16
f 51/70/16 37/34/17 50/68/16
f 20/71/16 37/34/17 51/70/16
f 50/68/16 37/34/17 49/72/17
f 50/68/16 49/72/17 18/69/16
f 49/72/17 37/34/17 47/73/17
f 47/73/17 37/34/17 46/74/17
f 46/74/17 37/34/17 44/75/17
f 44/75/17 37/34/17 42/76/17
f 37/34/17 11/37/17 42/76/17
f 15/22/17 42/76/17 11/37/17
f 52/77/17 42/76/17 15/22/17
f 53/78/17 42/76/17 52/77/17
f 41/79/17 42/76/17 53/78/17
f 24/80/17 41/79/17 53/78/17
f 24/80/17 18/69/16 41/79/17
f 22/36/17 37/34/17 20/71/16
f 48/81/17 41/79/17 18/69/16
f 46/74/17 44/75/17 48/81/17
f 43/82/17 41/79/17 48/81/17
f 44/75/17 43/82/17 48/81/17
f 49/72/17 48/81/17 18/69/16
f 52/77/17 15/22/17 28/83/17
f 45/86/18 40/85/18 35/84/18
f 34/89/19 35/88/19 33/87/19
f 30/92/20 31/91/20 26/90/20
f 31/91/20 30/92/20 25/93/20
f 39/96/21 11/95/21 9/94/21
f 11/95/21 39/96/21 37/97/21
f 9/94/22 11/95/22 39/96/22
f 37/97/22 39/96/22 11/95/22
f 29/95/22 10/96/22 12/97/22
f 10/96/22 29/95/22 36/94/22
f 12/97/21 10/96/21 29/95/21
f 36/94/21 29/95/21 10/96/21
usemtl colorRedDark
f 1/1/23 2/2/23 3/3/23
f 4/4/23 3/3/23 2/2/23
f 5/5/24 6/6/24 7/7/24
f 8/8/24 7/7/24 6/6/24
f 41/51/25 42/52/25 43/53/25
f 44/54/25 43/53/25 42/52/25
f 46/64/26 47/65/26 48/66/26
f 49/67/26 48/66/26 47/65/26
f 26/90/27 31/91/27 30/92/27
f 25/93/27 30/92/27 31/91/27
usemtl wood
f 56/100/9 55/99/9 54/98/9
f 55/99/9 56/100/9 57/101/9
f 58/104/3 28/103/3 52/102/3
f 59/105/3 28/103/3 58/104/3
f 28/103/3 59/105/3 27/106/3
f 27/106/3 52/102/3 28/103/3
f 54/107/3 52/102/3 27/106/3
f 52/102/3 54/107/3 55/108/3
f 58/98/28 60/101/28 59/99/28
f 60/101/28 58/98/28 61/100/28
f 62/104/3 18/109/3 50/102/3
f 63/105/3 18/109/3 62/104/3
f 18/109/3 63/105/3 19/106/3
f 19/106/3 50/102/3 18/109/3
f 64/110/3 50/102/3 19/106/3
f 50/102/3 64/110/3 65/111/3
f 57/114/21 52/113/21 55/112/21
f 52/113/21 57/114/21 53/115/21
f 53/115/21 58/116/21 52/113/21
f 58/116/21 53/115/21 61/117/21
f 62/120/28 66/119/28 63/118/28
f 66/119/28 62/120/28 67/121/28
f 60/124/22 27/123/22 59/122/22
f 27/123/22 60/124/22 23/125/22
f 23/125/22 54/126/22 27/123/22
f 54/126/22 23/125/22 56/127/22
f 21/130/22 64/129/22 19/128/22
f 64/129/22 21/130/22 68/131/22
f 19/128/22 66/132/22 21/130/22
f 66/132/22 19/128/22 63/133/22
f 66/104/4 20/134/4 21/102/4
f 67/105/4 20/134/4 66/104/4
f 20/134/4 67/105/4 51/106/4
f 51/106/4 21/102/4 20/134/4
f 69/110/4 21/102/4 51/106/4
f 21/102/4 69/110/4 68/111/4
f 68/121/9 65/118/9 64/120/9
f 65/118/9 68/121/9 69/119/9
f 69/137/21 50/136/21 65/135/21
f 50/136/21 69/137/21 51/138/21
f 51/138/21 62/139/21 50/136/21
f 62/139/21 51/138/21 67/140/21
f 60/104/4 24/141/4 23/102/4
f 61/105/4 24/141/4 60/104/4
f 24/141/4 61/105/4 53/106/4
f 53/106/4 23/102/4 24/141/4
f 57/107/4 23/102/4 53/106/4
f 23/102/4 57/107/4 56/108/4
