mtllib lamp.mtl
v 0.000000 0.000000 0.120000
v 0.000000 0.000000 0.000000
v -0.120000 0.000000 0.120000
v -0.120000 0.000000 0.000000
v -0.012000 0.020000 0.108000
v -0.052741 0.020000 0.052741
v -0.012000 0.020000 0.012000
v -0.108000 0.020000 0.012000
v -0.067259 0.020000 0.052741
v -0.067259 0.020000 0.067259
v -0.052741 0.020000 0.067259
v -0.108000 0.020000 0.108000
v -0.050927 0.760750 0.050927
v -0.050927 0.760750 0.069073
v -0.069073 0.760750 0.050927
v -0.069073 0.760750 0.069073
v -0.098799 0.681500 0.082401
v -0.060000 0.681500 0.104802
v -0.098799 0.860000 0.082401
v -0.060000 0.860000 0.104802
v -0.021201 0.681500 0.037599
v -0.021201 0.860000 0.037599
v -0.021201 0.681500 0.082401
v -0.021201 0.860000 0.082401
v -0.098799 0.860000 0.037599
v -0.098799 0.681500 0.037599
v -0.060000 0.681500 0.015198
v -0.060000 0.860000 0.015198
v 0.016020 0.681500 0.103890
v -0.060000 0.681500 0.147780
v -0.136020 0.681500 0.103890
v 0.016020 0.681500 0.016110
v -0.060000 0.681500 -0.027780
v -0.136020 0.681500 0.016110
v -0.006026 0.860000 0.091162
v -0.006026 0.860000 0.028838
v -0.060000 0.860000 -0.002324
v -0.113974 0.860000 0.028838
v -0.060000 0.860000 0.122324
v -0.113974 0.860000 0.091162
vn 0.000000 -1.000000 0.000000
vn 0.000000 1.000000 0.000000
vn -0.857493 0.514496 0.000000
vn 0.000000 0.514496 -0.857493
vn 0.000000 -0.002450 0.999997
vn 0.999997 -0.002450 0.000000
vn 0.000000 -0.002450 -0.999997
vn 0.000000 0.514496 0.857493
vn -0.999997 -0.002450 0.000000
vn 0.857493 0.514496 0.000000
vn 0.500000 0.000000 -0.866025
vn -1.000000 0.000000 0.000000
vn 1.000000 0.000000 0.000000
vn -0.500000 0.000000 -0.866025
vn 0.500000 0.000000 0.866025
vn -0.500000 0.000000 0.866025
vn 0.496230 0.122574 -0.859495
vn 0.992459 0.122574 0.000000
vn -0.992459 0.122574 0.000000
vn -0.496230 0.122574 0.859495
vn -0.496230 0.122574 -0.859495
vn 0.496230 0.122574 0.859495
usemtl metal
f 2/2/1 1/1/1 3/3/1
f 3/3/1 4/4/1 2/2/1
f 6/6/2 5/5/2 7/7/2
f 7/7/2 8/8/2 6/6/2
f 8/8/2 9/9/2 6/6/2
f 8/8/2 10/10/2 9/9/2
f 5/5/2 6/6/2 11/11/2
f 11/11/2 12/12/2 5/5/2
f 11/11/2 10/10/2 12/12/2
f 10/10/2 8/8/2 12/12/2
f 14/14/2 13/13/2 15/15/2
f 15/15/2 16/16/2 14/14/2
f 8/18/3 4/17/3 3/19/3
f 3/19/3 12/20/3 8/18/3
f 2/2/4 4/21/4 8/22/4
f 8/22/4 7/23/4 2/2/4
f 10/25/5 11/24/5 14/26/5
f 14/26/5 16/27/5 10/25/5
f 6/29/6 13/28/6 14/30/6
f 14/30/6 11/31/6 6/29/6
f 6/33/7 9/32/7 15/34/7
f 15/34/7 13/35/7 6/33/7
f 3/37/8 1/36/8 5/38/8
f 5/38/8 12/39/8 3/37/8
f 16/41/9 15/40/9 9/42/9
f 9/42/9 10/43/9 16/41/9
f 1/44/10 2/2/10 7/45/10
f 7/45/10 5/46/10 1/44/10
f 2/2/1 1/1/1 3/3/1
f 3/3/1 4/4/1 2/2/1
f 6/6/2 5/5/2 7/7/2
f 7/7/2 8/8/2 6/6/2
f 8/8/2 9/9/2 6/6/2
f 8/8/2 10/10/2 9/9/2
f 5/5/2 6/6/2 11/11/2
f 11/11/2 12/12/2 5/5/2
f 11/11/2 10/10/2 12/12/2
f 10/10/2 8/8/2 12/12/2
f 14/14/2 13/13/2 15/15/2
f 15/15/2 16/16/2 14/14/2
f 8/18/3 4/17/3 3/19/3
f 3/19/3 12/20/3 8/18/3
f 2/2/4 4/21/4 8/22/4
f 8/22/4 7/23/4 2/2/4
f 10/25/5 11/24/5 14/26/5
f 14/26/5 16/27/5 10/25/5
f 6/29/6 13/28/6 14/30/6
f 14/30/6 11/31/6 6/29/6
f 6/33/7 9/32/7 15/34/7
f 15/34/7 13/35/7 6/33/7
f 3/37/8 1/36/8 5/38/8
f 5/38/8 12/39/8 3/37/8
f 16/41/9 15/40/9 9/42/9
f 9/42/9 10/43/9 16/41/9
f 1/44/10 2/2/10 7/45/10
f 7/45/10 5/46/10 1/44/10
usemtl lamp
f 18/48/11 17/47/11 19/49/11
f 19/49/11 20/50/11 18/48/11
f 22/52/12 21/51/12 23/53/12
f 23/53/12 24/54/12 22/52/12
f 26/56/13 25/55/13 19/57/13
f 19/57/13 17/58/13 26/56/13
f 23/60/14 18/59/14 20/61/14
f 20/61/14 24/62/14 23/60/14
f 26/64/15 27/63/15 28/65/15
f 28/65/15 25/66/15 26/64/15
f 27/68/16 21/67/16 22/69/16
f 22/69/16 28/70/16 27/68/16
f 23/72/1 29/71/1 30/73/1
f 30/73/1 18/74/1 23/72/1
f 30/73/1 31/75/1 18/74/1
f 31/75/1 17/76/1 18/74/1
f 31/75/1 26/77/1 17/76/1
f 29/71/1 23/72/1 21/78/1
f 32/79/1 29/71/1 21/78/1
f 21/78/1 33/80/1 32/79/1
f 21/78/1 27/81/1 33/80/1
f 27/81/1 34/82/1 33/80/1
f 27/81/1 26/77/1 34/82/1
f 26/77/1 31/75/1 34/82/1
f 22/84/2 35/83/2 36/85/2
f 36/85/2 37/86/2 22/84/2
f 37/86/2 28/87/2 22/84/2
f 37/86/2 38/88/2 28/87/2
f 38/88/2 25/89/2 28/87/2
f 38/88/2 19/90/2 25/89/2
f 35/83/2 22/84/2 24/91/2
f 24/91/2 39/92/2 35/83/2
f 24/91/2 20/93/2 39/92/2
f 20/93/2 19/90/2 39/92/2
f 19/90/2 40/94/2 39/92/2
f 19/90/2 38/88/2 40/94/2
f 32/96/17 33/95/17 37/97/17
f 37/97/17 36/98/17 32/96/17
f 29/100/18 32/99/18 36/101/18
f 36/101/18 35/102/18 29/100/18
f 38/104/19 34/103/19 31/105/19
f 31/105/19 40/106/19 38/104/19
f 31/108/20 30/107/20 39/109/20
f 39/109/20 40/110/20 31/108/20
f 33/112/21 34/111/21 38/113/21
f 38/113/21 37/114/21 33/112/21
f 30/116/22 29/115/22 35/117/22
f 35/117/22 39/118/22 30/116/22
f 18/48/11 17/47/11 19/49/11
f 19/49/11 20/50/11 18/48/11
f 22/52/12 21/51/12 23/53/12
f 23/53/12 24/54/12 22/52/12
f 26/56/13 25/55/13 19/57/13
f 19/57/13 17/58/13 26/56/13
f 23/60/14 18/59/14 20/61/14
f 20/61/14 24/62/14 23/60/14
f 26/64/15 27/63/15 28/65/15
f 28/65/15 25/66/15 26/64/15
f 27/68/16 21/67/16 22/69/16
f 22/69/16 28/70/16 27/68/16
f 23/72/1 29/71/1 30/73/1
f 30/73/1 18/74/1 23/72/1
f 30/73/1 31/75/1 18/74/1
f 31/75/1 17/76/1 18/74/1
f 31/75/1 26/77/1 17/76/1
f 29/71/1 23/72/1 21/78/1
f 32/79/1 29/71/1 21/78/1
f 21/78/1 33/80/1 32/79/1
f 21/78/1 27/81/1 33/80/1
f 27/81/1 34/82/1 33/80/1
f 27/81/1 26/77/1 34/82/1
f 26/77/1 31/75/1 34/82/1
f 22/84/2 35/83/2 36/85/2
f 36/85/2 37/86/2 22/84/2
f 37/86/2 28/87/2 22/84/2
f 37/86/2 38/88/2 28/87/2
f 38/88/2 25/89/2 28/87/2
f 38/88/2 19/90/2 25/89/2
f 35/83/2 22/84/2 24/91/2
f 24/91/2 39/92/2 35/83/2
f 24/91/2 20/93/2 39/92/2
f 20/93/2 19/90/2 39/92/2
f 19/90/2 40/94/2 39/92/2
f 19/90/2 38/88/2 40/94/2
f 32/96/17 33/95/17 37/97/17
f 37/97/17 36/98/17 32/96/17
f 29/100/18 32/99/18 36/101/18
f 36/101/18 35/102/18 29/100/18
f 38/104/19 34/103/19 31/105/19
f 31/105/19 40/106/19 38/104/19
f 31/108/20 30/107/20 39/109/20
f 39/109/20 40/110/20 31/108/20
f 33/112/21 34/111/21 38/113/21
f 38/113/21 37/114/21 33/112/21
f 30/116/22 29/115/22 35/117/22
f 35/117/22 39/118/22 30/116/22
