mtllib plantSmall2.mtl
v -0.009059 0.000000 0.033807
v -0.033807 0.000000 0.009059
v -0.012682 0.065000 0.047330
v -0.047330 0.065000 0.012682
v 0.024749 0.000000 0.024749
v 0.033807 0.000000 -0.009059
v -0.024749 0.000000 -0.024749
v 0.009059 0.000000 -0.033807
v -0.026202 0.025000 -0.026202
v -0.035792 0.025000 0.009590
v -0.026202 0.065000 -0.026202
v -0.035792 0.065000 0.009590
v 0.012682 0.065000 -0.047330
v 0.047330 0.065000 -0.012682
v -0.034648 0.065000 -0.034648
v 0.034648 0.065000 0.034648
v -0.009590 0.025000 0.035792
v -0.009590 0.065000 0.035792
v 0.035792 0.025000 -0.009590
v 0.009590 0.025000 -0.035792
v 0.035792 0.065000 -0.009590
v 0.009590 0.065000 -0.035792
v 0.026202 0.025000 0.026202
v 0.012500 0.025000 0.012500
v 0.012500 0.025000 -0.012500
v -0.012500 0.025000 -0.012500
v -0.012500 0.025000 0.012500
v 0.026202 0.065000 0.026202
v 0.009625 0.070000 -0.009625
v -0.009625 0.070000 -0.009625
v 0.009625 0.070000 0.009625
v -0.009625 0.070000 0.009625
v -0.010425 0.070000 0.018057
v -0.012990 0.070000 0.007500
v -0.013136 0.080000 0.022752
v -0.016368 0.080000 0.009450
v -0.012990 0.070000 -0.007500
v -0.016368 0.080000 -0.009450
v -0.020850 0.070000 -0.000000
v -0.026271 0.080000 -0.000000
v 0.026271 0.080000 0.000000
v 0.016368 0.080000 -0.009450
v 0.020850 0.070000 0.000000
v 0.012990 0.070000 -0.007500
v 0.016368 0.080000 0.009450
v 0.012990 0.070000 0.007500
v 0.010425 0.070000 0.018057
v 0.013136 0.080000 0.022752
v 0.000000 0.135000 -0.010233
v -0.000000 0.140000 -0.000000
v -0.007112 0.135000 -0.012319
v -0.014224 0.135000 -0.000000
v -0.008862 0.135000 -0.005117
v -0.008862 0.135000 0.005117
v -0.007112 0.135000 0.012319
v 0.008862 0.135000 0.005117
v 0.007112 0.135000 0.012319
v 0.013136 0.080000 -0.022752
v 0.000000 0.080000 -0.018900
v 0.010425 0.070000 -0.018057
v 0.000000 0.070000 -0.015000
v 0.007112 0.135000 -0.012319
v 0.014224 0.135000 0.000000
v -0.000000 0.080000 0.018900
v -0.000000 0.070000 0.015000
v -0.010425 0.070000 -0.018057
v -0.013136 0.080000 -0.022752
v -0.000000 0.135000 0.010233
v 0.008862 0.135000 -0.005117
v 0.011658 0.125000 -0.020192
v 0.000000 0.125000 -0.016774
v 0.011658 0.125000 0.020192
v -0.000000 0.125000 0.016774
v -0.014526 0.125000 -0.008387
v -0.011658 0.125000 -0.020192
v -0.011658 0.125000 0.020192
v -0.014526 0.125000 0.008387
v 0.023316 0.125000 0.000000
v 0.014526 0.125000 0.008387
v 0.014526 0.125000 -0.008387
v -0.023316 0.125000 -0.000000
vn -0.695118 -0.183366 0.695118
vn 0.000000 -1.000000 0.000000
vn 0.965926 0.000000 0.258819
vn 0.695118 -0.183366 -0.695118
vn -0.254431 -0.183366 -0.949548
vn 0.949548 -0.183366 0.254431
vn 0.707107 0.000000 -0.707107
vn -0.707107 0.000000 0.707107
vn -0.949548 -0.183366 -0.254431
vn 0.258819 0.000000 0.965926
vn 0.000000 1.000000 0.000000
vn 0.254431 -0.183366 0.949548
vn -0.965926 0.000000 -0.258819
vn -0.258819 0.000000 -0.965926
vn 0.000000 0.063759 -0.997965
vn 0.997965 0.063759 0.000000
vn -0.000000 0.063759 0.997965
vn -0.997965 0.063759 -0.000000
vn -0.910079 -0.350502 0.221144
vn -0.646556 -0.350502 -0.677579
vn 0.646556 -0.350502 -0.677579
vn 0.646556 -0.350502 0.677579
vn 0.910079 -0.350502 0.221145
vn 0.127670 0.891134 -0.435408
vn -0.313240 0.891134 -0.328269
vn -0.313240 0.891134 0.328269
vn -0.440909 0.891134 0.107139
vn 0.440909 0.891134 0.107139
vn -0.263522 -0.350502 -0.898724
vn -0.127670 0.891134 -0.435408
vn 0.313240 0.891134 0.328269
vn -0.440909 0.891134 -0.107139
vn -0.263523 -0.350502 0.898724
vn -0.646556 -0.350502 0.677579
vn 0.263523 -0.350502 -0.898724
vn 0.910079 -0.350502 -0.221144
vn 0.127670 0.891134 0.435408
vn -0.127670 0.891134 0.435408
vn 0.313240 0.891134 -0.328269
vn 0.440909 0.891134 -0.107139
vn 0.263522 -0.350502 0.898724
vn -0.910079 -0.350502 -0.221145
vn -0.281083 0.045295 -0.958614
vn -0.281083 0.045295 0.958614
vn -0.238322 0.531593 0.812780
vn -0.970726 0.045295 -0.235882
vn 0.281083 0.045295 -0.958614
vn -0.970726 0.045295 0.235881
vn 0.584727 0.531593 0.612783
vn 0.584727 0.531593 -0.612783
vn 0.970726 0.045295 -0.235881
vn 0.689642 0.045295 0.722732
vn 0.823050 0.531593 -0.199997
vn -0.689642 0.045295 -0.722732
vn 0.238322 0.531593 -0.812780
vn 0.689642 0.045295 -0.722732
vn 0.970726 0.045295 0.235882
vn 0.238322 0.531593 0.812780
vn -0.584727 0.531593 0.612783
vn -0.823050 0.531593 -0.199997
vn 0.823050 0.531593 0.199997
vn -0.823050 0.531593 0.199997
vn -0.689642 0.045295 0.722732
vn 0.281083 0.045295 0.958614
vn -0.584727 0.531593 -0.612783
vn -0.238322 0.531593 -0.812780
usemtl wood
f 2/2/1 1/1/1 3/3/1
f 3/3/1 4/4/1 2/2/1
f 5/6/2 1/5/2 2/7/2
f 2/7/2 6/8/2 5/6/2
f 2/7/2 7/9/2 6/8/2
f 7/9/2 8/10/2 6/8/2
f 10/12/3 9/11/3 11/13/3
f 11/13/3 12/14/3 10/12/3
f 6/2/4 8/1/4 13/3/4
f 13/3/4 14/4/4 6/2/4
f 15/3/5 13/4/5 8/2/5
f 8/2/5 7/1/5 15/3/5
f 5/2/6 6/1/6 14/3/6
f 14/3/6 16/4/6 5/2/6
f 17/12/7 10/11/7 12/13/7
f 12/13/7 18/14/7 17/12/7
f 20/12/8 19/11/8 21/13/8
f 21/13/8 22/14/8 20/12/8
f 7/2/9 2/1/9 4/3/9
f 4/3/9 15/4/9 7/2/9
f 20/11/10 22/13/10 11/14/10
f 11/14/10 9/12/10 20/11/10
f 24/16/11 23/15/11 19/17/11
f 19/17/11 25/18/11 24/16/11
f 19/17/11 20/19/11 25/18/11
f 20/19/11 26/20/11 25/18/11
f 20/19/11 9/21/11 26/20/11
f 23/15/11 24/16/11 27/22/11
f 23/15/11 27/22/11 10/23/11
f 27/22/11 26/20/11 10/23/11
f 26/20/11 9/21/11 10/23/11
f 10/23/11 17/24/11 23/15/11
f 5/1/12 16/3/12 3/4/12
f 3/4/12 1/2/12 5/1/12
f 18/24/11 3/25/11 16/26/11
f 16/26/11 28/15/11 18/24/11
f 16/26/11 14/27/11 28/15/11
f 14/27/11 21/17/11 28/15/11
f 14/27/11 22/19/11 21/17/11
f 14/27/11 13/28/11 22/19/11
f 4/29/11 3/25/11 18/24/11
f 18/24/11 12/23/11 4/29/11
f 12/23/11 15/30/11 4/29/11
f 22/19/11 13/28/11 15/30/11
f 12/23/11 11/21/11 15/30/11
f 11/21/11 22/19/11 15/30/11
f 19/12/13 23/11/13 28/13/13
f 28/13/13 21/14/13 19/12/13
f 28/14/14 23/12/14 17/11/14
f 17/11/14 18/13/14 28/14/14
f 29/32/15 25/31/15 26/33/15
f 26/33/15 30/34/15 29/32/15
f 24/31/16 25/33/16 29/34/16
f 29/34/16 31/32/16 24/31/16
f 27/31/17 24/33/17 31/34/17
f 31/34/17 32/32/17 27/31/17
f 26/31/18 27/33/18 32/34/18
f 32/34/18 30/32/18 26/31/18
f 2/2/1 1/1/1 3/3/1
f 3/3/1 4/4/1 2/2/1
f 5/6/2 1/5/2 2/7/2
f 2/7/2 6/8/2 5/6/2
f 2/7/2 7/9/2 6/8/2
f 7/9/2 8/10/2 6/8/2
f 10/12/3 9/11/3 11/13/3
f 11/13/3 12/14/3 10/12/3
f 6/2/4 8/1/4 13/3/4
f 13/3/4 14/4/4 6/2/4
f 15/3/5 13/4/5 8/2/5
f 8/2/5 7/1/5 15/3/5
f 5/2/6 6/1/6 14/3/6
f 14/3/6 16/4/6 5/2/6
f 17/12/7 10/11/7 12/13/7
f 12/13/7 18/14/7 17/12/7
f 20/12/8 19/11/8 21/13/8
f 21/13/8 22/14/8 20/12/8
f 7/2/9 2/1/9 4/3/9
f 4/3/9 15/4/9 7/2/9
f 20/11/10 22/13/10 11/14/10
f 11/14/10 9/12/10 20/11/10
f 24/16/11 23/15/11 19/17/11
f 19/17/11 25/18/11 24/16/11
f 19/17/11 20/19/11 25/18/11
f 20/19/11 26/20/11 25/18/11
f 20/19/11 9/21/11 26/20/11
f 23/15/11 24/16/11 27/22/11
f 23/15/11 27/22/11 10/23/11
f 27/22/11 26/20/11 10/23/11
f 26/20/11 9/21/11 10/23/11
f 10/23/11 17/24/11 23/15/11
f 5/1/12 16/3/12 3/4/12
f 3/4/12 1/2/12 5/1/12
f 18/24/11 3/25/11 16/26/11
f 16/26/11 28/15/11 18/24/11
f 16/26/11 14/27/11 28/15/11
f 14/27/11 21/17/11 28/15/11
f 14/27/11 22/19/11 21/17/11
f 14/27/11 13/28/11 22/19/11
f 4/29/11 3/25/11 18/24/11
f 18/24/11 12/23/11 4/29/11
f 12/23/11 15/30/11 4/29/11
f 22/19/11 13/28/11 15/30/11
f 12/23/11 11/21/11 15/30/11
f 11/21/11 22/19/11 15/30/11
f 19/12/13 23/11/13 28/13/13
f 28/13/13 21/14/13 19/12/13
f 28/14/14 23/12/14 17/11/14
f 17/11/14 18/13/14 28/14/14
f 29/32/15 25/31/15 26/33/15
f 26/33/15 30/34/15 29/32/15
f 24/31/16 25/33/16 29/34/16
f 29/34/16 31/32/16 24/31/16
f 27/31/17 24/33/17 31/34/17
f 31/34/17 32/32/17 27/31/17
f 26/31/18 27/33/18 32/34/18
f 32/34/18 30/32/18 26/31/18
usemtl plant
f 34/36/19 33/35/19 35/37/19
f 35/37/19 36/38/19 34/36/19
f 38/38/20 37/36/20 39/35/20
f 39/35/20 40/37/20 38/38/20
f 42/40/21 41/39/21 43/41/21
f 43/41/21 44/42/21 42/40/21
f 43/35/22 41/37/22 45/38/22
f 45/38/22 46/36/22 43/35/22
f 47/41/23 46/42/23 45/40/23
f 45/40/23 48/39/23 47/41/23
f 50/44/24 49/43/24 51/45/24
f 52/45/25 50/46/25 53/43/25
f 54/48/26 50/47/26 52/49/26
f 54/43/27 55/45/27 50/50/27
f 57/49/28 56/48/28 50/51/28
f 59/40/29 58/39/29 60/41/29
f 60/41/29 61/42/29 59/40/29
f 49/48/30 50/52/30 62/49/30
f 56/43/31 63/45/31 50/47/31
f 53/48/32 50/53/32 51/49/32
f 47/35/33 48/37/33 64/38/33
f 64/38/33 65/36/33 47/35/33
f 32/55/2 65/54/2 33/56/2
f 33/56/2 34/57/2 32/55/2
f 32/55/2 31/58/2 65/54/2
f 34/57/2 30/59/2 32/55/2
f 34/57/2 39/60/2 30/59/2
f 39/60/2 37/61/2 30/59/2
f 37/61/2 66/62/2 30/59/2
f 66/62/2 61/63/2 30/59/2
f 47/64/2 65/54/2 31/58/2
f 31/58/2 46/65/2 47/64/2
f 31/58/2 29/66/2 46/65/2
f 29/66/2 43/67/2 46/65/2
f 29/66/2 44/68/2 43/67/2
f 29/66/2 60/69/2 44/68/2
f 29/66/2 30/59/2 60/69/2
f 30/59/2 61/63/2 60/69/2
f 39/41/34 34/42/34 36/40/34
f 36/40/34 40/39/34 39/41/34
f 67/37/35 59/38/35 61/36/35
f 61/36/35 66/35/35 67/37/35
f 44/36/36 60/35/36 58/37/36
f 58/37/36 42/38/36 44/36/36
f 55/49/37 68/48/37 50/70/37
f 68/43/38 57/45/38 50/70/38
f 50/71/39 63/49/39 69/48/39
f 50/72/40 69/43/40 62/45/40
f 65/42/41 64/40/41 35/39/41
f 35/39/41 33/41/41 65/42/41
f 66/41/42 37/42/42 38/40/42
f 38/40/42 67/39/42 66/41/42
f 70/74/43 58/73/43 59/75/43
f 59/75/43 71/76/43 70/74/43
f 64/78/44 48/77/44 72/79/44
f 72/79/44 73/80/44 64/78/44
f 73/82/45 72/81/45 57/83/45
f 57/83/45 68/84/45 73/82/45
f 67/73/46 38/75/46 74/76/46
f 74/76/46 75/74/46 67/73/46
f 71/80/47 59/78/47 67/77/47
f 67/77/47 75/79/47 71/80/47
f 36/78/48 35/77/48 76/79/48
f 76/79/48 77/80/48 36/78/48
f 79/82/49 78/81/49 63/83/49
f 63/83/49 56/84/49 79/82/49
f 63/86/50 78/85/50 80/87/50
f 80/87/50 69/88/50 63/86/50
f 42/78/51 58/77/51 70/79/51
f 70/79/51 80/80/51 42/78/51
f 45/78/52 41/77/52 78/79/52
f 78/79/52 79/80/52 45/78/52
f 80/82/53 70/81/53 62/83/53
f 62/83/53 69/84/53 80/82/53
f 81/79/54 74/80/54 38/78/54
f 38/78/54 40/77/54 81/79/54
f 49/84/55 71/82/55 75/81/55
f 75/81/55 51/83/55 49/84/55
f 78/74/56 41/73/56 42/75/56
f 42/75/56 80/76/56 78/74/56
f 48/73/57 45/75/57 79/76/57
f 79/76/57 72/74/57 48/73/57
f 73/87/58 68/88/58 55/86/58
f 55/86/58 76/85/58 73/87/58
f 77/87/59 54/88/59 52/86/59
f 52/86/59 81/85/59 77/87/59
f 75/85/60 74/87/60 53/88/60
f 53/88/60 51/86/60 75/85/60
f 72/85/61 79/87/61 56/88/61
f 56/88/61 57/86/61 72/85/61
f 77/82/62 76/81/62 55/83/62
f 55/83/62 54/84/62 77/82/62
f 36/75/63 77/76/63 81/74/63
f 81/74/63 40/73/63 36/75/63
f 35/73/64 64/75/64 73/76/64
f 73/76/64 76/74/64 35/73/64
f 52/83/65 53/84/65 74/82/65
f 74/82/65 81/81/65 52/83/65
f 62/86/66 70/85/66 71/87/66
f 71/87/66 49/88/66 62/86/66
f 34/36/19 33/35/19 35/37/19
f 35/37/19 36/38/19 34/36/19
f 38/38/20 37/36/20 39/35/20
f 39/35/20 40/37/20 38/38/20
f 42/40/21 41/39/21 43/41/21
f 43/41/21 44/42/21 42/40/21
f 43/35/22 41/37/22 45/38/22
f 45/38/22 46/36/22 43/35/22
f 47/41/23 46/42/23 45/40/23
f 45/40/23 48/39/23 47/41/23
f 50/44/24 49/43/24 51/45/24
f 52/45/25 50/46/25 53/43/25
f 54/48/26 50/47/26 52/49/26
f 54/43/27 55/45/27 50/50/27
f 57/49/28 56/48/28 50/51/28
f 59/40/29 58/39/29 60/41/29
f 60/41/29 61/42/29 59/40/29
f 49/48/30 50/52/30 62/49/30
f 56/43/31 63/45/31 50/47/31
f 53/48/32 50/53/32 51/49/32
f 47/35/33 48/37/33 64/38/33
f 64/38/33 65/36/33 47/35/33
f 32/55/2 65/54/2 33/56/2
f 33/56/2 34/57/2 32/55/2
f 32/55/2 31/58/2 65/54/2
f 34/57/2 30/59/2 32/55/2
f 34/57/2 39/60/2 30/59/2
f 39/60/2 37/61/2 30/59/2
f 37/61/2 66/62/2 30/59/2
f 66/62/2 61/63/2 30/59/2
f 47/64/2 65/54/2 31/58/2
f 31/58/2 46/65/2 47/64/2
f 31/58/2 29/66/2 46/65/2
f 29/66/2 43/67/2 46/65/2
f 29/66/2 44/68/2 43/67/2
f 29/66/2 60/69/2 44/68/2
f 29/66/2 30/59/2 60/69/2
f 30/59/2 61/63/2 60/69/2
f 39/41/34 34/42/34 36/40/34
f 36/40/34 40/39/34 39/41/34
f 67/37/35 59/38/35 61/36/35
f 61/36/35 66/35/35 67/37/35
f 44/36/36 60/35/36 58/37/36
f 58/37/36 42/38/36 44/36/36
f 55/49/37 68/48/37 50/70/37
f 68/43/38 57/45/38 50/70/38
f 50/71/39 63/49/39 69/48/39
f 50/72/40 69/43/40 62/45/40
f 65/42/41 64/40/41 35/39/41
f 35/39/41 33/41/41 65/42/41
f 66/41/42 37/42/42 38/40/42
f 38/40/42 67/39/42 66/41/42
f 70/74/43 58/73/43 59/75/43
f 59/75/43 71/76/43 70/74/43
f 64/78/44 48/77/44 72/79/44
f 72/79/44 73/80/44 64/78/44
f 73/82/45 72/81/45 57/83/45
f 57/83/45 68/84/45 73/82/45
f 67/73/46 38/75/46 74/76/46
f 74/76/46 75/74/46 67/73/46
f 71/80/47 59/78/47 67/77/47
f 67/77/47 75/79/47 71/80/47
f 36/78/48 35/77/48 76/79/48
f 76/79/48 77/80/48 36/78/48
f 79/82/49 78/81/49 63/83/49
f 63/83/49 56/84/49 79/82/49
f 63/86/50 78/85/50 80/87/50
f 80/87/50 69/88/50 63/86/50
f 42/78/51 58/77/51 70/79/51
f 70/79/51 80/80/51 42/78/51
f 45/78/52 41/77/52 78/79/52
f 78/79/52 79/80/52 45/78/52
f 80/82/53 70/81/53 62/83/53
f 62/83/53 69/84/53 80/82/53
f 81/79/54 74/80/54 38/78/54
f 38/78/54 40/77/54 81/79/54
f 49/84/55 71/82/55 75/81/55
f 75/81/55 51/83/55 49/84/55
f 78/74/56 41/73/56 42/75/56
f 42/75/56 80/76/56 78/74/56
f 48/73/57 45/75/57 79/76/57
f 79/76/57 72/74/57 48/73/57
f 73/87/58 68/88/58 55/86/58
f 55/86/58 76/85/58 73/87/58
f 77/87/59 54/88/59 52/86/59
f 52/86/59 81/85/59 77/87/59
f 75/85/60 74/87/60 53/88/60
f 53/88/60 51/86/60 75/85/60
f 72/85/61 79/87/61 56/88/61
f 56/88/61 57/86/61 72/85/61
f 77/82/62 76/81/62 55/83/62
f 55/83/62 54/84/62 77/82/62
f 36/75/63 77/76/63 81/74/63
f 81/74/63 40/73/63 36/75/63
f 35/73/64 64/75/64 73/76/64
f 73/76/64 76/74/64 35/73/64
f 52/83/65 53/84/65 74/82/65
f 74/82/65 81/81/65 52/83/65
f 62/86/66 70/85/66 71/87/66
f 71/87/66 49/88/66 62/86/66
