mtllib plantSmall.mtl
v -0.009059 0.000000 0.033807
v 0.024749 0.000000 0.024749
v -0.033807 0.000000 0.009059
v 0.033807 0.000000 -0.009059
v -0.024749 0.000000 -0.024749
v 0.009059 0.000000 -0.033807
v -0.012682 0.065000 0.047330
v -0.009590 0.065000 0.035792
v 0.034648 0.065000 0.034648
v 0.026202 0.065000 0.026202
v 0.047330 0.065000 -0.012682
v 0.035792 0.065000 -0.009590
v 0.009590 0.065000 -0.035792
v 0.012682 0.065000 -0.047330
v -0.047330 0.065000 0.012682
v -0.035792 0.065000 0.009590
v -0.034648 0.065000 -0.034648
v -0.026202 0.065000 -0.026202
v 0.026202 0.025000 0.026202
v 0.012500 0.025000 0.012500
v 0.035792 0.025000 -0.009590
v 0.012500 0.025000 -0.012500
v 0.009590 0.025000 -0.035792
v -0.012500 0.025000 -0.012500
v -0.026202 0.025000 -0.026202
v -0.012500 0.025000 0.012500
v -0.035792 0.025000 0.009590
v -0.009590 0.025000 0.035792
v -0.009625 0.070000 0.009625
v -0.009625 0.070000 -0.009625
v 0.009625 0.070000 0.009625
v 0.009625 0.070000 -0.009625
v 0.021912 0.090000 0.022183
v -0.022183 0.090000 0.022183
v 0.011505 0.110000 0.011777
v -0.011777 0.110000 0.011777
v 0.021912 0.090000 -0.021912
v 0.011505 0.110000 -0.011505
v -0.022183 0.090000 -0.021912
v -0.011777 0.110000 -0.011505
v 0.018036 0.110000 0.018307
v -0.018307 0.110000 0.018307
v -0.018307 0.110000 -0.018036
v 0.018036 0.110000 -0.018036
v 0.024575 0.070000 -0.024575
v 0.013873 0.090000 -0.013873
v -0.024846 0.070000 -0.024575
v -0.014145 0.090000 -0.013873
v -0.000136 0.140000 0.000136
v -0.014145 0.090000 0.014145
v 0.013873 0.090000 0.014145
v -0.024846 0.070000 0.024846
v 0.024575 0.070000 0.024846
vn 0.000000 -1.000000 0.000000
vn 0.000000 1.000000 0.000000
vn 0.949548 -0.183366 0.254431
vn 0.254431 -0.183366 0.949548
vn -0.965926 0.000000 -0.258819
vn 0.707107 0.000000 -0.707107
vn -0.258819 0.000000 -0.965926
vn -0.707107 0.000000 0.707107
vn 0.965926 0.000000 0.258819
vn -0.949548 -0.183366 -0.254431
vn -0.254431 -0.183366 -0.949548
vn 0.258819 0.000000 0.965926
vn -0.695118 -0.183366 0.695118
vn 0.695118 -0.183366 -0.695118
vn -0.997965 0.063759 -0.000000
vn -0.000000 0.063759 0.997965
vn 0.997965 0.063759 0.000000
vn 0.000000 0.063759 -0.997965
vn -0.000000 0.461574 0.887102
vn 0.000000 0.461574 -0.887102
vn 0.887102 0.461574 0.000000
vn 0.000000 0.471778 -0.881717
vn 0.855332 0.518080 0.000000
vn -0.855332 0.518080 -0.000000
vn -0.881717 0.471778 -0.000000
vn -0.000000 0.471778 0.881717
vn -0.887102 0.461574 -0.000000
vn 0.000000 0.518080 -0.855332
vn 0.881717 0.471778 0.000000
vn -0.000000 0.518080 0.855332
usemtl wood
f 2/2/1 1/1/1 3/3/1
f 3/3/1 4/4/1 2/2/1
f 3/3/1 5/5/1 4/4/1
f 5/5/1 6/6/1 4/4/1
f 8/8/2 7/7/2 9/9/2
f 9/9/2 10/10/2 8/8/2
f 9/9/2 11/11/2 10/10/2
f 11/11/2 12/12/2 10/10/2
f 11/11/2 13/13/2 12/12/2
f 11/11/2 14/14/2 13/13/2
f 15/15/2 7/7/2 8/8/2
f 8/8/2 16/16/2 15/15/2
f 16/16/2 17/17/2 15/15/2
f 13/13/2 14/14/2 17/17/2
f 16/16/2 18/18/2 17/17/2
f 18/18/2 13/13/2 17/17/2
f 20/19/2 19/10/2 21/12/2
f 21/12/2 22/20/2 20/19/2
f 21/12/2 23/13/2 22/20/2
f 23/13/2 24/21/2 22/20/2
f 23/13/2 25/18/2 24/21/2
f 19/10/2 20/19/2 26/22/2
f 19/10/2 26/22/2 27/16/2
f 26/22/2 24/21/2 27/16/2
f 24/21/2 25/18/2 27/16/2
f 27/16/2 28/8/2 19/10/2
f 2/24/3 4/23/3 11/25/3
f 11/25/3 9/26/3 2/24/3
f 2/23/4 9/25/4 7/26/4
f 7/26/4 1/24/4 2/23/4
f 21/28/5 19/27/5 10/29/5
f 10/29/5 12/30/5 21/28/5
f 28/28/6 27/27/6 16/29/6
f 16/29/6 8/30/6 28/28/6
f 10/30/7 19/28/7 28/27/7
f 28/27/7 8/29/7 10/30/7
f 23/28/8 21/27/8 12/29/8
f 12/29/8 13/30/8 23/28/8
f 27/28/9 25/27/9 18/29/9
f 18/29/9 16/30/9 27/28/9
f 5/24/10 3/23/10 15/25/10
f 15/25/10 17/26/10 5/24/10
f 17/25/11 14/26/11 6/24/11
f 6/24/11 5/23/11 17/25/11
f 23/27/12 13/29/12 18/30/12
f 18/30/12 25/28/12 23/27/12
f 3/24/13 1/23/13 7/25/13
f 7/25/13 15/26/13 3/24/13
f 4/24/14 6/23/14 14/25/14
f 14/25/14 11/26/14 4/24/14
f 24/32/15 26/31/15 29/33/15
f 29/33/15 30/34/15 24/32/15
f 26/32/16 20/31/16 31/33/16
f 31/33/16 29/34/16 26/32/16
f 20/32/17 22/31/17 32/33/17
f 32/33/17 31/34/17 20/32/17
f 32/34/18 22/32/18 24/31/18
f 24/31/18 30/33/18 32/34/18
f 2/2/1 1/1/1 3/3/1
f 3/3/1 4/4/1 2/2/1
f 3/3/1 5/5/1 4/4/1
f 5/5/1 6/6/1 4/4/1
f 8/8/2 7/7/2 9/9/2
f 9/9/2 10/10/2 8/8/2
f 9/9/2 11/11/2 10/10/2
f 11/11/2 12/12/2 10/10/2
f 11/11/2 13/13/2 12/12/2
f 11/11/2 14/14/2 13/13/2
f 15/15/2 7/7/2 8/8/2
f 8/8/2 16/16/2 15/15/2
f 16/16/2 17/17/2 15/15/2
f 13/13/2 14/14/2 17/17/2
f 16/16/2 18/18/2 17/17/2
f 18/18/2 13/13/2 17/17/2
f 20/19/2 19/10/2 21/12/2
f 21/12/2 22/20/2 20/19/2
f 21/12/2 23/13/2 22/20/2
f 23/13/2 24/21/2 22/20/2
f 23/13/2 25/18/2 24/21/2
f 19/10/2 20/19/2 26/22/2
f 19/10/2 26/22/2 27/16/2
f 26/22/2 24/21/2 27/16/2
f 24/21/2 25/18/2 27/16/2
f 27/16/2 28/8/2 19/10/2
f 2/24/3 4/23/3 11/25/3
f 11/25/3 9/26/3 2/24/3
f 2/23/4 9/25/4 7/26/4
f 7/26/4 1/24/4 2/23/4
f 21/28/5 19/27/5 10/29/5
f 10/29/5 12/30/5 21/28/5
f 28/28/6 27/27/6 16/29/6
f 16/29/6 8/30/6 28/28/6
f 10/30/7 19/28/7 28/27/7
f 28/27/7 8/29/7 10/30/7
f 23/28/8 21/27/8 12/29/8
f 12/29/8 13/30/8 23/28/8
f 27/28/9 25/27/9 18/29/9
f 18/29/9 16/30/9 27/28/9
f 5/24/10 3/23/10 15/25/10
f 15/25/10 17/26/10 5/24/10
f 17/25/11 14/26/11 6/24/11
f 6/24/11 5/23/11 17/25/11
f 23/27/12 13/29/12 18/30/12
f 18/30/12 25/28/12 23/27/12
f 3/24/13 1/23/13 7/25/13
f 7/25/13 15/26/13 3/24/13
f 4/24/14 6/23/14 14/25/14
f 14/25/14 11/26/14 4/24/14
f 24/32/15 26/31/15 29/33/15
f 29/33/15 30/34/15 24/32/15
f 26/32/16 20/31/16 31/33/16
f 31/33/16 29/34/16 26/32/16
f 20/32/17 22/31/17 32/33/17
f 32/33/17 31/34/17 20/32/17
f 32/34/18 22/32/18 24/31/18
f 24/31/18 30/33/18 32/34/18
usemtl plant
f 34/36/19 33/35/19 35/37/19
f 35/37/19 36/38/19 34/36/19
f 38/40/20 37/39/20 39/41/20
f 39/41/20 40/42/20 38/40/20
f 33/44/21 37/43/21 38/45/21
f 38/45/21 35/46/21 33/44/21
f 36/48/1 41/47/1 42/49/1
f 42/49/1 43/50/1 36/48/1
f 36/48/1 35/51/1 41/47/1
f 43/50/1 40/52/1 36/48/1
f 44/53/1 41/47/1 35/51/1
f 40/52/1 43/50/1 44/53/1
f 35/51/1 38/54/1 44/53/1
f 38/54/1 40/52/1 44/53/1
f 46/56/22 45/55/22 47/57/22
f 47/57/22 48/58/22 46/56/22
f 41/60/23 44/59/23 49/61/23
f 43/63/24 42/62/24 49/64/24
f 50/66/1 33/65/1 34/67/1
f 34/67/1 39/68/1 50/66/1
f 39/68/1 48/69/1 50/66/1
f 39/68/1 46/70/1 48/69/1
f 33/65/1 50/66/1 51/71/1
f 51/71/1 37/72/1 33/65/1
f 51/71/1 46/70/1 37/72/1
f 46/70/1 39/68/1 37/72/1
f 47/74/25 52/73/25 50/75/25
f 50/75/25 48/76/25 47/74/25
f 52/78/26 53/77/26 51/79/26
f 51/79/26 50/80/26 52/78/26
f 39/82/27 34/81/27 36/83/27
f 36/83/27 40/84/27 39/82/27
f 29/86/1 53/85/1 52/87/1
f 52/87/1 47/88/1 29/86/1
f 29/86/1 31/89/1 53/85/1
f 47/88/1 30/90/1 29/86/1
f 45/91/1 53/85/1 31/89/1
f 30/90/1 47/88/1 45/91/1
f 31/89/1 32/92/1 45/91/1
f 32/92/1 30/90/1 45/91/1
f 49/94/28 44/93/28 43/95/28
f 53/97/29 45/96/29 46/98/29
f 46/98/29 51/99/29 53/97/29
f 41/101/30 49/100/30 42/102/30
f 34/36/19 33/35/19 35/37/19
f 35/37/19 36/38/19 34/36/19
f 38/40/20 37/39/20 39/41/20
f 39/41/20 40/42/20 38/40/20
f 33/44/21 37/43/21 38/45/21
f 38/45/21 35/46/21 33/44/21
f 36/48/1 41/47/1 42/49/1
f 42/49/1 43/50/1 36/48/1
f 36/48/1 35/51/1 41/47/1
f 43/50/1 40/52/1 36/48/1
f 44/53/1 41/47/1 35/51/1
f 40/52/1 43/50/1 44/53/1
f 35/51/1 38/54/1 44/53/1
f 38/54/1 40/52/1 44/53/1
f 46/56/22 45/55/22 47/57/22
f 47/57/22 48/58/22 46/56/22
f 41/60/23 44/59/23 49/61/23
f 43/63/24 42/62/24 49/64/24
f 50/66/1 33/65/1 34/67/1
f 34/67/1 39/68/1 50/66/1
f 39/68/1 48/69/1 50/66/1
f 39/68/1 46/70/1 48/69/1
f 33/65/1 50/66/1 51/71/1
f 51/71/1 37/72/1 33/65/1
f 51/71/1 46/70/1 37/72/1
f 46/70/1 39/68/1 37/72/1
f 47/74/25 52/73/25 50/75/25
f 50/75/25 48/76/25 47/74/25
f 52/78/26 53/77/26 51/79/26
f 51/79/26 50/80/26 52/78/26
f 39/82/27 34/81/27 36/83/27
f 36/83/27 40/84/27 39/82/27
f 29/86/1 53/85/1 52/87/1
f 52/87/1 47/88/1 29/86/1
f 29/86/1 31/89/1 53/85/1
f 47/88/1 30/90/1 29/86/1
f 45/91/1 53/85/1 31/89/1
f 30/90/1 47/88/1 45/91/1
f 31/89/1 32/92/1 45/91/1
f 32/92/1 30/90/1 45/91/1
f 49/94/28 44/93/28 43/95/28
f 53/97/29 45/96/29 46/98/29
f 46/98/29 51/99/29 53/97/29
f 41/101/30 49/100/30 42/102/30
