mtllib trashcan.mtl
v -0.051923 -0.000000 0.089934
v -0.103847 0.000000 0.000000
v -0.051923 0.341056 0.089934
v -0.103847 0.368184 0.000000
v -0.051923 0.368184 0.089934
v -0.051923 0.000000 -0.089934
v -0.051923 0.032554 -0.089934
v -0.051923 0.368184 -0.089934
v 0.051923 0.368184 -0.089934
v 0.051923 0.032554 -0.089934
v 0.103847 -0.000000 -0.000000
v 0.103847 0.368184 -0.000000
v 0.051923 0.000000 -0.089934
v 0.051923 -0.000000 0.089934
v 0.051923 0.341056 0.089934
v 0.051923 0.368184 0.089934
v -0.046498 0.000000 -0.122488
v 0.046498 0.000000 -0.122488
v -0.051923 0.395312 0.089934
v 0.051923 0.395312 0.089934
v 0.103847 0.395312 -0.000000
v 0.051923 0.395312 -0.089934
v -0.051923 0.395312 -0.089934
v -0.103847 0.395312 0.000000
v 0.035308 0.427866 -0.061155
v 0.070616 0.427866 -0.000000
v -0.035308 0.427866 -0.061155
v -0.070616 0.427866 0.000000
v 0.035308 0.427866 0.061155
v -0.035308 0.427866 0.061155
v -0.046498 0.027128 -0.122488
v 0.046498 0.027128 -0.122488
v -0.044654 0.342955 0.111636
v -0.044654 0.366285 0.111636
v 0.044654 0.342955 0.111636
v 0.044654 0.366285 0.111636
vn -0.866026 0.000000 0.500000
vn -0.866026 0.000000 -0.500000
vn -0.000000 0.000000 -1.000000
vn 0.866026 0.000000 -0.500000
vn 0.866026 0.000000 0.500000
vn 0.000000 -1.000000 0.000000
vn 0.000000 0.000000 1.000000
vn 0.000000 1.000000 0.000000
vn -0.000000 0.662331 -0.749211
vn -0.648836 0.662331 -0.374605
vn -0.648836 0.662331 0.374606
vn 0.000000 0.662331 0.749211
vn 0.648836 0.662331 0.374605
vn 0.648836 0.662331 -0.374606
vn -0.986394 0.000000 -0.164399
vn 0.986394 0.000000 -0.164399
vn -0.000000 0.986394 -0.164399
vn -0.948222 0.000000 0.317607
vn 0.000000 -0.996194 0.087167
vn 0.948223 0.000000 0.317607
vn 0.000000 0.996194 0.087167
usemtl metal
f 2/2/1 1/1/1 3/3/1
f 3/3/1 4/4/1 2/2/1
f 3/3/1 5/5/1 4/4/1
f 6/7/2 2/6/2 4/5/2
f 4/5/2 7/8/2 6/7/2
f 4/5/2 8/4/2 7/8/2
f 7/9/3 8/5/3 9/4/3
f 9/4/3 10/8/3 7/9/3
f 12/4/4 11/10/4 13/6/4
f 13/6/4 10/9/4 12/4/4
f 10/9/4 9/5/4 12/4/4
f 14/12/5 11/11/5 12/5/5
f 12/5/5 15/13/5 14/12/5
f 12/5/5 16/4/5 15/13/5
f 6/15/6 17/14/6 18/16/6
f 18/16/6 13/17/6 6/15/6
f 13/17/6 2/18/6 6/15/6
f 13/17/6 11/19/6 2/18/6
f 11/19/6 14/20/6 2/18/6
f 14/20/6 1/21/6 2/18/6
f 3/13/7 1/10/7 14/22/7
f 14/22/7 15/3/7 3/13/7
f 2/2/1 1/1/1 3/3/1
f 3/3/1 4/4/1 2/2/1
f 3/3/1 5/5/1 4/4/1
f 6/7/2 2/6/2 4/5/2
f 4/5/2 7/8/2 6/7/2
f 4/5/2 8/4/2 7/8/2
f 7/9/3 8/5/3 9/4/3
f 9/4/3 10/8/3 7/9/3
f 12/4/4 11/10/4 13/6/4
f 13/6/4 10/9/4 12/4/4
f 10/9/4 9/5/4 12/4/4
f 14/12/5 11/11/5 12/5/5
f 12/5/5 15/13/5 14/12/5
f 12/5/5 16/4/5 15/13/5
f 6/15/6 17/14/6 18/16/6
f 18/16/6 13/17/6 6/15/6
f 13/17/6 2/18/6 6/15/6
f 13/17/6 11/19/6 2/18/6
f 11/19/6 14/20/6 2/18/6
f 14/20/6 1/21/6 2/18/6
f 3/13/7 1/10/7 14/22/7
f 14/22/7 15/3/7 3/13/7
usemtl metalDark
f 19/23/7 5/4/7 16/5/7
f 16/5/7 20/24/7 19/23/7
f 16/4/5 12/5/5 21/24/5
f 21/24/5 20/23/5 16/4/5
f 12/4/4 9/5/4 22/24/4
f 22/24/4 21/23/4 12/4/4
f 8/5/3 23/24/3 22/23/3
f 22/23/3 9/4/3 8/5/3
f 8/4/2 4/5/2 24/24/2
f 24/24/2 23/23/2 8/4/2
f 4/4/1 5/5/1 19/24/1
f 19/24/1 24/23/1 4/4/1
f 26/26/8 25/25/8 27/27/8
f 27/27/8 28/28/8 26/26/8
f 28/28/8 29/29/8 26/26/8
f 28/28/8 30/30/8 29/29/8
f 22/32/9 23/31/9 27/33/9
f 27/33/9 25/34/9 22/32/9
f 27/34/10 23/32/10 24/31/10
f 24/31/10 28/33/10 27/34/10
f 30/33/11 28/34/11 24/32/11
f 24/32/11 19/31/11 30/33/11
f 30/34/12 19/32/12 20/31/12
f 20/31/12 29/33/12 30/34/12
f 21/31/13 26/33/13 29/34/13
f 29/34/13 20/32/13 21/31/13
f 21/32/14 22/31/14 25/33/14
f 25/33/14 26/34/14 21/32/14
f 17/36/15 6/35/15 7/37/15
f 7/37/15 31/38/15 17/36/15
f 13/40/16 18/39/16 32/41/16
f 32/41/16 10/42/16 13/40/16
f 32/44/17 31/43/17 7/45/17
f 7/45/17 10/46/17 32/44/17
f 17/48/3 31/47/3 32/49/3
f 32/49/3 18/50/3 17/48/3
f 34/52/7 33/51/7 35/53/7
f 35/53/7 36/54/7 34/52/7
f 5/56/18 3/55/18 33/57/18
f 33/57/18 34/58/18 5/56/18
f 3/60/19 15/59/19 35/61/19
f 35/61/19 33/62/19 3/60/19
f 35/64/20 15/63/20 16/65/20
f 16/65/20 36/66/20 35/64/20
f 36/68/21 16/67/21 5/69/21
f 5/69/21 34/70/21 36/68/21
f 19/23/7 5/4/7 16/5/7
f 16/5/7 20/24/7 19/23/7
f 16/4/5 12/5/5 21/24/5
f 21/24/5 20/23/5 16/4/5
f 12/4/4 9/5/4 22/24/4
f 22/24/4 21/23/4 12/4/4
f 8/5/3 23/24/3 22/23/3
f 22/23/3 9/4/3 8/5/3
f 8/4/2 4/5/2 24/24/2
f 24/24/2 23/23/2 8/4/2
f 4/4/1 5/5/1 19/24/1
f 19/24/1 24/23/1 4/4/1
f 26/26/8 25/25/8 27/27/8
f 27/27/8 28/28/8 26/26/8
f 28/28/8 29/29/8 26/26/8
f 28/28/8 30/30/8 29/29/8
f 22/32/9 23/31/9 27/33/9
f 27/33/9 25/34/9 22/32/9
f 27/34/10 23/32/10 24/31/10
f 24/31/10 28/33/10 27/34/10
f 30/33/11 28/34/11 24/32/11
f 24/32/11 19/31/11 30/33/11
f 30/34/12 19/32/12 20/31/12
f 20/31/12 29/33/12 30/34/12
f 21/31/13 26/33/13 29/34/13
f 29/34/13 20/32/13 21/31/13
f 21/32/14 22/31/14 25/33/14
f 25/33/14 26/34/14 21/32/14
f 17/36/15 6/35/15 7/37/15
f 7/37/15 31/38/15 17/36/15
f 13/40/16 18/39/16 32/41/16
f 32/41/16 10/42/16 13/40/16
f 32/44/17 31/43/17 7/45/17
f 7/45/17 10/46/17 32/44/17
f 17/48/3 31/47/3 32/49/3
f 32/49/3 18/50/3 17/48/3
f 34/52/7 33/51/7 35/53/7
f 35/53/7 36/54/7 34/52/7
f 5/56/18 3/55/18 33/57/18
f 33/57/18 34/58/18 5/56/18
f 3/60/19 15/59/19 35/61/19
f 35/61/19 33/62/19 3/60/19
f 35/64/20 15/63/20 16/65/20
f 16/65/20 36/66/20 35/64/20
f 36/68/21 16/67/21 5/69/21
f 5/69/21 34/70/21 36/68/21
