mtllib flat.mtl
v -0.39367 1.095616 -0.412276
v -0.568387 0.992916 -0.212844
v -0.424032 0.873957 -0.384639
v -0.252169 0.930795 -0.331485
v -0.452195 1.079004 -0.083684
v -0.429876 0.817072 -0.147267
v -0.233652 1.080162 -0.08511
v -0.349442 0.876479 -0.091931
v -0.463456 1.106586 -0.399228
v -0.532267 0.950278 -0.397971
v -0.246209 1.062351 -0.418112
v -0.399716 1.229186 -0.228739
v -0.458695 1.183815 -0.258233
v -0.564655 0.886931 -0.221583
v -0.583871 0.936693 -0.265304
v -0.369713 0.775389 -0.229585
v -0.436213 0.78089 -0.283388
v -0.222501 0.900154 -0.268099
v -0.261052 0.861171 -0.228858
v -0.127218 1.051169 -0.210818
v -0.508049 0.938367 -0.077617
v -0.50369 0.996693 -0.069765
v -0.493604 0.878246 -0.071096
v 0.687654 0.914213 -0.614734
v 0.883106 0.900112 -0.506304
v 0.571047 1.141265 -0.590962
v 0.429923 0.989388 -0.548118
v 0.593277 0.916074 -0.415107
v 0.74588 0.947988 -0.382709
v 0.774635 1.142219 -0.366056
v 0.500539 1.189968 -0.39336
v 0.380996 1.031932 -0.420117
v 0.564761 1.054639 -0.274769
v 0.481419 1.012639 -0.59552
v 0.689452 1.083839 -0.623821
v 0.638785 1.034622 -0.629548
v 0.559478 0.918285 -0.560456
v 0.888869 0.961402 -0.472346
v 0.444752 1.162724 -0.346248
v 0.532063 1.15247 -0.50418
v 0.456542 1.127335 -0.505323
v 0.480052 0.982139 -0.344207
v 0.726945 1.053697 -0.323
v 0.237806 0.742126 -0.299618
v 0.237084 0.752196 -0.327703
v 0.219011 0.795439 -0.328045
v 0.237084 0.828612 -0.300303
v 0.27323 0.818542 -0.272218
v 0.255879 0.775299 -0.271876
v 0.417173 0.766526 -0.367669
v 0.381026 0.776597 -0.395753
v 0.381026 0.853013 -0.368353
v 0.417173 0.842942 -0.340268
v 0.545387 0.862255 -0.450519
v 0.523959 0.868225 -0.467168
v 0.5135 0.906526 -0.439973
v 0.534928 0.900557 -0.423324
v 0.611908 1.011268 -0.491224
v 0.598355 1.015044 -0.501754
v 0.585717 1.028366 -0.478608
v 0.597325 1.025132 -0.469588
v -0.179772 0.738452 -0.217622
v -0.206758 0.801934 -0.154149
v -0.16628 0.783127 -0.221958
v -0.29955 0.787423 -0.309047
v -0.315547 0.779756 -0.287663
v -0.316829 0.795615 -0.264884
v -0.302113 0.819141 -0.26349
v -0.286116 0.826809 -0.284875
v -0.284834 0.81095 -0.307653
v -0.392987 0.926628 -0.322398
v -0.403105 0.921778 -0.308873
v -0.376231 0.941284 -0.30297
v -0.024036 0.471826 -0.477514
v 0.329266 0.689369 -0.380969
v 0.035786 0.706783 -0.357098
v -0.174937 0.555263 -0.337245
v 0.196659 0.333105 -0.365648
v 0.410555 0.453003 -0.380728
v 0.362138 0.702468 -0.226472
v -0.065314 0.640454 -0.135292
v -0.058872 0.40708 -0.185417
v 0.31069 0.632008 -0.130371
v 0.277006 0.461135 -0.492999
v -0.086629 0.363349 -0.33277
v 0.395969 0.474556 -0.186578
v 0.13693 0.358292 -0.180392
v 0.396574 0.650564 -0.328855
v 0.456902 0.51976 -0.321951
v 0.079858 0.552587 -0.059579
v 0.01096 0.101929 -0.055345
v -0.003581 0.145495 -0.045999
v 0.072631 0.167133 -0.028288
v 0.087172 0.123567 -0.037634
v 0.024986 0.125822 -0.144896
v 0.010445 0.169388 -0.135549
v 0.086658 0.191026 -0.117839
v 0.101199 0.14746 -0.127185
v 0.093821 0.209847 -0.253159
v 0.056782 0.238722 -0.242657
v 0.100442 0.248099 -0.224717
v 0.130838 0.35797 -0.3237
v 0.107 0.371086 -0.311958
v 0.130504 0.371911 -0.297652
v 0.138586 0.363455 -0.309047
v 0.127955 -0.001128 -0.067264
v 0.085399 -0.001128 -0.126304
v 0.014673 -0.001128 -0.126304
v -0.042546 -0.001128 -0.067264
v -0.042546 -0.001128 0.067264
v 0.014673 -0.001128 0.125832
v 0.085399 -0.001128 0.125832
v 0.127955 -0.001128 0.067264
v 0.118461 0.180826 -0.049714
v 0.076172 0.180826 -0.097906
v 0.029088 0.246723 -0.080232
v -0.01839 0.180826 -0.049714
v -0.034543 0.180826 0.0
v -0.01839 0.180826 0.049714
v 0.01972 0.098416 0.110296
v 0.076172 0.180826 0.097435
v 0.118461 0.180826 0.049714
v 0.104878 0.246723 -0.039868
v 0.07024 0.316217 -0.079651
v -0.015348 0.316217 0.0
v 0.029831 0.316217 0.07918
v 0.07024 0.316217 0.07918
v 0.102932 0.316217 0.038432
v 0.104756 0.457494 0.0
v 0.094305 0.457494 -0.032164
v 0.066945 0.457494 -0.069509
v 0.033126 0.457494 -0.069509
v -0.004684 0.457494 0.0
v 0.033126 0.457494 0.069038
v 0.066945 0.457494 0.069038
v 0.129402 0.098416 0.057663
v -0.029331 0.098416 0.057663
v -0.029331 0.098416 -0.057663
v 0.01972 0.098416 -0.110768
v 0.080351 0.098416 -0.110768
v 0.129402 0.098416 -0.057663
v 0.175507 -0.001128 0.055027
v 0.257473 -0.001128 0.048968
v 0.281249 -0.001128 0.024205
v 0.285929 -0.001128 -0.009803
v 0.246251 -0.001128 -0.086405
v 0.187075 -0.001128 -0.101364
v 0.166283 0.098583 0.080978
v 0.255606 0.098583 0.073225
v 0.286032 0.098583 0.041535
v 0.292021 0.098583 -0.001986
v 0.247811 0.098583 -0.087053
v 0.185229 0.098583 -0.106198
v 0.272574 0.236045 0.039433
v 0.324453 0.19466 0.051296
v 0.342333 0.176152 0.026925
v 0.344618 0.169083 -0.00773
v 0.305202 0.19466 -0.056073
v 0.278556 0.217537 -0.051295
v 0.260676 0.236045 -0.026925
v 0.258391 0.243114 0.00773
v 0.396096 0.282024 0.003789
v 0.431036 0.250163 0.012626
v 0.442865 0.235915 -0.004597
v 0.44414 0.230472 -0.029262
v 0.417299 0.250163 -0.063987
v 0.387606 0.282024 -0.04356
v 0.445446 0.470917 0.007976
v 0.478662 0.462549 0.024812
v 0.494387 0.400409 0.018328
v 0.519684 0.392041 -0.009
v 0.506871 0.392041 -0.08046
v 0.464349 0.421249 -0.090813
v 0.432634 0.470917 -0.063485
v 0.451987 0.313194 -0.049067
v 0.457939 0.313194 -0.015871
v 0.433771 0.32962 -0.00095
v 0.420302 0.336965 -0.009123
v 0.41435 0.336965 -0.042318
v 0.424141 0.32962 -0.054661
v 0.180103 0.163736 0.086312
v 0.205895 0.168714 -0.122882
v 0.261915 0.155797 -0.09977
v 0.307742 0.150862 -0.008046
v 0.302551 0.155797 0.042279
v 0.271799 0.168714 0.078321
v -0.108238 -0.001128 -0.129728
v -0.181142 -0.001128 -0.129728
v -0.248834 -0.001128 -0.067264
v -0.248834 -0.001128 0.067264
v -0.181142 -0.001128 0.108836
v -0.108238 -0.001128 0.108836
v -0.09228 0.180826 -0.101331
v -0.147695 0.180826 -0.101331
v -0.193126 0.180826 -0.049714
v -0.193126 0.180826 0.049714
v -0.147695 0.180826 0.080439
v -0.173069 0.291514 -0.022856
v -0.206275 0.263452 -0.036982
v -0.221124 0.250903 -0.022856
v -0.221124 0.250903 0.022856
v -0.206275 0.263452 0.036982
v -0.187919 0.278964 0.036982
v -0.173069 0.291514 0.022856
v -0.314778 0.309721 -0.018984
v -0.340693 0.284573 -0.030717
v -0.352282 0.273327 -0.018984
v -0.352282 0.273327 0.018984
v -0.340693 0.284573 0.030717
v -0.314778 0.309721 0.018984
v -0.383698 0.41521 -0.018984
v -0.409613 0.390063 -0.030717
v -0.421202 0.378817 -0.018984
v -0.409613 0.390063 0.030717
v -0.383698 0.41521 0.018984
v -0.087238 0.097279 0.093478
v -0.263028 0.097279 0.0
v -0.214932 0.097279 -0.057773
v -0.154267 0.097279 -0.11437
v -0.087238 0.097279 -0.11437
v 0.029088 0.246723 0.079761
v -0.004806 0.246723 0.039822
v -0.017753 0.246723 -2.3e-05
v -0.004806 0.246723 -0.039868
v 0.117824 0.246723 -2.3e-05
v 0.104878 0.246723 0.039822
v 0.194265 0.419127 -0.151582
v 0.199388 0.75553 -0.128541
v -0.079908 0.699883 -0.049522
v -0.018028 0.472075 -0.117097
v 0.382582 0.637436 0.186208
v 0.287001 0.726026 0.363241
v -0.127136 0.560391 0.265121
v -0.115759 0.438568 0.050643
v 0.29474 0.474466 0.374807
v 0.323244 0.589064 -0.128569
v -0.017573 0.671813 -0.130603
v 0.07726 0.721433 0.353272
v 0.386591 0.437375 0.166403
v 0.229788 0.351434 0.070841
v 0.443336 0.571085 0.046402
v 0.043708 0.35378 0.181643
v 0.082093 0.436449 0.365685
v -0.024326 1.078342 -0.533949
v 0.345149 0.974034 -0.500229
v -0.08964 1.301514 -0.343583
v -0.3699 0.91084 -0.058179
v -0.137819 0.803111 -0.509511
v 0.438711 0.816005 -0.04938
v 0.277359 1.090772 0.220675
v 0.11917 1.120253 0.245042
v -0.035022 0.649038 -0.049704
v 0.000978 0.787194 0.209285
v 0.152578 1.205237 -0.380191
v 0.133137 1.140089 -0.510108
v -0.162172 1.032096 -0.489673
v -0.264373 1.184075 -0.379754
v 0.172876 0.770613 -0.489761
v 0.238921 0.691025 -0.235605
v 0.550748 0.985186 -0.386988
v 0.112377 1.341423 -0.154788
v 0.2256 1.271353 -0.127084
v -0.268069 0.730587 -0.229146
v 0.583707 1.135789 -0.150848
v 0.607546 1.01019 -0.22539
v 0.46587 1.202953 -0.063247
v -0.078706 1.308737 0.086885
v -0.103851 1.313313 -0.047586
v 0.303129 0.859723 0.227102
v -0.203666 0.937803 0.229532
v 0.456348 0.537605 -0.334374
v 0.78804 0.673147 -0.265662
v 0.472221 0.760214 -0.323703
v 0.367493 0.476174 -0.11862
v 0.89985 0.636295 -0.133621
v 0.748414 0.547472 0.194543
v 0.532455 0.979975 0.018362
v 0.386848 0.856858 -0.128391
v 0.313812 0.645939 -0.00525
v 0.543899 0.463039 0.203993
v 0.562649 0.848803 0.195461
v 0.675266 0.843124 -0.335631
v 0.710345 0.974512 -0.139796
v 0.654147 0.445989 -0.331666
v 0.60675 1.037115 -0.051788
v 0.833628 0.459001 0.009655
v 0.506131 0.358359 -0.014771
v 0.68785 0.354264 -0.126876
v 0.85053 0.841844 -0.010819
v 0.431507 0.666657 0.218463
v -0.228936 0.761152 -0.282962
v -0.274231 0.869214 -0.161734
v -0.462212 0.941488 -0.0317
v -0.684226 0.45784 -0.141044
v -0.129127 0.398785 -0.02942
v -0.156539 0.816835 -0.040799
v -0.085092 0.619725 0.116056
v -0.358386 0.958233 0.063521
v -0.710348 0.448871 0.118038
v -0.445308 0.32947 0.044867
v -0.204118 0.636495 0.397172
v -0.606114 0.680794 -0.300141
v -0.436995 0.865036 -0.297667
v -0.680145 0.67918 -0.192615
v -0.376851 0.472801 -0.318925
v -0.489421 0.472483 -0.306387
v -0.709236 0.813416 0.132879
v -0.545808 0.358232 -0.021947
v -0.076741 0.517763 0.062633
v -0.264955 0.90703 0.142493
v -0.677146 0.755013 0.283687
v -0.370409 0.46699 0.396786
v -0.350611 0.3363 0.113998
v -0.316594 0.849747 0.396766
v -0.583173 0.541106 0.376873
v -0.548906 0.81151 0.393753
vn -0.173 0.0682 -0.9826
vn 0.0319 -0.128 -0.9913
vn -0.8841 0.3871 -0.2617
vn -0.0651 -0.1147 -0.9913
vn 0.4042 -0.5157 -0.7554
vn -0.3051 0.7652 -0.5669
vn 0.0477 0.8754 -0.4811
vn -0.8679 0.4474 -0.2158
vn -0.7757 0.5279 0.3459
vn -0.6761 0.6203 0.3977
vn -0.831 0.4842 -0.2737
vn -0.5037 -0.7794 -0.3724
vn -0.7329 -0.5863 -0.3451
vn -0.9376 -0.0612 0.3424
vn -0.6746 -0.5013 -0.5419
vn 0.412 -0.6967 -0.5872
vn 0.4177 -0.6934 -0.5871
vn -0.5474 -0.8021 0.2387
vn 0.283 -0.8049 -0.5216
vn 0.1578 0.8009 -0.5777
vn 0.8392 0.1965 0.5071
vn -0.5157 -0.0884 0.8522
vn 0.5609 -0.7068 -0.431
vn 0.7484 -0.3881 -0.5379
vn 0.8114 -0.3286 -0.4835
vn -0.0056 0.9986 -0.0532
vn 0.1961 0.9788 -0.0597
vn -0.7723 0.5398 0.335
vn -0.9112 0.0127 0.4117
vn 0.1819 0.0523 0.9819
vn 0.0363 -0.136 0.99
vn -0.8012 -0.586 0.1211
vn -0.8324 -0.2535 -0.4929
vn 0.1433 0.1407 0.9796
vn 0.0067 -0.0373 0.9993
vn -0.1817 -0.1924 -0.9644
vn -0.2334 0.1964 -0.9524
vn -0.141 0.2564 -0.9562
vn 0.4816 -0.052 -0.8749
vn 0.1643 -0.0545 -0.9849
vn -0.3609 -0.6203 -0.6964
vn -0.3507 -0.5019 -0.7906
vn -0.0348 -0.9994 -0.0071
vn -0.0611 -0.9979 -0.0196
vn 0.6872 0.3016 -0.6609
vn 0.3424 0.8856 -0.3137
vn 0.6732 0.6415 -0.3678
vn -0.302 0.9188 -0.2543
vn -0.5747 0.4252 -0.6992
vn -0.7157 0.3292 -0.616
vn -0.9669 0.2243 -0.1216
vn -0.5709 0.7914 -0.2184
vn -0.287 0.8796 -0.3793
vn -0.4718 -0.8764 0.0964
vn 0.0914 -0.8902 0.4463
vn 0.5352 -0.1505 0.8312
vn 0.5033 -0.4545 0.7349
vn 0.0915 0.992 -0.087
vn 0.1911 0.945 -0.2654
vn -0.6744 0.584 -0.4519
vn -0.4783 -0.8717 0.1069
vn -0.4794 -0.8761 0.0508
vn -0.0782 -0.5009 0.862
vn 0.8141 -0.1682 0.5559
vn 0.2737 0.2974 0.9147
vn 0.0429 0.6699 0.7412
vn -0.6019 -0.1496 0.7844
vn 0.2285 0.7007 0.6758
vn -0.6177 -0.0309 0.7858
vn 0.0282 -0.7084 0.7052
vn 0.2067 -0.6749 0.7084
vn -0.0 -0.9413 -0.3375
vn -0.3968 -0.173 -0.9014
vn -0.3968 0.7064 -0.5861
vn -0.3338 0.3182 -0.8873
vn -0.0 0.9413 0.3375
vn 0.4447 -0.1715 0.8791
vn 0.3334 -0.7051 0.6259
vn 0.4756 -0.2969 0.828
vn 0.2224 -0.7911 -0.5699
vn -0.5897 0.3543 -0.7258
vn -0.5422 0.2836 -0.791
vn -0.1094 0.8826 0.4572
vn 0.6522 -0.2559 0.7136
vn 0.6453 -0.3172 0.6949
vn 0.4791 -0.4238 -0.7686
vn -0.75 0.2343 -0.6185
vn -0.7695 0.273 -0.5773
vn -0.4412 0.4982 0.7464
vn 0.7915 -0.1951 0.5792
vn 0.7699 -0.1558 0.6188
vn -0.079 -0.9181 -0.3883
vn -0.1192 0.9596 0.2549
vn 0.3617 0.9313 -0.0424
vn 0.5099 0.7191 -0.472
vn 0.5313 -0.2393 -0.8127
vn 0.5113 -0.2715 -0.8154
vn -0.6154 -0.4735 -0.6301
vn -0.6154 -0.4735 -0.6302
vn -0.8349 -0.4726 0.2821
vn 0.5666 0.5439 0.6189
vn 0.6989 0.6048 -0.3818
vn 0.5744 0.334 -0.7474
vn 0.1188 -0.0155 -0.9928
vn -0.0292 0.4618 -0.8865
vn -0.1545 -0.7574 -0.6344
vn -0.7342 -0.3514 -0.5809
vn -0.0617 -0.6842 -0.7267
vn 0.3899 -0.7608 -0.5189
vn 0.6358 0.2179 -0.7405
vn -0.046 0.4486 -0.8925
vn 0.0512 0.9941 -0.0952
vn -0.5851 0.8106 -0.0243
vn -0.4279 0.4961 -0.7555
vn -0.874 -0.3956 0.2821
vn -0.0674 -0.953 0.2955
vn 0.4917 -0.8606 0.1325
vn 0.4015 -0.8813 0.2493
vn 0.1413 -0.2641 0.9541
vn 0.6755 0.2316 -0.7
vn 0.6098 0.2414 -0.7549
vn 0.9026 0.421 0.0901
vn 0.598 0.7778 -0.1932
vn -0.0869 0.9646 0.2489
vn -0.8461 -0.1342 0.5159
vn -0.2427 -0.9686 0.0534
vn 0.3918 -0.4001 0.8285
vn -0.1592 -0.5546 0.8168
vn 0.7584 -0.6392 0.1279
vn 0.8253 0.1426 0.5464
vn 0.8352 0.2843 0.4708
vn -0.5422 -0.1907 0.8183
vn 0.0049 0.6574 0.7535
vn 0.0103 0.8038 0.5948
vn -0.9388 -0.2665 -0.2182
vn -0.3102 0.9295 0.1994
vn 0.9388 0.2665 0.2182
vn 0.3102 -0.9295 -0.1994
vn -0.7864 -0.1331 -0.6032
vn -0.5898 -0.5373 -0.6029
vn -0.3356 0.8504 0.4053
vn -0.3483 0.8448 0.4062
vn 0.9503 0.2975 0.0917
vn 0.9816 -0.189 0.0257
vn 0.3379 -0.8354 -0.4335
vn -0.4606 -0.2852 -0.8405
vn -0.5283 -0.2278 -0.8179
vn -0.4507 0.5423 0.7091
vn -0.4169 0.5344 0.7353
vn 0.9644 -0.2436 0.1031
vn 0.8458 0.103 0.5235
vn 0.8711 -0.3709 -0.3218
vn 0.8042 0.1313 -0.5797
vn 0.7335 0.0547 -0.6775
vn -0.0 0.1542 -0.988
vn -0.7107 0.1435 -0.6887
vn -0.725 0.1608 -0.6697
vn -0.7079 0.1438 0.6916
vn -0.722 0.1608 0.6729
vn -0.0 0.1542 0.988
vn 0.8082 0.0449 0.5872
vn 0.7241 0.142 0.6749
vn 0.7286 0.2457 -0.6394
vn 0.4079 0.4969 -0.766
vn -0.7423 0.2461 -0.6233
vn -0.9243 0.2354 -0.3003
vn -0.9243 0.2356 0.3003
vn -0.6971 0.1866 0.6923
vn -0.7389 0.2465 0.6271
vn -0.0782 0.2058 0.9755
vn 0.7254 0.246 0.6428
vn 0.9243 0.2356 0.3003
vn 1.0 0.0097 -0.0
vn 0.9243 0.2354 -0.3003
vn 0.8038 0.0619 -0.5916
vn 0.8052 0.0611 -0.5899
vn -0.0739 0.0521 -0.9959
vn -0.0 0.0716 -0.9974
vn -0.858 0.0425 -0.512
vn -0.8765 0.0662 -0.4768
vn -0.8667 0.0654 0.4945
vn -0.8758 0.0549 0.4796
vn -0.0 0.0716 0.9974
vn 0.7784 0.063 0.6245
vn 0.8709 0.1185 0.477
vn 0.9494 0.0589 -0.3085
vn 0.7386 0.1612 0.6546
vn -0.7009 0.186 -0.6886
vn -0.0782 0.2058 -0.9755
vn 0.7272 0.1417 -0.6717
vn 0.7418 0.1613 -0.6509
vn 0.2429 -0.2232 0.944
vn -0.5325 0.0889 0.8417
vn 0.0717 -0.2345 0.9695
vn 0.0839 -0.2437 0.9662
vn 0.7128 -0.1531 0.6844
vn 0.9882 -0.071 0.136
vn 0.8878 -0.0169 -0.4599
vn 0.8872 -0.0181 -0.4611
vn 0.2451 -0.0101 -0.9694
vn 0.2923 -0.0409 -0.9555
vn -0.499 -0.0512 -0.8651
vn -0.654 0.082 -0.752
vn -0.534 0.0441 0.8443
vn -0.5072 0.0158 0.8617
vn 0.086 -0.0994 0.9913
vn 0.0915 -0.0932 0.9914
vn 0.7049 -0.2123 0.6768
vn 0.7046 -0.2119 0.6772
vn 0.952 -0.2766 0.131
vn 0.954 -0.2724 0.1251
vn 0.845 -0.305 -0.4392
vn 0.845 -0.3058 -0.4386
vn 0.2791 -0.2993 -0.9124
vn 0.3107 -0.2786 -0.9088
vn -0.656 -0.0143 -0.7546
vn -0.6412 0.0064 -0.7673
vn 0.1204 0.3857 0.9147
vn 0.1171 0.4065 0.9061
vn 0.5061 -0.4664 0.7255
vn 0.5039 -0.4631 0.7292
vn 0.5465 -0.8128 0.2018
vn 0.5457 -0.8119 0.2074
vn 0.3088 -0.7133 -0.6292
vn 0.3009 -0.7108 -0.6357
vn -0.0307 0.17 -0.985
vn -0.2398 0.3556 -0.9033
vn -0.3201 0.6265 -0.7106
vn -0.3572 0.9103 -0.2092
vn -0.2703 0.9616 0.0485
vn -0.2496 0.9154 0.3158
vn -0.0924 0.1708 0.981
vn -0.3368 0.3535 0.8727
vn 0.5785 0.118 0.8071
vn 0.7956 -0.0673 0.6021
vn 0.9799 -0.178 0.09
vn 0.9754 -0.1344 -0.1749
vn 0.7036 -0.2279 -0.6731
vn -0.2466 0.3497 -0.9038
vn 0.0421 -0.2575 -0.9654
vn -0.6367 0.3257 -0.6989
vn -0.8891 0.4292 0.1594
vn -0.019 -0.3584 -0.9334
vn 0.7854 -0.6028 -0.1408
vn 0.5572 -0.4945 0.6672
vn 0.2369 -0.4389 0.8668
vn -0.1483 -0.1397 0.979
vn -0.5155 0.008 0.8569
vn -0.4575 -0.0276 0.8888
vn -0.9716 0.1601 0.1742
vn -0.7811 0.008 -0.6243
vn -0.6593 -0.0073 -0.7518
vn -0.0236 -0.3579 -0.9334
vn -0.2073 0.7049 0.6783
vn -0.2983 0.8945 0.3329
vn -0.4067 0.9136 -0.0
vn -0.3246 0.9224 -0.2096
vn -0.1717 0.7198 -0.6726
vn -0.2088 0.8935 -0.3974
vn 0.3529 0.5666 -0.7446
vn 0.4272 0.4228 -0.7992
vn 0.8034 -0.4182 -0.4239
vn 0.3438 -0.6847 -0.6426
vn 0.4922 -0.86 0.1351
vn 0.4319 -0.8777 0.2075
vn 0.576 -0.4784 0.6629
vn 0.5142 -0.458 0.7251
vn 0.0483 0.4991 0.8652
vn 0.1955 0.4888 0.8502
vn 0.6887 -0.0339 -0.7243
vn 0.6997 -0.024 -0.714
vn -0.6487 0.2913 -0.703
vn -0.6533 0.2877 -0.7003
vn -0.7306 0.3104 -0.6082
vn -0.9898 -0.1428 -0.0
vn -0.4668 0.4522 0.76
vn -0.4051 0.5055 0.7618
vn 0.5347 0.0178 0.8449
vn 0.5258 0.0122 0.8505
vn 0.4051 0.7068 -0.5799
vn -0.0 0.5784 -0.8158
vn -0.1197 0.5558 -0.8227
vn -0.7505 -0.0176 -0.6606
vn -0.69 0.0017 -0.7238
vn -0.9286 -0.371 -0.0
vn -0.5598 0.0385 0.8277
vn -0.69 0.0017 0.7238
vn 0.2046 0.4652 0.8612
vn -0.2553 0.3021 0.9185
vn 0.2674 0.5634 0.7817
vn 0.5929 0.7819 -0.1927
vn 0.5929 0.7819 0.1927
vn 0.6242 0.7812 -0.0
vn 0.0294 0.4215 -0.9064
vn 0.021 0.4049 -0.9141
vn -0.1385 -0.6636 -0.7352
vn -0.1327 -0.6468 -0.7511
vn -0.1685 -0.9857 -0.0
vn -0.1385 -0.6636 0.7352
vn -0.1327 -0.6468 0.7511
vn -0.0392 0.0464 0.9982
vn 0.0716 0.7071 0.7035
vn -0.0207 0.4401 0.8977
vn 0.1274 0.9918 -0.0
vn 0.2631 0.1719 -0.9494
vn -0.498 -0.3254 -0.8038
vn -0.8372 -0.5469 -0.0
vn -0.8447 -0.4448 0.2976
vn -0.498 -0.3254 0.8038
vn 0.2631 0.1719 0.9494
vn 0.8372 0.5469 -0.0
vn 0.2202 0.304 0.9269
vn -0.4654 -0.1314 0.8753
vn -0.54 -0.2661 0.7985
vn -0.767 0.6417 -0.0
vn -0.7434 0.2537 -0.6189
vn -0.662 0.2412 -0.7096
vn -0.741 0.1601 -0.6522
vn 0.69 0.1521 -0.7077
vn 0.5727 0.003 -0.8198
vn -0.1936 0.1228 0.9734
vn -0.0 0.0084 1.0
vn -0.7624 0.0136 0.647
vn -0.9505 0.0328 0.3089
vn -0.8587 0.1505 0.4899
vn -0.9505 0.033 -0.3088
vn -0.7425 0.245 -0.6235
vn 0.4537 -0.2615 -0.8519
vn 0.9505 0.0328 0.3089
vn 0.9624 0.0596 0.2649
vn 0.834 0.1095 0.5407
vn 0.7795 0.0343 0.6254
vn 0.0894 0.0667 -0.9938
vn -0.017 0.0686 -0.9975
vn -0.176 -0.066 -0.9822
vn -0.7986 -0.0388 -0.6006
vn -0.3049 0.8028 -0.5123
vn -0.1895 0.9816 0.0214
vn -0.0249 0.9976 0.0643
vn -0.9898 0.095 -0.1065
vn -0.8543 -0.0797 -0.5137
vn -0.2715 -0.932 -0.2403
vn 0.5977 -0.7354 -0.3193
vn 0.3125 -0.9019 0.2983
vn 0.7071 -0.4645 -0.5331
vn 0.7796 0.5801 -0.2361
vn 0.4469 0.8677 -0.2176
vn 0.6141 0.7868 -0.0622
vn -0.6604 0.7182 0.2193
vn -0.2288 -0.9204 -0.3172
vn -0.2043 -0.9239 -0.3236
vn 0.1872 -0.9238 0.3339
vn 0.6819 -0.6272 -0.3764
vn 0.9131 -0.022 0.4072
vn 0.9134 -0.0219 0.4065
vn -0.2793 -0.1634 0.9462
vn -0.0484 0.0444 0.9978
vn -0.5988 -0.7096 0.3713
vn -0.1246 0.4898 0.8629
vn -0.6692 -0.6157 0.4161
vn 0.147 -0.9134 0.3796
vn 0.8888 0.0483 0.4557
vn 0.1152 0.0882 -0.9894
vn 0.155 0.667 -0.7288
vn -0.2827 0.8737 -0.3958
vn 0.5676 0.6988 -0.4353
vn -0.8503 -0.2292 -0.4738
vn -0.2364 0.5896 -0.7723
vn -0.3912 0.3519 -0.8503
vn -0.32 0.0479 -0.9462
vn 0.0517 -0.1094 -0.9927
vn -0.8933 -0.0564 -0.4459
vn 0.7159 -0.5913 -0.3712
vn -0.0824 -0.957 -0.2783
vn 0.0615 -0.1032 -0.9928
vn 0.5274 -0.8167 -0.2342
vn 0.4543 -0.425 -0.7829
vn 0.616 0.7003 -0.3607
vn 0.266 0.8453 -0.4633
vn 0.5532 0.753 -0.3563
vn 0.3922 0.8077 0.4401
vn -0.8943 -0.0893 -0.4385
vn -0.1055 -0.9498 -0.2947
vn -0.5674 -0.7124 0.4131
vn -0.0612 -0.9504 -0.3048
vn 0.3202 -0.9091 0.2666
vn 0.6865 -0.7153 -0.1306
vn 0.2568 0.7982 -0.5449
vn 0.8549 0.375 -0.3585
vn 0.7714 -0.1539 0.6174
vn 0.8029 -0.1841 0.567
vn 0.2641 0.7938 -0.5479
vn 0.3272 0.9093 -0.2571
vn 0.2285 0.8775 0.4217
vn 0.1356 0.8874 0.4406
vn 0.6826 0.4003 0.6114
vn -0.1515 0.9874 -0.0466
vn -0.5483 0.8342 -0.0596
vn -0.824 0.5357 0.1847
vn -0.8072 0.5652 0.1702
vn 0.4137 0.7996 0.4353
vn -0.1028 0.9933 0.053
vn -0.5571 -0.6981 0.4498
vn -0.0361 -0.094 0.9949
vn 0.1603 0.0453 0.986
vn -0.7983 0.4308 0.4209
vn -0.2819 0.4256 0.8599
vn 0.0157 -0.1122 0.9936
vn -0.5251 -0.7639 0.375
vn 0.3021 -0.8579 0.4156
vn 0.2117 -0.944 0.2531
vn 0.8991 0.1121 0.4232
vn -0.3563 0.8042 -0.4757
vn 0.8296 0.3834 -0.4058
vn -0.0803 0.0534 -0.9953
vn -0.9296 0.0835 -0.3591
vn 0.113 0.2153 -0.97
vn 0.7114 -0.226 -0.6655
vn -0.3816 -0.8356 -0.3951
vn 0.2773 -0.2026 -0.9392
vn -0.1334 0.7266 -0.6739
vn 0.6644 0.0514 0.7456
vn -0.8969 0.0116 -0.442
vn -0.3919 -0.8232 -0.4107
vn -0.244 -0.8994 -0.3627
vn 0.7372 -0.5631 -0.3735
vn 0.7423 -0.5665 -0.3579
vn 0.2566 -0.8795 0.4008
vn 0.2203 -0.8941 0.3898
vn 0.7342 0.4693 -0.4907
vn 0.9105 -0.028 0.4126
vn 0.9081 -0.0007 0.4188
vn 0.796 0.3963 -0.4575
vn 0.3942 0.82 0.415
vn 0.2846 0.4801 0.8297
vn -0.4115 0.7325 -0.5423
vn -0.6273 0.7782 -0.0305
vn -0.9025 0.0638 -0.426
vn -0.7624 -0.5225 0.3817
vn -0.7494 -0.5149 0.4162
vn 0.3445 -0.7751 0.5297
vn 0.8275 0.5094 0.2362
vn -0.7957 0.4139 0.4422
vn -0.7176 0.5676 0.4036
vn -0.7896 0.4895 0.3701
vn -0.7693 -0.4564 0.447
vn 0.1533 0.0144 0.9881
vn 0.0378 0.0203 0.9991
vn 0.053 -0.0352 -0.998
vn -0.7105 0.6556 -0.2558
vn 0.1884 0.9485 -0.2548
vn 0.4116 0.7513 -0.5159
vn -0.8172 -0.1164 -0.5644
vn -0.5783 0.718 -0.3873
vn 0.0212 0.113 -0.9934
vn -0.1105 -0.0321 -0.9934
vn -0.0228 -0.9731 -0.2293
vn -0.6005 -0.3143 -0.7353
vn 0.9532 0.0544 -0.2975
vn 0.6951 -0.2737 -0.6648
vn 0.1405 0.9376 -0.3181
vn -0.6041 0.7162 -0.3494
vn -0.9961 -0.0022 -0.0881
vn -0.2783 -0.8709 -0.405
vn 0.1099 -0.9157 -0.3866
vn -0.0157 -0.9267 -0.3754
vn 0.8448 0.0409 -0.5336
vn 0.6233 -0.6314 0.4614
vn 0.5052 0.8544 -0.1216
vn 0.5528 0.8247 -0.1194
vn 0.8314 0.4978 0.2468
vn -0.9785 -0.0054 0.2061
vn -0.3834 0.8856 0.2623
vn -0.2047 0.8973 0.3911
vn -0.995 0.0071 -0.1001
vn -0.5341 -0.8414 -0.083
vn -0.3684 -0.9158 0.1599
vn 0.1784 -0.9727 -0.1483
vn 0.5136 -0.7079 0.4848
vn 0.6683 -0.6564 0.3501
vn -0.2247 -0.8904 0.3958
vn 0.9611 0.1858 -0.2043
vn 0.91 -0.1315 0.3932
vn 0.8167 0.4821 0.317
vn 0.8505 0.4491 0.2739
vn 0.2815 0.9223 0.2649
vn -0.1578 0.933 0.3235
vn -0.4788 0.8709 0.1108
vn -0.8599 -0.1677 0.4822
vn -0.6601 0.0368 0.7502
vn -0.039 -0.0573 0.9976
vn -0.0122 -0.0045 0.9999
vn -0.2664 -0.8591 0.437
vn -0.3344 -0.8515 0.4039
vn -0.07 0.0664 0.9953
usemtl Elf_bush_Map
f 9//1 1//1 10//1
f 10//2 1//2 3//2
f 10//3 2//3 9//3
f 3//4 1//4 11//4
f 4//5 3//5 11//5
f 12//6 1//6 13//6
f 13//7 1//7 9//7
f 9//8 2//8 13//8
f 2//9 5//9 13//9
f 13//10 5//10 12//10
f 2//11 10//11 15//11
f 3//12 14//12 10//12
f 10//13 14//13 15//13
f 14//14 2//14 15//14
f 14//15 3//15 17//15
f 4//16 16//16 3//16
f 3//17 16//17 17//17
f 17//18 6//18 14//18
f 19//19 4//19 18//19
f 11//20 1//20 12//20
f 12//21 5//21 11//21
f 6//22 2//22 14//22
f 4//23 19//23 16//23
f 4//24 11//24 18//24
f 18//25 11//25 20//25
f 5//26 7//26 11//26
f 11//27 7//27 20//27
f 5//28 2//28 22//28
f 2//29 21//29 22//29
f 5//30 22//30 8//30
f 21//31 8//31 22//31
f 2//32 6//32 21//32
f 21//33 6//33 23//33
f 8//34 21//34 23//34
f 5//35 8//35 7//35
f 24//36 34//36 36//36
f 34//37 26//37 36//37
f 36//38 26//38 35//38
f 25//39 24//39 35//39
f 35//40 24//40 36//40
f 34//41 24//41 27//41
f 27//42 24//42 37//42
f 24//43 28//43 37//43
f 25//44 28//44 24//44
f 38//45 25//45 35//45
f 26//46 30//46 35//46
f 35//47 30//47 38//47
f 40//48 26//48 41//48
f 41//49 26//49 34//49
f 34//50 27//50 41//50
f 41//51 27//51 39//51
f 39//52 31//52 41//52
f 41//53 31//53 40//53
f 28//54 27//54 37//54
f 29//55 28//55 25//55
f 30//56 29//56 38//56
f 38//57 29//57 25//57
f 30//58 26//58 40//58
f 31//59 30//59 40//59
f 39//60 27//60 32//60
f 27//61 28//61 32//61
f 32//62 28//62 42//62
f 43//63 28//63 29//63
f 43//64 29//64 30//64
f 30//65 33//65 43//65
f 31//66 33//66 30//66
f 32//67 33//67 39//67
f 39//68 33//68 31//68
f 33//69 32//69 42//69
f 42//70 28//70 33//70
f 33//71 28//71 43//71
f 45//72 51//72 44//72
f 44//72 51//72 50//72
f 45//73 46//73 51//73
f 47//74 52//74 46//74
f 46//75 52//75 51//75
f 47//76 48//76 52//76
f 52//76 48//76 53//76
f 48//77 49//77 53//77
f 44//78 50//78 49//78
f 49//79 50//79 53//79
f 51//80 55//80 50//80
f 50//80 55//80 54//80
f 51//81 56//81 55//81
f 51//82 52//82 56//82
f 52//83 53//83 56//83
f 56//83 53//83 57//83
f 50//84 54//84 53//84
f 53//85 54//85 57//85
f 54//86 55//86 58//86
f 58//86 55//86 59//86
f 55//87 56//87 59//87
f 56//88 60//88 59//88
f 56//89 57//89 60//89
f 60//89 57//89 61//89
f 54//90 58//90 57//90
f 57//91 58//91 61//91
f 62//92 66//92 65//92
f 63//93 69//93 68//93
f 63//94 64//94 69//94
f 69//95 64//95 70//95
f 64//96 62//96 70//96
f 70//97 62//97 65//97
f 65//98 66//98 71//98
f 71//99 66//99 72//99
f 66//100 67//100 72//100
f 68//101 69//101 73//101
f 70//102 71//102 69//102
f 69//103 71//103 73//103
f 70//104 65//104 71//104
f 74//105 76//105 84//105
f 74//106 78//106 85//106
f 85//107 77//107 74//107
f 78//108 74//108 84//108
f 84//109 79//109 78//109
f 84//110 75//110 79//110
f 75//111 84//111 76//111
f 76//112 80//112 75//112
f 81//113 76//113 77//113
f 77//114 76//114 74//114
f 82//115 77//115 85//115
f 85//116 78//116 82//116
f 79//117 86//117 78//117
f 78//118 86//118 87//118
f 86//119 83//119 87//119
f 75//120 88//120 79//120
f 79//121 88//121 89//121
f 88//122 80//122 89//122
f 75//123 80//123 88//123
f 76//124 81//124 80//124
f 82//125 81//125 77//125
f 82//126 78//126 87//126
f 83//127 90//127 87//127
f 87//128 90//128 82//128
f 86//129 79//129 89//129
f 80//130 83//130 89//130
f 89//131 83//131 86//131
f 81//132 82//132 90//132
f 90//133 83//133 81//133
f 81//134 83//134 80//134
f 91//135 92//135 95//135
f 95//135 92//135 96//135
f 92//136 93//136 96//136
f 96//136 93//136 97//136
f 93//137 94//137 97//137
f 97//137 94//137 98//137
f 94//138 91//138 98//138
f 98//138 91//138 95//138
f 95//139 96//139 99//139
f 99//140 96//140 100//140
f 96//141 97//141 100//141
f 97//142 101//142 100//142
f 98//143 99//143 97//143
f 97//144 99//144 101//144
f 98//145 95//145 99//145
f 99//146 100//146 102//146
f 102//147 100//147 103//147
f 100//148 104//148 103//148
f 100//149 101//149 104//149
f 99//150 105//150 101//150
f 101//151 105//151 104//151
f 99//152 102//152 105//152
f 107//153 140//153 106//153
f 106//154 140//154 141//154
f 107//155 108//155 140//155
f 140//155 108//155 139//155
f 108//156 109//156 139//156
f 139//157 109//157 138//157
f 111//158 120//158 110//158
f 110//159 120//159 137//159
f 111//160 112//160 120//160
f 120//160 112//160 121//160
f 113//161 136//161 112//161
f 112//162 136//162 121//162
f 114//163 115//163 123//163
f 115//164 116//164 123//164
f 116//165 117//165 224//165
f 117//166 118//166 224//166
f 224//166 118//166 223//166
f 118//167 119//167 223//167
f 223//167 119//167 222//167
f 120//168 221//168 119//168
f 119//169 221//169 222//169
f 120//170 121//170 221//170
f 121//171 122//171 226//171
f 122//172 225//172 226//172
f 122//173 114//173 225//173
f 225//174 114//174 123//174
f 123//175 124//175 130//175
f 130//176 124//176 131//176
f 116//177 132//177 124//177
f 124//178 132//178 131//178
f 116//179 125//179 132//179
f 125//180 133//180 132//180
f 125//181 126//181 133//181
f 126//182 134//182 133//182
f 126//183 127//183 134//183
f 134//183 127//183 135//183
f 127//184 128//184 135//184
f 128//185 129//185 135//185
f 129//186 123//186 130//186
f 121//187 136//187 122//187
f 137//159 120//159 119//159
f 138//157 117//157 139//157
f 139//188 117//188 116//188
f 140//155 139//155 115//155
f 115//189 139//189 116//189
f 140//190 115//190 141//190
f 141//191 115//191 114//191
f 142//192 148//192 113//192
f 113//193 148//193 136//193
f 143//194 149//194 142//194
f 142//195 149//195 148//195
f 144//196 150//196 143//196
f 143//196 150//196 149//196
f 145//197 151//197 144//197
f 144//197 151//197 150//197
f 146//198 152//198 145//198
f 145//199 152//199 151//199
f 146//200 147//200 152//200
f 152//201 147//201 153//201
f 147//202 106//202 153//202
f 153//203 106//203 141//203
f 148//204 181//204 136//204
f 136//205 181//205 122//205
f 148//206 149//206 181//206
f 181//207 149//207 186//207
f 150//208 185//208 149//208
f 149//209 185//209 186//209
f 150//210 151//210 185//210
f 185//211 151//211 184//211
f 151//212 152//212 184//212
f 184//213 152//213 183//213
f 153//214 182//214 152//214
f 152//215 182//215 183//215
f 141//216 114//216 153//216
f 153//217 114//217 182//217
f 154//218 163//218 162//218
f 154//219 155//219 163//219
f 155//220 156//220 163//220
f 163//221 156//221 164//221
f 156//222 157//222 164//222
f 164//223 157//223 165//223
f 158//224 166//224 157//224
f 157//225 166//225 165//225
f 159//226 167//226 158//226
f 158//227 167//227 166//227
f 159//228 160//228 167//228
f 160//229 161//229 167//229
f 167//230 161//230 162//230
f 161//231 154//231 162//231
f 163//232 177//232 162//232
f 162//233 177//233 178//233
f 163//234 176//234 177//234
f 163//235 164//235 176//235
f 164//236 165//236 176//236
f 176//237 165//237 175//237
f 165//238 166//238 175//238
f 166//239 167//239 175//239
f 175//240 167//240 180//240
f 167//241 179//241 180//241
f 167//242 162//242 179//242
f 162//242 178//242 179//242
f 175//243 173//243 172//243
f 175//244 172//244 171//244
f 176//244 175//244 171//244
f 176//245 171//245 170//245
f 176//246 170//246 177//246
f 177//247 170//247 169//247
f 177//248 169//248 178//248
f 178//249 169//249 168//249
f 178//250 168//250 179//250
f 179//250 168//250 174//250
f 179//251 174//251 180//251
f 180//252 174//252 173//252
f 175//253 180//253 173//253
f 122//254 181//254 154//254
f 122//255 154//255 161//255
f 122//256 161//256 114//256
f 114//257 161//257 160//257
f 114//258 160//258 159//258
f 114//259 159//259 182//259
f 182//260 159//260 158//260
f 183//261 182//261 158//261
f 183//262 158//262 184//262
f 184//263 158//263 157//263
f 185//264 184//264 156//264
f 156//265 184//265 157//265
f 186//266 185//266 155//266
f 155//267 185//267 156//267
f 181//268 186//268 154//268
f 154//269 186//269 155//269
f 187//270 220//270 109//270
f 109//271 220//271 138//271
f 188//155 219//155 187//155
f 187//155 219//155 220//155
f 189//272 218//272 188//272
f 188//273 218//273 219//273
f 189//274 217//274 218//274
f 189//275 190//275 217//275
f 190//276 191//276 217//276
f 217//277 191//277 216//277
f 191//160 192//160 216//160
f 192//278 110//278 216//278
f 216//279 110//279 137//279
f 117//280 193//280 198//280
f 193//281 194//281 198//281
f 198//282 194//282 199//282
f 194//283 195//283 199//283
f 199//284 195//284 200//284
f 195//285 196//285 200//285
f 200//285 196//285 201//285
f 197//286 202//286 196//286
f 196//287 202//287 201//287
f 119//288 203//288 197//288
f 197//289 203//289 202//289
f 119//290 204//290 203//290
f 119//291 118//291 204//291
f 117//292 198//292 118//292
f 118//293 198//293 204//293
f 198//294 199//294 205//294
f 205//295 199//295 206//295
f 199//296 200//296 206//296
f 206//297 200//297 207//297
f 200//298 208//298 207//298
f 200//298 201//298 208//298
f 202//299 209//299 201//299
f 201//300 209//300 208//300
f 202//301 203//301 209//301
f 204//302 210//302 203//302
f 203//303 210//303 209//303
f 204//304 205//304 210//304
f 204//304 198//304 205//304
f 205//305 212//305 211//305
f 205//305 206//305 212//305
f 207//306 213//306 206//306
f 206//306 213//306 212//306
f 207//307 208//307 213//307
f 208//308 214//308 213//308
f 208//309 209//309 214//309
f 209//310 215//310 214//310
f 209//310 210//310 215//310
f 210//311 205//311 215//311
f 205//311 211//311 215//311
f 216//312 119//312 197//312
f 217//313 216//313 196//313
f 196//314 216//314 197//314
f 217//315 196//315 195//315
f 218//316 217//316 195//316
f 218//317 195//317 219//317
f 219//318 195//318 194//318
f 219//155 194//155 220//155
f 220//155 194//155 193//155
f 220//319 193//319 138//319
f 138//320 193//320 117//320
f 216//279 137//279 119//279
f 121//321 127//321 221//321
f 221//322 127//322 126//322
f 222//323 221//323 126//323
f 223//324 222//324 125//324
f 125//325 222//325 126//325
f 224//326 223//326 125//326
f 116//327 224//327 125//327
f 123//328 116//328 124//328
f 225//186 123//186 129//186
f 226//329 225//329 128//329
f 128//330 225//330 129//330
f 121//331 226//331 127//331
f 127//332 226//332 128//332
f 236//333 227//333 228//333
f 228//334 227//334 237//334
f 237//335 227//335 230//335
f 230//336 229//336 237//336
f 229//337 228//337 237//337
f 228//338 229//338 238//338
f 238//339 232//339 228//339
f 233//340 229//340 234//340
f 234//341 229//341 230//341
f 240//342 230//342 227//342
f 227//343 239//343 240//343
f 239//344 235//344 240//344
f 241//345 227//345 236//345
f 228//346 231//346 236//346
f 236//347 231//347 241//347
f 228//348 232//348 231//348
f 238//349 229//349 233//349
f 234//350 230//350 242//350
f 242//351 230//351 240//351
f 240//352 235//352 242//352
f 239//353 227//353 241//353
f 241//354 231//354 239//354
f 239//355 231//355 235//355
f 233//356 235//356 238//356
f 238//357 235//357 232//357
f 233//358 234//358 243//358
f 243//359 235//359 233//359
f 243//360 234//360 242//360
f 242//361 235//361 243//361
f 235//362 231//362 232//362
f 245//363 244//363 255//363
f 246//364 254//364 244//364
f 244//365 254//365 255//365
f 254//366 245//366 255//366
f 256//367 247//367 257//367
f 246//368 244//368 257//368
f 257//369 244//369 256//369
f 256//370 244//370 248//370
f 248//371 244//371 258//371
f 248//372 247//372 256//372
f 258//373 249//373 259//373
f 259//374 248//374 258//374
f 258//375 244//375 245//375
f 249//376 258//376 260//376
f 260//377 258//377 245//377
f 262//378 245//378 254//378
f 246//379 261//379 254//379
f 254//380 261//380 262//380
f 261//381 251//381 262//381
f 247//382 248//382 263//382
f 248//383 252//383 263//383
f 252//384 247//384 263//384
f 252//385 248//385 259//385
f 249//386 252//386 259//386
f 249//387 260//387 265//387
f 245//388 264//388 260//388
f 260//389 264//389 265//389
f 250//390 249//390 264//390
f 264//391 249//391 265//391
f 245//392 262//392 264//392
f 264//393 262//393 266//393
f 251//394 250//394 262//394
f 262//395 250//395 266//395
f 250//396 264//396 266//396
f 261//397 246//397 268//397
f 268//398 246//398 257//398
f 247//399 267//399 257//399
f 257//400 267//400 268//400
f 251//401 261//401 267//401
f 267//402 261//402 268//402
f 253//403 247//403 252//403
f 253//404 269//404 251//404
f 251//405 269//405 250//405
f 247//406 270//406 267//406
f 267//407 270//407 251//407
f 270//408 253//408 251//408
f 270//409 247//409 253//409
f 252//410 249//410 253//410
f 253//411 249//411 269//411
f 249//412 250//412 269//412
f 282//413 273//413 283//413
f 283//414 272//414 282//414
f 282//415 271//415 273//415
f 274//416 273//416 271//416
f 271//417 272//417 284//417
f 272//418 275//418 284//418
f 284//419 274//419 271//419
f 272//420 271//420 282//420
f 283//421 273//421 285//421
f 285//422 277//422 283//422
f 279//423 273//423 274//423
f 274//424 284//424 287//424
f 287//425 284//425 288//425
f 284//426 275//426 288//426
f 288//427 275//427 286//427
f 286//428 280//428 288//428
f 288//429 280//429 287//429
f 275//430 272//430 289//430
f 289//431 276//431 275//431
f 275//432 276//432 286//432
f 289//433 272//433 283//433
f 283//434 277//434 289//434
f 289//435 277//435 276//435
f 273//436 278//436 285//436
f 285//437 278//437 277//437
f 278//438 273//438 279//438
f 280//439 279//439 287//439
f 287//440 279//440 274//440
f 276//441 280//441 286//441
f 276//442 277//442 281//442
f 277//443 278//443 281//443
f 281//444 278//444 290//444
f 290//445 278//445 279//445
f 290//446 279//446 280//446
f 280//447 281//447 290//447
f 281//448 280//448 276//448
f 291//449 302//449 303//449
f 302//450 293//450 303//450
f 293//451 292//451 303//451
f 303//452 292//452 291//452
f 302//453 294//453 304//453
f 304//454 293//454 302//454
f 291//455 305//455 302//455
f 302//456 305//456 306//456
f 305//457 295//457 306//457
f 306//458 294//458 302//458
f 296//459 295//459 291//459
f 291//460 295//460 305//460
f 298//461 292//461 293//461
f 307//462 293//462 304//462
f 304//463 294//463 307//463
f 308//464 294//464 306//464
f 295//465 300//465 306//465
f 306//466 300//466 308//466
f 295//467 296//467 309//467
f 309//468 301//468 295//468
f 296//469 292//469 310//469
f 310//470 292//470 298//470
f 310//471 297//471 296//471
f 307//472 299//472 311//472
f 298//473 293//473 311//473
f 311//474 293//474 307//474
f 307//475 294//475 299//475
f 299//476 294//476 308//476
f 308//477 300//477 299//477
f 300//478 295//478 313//478
f 295//479 301//479 313//479
f 313//480 301//480 312//480
f 312//481 300//481 313//481
f 309//482 296//482 297//482
f 301//483 309//483 297//483
f 297//484 310//484 301//484
f 301//485 310//485 314//485
f 310//486 298//486 314//486
f 314//487 298//487 316//487
f 316//488 298//488 311//488
f 299//489 315//489 311//489
f 311//490 315//490 316//490
f 315//491 301//491 316//491
f 316//492 301//492 314//492
f 299//493 300//493 315//493
f 315//494 300//494 312//494
f 312//495 301//495 315//495