mtllib flat.mtl
v 0.0 0.107786 0.0
v 0.169689 0.052228 -0.09797
v 0.150172 0.073997 -0.086702
v 0.09797 0.052228 -0.169689
v 0.086702 0.073997 -0.150172
v 0.0 0.052228 -0.19594
v 0.0 0.073997 -0.173403
v -0.09797 0.052228 -0.169689
v -0.086702 0.073997 -0.150172
v -0.169689 0.052228 -0.09797
v -0.150172 0.073997 -0.086702
v -0.19594 0.052228 0.0
v -0.173403 0.073997 0.0
v -0.169689 0.052228 0.09797
v -0.150172 0.073997 0.086702
v -0.09797 0.052228 0.169689
v -0.086702 0.073997 0.150172
v 0.0 0.052228 0.19594
v 0.0 0.073997 0.173403
v 0.09797 0.052228 0.169689
v 0.086702 0.073997 0.150172
v 0.169689 0.052228 0.09797
v 0.150172 0.073997 0.086702
v 0.19594 0.052228 0.0
v 0.173403 0.073997 0.0
v 0.169689 -0.000469 -0.09797
v 0.09797 -0.000469 -0.169689
v 0.09797 0.052228 -0.169689
v 0.169689 0.052228 -0.09797
v 0.0 -0.000468 -0.19594
v 0.0 0.052228 -0.19594
v -0.09797 -0.000469 -0.169689
v -0.09797 0.052228 -0.169689
v -0.169689 -0.000469 -0.09797
v -0.169689 0.052228 -0.09797
v -0.19594 -0.000469 -0.0
v -0.19594 0.052228 0.0
v -0.169689 -0.000469 0.09797
v -0.169689 0.052228 0.09797
v -0.09797 -0.000469 0.169689
v -0.09797 0.052228 0.169689
v 0.0 -0.000469 0.19594
v 0.0 0.052228 0.19594
v 0.09797 -0.000469 0.169689
v 0.09797 0.052228 0.169689
v 0.169689 -0.000469 0.09797
v 0.169689 0.052228 0.09797
v 0.19594 -0.000469 -0.0
v 0.19594 0.052228 0.0
v 0.180695 0.087692 -0.139368
v 0.139368 0.087692 -0.180695
v 0.139368 0.104344 -0.180695
v 0.180695 0.104344 -0.139368
v 0.07902 0.087783 -0.198922
v 0.022567 0.087783 -0.214048
v 0.022567 0.104435 -0.214048
v 0.07902 0.104435 -0.198922
v -0.030349 0.065309 -0.22617
v -0.086802 0.065309 -0.211044
v -0.086802 0.081962 -0.211044
v -0.030349 0.081962 -0.22617
v -0.139368 0.091749 -0.159837
v -0.180695 0.091749 -0.118511
v -0.180695 0.108401 -0.118511
v -0.139368 0.108401 -0.159837
v -0.211044 0.065309 -0.086802
v -0.22617 0.065309 -0.030349
v -0.22617 0.081962 -0.030349
v -0.211044 0.081962 -0.086802
v -0.22617 0.065309 0.030349
v -0.211044 0.065309 0.086802
v -0.211044 0.081962 0.086802
v -0.22617 0.081962 0.030349
v -0.180695 0.065309 0.139368
v -0.139368 0.065309 0.180695
v -0.139368 0.081962 0.180695
v -0.180695 0.081962 0.139368
v -0.086802 0.065309 0.211044
v -0.030349 0.065309 0.22617
v -0.030349 0.081962 0.22617
v -0.086802 0.081962 0.211044
v 0.030349 0.065309 0.22617
v 0.086802 0.065309 0.211044
v 0.086802 0.081962 0.211044
v 0.030349 0.081962 0.22617
v 0.139368 0.065309 0.180695
v 0.180695 0.065309 0.139368
v 0.180695 0.081962 0.139368
v 0.139368 0.081962 0.180695
v 0.211044 0.065309 0.086802
v 0.22617 0.065309 0.030349
v 0.22617 0.081962 0.030349
v 0.211044 0.081962 0.086802
v 0.22617 0.065309 -0.030349
v 0.211044 0.065309 -0.086802
v 0.211044 0.081962 -0.086802
v 0.22617 0.081962 -0.030349
v 0.187927 0.127619 -0.187927
v 0.068024 0.116729 -0.246869
v -0.068786 0.067305 -0.256713
v -0.187927 0.096764 -0.183382
v -0.256713 0.067305 -0.068786
v -0.256713 0.067305 0.068786
v -0.187927 0.067305 0.187927
v -0.068786 0.067305 0.256713
v 0.068786 0.067305 0.256713
v 0.187927 0.067305 0.187927
v 0.256713 0.067305 0.068786
v 0.256713 0.067305 -0.068786
v 0.18367 0.001898 0.022344
v 0.170177 0.000594 0.10597
v 0.58154 0.189205 0.089058
v 0.571626 0.198139 0.202184
v 0.579395 0.16388 0.090995
v 0.570219 0.1729 0.204119
v 0.690169 0.174867 0.15139
v 0.681388 0.149274 0.153553
v 0.176225 0.002672 0.065266
v 0.444773 0.161565 0.093513
v 0.450637 0.137918 0.095734
v 0.323921 0.063523 0.110513
v 0.438266 0.141777 0.171793
v 0.431911 0.165275 0.169537
v 0.425885 0.13477 0.130835
v 0.434426 0.151271 0.022393
v 0.441166 0.127903 0.024684
v 0.403942 0.137307 0.236171
v 0.395845 0.160223 0.233764
v 0.309667 0.083706 0.107297
v 0.297852 0.096423 0.046036
v 0.312706 0.076563 0.049355
v 0.284632 0.07631 0.159633
v 0.269129 0.095811 0.1562
v 0.57942 0.184382 0.038017
v 0.577311 0.159063 0.039956
v 0.559101 0.175925 0.254288
v 0.55981 0.201067 0.252348
v 0.229933 0.081143 0.21046
v 0.293006 0.084714 -0.020086
v 0.308804 0.065396 -0.016592
v 0.247058 0.062618 0.214211
v -0.177856 -0.001126 0.072745
v -0.184899 0.002018 0.030596
v -0.340994 0.114834 0.115082
v -0.351091 0.117553 0.059319
v -0.347914 0.104417 0.115827
v -0.35801 0.107137 0.060064
v -0.399783 0.138187 0.098028
v -0.406702 0.127771 0.098773
v -0.182362 0.000983 0.052245
v -0.262215 0.061291 0.098208
v -0.269134 0.050875 0.098952
v -0.256704 0.022229 0.066436
v -0.279231 0.053594 0.043189
v -0.272311 0.06401 0.042444
v -0.248193 0.035041 0.065519
v -0.308558 0.094643 0.13406
v -0.315478 0.084227 0.134805
v -0.334613 0.08938 0.029126
v -0.327693 0.099796 0.028381
v -0.268505 0.061368 -0.004099
v -0.242425 0.054345 0.139936
v -0.250937 0.041533 0.140852
v -0.277016 0.048556 -0.003183
v -0.117952 0.00398 0.152062
v -0.154351 0.003911 0.112417
v -0.28766 0.126754 0.318285
v -0.336278 0.124697 0.266224
v -0.29184 0.112259 0.322761
v -0.340459 0.110203 0.270701
v -0.365441 0.139988 0.341669
v -0.369621 0.125494 0.346145
v -0.13691 0.004391 0.133556
v -0.203223 0.078636 0.241332
v -0.207403 0.064142 0.245809
v -0.256022 0.062086 0.193748
v -0.251842 0.07658 0.189271
v -0.237601 0.111547 0.315795
v -0.241781 0.097053 0.320271
v -0.33392 0.093156 0.221609
v -0.329739 0.10765 0.217132
v -0.254554 0.076798 0.24061
v -0.263643 0.066936 0.147023
v -0.161544 0.071254 0.256351
v -0.165724 0.05676 0.260827
v -0.267823 0.052442 0.151499
v -0.153593 0.000156 -0.114034
v -0.106455 -0.000497 -0.154936
v -0.479275 0.149 -0.454746
v -0.385798 0.153859 -0.533963
v -0.46414 0.130237 -0.438037
v -0.370662 0.135095 -0.517254
v -0.443338 0.018819 -0.515874
v -0.424408 0.017235 -0.493525
v -0.130081 0.006282 -0.134072
v -0.37449 0.228342 -0.3579
v -0.371088 0.199305 -0.355524
v -0.324776 0.174361 -0.36675
v -0.30813 0.202249 -0.409703
v -0.311532 0.231286 -0.412079
v -0.326131 0.203661 -0.366736
v -0.412399 0.227821 -0.288157
v -0.411382 0.19851 -0.288564
v -0.300403 0.171299 -0.338744
v -0.236208 0.206686 -0.439767
v -0.237225 0.235997 -0.439361
v -0.29746 0.200058 -0.33379
v -0.265221 0.16681 -0.20554
v -0.278047 0.14572 -0.221384
v -0.250869 0.13628 -0.283911
v -0.185971 0.150462 -0.302233
v -0.173145 0.171552 -0.286389
v -0.239188 0.158863 -0.269285
v -0.518035 0.152651 -0.415304
v -0.503301 0.133129 -0.399115
v -0.364675 0.16045 -0.413969
v -0.326187 0.142264 -0.549292
v -0.340921 0.161787 -0.565481
v -0.373069 0.187297 -0.422284
v -0.10815 0.151198 -0.315896
v -0.205994 0.100764 -0.235048
v -0.301309 0.140921 -0.145905
v -0.31603 0.122861 -0.163723
v -0.222652 0.086893 -0.254807
v -0.12287 0.133138 -0.333714
v 0.04879 0.007908 -0.177446
v 0.134622 0.00827 -0.136904
v 0.201117 0.292806 -0.575548
v 0.307463 0.308099 -0.505751
v 0.207152 0.258295 -0.576763
v 0.313498 0.273589 -0.506966
v 0.32502 0.301009 -0.642863
v 0.325847 0.263795 -0.635982
v 0.097075 -0.001339 -0.160985
v 0.147338 0.227626 -0.434592
v 0.158584 0.198087 -0.445339
v 0.183512 0.143495 -0.385396
v 0.232435 0.210143 -0.401273
v 0.22119 0.239682 -0.390527
v 0.170283 0.170227 -0.370444
v 0.070574 0.202655 -0.451703
v 0.082597 0.174136 -0.464048
v 0.289081 0.208692 -0.342798
v 0.277059 0.237211 -0.330453
v 0.064319 0.110428 -0.292562
v 0.080347 0.08924 -0.314449
v 0.191707 0.111219 -0.255025
v 0.17568 0.132407 -0.233138
v 0.149871 0.283345 -0.600659
v 0.156168 0.249023 -0.602314
v 0.357957 0.278185 -0.470457
v 0.351661 0.312508 -0.468802
v 0.217803 0.231098 -0.467179
v 0.229813 0.125614 -0.179804
v -0.004625 0.077917 -0.302908
v 0.011953 0.058192 -0.326395
v 0.246391 0.105889 -0.20329
vn 0.683 0.7071 -0.183
vn 0.5 0.7071 -0.5
vn 0.183 0.7071 -0.683
vn -0.183 0.7071 -0.683
vn -0.5 0.7071 -0.5
vn -0.683 0.7071 -0.183
vn -0.683 0.7071 0.183
vn -0.5 0.7071 0.5
vn -0.183 0.7071 0.683
vn 0.183 0.7071 0.683
vn 0.5 0.7071 0.5
vn 0.683 0.7071 0.183
vn 0.1398 0.9803 -0.1398
vn 0.0512 0.9803 -0.191
vn -0.0512 0.9803 -0.191
vn -0.1398 0.9803 -0.1398
vn -0.191 0.9803 -0.0512
vn -0.191 0.9803 0.0512
vn -0.1398 0.9803 0.1398
vn -0.0512 0.9803 0.191
vn 0.0512 0.9803 0.191
vn 0.1398 0.9803 0.1398
vn 0.191 0.9803 0.0512
vn 0.191 0.9803 -0.0512
vn 0.6519 -0.3875 -0.6519
vn -0.2569 -0.0 -0.9664
vn -0.5763 0.5795 0.5763
vn 0.9664 -0.0 0.2569
vn 0.2502 -0.2556 -0.9338
vn -0.6258 -0.0 -0.7799
vn -0.6259 -0.0 -0.7799
vn -0.2363 0.408 0.8819
vn 0.8391 -0.0 -0.544
vn -0.2255 -0.4908 -0.8416
vn -0.9654 -0.0 -0.2607
vn 0.162 0.7799 0.6045
vn 0.7057 -0.0 -0.7085
vn -0.6873 -0.2351 -0.6873
vn -0.8815 -0.0 0.4723
vn 0.6572 0.3691 0.6572
vn -0.2315 -0.0 -0.9728
vn -0.8416 -0.4908 -0.2255
vn -0.7085 -0.0 0.7057
vn 0.6045 0.7799 0.162
vn -0.2607 -0.0 -0.9654
vn -0.8416 -0.4908 0.2255
vn -0.2607 -0.0 0.9654
vn 0.6045 0.7799 -0.162
vn -0.7085 -0.0 -0.7057
vn -0.6161 -0.4908 0.6161
vn 0.2569 -0.0 0.9664
vn 0.4425 0.7799 -0.4425
vn -0.9664 -0.0 -0.2569
vn -0.2255 -0.4908 0.8416
vn 0.7057 -0.0 0.7085
vn 0.162 0.7799 -0.6045
vn -0.9654 -0.0 0.2607
vn 0.2255 -0.4908 0.8416
vn 0.9654 -0.0 0.2607
vn -0.162 0.7799 -0.6045
vn -0.7057 -0.0 0.7085
vn 0.6161 -0.4908 0.6161
vn 0.9664 -0.0 -0.2569
vn -0.4425 0.7799 -0.4425
vn -0.2569 -0.0 0.9664
vn 0.8416 -0.4908 0.2255
vn 0.7085 -0.0 -0.7057
vn -0.6045 0.7799 -0.162
vn 0.2607 -0.0 0.9654
vn 0.8416 -0.4908 -0.2255
vn 0.2607 -0.0 -0.9654
vn -0.6045 0.7799 0.162
vn 0.7085 -0.0 0.7057
vn 0.503 -0.7029 -0.503
vn -0.1473 -0.0 -0.9891
vn -0.3593 0.8613 0.3593
vn 0.9891 -0.0 0.1473
vn 0.1435 -0.8323 -0.5354
vn -0.5854 -0.0 -0.8108
vn -0.0704 0.9623 0.2629
vn 0.9747 -0.0 -0.2235
vn -0.0131 -0.9987 -0.0488
vn -0.9302 -0.0 -0.367
vn -0.0901 0.9374 -0.3364
vn 0.6221 -0.0 -0.7829
vn -0.0692 -0.9952 -0.0692
vn -0.9938 -0.0 0.1108
vn -0.1573 0.9749 -0.1573
vn 0.4363 -0.0 -0.8998
vn -0.0488 -0.9987 -0.0131
vn -0.7829 -0.0 0.6221
vn -0.3364 0.9374 -0.0901
vn -0.367 -0.0 -0.9302
vn -0.0488 -0.9987 0.0131
vn -0.367 -0.0 0.9302
vn -0.3364 0.9374 0.0901
vn -0.7829 -0.0 -0.6221
vn -0.0357 -0.9987 0.0357
vn 0.1473 -0.0 0.9891
vn -0.2463 0.9374 0.2463
vn -0.9891 -0.0 -0.1473
vn -0.0131 -0.9987 0.0488
vn 0.6221 -0.0 0.7829
vn -0.0901 0.9374 0.3364
vn -0.9302 -0.0 0.367
vn 0.0131 -0.9987 0.0488
vn 0.9302 -0.0 0.367
vn 0.0901 0.9374 0.3364
vn -0.6221 -0.0 0.7829
vn 0.0357 -0.9987 0.0357
vn 0.9891 -0.0 -0.1473
vn 0.2463 0.9374 0.2463
vn -0.1473 -0.0 0.9891
vn 0.0488 -0.9987 0.0131
vn 0.7829 -0.0 -0.6221
vn 0.3364 0.9374 0.0901
vn 0.367 -0.0 0.9302
vn 0.0488 -0.9987 -0.0131
vn 0.367 -0.0 -0.9302
vn 0.3364 0.9374 -0.0901
vn 0.7829 -0.0 0.6221
vn -0.6291 0.7675 -0.123
vn 0.4612 -0.2306 -0.8568
vn 0.5084 -0.1084 -0.8542
vn 0.4744 -0.8748 0.0981
vn -0.6059 -0.4238 0.6732
vn -0.1466 -0.2909 -0.9455
vn 0.3843 -0.054 0.9216
vn 0.4217 0.0459 0.9056
vn 0.5872 -0.8081 0.046
vn -0.7497 0.6572 -0.0778
vn -0.3716 -0.1777 -0.9112
vn -0.375 -0.0397 -0.9262
vn -0.4109 0.5564 -0.7222
vn -0.5939 0.2761 0.7557
vn -0.5492 -0.0686 0.8329
vn -0.5574 0.0795 0.8265
vn 0.1937 0.7556 -0.6257
vn 0.1239 0.7753 0.6193
vn 0.9521 0.2586 -0.1634
vn 0.9598 0.2219 -0.1718
vn 0.5102 -0.8584 0.053
vn 0.4799 -0.8551 0.1965
vn 0.8204 0.3383 0.4609
vn 0.83 0.2713 0.4874
vn -0.3274 0.8906 -0.3158
vn -0.7196 0.5954 -0.3573
vn -0.4177 0.9026 0.1044
vn -0.7976 0.6025 0.0288
vn -0.0792 -0.2217 -0.9719
vn -0.1346 -0.1351 -0.9817
vn 0.3168 -0.9141 -0.253
vn 0.2037 -0.8954 0.396
vn -0.4385 -0.1941 0.8775
vn -0.5054 -0.0884 0.8583
vn -0.2115 0.8934 -0.3964
vn -0.3228 0.9124 0.2517
vn 0.9958 -0.0854 -0.0326
vn 0.9957 -0.0869 -0.0332
vn 0.2546 -0.7636 -0.5934
vn 0.3695 -0.9264 0.0723
vn 0.1134 -0.781 0.6142
vn 0.3588 -0.9236 0.1352
vn 0.9761 -0.0108 0.217
vn 0.9722 -0.0365 0.2311
vn -0.0807 0.8214 -0.5647
vn -0.3391 0.9311 -0.1342
vn -0.1679 0.8557 0.4894
vn -0.3468 0.935 -0.074
vn -0.5829 0.7853 -0.2088
vn -0.3392 0.8083 -0.4813
vn -0.617 0.7814 -0.0931
vn -0.5605 0.7827 0.2706
vn 0.7779 0.6065 -0.1644
vn 0.8038 0.5769 -0.1452
vn 0.4834 -0.8674 0.1183
vn 0.4354 -0.8609 -0.2634
vn 0.4861 -0.866 0.1174
vn 0.2344 -0.8785 0.4162
vn 0.5471 0.6197 0.5627
vn 0.5996 0.5747 0.557
vn 0.458 0.8889 -0.0092
vn 0.4627 0.8487 -0.256
vn -0.1986 0.2006 0.9593
vn -0.2933 -0.9196 0.2613
vn -0.2811 -0.959 -0.0369
vn 0.2342 -0.2233 -0.9462
vn 0.5465 -0.3074 0.779
vn -0.5187 0.287 -0.8054
vn -0.2771 -0.9607 -0.0134
vn -0.3693 -0.8998 -0.2325
vn 0.4577 0.889 -0.0111
vn 0.5254 0.8352 0.1625
vn 0.4716 -0.2529 0.8448
vn -0.041 -0.7575 0.6516
vn -0.2791 -0.6931 -0.6647
vn 0.1419 -0.1641 -0.9762
vn 0.3302 0.7408 0.585
vn 0.1176 0.7983 -0.5907
vn -0.3417 0.291 0.8936
vn -0.3417 0.2909 0.8936
vn -0.4401 -0.768 0.4653
vn -0.5973 -0.7786 0.1925
vn -0.5882 -0.7282 -0.3517
vn -0.6401 -0.767 -0.0439
vn -0.6277 0.368 -0.686
vn 0.5784 0.7461 0.3299
vn 0.6245 0.7806 0.0243
vn 0.4389 0.7836 -0.4398
vn 0.5898 0.79 -0.1675
vn 0.7584 0.6513 0.025
vn 0.7125 0.6638 -0.2274
vn -0.7353 0.5196 0.4352
vn -0.7857 -0.5812 0.2117
vn -0.82 -0.5719 0.023
vn -0.8321 0.5457 -0.099
vn 0.3885 0.8398 -0.3793
vn 0.3128 0.1967 0.9292
vn -0.3125 -0.9013 0.3001
vn -0.3849 -0.1692 -0.9073
vn 0.8869 -0.1178 0.4467
vn -0.9126 0.1452 -0.3822
vn -0.2994 -0.9158 0.2678
vn 0.3872 0.8575 -0.3389
vn 0.8821 -0.1132 0.4573
vn 0.4706 0.8666 -0.1658
vn 0.1637 0.8537 -0.4943
vn -0.3904 -0.167 -0.9054
vn 0.5404 0.8411 0.025
vn 0.3753 0.9268 0.0159
vn -0.0267 0.9097 -0.4144
vn -0.0212 0.8172 -0.576
vn 0.1264 0.2593 0.9575
vn 0.0014 -0.8682 0.4962
vn -0.2627 -0.9149 0.3065
vn -0.4601 -0.8878 0.0021
vn -0.2877 -0.916 0.2797
vn -0.9559 0.2135 -0.2015
vn 0.511 0.8593 0.0233
vn 0.4324 0.8681 -0.2439
vn 0.2388 0.8599 -0.4513
vn -0.0223 0.8365 -0.5475
vn 0.3946 0.8658 -0.3078
vn 0.3 0.8618 -0.4091
vn -0.2613 0.3528 0.8985
vn -0.2737 -0.9097 0.3124
vn -0.2945 -0.9106 0.2901
vn -0.9276 0.3246 0.185
vn 0.2601 0.7949 0.5482
vn 0.6124 0.7177 0.3315
vn -0.8565 -0.3933 0.3341
vn -0.6771 -0.5022 0.5379
vn -0.5395 -0.8089 -0.2337
vn -0.163 -0.8737 -0.4584
vn 0.8649 -0.3607 -0.349
vn -0.5094 -0.3573 0.7829
vn 0.4957 -0.3194 -0.8077
vn 0.6742 -0.4285 -0.6015
vn -0.4508 -0.8624 -0.2302
vn -0.0954 -0.8015 -0.5903
vn 0.5233 0.7821 0.3384
vn 0.1869 0.7159 0.6727
vn -0.3302 0.0385 0.9431
vn -0.4888 0.308 0.8162
vn 0.2177 -0.8016 0.5568
vn -0.3127 -0.8065 0.5018
vn 0.5855 -0.7646 -0.2695
vn 0.5602 -0.7849 0.2648
vn 0.9689 0.0948 -0.2286
vn 0.864 0.4124 -0.289
vn -0.589 0.7604 0.2737
vn -0.5319 0.805 -0.2628
vn 0.3175 0.8028 -0.5048
vn -0.2214 0.8201 -0.5277
vn -0.8565 -0.0226 -0.5157
vn -0.8694 -0.1406 -0.4736
vn -0.4084 -0.8751 0.2597
vn -0.3187 -0.9259 -0.2028
vn -0.1057 -0.9156 -0.3879
vn 0.3606 -0.8399 -0.4056
vn -0.3447 0.001 -0.9387
vn -0.3767 -0.1193 -0.9186
vn -0.3543 0.8449 0.4007
vn 0.0725 0.9308 0.3582
vn 0.2935 0.9413 0.1666
vn 0.4024 0.8795 -0.2541
vn -0.5194 -0.2884 0.8044
vn -0.4985 -0.0293 0.8664
vn -0.2984 -0.9428 -0.1486
vn -0.5062 -0.8577 -0.0905
vn 0.0253 -0.832 -0.5542
vn -0.0544 -0.9311 -0.3607
vn 0.8728 -0.1946 -0.4476
vn 0.9435 0.0373 -0.3294
vn -0.0181 0.8352 0.5497
vn 0.076 0.9299 0.3599
vn 0.5006 0.8602 0.0972
vn 0.2946 0.9404 0.1698
vn -0.4974 -0.7446 -0.4452
vn -0.4928 -0.7657 -0.4134
vn -0.0742 -0.4604 0.8846
vn 0.2147 -0.9341 0.2854
vn 0.3017 -0.9298 0.2108
vn 0.9124 -0.4066 0.0469
vn -0.2996 -0.7328 -0.6109
vn -0.2969 -0.7574 -0.5816
vn -0.9205 0.3906 -0.012
vn -0.3277 0.9147 -0.2365
vn -0.2349 0.9192 -0.3159
vn 0.1101 0.4472 -0.8876
vn 0.1087 0.5501 0.828
vn 0.4768 0.3603 0.8018
vn 0.7127 0.3739 0.5936
vn 0.7736 0.5852 0.243
vn -0.6793 0.7153 -0.1639
vn -0.7651 0.6131 -0.1968
vn -0.7716 -0.5863 -0.2468
vn -0.7209 -0.3339 -0.6073
vn -0.4919 -0.3202 -0.8096
vn -0.1128 -0.5515 -0.8265
vn -0.0782 0.7318 -0.6771
vn -0.1829 0.6592 -0.7294
vn 0.0013 0.8735 0.4869
vn -0.4616 -0.1712 -0.8704
vn -0.4442 -0.0462 -0.8947
vn -0.0793 -0.9503 -0.3012
vn 0.6586 -0.2787 0.699
vn -0.7771 -0.6291 -0.0202
vn 0.9912 0.0451 0.1246
vn 0.9823 0.1689 0.0812
vn 0.4583 -0.795 -0.3974
vn -0.5259 0.6339 0.567
vn -0.9413 -0.3252 -0.091
vn -0.9815 -0.1765 -0.0742
vn -0.814 -0.5561 -0.1679
vn 0.5598 -0.2207 0.7987
vn 0.5241 -0.1078 0.8448
vn 0.4937 0.0487 0.8683
vn -0.8103 0.5853 -0.0297
vn -0.5189 0.8518 -0.0725
vn 0.2391 0.7645 0.5986
vn 0.1005 0.9428 0.3179
vn 0.0872 0.4265 -0.9003
vn 0.0861 0.3694 -0.9253
vn 0.3652 -0.6076 -0.7053
vn 0.5844 -0.5672 -0.5802
vn 0.6212 0.5169 -0.589
vn 0.6575 0.4658 -0.5923
vn -0.58 0.5881 0.5636
vn -0.3583 0.6284 0.6905
vn -0.8805 -0.3943 -0.2631
vn -0.9314 -0.3104 -0.1901
vn 0.1185 -0.8644 -0.4887
vn 0.0952 -0.8527 -0.5137
vn 0.6475 -0.7292 -0.2212
vn 0.5769 -0.7837 -0.2303
vn 0.7464 -0.1129 0.6559
vn 0.6841 -0.0271 0.7289
vn -0.7988 0.5713 0.1887
vn -0.5785 0.7803 0.2377
vn 0.0389 0.7663 0.6413
vn -0.1227 0.8608 0.494
vn 0.427 0.1215 -0.8961
vn 0.4218 0.1055 -0.9005
vn -0.2221 -0.8238 -0.5216
vn 0.3707 -0.8159 -0.4437
vn 0.7565 -0.6426 0.1212
vn 0.4222 -0.8072 -0.4125
vn 0.618 0.1506 -0.7716
vn 0.6273 0.1367 -0.7667
vn -0.6767 0.7257 -0.1242
vn -0.4581 0.7624 0.457
vn -0.3881 0.7739 0.5004
vn 0.1941 0.865 0.4627
vn -0.5093 0.6208 0.596
vn -0.402 0.646 0.6489
vn -0.2096 0.6708 -0.7114
vn -0.1633 0.6464 -0.7453
vn 0.4295 -0.7564 -0.4933
vn 0.4041 -0.7622 -0.5057
vn 0.4571 0.8132 -0.3603
vn 0.4676 0.7811 -0.4138
usemtl Elf_bush_Map
f 2//1 3//1 24//1
f 24//1 3//1 25//1
f 3//2 2//2 5//2
f 5//2 2//2 4//2
f 5//3 4//3 7//3
f 7//3 4//3 6//3
f 7//4 6//4 9//4
f 9//4 6//4 8//4
f 9//5 8//5 11//5
f 11//5 8//5 10//5
f 11//6 10//6 13//6
f 13//6 10//6 12//6
f 13//7 12//7 15//7
f 15//7 12//7 14//7
f 15//8 14//8 17//8
f 17//8 14//8 16//8
f 17//9 16//9 19//9
f 19//9 16//9 18//9
f 19//10 18//10 21//10
f 21//10 18//10 20//10
f 21//11 20//11 23//11
f 23//11 20//11 22//11
f 23//12 22//12 25//12
f 25//12 22//12 24//12
f 3//13 5//13 1//13
f 5//14 7//14 1//14
f 7//15 9//15 1//15
f 9//16 11//16 1//16
f 11//17 13//17 1//17
f 13//18 15//18 1//18
f 15//19 17//19 1//19
f 17//20 19//20 1//20
f 19//21 21//21 1//21
f 21//22 23//22 1//22
f 23//23 25//23 1//23
f 25//24 3//24 1//24
f 26//25 27//25 50//25
f 50//25 27//25 51//25
f 27//26 28//26 51//26
f 51//26 28//26 52//26
f 28//27 29//27 52//27
f 52//27 29//27 53//27
f 26//28 50//28 29//28
f 29//28 50//28 53//28
f 27//29 30//29 54//29
f 54//29 30//29 55//29
f 30//30 31//30 55//30
f 55//31 31//31 56//31
f 28//32 57//32 31//32
f 31//32 57//32 56//32
f 27//33 54//33 28//33
f 28//33 54//33 57//33
f 30//34 32//34 58//34
f 58//34 32//34 59//34
f 32//35 33//35 59//35
f 59//35 33//35 60//35
f 33//36 31//36 60//36
f 60//36 31//36 61//36
f 30//37 58//37 31//37
f 31//37 58//37 61//37
f 32//38 34//38 62//38
f 62//38 34//38 63//38
f 34//39 35//39 63//39
f 63//39 35//39 64//39
f 33//40 65//40 35//40
f 35//40 65//40 64//40
f 32//41 62//41 33//41
f 33//41 62//41 65//41
f 34//42 36//42 66//42
f 66//42 36//42 67//42
f 36//43 37//43 67//43
f 67//43 37//43 68//43
f 37//44 35//44 68//44
f 68//44 35//44 69//44
f 34//45 66//45 35//45
f 35//45 66//45 69//45
f 36//46 38//46 70//46
f 70//46 38//46 71//46
f 38//47 39//47 71//47
f 71//47 39//47 72//47
f 39//48 37//48 72//48
f 72//48 37//48 73//48
f 36//49 70//49 37//49
f 37//49 70//49 73//49
f 38//50 40//50 74//50
f 74//50 40//50 75//50
f 40//51 41//51 75//51
f 75//51 41//51 76//51
f 41//52 39//52 76//52
f 76//52 39//52 77//52
f 38//53 74//53 39//53
f 39//53 74//53 77//53
f 40//54 42//54 78//54
f 78//54 42//54 79//54
f 42//55 43//55 79//55
f 79//55 43//55 80//55
f 43//56 41//56 80//56
f 80//56 41//56 81//56
f 40//57 78//57 41//57
f 41//57 78//57 81//57
f 42//58 44//58 82//58
f 82//58 44//58 83//58
f 44//59 45//59 83//59
f 83//59 45//59 84//59
f 45//60 43//60 84//60
f 84//60 43//60 85//60
f 42//61 82//61 43//61
f 43//61 82//61 85//61
f 44//62 46//62 86//62
f 86//62 46//62 87//62
f 46//63 47//63 87//63
f 87//63 47//63 88//63
f 47//64 45//64 88//64
f 88//64 45//64 89//64
f 44//65 86//65 45//65
f 45//65 86//65 89//65
f 46//66 48//66 90//66
f 90//66 48//66 91//66
f 48//67 49//67 91//67
f 91//67 49//67 92//67
f 49//68 47//68 92//68
f 92//68 47//68 93//68
f 46//69 90//69 47//69
f 47//69 90//69 93//69
f 48//70 26//70 94//70
f 94//70 26//70 95//70
f 26//71 29//71 95//71
f 95//71 29//71 96//71
f 29//72 49//72 96//72
f 96//72 49//72 97//72
f 48//73 94//73 49//73
f 49//73 94//73 97//73
f 50//74 51//74 98//74
f 51//75 52//75 98//75
f 52//76 53//76 98//76
f 53//77 50//77 98//77
f 54//78 55//78 99//78
f 55//79 56//79 99//79
f 56//80 57//80 99//80
f 57//81 54//81 99//81
f 58//82 59//82 100//82
f 59//83 60//83 100//83
f 60//84 61//84 100//84
f 61//85 58//85 100//85
f 62//86 63//86 101//86
f 63//87 64//87 101//87
f 64//88 65//88 101//88
f 65//89 62//89 101//89
f 66//90 67//90 102//90
f 67//91 68//91 102//91
f 68//92 69//92 102//92
f 69//93 66//93 102//93
f 70//94 71//94 103//94
f 71//95 72//95 103//95
f 72//96 73//96 103//96
f 73//97 70//97 103//97
f 74//98 75//98 104//98
f 75//99 76//99 104//99
f 76//100 77//100 104//100
f 77//101 74//101 104//101
f 78//102 79//102 105//102
f 79//103 80//103 105//103
f 80//104 81//104 105//104
f 81//105 78//105 105//105
f 82//106 83//106 106//106
f 83//107 84//107 106//107
f 84//108 85//108 106//108
f 85//109 82//109 106//109
f 86//110 87//110 107//110
f 87//111 88//111 107//111
f 88//112 89//112 107//112
f 89//113 86//113 107//113
f 90//114 91//114 108//114
f 91//115 92//115 108//115
f 92//116 93//116 108//116
f 93//117 90//117 108//117
f 94//118 95//118 109//118
f 95//119 96//119 109//119
f 96//120 97//120 109//120
f 97//121 94//121 109//121
f 110//122 118//122 139//122
f 116//123 117//123 112//123
f 112//124 117//124 114//124
f 140//125 118//125 110//125
f 111//126 141//126 138//126
f 110//127 139//127 140//127
f 116//128 113//128 117//128
f 117//129 113//129 115//129
f 118//130 141//130 111//130
f 118//131 111//131 138//131
f 120//132 119//132 135//132
f 135//133 119//133 134//133
f 135//134 121//134 120//134
f 122//135 121//135 136//135
f 122//136 136//136 123//136
f 123//137 136//137 137//137
f 124//138 123//138 137//138
f 119//139 124//139 134//139
f 126//140 125//140 120//140
f 120//141 125//141 119//141
f 120//142 121//142 126//142
f 127//143 121//143 122//143
f 127//144 122//144 128//144
f 128//145 122//145 123//145
f 129//146 128//146 124//146
f 124//147 128//147 123//147
f 129//148 124//148 125//148
f 125//149 124//149 119//149
f 130//150 125//150 131//150
f 131//151 125//151 126//151
f 126//152 121//152 131//152
f 132//153 121//153 127//153
f 133//154 132//154 128//154
f 128//155 132//155 127//155
f 129//156 133//156 128//156
f 130//157 129//157 125//157
f 135//158 134//158 114//158
f 114//159 134//159 112//159
f 117//160 121//160 114//160
f 114//161 121//161 135//161
f 117//162 115//162 121//162
f 136//163 121//163 115//163
f 136//164 115//164 137//164
f 137//165 115//165 113//165
f 116//166 124//166 113//166
f 124//167 137//167 113//167
f 116//168 112//168 124//168
f 134//169 124//169 112//169
f 138//170 133//170 118//170
f 129//171 118//171 133//171
f 139//172 118//172 130//172
f 118//173 129//173 130//173
f 139//174 130//174 140//174
f 140//175 130//175 131//175
f 140//176 131//176 118//176
f 131//177 121//177 118//177
f 141//178 118//178 132//178
f 118//179 121//179 132//179
f 138//180 141//180 133//180
f 133//181 141//181 132//181
f 150//182 156//182 142//182
f 142//183 156//183 162//183
f 144//184 148//184 146//184
f 146//184 148//184 149//184
f 163//185 153//185 142//185
f 142//186 153//186 150//186
f 143//187 164//187 161//187
f 142//188 162//188 163//188
f 145//189 147//189 148//189
f 148//189 147//189 149//189
f 150//190 153//190 143//190
f 143//191 153//191 164//191
f 150//192 143//192 156//192
f 156//193 143//193 161//193
f 152//194 151//194 158//194
f 158//194 151//194 157//194
f 153//195 152//195 158//195
f 154//196 153//196 159//196
f 160//197 155//197 159//197
f 159//197 155//197 154//197
f 156//198 155//198 160//198
f 157//199 151//199 156//199
f 158//200 157//200 146//200
f 146//201 157//201 144//201
f 149//202 153//202 146//202
f 146//203 153//203 158//203
f 149//204 147//204 153//204
f 159//205 153//205 147//205
f 160//206 159//206 145//206
f 145//206 159//206 147//206
f 148//207 156//207 145//207
f 156//208 160//208 145//208
f 148//209 144//209 156//209
f 157//210 156//210 144//210
f 156//211 161//211 155//211
f 162//212 156//212 151//212
f 162//213 151//213 163//213
f 163//213 151//213 152//213
f 152//214 153//214 163//214
f 164//215 153//215 154//215
f 161//216 164//216 155//216
f 155//216 164//216 154//216
f 165//217 173//217 184//217
f 167//218 171//218 169//218
f 169//218 171//218 172//218
f 185//219 173//219 165//219
f 166//220 186//220 183//220
f 165//221 184//221 185//221
f 168//222 170//222 171//222
f 171//222 170//222 172//222
f 173//223 186//223 166//223
f 173//224 166//224 183//224
f 175//225 174//225 179//225
f 179//225 174//225 178//225
f 173//226 175//226 179//226
f 176//227 173//227 180//227
f 181//228 177//228 180//228
f 180//228 177//228 176//228
f 173//229 177//229 182//229
f 182//230 177//230 181//230
f 178//231 174//231 182//231
f 182//232 174//232 173//232
f 179//233 178//233 169//233
f 169//233 178//233 167//233
f 172//234 173//234 169//234
f 169//235 173//235 179//235
f 172//236 170//236 173//236
f 180//237 173//237 170//237
f 181//238 180//238 168//238
f 168//238 180//238 170//238
f 171//239 182//239 168//239
f 168//240 182//240 181//240
f 178//241 182//241 167//241
f 167//242 182//242 171//242
f 173//243 183//243 177//243
f 184//244 173//244 174//244
f 185//245 184//245 175//245
f 175//245 184//245 174//245
f 175//246 173//246 185//246
f 186//247 173//247 176//247
f 183//248 186//248 177//248
f 177//248 186//248 176//248
f 195//249 221//249 187//249
f 187//250 221//250 222//250
f 189//251 193//251 191//251
f 191//252 193//252 194//252
f 223//253 224//253 187//253
f 187//254 224//254 195//254
f 188//255 225//255 220//255
f 187//256 222//256 223//256
f 190//257 192//257 193//257
f 193//258 192//258 194//258
f 195//259 224//259 188//259
f 188//260 224//260 225//260
f 195//261 188//261 221//261
f 221//262 188//262 220//262
f 197//263 196//263 215//263
f 215//264 196//264 214//264
f 215//265 216//265 197//265
f 197//266 216//266 198//266
f 198//267 216//267 199//267
f 199//268 216//268 217//268
f 200//269 199//269 218//269
f 218//270 199//270 217//270
f 201//271 200//271 219//271
f 219//272 200//272 218//272
f 201//273 219//273 196//273
f 196//274 219//274 214//274
f 203//275 202//275 197//275
f 197//276 202//276 196//276
f 198//277 204//277 197//277
f 197//278 204//278 203//278
f 205//279 204//279 199//279
f 199//280 204//280 198//280
f 206//281 205//281 200//281
f 200//282 205//282 199//282
f 201//283 207//283 200//283
f 200//284 207//284 206//284
f 202//285 207//285 196//285
f 196//286 207//286 201//286
f 209//287 208//287 203//287
f 203//288 208//288 202//288
f 203//289 204//289 209//289
f 209//290 204//290 210//290
f 210//291 204//291 211//291
f 211//292 204//292 205//292
f 212//293 211//293 206//293
f 206//294 211//294 205//294
f 213//295 212//295 207//295
f 207//296 212//296 206//296
f 213//297 207//297 208//297
f 208//298 207//298 202//298
f 215//299 214//299 191//299
f 191//300 214//300 189//300
f 194//301 216//301 191//301
f 191//302 216//302 215//302
f 217//303 216//303 192//303
f 192//304 216//304 194//304
f 218//305 217//305 190//305
f 190//306 217//306 192//306
f 193//307 219//307 190//307
f 190//308 219//308 218//308
f 214//309 219//309 189//309
f 189//310 219//310 193//310
f 213//311 221//311 212//311
f 212//312 221//312 220//312
f 222//313 221//313 208//313
f 208//314 221//314 213//314
f 223//315 222//315 209//315
f 209//316 222//316 208//316
f 210//317 224//317 209//317
f 209//318 224//318 223//318
f 225//319 224//319 211//319
f 211//320 224//320 210//320
f 220//321 225//321 212//321
f 212//322 225//322 211//322
f 226//323 234//323 255//323
f 232//324 233//324 228//324
f 228//325 233//325 230//325
f 256//326 234//326 226//326
f 227//327 257//327 254//327
f 226//328 255//328 256//328
f 232//329 229//329 233//329
f 233//330 229//330 231//330
f 234//331 257//331 227//331
f 234//332 227//332 254//332
f 236//333 235//333 250//333
f 250//334 235//334 249//334
f 250//335 237//335 236//335
f 238//336 237//336 251//336
f 238//337 251//337 239//337
f 239//338 251//338 252//338
f 240//339 239//339 253//339
f 253//340 239//340 252//340
f 240//341 253//341 235//341
f 235//342 253//342 249//342
f 242//343 241//343 236//343
f 236//344 241//344 235//344
f 236//345 237//345 242//345
f 243//346 237//346 238//346
f 243//347 238//347 244//347
f 244//348 238//348 239//348
f 240//349 244//349 239//349
f 241//350 240//350 235//350
f 245//351 241//351 246//351
f 246//352 241//352 242//352
f 242//353 237//353 246//353
f 246//354 237//354 234//354
f 234//355 237//355 247//355
f 247//356 237//356 243//356
f 248//357 247//357 244//357
f 244//358 247//358 243//358
f 234//359 248//359 240//359
f 240//360 248//360 244//360
f 234//361 240//361 245//361
f 245//362 240//362 241//362
f 250//363 249//363 230//363
f 230//364 249//364 228//364
f 233//365 237//365 230//365
f 230//366 237//366 250//366
f 233//367 231//367 237//367
f 251//368 237//368 231//368
f 251//369 231//369 252//369
f 252//370 231//370 229//370
f 232//371 253//371 229//371
f 229//372 253//372 252//372
f 249//373 253//373 228//373
f 228//374 253//374 232//374
f 234//375 254//375 248//375
f 255//376 234//376 245//376
f 255//377 245//377 256//377
f 256//378 245//378 246//378
f 246//379 234//379 256//379
f 257//380 234//380 247//380
f 254//381 257//381 248//381
f 248//382 257//382 247//382