mtllib flat.mtl
v -0.199246 0.552648 -0.069651
v -0.196863 0.564253 -0.065946
v -0.193496 0.572849 -0.074243
v -0.192513 0.569841 -0.086246
v -0.194897 0.558236 -0.089951
v -0.198263 0.549639 -0.081654
v -0.210437 0.548551 -0.064842
v -0.206309 0.568651 -0.058425
v -0.200478 0.58354 -0.072796
v -0.198775 0.57833 -0.093585
v -0.202903 0.55823 -0.100003
v -0.208734 0.54334 -0.085631
v -0.221559 0.55359 -0.068539
v -0.217996 0.570937 -0.063
v -0.212964 0.583788 -0.075404
v -0.211494 0.57929 -0.093345
v -0.215057 0.561943 -0.098884
v -0.220089 0.549093 -0.086481
v -0.192686 0.56044 -0.077485
v -0.210818 0.55409 -0.069962
v -0.208063 0.567501 -0.06568
v -0.204173 0.577435 -0.075269
v -0.203037 0.573959 -0.089139
v -0.205791 0.560548 -0.093421
v -0.209681 0.550614 -0.083832
v -0.208609 0.506504 -0.071691
v -0.205757 0.52106 -0.070886
v -0.199018 0.527945 -0.082193
v -0.195132 0.520274 -0.094305
v -0.197984 0.505718 -0.095111
v -0.204723 0.498833 -0.083804
v -0.223224 0.503608 -0.067878
v -0.218284 0.52882 -0.066483
v -0.206612 0.540745 -0.086067
v -0.19988 0.527459 -0.107047
v -0.20482 0.502247 -0.108442
v -0.216492 0.490321 -0.088858
v -0.23485 0.50817 -0.076659
v -0.230587 0.529929 -0.075455
v -0.220513 0.540221 -0.092357
v -0.214704 0.528754 -0.110463
v -0.218967 0.506995 -0.111667
v -0.229041 0.496703 -0.094765
v -0.198327 0.512604 -0.081364
v -0.221915 0.508147 -0.075584
v -0.218619 0.524968 -0.074653
v -0.210831 0.532925 -0.087719
v -0.20634 0.52406 -0.101717
v -0.209636 0.507239 -0.102648
v -0.217423 0.499282 -0.089581
v -0.177462 0.454602 -0.098835
v -0.182127 0.47343 -0.1022
v -0.182245 0.486348 -0.087344
v -0.177699 0.480438 -0.069124
v -0.173035 0.46161 -0.065759
v -0.172916 0.448692 -0.080615
v -0.1635 0.448138 -0.112201
v -0.171579 0.480749 -0.118029
v -0.171785 0.503123 -0.092299
v -0.16391 0.492887 -0.060741
v -0.155831 0.460276 -0.054913
v -0.155626 0.437902 -0.080643
v -0.144574 0.45529 -0.112081
v -0.151547 0.483434 -0.117111
v -0.151724 0.502745 -0.094904
v -0.144928 0.49391 -0.067669
v -0.137955 0.465766 -0.062639
v -0.137778 0.446456 -0.084845
v -0.18266 0.466425 -0.083068
v -0.159877 0.45638 -0.104301
v -0.165268 0.478138 -0.108189
v -0.165405 0.493066 -0.091022
v -0.160151 0.486237 -0.069967
v -0.154761 0.464479 -0.066078
v -0.154624 0.449551 -0.083245
v -0.181837 0.555538 -0.083656
v -0.185161 0.563574 -0.092514
v -0.187212 0.575475 -0.089645
v -0.18594 0.57934 -0.077919
v -0.182617 0.571305 -0.069061
v -0.180565 0.559403 -0.07193
v -0.171587 0.548712 -0.087328
v -0.177343 0.56263 -0.10267
v -0.180896 0.583244 -0.097701
v -0.178693 0.58994 -0.077389
v -0.172937 0.576021 -0.062047
v -0.169383 0.555408 -0.067016
v -0.160122 0.554113 -0.088793
v -0.16509 0.566125 -0.102034
v -0.168157 0.583915 -0.097746
v -0.166255 0.589694 -0.080216
v -0.161287 0.577682 -0.066975
v -0.15822 0.559891 -0.071263
v -0.187091 0.566749 -0.080213
v -0.170442 0.556075 -0.086092
v -0.174283 0.565361 -0.096328
v -0.176653 0.579114 -0.093013
v -0.175183 0.583581 -0.079461
v -0.171343 0.574295 -0.069225
v -0.168972 0.560542 -0.07254
v -0.160043 0.398328 -0.102296
v -0.168571 0.413081 -0.087243
v -0.163884 0.410735 -0.065118
v -0.15067 0.393637 -0.058047
v -0.142142 0.378885 -0.0731
v -0.146829 0.38123 -0.095225
v -0.150027 0.409682 -0.120319
v -0.164797 0.435234 -0.094246
v -0.156679 0.431172 -0.055925
v -0.133792 0.401557 -0.043678
v -0.119022 0.376005 -0.069751
v -0.127139 0.380067 -0.108071
v -0.130546 0.42229 -0.117566
v -0.143293 0.444343 -0.095064
v -0.136287 0.440837 -0.061992
v -0.116534 0.415278 -0.051422
v -0.103787 0.393226 -0.073924
v -0.110793 0.396731 -0.106996
v -0.160278 0.392455 -0.079503
v -0.143748 0.410893 -0.108052
v -0.153603 0.427942 -0.090656
v -0.148187 0.425231 -0.065089
v -0.132916 0.405473 -0.056917
v -0.123062 0.388425 -0.074313
v -0.128478 0.391135 -0.09988
v -0.13525 0.345363 -0.083937
v -0.130712 0.346362 -0.058162
v -0.11326 0.330133 -0.047299
v -0.100346 0.312905 -0.062212
v -0.104884 0.311906 -0.087987
v -0.122337 0.328135 -0.098849
v -0.134176 0.37017 -0.094828
v -0.126315 0.3719 -0.050185
v -0.096087 0.343791 -0.031371
v -0.073719 0.313952 -0.0572
v -0.08158 0.312222 -0.101844
v -0.111808 0.340331 -0.120658
v -0.111115 0.383979 -0.096267
v -0.104331 0.385473 -0.057738
v -0.078243 0.361213 -0.041501
v -0.058939 0.335461 -0.063793
v -0.065723 0.333968 -0.102322
v -0.091811 0.358227 -0.118559
v -0.122868 0.324402 -0.071998
v -0.120431 0.364254 -0.089349
v -0.115186 0.365409 -0.059563
v -0.095018 0.346654 -0.04701
v -0.080095 0.326746 -0.064244
v -0.08534 0.325592 -0.094029
v -0.105508 0.344346 -0.106582
v -0.210208 0.455675 -0.064639
v -0.208947 0.472723 -0.074403
v -0.20115 0.473163 -0.092475
v -0.194614 0.456555 -0.100782
v -0.195875 0.439507 -0.091018
v -0.203672 0.439067 -0.072946
v -0.228959 0.453063 -0.057093
v -0.226776 0.482591 -0.074005
v -0.213271 0.483353 -0.105306
v -0.20195 0.454586 -0.119695
v -0.204134 0.425058 -0.102783
v -0.217639 0.424296 -0.071482
v -0.244928 0.450038 -0.069144
v -0.243044 0.475522 -0.08374
v -0.231389 0.476179 -0.110754
v -0.221619 0.451353 -0.123172
v -0.223503 0.425869 -0.108576
v -0.235158 0.425212 -0.081562
v -0.197636 0.456953 -0.08063
v -0.227935 0.452707 -0.069022
v -0.226478 0.472408 -0.080306
v -0.217468 0.472916 -0.10119
v -0.209915 0.453723 -0.11079
v -0.211372 0.434022 -0.099506
v -0.220382 0.433514 -0.078622
v -0.157027 0.34076 -0.07232
v -0.142829 0.337715 -0.094117
v -0.126947 0.317041 -0.096618
v -0.125262 0.299411 -0.077322
v -0.139459 0.302457 -0.055525
v -0.155342 0.323131 -0.053024
v -0.182952 0.345868 -0.078401
v -0.158362 0.340593 -0.116154
v -0.130852 0.304784 -0.120487
v -0.127933 0.274249 -0.087066
v -0.152524 0.279524 -0.049313
v -0.180034 0.315333 -0.04498
v -0.198717 0.327266 -0.089803
v -0.177494 0.322714 -0.122386
v -0.153752 0.291809 -0.126125
v -0.151233 0.265457 -0.097281
v -0.172456 0.270009 -0.064699
v -0.196198 0.300914 -0.060959
v -0.135911 0.323756 -0.071925
v -0.1776 0.331283 -0.081948
v -0.161194 0.327764 -0.107136
v -0.14284 0.303872 -0.110027
v -0.140892 0.2835 -0.087729
v -0.157299 0.287019 -0.06254
v -0.175653 0.310911 -0.059649
v -0.189893 0.397203 -0.061294
v -0.18992 0.411564 -0.078921
v -0.178735 0.406196 -0.097975
v -0.167524 0.386467 -0.099401
v -0.167497 0.372106 -0.081774
v -0.178681 0.377474 -0.06272
v -0.211771 0.393783 -0.053312
v -0.211818 0.418657 -0.083843
v -0.192446 0.40936 -0.116845
v -0.173027 0.375189 -0.119316
v -0.17298 0.350315 -0.088784
v -0.192352 0.359612 -0.055782
v -0.22782 0.382471 -0.065981
v -0.22786 0.403938 -0.092331
v -0.211141 0.395914 -0.120813
v -0.194382 0.366423 -0.122946
v -0.194341 0.344956 -0.096596
v -0.211061 0.35298 -0.068114
v -0.173697 0.394525 -0.078164
v -0.208966 0.388734 -0.065882
v -0.208997 0.40533 -0.086252
v -0.196072 0.399127 -0.108271
v -0.183116 0.376328 -0.109919
v -0.183085 0.359733 -0.089549
v -0.19601 0.365936 -0.06753
v -0.081688 0.284014 -0.067017
v -0.082357 0.286304 -0.038783
v -0.066808 0.26884 -0.02278
v -0.050588 0.249087 -0.035011
v -0.049919 0.246797 -0.063245
v -0.065468 0.264261 -0.079248
v -0.077268 0.310215 -0.079445
v -0.078428 0.314181 -0.030542
v -0.051495 0.283934 -0.002825
v -0.023403 0.24972 -0.02401
v -0.022243 0.245754 -0.072912
v -0.049176 0.276001 -0.10063
v -0.051993 0.3244 -0.076623
v -0.052994 0.327823 -0.034418
v -0.02975 0.301719 -0.010497
v -0.005505 0.272191 -0.02878
v -0.004504 0.268768 -0.070985
v -0.027748 0.294873 -0.094907
v -0.071922 0.26164 -0.050753
v -0.064101 0.303717 -0.07041
v -0.064875 0.306364 -0.037783
v -0.046906 0.286183 -0.01929
v -0.028163 0.263356 -0.033424
v -0.027389 0.26071 -0.066051
v -0.045358 0.28089 -0.084544
v -0.024019 0.000307 -0.017425
v 0.007333 0.000307 -0.01616
v 0.018225 0.000307 -0.045558
v -0.006395 0.000307 -0.064991
v -0.032504 0.000307 -0.047604
v -0.024019 0.056837 -0.015057
v 0.007333 0.056781 -0.013793
v 0.018225 0.058086 -0.04319
v -0.006395 0.058949 -0.062624
v -0.032504 0.058177 -0.045236
v -0.033399 0.138399 -0.019841
v -0.007751 0.138354 -0.018807
v 0.001159 0.139421 -0.042856
v -0.018982 0.140127 -0.058753
v -0.04034 0.139496 -0.044529
v -0.053884 0.20417 -0.028208
v -0.032514 0.204132 -0.027346
v -0.02509 0.205021 -0.047384
v -0.041871 0.20561 -0.060629
v -0.059667 0.205083 -0.048778
v -0.09359 0.266963 -0.041365
v -0.073646 0.266927 -0.04056
v -0.066718 0.267758 -0.05926
v -0.082379 0.268306 -0.071622
v -0.098987 0.267815 -0.060562
v -0.143917 0.334622 -0.058988
v -0.128692 0.343579 -0.058776
v -0.12256 0.344314 -0.075327
v -0.133995 0.335811 -0.085768
v -0.147194 0.329821 -0.07567
v -0.17854 0.399151 -0.073574
v -0.167588 0.404771 -0.073328
v -0.163314 0.405283 -0.084863
v -0.171625 0.39998 -0.092239
v -0.181035 0.39619 -0.085262
v -0.195607 0.457817 -0.077293
v -0.183335 0.456939 -0.076846
v -0.179061 0.457451 -0.088381
v -0.188692 0.458646 -0.095958
v -0.198918 0.458872 -0.089105
v -0.194573 0.547419 -0.074913
v -0.184587 0.546704 -0.074549
v -0.18111 0.547121 -0.083935
v -0.188946 0.548093 -0.0901
v -0.197267 0.548277 -0.084524
v -0.180095 0.642083 -0.073996
v -0.106532 0.26712 -0.057491
v -0.090851 0.269535 -0.080967
v -0.070516 0.250577 -0.086433
v -0.06586 0.229204 -0.068423
v -0.081541 0.226788 -0.044947
v -0.101877 0.245747 -0.039481
v -0.135091 0.269313 -0.063823
v -0.107931 0.273497 -0.104485
v -0.072708 0.24066 -0.113953
v -0.064645 0.20364 -0.082759
v -0.091805 0.199457 -0.042097
v -0.127028 0.232293 -0.032629
v -0.148942 0.248854 -0.079236
v -0.125502 0.252464 -0.114329
v -0.095103 0.224125 -0.1225
v -0.088145 0.192175 -0.095579
v -0.111585 0.188565 -0.060486
v -0.141983 0.216904 -0.052315
v -0.081192 0.252439 -0.059175
v -0.127005 0.255277 -0.069723
v -0.108884 0.258068 -0.096852
v -0.085384 0.236159 -0.103169
v -0.080004 0.21146 -0.082357
v -0.098125 0.208669 -0.055228
v -0.121625 0.230577 -0.048911
v -0.178108 0.512771 -0.097485
v -0.181628 0.526977 -0.100024
v -0.181717 0.536725 -0.088815
v -0.178287 0.532265 -0.075067
v -0.174767 0.518059 -0.072528
v -0.174678 0.508311 -0.083737
v -0.167573 0.507893 -0.107571
v -0.173669 0.5325 -0.111968
v -0.173824 0.549383 -0.092553
v -0.167882 0.541659 -0.068741
v -0.161786 0.517052 -0.064343
v -0.161631 0.500169 -0.083758
v -0.153291 0.51329 -0.10748
v -0.158553 0.534526 -0.111275
v -0.158686 0.549097 -0.094519
v -0.153559 0.542431 -0.073968
v -0.148297 0.521194 -0.070173
v -0.148164 0.506624 -0.086929
v -0.18203 0.521692 -0.085588
v -0.164839 0.514112 -0.101609
v -0.168906 0.53053 -0.104543
v -0.16901 0.541794 -0.09159
v -0.165046 0.536641 -0.075702
v -0.160978 0.520223 -0.072768
v -0.160875 0.508959 -0.085722
v 0.224367 0.510994 0.046119
v 0.228127 0.530273 0.025533
v 0.21298 0.528569 0.001508
v 0.194074 0.507586 -0.001932
v 0.190314 0.488307 0.018653
v 0.205461 0.490011 0.042678
v 0.220653 0.524188 0.072192
v 0.227164 0.55758 0.036537
v 0.200929 0.554629 -0.005076
v 0.168183 0.518285 -0.011035
v 0.161671 0.484893 0.024619
v 0.187906 0.487845 0.066233
v 0.196839 0.540103 0.078083
v 0.202458 0.568922 0.047312
v 0.179816 0.566375 0.011398
v 0.151555 0.535009 0.006255
v 0.145935 0.50619 0.037026
v 0.168577 0.508737 0.07294
v 0.214639 0.504917 0.018987
v 0.207984 0.526384 0.0606
v 0.212328 0.548663 0.036811
v 0.194824 0.546693 0.009047
v 0.172976 0.522445 0.005071
v 0.168632 0.500166 0.02886
v 0.186136 0.502136 0.056624
v 0.020293 0.000307 -0.01485
v -0.017052 0.000307 -0.002716
v -0.017052 0.000307 0.036551
v 0.020293 0.000307 0.048685
v 0.043373 0.000307 0.016917
v 0.020293 0.088913 -0.01485
v -0.017052 0.088913 -0.002716
v -0.017052 0.088913 0.036551
v 0.020293 0.088913 0.048685
v 0.043373 0.088913 0.016917
v 0.034948 0.190615 -0.00907
v 0.004398 0.190615 0.000856
v 0.004398 0.190615 0.032978
v 0.034948 0.190615 0.042905
v 0.053829 0.190615 0.016917
v 0.063887 0.272375 -0.004735
v 0.038433 0.272375 0.003536
v 0.038433 0.272375 0.030299
v 0.063887 0.272375 0.03857
v 0.079618 0.272375 0.016917
v 0.117405 0.350147 -0.00329
v 0.09365 0.350147 0.004429
v 0.09365 0.350147 0.029406
v 0.117405 0.350147 0.037125
v 0.132086 0.350147 0.016917
v 0.18542 0.433755 -0.000967
v 0.167633 0.444965 0.005864
v 0.167633 0.444965 0.027971
v 0.18542 0.433755 0.034802
v 0.196413 0.426827 0.016917
v 0.233627 0.513617 0.004453
v 0.220775 0.520657 0.009214
v 0.220775 0.520657 0.024621
v 0.233627 0.513617 0.029382
v 0.241569 0.509266 0.016917
v 0.256401 0.586753 0.004453
v 0.241787 0.58568 0.009214
v 0.241787 0.58568 0.024621
v 0.256401 0.586753 0.029382
v 0.265433 0.587417 0.016917
v 0.255881 0.698903 0.006775
v 0.24399 0.69803 0.010649
v 0.24399 0.69803 0.023186
v 0.255881 0.698903 0.02706
v 0.26323 0.699443 0.016917
v 0.240315 0.817301 0.016917
v 0.241583 0.511863 -0.014979
v 0.249542 0.528839 0.006424
v 0.244581 0.52107 0.033342
v 0.231662 0.496327 0.038858
v 0.223704 0.479352 0.017455
v 0.228664 0.48712 -0.009463
v 0.26373 0.508032 -0.034019
v 0.277514 0.537433 0.003051
v 0.268921 0.523978 0.049675
v 0.246545 0.481121 0.059229
v 0.232761 0.45172 0.022158
v 0.241354 0.465175 -0.024466
v 0.287845 0.493186 -0.026725
v 0.299741 0.518561 0.005268
v 0.292325 0.506949 0.045507
v 0.273014 0.469962 0.053752
v 0.261117 0.444587 0.021758
v 0.268533 0.456199 -0.01848
v 0.229846 0.507579 0.011696
v 0.265795 0.501022 -0.018326
v 0.274992 0.520638 0.006408
v 0.269259 0.511661 0.037515
v 0.25433 0.483067 0.043889
v 0.245133 0.463451 0.019156
v 0.250866 0.472428 -0.011951
v 0.114897 0.37004 0.032844
v 0.103475 0.37447 -0.00043
v 0.077944 0.353526 -0.013347
v 0.063837 0.328152 0.00701
v 0.07526 0.323722 0.040285
v 0.10079 0.344666 0.053201
v 0.115609 0.402106 0.050699
v 0.095824 0.409778 -0.006934
v 0.051605 0.373503 -0.029306
v 0.02717 0.329554 0.005954
v 0.046955 0.321881 0.063587
v 0.091175 0.358157 0.085959
v 0.084996 0.419996 0.059108
v 0.06792 0.426618 0.009369
v 0.029757 0.395311 -0.009939
v 0.008669 0.357382 0.020492
v 0.025744 0.35076 0.070231
v 0.063908 0.382067 0.089539
v 0.095948 0.342971 0.016853
v 0.096111 0.394484 0.045487
v 0.08291 0.399603 0.007035
v 0.053407 0.375401 -0.007891
v 0.037105 0.346078 0.015634
v 0.050305 0.340959 0.054086
v 0.079808 0.365162 0.069013
v 0.244885 0.708568 0.022981
v 0.252784 0.718123 0.032341
v 0.254176 0.733161 0.028706
v 0.247668 0.738644 0.015711
v 0.239769 0.72909 0.006351
v 0.238377 0.714052 0.009986
v 0.234316 0.699831 0.031383
v 0.247999 0.71638 0.047595
v 0.250409 0.742426 0.041298
v 0.239138 0.751924 0.01879
v 0.225456 0.735376 0.002578
v 0.223045 0.709329 0.008875
v 0.221602 0.706502 0.038363
v 0.23341 0.720784 0.052354
v 0.23549 0.743263 0.04692
v 0.225763 0.75146 0.027494
v 0.213955 0.737178 0.013503
v 0.211874 0.714699 0.018937
v 0.249772 0.722775 0.017245
v 0.232579 0.709104 0.030815
v 0.241707 0.720145 0.041631
v 0.243316 0.737523 0.03743
v 0.235795 0.74386 0.022413
v 0.226667 0.732819 0.011596
v 0.225058 0.715441 0.015797
v 0.244393 0.581539 0.037423
v 0.25169 0.60489 0.040322
v 0.245631 0.621864 0.023526
v 0.232275 0.615487 0.003832
v 0.224978 0.592136 0.000933
v 0.231037 0.575162 0.017729
v 0.233683 0.572716 0.058823
v 0.246322 0.613161 0.063844
v 0.235828 0.642561 0.034753
v 0.212694 0.631516 0.000641
v 0.200055 0.59107 -0.00438
v 0.210549 0.56167 0.024711
v 0.211557 0.581664 0.067276
v 0.222465 0.61657 0.071609
v 0.213408 0.641943 0.046502
v 0.193443 0.632411 0.017062
v 0.182534 0.597505 0.012729
v 0.191591 0.572131 0.037836
v 0.243877 0.597194 0.017295
v 0.226161 0.583458 0.051563
v 0.234594 0.610443 0.054913
v 0.227593 0.630059 0.035504
v 0.212158 0.62269 0.012744
v 0.203725 0.595705 0.009395
v 0.210727 0.576089 0.028804
v 0.186283 0.445798 0.032607
v 0.16979 0.448477 0.004411
v 0.144282 0.428791 -0.001588
v 0.135266 0.406426 0.020609
v 0.151759 0.403746 0.048805
v 0.177267 0.423432 0.054804
v 0.190227 0.476207 0.047135
v 0.16166 0.480848 -0.001702
v 0.117478 0.446751 -0.012092
v 0.101862 0.408013 0.026354
v 0.130429 0.403372 0.075191
v 0.174611 0.437469 0.085581
v 0.164054 0.493391 0.059558
v 0.1394 0.497396 0.01741
v 0.101269 0.467969 0.008443
v 0.087792 0.434537 0.041624
v 0.112446 0.430531 0.083772
v 0.150577 0.459958 0.092739
v 0.166166 0.420256 0.022898
v 0.171604 0.469115 0.046373
v 0.152545 0.472211 0.01379
v 0.123067 0.449462 0.006857
v 0.112648 0.423616 0.032508
v 0.131707 0.42052 0.065092
v 0.161185 0.443269 0.072024
v 0.268003 0.584778 -0.016838
v 0.271089 0.605549 -0.003955
v 0.26979 0.605096 0.020643
v 0.265404 0.583872 0.032357
v 0.262318 0.563101 0.019474
v 0.263617 0.563554 -0.005123
v 0.286685 0.581931 -0.033966
v 0.29203 0.617908 -0.011652
v 0.28978 0.617122 0.030952
v 0.282184 0.580361 0.051242
v 0.276839 0.544384 0.028928
v 0.279089 0.54517 -0.013676
v 0.310597 0.577481 -0.026932
v 0.31521 0.60853 -0.007674
v 0.313268 0.607853 0.029095
v 0.306713 0.576126 0.046606
v 0.302099 0.545077 0.027348
v 0.304042 0.545754 -0.009421
v 0.260214 0.585489 0.007439
v 0.290652 0.580824 -0.019554
v 0.294219 0.604828 -0.004666
v 0.292717 0.604304 0.023759
v 0.287649 0.579777 0.037296
v 0.284083 0.555773 0.022409
v 0.285584 0.556297 -0.006017
v 0.270167 0.647932 -0.005229
v 0.26675 0.666174 -0.004177
v 0.263882 0.674154 0.012366
v 0.264429 0.663892 0.027856
v 0.267846 0.645649 0.026804
v 0.270715 0.637669 0.010261
v 0.285608 0.644523 -0.016199
v 0.27969 0.676119 -0.014377
v 0.274721 0.689941 0.014276
v 0.27567 0.672166 0.041106
v 0.281587 0.640569 0.039283
v 0.286556 0.626748 0.010631
v 0.303151 0.649739 -0.010718
v 0.298044 0.677008 -0.009145
v 0.293755 0.688937 0.015584
v 0.294574 0.673596 0.038739
v 0.299681 0.646327 0.037166
v 0.303969 0.634398 0.012438
v 0.262415 0.655021 0.010896
v 0.287503 0.64977 -0.00636
v 0.283554 0.670851 -0.005144
v 0.280239 0.680073 0.013973
v 0.280872 0.668213 0.031873
v 0.28482 0.647132 0.030657
v 0.288135 0.63791 0.011541
v 0.139595 0.349449 0.010003
v 0.131427 0.351165 0.044465
v 0.109568 0.327161 0.058721
v 0.095877 0.30144 0.038515
v 0.104046 0.299723 0.004054
v 0.125905 0.323728 -0.010202
v 0.175901 0.351839 0.005136
v 0.161754 0.354812 0.064825
v 0.123893 0.313235 0.089517
v 0.10018 0.268685 0.05452
v 0.114327 0.265712 -0.005169
v 0.152188 0.307289 -0.029861
v 0.198452 0.325405 0.016125
v 0.186242 0.327971 0.067639
v 0.153566 0.292089 0.088949
v 0.133101 0.25364 0.058745
v 0.145311 0.251074 0.007231
v 0.177987 0.286957 -0.014079
v 0.110305 0.331001 0.022221
v 0.168702 0.333963 0.014835
v 0.159263 0.335947 0.054659
v 0.134002 0.308207 0.071133
v 0.118181 0.278484 0.047784
v 0.12762 0.2765 0.007959
v 0.152881 0.30424 -0.008515
v 0.245685 0.654334 0.038588
v 0.251192 0.671954 0.040775
v 0.24662 0.684762 0.028102
v 0.236542 0.679951 0.013241
v 0.231035 0.662331 0.011054
v 0.235607 0.649523 0.023727
v 0.237604 0.647677 0.054736
v 0.247141 0.678195 0.058524
v 0.239223 0.70038 0.036573
v 0.221767 0.692045 0.010834
v 0.21223 0.661527 0.007045
v 0.220148 0.639342 0.028996
v 0.220908 0.654429 0.061114
v 0.229139 0.680767 0.064383
v 0.222305 0.699913 0.045439
v 0.20724 0.69272 0.023224
v 0.199009 0.666382 0.019955
v 0.205843 0.647236 0.038899
v 0.245297 0.666147 0.0234
v 0.231929 0.655783 0.049258
v 0.238292 0.676145 0.051785
v 0.233009 0.690946 0.03714
v 0.221362 0.685385 0.019966
v 0.214999 0.665024 0.017439
v 0.220282 0.650222 0.032084
v 0.206709 0.440688 0.009287
v 0.199448 0.435671 0.040852
v 0.181496 0.409686 0.049608
v 0.170805 0.388717 0.026799
v 0.178066 0.393734 -0.004765
v 0.196018 0.41972 -0.013521
v 0.239873 0.446736 0.005421
v 0.227296 0.438047 0.060092
v 0.196201 0.393038 0.075258
v 0.177684 0.35672 0.035753
v 0.190261 0.365409 -0.018919
v 0.221355 0.410418 -0.034084
v 0.262964 0.422848 0.010973
v 0.252109 0.415349 0.058156
v 0.225273 0.376505 0.071245
v 0.209292 0.34516 0.03715
v 0.220146 0.35266 -0.010033
v 0.246982 0.391504 -0.023122
v 0.181429 0.419452 0.017112
v 0.23485 0.428306 0.011145
v 0.226459 0.422508 0.047621
v 0.205713 0.392479 0.05774
v 0.193358 0.368248 0.031382
v 0.201749 0.374045 -0.005094
v 0.222495 0.404074 -0.015213
v 0.259182 0.705733 -0.001152
v 0.255001 0.720446 -0.003857
v 0.254816 0.730733 0.007782
v 0.258813 0.726306 0.022124
v 0.262995 0.711592 0.024829
v 0.263179 0.701305 0.013191
v 0.27015 0.700878 -0.011865
v 0.262907 0.726363 -0.016549
v 0.262588 0.744179 0.003609
v 0.269511 0.736511 0.028451
v 0.276753 0.711026 0.033136
v 0.277073 0.69321 0.012978
v 0.284903 0.706972 -0.012099
v 0.278653 0.728967 -0.016142
v 0.278377 0.744343 0.001255
v 0.284352 0.737725 0.022695
v 0.290602 0.715731 0.026738
v 0.290878 0.700355 0.009341
v 0.255033 0.71504 0.011289
v 0.272925 0.707519 -0.005739
v 0.268093 0.724522 -0.008865
v 0.26788 0.736409 0.004584
v 0.272499 0.731293 0.021159
v 0.277331 0.71429 0.024285
v 0.277544 0.702403 0.010835
v -0.015498 0.000307 -0.031531
v -0.032609 0.000307 -0.026629
v -0.086225 0.079427 -0.058853
v -0.057297 0.076322 0.037395
v -0.137536 0.135404 -0.045242
v -0.106616 0.132085 0.057634
v -0.204098 0.198741 -0.014763
v -0.181718 0.196339 0.059699
v -0.258684 0.173579 0.010335
v -0.246345 0.172255 0.051387
v -0.336079 0.18952 0.025432
v -0.183374 0.189701 0.024223
v -0.11203 0.107392 0.009655
v -0.123924 0.092504 0.012749
v -0.195268 0.174813 0.027317
v -0.008267 0.000307 -0.065085
v -0.001441 0.136196 -0.186224
v -0.136102 0.131209 -0.097226
v -0.046101 0.2261 -0.258852
v -0.190037 0.220769 -0.163726
v -0.115026 0.297045 -0.318093
v -0.219208 0.293187 -0.249239
v -0.181575 0.309916 -0.399449
v -0.239013 0.307789 -0.361488
v -0.226045 0.313016 -0.463146
v -0.165407 0.270361 -0.26819
v -0.118743 0.198592 -0.194237
v -0.129002 0.174681 -0.211101
v -0.175667 0.24645 -0.285053
v 0.016474 0.000307 -0.005524
v 0.139669 0.087307 -0.05692
v 0.039504 0.087307 -0.131001
v 0.193272 0.132077 -0.122182
v 0.086209 0.132077 -0.201365
v 0.221296 0.134637 -0.190998
v 0.143803 0.134637 -0.248311
v 0.244578 0.154548 -0.258841
v 0.201855 0.154548 -0.29044
v 0.256693 0.188371 -0.306206
v 0.170074 0.128989 -0.212506
v 0.125492 0.126429 -0.155936
v 0.130583 0.104094 -0.16282
v 0.175165 0.106654 -0.21939
v 0.00654 0.013747 0.031255
v 0.00015 0.000307 0.04132
v -0.091088 0.061957 0.085068
v -0.006304 0.060939 0.137386
v -0.128973 0.05004 0.139697
v -0.03835 0.048952 0.195618
v -0.144359 0.016836 0.19199
v -0.078765 0.016049 0.232466
v -0.158926 0.017909 0.248549
v -0.122762 0.017475 0.270864
v -0.156092 0.024813 0.284555
v -0.101791 0.0138 0.205145
v -0.07239 0.046835 0.1615
v -0.074444 0.028049 0.164464
v -0.103845 -0.004986 0.208109
v 0.033583 0.014395 0.010847
v 0.051546 0.000307 0.010847
v 0.122579 0.087307 0.079209
v 0.122579 0.087307 -0.045374
v 0.254919 0.067766 0.071239
v 0.206924 0.087186 -0.049664
v 0.278916 0.058056 -0.031275
v 0.347306 0.071856 0.043487
v 0.347306 0.071856 -0.009652
v 0.381629 0.08703 0.016917
v 0.26575 0.052408 0.011138
v 0.193758 0.081539 0.008932
v 0.20232 0.059204 0.008932
v 0.274312 0.030073 0.011138
vn 0.4757 -0.3547 0.8049
vn 0.6779 0.3556 0.6434
vn 0.8308 0.5521 -0.0703
vn 0.7816 0.0383 -0.6226
vn 0.5794 -0.672 -0.4611
vn 0.4265 -0.8685 0.2526
vn -0.3914 -0.206 0.8969
vn -0.1295 0.7144 0.6876
vn 0.0687 0.969 -0.2372
vn 0.0049 0.3032 -0.9529
vn -0.257 -0.6172 -0.7437
vn -0.257 -0.6171 -0.7437
vn -0.4552 -0.8717 0.1812
vn 0.8576 -0.3077 0.4121
vn 0.9367 -0.03 0.349
vn 0.9965 0.0468 0.0699
vn 0.9772 -0.1541 -0.1461
vn 0.8982 -0.4318 -0.0829
vn 0.8384 -0.5086 0.1962
vn -0.1391 0.327 -0.9347
vn -0.139 0.327 -0.9347
vn -0.3903 -0.5557 -0.7341
vn -0.5804 -0.7999 0.1529
vn -0.5192 -0.1613 0.8393
vn -0.2679 0.7214 0.6386
vn -0.0779 0.9655 -0.2484
vn -0.9603 0.2417 -0.1392
vn 0.2707 -0.106 0.9568
vn 0.5524 0.524 0.6483
vn 0.8646 0.5009 -0.0398
vn 0.895 -0.1522 -0.4193
vn 0.6132 -0.7821 -0.1108
vn 0.301 -0.759 0.5773
vn -0.5837 0.0696 0.809
vn -0.2185 0.8859 0.4092
vn 0.186 0.856 -0.4824
vn 0.2254 0.0098 -0.9742
vn -0.1398 -0.8065 -0.5744
vn -0.5443 -0.7766 0.3172
vn 0.7284 -0.1793 0.6612
vn 0.8386 0.067 0.5406
vn 0.9607 0.058 0.2715
vn 0.9726 -0.1974 0.1231
vn 0.8624 -0.4437 0.2438
vn 0.7403 -0.4347 0.5128
vn 0.0828 0.0389 -0.9958
vn -0.2673 -0.744 -0.6124
vn -0.2674 -0.744 -0.6124
vn -0.6553 -0.7153 0.2427
vn -0.6931 0.0963 0.7144
vn -0.3429 0.8791 0.331
vn 0.0451 0.8504 -0.5241
vn -0.8903 0.1972 -0.4105
vn -0.7285 -0.2913 -0.6201
vn -0.8345 0.4125 -0.3653
vn -0.7363 0.5678 0.3679
vn -0.5321 0.0194 0.8464
vn -0.4261 -0.6843 0.5917
vn -0.5243 -0.8397 -0.1415
vn -0.5243 -0.8397 -0.1416
vn 0.0666 -0.1595 -0.9849
vn -0.0708 0.7524 -0.6549
vn 0.0564 0.9537 0.2953
vn 0.3209 0.2431 0.9154
vn 0.321 0.2431 0.9154
vn 0.4583 -0.6689 0.5853
vn 0.3312 -0.8702 -0.3649
vn -0.9582 -0.2591 -0.1216
vn -0.9996 0.0161 -0.0219
vn -0.9612 0.0768 0.2648
vn -0.8814 -0.1376 0.4519
vn -0.8399 -0.4128 0.3523
vn -0.8783 -0.4735 0.0656
vn 0.452 0.2642 0.852
vn 0.5837 -0.6104 0.5354
vn 0.4617 -0.8035 -0.3758
vn 0.208 -0.1219 -0.9705
vn 0.0762 0.7527 -0.6539
vn 0.1982 0.9458 0.2573
vn 0.9628 0.2076 -0.1729
vn -0.6029 -0.6903 -0.4
vn -0.7919 0.0107 -0.6106
vn -0.8193 0.565 -0.0974
vn -0.8193 0.5651 -0.0974
vn -0.6577 0.4184 0.6264
vn -0.4687 -0.2825 0.8369
vn -0.4687 -0.2826 0.8369
vn -0.4413 -0.8369 0.3238
vn 0.2293 -0.6766 -0.6998
vn -0.0156 0.2318 -0.9726
vn -0.0511 0.9501 -0.3077
vn -0.0511 0.9501 -0.3076
vn 0.1582 0.7601 0.6302
vn 0.4031 -0.1482 0.9031
vn 0.4386 -0.8666 0.2381
vn -0.9091 -0.4151 -0.0355
vn -0.983 -0.141 -0.1178
vn -0.9937 0.0757 0.0828
vn -0.9305 0.0184 0.3658
vn -0.8566 -0.2557 0.4482
vn -0.8459 -0.4725 0.2475
vn 0.2959 0.7601 0.5785
vn 0.5308 -0.1111 0.8402
vn 0.5648 -0.8 0.2024
vn 0.364 -0.6178 -0.697
vn 0.1292 0.2534 -0.9587
vn 0.0951 0.9423 -0.3209
vn -0.8725 -0.0058 -0.4886
vn -0.9462 0.2323 0.2251
vn -0.6026 -0.1409 0.7855
vn -0.1853 -0.7523 0.6323
vn -0.1116 -0.9904 -0.0814
vn -0.4552 -0.6172 -0.6418
vn -0.2827 0.6001 -0.7483
vn -0.3782 0.9087 0.1764
vn -0.3782 0.9087 0.1765
vn 0.067 0.4251 0.9026
vn 0.6078 -0.3671 0.7041
vn 0.7034 -0.6757 -0.2206
vn 0.2581 -0.1921 -0.9468
vn -0.9062 -0.4072 -0.1143
vn -0.935 -0.3141 0.1648
vn -0.8006 -0.46 0.3839
vn -0.6375 -0.6991 0.324
vn -0.6086 -0.7922 0.045
vn -0.743 -0.6462 -0.1742
vn 0.7039 -0.2654 0.6588
vn 0.7955 -0.5614 -0.228
vn 0.3685 -0.0975 -0.9245
vn -0.1501 0.6623 -0.7341
vn -0.2418 0.9582 0.1528
vn 0.1853 0.4944 0.8493
vn 0.8079 0.579 -0.1098
vn -0.9789 0.1161 0.1679
vn -0.6125 -0.1377 0.7784
vn -0.1065 -0.6952 0.7109
vn 0.0331 -0.9989 0.0329
vn -0.3334 -0.7451 -0.5776
vn -0.8394 -0.1876 -0.5101
vn -0.5103 0.8581 0.0566
vn -0.0355 0.5293 0.8477
vn 0.6202 -0.1932 0.7603
vn 0.8011 -0.5867 -0.1183
vn 0.3262 -0.2579 -0.9094
vn -0.3295 0.4645 -0.822
vn -0.888 -0.4261 0.1729
vn -0.7447 -0.5254 0.4116
vn -0.5468 -0.7434 0.3852
vn -0.4923 -0.8621 0.1201
vn -0.6356 -0.7629 -0.1186
vn -0.8334 -0.5449 -0.0922
vn 0.8764 -0.4618 -0.1364
vn 0.421 -0.1464 -0.8952
vn -0.2078 0.5465 -0.8113
vn -0.3813 0.9239 0.0313
vn 0.0741 0.6085 0.7901
vn 0.703 -0.0843 0.7062
vn 0.7224 0.6742 -0.1533
vn 0.2748 0.4625 0.843
vn 0.4756 0.8502 0.2259
vn 0.7933 0.4917 -0.3589
vn 0.9103 -0.2544 -0.3266
vn 0.7095 -0.6421 0.2905
vn 0.3917 -0.2836 0.8753
vn -0.5939 0.4325 0.6784
vn -0.3337 0.9349 -0.1212
vn 0.0781 0.4704 -0.879
vn 0.2296 -0.4965 -0.8371
vn -0.0306 -0.9988 -0.0375
vn -0.4423 -0.5344 0.7203
vn 0.7404 0.292 0.6054
vn 0.8189 0.4436 0.3641
vn 0.9432 0.3034 0.1355
vn 0.9889 0.0117 0.1481
vn 0.9104 -0.1399 0.3894
vn 0.7861 0.0002 0.618
vn 0.0847 -0.4999 -0.8619
vn -0.1649 -0.9817 -0.095
vn -0.5597 -0.5363 0.6317
vn -0.7051 0.391 0.5916
vn -0.4555 0.8728 -0.1753
vn -0.0606 0.4273 -0.9021
vn -0.9051 -0.1589 -0.3944
vn 0.1955 0.9807 -0.0097
vn 0.6967 0.5854 -0.4146
vn 0.9895 -0.0529 -0.1347
vn 0.781 -0.2959 0.55
vn 0.2797 0.0993 0.9549
vn -0.013 0.7376 0.6751
vn -0.5294 0.7219 -0.4457
vn 0.1201 0.2097 -0.9704
vn 0.4994 -0.6174 -0.6077
vn 0.2293 -0.9323 0.2796
vn -0.4203 -0.4202 0.8043
vn -0.7996 0.4069 0.4416
vn 0.598 0.7492 0.2848
vn 0.794 0.5946 0.1265
vn 0.9084 0.3451 0.2359
vn 0.8269 0.25 0.5037
vn 0.6309 0.4046 0.662
vn 0.5165 0.6542 0.5526
vn 0.1082 -0.9725 0.2064
vn -0.5147 -0.4813 0.7096
vn -0.8785 0.312 0.3618
vn -0.6194 0.614 -0.4892
vn 0.0035 0.1228 -0.9924
vn 0.3673 -0.6705 -0.6446
vn 0.3673 -0.6704 -0.6446
vn -0.7458 -0.523 -0.4127
vn 0.1086 0.7708 0.6278
vn 0.3228 0.9434 -0.0763
vn 0.3227 0.9434 -0.0763
vn 0.7527 0.4617 -0.4694
vn 0.9684 -0.1927 -0.1585
vn 0.7542 -0.3653 0.5456
vn 0.3243 0.1164 0.9388
vn -0.7226 0.5354 0.4373
vn -0.4451 0.7591 -0.4751
vn 0.112 0.1348 -0.9845
vn 0.3915 -0.7131 -0.5815
vn 0.114 -0.9368 0.3308
vn -0.4431 -0.3125 0.8403
vn 0.6177 0.6102 0.4961
vn 0.7014 0.6777 0.2208
vn 0.8695 0.4893 0.0671
vn 0.9539 0.2334 0.1887
vn 0.8701 0.1659 0.464
vn 0.702 0.3543 0.6177
vn 0.2524 -0.75 -0.6114
vn -0.0138 -0.9645 0.2636
vn -0.5481 -0.3658 0.7522
vn -0.8162 0.4474 0.3657
vn -0.55 0.6619 -0.5093
vn -0.0157 0.0632 -0.9979
vn -0.8225 -0.4415 -0.3585
vn -0.8225 -0.4415 -0.3584
vn -0.9881 0.1498 -0.0356
vn -0.7589 -0.0839 0.6458
vn -0.2695 -0.6572 0.7039
vn -0.0094 -0.9967 0.0806
vn -0.2386 -0.763 -0.6008
vn -0.7279 -0.1897 -0.6589
vn -0.4808 0.873 -0.0822
vn -0.1838 0.5701 0.8007
vn 0.4503 -0.1727 0.876
vn 0.7874 -0.6126 0.0684
vn 0.4904 -0.3098 -0.8146
vn -0.1437 0.433 -0.8899
vn -0.9191 -0.3938 0.0101
vn -0.8295 -0.4852 0.2766
vn -0.6382 -0.7093 0.2993
vn -0.5365 -0.8421 0.0556
vn -0.6261 -0.7507 -0.2109
vn -0.8174 -0.5266 -0.2336
vn 0.8692 -0.4907 0.0604
vn 0.5844 -0.2003 -0.7864
vn -0.0237 0.5121 -0.8586
vn -0.347 0.9341 -0.084
vn -0.0622 0.6436 0.7628
vn 0.5459 -0.0688 0.835
vn 0.7618 0.6468 -0.0344
vn -0.0403 -0.0418 0.9983
vn -0.0403 -0.0419 0.9983
vn 0.9376 -0.0142 0.3474
vn 0.9378 -0.0145 0.3468
vn 0.6193 0.0317 -0.7845
vn 0.6199 0.0321 -0.784
vn -0.554 0.0336 -0.8319
vn -0.5547 0.034 -0.8314
vn -0.9626 -0.0111 0.2706
vn -0.9627 -0.0113 0.2702
vn -0.0401 0.0539 0.9977
vn 0.9176 0.1911 0.3485
vn 0.617 0.1326 -0.7757
vn -0.5528 -0.046 -0.8321
vn -0.9594 -0.0948 0.2655
vn -0.0398 0.1139 0.9927
vn 0.8658 0.3697 0.3372
vn 0.6122 0.192 -0.7671
vn -0.5374 -0.2113 -0.8164
vn -0.9329 -0.2586 0.2508
vn -0.0393 0.181 0.9827
vn 0.7647 0.5658 0.3084
vn 0.6041 0.2581 -0.7539
vn -0.4869 -0.4462 -0.7509
vn -0.8451 -0.4891 0.2159
vn -0.0391 0.2044 0.9781
vn -0.1138 0.1703 0.9788
vn 0.7394 0.6024 0.3007
vn 0.6006 0.281 -0.7485
vn 0.5454 0.2493 -0.8003
vn -0.4668 -0.5085 -0.7235
vn -0.3803 -0.4872 -0.7861
vn -0.8102 -0.5497 0.2034
vn -0.7859 -0.5358 0.3086
vn -0.1098 0.1634 0.9804
vn -0.1065 0.1645 0.9806
vn 0.7675 0.5614 0.3093
vn 0.5497 0.2424 -0.7994
vn 0.5523 0.2435 -0.7973
vn -0.4621 -0.353 -0.8135
vn -0.4614 -0.3529 -0.814
vn -0.8697 -0.4019 0.2865
vn -0.8695 -0.4018 0.2874
vn -0.0493 0.0524 0.9974
vn -0.0325 0.0538 0.998
vn 0.8924 0.2925 0.3436
vn 0.6098 0.1314 -0.7816
vn 0.6229 0.1323 -0.771
vn -0.528 -0.2058 -0.8239
vn -0.5479 -0.206 -0.8108
vn -0.9307 -0.2541 0.263
vn -0.9373 -0.2527 0.2402
vn -0.0383 -0.0261 0.9989
vn 0.9376 0.0042 0.3476
vn 0.6215 0.053 -0.7817
vn -0.5551 0.0528 -0.8301
vn -0.9628 0.0039 0.2702
vn -0.0367 -0.0041 0.9993
vn 0.9374 -0.0462 0.3453
vn 0.6223 0.0749 -0.7792
vn -0.5435 0.1912 -0.8174
vn -0.9497 0.1425 0.2789
vn 0.0466 0.99 0.1329
vn 0.0466 0.99 0.133
vn 0.6013 0.7352 -0.3128
vn 0.9863 0.114 -0.1196
vn 0.8164 -0.2524 0.5194
vn 0.2617 0.0024 0.9652
vn -0.1233 0.6236 0.772
vn -0.6314 0.6916 -0.3506
vn 0.0874 0.3614 -0.9283
vn 0.5862 -0.4436 -0.6779
vn 0.3662 -0.9184 0.1501
vn -0.3527 -0.5882 0.7278
vn -0.8515 0.2168 0.4774
vn 0.4791 0.7811 0.4004
vn 0.6961 0.6815 0.2261
vn 0.8466 0.4385 0.3016
vn 0.7802 0.2953 0.5515
vn 0.5633 0.3949 0.7258
vn 0.4127 0.6378 0.6503
vn 0.2525 -0.9651 0.0694
vn -0.4369 -0.6484 0.6234
vn -0.9153 0.1236 0.3833
vn -0.7043 0.579 -0.4109
vn -0.0148 0.2623 -0.9649
vn 0.4636 -0.5097 -0.7248
vn -0.6591 -0.5634 -0.4982
vn 0.0563 0.9537 0.2953
vn -0.9582 -0.2591 -0.1215
vn 0.9876 -0.0275 0.1546
vn 0.8129 0.2421 -0.5297
vn 0.2906 -0.1059 -0.951
vn -0.0571 -0.7235 -0.688
vn 0.1176 -0.9931 -0.0037
vn 0.6399 -0.6451 0.4176
vn 0.5338 0.5664 0.6279
vn 0.3075 0.9157 -0.2588
vn -0.3694 0.4647 -0.8047
vn -0.8199 -0.3355 -0.4639
vn -0.5935 -0.6848 0.4228
vn 0.0833 -0.2339 0.9687
vn 0.8832 -0.4119 -0.2244
vn 0.8149 -0.3065 -0.492
vn 0.6106 -0.4425 -0.6567
vn 0.4747 -0.684 -0.5539
vn 0.543 -0.7894 -0.2863
vn 0.7472 -0.6533 -0.1216
vn -0.8927 -0.2359 -0.384
vn -0.6756 -0.5709 0.4664
vn -0.0265 -0.1385 0.99
vn 0.4056 0.629 0.6632
vn 0.1885 0.9641 -0.1872
vn -0.4606 0.5316 -0.7108
vn -0.7107 0.5736 0.4074
vn -0.309 -0.0 -0.9511
vn -1.0 -0.0 -0.0
vn -0.309 -0.0 0.9511
vn 0.809 -0.0 0.5878
vn 0.809 -0.0 -0.5878
vn -0.3075 0.0981 -0.9465
vn -0.9785 0.2064 -0.0
vn -0.3075 0.0981 0.9465
vn 0.8062 -0.0829 0.5858
vn 0.8062 -0.0829 -0.5858
vn -0.3051 0.1578 -0.9391
vn -0.9232 0.3843 -0.0
vn -0.3051 0.1578 0.9391
vn 0.7839 -0.2473 0.5695
vn 0.7839 -0.2473 -0.5695
vn -0.3011 0.2244 -0.9268
vn -0.8154 0.5789 -0.0
vn -0.3011 0.2244 0.9268
vn 0.7101 -0.4791 0.5159
vn 0.7101 -0.4791 -0.5159
vn -0.2994 0.2476 -0.9215
vn -0.2301 0.2135 -0.9495
vn -0.7884 0.6152 -0.0
vn -0.2994 0.2476 0.9215
vn -0.2301 0.2135 0.9495
vn 0.6809 -0.5401 0.4947
vn 0.6218 -0.5216 0.5842
vn 0.6809 -0.5401 -0.4947
vn 0.6218 -0.5216 -0.5842
vn -0.2345 0.2067 -0.9499
vn -0.2377 0.2079 -0.9488
vn -0.8184 0.5746 -0.0
vn -0.2345 0.2067 0.9499
vn -0.2377 0.2079 0.9488
vn 0.7101 -0.3888 0.5871
vn 0.7095 -0.3887 0.5878
vn 0.7101 -0.3888 -0.5871
vn 0.7095 -0.3887 -0.5878
vn -0.2988 0.0966 -0.9494
vn -0.3148 0.098 -0.9441
vn -0.9516 0.3075 -0.0
vn -0.2988 0.0966 0.9494
vn -0.3148 0.098 0.9441
vn 0.7777 -0.2422 0.5801
vn 0.7918 -0.2418 0.5609
vn 0.7777 -0.2422 -0.5801
vn 0.7918 -0.2418 -0.5609
vn -0.3109 0.0182 -0.9503
vn -0.9998 0.0196 -0.0
vn -0.3109 0.0182 0.9503
vn 0.8093 0.0159 0.5872
vn 0.8093 0.0159 -0.5872
vn -0.3122 0.0403 -0.9492
vn -0.9995 -0.0308 -0.0
vn -0.3122 0.0403 0.9492
vn 0.7961 0.1548 0.5851
vn 0.7961 0.1548 -0.5851
vn -0.3077 0.7979 -0.5184
vn -0.2617 0.9391 0.2228
vn -0.5359 0.4404 0.7203
vn -0.8562 -0.1995 0.4766
vn -0.9022 -0.3407 -0.2646
vn -0.9022 -0.3408 -0.2646
vn -0.6279 0.1579 -0.7621
vn 0.5343 0.5543 -0.6383
vn 0.5938 0.7373 0.3222
vn 0.2385 0.091 0.9669
vn -0.1765 -0.7382 0.6511
vn -0.2361 -0.9212 -0.3093
vn 0.1193 -0.275 -0.954
vn -0.7419 0.6316 -0.225
vn -0.724 0.6868 0.0648
vn -0.8312 0.4918 0.2593
vn -0.9564 0.2416 0.164
vn -0.9744 0.1864 -0.1258
vn -0.8672 0.3814 -0.3203
vn -0.0362 -0.7764 0.6292
vn -0.0933 -0.9519 -0.2919
vn 0.2475 -0.3321 -0.9102
vn 0.6455 0.4631 -0.6073
vn 0.7026 0.6386 0.3138
vn 0.3618 0.0189 0.9321
vn 0.8889 -0.457 0.0319
vn 0.9413 0.1481 -0.3034
vn 0.4864 -0.0552 -0.872
vn -0.0014 -0.6253 -0.7804
vn -0.0345 -0.9921 -0.1203
vn 0.4204 -0.7889 0.4483
vn 0.9082 -0.2188 0.3567
vn 0.4928 0.8685 -0.0536
vn -0.0966 0.6051 -0.7903
vn -0.7288 -0.1337 -0.6716
vn -0.7716 -0.609 0.1838
vn -0.1822 -0.3456 0.9205
vn 0.45 0.3931 0.8018
vn 0.8524 -0.393 -0.3449
vn 0.6746 -0.4724 -0.5672
vn 0.4838 -0.6954 -0.5314
vn 0.4709 -0.8388 -0.2733
vn 0.6487 -0.7593 -0.051
vn 0.8395 -0.5364 -0.0868
vn -0.8437 -0.4876 0.2247
vn -0.2784 -0.2349 0.9313
vn 0.3279 0.4736 0.8175
vn 0.3279 0.4735 0.8175
vn 0.369 0.9294 -0.0029
vn -0.1963 0.6768 -0.7095
vn -0.8026 -0.0317 -0.5957
vn -0.6926 0.6447 0.3236
vn 0.6935 -0.7074 0.1368
vn 0.9545 -0.0164 0.2976
vn 0.8108 0.5602 -0.1697
vn 0.8108 0.5602 -0.1696
vn 0.406 0.4458 -0.7977
vn 0.145 -0.2451 -0.9586
vn 0.145 -0.2452 -0.9586
vn 0.2887 -0.8217 -0.4913
vn 0.0173 -0.7069 0.7071
vn 0.3555 0.1884 0.9155
vn 0.1693 0.9355 0.31
vn -0.3552 0.7873 -0.5039
vn -0.6935 -0.108 -0.7123
vn -0.5073 -0.8551 -0.1068
vn 0.8585 -0.4163 -0.2996
vn 0.9605 -0.1461 -0.2367
vn 0.9043 0.0793 -0.4194
vn 0.7461 0.0346 -0.665
vn 0.644 -0.2356 -0.7279
vn 0.7002 -0.461 -0.5452
vn -0.4664 0.785 -0.4077
vn -0.7909 -0.0737 -0.6076
vn -0.6122 -0.7902 -0.0269
vn -0.1092 -0.6481 0.7537
vn 0.2152 0.2106 0.9536
vn 0.0366 0.9271 0.3729
vn 0.0366 0.9272 0.3729
vn -0.8398 0.1998 0.5048
vn 0.8937 -0.3185 0.3159
vn 0.8937 -0.3185 0.316
vn 0.9157 0.3959 0.0698
vn 0.5717 0.5836 -0.5767
vn 0.2058 0.057 -0.9769
vn 0.1839 -0.6574 -0.7307
vn 0.5278 -0.8452 -0.0843
vn 0.2767 -0.2031 0.9393
vn 0.3051 0.7226 0.6202
vn -0.1406 0.9659 -0.2174
vn -0.6147 0.2835 -0.7361
vn -0.6431 -0.6422 -0.4171
vn -0.1974 -0.8855 0.4206
vn 0.9367 -0.2643 -0.2295
vn 0.9453 0.0151 -0.3258
vn 0.8108 0.0885 -0.5785
vn 0.6678 -0.1174 -0.735
vn 0.6592 -0.3968 -0.6388
vn 0.7937 -0.4702 -0.386
vn -0.7153 0.3018 -0.6304
vn -0.7425 -0.586 -0.3244
vn -0.3151 -0.8193 0.479
vn 0.1396 -0.1648 0.9764
vn 0.1669 0.723 0.6704
vn -0.2605 0.9563 -0.1329
vn 0.8616 0.1234 -0.4923
vn 0.3023 -0.103 -0.9476
vn -0.1574 -0.663 -0.7319
vn -0.0578 -0.9965 -0.0609
vn 0.5015 -0.77 0.3945
vn 0.9612 -0.2101 0.1788
vn 0.4722 0.8598 -0.1945
vn -0.2526 0.5663 -0.7845
vn -0.8483 -0.1593 -0.505
vn -0.7193 -0.5914 0.3645
vn 0.0055 -0.298 0.9546
vn 0.6012 0.4276 0.6751
vn 0.7663 -0.418 -0.4879
vn 0.5476 -0.5066 -0.666
vn 0.3678 -0.7255 -0.5816
vn 0.4067 -0.8559 -0.3193
vn 0.6254 -0.7674 -0.1412
vn 0.8052 -0.5484 -0.2256
vn -0.7817 -0.4674 0.4129
vn -0.0867 -0.1859 0.9787
vn 0.4847 0.51 0.7107
vn 0.3609 0.9244 -0.1233
vn -0.3341 0.643 -0.6892
vn -0.9055 -0.0529 -0.4211
vn -0.6139 0.6668 0.4225
vn -0.5429 0.4994 -0.6751
vn -0.5113 0.8594 -0.0112
vn -0.612 0.4753 0.6321
vn -0.7443 -0.2686 0.6114
vn -0.776 -0.6286 -0.0526
vn -0.6753 -0.2445 -0.6959
vn -0.6753 -0.2445 -0.6958
vn 0.3283 0.4622 -0.8238
vn 0.3694 0.9286 0.0366
vn 0.2389 0.4309 0.8702
vn 0.0674 -0.5331 0.8434
vn 0.0263 -0.9995 -0.017
vn 0.1568 -0.5019 -0.8506
vn -0.8998 0.3186 -0.298
vn -0.8875 0.4593 -0.0384
vn -0.9268 0.3091 0.2131
vn -0.9786 0.0182 0.205
vn -0.991 -0.1225 -0.0546
vn -0.9516 0.0277 -0.3061
vn 0.2118 -0.5377 0.8161
vn 0.1724 -0.985 -0.009
vn 0.2976 -0.5077 -0.8085
vn 0.4621 0.4168 -0.7828
vn 0.5014 0.8642 0.0424
vn 0.3763 0.3869 0.8419
vn 0.9831 -0.1763 0.0487
vn -0.5873 -0.0634 -0.8069
vn -0.7348 0.5522 -0.3938
vn -0.7893 0.4986 0.3582
vn -0.6963 -0.1706 0.6972
vn -0.5487 -0.7863 0.2841
vn -0.4942 -0.7327 -0.4679
vn 0.2679 0.1054 -0.9577
vn 0.0767 0.9032 -0.4224
vn 0.0061 0.8337 0.5521
vn 0.1267 -0.0335 0.9914
vn 0.3179 -0.8312 0.4561
vn 0.3885 -0.7618 -0.5184
vn -0.9152 -0.1498 -0.3741
vn -0.9729 0.0909 -0.2126
vn -0.9942 0.0699 0.0815
vn -0.9578 -0.1917 0.214
vn -0.9001 -0.4325 0.0525
vn -0.8788 -0.4115 -0.2416
vn 0.2682 -0.0053 0.9633
vn 0.4516 -0.7704 0.45
vn 0.5194 -0.7038 -0.4847
vn 0.4037 0.1279 -0.9059
vn 0.2203 0.893 -0.3925
vn 0.2203 0.893 -0.3926
vn 0.1526 0.8264 0.5421
vn 0.9803 0.1788 0.0838
vn -0.0745 0.995 -0.0672
vn -0.4441 0.7206 0.5324
vn -0.8817 0.1086 0.4592
vn -0.9497 -0.2291 -0.2137
vn -0.5801 0.0452 -0.8133
vn -0.1425 0.6572 -0.7401
vn 0.7244 0.6754 0.1381
vn 0.2455 0.3199 0.9151
vn -0.3215 -0.4732 0.8202
vn -0.4096 -0.9108 -0.0517
vn 0.0693 -0.5553 -0.8287
vn 0.6363 0.2378 -0.7339
vn -0.5762 0.7981 -0.1763
vn -0.7207 0.6908 0.0582
vn -0.8918 0.4515 0.0295
vn -0.9184 0.3194 -0.2336
vn -0.7738 0.4267 -0.4681
vn -0.6028 0.666 -0.4394
vn -0.2757 -0.9611 -0.0175
vn 0.1836 -0.6202 -0.7627
vn 0.7274 0.1405 -0.6717
vn 0.8119 0.5602 0.1645
vn 0.3526 0.2192 0.9097
vn -0.1912 -0.5414 0.8187
vn 0.7822 -0.5849 0.2145
vn 0.9367 -0.2642 -0.2295
vn -0.7152 0.3018 -0.6304
vn -0.1649 0.9793 0.1177
vn -0.5006 0.5664 0.6546
vn -0.882 -0.0588 0.4675
vn -0.9277 -0.2712 -0.2565
vn -0.592 0.1416 -0.7934
vn -0.2105 0.7669 -0.6063
vn 0.6622 0.7014 0.2638
vn 0.2271 0.1664 0.9595
vn -0.2671 -0.6438 0.7171
vn -0.3263 -0.919 -0.2211
vn 0.1087 -0.3841 -0.9169
vn 0.603 0.4261 -0.6744
vn -0.648 0.7611 -0.0281
vn -0.7793 0.5997 0.1818
vn -0.9285 0.3552 0.1087
vn -0.9463 0.2721 -0.1744
vn -0.815 0.4336 -0.3844
vn -0.6659 0.678 -0.3112
vn -0.188 -0.9624 -0.1962
vn 0.2292 -0.4493 -0.8635
vn 0.7032 0.3277 -0.6309
vn 0.76 0.5917 0.2689
vn 0.3427 0.0786 0.9361
vn -0.1313 -0.6984 0.7036
vn 0.8345 -0.5408 0.106
vn -0.7307 -0.3186 -0.6037
vn -0.8534 0.3838 -0.3527
vn -0.7463 0.5484 0.3772
vn -0.5165 0.0106 0.8562
vn -0.3938 -0.6918 0.6052
vn -0.501 -0.8564 -0.1248
vn 0.0529 -0.166 -0.9847
vn -0.1061 0.7442 -0.6595
vn 0.0328 0.9575 0.2864
vn 0.0327 0.9575 0.2864
vn 0.3305 0.2607 0.9071
vn 0.4895 -0.6495 0.5818
vn 0.4895 -0.6495 0.5819
vn 0.3506 -0.8628 -0.3641
vn 0.3507 -0.8628 -0.3641
vn -0.9519 -0.2891 -0.1012
vn -0.9999 -0.0145 -0.0031
vn -0.958 0.0499 0.2824
vn -0.8682 -0.1604 0.4697
vn -0.8202 -0.435 0.3715
vn -0.8621 -0.4994 0.0861
vn 0.4596 0.2852 0.8411
vn 0.612 -0.5877 0.5292
vn 0.4789 -0.7923 -0.378
vn 0.1934 -0.124 -0.9733
vn 0.0409 0.749 -0.6613
vn 0.174 0.9536 0.2458
vn 0.9526 0.2353 -0.1928
vn 0.9526 0.2353 -0.1929
vn -0.2384 -0.5005 -0.8323
vn 0.2235 -0.5844 0.7801
vn -0.7392 -0.6138 -0.2771
vn -0.7408 -0.6114 -0.2784
vn 0.7442 0.6679 0.0077
vn 0.7374 0.6754 0.002
vn -0.7507 -0.603 -0.2698
vn -0.7235 -0.6543 -0.2202
vn 0.7542 0.6565 -0.0155
vn 0.639 0.7512 -0.1655
vn 0.1537 -0.8448 -0.5126
vn -0.257 0.9024 0.3459
vn -0.095 -0.9484 -0.3024
vn 0.0033 0.8379 0.5458
vn -0.3267 0.9316 -0.1591
vn 0.6551 0.6392 -0.4029
vn 0.6379 0.7511 -0.1703
vn 0.5976 0.6935 -0.4024
vn 0.5995 0.6822 -0.4187
vn -0.396 -0.6634 0.6349
vn -0.4013 -0.6047 0.688
vn -0.4948 -0.5482 0.6742
vn -0.5031 -0.6077 0.6145
vn 0.2582 -0.8509 0.4576
vn -0.0067 0.6704 -0.742
vn -0.0993 -0.8946 0.4357
vn -0.0544 -0.6629 -0.7467
vn -0.0439 -0.6409 -0.7664
vn 0.2856 0.6297 0.7224
vn 0.3206 0.6865 0.6527
vn 0.0318 -0.7072 -0.7063
vn 0.0668 -0.6005 -0.7969
vn 0.2383 0.7678 0.5948
vn 0.2272 0.7447 0.6275
vn 0.4084 -0.7891 -0.4589
vn -0.1922 0.9328 0.3048
vn -0.6133 -0.7809 -0.1184
vn 0.355 0.9302 0.0931
vn 0.4043 0.9134 0.0475
vn 0.4388 0.7673 0.4677
vn 0.4796 0.7435 0.466
vn 0.5284 0.6501 0.5461
vn 0.4552 0.691 0.5614
vn -0.6417 -0.7023 -0.3081
vn -0.7097 -0.6423 -0.2895
vn -0.6929 -0.6844 -0.2269
vn -0.7913 -0.5725 -0.2149
vn -0.7173 -0.6959 0.036
vn -0.3826 0.8706 0.3095
vn 0.5582 -0.713 -0.4244
vn 0.5174 -0.8372 -0.1771
vn 0.4947 -0.8508 -0.1773
vn -0.4199 0.8219 0.3849
vn -0.2663 0.8828 0.3869
vn 0.3469 -0.9318 0.1066
vn 0.3795 -0.8882 0.2589
vn -0.0758 0.997 -0.0146
vn -0.1069 0.9943 -0.0065
vn 0.544 -0.837 -0.059
vn -0.1953 0.9571 0.2139
vn 0.391 -0.8246 -0.409
vn -0.5079 0.8582 0.0743
vn -0.1426 0.9562 0.2555
vn 0.0476 0.9954 0.0826
vn 0.0522 0.9916 0.1181
vn -0.2199 0.8201 0.5283
vn -0.2956 0.8827 0.3654
vn -0.0505 -0.8164 -0.5753
vn -0.041 -0.8304 -0.5556
vn -0.4118 -0.8361 -0.3624
vn -0.2535 -0.8979 -0.36
vn -0.1588 -0.79 -0.5922
vn 0.0959 0.7983 0.5946
vn 0.2709 -0.8148 -0.5126
vn -0.5701 -0.3013 -0.7643
vn 0.9343 -0.2697 0.233
vn -0.6123 -0.7653 -0.1985
vn -0.2115 -0.9141 -0.346
vn 0.4683 0.8815 0.0598
vn -0.0212 0.9798 0.199
vn -0.0841 -0.8298 -0.5516
vn -0.139 -0.7423 -0.6555
vn -0.1559 0.8353 0.5272
vn -0.0976 0.8529 0.5128
vn -0.4418 -0.8918 -0.0969
vn 0.0713 0.9975 -0.0006
vn -0.0789 -0.9459 0.3148
vn 0.2213 0.9751 0.0161
vn -0.0227 0.9978 -0.063
vn -0.4109 0.8385 0.3579
vn -0.4297 0.8545 0.2918
vn -0.3326 0.8461 -0.4165
vn -0.1695 0.9796 0.1084
vn 0.5286 -0.7014 0.4782
vn 0.4554 -0.8877 0.0679
vn 0.6869 -0.722 -0.0838
vn 0.5665 -0.817 -0.1082
vn 0.3249 -0.8551 0.404
vn -0.0682 0.9808 -0.1827
vn -0.2464 -0.9481 0.2012
vn -0.3209 -0.4092 0.8542
vn -0.2763 -0.3523 -0.8942
vn 0.2918 -0.7268 0.6218
vn -0.1276 -0.9623 0.24
vn -0.354 0.8322 -0.4268
vn 0.1499 0.9862 0.0709
vn -0.3525 -0.8398 0.4129
vn 0.3743 0.9124 -0.1657
vn 0.2056 -0.7979 0.5667
vn -0.1223 0.9561 -0.2664
vn 0.4706 -0.8757 -0.1078
vn -0.2727 0.9438 -0.1868
vn -0.2164 0.9743 0.0626
vn 0.3651 0.9153 0.1703
vn 0.3167 0.9224 0.2211
vn -0.3267 0.794 0.5126
vn 0.0064 0.9952 0.0974
vn 0.2492 -0.6609 -0.7079
vn -0.0233 -0.9014 -0.4323
vn -0.2993 -0.7812 -0.5479
vn -0.2406 -0.8684 -0.4336
vn 0.32 -0.8064 -0.4973
vn -0.2899 0.9429 0.164
vn 0.4627 -0.8815 0.0944
usemtl Elf_bush_Map
f 1//1 2//1 7//1
f 7//1 2//1 8//1
f 2//2 3//2 8//2
f 8//2 3//2 9//2
f 3//3 4//3 9//3
f 9//3 4//3 10//3
f 4//4 5//4 10//4
f 10//4 5//4 11//4
f 5//5 6//5 11//5
f 11//5 6//5 12//5
f 6//6 1//6 12//6
f 12//6 1//6 7//6
f 7//7 8//7 13//7
f 13//7 8//7 14//7
f 8//8 9//8 14//8
f 14//8 9//8 15//8
f 9//9 10//9 15//9
f 15//9 10//9 16//9
f 10//10 11//10 16//10
f 16//10 11//10 17//10
f 11//11 12//11 17//11
f 17//12 12//12 18//12
f 12//13 7//13 18//13
f 18//13 7//13 13//13
f 2//14 1//14 19//14
f 3//15 2//15 19//15
f 4//16 3//16 19//16
f 5//17 4//17 19//17
f 6//18 5//18 19//18
f 1//19 6//19 19//19
f 13//20 14//20 20//20
f 20//21 14//21 21//21
f 14//22 15//22 21//22
f 21//22 15//22 22//22
f 15//23 16//23 22//23
f 22//23 16//23 23//23
f 16//24 17//24 23//24
f 23//24 17//24 24//24
f 17//25 18//25 24//25
f 24//25 18//25 25//25
f 18//26 13//26 25//26
f 25//26 13//26 20//26
f 22//27 23//27 21//27
f 23//27 24//27 21//27
f 24//27 25//27 21//27
f 25//27 20//27 21//27
f 26//28 27//28 32//28
f 32//28 27//28 33//28
f 27//29 28//29 33//29
f 33//29 28//29 34//29
f 28//30 29//30 34//30
f 34//30 29//30 35//30
f 29//31 30//31 35//31
f 35//31 30//31 36//31
f 30//32 31//32 36//32
f 36//32 31//32 37//32
f 31//33 26//33 37//33
f 37//33 26//33 32//33
f 32//34 33//34 38//34
f 38//34 33//34 39//34
f 33//35 34//35 39//35
f 39//35 34//35 40//35
f 34//36 35//36 40//36
f 40//36 35//36 41//36
f 35//37 36//37 41//37
f 41//37 36//37 42//37
f 36//38 37//38 42//38
f 42//38 37//38 43//38
f 37//39 32//39 43//39
f 43//39 32//39 38//39
f 27//40 26//40 44//40
f 28//41 27//41 44//41
f 29//42 28//42 44//42
f 30//43 29//43 44//43
f 31//44 30//44 44//44
f 26//45 31//45 44//45
f 38//46 39//46 45//46
f 45//46 39//46 46//46
f 39//47 40//47 46//47
f 46//48 40//48 47//48
f 40//49 41//49 47//49
f 47//49 41//49 48//49
f 41//50 42//50 48//50
f 48//50 42//50 49//50
f 42//51 43//51 49//51
f 49//51 43//51 50//51
f 43//52 38//52 50//52
f 50//52 38//52 45//52
f 47//53 48//53 46//53
f 48//53 49//53 46//53
f 49//53 50//53 46//53
f 50//53 45//53 46//53
f 51//54 52//54 57//54
f 57//54 52//54 58//54
f 52//55 53//55 58//55
f 58//55 53//55 59//55
f 53//56 54//56 59//56
f 59//56 54//56 60//56
f 54//57 55//57 60//57
f 60//57 55//57 61//57
f 55//58 56//58 61//58
f 61//58 56//58 62//58
f 56//59 51//59 62//59
f 62//60 51//60 57//60
f 57//61 58//61 63//61
f 63//61 58//61 64//61
f 58//62 59//62 64//62
f 64//62 59//62 65//62
f 59//63 60//63 65//63
f 65//63 60//63 66//63
f 60//64 61//64 66//64
f 66//65 61//65 67//65
f 61//66 62//66 67//66
f 67//66 62//66 68//66
f 62//67 57//67 68//67
f 68//67 57//67 63//67
f 52//68 51//68 69//68
f 53//69 52//69 69//69
f 54//70 53//70 69//70
f 55//71 54//71 69//71
f 56//72 55//72 69//72
f 51//73 56//73 69//73
f 63//74 64//74 70//74
f 70//74 64//74 71//74
f 64//75 65//75 71//75
f 71//75 65//75 72//75
f 65//76 66//76 72//76
f 72//76 66//76 73//76
f 66//77 67//77 73//77
f 73//77 67//77 74//77
f 67//78 68//78 74//78
f 74//78 68//78 75//78
f 68//79 63//79 75//79
f 75//79 63//79 70//79
f 72//80 73//80 71//80
f 73//80 74//80 71//80
f 74//80 75//80 71//80
f 75//80 70//80 71//80
f 76//81 77//81 82//81
f 82//81 77//81 83//81
f 77//82 78//82 83//82
f 83//82 78//82 84//82
f 78//83 79//83 84//83
f 84//84 79//84 85//84
f 79//85 80//85 85//85
f 85//85 80//85 86//85
f 80//86 81//86 86//86
f 86//87 81//87 87//87
f 81//88 76//88 87//88
f 87//88 76//88 82//88
f 82//89 83//89 88//89
f 88//89 83//89 89//89
f 83//90 84//90 89//90
f 89//90 84//90 90//90
f 84//91 85//91 90//91
f 90//92 85//92 91//92
f 85//93 86//93 91//93
f 91//93 86//93 92//93
f 86//94 87//94 92//94
f 92//94 87//94 93//94
f 87//95 82//95 93//95
f 93//95 82//95 88//95
f 77//96 76//96 94//96
f 78//97 77//97 94//97
f 79//98 78//98 94//98
f 80//99 79//99 94//99
f 81//100 80//100 94//100
f 76//101 81//101 94//101
f 88//102 89//102 95//102
f 95//102 89//102 96//102
f 89//103 90//103 96//103
f 96//103 90//103 97//103
f 90//104 91//104 97//104
f 97//104 91//104 98//104
f 91//105 92//105 98//105
f 98//105 92//105 99//105
f 92//106 93//106 99//106
f 99//106 93//106 100//106
f 93//107 88//107 100//107
f 100//107 88//107 95//107
f 97//80 98//80 96//80
f 98//80 99//80 96//80
f 99//80 100//80 96//80
f 100//80 95//80 96//80
f 101//108 102//108 107//108
f 107//108 102//108 108//108
f 102//109 103//109 108//109
f 108//109 103//109 109//109
f 103//110 104//110 109//110
f 109//110 104//110 110//110
f 104//111 105//111 110//111
f 110//111 105//111 111//111
f 105//112 106//112 111//112
f 111//112 106//112 112//112
f 106//113 101//113 112//113
f 112//113 101//113 107//113
f 107//114 108//114 113//114
f 113//114 108//114 114//114
f 108//115 109//115 114//115
f 114//116 109//116 115//116
f 109//117 110//117 115//117
f 115//117 110//117 116//117
f 110//118 111//118 116//118
f 116//118 111//118 117//118
f 111//119 112//119 117//119
f 117//119 112//119 118//119
f 112//120 107//120 118//120
f 118//120 107//120 113//120
f 102//121 101//121 119//121
f 103//122 102//122 119//122
f 104//123 103//123 119//123
f 105//124 104//124 119//124
f 106//125 105//125 119//125
f 101//126 106//126 119//126
f 113//127 114//127 120//127
f 120//127 114//127 121//127
f 114//128 115//128 121//128
f 121//128 115//128 122//128
f 115//129 116//129 122//129
f 122//129 116//129 123//129
f 116//130 117//130 123//130
f 123//130 117//130 124//130
f 117//131 118//131 124//131
f 124//131 118//131 125//131
f 118//132 113//132 125//132
f 125//132 113//132 120//132
f 122//133 123//133 121//133
f 123//133 124//133 121//133
f 124//133 125//133 121//133
f 125//133 120//133 121//133
f 126//134 127//134 132//134
f 132//134 127//134 133//134
f 127//135 128//135 133//135
f 133//135 128//135 134//135
f 128//136 129//136 134//136
f 134//136 129//136 135//136
f 129//137 130//137 135//137
f 135//137 130//137 136//137
f 130//138 131//138 136//138
f 136//138 131//138 137//138
f 131//139 126//139 137//139
f 137//139 126//139 132//139
f 132//140 133//140 138//140
f 138//140 133//140 139//140
f 133//141 134//141 139//141
f 139//141 134//141 140//141
f 134//142 135//142 140//142
f 140//142 135//142 141//142
f 135//143 136//143 141//143
f 141//143 136//143 142//143
f 136//144 137//144 142//144
f 142//144 137//144 143//144
f 137//145 132//145 143//145
f 143//145 132//145 138//145
f 127//146 126//146 144//146
f 128//147 127//147 144//147
f 129//148 128//148 144//148
f 130//149 129//149 144//149
f 131//150 130//150 144//150
f 126//151 131//151 144//151
f 138//152 139//152 145//152
f 145//152 139//152 146//152
f 139//153 140//153 146//153
f 146//153 140//153 147//153
f 140//154 141//154 147//154
f 147//154 141//154 148//154
f 141//155 142//155 148//155
f 148//155 142//155 149//155
f 142//156 143//156 149//156
f 149//156 143//156 150//156
f 143//157 138//157 150//157
f 150//157 138//157 145//157
f 147//158 148//158 146//158
f 148//158 149//158 146//158
f 149//158 150//158 146//158
f 150//158 145//158 146//158
f 151//159 152//159 157//159
f 157//159 152//159 158//159
f 152//160 153//160 158//160
f 158//160 153//160 159//160
f 153//161 154//161 159//161
f 159//161 154//161 160//161
f 154//162 155//162 160//162
f 160//162 155//162 161//162
f 155//163 156//163 161//163
f 161//163 156//163 162//163
f 156//164 151//164 162//164
f 162//164 151//164 157//164
f 157//165 158//165 163//165
f 163//165 158//165 164//165
f 158//166 159//166 164//166
f 164//166 159//166 165//166
f 159//167 160//167 165//167
f 165//167 160//167 166//167
f 160//168 161//168 166//168
f 166//168 161//168 167//168
f 161//169 162//169 167//169
f 167//169 162//169 168//169
f 162//170 157//170 168//170
f 168//170 157//170 163//170
f 152//171 151//171 169//171
f 153//172 152//172 169//172
f 154//173 153//173 169//173
f 155//174 154//174 169//174
f 156//175 155//175 169//175
f 151//176 156//176 169//176
f 163//177 164//177 170//177
f 170//177 164//177 171//177
f 164//178 165//178 171//178
f 171//178 165//178 172//178
f 165//179 166//179 172//179
f 172//179 166//179 173//179
f 166//180 167//180 173//180
f 173//180 167//180 174//180
f 167//181 168//181 174//181
f 174//181 168//181 175//181
f 168//182 163//182 175//182
f 175//182 163//182 170//182
f 172//183 173//183 171//183
f 173//183 174//183 171//183
f 174//183 175//183 171//183
f 175//183 170//183 171//183
f 176//184 177//184 182//184
f 182//184 177//184 183//184
f 177//185 178//185 183//185
f 183//185 178//185 184//185
f 178//186 179//186 184//186
f 184//186 179//186 185//186
f 179//187 180//187 185//187
f 185//187 180//187 186//187
f 180//188 181//188 186//188
f 186//188 181//188 187//188
f 181//189 176//189 187//189
f 187//189 176//189 182//189
f 182//190 183//190 188//190
f 188//190 183//190 189//190
f 183//191 184//191 189//191
f 189//191 184//191 190//191
f 184//192 185//192 190//192
f 190//192 185//192 191//192
f 185//193 186//193 191//193
f 191//193 186//193 192//193
f 186//194 187//194 192//194
f 192//194 187//194 193//194
f 187//195 182//195 193//195
f 193//195 182//195 188//195
f 177//196 176//196 194//196
f 178//197 177//197 194//197
f 179//198 178//198 194//198
f 180//199 179//199 194//199
f 181//200 180//200 194//200
f 176//201 181//201 194//201
f 188//202 189//202 195//202
f 195//202 189//202 196//202
f 189//203 190//203 196//203
f 196//203 190//203 197//203
f 190//204 191//204 197//204
f 197//204 191//204 198//204
f 191//205 192//205 198//205
f 198//205 192//205 199//205
f 192//206 193//206 199//206
f 199//206 193//206 200//206
f 193//207 188//207 200//207
f 200//208 188//208 195//208
f 197//209 198//209 196//209
f 198//209 199//209 196//209
f 199//209 200//209 196//209
f 200//209 195//209 196//209
f 201//210 202//210 207//210
f 207//210 202//210 208//210
f 202//211 203//211 208//211
f 208//212 203//212 209//212
f 203//213 204//213 209//213
f 209//213 204//213 210//213
f 204//214 205//214 210//214
f 210//214 205//214 211//214
f 205//215 206//215 211//215
f 211//215 206//215 212//215
f 206//216 201//216 212//216
f 212//216 201//216 207//216
f 207//217 208//217 213//217
f 213//217 208//217 214//217
f 208//218 209//218 214//218
f 214//218 209//218 215//218
f 209//219 210//219 215//219
f 215//219 210//219 216//219
f 210//220 211//220 216//220
f 216//220 211//220 217//220
f 211//221 212//221 217//221
f 217//221 212//221 218//221
f 212//222 207//222 218//222
f 218//222 207//222 213//222
f 202//223 201//223 219//223
f 203//224 202//224 219//224
f 204//225 203//225 219//225
f 205//226 204//226 219//226
f 206//227 205//227 219//227
f 201//228 206//228 219//228
f 213//229 214//229 220//229
f 220//229 214//229 221//229
f 214//230 215//230 221//230
f 221//230 215//230 222//230
f 215//231 216//231 222//231
f 222//231 216//231 223//231
f 216//232 217//232 223//232
f 223//232 217//232 224//232
f 217//233 218//233 224//233
f 224//233 218//233 225//233
f 218//234 213//234 225//234
f 225//234 213//234 220//234
f 222//235 223//235 221//235
f 223//236 224//236 221//236
f 224//236 225//236 221//236
f 225//236 220//236 221//236
f 226//237 227//237 232//237
f 232//237 227//237 233//237
f 227//238 228//238 233//238
f 233//238 228//238 234//238
f 228//239 229//239 234//239
f 234//239 229//239 235//239
f 229//240 230//240 235//240
f 235//240 230//240 236//240
f 230//241 231//241 236//241
f 236//241 231//241 237//241
f 231//242 226//242 237//242
f 237//242 226//242 232//242
f 232//243 233//243 238//243
f 238//243 233//243 239//243
f 233//244 234//244 239//244
f 239//244 234//244 240//244
f 234//245 235//245 240//245
f 240//245 235//245 241//245
f 235//246 236//246 241//246
f 241//246 236//246 242//246
f 236//247 237//247 242//247
f 242//247 237//247 243//247
f 237//248 232//248 243//248
f 243//248 232//248 238//248
f 227//249 226//249 244//249
f 228//250 227//250 244//250
f 229//251 228//251 244//251
f 230//252 229//252 244//252
f 231//253 230//253 244//253
f 226//254 231//254 244//254
f 238//255 239//255 245//255
f 245//255 239//255 246//255
f 239//256 240//256 246//256
f 246//256 240//256 247//256
f 240//257 241//257 247//257
f 247//257 241//257 248//257
f 241//258 242//258 248//258
f 248//258 242//258 249//258
f 242//259 243//259 249//259
f 249//259 243//259 250//259
f 243//260 238//260 250//260
f 250//260 238//260 245//260
f 247//261 248//261 246//261
f 248//261 249//261 246//261
f 249//261 250//261 246//261
f 250//261 245//261 246//261
f 251//262 252//262 256//262
f 256//263 252//263 257//263
f 253//264 258//264 252//264
f 252//265 258//265 257//265
f 254//266 259//266 253//266
f 253//267 259//267 258//267
f 254//268 255//268 259//268
f 259//269 255//269 260//269
f 255//270 251//270 260//270
f 260//271 251//271 256//271
f 257//272 262//272 256//272
f 256//272 262//272 261//272
f 257//273 258//273 262//273
f 262//273 258//273 263//273
f 258//274 259//274 263//274
f 263//274 259//274 264//274
f 259//275 260//275 264//275
f 264//275 260//275 265//275
f 256//276 261//276 260//276
f 260//276 261//276 265//276
f 262//277 267//277 261//277
f 261//277 267//277 266//277
f 262//278 263//278 267//278
f 267//278 263//278 268//278
f 263//279 264//279 268//279
f 268//279 264//279 269//279
f 264//280 265//280 269//280
f 269//280 265//280 270//280
f 261//281 266//281 265//281
f 265//281 266//281 270//281
f 267//282 272//282 266//282
f 266//282 272//282 271//282
f 267//283 268//283 272//283
f 272//283 268//283 273//283
f 268//284 269//284 273//284
f 273//284 269//284 274//284
f 269//285 270//285 274//285
f 274//285 270//285 275//285
f 266//286 271//286 270//286
f 270//286 271//286 275//286
f 272//287 277//287 271//287
f 271//288 277//288 276//288
f 272//289 273//289 277//289
f 277//289 273//289 278//289
f 273//290 274//290 278//290
f 278//291 274//291 279//291
f 274//292 275//292 279//292
f 279//293 275//293 280//293
f 271//294 276//294 275//294
f 275//295 276//295 280//295
f 277//296 282//296 276//296
f 276//297 282//297 281//297
f 277//298 278//298 282//298
f 282//298 278//298 283//298
f 278//299 279//299 283//299
f 283//300 279//300 284//300
f 279//301 280//301 284//301
f 284//302 280//302 285//302
f 276//303 281//303 280//303
f 280//304 281//304 285//304
f 282//305 287//305 281//305
f 281//306 287//306 286//306
f 282//307 283//307 287//307
f 287//307 283//307 288//307
f 283//308 284//308 288//308
f 288//309 284//309 289//309
f 284//310 285//310 289//310
f 289//311 285//311 290//311
f 281//312 286//312 285//312
f 285//313 286//313 290//313
f 287//314 292//314 286//314
f 286//314 292//314 291//314
f 287//315 288//315 292//315
f 292//315 288//315 293//315
f 288//316 289//316 293//316
f 293//316 289//316 294//316
f 289//317 290//317 294//317
f 294//317 290//317 295//317
f 286//318 291//318 290//318
f 290//318 291//318 295//318
f 291//319 292//319 296//319
f 292//320 293//320 296//320
f 293//321 294//321 296//321
f 294//322 295//322 296//322
f 295//323 291//323 296//323
f 297//324 298//324 303//324
f 303//325 298//325 304//325
f 298//326 299//326 304//326
f 304//326 299//326 305//326
f 299//327 300//327 305//327
f 305//327 300//327 306//327
f 300//328 301//328 306//328
f 306//328 301//328 307//328
f 301//329 302//329 307//329
f 307//329 302//329 308//329
f 302//330 297//330 308//330
f 308//330 297//330 303//330
f 303//331 304//331 309//331
f 309//331 304//331 310//331
f 304//332 305//332 310//332
f 310//332 305//332 311//332
f 305//333 306//333 311//333
f 311//333 306//333 312//333
f 306//334 307//334 312//334
f 312//334 307//334 313//334
f 307//335 308//335 313//335
f 313//335 308//335 314//335
f 308//336 303//336 314//336
f 314//336 303//336 309//336
f 298//337 297//337 315//337
f 299//338 298//338 315//338
f 300//339 299//339 315//339
f 301//340 300//340 315//340
f 302//341 301//341 315//341
f 297//342 302//342 315//342
f 309//343 310//343 316//343
f 316//343 310//343 317//343
f 310//344 311//344 317//344
f 317//344 311//344 318//344
f 311//345 312//345 318//345
f 318//345 312//345 319//345
f 312//346 313//346 319//346
f 319//346 313//346 320//346
f 313//347 314//347 320//347
f 320//347 314//347 321//347
f 314//348 309//348 321//348
f 321//348 309//348 316//348
f 318//349 319//349 317//349
f 319//349 320//349 317//349
f 320//349 321//349 317//349
f 321//349 316//349 317//349
f 322//54 323//54 328//54
f 328//54 323//54 329//54
f 323//55 324//55 329//55
f 329//55 324//55 330//55
f 324//56 325//56 330//56
f 330//56 325//56 331//56
f 325//57 326//57 331//57
f 331//57 326//57 332//57
f 326//58 327//58 332//58
f 332//58 327//58 333//58
f 327//59 322//59 333//59
f 333//60 322//60 328//60
f 328//61 329//61 334//61
f 334//61 329//61 335//61
f 329//62 330//62 335//62
f 335//62 330//62 336//62
f 330//63 331//63 336//63
f 336//350 331//350 337//350
f 331//64 332//64 337//64
f 337//64 332//64 338//64
f 332//66 333//66 338//66
f 338//66 333//66 339//66
f 333//67 328//67 339//67
f 339//67 328//67 334//67
f 323//351 322//351 340//351
f 324//69 323//69 340//69
f 325//70 324//70 340//70
f 326//71 325//71 340//71
f 327//72 326//72 340//72
f 322//73 327//73 340//73
f 334//74 335//74 341//74
f 341//74 335//74 342//74
f 335//75 336//75 342//75
f 342//75 336//75 343//75
f 336//76 337//76 343//76
f 343//76 337//76 344//76
f 337//77 338//77 344//77
f 344//77 338//77 345//77
f 338//78 339//78 345//78
f 345//78 339//78 346//78
f 339//79 334//79 346//79
f 346//79 334//79 341//79
f 343//80 344//80 342//80
f 344//80 345//80 342//80
f 345//80 346//80 342//80
f 346//80 341//80 342//80
f 347//352 348//352 353//352
f 353//352 348//352 354//352
f 348//353 349//353 354//353
f 354//353 349//353 355//353
f 349//354 350//354 355//354
f 355//354 350//354 356//354
f 350//355 351//355 356//355
f 356//355 351//355 357//355
f 351//356 352//356 357//356
f 357//356 352//356 358//356
f 352//357 347//357 358//357
f 358//357 347//357 353//357
f 353//358 354//358 359//358
f 359//358 354//358 360//358
f 354//359 355//359 360//359
f 360//359 355//359 361//359
f 355//360 356//360 361//360
f 361//360 356//360 362//360
f 356//361 357//361 362//361
f 362//361 357//361 363//361
f 357//362 358//362 363//362
f 363//362 358//362 364//362
f 358//363 353//363 364//363
f 364//363 353//363 359//363
f 348//364 347//364 365//364
f 349//365 348//365 365//365
f 350//366 349//366 365//366
f 351//367 350//367 365//367
f 352//368 351//368 365//368
f 347//369 352//369 365//369
f 359//370 360//370 366//370
f 366//370 360//370 367//370
f 360//371 361//371 367//371
f 367//371 361//371 368//371
f 361//372 362//372 368//372
f 368//372 362//372 369//372
f 362//373 363//373 369//373
f 369//373 363//373 370//373
f 363//374 364//374 370//374
f 370//374 364//374 371//374
f 364//375 359//375 371//375
f 371//375 359//375 366//375
f 368//376 369//376 367//376
f 369//376 370//376 367//376
f 370//376 371//376 367//376
f 371//376 366//376 367//376
f 372//377 373//377 377//377
f 377//377 373//377 378//377
f 373//378 374//378 378//378
f 378//378 374//378 379//378
f 374//379 375//379 379//379
f 379//379 375//379 380//379
f 375//380 376//380 380//380
f 380//380 376//380 381//380
f 376//381 372//381 381//381
f 381//381 372//381 377//381
f 378//382 383//382 377//382
f 377//382 383//382 382//382
f 378//383 379//383 383//383
f 383//383 379//383 384//383
f 379//384 380//384 384//384
f 384//384 380//384 385//384
f 380//385 381//385 385//385
f 385//385 381//385 386//385
f 377//386 382//386 381//386
f 381//386 382//386 386//386
f 383//387 388//387 382//387
f 382//387 388//387 387//387
f 383//388 384//388 388//388
f 388//388 384//388 389//388
f 384//389 385//389 389//389
f 389//389 385//389 390//389
f 385//390 386//390 390//390
f 390//390 386//390 391//390
f 382//391 387//391 386//391
f 386//391 387//391 391//391
f 388//392 393//392 387//392
f 387//392 393//392 392//392
f 388//393 389//393 393//393
f 393//393 389//393 394//393
f 389//394 390//394 394//394
f 394//394 390//394 395//394
f 390//395 391//395 395//395
f 395//395 391//395 396//395
f 387//396 392//396 391//396
f 391//396 392//396 396//396
f 393//397 398//397 392//397
f 392//398 398//398 397//398
f 393//399 394//399 398//399
f 398//399 394//399 399//399
f 394//400 395//400 399//400
f 399//401 395//401 400//401
f 395//402 396//402 400//402
f 400//403 396//403 401//403
f 392//404 397//404 396//404
f 396//405 397//405 401//405
f 398//406 403//406 397//406
f 397//407 403//407 402//407
f 398//408 399//408 403//408
f 403//408 399//408 404//408
f 399//409 400//409 404//409
f 404//410 400//410 405//410
f 400//411 401//411 405//411
f 405//412 401//412 406//412
f 397//413 402//413 401//413
f 401//414 402//414 406//414
f 403//415 408//415 402//415
f 402//416 408//416 407//416
f 403//417 404//417 408//417
f 408//417 404//417 409//417
f 404//418 405//418 409//418
f 409//419 405//419 410//419
f 405//420 406//420 410//420
f 410//421 406//421 411//421
f 402//422 407//422 406//422
f 406//423 407//423 411//423
f 408//424 413//424 407//424
f 407//424 413//424 412//424
f 408//425 409//425 413//425
f 413//425 409//425 414//425
f 409//426 410//426 414//426
f 414//426 410//426 415//426
f 410//427 411//427 415//427
f 415//427 411//427 416//427
f 407//428 412//428 411//428
f 411//428 412//428 416//428
f 412//429 413//429 417//429
f 413//430 414//430 417//430
f 414//431 415//431 417//431
f 415//432 416//432 417//432
f 416//433 412//433 417//433
f 418//434 419//434 424//434
f 424//434 419//434 425//434
f 419//435 420//435 425//435
f 425//435 420//435 426//435
f 420//436 421//436 426//436
f 426//436 421//436 427//436
f 421//437 422//437 427//437
f 427//437 422//437 428//437
f 422//438 423//438 428//438
f 428//439 423//439 429//439
f 423//440 418//440 429//440
f 429//440 418//440 424//440
f 424//441 425//441 430//441
f 430//441 425//441 431//441
f 425//442 426//442 431//442
f 431//442 426//442 432//442
f 426//443 427//443 432//443
f 432//443 427//443 433//443
f 427//444 428//444 433//444
f 433//444 428//444 434//444
f 428//445 429//445 434//445
f 434//445 429//445 435//445
f 429//446 424//446 435//446
f 435//446 424//446 430//446
f 419//447 418//447 436//447
f 420//448 419//448 436//448
f 421//449 420//449 436//449
f 422//450 421//450 436//450
f 423//451 422//451 436//451
f 418//452 423//452 436//452
f 430//453 431//453 437//453
f 437//453 431//453 438//453
f 431//454 432//454 438//454
f 438//454 432//454 439//454
f 432//455 433//455 439//455
f 439//455 433//455 440//455
f 433//456 434//456 440//456
f 440//456 434//456 441//456
f 434//457 435//457 441//457
f 441//457 435//457 442//457
f 435//458 430//458 442//458
f 442//458 430//458 437//458
f 439//459 440//459 438//459
f 440//459 441//459 438//459
f 441//459 442//459 438//459
f 442//459 437//459 438//459
f 443//460 444//460 449//460
f 449//460 444//460 450//460
f 444//461 445//461 450//461
f 450//461 445//461 451//461
f 445//462 446//462 451//462
f 451//462 446//462 452//462
f 446//463 447//463 452//463
f 452//463 447//463 453//463
f 447//464 448//464 453//464
f 453//464 448//464 454//464
f 448//465 443//465 454//465
f 454//465 443//465 449//465
f 449//466 450//466 455//466
f 455//466 450//466 456//466
f 450//467 451//467 456//467
f 456//467 451//467 457//467
f 451//468 452//468 457//468
f 457//468 452//468 458//468
f 452//469 453//469 458//469
f 458//469 453//469 459//469
f 453//470 454//470 459//470
f 459//470 454//470 460//470
f 454//471 449//471 460//471
f 460//471 449//471 455//471
f 444//472 443//472 461//472
f 445//473 444//473 461//473
f 446//474 445//474 461//474
f 447//475 446//475 461//475
f 448//476 447//476 461//476
f 443//477 448//477 461//477
f 455//478 456//478 462//478
f 462//478 456//478 463//478
f 456//479 457//479 463//479
f 463//479 457//479 464//479
f 457//480 458//480 464//480
f 464//481 458//481 465//481
f 458//482 459//482 465//482
f 465//482 459//482 466//482
f 459//483 460//483 466//483
f 466//483 460//483 467//483
f 460//484 455//484 467//484
f 467//484 455//484 462//484
f 464//485 465//485 463//485
f 465//485 466//485 463//485
f 466//485 467//485 463//485
f 467//485 462//485 463//485
f 468//486 469//486 474//486
f 474//486 469//486 475//486
f 469//487 470//487 475//487
f 475//487 470//487 476//487
f 470//488 471//488 476//488
f 476//489 471//489 477//489
f 471//490 472//490 477//490
f 477//490 472//490 478//490
f 472//491 473//491 478//491
f 478//492 473//492 479//492
f 473//493 468//493 479//493
f 479//493 468//493 474//493
f 474//494 475//494 480//494
f 480//494 475//494 481//494
f 475//495 476//495 481//495
f 481//495 476//495 482//495
f 476//496 477//496 482//496
f 482//496 477//496 483//496
f 477//497 478//497 483//497
f 483//497 478//497 484//497
f 478//498 479//498 484//498
f 484//498 479//498 485//498
f 479//499 474//499 485//499
f 485//499 474//499 480//499
f 469//500 468//500 486//500
f 470//501 469//501 486//501
f 471//502 470//502 486//502
f 472//503 471//503 486//503
f 473//504 472//504 486//504
f 468//505 473//505 486//505
f 480//506 481//506 487//506
f 487//506 481//506 488//506
f 481//507 482//507 488//507
f 488//507 482//507 489//507
f 482//508 483//508 489//508
f 489//508 483//508 490//508
f 483//509 484//509 490//509
f 490//509 484//509 491//509
f 484//510 485//510 491//510
f 491//510 485//510 492//510
f 485//511 480//511 492//511
f 492//512 480//512 487//512
f 489//513 490//513 488//513
f 490//513 491//513 488//513
f 491//513 492//513 488//513
f 492//513 487//513 488//513
f 493//514 494//514 499//514
f 499//515 494//515 500//515
f 494//516 495//516 500//516
f 500//516 495//516 501//516
f 495//517 496//517 501//517
f 501//517 496//517 502//517
f 496//518 497//518 502//518
f 502//518 497//518 503//518
f 497//519 498//519 503//519
f 503//519 498//519 504//519
f 498//520 493//520 504//520
f 504//520 493//520 499//520
f 499//521 500//521 505//521
f 505//521 500//521 506//521
f 500//522 501//522 506//522
f 506//522 501//522 507//522
f 501//523 502//523 507//523
f 507//523 502//523 508//523
f 502//524 503//524 508//524
f 508//524 503//524 509//524
f 503//525 504//525 509//525
f 509//525 504//525 510//525
f 504//526 499//526 510//526
f 510//526 499//526 505//526
f 494//527 493//527 511//527
f 495//528 494//528 511//528
f 496//529 495//529 511//529
f 497//530 496//530 511//530
f 498//531 497//531 511//531
f 493//532 498//532 511//532
f 505//533 506//533 512//533
f 512//533 506//533 513//533
f 506//534 507//534 513//534
f 513//534 507//534 514//534
f 507//535 508//535 514//535
f 514//535 508//535 515//535
f 508//536 509//536 515//536
f 515//536 509//536 516//536
f 509//537 510//537 516//537
f 516//537 510//537 517//537
f 510//538 505//538 517//538
f 517//538 505//538 512//538
f 514//513 515//513 513//513
f 515//513 516//513 513//513
f 516//513 517//513 513//513
f 517//513 512//513 513//513
f 518//539 519//539 524//539
f 524//539 519//539 525//539
f 519//540 520//540 525//540
f 525//540 520//540 526//540
f 520//541 521//541 526//541
f 526//541 521//541 527//541
f 521//542 522//542 527//542
f 527//542 522//542 528//542
f 522//543 523//543 528//543
f 528//543 523//543 529//543
f 523//544 518//544 529//544
f 529//544 518//544 524//544
f 524//545 525//545 530//545
f 530//545 525//545 531//545
f 525//546 526//546 531//546
f 531//546 526//546 532//546
f 526//547 527//547 532//547
f 532//547 527//547 533//547
f 527//548 528//548 533//548
f 533//548 528//548 534//548
f 528//549 529//549 534//549
f 534//549 529//549 535//549
f 529//550 524//550 535//550
f 535//550 524//550 530//550
f 519//551 518//551 536//551
f 520//552 519//552 536//552
f 521//553 520//553 536//553
f 522//554 521//554 536//554
f 523//555 522//555 536//555
f 518//556 523//556 536//556
f 530//557 531//557 537//557
f 537//557 531//557 538//557
f 531//558 532//558 538//558
f 538//558 532//558 539//558
f 532//559 533//559 539//559
f 539//559 533//559 540//559
f 533//560 534//560 540//560
f 540//560 534//560 541//560
f 534//561 535//561 541//561
f 541//561 535//561 542//561
f 535//562 530//562 542//562
f 542//562 530//562 537//562
f 539//563 540//563 538//563
f 540//563 541//563 538//563
f 541//563 542//563 538//563
f 542//563 537//563 538//563
f 543//564 544//564 549//564
f 549//564 544//564 550//564
f 544//565 545//565 550//565
f 550//565 545//565 551//565
f 545//566 546//566 551//566
f 551//566 546//566 552//566
f 546//567 547//567 552//567
f 552//567 547//567 553//567
f 547//568 548//568 553//568
f 553//568 548//568 554//568
f 548//569 543//569 554//569
f 554//570 543//570 549//570
f 549//571 550//571 555//571
f 555//571 550//571 556//571
f 550//572 551//572 556//572
f 556//572 551//572 557//572
f 551//573 552//573 557//573
f 557//573 552//573 558//573
f 552//574 553//574 558//574
f 558//574 553//574 559//574
f 553//575 554//575 559//575
f 559//575 554//575 560//575
f 554//576 549//576 560//576
f 560//576 549//576 555//576
f 544//577 543//577 561//577
f 545//578 544//578 561//578
f 546//579 545//579 561//579
f 547//580 546//580 561//580
f 548//581 547//581 561//581
f 543//582 548//582 561//582
f 555//583 556//583 562//583
f 562//583 556//583 563//583
f 556//584 557//584 563//584
f 563//584 557//584 564//584
f 557//585 558//585 564//585
f 564//585 558//585 565//585
f 558//586 559//586 565//586
f 565//586 559//586 566//586
f 559//587 560//587 566//587
f 566//587 560//587 567//587
f 560//588 555//588 567//588
f 567//588 555//588 562//588
f 564//589 565//589 563//589
f 565//589 566//589 563//589
f 566//589 567//589 563//589
f 567//589 562//589 563//589
f 568//590 569//590 574//590
f 574//590 569//590 575//590
f 569//591 570//591 575//591
f 575//591 570//591 576//591
f 570//592 571//592 576//592
f 576//592 571//592 577//592
f 571//593 572//593 577//593
f 577//593 572//593 578//593
f 572//594 573//594 578//594
f 578//594 573//594 579//594
f 573//595 568//595 579//595
f 579//595 568//595 574//595
f 574//596 575//596 580//596
f 580//596 575//596 581//596
f 575//597 576//597 581//597
f 581//597 576//597 582//597
f 576//598 577//598 582//598
f 582//598 577//598 583//598
f 577//599 578//599 583//599
f 583//599 578//599 584//599
f 578//600 579//600 584//600
f 584//600 579//600 585//600
f 579//601 574//601 585//601
f 585//601 574//601 580//601
f 569//602 568//602 586//602
f 570//603 569//603 586//603
f 571//604 570//604 586//604
f 572//605 571//605 586//605
f 573//606 572//606 586//606
f 568//607 573//607 586//607
f 580//608 581//608 587//608
f 587//608 581//608 588//608
f 581//609 582//609 588//609
f 588//609 582//609 589//609
f 582//610 583//610 589//610
f 589//610 583//610 590//610
f 583//611 584//611 590//611
f 590//611 584//611 591//611
f 584//612 585//612 591//612
f 591//613 585//613 592//613
f 585//614 580//614 592//614
f 592//614 580//614 587//614
f 589//615 590//615 588//615
f 590//615 591//615 588//615
f 591//615 592//615 588//615
f 592//615 587//615 588//615
f 593//616 594//616 599//616
f 599//616 594//616 600//616
f 594//617 595//617 600//617
f 600//617 595//617 601//617
f 595//618 596//618 601//618
f 601//618 596//618 602//618
f 596//619 597//619 602//619
f 602//619 597//619 603//619
f 597//620 598//620 603//620
f 603//620 598//620 604//620
f 598//621 593//621 604//621
f 604//621 593//621 599//621
f 599//622 600//622 605//622
f 605//622 600//622 606//622
f 600//623 601//623 606//623
f 606//623 601//623 607//623
f 601//624 602//624 607//624
f 607//624 602//624 608//624
f 602//625 603//625 608//625
f 608//625 603//625 609//625
f 603//626 604//626 609//626
f 609//626 604//626 610//626
f 604//627 599//627 610//627
f 610//627 599//627 605//627
f 594//628 593//628 611//628
f 595//629 594//629 611//629
f 596//630 595//630 611//630
f 597//631 596//631 611//631
f 598//632 597//632 611//632
f 593//633 598//633 611//633
f 605//634 606//634 612//634
f 612//634 606//634 613//634
f 606//635 607//635 613//635
f 613//635 607//635 614//635
f 607//636 608//636 614//636
f 614//636 608//636 615//636
f 608//637 609//637 615//637
f 615//637 609//637 616//637
f 609//638 610//638 616//638
f 616//638 610//638 617//638
f 610//639 605//639 617//639
f 617//639 605//639 612//639
f 614//640 615//640 613//640
f 615//640 616//640 613//640
f 616//640 617//640 613//640
f 617//640 612//640 613//640
f 618//515 619//515 624//515
f 624//515 619//515 625//515
f 619//516 620//516 625//516
f 625//516 620//516 626//516
f 620//517 621//517 626//517
f 626//517 621//517 627//517
f 621//518 622//518 627//518
f 627//518 622//518 628//518
f 622//519 623//519 628//519
f 628//519 623//519 629//519
f 623//520 618//520 629//520
f 629//520 618//520 624//520
f 624//521 625//521 630//521
f 630//521 625//521 631//521
f 625//522 626//522 631//522
f 631//522 626//522 632//522
f 626//523 627//523 632//523
f 632//523 627//523 633//523
f 627//524 628//524 633//524
f 633//524 628//524 634//524
f 628//525 629//525 634//525
f 634//525 629//525 635//525
f 629//526 624//526 635//526
f 635//526 624//526 630//526
f 619//641 618//641 636//641
f 620//528 619//528 636//528
f 621//529 620//529 636//529
f 622//530 621//530 636//530
f 623//531 622//531 636//531
f 618//532 623//532 636//532
f 630//642 631//642 637//642
f 637//533 631//533 638//533
f 631//534 632//534 638//534
f 638//534 632//534 639//534
f 632//535 633//535 639//535
f 639//535 633//535 640//535
f 633//536 634//536 640//536
f 640//536 634//536 641//536
f 634//537 635//537 641//537
f 641//537 635//537 642//537
f 635//538 630//538 642//538
f 642//538 630//538 637//538
f 639//513 640//513 638//513
f 640//513 641//513 638//513
f 641//513 642//513 638//513
f 642//513 637//513 638//513
f 643//643 644//643 649//643
f 649//643 644//643 650//643
f 644//644 645//644 650//644
f 650//644 645//644 651//644
f 645//645 646//645 651//645
f 651//645 646//645 652//645
f 646//646 647//646 652//646
f 652//646 647//646 653//646
f 647//647 648//647 653//647
f 653//647 648//647 654//647
f 648//648 643//648 654//648
f 654//648 643//648 649//648
f 649//649 650//649 655//649
f 655//649 650//649 656//649
f 650//650 651//650 656//650
f 656//650 651//650 657//650
f 651//651 652//651 657//651
f 657//651 652//651 658//651
f 652//652 653//652 658//652
f 658//652 653//652 659//652
f 653//653 654//653 659//653
f 659//653 654//653 660//653
f 654//654 649//654 660//654
f 660//654 649//654 655//654
f 644//655 643//655 661//655
f 645//656 644//656 661//656
f 646//657 645//657 661//657
f 647//658 646//658 661//658
f 648//659 647//659 661//659
f 643//660 648//660 661//660
f 655//661 656//661 662//661
f 662//661 656//661 663//661
f 656//662 657//662 663//662
f 663//662 657//662 664//662
f 657//663 658//663 664//663
f 664//663 658//663 665//663
f 658//664 659//664 665//664
f 665//664 659//664 666//664
f 659//665 660//665 666//665
f 666//665 660//665 667//665
f 660//666 655//666 667//666
f 667//666 655//666 662//666
f 664//667 665//667 663//667
f 665//667 666//667 663//667
f 666//667 667//667 663//667
f 667//667 662//667 663//667
f 668//668 669//668 674//668
f 674//668 669//668 675//668
f 669//669 670//669 675//669
f 675//669 670//669 676//669
f 670//670 671//670 676//670
f 676//670 671//670 677//670
f 671//671 672//671 677//671
f 677//671 672//671 678//671
f 672//672 673//672 678//672
f 678//672 673//672 679//672
f 673//673 668//673 679//673
f 679//673 668//673 674//673
f 674//674 675//674 680//674
f 680//674 675//674 681//674
f 675//675 676//675 681//675
f 681//675 676//675 682//675
f 676//676 677//676 682//676
f 682//677 677//677 683//677
f 677//678 678//678 683//678
f 683//678 678//678 684//678
f 678//679 679//679 684//679
f 684//680 679//680 685//680
f 679//681 674//681 685//681
f 685//682 674//682 680//682
f 669//683 668//683 686//683
f 670//684 669//684 686//684
f 671//685 670//685 686//685
f 672//686 671//686 686//686
f 673//687 672//687 686//687
f 668//688 673//688 686//688
f 680//689 681//689 687//689
f 687//689 681//689 688//689
f 681//690 682//690 688//690
f 688//690 682//690 689//690
f 682//691 683//691 689//691
f 689//691 683//691 690//691
f 683//692 684//692 690//692
f 690//692 684//692 691//692
f 684//693 685//693 691//693
f 691//693 685//693 692//693
f 685//694 680//694 692//694
f 692//694 680//694 687//694
f 689//695 690//695 688//695
f 690//695 691//695 688//695
f 691//695 692//695 688//695
f 692//696 687//696 688//696
f 693//697 694//697 695//697
f 696//698 694//698 693//698
f 694//699 706//699 695//699
f 695//700 706//700 697//700
f 693//701 695//701 705//701
f 705//702 695//702 697//702
f 706//703 707//703 697//703
f 697//704 707//704 699//704
f 705//705 697//705 704//705
f 704//706 697//706 699//706
f 699//707 707//707 701//707
f 704//708 699//708 701//708
f 703//709 707//709 702//709
f 702//710 704//710 703//710
f 700//711 704//711 702//711
f 705//712 704//712 698//712
f 698//713 704//713 700//713
f 693//714 705//714 696//714
f 696//715 705//715 698//715
f 694//716 696//716 706//716
f 706//717 696//717 698//717
f 706//718 698//718 707//718
f 707//719 698//719 700//719
f 707//720 700//720 702//720
f 703//721 704//721 701//721
f 701//722 707//722 703//722
f 708//723 720//723 709//723
f 709//724 720//724 711//724
f 708//725 709//725 719//725
f 719//726 709//726 711//726
f 720//727 721//727 711//727
f 711//728 721//728 713//728
f 719//729 711//729 718//729
f 718//730 711//730 713//730
f 713//731 721//731 715//731
f 718//732 713//732 715//732
f 717//733 721//733 716//733
f 716//734 718//734 717//734
f 714//735 718//735 716//735
f 719//736 718//736 712//736
f 712//737 718//737 714//737
f 708//738 719//738 710//738
f 710//739 719//739 712//739
f 708//740 710//740 720//740
f 720//741 710//741 712//741
f 720//742 712//742 721//742
f 721//743 712//743 714//743
f 721//744 714//744 716//744
f 717//745 718//745 715//745
f 715//746 721//746 717//746
f 722//747 734//747 723//747
f 723//748 734//748 725//748
f 722//749 723//749 733//749
f 733//750 723//750 725//750
f 725//751 734//751 727//751
f 727//752 734//752 735//752
f 733//753 725//753 732//753
f 732//754 725//754 727//754
f 727//755 735//755 729//755
f 732//756 727//756 729//756
f 731//757 735//757 730//757
f 730//758 732//758 731//758
f 728//759 732//759 730//759
f 733//760 732//760 726//760
f 726//761 732//761 728//761
f 722//762 733//762 724//762
f 724//763 733//763 726//763
f 722//764 724//764 734//764
f 734//765 724//765 726//765
f 735//766 734//766 728//766
f 728//767 734//767 726//767
f 735//768 728//768 730//768
f 731//769 732//769 729//769
f 729//770 735//770 731//770
f 736//771 737//771 738//771
f 739//772 737//772 736//772
f 737//773 749//773 738//773
f 738//774 749//774 740//774
f 736//775 738//775 748//775
f 748//776 738//776 740//776
f 740//777 749//777 742//777
f 742//778 749//778 750//778
f 748//779 740//779 747//779
f 747//780 740//780 742//780
f 742//781 750//781 744//781
f 747//782 742//782 744//782
f 746//783 750//783 745//783
f 745//784 747//784 746//784
f 743//785 747//785 745//785
f 748//786 747//786 741//786
f 741//787 747//787 743//787
f 736//788 748//788 739//788
f 739//789 748//789 741//789
f 737//790 739//790 749//790
f 749//791 739//791 741//791
f 750//792 749//792 743//792
f 743//793 749//793 741//793
f 750//794 743//794 745//794
f 746//795 747//795 744//795
f 744//796 750//796 746//796
f 751//797 752//797 753//797
f 754//798 752//798 751//798
f 752//799 763//799 753//799
f 753//800 763//800 755//800
f 751//801 753//801 762//801
f 762//802 753//802 755//802
f 755//803 763//803 764//803
f 762//804 755//804 761//804
f 755//805 764//805 758//805
f 761//806 755//806 758//806
f 760//807 764//807 759//807
f 759//808 761//808 760//808
f 757//809 761//809 759//809
f 762//810 761//810 756//810
f 756//811 761//811 757//811
f 751//812 762//812 754//812
f 754//813 762//813 756//813
f 752//814 754//814 763//814
f 763//815 754//815 756//815
f 764//816 763//816 757//816
f 757//817 763//817 756//817
f 764//818 757//818 759//818
f 760//819 761//819 758//819
f 758//820 764//820 760//820