mtllib flat.mtl
v -0.108524 -0.00048 -0.083323
v 0.022438 -0.00048 -0.083799
v -0.11339 0.059015 -0.083615
v 0.017578 0.060224 -0.084088
v -0.134777 0.175655 -0.118485
v -0.027973 0.203964 -0.134573
v -0.171625 0.268134 -0.186978
v -0.103751 0.289255 -0.211203
v -0.243625 0.332055 -0.280029
v -0.212922 0.341693 -0.302963
v -0.297328 0.358278 -0.359198
v -0.053085 -0.00048 -0.085537
v -0.058012 0.062455 -0.098229
v -0.096075 0.175036 -0.130496
v -0.142949 0.268259 -0.207914
v -0.233106 0.33152 -0.297405
v -0.227307 0.313086 -0.326277
v -0.135408 0.259656 -0.240901
v -0.077772 0.177779 -0.173624
v -0.04355 0.056731 -0.133736
v -0.038751 -0.00048 -0.133469
v 0.019109 -0.00048 0.089058
v 0.120047 -0.00048 0.10101
v 0.066876 0.120696 0.112049
v 0.163753 0.120696 0.12249
v 0.096303 0.120696 0.052172
v 0.048919 -0.00048 0.0284
v 0.114503 0.224377 0.14453
v 0.228557 0.224377 0.154337
v 0.151114 0.224377 0.070034
v 0.187271 0.311563 0.178656
v 0.282651 0.274801 0.180922
v 0.222587 0.311563 0.106796
v 0.383996 0.353548 0.230728
v 0.056256 -0.00048 0.106798
v 0.102193 0.120696 0.129374
v 0.166996 0.224377 0.161221
v 0.227646 0.297482 0.191027
v 0.252758 0.3019 0.120095
v 0.190832 0.224377 0.089661
v 0.126028 0.120696 0.057814
v 0.079656 -0.00048 0.035024
v 0.223826 0.294483 0.152314
v 0.151701 0.207297 0.116879
v 0.100506 0.103615 0.091658
v 0.052929 -0.00048 0.068279
v -0.065143 -0.00048 -0.0
v 0.088609 -0.00048 0.029454
v -0.065143 0.19131 0.0
v 0.088609 0.19131 0.030747
v 0.080552 0.19131 -0.047922
v 0.080552 -0.00048 -0.04663
v 0.011978 0.19131 0.00993
v 0.002205 0.19131 -0.046278
v 0.002205 -0.00048 -0.044614
v 0.011978 -0.00048 0.008267
v -0.058081 0.329904 0.0
v 0.010518 0.329904 0.003906
v 0.000745 0.329904 -0.040254
v 0.076215 0.329904 0.026065
v 0.068158 0.329904 -0.043241
v -0.029276 0.428234 0.0
v 0.030433 0.419145 -0.003199
v 0.02066 0.419145 -0.033149
v 0.084725 0.407483 0.020543
v 0.076667 0.407483 -0.037719
v 0.034711 0.561057 -0.034339
v 0.078057 0.540679 -0.046876
v 0.068284 0.540679 -0.05815
v 0.111357 0.514535 -0.021054
v 0.1033 0.514535 -0.064801
v 0.1335 0.69432 -0.073139
v 0.153345 0.673942 -0.085431
v 0.143571 0.673942 -0.097195
v 0.156493 0.647798 -0.059663
v 0.148436 0.647798 -0.103791
v 0.221203 0.773301 -0.137739
v 0.117886 -0.00048 -0.004955
v 0.117886 0.19131 -0.005172
v 0.105493 0.329904 -0.004385
v 0.114002 0.407483 -0.003456
v 0.140634 0.514535 -0.036574
v 0.185771 0.647798 -0.075406
v -0.094013 -0.00048 0.073975
v -0.111254 0.097361 0.073975
v -0.111254 0.097361 -0.073975
v -0.094013 -0.00048 -0.073975
v -0.1433 0.184345 0.073975
v -0.1433 0.184345 -0.073975
v -0.292119 0.184345 0.028598
v -0.292119 0.184345 -0.028598
v -0.392481 0.089893 0.0
v -0.088261 -0.00048 0.002507
v -0.109547 0.055508 0.002507
v -0.149124 0.159193 0.002507
v -0.318263 0.164071 0.000969
v -0.270376 0.147851 -0.000426
v -0.166891 0.110576 -0.000897
v -0.147148 0.053975 -0.000897
v -0.136522 -0.00048 -0.000897
vn 0.0391 0.2005 0.9789
vn 0.2536 0.0255 0.967
vn -0.5834 -0.0517 -0.8106
vn -0.5828 -0.0527 -0.8109
vn 0.2206 0.3369 0.9153
vn 0.2853 0.3222 0.9027
vn -0.5575 -0.33 -0.7618
vn -0.6301 -0.3979 -0.6668
vn 0.2254 0.687 0.6908
vn 0.4511 0.6402 0.6218
vn -0.5269 -0.6314 -0.569
vn -0.6345 -0.7057 -0.3152
vn 0.2791 0.8786 0.3876
vn 0.4059 0.8874 0.2184
vn -0.4943 -0.8463 -0.1989
vn -0.5824 -0.8034 0.1241
vn 0.269 0.9538 0.1335
vn 0.5675 0.3296 -0.7545
vn -0.023 0.0029 0.9997
vn -0.1756 0.1814 0.9676
vn -0.0522 0.2588 0.9645
vn -0.1686 0.2786 0.9455
vn -0.2281 0.5516 0.8023
vn -0.1887 0.5582 0.8079
vn -0.1729 0.7138 0.6787
vn -0.286 0.6449 0.7088
vn 0.657 0.0519 -0.7521
vn 0.7235 0.1794 -0.6666
vn 0.647 -0.1039 -0.7554
vn 0.7155 -0.0676 -0.6953
vn 0.6313 -0.0712 -0.7723
vn 0.6386 -0.0719 -0.7662
vn 0.628 0.049 -0.7767
vn 0.6296 0.0467 -0.7756
vn -0.5791 -0.8054 0.126
vn -0.2334 0.7802 0.5804
vn -0.4309 -0.0013 0.9024
vn -0.4404 -0.0003 0.8978
vn 0.1853 0.1127 -0.9762
vn 0.2094 0.1087 -0.9718
vn -0.4913 0.3454 -0.7996
vn -0.347 0.3537 -0.8686
vn -0.439 -0.0787 0.895
vn -0.3014 -0.1028 0.9479
vn 0.186 0.0705 -0.98
vn 0.443 -0.0015 -0.8965
vn -0.3338 0.3752 -0.8648
vn -0.3993 0.4361 -0.8065
vn -0.3009 -0.1192 0.9462
vn -0.3266 -0.1117 0.9385
vn 0.443 0.0148 -0.8964
vn 0.411 0.0294 -0.9111
vn -0.3124 0.5608 -0.7667
vn -0.2963 0.5596 -0.774
vn -0.2694 0.0713 0.9604
vn 0.476 0.4317 -0.7662
vn -0.4625 0.8259 0.3225
vn 0.0882 -0.2147 0.9727
vn 0.1086 -0.2114 0.9714
vn 0.1041 -0.3509 0.9306
vn 0.0995 -0.4453 0.8898
vn -0.0209 -0.4487 0.8935
vn 0.775 -0.4416 -0.4521
vn 0.6984 -0.4602 -0.5482
vn 0.8061 -0.3594 -0.4702
vn 0.8315 -0.2225 -0.509
vn 0.8432 -0.217 -0.4918
vn -0.0438 -0.4932 0.8688
vn 0.6637 -0.5055 -0.5514
vn -0.7978 0.5632 0.2153
vn -0.7937 0.5621 0.2325
vn -0.8898 0.3767 0.2576
vn -0.883 0.4374 0.1705
vn -0.9333 0.3466 0.0939
vn -0.9007 0.3556 0.2497
vn -0.0251 0.8225 -0.5682
vn -0.1066 -0.0 0.9943
vn -0.1277 -0.0086 0.9918
vn -0.5663 -0.0071 -0.8242
vn -0.5523 -0.0 -0.8337
vn 0.7616 0.0007 0.648
vn 0.7751 -0.0043 0.6318
vn -0.0257 -0.0087 -0.9996
vn -0.021 -0.0067 -0.9998
vn -0.2665 -0.0084 0.9638
vn -0.2621 -0.0065 0.965
vn -0.1277 0.0065 0.9918
vn -0.0568 0.0428 0.9975
vn -0.5661 0.0288 -0.8238
vn -0.5645 0.0299 -0.8249
vn 0.7735 0.0656 0.6304
vn 0.7181 0.0875 0.6904
vn -0.2621 0.0092 0.965
vn -0.3194 0.0378 0.9469
vn -0.021 0.0319 -0.9993
vn -0.0442 0.0429 -0.9981
vn -0.0568 0.0167 0.9982
vn 0.0633 0.0652 0.9959
vn -0.5572 0.1632 -0.8142
vn -0.5205 0.1826 -0.8341
vn 0.7205 -0.0297 0.6928
vn 0.632 -0.0786 0.771
vn -0.3162 0.1452 0.9375
vn -0.379 0.107 0.9192
vn -0.0441 0.0891 -0.995
vn -0.0649 0.0779 -0.9948
vn 0.0843 0.2111 0.9738
vn 0.3543 0.1902 0.9156
vn -0.5465 0.0471 -0.8361
vn -0.5581 0.0483 -0.8283
vn 0.6276 0.1414 0.7656
vn 0.4627 0.1549 0.8729
vn -0.2906 0.4085 0.8652
vn -0.3189 0.4287 0.8453
vn -0.1237 -0.2143 -0.9689
vn -0.2556 -0.0977 -0.9618
vn 0.3009 0.0542 0.9521
vn 0.5014 -0.0332 0.8646
vn -0.5165 0.1368 -0.8453
vn -0.7803 0.2765 -0.5609
vn 0.4662 0.0969 0.8794
vn 0.4714 0.0958 0.8767
vn -0.3688 0.3717 0.8519
vn -0.6096 0.518 0.6
vn -0.3054 -0.1707 -0.9368
vn -0.5849 0.0944 -0.8056
vn 0.5626 0.0502 0.8252
vn -0.7351 0.3335 -0.5903
vn 0.4532 0.2906 0.8427
vn -0.3882 0.6228 0.6793
vn -0.5608 0.1029 -0.8215
vn 0.7448 -0.0008 -0.6673
vn 0.7532 -0.0044 -0.6578
vn 0.7513 0.0709 -0.6561
vn 0.7183 0.0875 -0.6902
vn 0.6747 -0.0652 -0.7352
vn 0.7208 -0.0298 -0.6925
vn 0.5606 -0.3688 -0.7414
vn 0.6373 -0.3342 -0.6944
vn 0.5546 -0.4004 -0.7295
vn 0.5525 -0.4009 -0.7308
vn 0.5267 -0.4927 -0.6927
vn 0.9321 0.3544 0.075
vn 0.9818 0.173 -0.0779
vn -0.8574 -0.1673 0.4868
vn -0.8546 -0.1506 0.497
vn -0.794 -0.277 0.5411
vn -0.7917 -0.2917 0.5368
vn 0.9184 0.3506 -0.1834
vn 0.9205 0.3391 -0.1944
vn -0.2192 -0.6596 0.7189
vn -0.245 -0.6887 0.6824
vn 0.103 0.9356 -0.3377
vn 0.0284 0.7929 -0.6087
vn 0.2354 -0.5021 -0.8321
vn -0.6993 0.7015 -0.1373
vn 0.9324 0.3545 -0.0701
vn 0.9822 0.1731 0.0728
vn 0.9204 0.3513 0.1717
vn 0.9227 0.3399 0.182
vn 0.0183 0.817 0.5764
vn 0.0968 0.9433 0.3176
vn -0.2218 -0.6495 -0.7273
vn -0.2482 -0.6803 -0.6897
vn -0.7883 -0.275 -0.5504
vn -0.7861 -0.2896 -0.5461
vn -0.8524 -0.1663 -0.4958
vn -0.8494 -0.1497 -0.5061
vn 0.2449 -0.5099 0.8246
vn -0.6999 0.6983 0.1499
usemtl Elf_bush_Map
f 12//1 13//1 1//1
f 1//2 13//2 3//2
f 3//3 20//3 1//3
f 1//4 20//4 21//4
f 13//5 14//5 3//5
f 3//6 14//6 5//6
f 3//7 5//7 20//7
f 20//8 5//8 19//8
f 14//9 15//9 5//9
f 5//10 15//10 7//10
f 5//11 7//11 19//11
f 19//12 7//12 18//12
f 7//13 15//13 9//13
f 9//14 15//14 16//14
f 7//15 9//15 18//15
f 18//16 9//16 17//16
f 9//17 16//17 11//17
f 10//18 17//18 11//18
f 2//19 4//19 12//19
f 12//20 4//20 13//20
f 14//21 13//21 6//21
f 6//22 13//22 4//22
f 15//23 14//23 8//23
f 8//24 14//24 6//24
f 16//25 15//25 10//25
f 10//26 15//26 8//26
f 8//27 18//27 10//27
f 10//28 18//28 17//28
f 6//29 19//29 8//29
f 8//30 19//30 18//30
f 4//31 20//31 6//31
f 6//32 20//32 19//32
f 20//33 4//33 21//33
f 21//34 4//34 2//34
f 11//35 17//35 9//35
f 11//36 16//36 10//36
f 22//37 35//37 24//37
f 24//38 35//38 36//38
f 41//39 42//39 26//39
f 26//40 42//40 27//40
f 22//41 24//41 46//41
f 46//42 24//42 45//42
f 24//43 36//43 28//43
f 28//44 36//44 37//44
f 26//45 30//45 41//45
f 41//46 30//46 40//46
f 45//47 24//47 44//47
f 44//48 24//48 28//48
f 28//49 37//49 31//49
f 31//50 37//50 38//50
f 30//51 33//51 40//51
f 40//52 33//52 39//52
f 28//53 31//53 44//53
f 44//54 31//54 43//54
f 31//55 38//55 34//55
f 34//56 39//56 33//56
f 33//57 43//57 34//57
f 35//58 23//58 36//58
f 36//59 23//59 25//59
f 36//60 25//60 37//60
f 37//60 25//60 29//60
f 37//61 29//61 38//61
f 38//62 29//62 32//62
f 40//63 39//63 29//63
f 29//64 39//64 32//64
f 41//65 40//65 25//65
f 25//65 40//65 29//65
f 42//66 41//66 23//66
f 23//67 41//67 25//67
f 34//68 38//68 32//68
f 32//69 39//69 34//69
f 30//70 44//70 33//70
f 33//71 44//71 43//71
f 45//72 44//72 26//72
f 26//73 44//73 30//73
f 27//74 46//74 26//74
f 26//75 46//75 45//75
f 34//76 43//76 31//76
f 47//77 56//77 49//77
f 49//78 56//78 53//78
f 54//79 55//79 49//79
f 49//80 55//80 47//80
f 78//81 79//81 48//81
f 48//82 79//82 50//82
f 55//83 54//83 52//83
f 52//84 54//84 51//84
f 56//85 48//85 53//85
f 53//86 48//86 50//86
f 49//87 53//87 57//87
f 57//88 53//88 58//88
f 49//89 57//89 54//89
f 54//90 57//90 59//90
f 79//91 80//91 50//91
f 50//92 80//92 60//92
f 50//93 60//93 53//93
f 53//94 60//94 58//94
f 51//95 54//95 61//95
f 61//96 54//96 59//96
f 57//97 58//97 62//97
f 62//98 58//98 63//98
f 57//99 62//99 59//99
f 59//100 62//100 64//100
f 60//101 80//101 65//101
f 65//102 80//102 81//102
f 58//103 60//103 63//103
f 63//104 60//104 65//104
f 59//105 64//105 61//105
f 61//106 64//106 66//106
f 62//107 63//107 67//107
f 67//108 63//108 68//108
f 62//109 67//109 64//109
f 64//110 67//110 69//110
f 65//111 81//111 70//111
f 70//112 81//112 82//112
f 65//113 70//113 63//113
f 63//114 70//114 68//114
f 66//115 64//115 71//115
f 71//116 64//116 69//116
f 67//117 68//117 72//117
f 72//118 68//118 73//118
f 67//119 72//119 69//119
f 69//120 72//120 74//120
f 70//121 82//121 75//121
f 75//122 82//122 83//122
f 70//123 75//123 68//123
f 68//124 75//124 73//124
f 71//125 69//125 76//125
f 76//126 69//126 74//126
f 72//127 73//127 77//127
f 74//128 72//128 77//128
f 75//129 83//129 77//129
f 73//130 75//130 77//130
f 76//131 74//131 77//131
f 78//132 52//132 79//132
f 79//133 52//133 51//133
f 79//134 51//134 80//134
f 80//135 51//135 61//135
f 81//136 80//136 66//136
f 66//137 80//137 61//137
f 82//138 81//138 71//138
f 71//139 81//139 66//139
f 83//140 82//140 76//140
f 76//141 82//141 71//141
f 77//142 83//142 76//142
f 93//143 94//143 84//143
f 84//144 94//144 85//144
f 100//145 84//145 99//145
f 99//146 84//146 85//146
f 99//147 85//147 98//147
f 98//148 85//148 88//148
f 94//149 95//149 85//149
f 85//150 95//150 88//150
f 88//151 90//151 98//151
f 98//152 90//152 97//152
f 88//153 95//153 90//153
f 90//154 95//154 96//154
f 91//155 97//155 92//155
f 92//156 96//156 91//156
f 93//157 87//157 94//157
f 94//158 87//158 86//158
f 94//159 86//159 95//159
f 95//160 86//160 89//160
f 96//161 95//161 91//161
f 91//162 95//162 89//162
f 89//163 98//163 91//163
f 91//164 98//164 97//164
f 99//165 98//165 86//165
f 86//166 98//166 89//166
f 100//167 99//167 87//167
f 87//168 99//168 86//168
f 92//169 97//169 90//169
f 90//170 96//170 92//170