mtllib flat.mtl
v -0.2993 -0.007923 0.149677
v -0.256465 -0.007923 0.177365
v -0.206599 -0.007923 0.166653
v -0.178912 -0.007923 0.123818
v -0.189623 -0.007923 0.073952
v -0.232458 -0.007923 0.046264
v -0.282325 -0.007923 0.056976
v -0.310012 -0.007923 0.099811
v -0.28118 0.018916 0.144269
v -0.246587 0.024763 0.166832
v -0.183782 0.033032 0.122926
v -0.226953 0.024763 0.059614
v -0.267297 0.018916 0.068454
v -0.274669 0.069725 0.141926
v -0.243197 0.075044 0.162453
v -0.206494 0.080364 0.15441
v -0.225335 0.075044 0.06491
v -0.262038 0.069725 0.072953
v -0.282473 0.067521 0.104854
v -0.297388 0.080415 0.144645
v -0.26295 0.097491 0.168565
v -0.22227 0.114566 0.158401
v -0.199179 0.121639 0.120107
v -0.207202 0.114567 0.076115
v -0.270078 0.111122 0.054666
v -0.282319 0.080415 0.062359
v -0.319492 0.095806 0.135351
v -0.342536 0.133403 0.122897
v -0.317463 0.145397 0.145108
v -0.232081 0.132882 0.114078
v -0.264472 0.166576 0.113954
v -0.239299 0.126396 0.075986
v -0.266978 0.16393 0.07909
v -0.324062 0.13845 0.059802
v -0.306281 0.095806 0.06321
v -0.326782 0.089474 0.096736
v -0.253853 0.134887 0.063494
v -0.297361 0.135334 0.012537
v -0.327584 0.104034 0.063494
v -0.381234 0.100238 0.103457
v -0.327584 0.104034 0.14342
v -0.297361 0.135334 0.194377
v -0.253853 0.134887 0.14342
v -0.213488 0.170431 0.103457
v -0.319649 0.194541 0.149175
v -0.338476 0.178439 0.125739
v -0.361824 0.176893 0.103457
v -0.334364 0.188102 0.074613
v -0.319649 0.194541 0.057738
v -0.30079 0.199233 0.079143
v -0.277474 0.212189 0.103457
v -0.30646 0.203988 0.130928
v -0.33605 0.23267 0.143414
v -0.362114 0.221763 0.131711
v -0.362114 0.221763 0.075203
v -0.309986 0.243576 0.075203
v -0.29919 0.248094 0.103457
v -0.315064 0.151069 0.099676
v 0.448633 0.489387 0.099921
v 0.36701 0.546047 0.042554
v 0.285388 0.602708 0.099921
v 0.272761 0.611474 0.157287
v 0.285388 0.602708 0.214653
v 0.414135 0.513334 0.256648
v 0.46126 0.480621 0.157287
v 0.435414 0.57287 0.133675
v 0.401819 0.596191 0.110064
v 0.368224 0.619512 0.133675
v 0.368224 0.619512 0.180898
v 0.401819 0.596191 0.20451
v 0.435414 0.57287 0.180898
v 0.4244 0.62872 0.157287
v 0.343339 0.511948 0.157287
v 0.426556 0.422935 0.088513
v 0.377859 0.422977 0.078194
v 0.328702 0.490863 0.019739
v 0.370862 0.434041 0.041177
v 0.289105 0.484588 0.049244
v 0.260726 0.510495 0.041177
v 0.230849 0.558791 0.088513
v 0.220413 0.53848 0.090251
v 0.224132 0.529691 0.128337
v 0.215711 0.569299 0.157287
v 0.230849 0.558791 0.226061
v 0.220413 0.53848 0.224323
v 0.230505 0.525267 0.215187
v 0.272206 0.530081 0.276407
v 0.260726 0.510495 0.273397
v 0.289105 0.484588 0.265329
v 0.328702 0.490863 0.294834
v 0.385198 0.451645 0.276407
v 0.370862 0.434041 0.273397
v 0.360449 0.435062 0.257572
v 0.426556 0.422935 0.226061
v 0.40164 0.406468 0.186237
v 0.441694 0.412426 0.157287
v 0.425931 0.395813 0.157287
v 0.23119 -0.007923 0.10145
v 0.175352 -0.007923 0.078321
v 0.119515 -0.007923 0.10145
v 0.096387 -0.007923 0.157287
v 0.119515 -0.007923 0.213124
v 0.175352 -0.007923 0.236252
v 0.23119 -0.007923 0.213124
v 0.254318 -0.007923 0.157287
v 0.244151 0.092026 0.113126
v 0.200502 0.098726 0.094834
v 0.156852 0.105426 0.113126
v 0.138772 0.108201 0.157287
v 0.156852 0.105426 0.201447
v 0.244151 0.092026 0.201447
v 0.262231 0.08925 0.157287
v 0.240405 0.148102 0.118515
v 0.202082 0.153984 0.102456
v 0.147886 0.162304 0.157287
v 0.163759 0.159867 0.196058
v 0.202082 0.153984 0.212118
v 0.240405 0.148102 0.196058
v 0.256278 0.145665 0.157287
v 0.2642 0.183674 0.125701
v 0.206532 0.209464 0.125701
v 0.194589 0.214805 0.157287
v 0.235366 0.196569 0.201956
v 0.277644 0.331817 0.131988
v 0.25241 0.333623 0.121509
v 0.227176 0.335429 0.131988
v 0.216723 0.336177 0.157287
v 0.25241 0.333623 0.193064
v 0.277644 0.331817 0.182585
v 0.288096 0.331068 0.157287
v 0.309603 0.460205 0.13729
v 0.297002 0.466621 0.143147
v 0.291783 0.469278 0.157287
v 0.297002 0.466621 0.171427
v 0.260278 0.231571 0.110063
v 0.22608 0.230615 0.124183
v 0.211992 0.230417 0.157287
v 0.260278 0.231571 0.20451
v 0.294457 0.232476 0.190849
v 0.30862 0.232866 0.157287
v 0.273666 0.402974 0.179118
v 0.23201 0.400503 0.179118
v 0.223382 0.402559 0.157287
v 0.23201 0.400503 0.135456
v 0.273666 0.402974 0.135456
v 0.27477 0.365016 0.12466
v 0.258641 0.396666 0.083057
v 0.224564 0.406698 0.12466
v 0.201529 0.444082 0.157287
v 0.224564 0.406698 0.189914
v 0.258641 0.396666 0.231516
v 0.27477 0.365016 0.189914
v 0.315753 0.34925 0.157287
v 0.349884 0.504745 0.11813
v 0.319757 0.529758 0.157287
v 0.349884 0.504745 0.196444
v 0.380011 0.479733 0.157287
v 0.293053 0.435183 0.194613
v 0.274282 0.442716 0.175479
v 0.264335 0.459025 0.157287
v 0.282829 0.443395 0.133738
v 0.293053 0.435183 0.119961
v 0.303579 0.423311 0.137437
v 0.321772 0.41134 0.157287
v 0.323799 0.43663 0.180354
v 0.306052 0.451365 0.189909
v 0.280952 0.472203 0.157287
v 0.288304 0.4661 0.13422
v 0.323799 0.43663 0.13422
v 0.331151 0.430527 0.157287
v 0.263332 0.415426 0.1542
v 0.057536 0.443059 -0.046077
v 0.007371 0.443574 -0.104829
v -0.027476 0.407486 -0.046077
v -0.089333 0.403109 0.0
v -0.027476 0.407486 0.046077
v 0.007371 0.443574 0.104829
v 0.057536 0.443059 0.046077
v 0.104076 0.48404 0.0
v -0.018798 0.611668 -0.039102
v -0.05487 0.596574 -0.055298
v -0.105882 0.575228 0.0
v -0.05487 0.596574 0.055298
v -0.018798 0.611668 0.039102
v -0.030078 0.538693 0.04607
v -0.040034 0.493273 0.025691
v -0.066953 0.491491 0.0
v -0.035293 0.504415 -0.033256
v -0.030078 0.538693 -0.04607
v 0.003417 0.517248 -0.028033
v 0.030301 0.532187 0.0
v -0.00312 0.522731 0.031674
v -0.06013 0.526119 0.032576
v -0.072577 0.52091 0.0
v -0.06013 0.526119 -0.032576
v -2.7e-05 0.551268 -0.032576
v -2.7e-05 0.551268 0.032576
v -0.013041 0.461717 -0.004359
v 0.045756 0.69845 -0.079548
v -0.080638 0.643602 -0.159096
v -0.153611 0.611935 -0.137781
v -0.226584 0.580269 0.0
v -0.207031 0.588754 0.079548
v -0.080638 0.643602 0.159096
v 0.045756 0.69845 0.079548
v -0.055089 0.727185 -0.032741
v -0.107112 0.70461 -0.065483
v -0.137147 0.691576 -0.05671
v -0.167182 0.678542 0.0
v -0.107112 0.70461 0.065483
v -0.077077 0.717644 0.05671
v -0.047041 0.730677 0.0
v -0.124286 0.744186 0.0
v -0.062634 0.602115 0.0
v 0.068004 0.628321 -0.130273
v 0.069955 0.601955 -0.126688
v 0.09303 0.606241 -0.020072
v -0.002647 0.564722 -0.149819
v -0.051502 0.576461 -0.190733
v -0.041685 0.553838 -0.185914
v -0.126958 0.516833 -0.161006
v -0.140084 0.505082 -0.109675
v -0.21475 0.50562 -0.047683
v -0.189383 0.489744 -0.092957
v -0.200808 0.484787 0.046478
v -0.17691 0.489101 0.040144
v -0.203029 0.510706 0.095366
v -0.138986 0.538498 0.165179
v -0.126958 0.516833 0.161006
v -0.076299 0.532761 0.149819
v -0.00776 0.595443 0.177956
v 0.043589 0.590842 0.161006
v 0.034179 0.580703 0.139063
v 0.100025 0.642216 0.095366
v 0.106014 0.617931 0.092957
v 0.123466 0.652389 0.0
v 0.128863 0.627847 0.0
v -0.086226 -0.007923 -0.078966
v -0.142064 -0.007923 -0.055837
v -0.165192 -0.007923 -0.0
v -0.142064 -0.007923 0.055837
v -0.086226 -0.007923 0.078966
v -0.030389 -0.007923 0.055837
v -0.007261 -0.007923 -0.0
v 0.000653 0.08925 0.0
v -0.061077 0.098726 -0.062453
v -0.122807 0.108201 0.0
v -0.104726 0.105426 0.044161
v -0.061077 0.098726 0.062453
v -0.017428 0.092026 0.044161
v 0.011377 0.193441 -0.038771
v -0.026946 0.199323 -0.054831
v -0.065268 0.205206 -0.038771
v -0.081142 0.207643 0.0
v -0.026946 0.199323 0.054831
v 0.011377 0.193441 0.038772
v 0.027251 0.191004 0.0
v 0.046798 0.231338 -0.031586
v 0.017964 0.244233 -0.044669
v -0.022814 0.262469 0.0
v -0.01087 0.257128 0.031586
v 0.017964 0.244233 0.044669
v 0.058741 0.225997 0.0
v 0.045495 0.388875 -0.025299
v 0.022219 0.378962 -0.035778
v -0.001056 0.369049 -0.025299
v -0.010697 0.364943 0.0
v -0.001056 0.369049 0.025299
v 0.035347 0.318987 0.045416
v 0.045495 0.388875 0.025299
v 0.055136 0.39298 0.0
v -0.018925 0.521979 -0.018209
v -0.035678 0.514844 -0.025752
v -0.059371 0.504754 0.0
v -0.052432 0.50771 0.018209
v -0.018925 0.521979 0.018209
v -0.011986 0.524935 0.0
v 0.080755 0.282855 0.0
v 0.067714 0.319883 -0.032353
v 0.032413 0.281561 -0.047224
v 0.035347 0.318987 -0.045416
v -0.001785 0.280604 -0.033104
v 0.00355 0.317805 -0.031851
v -0.015873 0.280406 0.0
v 0.00355 0.317805 0.031851
v 0.032413 0.281561 0.047224
v 0.066592 0.282465 0.033563
v 0.081248 0.320239 0.0
v -0.241616 0.316457 0.103457
v -0.293052 0.294137 0.006342
v -0.395922 0.249496 0.006342
v -0.447358 0.227176 0.103457
v -0.433575 0.233157 0.159526
v -0.344487 0.271817 0.215596
v -0.255398 0.310477 0.159526
v -0.326479 0.33073 0.080379
v -0.363147 0.314818 0.057301
v -0.399816 0.298906 0.126535
v -0.363147 0.314818 0.149612
v -0.326479 0.33073 0.126535
v -0.375253 0.342714 0.103457
v -0.331797 0.242574 0.103457
v -0.217146 0.27084 0.036238
v -0.212925 0.253723 0.037936
v -0.244556 0.235728 0.026152
v -0.262287 0.251251 -0.01297
v -0.323951 0.224492 -0.030982
v -0.317031 0.208546 -0.027585
v -0.341429 0.19369 -0.002144
v -0.385614 0.197734 -0.01297
v -0.430755 0.178145 0.036238
v -0.421136 0.16337 0.037936
v -0.405389 0.165935 0.046866
v -0.447278 0.170975 0.103457
v -0.412344 0.162917 0.131752
v -0.430755 0.178145 0.170676
v -0.421137 0.16337 0.168978
v -0.385614 0.197734 0.219884
v -0.341429 0.19369 0.209057
v -0.323951 0.224492 0.237895
v -0.317031 0.208546 0.234499
v -0.262287 0.251251 0.219884
v -0.244556 0.235728 0.180762
v -0.217146 0.27084 0.170676
v -0.212925 0.253723 0.168978
v -0.19682 0.260712 0.103457
v -0.211644 0.25001 0.103457
vn -0.4785 0.4722 0.7403
vn -0.5469 0.4019 0.7344
vn 0.2037 0.244 0.9482
vn 0.8346 0.111 0.5395
vn 0.4374 0.5311 0.7257
vn 0.9717 0.111 -0.2087
vn 0.5264 0.244 -0.8145
vn 0.6661 0.5311 -0.5236
vn -0.1851 0.4722 -0.8618
vn -0.2512 0.4019 -0.8805
vn -0.6872 0.5748 -0.4442
vn -0.8001 0.5748 0.1719
vn -0.5841 0.8046 -0.107
vn -0.5559 0.1092 0.824
vn 0.2036 0.0713 0.9764
vn 0.5771 -0.2419 0.78
vn 0.8224 0.5308 -0.2047
vn 0.8237 0.0331 -0.566
vn -0.2278 0.1092 -0.9675
vn -0.8387 0.1336 -0.528
vn -0.9694 -0.1697 -0.1775
vn -0.9714 0.1336 0.1965
vn -0.391 -0.5459 0.741
vn -0.2071 -0.6304 0.7481
vn 0.216 -0.0143 0.9763
vn 0.2568 -0.037 0.9657
vn 0.7905 0.3025 0.5325
vn 0.9329 -0.3131 -0.1778
vn 0.9148 -0.3902 -0.1041
vn 0.3144 0.1226 -0.9413
vn -0.1352 -0.4222 -0.8964
vn 0.2887 -0.3394 -0.8952
vn -0.332 -0.9023 -0.275
vn -0.4079 -0.9023 0.1395
vn -0.8502 -0.5029 -0.1557
vn -0.8614 -0.4497 0.2363
vn -0.6232 -0.1264 0.7718
vn -0.4977 -0.1478 0.8547
vn 0.3338 0.6928 0.6391
vn 0.3649 0.3539 0.8612
vn 0.7172 0.6891 -0.1038
vn 0.7702 0.5883 -0.2461
vn 0.4009 0.3651 -0.8403
vn 0.122 0.4107 -0.9036
vn -0.1675 -0.1478 -0.9747
vn -0.7636 -0.3612 -0.5352
vn -0.9428 -0.1658 -0.2893
vn -0.4925 -0.195 0.8482
vn -0.2611 0.8704 0.4174
vn 0.253 0.9126 0.3211
vn 0.3504 0.9126 -0.2106
vn 0.3381 0.9151 -0.2199
vn 0.2267 0.6067 -0.7619
vn -0.1519 -0.1828 -0.9713
vn -0.4954 -0.7467 -0.4439
vn -0.2307 -0.9721 -0.0422
vn -0.6206 -0.7466 0.2396
vn 0.6022 0.6152 -0.5088
vn 0.5588 0.557 -0.6144
vn -0.8596 -0.0017 -0.5109
vn -0.7741 0.1734 -0.6089
vn -0.5974 0.1513 -0.7876
vn -0.73 0.0314 -0.6827
vn -0.5974 0.1513 0.7876
vn -0.6911 0.0698 0.7193
vn -0.859 -0.0041 0.512
vn -0.814 0.1265 0.567
vn 0.6022 0.6152 0.5088
vn 0.5355 0.527 0.6599
vn 0.3337 0.5114 0.7919
vn 0.5096 0.5129 0.6908
vn 0.3337 0.5114 -0.7919
vn 0.4652 0.5145 -0.7203
vn -0.5573 -0.4041 0.7253
vn -0.398 -0.0327 0.9168
vn -0.6101 -0.425 0.6687
vn -1.0 -0.0065 -0.0
vn -0.5555 -0.4456 -0.702
vn -0.574 -0.4613 -0.6766
vn -0.1497 0.3578 -0.9217
vn 0.7368 0.0933 -0.6696
vn 0.6974 0.0813 -0.7121
vn 0.7918 0.4789 -0.3791
vn 0.5879 0.3556 0.7265
vn 0.6238 0.3365 0.7054
vn 0.6463 0.3781 0.6628
vn -0.1746 -0.9746 0.1405
vn 0.8685 -0.4261 0.2534
vn 0.5018 -0.6074 0.6159
vn 0.4766 -0.6634 -0.5769
vn 0.8621 -0.4487 -0.2357
vn -0.1643 -0.9776 -0.1317
vn 0.1762 -0.8172 -0.5488
vn 0.1314 -0.8029 0.5814
vn 0.6911 0.3623 -0.6254
vn 0.0978 0.7741 -0.6254
vn -0.1259 0.9761 -0.1769
vn -0.1259 0.9761 0.1769
vn -0.0839 0.9965 -0.0
vn 0.0978 0.7741 0.6254
vn 0.103 0.5407 0.8349
vn 0.7012 0.4515 0.5518
vn 0.9113 0.158 0.3802
vn 0.9629 0.2698 -0.0
vn 0.9586 0.2233 -0.1769
vn 0.6954 0.3918 -0.6024
vn 0.124 0.7885 -0.6024
vn -0.1618 0.9868 -0.0
vn 0.124 0.7885 0.6024
vn 0.6954 0.3918 0.6024
vn 0.9811 0.1935 -0.0
vn 0.555 -0.0417 -0.8308
vn -0.1429 0.4613 -0.8757
vn -0.1775 0.5621 -0.8078
vn -0.2971 0.5683 -0.7673
vn -0.5762 0.7794 -0.2459
vn -0.5762 0.7794 0.2459
vn -0.3742 0.6392 0.6719
vn 0.1795 0.6181 0.7653
vn 0.3798 0.1158 0.9178
vn 0.7297 -0.1271 0.6719
vn 0.9003 -0.0234 0.4347
vn 0.9317 -0.2673 0.2459
vn 0.9317 -0.2673 -0.2459
vn -0.602 -0.6481 0.4663
vn -0.219 -0.9141 0.3414
vn -0.1375 -0.9897 -0.0403
vn -0.2942 -0.8809 -0.3708
vn -0.5414 -0.7093 -0.4514
vn -0.8129 -0.5208 -0.2606
vn -0.8825 -0.4535 0.125
vn 0.657 0.2149 -0.7226
vn 0.062 -0.953 -0.2966
vn -0.5306 -0.8344 -0.1491
vn -0.4264 -0.5786 -0.6953
vn -0.3931 -0.6371 -0.663
vn -0.6582 0.2784 -0.6995
vn -0.6531 -0.7494 -0.1092
vn -0.8685 0.4244 -0.256
vn -0.9709 -0.2359 0.0404
vn -0.8685 0.4244 0.256
vn -0.967 -0.2482 0.0583
vn -0.8376 -0.5163 -0.1786
vn -0.6582 0.2784 0.6995
vn -0.7091 -0.6773 0.1963
vn -0.6445 -0.7509 0.1441
vn -0.294 0.0255 0.9555
vn -0.3931 -0.6371 0.663
vn 0.1267 -0.2665 0.9555
vn -0.3828 -0.6537 0.6528
vn -0.6609 -0.6389 0.3937
vn 0.4909 -0.5194 0.6995
vn -0.1608 -0.9861 0.0422
vn 0.0097 -0.9262 0.3769
vn 0.7012 -0.6654 0.256
vn 0.0289 -0.93 0.3665
vn 0.0766 -0.9278 -0.3652
vn -0.4409 -0.8967 -0.04
vn 0.7012 -0.6654 -0.256
vn 0.3822 0.0527 -0.9226
vn 0.3932 0.0562 -0.9177
vn -0.3736 0.216 -0.9021
vn -0.3475 0.223 -0.9108
vn -0.8754 0.3195 -0.3626
vn -0.868 0.3246 -0.3758
vn -0.8754 0.3195 0.3626
vn -0.868 0.3246 0.3758
vn -0.3736 0.216 0.9021
vn 0.0461 0.3001 0.9528
vn 0.382 0.0582 0.9223
vn 0.9213 -0.0749 0.3816
vn 0.9212 -0.075 0.3819
vn 0.9213 -0.0749 -0.3816
vn 0.9212 -0.075 -0.3819
vn 0.3988 0.1141 -0.9099
vn -0.3648 0.1374 -0.9209
vn -0.6116 0.4228 -0.6687
vn -0.9111 0.1535 -0.3826
vn -0.9111 0.1535 0.3826
vn -0.029 -0.1887 0.9816
vn -0.3648 0.1374 0.9209
vn 0.3988 0.1141 0.9099
vn 0.9232 0.0974 0.3718
vn 0.9232 0.0974 -0.3718
vn 0.4075 0.3249 -0.8534
vn 0.0685 0.1533 -0.9858
vn -0.6428 0.3393 -0.6868
vn -0.6949 0.6182 -0.3673
vn -0.7057 0.6278 0.3284
vn -0.2915 0.4316 0.8537
vn -0.394 0.6672 0.6321
vn 0.3759 -0.0733 0.9238
vn 0.9254 0.0505 0.3757
vn 0.9366 0.0869 0.3395
vn 0.8074 -0.4674 -0.36
vn 0.3867 0.0664 -0.9198
vn -0.0119 0.2006 -0.9796
vn -0.3777 0.0772 -0.9227
vn -0.9197 0.0887 -0.3826
vn -0.923 0.0926 -0.3735
vn -0.7088 -0.0698 0.702
vn -0.923 0.0926 0.3735
vn -0.0119 0.2006 0.9796
vn 0.3867 0.0664 0.9198
vn 0.9227 0.0701 0.3791
vn 0.9805 0.1968 -0.0
vn 0.9227 0.0701 -0.3791
vn 0.6979 0.0356 -0.7154
vn 0.9093 0.1901 -0.3701
vn 0.3882 0.1322 -0.912
vn -0.3824 0.0738 -0.9211
vn -0.3781 0.0727 -0.9229
vn -0.9195 0.0387 -0.3911
vn -0.923 0.0413 -0.3826
vn -0.6993 0.0262 0.7144
vn -0.7065 0.0316 0.707
vn 0.3644 0.1383 0.9209
vn 0.3882 0.1322 0.912
vn 0.9039 0.1889 0.3837
vn 0.9102 0.1849 0.3706
vn -0.1421 -0.3177 -0.9375
vn -0.3729 0.2812 -0.8842
vn -0.6246 0.6962 -0.3539
vn -0.7114 0.636 -0.299
vn -0.5561 0.6199 0.5535
vn -0.6021 0.3772 0.7037
vn 0.359 -0.3195 0.877
vn 0.5346 -0.7766 0.3334
vn 0.6294 -0.7334 0.2571
vn 0.6906 -0.1727 -0.7023
vn -0.0073 0.1226 0.9924
vn -0.6604 0.6771 0.3248
vn -0.6604 0.6771 -0.3248
vn -0.6427 0.6741 -0.3639
vn -0.2448 0.346 -0.9057
vn -0.002 0.0333 -0.9994
vn 0.8241 -0.2488 -0.5088
vn 0.7525 -0.2372 -0.6144
vn -0.3997 0.761 -0.5109
vn -0.2049 0.7664 -0.6088
vn -0.1426 0.5995 -0.7876
vn -0.3103 0.6615 -0.6827
vn -0.1426 0.5995 0.7876
vn -0.2583 0.6448 0.7193
vn -0.4015 0.7594 0.512
vn -0.2649 0.78 0.567
vn 0.8241 -0.2488 0.5088
vn 0.4212 -0.1694 0.891
vn 0.6078 -0.0589 0.7919
vn 0.7662 -0.4655 0.443
vn 0.6078 -0.0589 -0.7919
vn 0.6715 -0.174 -0.7203
vn -0.4634 0.5696 0.6789
vn -0.4302 0.5425 0.7216
vn -0.7093 0.1854 -0.6801
vn -0.5758 0.7261 -0.3757
vn -0.7308 0.1901 -0.6556
vn 0.3375 -0.6717 -0.6595
vn 0.3203 -0.6523 -0.687
vn 0.8334 -0.4074 -0.3734
vn 0.8334 -0.4074 0.3734
vn 0.4224 -0.0768 0.9031
vn -0.4585 0.2729 0.8458
vn -0.5941 0.5154 0.6176
vn -0.5878 0.3963 0.7053
vn -0.7666 0.5169 -0.3811
vn -0.4997 0.5026 -0.7055
vn -0.4245 0.3246 -0.8452
vn 0.4071 -0.3547 -0.8417
vn 0.656 -0.6514 -0.3814
vn 0.5904 -0.3927 -0.7051
vn 0.656 -0.6514 0.3814
vn 0.2391 -0.309 0.9205
vn 0.5904 -0.3927 0.7051
vn -0.9446 -0.2967 0.1405
vn 0.0246 -0.9671 0.2534
vn -0.3059 -0.726 0.6159
vn -0.3671 -0.7297 -0.5769
vn 0.0016 -0.9718 -0.2357
vn -0.9425 -0.3072 -0.1317
vn -0.6426 -0.5346 -0.5488
vn -0.6507 -0.4884 0.5814
vn 0.6214 0.5811 -0.5255
vn 0.6414 0.5698 -0.5136
vn -0.8751 -0.0469 -0.4817
vn -0.8665 -0.0335 0.498
vn 0.6261 0.5724 0.5295
vn 0.6234 0.5737 0.5313
vn -0.2592 -0.3475 0.9011
vn -0.5836 -0.4924 0.6457
vn -0.9103 -0.174 0.3756
vn -0.4929 -0.5427 -0.6801
vn -0.9103 -0.174 -0.3756
vn -0.2848 -0.2973 -0.9113
vn 0.4347 -0.0758 -0.8974
vn 0.7265 -0.0182 -0.687
vn 0.699 -0.0982 0.7083
vn 0.4346 -0.0755 0.8975
vn -0.2967 -0.273 0.9151
vn -0.789 -0.4838 0.3788
vn -0.689 -0.1754 0.7033
vn -0.789 -0.4838 -0.3788
vn -0.689 -0.1754 -0.7033
vn -0.2967 -0.273 -0.9151
vn 0.4006 0.0255 -0.9159
vn 0.7693 0.1726 -0.6151
vn 0.7269 0.607 0.3211
vn 0.9549 0.2968 -0.0
vn 0.4006 0.0255 0.9159
vn -0.0169 0.8355 -0.5493
vn -0.4614 0.678 -0.5723
vn -0.8116 0.4906 -0.3171
vn -0.8457 0.5112 0.1533
vn -0.5987 0.583 0.5493
vn -0.68 0.6317 0.3723
vn 0.0175 0.8099 0.5863
vn -0.18 0.8 0.5723
vn 0.0989 0.9571 0.2724
vn 0.3281 0.9447 -0.0
vn 0.2043 0.9668 -0.1533
vn -0.0391 0.8506 -0.5243
vn -0.4627 0.6998 -0.5443
vn -0.7978 0.5214 -0.3027
vn -0.7334 0.4793 0.482
vn -0.1951 0.8159 0.5443
vn 0.1642 0.9388 0.3027
vn 0.1704 0.9745 -0.1458
vn 0.2105 0.6159 -0.7592
vn 0.2142 0.4909 -0.8445
vn -0.431 0.0983 -0.897
vn -0.3725 0.2584 -0.8914
vn -0.7852 -0.0698 -0.6152
vn -0.888 0.1392 -0.4383
vn -0.9738 -0.2101 0.0873
vn -0.9711 -0.0014 0.2388
vn -0.752 0.0937 0.6525
vn -0.605 0.3765 0.7016
vn -0.1576 0.1441 0.9769
vn 0.2105 0.6159 0.7592
vn 0.3458 0.548 0.7617
vn 0.6643 0.7083 0.2388
vn 0.5099 0.8602 -0.0
vn 0.7386 0.533 -0.4129
vn 0.0596 -0.9626 0.2641
vn 0.4597 -0.8008 0.3839
vn 0.7175 -0.6889 0.1029
vn 0.6231 -0.7299 -0.281
vn 0.3394 -0.865 -0.3695
vn 0.006 -0.9877 -0.1563
vn 0.4721 -0.879 -0.0668
vn 0.4784 -0.0834 -0.8741
vn 0.4643 0.0128 -0.8856
vn 0.5102 -0.8023 -0.3098
vn -0.1595 -0.2714 -0.9492
vn 0.3662 -0.9231 -0.1177
vn -0.7545 0.3598 -0.5489
vn 0.2446 -0.9569 -0.1565
vn -0.6262 -0.7756 -0.0789
vn 0.2872 -0.9574 -0.0315
vn 0.1723 -0.9848 -0.0209
vn -0.9647 -0.2484 0.0879
vn -0.3071 -0.8465 0.4349
vn -0.5636 -0.4467 0.6948
vn 0.2106 -0.9682 0.1351
vn 0.3161 -0.9448 0.0862
vn -0.0109 -0.195 0.9807
vn 0.2255 -0.5196 0.8241
vn 0.3565 -0.8216 0.4448
vn 0.4061 -0.8834 0.234
vn 0.2969 0.6112 0.7337
vn 0.7112 0.1065 0.6948
vn 0.5318 -0.8323 0.1565
vn 0.4779 -0.8777 0.0359
vn 0.9445 0.2077 0.2543
vn 0.5031 -0.8637 0.0315
vn 0.5491 -0.8314 -0.0854
vn 0.906 0.0095 -0.4232
vn 0.8888 0.1954 -0.4145
vn 0.7057 -0.0571 -0.7062
vn -0.3727 0.2272 -0.8997
vn -0.6116 0.4229 -0.6687
vn -0.3475 0.223 0.9108
vn 0.3822 0.0527 0.9226
vn 0.3932 0.0562 0.9177
vn 0.7059 -0.0575 -0.7059
vn 0.648 -0.3233 -0.6896
vn 0.3782 -0.0583 -0.9239
vn -0.3546 0.1897 -0.9156
vn -0.6953 0.1299 -0.7069
vn -0.8558 0.3586 -0.3729
vn -0.8558 0.3586 0.3729
vn -0.6091 0.4288 0.6672
vn -0.3546 0.1897 0.9156
vn 0.3782 -0.0583 0.9239
vn 0.8945 -0.2338 0.3809
vn 0.8945 -0.2338 -0.3809
vn 0.3617 -0.1537 -0.9195
vn 0.3509 -0.1528 -0.9239
vn -0.2071 0.6491 -0.7319
vn -0.4524 0.6014 -0.6585
vn -0.6511 0.6927 -0.3101
vn -0.5381 0.5724 0.6187
vn -0.8389 0.3872 0.3827
vn -0.2153 0.4153 0.8838
vn 0.3617 -0.1537 0.9195
vn 0.6919 -0.1712 0.7015
vn 0.7024 -0.6321 0.3273
vn 0.7196 -0.6094 -0.3329
vn 0.6915 -0.6223 -0.3667
vn 0.3268 0.2073 -0.9221
vn -0.3759 -0.0921 -0.9221
vn -0.8728 -0.3039 -0.3819
vn -0.6923 -0.1666 -0.7022
vn -0.8728 -0.3039 0.3819
vn -0.6843 -0.218 0.6959
vn 0.2225 0.2397 0.945
vn -0.0188 0.0441 0.9989
vn 0.8237 0.419 0.3819
vn 0.8237 0.419 -0.3819
vn 0.9225 -0.0122 -0.3858
vn 0.6595 -0.3493 -0.6656
vn 0.3738 0.0155 -0.9274
vn -0.3936 0.0751 -0.9162
vn -0.3823 0.0858 -0.9201
vn -0.9109 0.1437 -0.3868
vn -0.8875 0.4609 -0.0
vn -0.3936 0.0751 0.9162
vn 0.3707 0.0158 0.9286
vn 0.6559 0.3429 0.6724
vn 0.9213 -0.0122 0.3886
vn 0.333 -0.1921 -0.9232
vn 0.6989 -0.0224 -0.7149
vn -0.7635 -0.2217 -0.6065
vn -0.3823 0.085 -0.9201
vn -0.8675 0.3357 -0.3672
vn -0.8618 0.3335 0.3823
vn -0.926 0.2187 0.3078
vn -0.3803 0.0842 0.921
vn -0.3814 0.0866 0.9203
vn 0.5385 -0.4846 0.6894
vn 0.368 -0.2045 0.9071
vn 0.869 -0.3365 0.3628
vn 0.8617 -0.3336 -0.3823
vn 0.361 0.2092 -0.9088
vn 0.3217 0.2185 -0.9213
vn -0.3936 0.0613 -0.9172
vn -0.4359 0.0755 -0.8968
vn -0.9317 -0.0376 -0.3612
vn -0.9572 -0.2893 -0.0
vn -0.9317 -0.0376 0.3612
vn -0.3937 0.0817 0.9156
vn 0.6982 0.1026 0.7085
vn 0.8698 0.3122 0.3821
vn 0.8746 0.314 -0.3693
vn 0.8674 0.3185 -0.3823
vn 0.2449 0.9085 -0.3385
vn -0.084 0.8777 -0.4717
vn -0.293 0.6752 -0.677
vn -0.7613 0.5906 -0.2675
vn -0.0169 0.8355 0.5493
vn 0.2043 0.9668 0.1533
vn 0.1659 0.9861 -0.0
vn -0.8735 0.2799 -0.3983
vn -0.5945 0.6096 0.5243
vn -0.0391 0.8506 0.5243
vn 0.2386 0.9711 -0.0
vn 0.4452 0.6132 -0.6525
vn 0.4103 0.817 -0.4051
vn 0.0657 0.4485 -0.8914
vn -0.2333 0.5377 -0.8102
vn -0.752 0.0937 -0.6525
vn -0.877 0.2584 -0.4051
vn -0.9711 -0.0014 -0.2388
vn -0.3725 0.2584 0.8914
vn 0.0657 0.4485 0.8914
vn 0.1383 0.699 0.7016
vn 0.4452 0.6132 0.6525
vn 0.7718 0.6202 0.1399
vn 0.7718 0.6202 -0.1399
vn 0.2709 -0.8827 0.3839
vn 0.5654 -0.767 0.3035
vn 0.7086 -0.7048 0.033
vn 0.2709 -0.8827 -0.3839
vn 0.061 -0.9858 -0.1562
vn 0.061 -0.9858 0.1562
vn 0.7112 0.1065 -0.6948
vn 0.5609 -0.6504 -0.5123
vn 0.3071 -0.0689 -0.9492
vn 0.6084 -0.6036 -0.5152
vn 0.424 -0.898 -0.1177
vn 0.0367 -0.8779 -0.4775
vn -0.5636 -0.4467 -0.6948
vn 0.0318 -0.8869 -0.4608
vn 0.341 -0.8722 -0.3508
vn -0.7969 -0.548 -0.2543
vn 0.0781 -0.9863 0.1456
vn -0.1858 -0.9813 -0.0501
vn -0.7969 -0.548 0.2543
vn -0.1978 -0.9796 -0.0348
vn 0.0533 -0.8445 0.5329
vn -0.1595 -0.2714 0.9492
vn 0.0367 -0.8779 0.4775
vn 0.3071 -0.0689 0.9492
vn 0.424 -0.898 0.1177
vn 0.6084 -0.6036 0.5152
vn 0.5609 -0.6504 0.5123
vn 0.51 -0.8582 0.0586
vn 0.5843 -0.8095 0.0573
vn 0.51 -0.8582 -0.0586
vn 0.5843 -0.8095 -0.0573
vn 0.9445 0.2077 -0.2543
usemtl Elf_bush_Map
f 1//1 2//1 9//1
f 9//2 2//2 10//2
f 2//3 3//3 10//3
f 4//4 11//4 3//4
f 3//5 11//5 10//5
f 4//6 5//6 11//6
f 6//7 12//7 5//7
f 5//8 12//8 11//8
f 7//9 13//9 6//9
f 6//10 13//10 12//10
f 7//11 8//11 13//11
f 1//12 9//12 8//12
f 8//13 9//13 13//13
f 9//14 10//14 14//14
f 14//14 10//14 15//14
f 10//15 16//15 15//15
f 10//16 11//16 16//16
f 11//17 17//17 16//17
f 11//18 12//18 17//18
f 13//19 18//19 12//19
f 12//19 18//19 17//19
f 13//20 19//20 18//20
f 13//21 9//21 19//21
f 19//22 9//22 14//22
f 15//23 21//23 14//23
f 14//24 21//24 20//24
f 16//25 22//25 15//25
f 15//26 22//26 21//26
f 16//27 23//27 22//27
f 16//28 17//28 23//28
f 23//29 17//29 24//29
f 17//30 25//30 24//30
f 17//31 18//31 25//31
f 25//32 18//32 26//32
f 18//33 19//33 26//33
f 14//34 20//34 19//34
f 19//35 20//35 26//35
f 27//36 28//36 36//36
f 28//37 27//37 29//37
f 29//38 27//38 21//38
f 29//39 21//39 30//39
f 29//40 30//40 31//40
f 31//41 30//41 33//41
f 33//42 30//42 32//42
f 32//43 25//43 33//43
f 33//44 25//44 34//44
f 34//45 25//45 35//45
f 35//46 36//46 34//46
f 34//47 36//47 28//47
f 20//48 21//48 27//48
f 21//49 22//49 30//49
f 22//50 23//50 30//50
f 23//51 24//51 30//51
f 30//52 24//52 32//52
f 24//53 25//53 32//53
f 25//54 26//54 35//54
f 26//55 36//55 35//55
f 26//56 20//56 36//56
f 36//57 20//57 27//57
f 38//58 49//58 37//58
f 37//59 49//59 50//59
f 39//60 48//60 38//60
f 38//61 48//61 49//61
f 40//62 47//62 39//62
f 39//63 47//63 48//63
f 40//64 41//64 47//64
f 47//65 41//65 46//65
f 41//66 42//66 46//66
f 46//67 42//67 45//67
f 42//68 43//68 45//68
f 45//69 43//69 52//69
f 44//70 51//70 43//70
f 43//71 51//71 52//71
f 44//72 37//72 51//72
f 51//73 37//73 50//73
f 46//74 45//74 54//74
f 54//75 45//75 53//75
f 46//76 54//76 47//76
f 47//77 54//77 55//77
f 48//78 47//78 55//78
f 48//79 55//79 49//79
f 49//80 55//80 56//80
f 50//81 49//81 56//81
f 50//82 56//82 51//82
f 51//83 56//83 57//83
f 51//84 57//84 52//84
f 52//85 57//85 53//85
f 45//86 52//86 53//86
f 38//87 37//87 58//87
f 39//88 38//88 58//88
f 40//89 39//89 58//89
f 41//90 40//90 58//90
f 42//91 41//91 58//91
f 43//92 42//92 58//92
f 44//93 43//93 58//93
f 37//94 44//94 58//94
f 59//95 67//95 66//95
f 59//95 60//95 67//95
f 60//96 61//96 67//96
f 61//96 68//96 67//96
f 61//97 62//97 68//97
f 63//98 69//98 62//98
f 62//99 69//99 68//99
f 63//100 70//100 69//100
f 63//101 64//101 70//101
f 64//102 71//102 70//102
f 64//103 65//103 71//103
f 65//104 66//104 71//104
f 65//105 59//105 66//105
f 66//106 67//106 72//106
f 67//107 68//107 72//107
f 68//108 69//108 72//108
f 69//109 70//109 72//109
f 70//110 71//110 72//110
f 71//111 66//111 72//111
f 74//112 76//112 59//112
f 76//112 60//112 59//112
f 76//113 79//113 60//113
f 60//114 79//114 61//114
f 79//115 80//115 61//115
f 80//116 83//116 61//116
f 61//116 83//116 62//116
f 83//117 84//117 62//117
f 62//117 84//117 63//117
f 84//118 87//118 63//118
f 87//119 90//119 63//119
f 63//119 90//119 64//119
f 90//120 91//120 64//120
f 91//121 94//121 64//121
f 64//122 94//122 65//122
f 94//123 96//123 65//123
f 96//124 74//124 65//124
f 65//124 74//124 59//124
f 78//125 75//125 73//125
f 82//126 78//126 73//126
f 86//127 82//127 73//127
f 89//128 86//128 73//128
f 93//129 89//129 73//129
f 95//130 93//130 73//130
f 75//131 95//131 73//131
f 74//132 77//132 76//132
f 74//133 75//133 77//133
f 75//134 78//134 77//134
f 77//135 78//135 76//135
f 76//136 78//136 79//136
f 79//137 81//137 80//137
f 79//138 78//138 81//138
f 81//138 78//138 82//138
f 80//139 81//139 83//139
f 81//140 82//140 83//140
f 83//141 85//141 84//141
f 82//142 86//142 83//142
f 83//143 86//143 85//143
f 84//144 85//144 87//144
f 87//144 85//144 88//144
f 85//145 86//145 88//145
f 88//146 86//146 89//146
f 87//147 88//147 90//147
f 88//148 89//148 90//148
f 90//149 92//149 91//149
f 89//150 93//150 90//150
f 90//151 93//151 92//151
f 91//152 92//152 94//152
f 92//153 93//153 94//153
f 94//154 93//154 95//154
f 94//155 97//155 96//155
f 94//156 95//156 97//156
f 74//157 97//157 75//157
f 75//158 97//158 95//158
f 74//159 96//159 97//159
f 99//160 107//160 98//160
f 98//161 107//161 106//161
f 100//162 108//162 99//162
f 99//163 108//163 107//163
f 101//164 109//164 100//164
f 100//165 109//165 108//165
f 101//166 102//166 109//166
f 109//167 102//167 110//167
f 102//168 103//168 110//168
f 110//169 103//169 111//169
f 103//170 104//170 111//170
f 104//171 105//171 111//171
f 111//172 105//172 112//172
f 98//173 106//173 105//173
f 105//174 106//174 112//174
f 106//175 107//175 113//175
f 113//175 107//175 114//175
f 107//176 108//176 114//176
f 114//177 108//177 115//177
f 108//178 109//178 115//178
f 110//179 116//179 109//179
f 109//179 116//179 115//179
f 111//180 117//180 110//180
f 110//181 117//181 116//181
f 111//182 118//182 117//182
f 112//183 119//183 111//183
f 111//183 119//183 118//183
f 112//184 106//184 119//184
f 119//184 106//184 113//184
f 114//185 121//185 113//185
f 113//186 121//186 120//186
f 114//187 115//187 121//187
f 115//188 122//188 121//188
f 115//189 116//189 122//189
f 117//190 123//190 116//190
f 116//191 123//191 122//191
f 117//192 118//192 123//192
f 118//193 119//193 123//193
f 123//194 119//194 120//194
f 119//195 113//195 120//195
f 124//196 125//196 145//196
f 145//197 125//197 144//197
f 125//198 126//198 144//198
f 126//199 127//199 144//199
f 144//200 127//200 143//200
f 128//201 142//201 127//201
f 127//202 142//202 143//202
f 128//203 141//203 142//203
f 128//204 129//204 141//204
f 129//205 130//205 141//205
f 141//206 130//206 145//206
f 130//207 124//207 145//207
f 135//208 124//208 140//208
f 140//209 124//209 130//209
f 135//210 125//210 124//210
f 135//211 136//211 125//211
f 125//212 136//212 126//212
f 136//213 137//213 126//213
f 126//214 137//214 127//214
f 138//215 128//215 137//215
f 137//216 128//216 127//216
f 139//217 129//217 138//217
f 138//218 129//218 128//218
f 140//219 130//219 139//219
f 139//220 130//220 129//220
f 120//221 121//221 135//221
f 121//222 136//222 135//222
f 122//223 137//223 121//223
f 121//224 137//224 136//224
f 122//225 138//225 137//225
f 122//226 123//226 138//226
f 123//227 139//227 138//227
f 123//228 120//228 139//228
f 139//229 120//229 140//229
f 120//230 135//230 140//230
f 142//231 141//231 134//231
f 143//232 142//232 133//232
f 143//233 133//233 144//233
f 144//234 133//234 132//234
f 144//235 132//235 131//235
f 144//236 131//236 145//236
f 147//237 162//237 146//237
f 146//238 162//238 163//238
f 148//239 161//239 147//239
f 147//240 161//240 162//240
f 149//241 160//241 148//241
f 148//242 160//242 161//242
f 149//243 150//243 160//243
f 160//244 150//244 159//244
f 150//245 151//245 159//245
f 159//246 151//246 158//246
f 151//247 152//247 158//247
f 158//248 152//248 165//248
f 153//249 164//249 152//249
f 152//250 164//250 165//250
f 153//251 146//251 164//251
f 164//252 146//252 163//252
f 159//253 158//253 166//253
f 160//254 159//254 167//254
f 161//255 160//255 168//255
f 168//256 160//256 167//256
f 162//257 161//257 168//257
f 163//258 162//258 169//258
f 163//259 169//259 164//259
f 164//260 169//260 170//260
f 165//261 164//261 170//261
f 158//262 165//262 166//262
f 159//263 166//263 156//263
f 159//264 156//264 167//264
f 167//265 156//265 155//265
f 167//266 155//266 168//266
f 168//267 155//267 154//267
f 162//268 168//268 154//268
f 169//269 162//269 154//269
f 170//270 169//270 157//270
f 157//271 169//271 154//271
f 165//272 170//272 157//272
f 166//273 165//273 156//273
f 156//274 165//274 157//274
f 147//275 146//275 171//275
f 148//276 147//276 171//276
f 149//277 148//277 171//277
f 150//278 149//278 171//278
f 151//279 150//279 171//279
f 152//280 151//280 171//280
f 153//281 152//281 171//281
f 146//282 153//282 171//282
f 172//283 173//283 190//283
f 190//284 173//284 189//284
f 174//60 188//60 173//60
f 173//285 188//285 189//285
f 175//62 187//62 174//62
f 174//63 187//63 188//63
f 175//64 176//64 187//64
f 187//65 176//65 186//65
f 176//66 177//66 186//66
f 186//286 177//286 185//286
f 178//287 192//287 177//287
f 177//288 192//288 185//288
f 179//70 191//70 178//70
f 178//71 191//71 192//71
f 179//72 172//72 191//72
f 191//73 172//73 190//73
f 186//289 185//289 193//289
f 186//290 193//290 187//290
f 187//291 193//291 194//291
f 188//292 187//292 195//292
f 195//293 187//293 194//293
f 189//294 188//294 195//294
f 190//295 189//295 196//295
f 191//296 190//296 196//296
f 192//297 191//297 197//297
f 185//298 192//298 197//298
f 193//299 185//299 183//299
f 194//300 193//300 182//300
f 182//301 193//301 183//301
f 194//302 182//302 195//302
f 195//303 182//303 181//303
f 189//304 195//304 181//304
f 196//305 189//305 180//305
f 180//305 189//305 181//305
f 191//306 196//306 180//306
f 191//307 180//307 197//307
f 197//308 180//308 184//308
f 197//309 184//309 185//309
f 185//309 184//309 183//309
f 173//87 172//87 198//87
f 174//88 173//88 198//88
f 175//89 174//89 198//89
f 176//90 175//90 198//90
f 177//91 176//91 198//91
f 178//92 177//92 198//92
f 179//93 178//93 198//93
f 172//94 179//94 198//94
f 199//310 200//310 206//310
f 200//310 207//310 206//310
f 200//311 201//311 207//311
f 207//311 201//311 208//311
f 201//312 202//312 208//312
f 208//312 202//312 209//312
f 202//313 203//313 209//313
f 204//314 210//314 203//314
f 203//315 210//315 209//315
f 205//316 211//316 204//316
f 204//317 211//317 210//317
f 205//318 212//318 211//318
f 205//319 199//319 212//319
f 199//320 206//320 212//320
f 206//321 207//321 213//321
f 207//322 208//322 213//322
f 208//323 209//323 213//323
f 209//324 210//324 213//324
f 210//325 211//325 213//325
f 211//326 212//326 213//326
f 212//327 206//327 213//327
f 215//328 200//328 199//328
f 215//329 219//329 200//329
f 221//330 201//330 219//330
f 219//331 201//331 200//331
f 221//332 223//332 201//332
f 223//333 202//333 201//333
f 223//334 227//334 202//334
f 202//335 227//335 203//335
f 227//336 228//336 203//336
f 203//337 228//337 204//337
f 228//338 231//338 204//338
f 231//339 205//339 204//339
f 231//340 234//340 205//340
f 234//341 236//341 205//341
f 205//342 236//342 199//342
f 236//343 215//343 199//343
f 218//344 217//344 214//344
f 222//345 218//345 214//345
f 226//346 222//346 214//346
f 230//347 226//347 214//347
f 233//348 230//348 214//348
f 217//349 233//349 214//349
f 216//350 217//350 218//350
f 215//351 216//351 219//351
f 219//352 216//352 220//352
f 216//353 218//353 220//353
f 219//354 220//354 221//354
f 220//355 218//355 221//355
f 221//355 218//355 222//355
f 221//356 224//356 223//356
f 221//357 222//357 224//357
f 223//358 224//358 225//358
f 222//359 226//359 224//359
f 224//360 226//360 225//360
f 223//361 225//361 227//361
f 225//362 229//362 227//362
f 227//363 229//363 228//363
f 225//364 226//364 229//364
f 229//365 226//365 230//365
f 228//366 229//366 231//366
f 231//367 229//367 232//367
f 229//368 230//368 232//368
f 232//369 230//369 233//369
f 231//370 232//370 234//370
f 234//371 232//371 235//371
f 232//372 233//372 235//372
f 235//373 233//373 217//373
f 234//374 235//374 236//374
f 236//374 235//374 237//374
f 235//375 217//375 237//375
f 217//376 216//376 237//376
f 216//377 215//377 237//377
f 237//378 215//378 236//378
f 238//379 246//379 245//379
f 238//380 239//380 246//380
f 240//164 247//164 239//164
f 239//381 247//381 246//381
f 240//166 241//166 247//166
f 247//167 241//167 248//167
f 241//168 242//168 248//168
f 248//382 242//382 249//382
f 242//383 243//383 249//383
f 249//384 243//384 250//384
f 243//171 244//171 250//171
f 250//172 244//172 245//172
f 244//385 238//385 245//385
f 245//386 246//386 251//386
f 251//387 246//387 252//387
f 246//388 253//388 252//388
f 246//389 247//389 253//389
f 253//390 247//390 254//390
f 247//391 248//391 254//391
f 254//392 248//392 255//392
f 248//393 249//393 255//393
f 249//394 250//394 255//394
f 255//394 250//394 256//394
f 250//395 245//395 256//395
f 256//395 245//395 257//395
f 245//396 251//396 257//396
f 252//397 259//397 251//397
f 251//398 259//398 258//398
f 253//399 260//399 252//399
f 252//400 260//400 259//400
f 253//401 254//401 260//401
f 254//402 255//402 260//402
f 260//403 255//403 261//403
f 255//404 262//404 261//404
f 255//405 256//405 262//405
f 262//406 256//406 263//406
f 256//407 257//407 263//407
f 251//408 258//408 257//408
f 257//409 258//409 263//409
f 264//410 265//410 272//410
f 272//410 265//410 273//410
f 265//411 266//411 273//411
f 267//412 274//412 266//412
f 266//413 274//413 273//413
f 267//414 268//414 274//414
f 274//414 268//414 275//414
f 268//415 269//415 275//415
f 269//416 270//416 275//416
f 275//417 270//417 276//417
f 270//418 271//418 276//418
f 276//418 271//418 277//418
f 271//419 264//419 277//419
f 277//419 264//419 272//419
f 278//420 279//420 288//420
f 278//421 280//421 279//421
f 279//422 280//422 281//422
f 281//423 280//423 283//423
f 283//424 280//424 282//424
f 283//425 282//425 284//425
f 283//426 284//426 285//426
f 285//427 286//427 269//427
f 286//428 287//428 269//428
f 269//429 287//429 288//429
f 288//430 287//430 278//430
f 259//431 280//431 258//431
f 258//432 280//432 278//432
f 260//433 282//433 259//433
f 259//434 282//434 280//434
f 260//435 284//435 282//435
f 260//436 261//436 284//436
f 284//437 261//437 285//437
f 262//438 286//438 261//438
f 261//439 286//439 285//439
f 263//440 287//440 262//440
f 262//441 287//441 286//441
f 263//442 278//442 287//442
f 263//443 258//443 278//443
f 279//444 281//444 264//444
f 264//445 281//445 265//445
f 281//446 283//446 265//446
f 265//447 283//447 266//447
f 283//448 267//448 266//448
f 283//449 285//449 267//449
f 267//450 285//450 268//450
f 285//451 269//451 268//451
f 269//452 288//452 270//452
f 288//453 271//453 270//453
f 288//454 279//454 271//454
f 271//455 279//455 264//455
f 289//456 290//456 296//456
f 290//457 297//457 296//457
f 290//458 291//458 297//458
f 291//459 292//459 297//459
f 292//459 298//459 297//459
f 292//313 293//313 298//313
f 293//314 294//314 298//314
f 298//314 294//314 299//314
f 294//460 295//460 299//460
f 299//460 295//460 300//460
f 295//461 289//461 300//461
f 289//462 296//462 300//462
f 296//321 297//321 301//321
f 297//463 298//463 301//463
f 298//464 299//464 301//464
f 299//465 300//465 301//465
f 300//466 296//466 301//466
f 306//467 290//467 303//467
f 303//468 290//468 289//468
f 306//469 307//469 290//469
f 310//331 291//331 307//331
f 307//470 291//470 290//470
f 310//471 311//471 291//471
f 291//472 311//472 292//472
f 311//473 314//473 292//473
f 314//335 316//335 292//335
f 292//335 316//335 293//335
f 316//336 318//336 293//336
f 293//337 318//337 294//337
f 318//474 320//474 294//474
f 320//475 322//475 294//475
f 294//476 322//476 295//476
f 322//477 324//477 295//477
f 326//478 289//478 324//478
f 324//341 289//341 295//341
f 326//479 303//479 289//479
f 309//480 305//480 302//480
f 313//481 309//481 302//481
f 315//482 313//482 302//482
f 319//347 315//347 302//347
f 323//483 319//483 302//483
f 327//484 323//484 302//484
f 305//485 327//485 302//485
f 303//486 304//486 306//486
f 304//487 305//487 306//487
f 306//488 308//488 307//488
f 306//489 305//489 308//489
f 308//490 305//490 309//490
f 307//354 308//354 310//354
f 308//491 309//491 310//491
f 310//492 312//492 311//492
f 309//493 313//493 310//493
f 310//494 313//494 312//494
f 311//495 312//495 314//495
f 312//496 313//496 314//496
f 314//497 313//497 315//497
f 314//498 317//498 316//498
f 314//499 315//499 317//499
f 316//363 317//363 318//363
f 315//365 319//365 317//365
f 317//500 319//500 318//500
f 318//501 321//501 320//501
f 318//502 319//502 321//502
f 320//503 321//503 322//503
f 319//504 323//504 321//504
f 321//505 323//505 322//505
f 322//371 325//371 324//371
f 322//506 323//506 325//506
f 324//374 325//374 326//374
f 323//507 327//507 325//507
f 325//508 327//508 326//508
f 305//509 304//509 327//509
f 327//510 304//510 326//510
f 304//511 303//511 326//511