mtllib flat.mtl
v 0.509907 -0.000512 0.568904
v 0.531457 -0.000512 0.401505
v 0.362484 -0.000512 0.317144
v 0.127384 -0.000512 0.346556
v -0.007867 -0.000512 0.506132
v 0.082341 -0.000512 0.662755
v 0.304163 -0.000512 0.684941
v 0.364928 0.17086 0.296976
v 0.098283 0.046819 0.369759
v -0.02456 0.044282 0.520696
v 0.081059 0.048632 0.646666
v 0.291788 0.17454 0.683286
v 0.393013 0.177891 0.561983
v 0.511536 0.092974 0.569346
v 0.422008 0.174488 0.419384
v 0.519456 0.094777 0.402862
v 0.194673 -0.000512 0.703187
v 0.200742 0.104639 0.70397
v 0.232775 -0.000512 0.316322
v 0.214912 0.107988 0.304906
v -0.262003 -0.000512 0.75428
v -0.2134 -0.000512 0.735087
v -0.215801 -0.000512 0.676663
v -0.258935 -0.000512 0.617329
v -0.322421 -0.000512 0.604529
v -0.351389 -0.000512 0.652407
v -0.324229 -0.000512 0.715859
v -0.209968 0.051193 0.67431
v -0.269577 0.012789 0.61291
v -0.328866 0.012004 0.602182
v -0.34722 0.013351 0.649653
v -0.325631 0.052332 0.712256
v -0.277609 0.05337 0.721556
v -0.261879 0.027079 0.754788
v -0.215563 0.027637 0.732036
v -0.34555 -0.000512 0.688906
v -0.456204 -0.000512 0.214987
v -0.37205 -0.000512 0.317843
v -0.391462 0.207649 0.172463
v -0.330836 0.165216 0.253878
v 0.333003 -0.000512 0.051447
v -0.123589 -0.000512 0.352681
v -0.112385 0.268012 0.311639
v -0.373544 0.25326 -0.013766
v -0.04141 0.254839 -0.308346
v -0.443564 -0.000512 -0.04117
v -0.033607 -0.000512 -0.368327
v 0.326818 -0.000512 -0.100463
v 0.231805 -0.000512 -0.354473
v 0.158318 -0.000512 0.283433
v -0.322955 -0.000512 -0.291476
v -0.268089 0.254288 -0.237757
v 0.298911 0.123878 0.053052
v 0.169643 0.227324 -0.004615
v 0.216354 0.144198 -0.318038
v 0.144741 0.122482 0.254623
v 0.150654 0.034068 0.274184
v -0.115315 0.096733 0.351159
v -0.359821 0.097766 0.300209
v -0.450231 0.100175 0.223348
v -0.428368 0.101532 -0.041085
v -0.317405 0.105194 -0.269626
v -0.034189 0.102018 -0.347039
v 0.229759 0.037252 -0.347353
v 0.33457 0.053051 -0.110002
v 0.316009 -0.000512 0.066338
vn 0.9917 -0.0179 0.1277
vn 0.9911 0.1241 0.0485
vn 0.4456 0.0688 -0.8926
vn 0.5257 -0.1068 -0.8439
vn 0.0063 -0.1036 -0.9946
vn -0.0035 -0.1168 -0.9931
vn -0.7542 -0.1503 -0.6392
vn -0.7722 -0.083 -0.6299
vn -0.7796 -0.4365 0.449
vn -0.7561 0.1857 0.6275
vn -0.3244 0.2866 0.9014
vn -0.4389 0.0186 0.8984
vn 0.4912 -0.0127 0.871
vn 0.4721 0.0417 0.8806
vn -0.5256 0.783 0.3325
vn -0.5193 0.7501 0.4095
vn -0.266 0.9609 -0.077
vn -0.3756 0.9149 0.148
vn 0.5756 0.8119 0.0977
vn 0.6366 0.7702 0.0386
vn 0.5043 0.7422 0.4414
vn 0.5757 0.7641 -0.2911
vn 0.1644 -0.0168 0.9863
vn 0.2042 0.0237 0.9787
vn -0.264 0.2888 -0.9203
vn -0.4132 -0.1623 -0.8961
vn -0.1908 0.9727 -0.1323
vn -0.3362 0.9368 -0.0965
vn -0.6016 0.6393 -0.4789
vn 0.3672 -0.0188 0.9299
vn 0.4359 0.13 0.8906
vn 0.9966 0.0721 -0.041
vn 0.9926 -0.1096 0.0515
vn 0.7371 0.4117 -0.5359
vn 0.7475 -0.1141 -0.6543
vn 0.1949 -0.1652 -0.9668
vn 0.1785 -0.0918 -0.9797
vn -0.7536 -0.4735 -0.4559
vn -0.9113 0.203 -0.3581
vn -0.9382 0.312 0.1501
vn -0.5253 -0.0133 0.8508
vn -0.5427 0.0428 0.8388
vn -0.9453 0.2929 0.1436
vn -0.6094 0.7501 -0.2569
vn -0.2191 0.9086 -0.3556
vn 0.3549 0.8076 0.4709
vn 0.179 0.9047 0.3865
vn -0.1428 0.7422 0.6548
vn -0.7841 0.0215 0.6203
vn 0.0469 0.9369 -0.3465
vn 0.05 0.9373 -0.3449
vn -0.1363 0.1914 0.972
vn -0.2038 0.0326 0.9785
vn 0.0487 0.2033 -0.9779
vn 0.0512 0.1877 -0.9809
vn -0.9879 0.1472 -0.0487
vn -0.9945 0.0658 -0.0819
vn -0.7575 0.2054 0.6197
vn -0.6479 -0.0248 0.7613
vn 0.2277 0.2984 0.9269
vn 0.2762 -0.0085 0.9611
vn -0.2566 0.1951 -0.9466
vn -0.2511 0.2086 -0.9452
vn -0.8924 0.1332 -0.4311
vn -0.8925 0.1358 -0.4301
vn 0.4749 0.799 0.3688
vn 0.5186 0.7742 0.3629
vn 0.6491 0.7537 -0.1031
vn 0.3819 0.9058 -0.1833
vn -0.0 1.0 -0.0
vn 0.9892 -0.1317 0.0641
vn 0.1369 0.9906 -0.0054
vn -0.0094 0.9997 -0.0223
vn -0.0392 0.9991 -0.0139
vn -0.4727 0.812 0.3425
vn 0.3019 0.9189 0.2541
vn 0.9013 -0.199 -0.3848
vn 0.9303 0.116 -0.348
vn 0.7668 0.3189 0.557
vn 0.3194 0.225 0.9205
vn 0.3223 0.2076 0.9236
vn -0.16 0.6047 0.7802
vn -0.3436 0.2167 0.9138
vn -0.4952 0.6264 0.6021
vn -0.4826 0.5762 0.6596
vn -0.9401 0.3409 -0.0069
vn -0.889 0.4524 -0.0712
vn -0.8397 0.3743 -0.3936
vn -0.8402 0.3639 -0.4021
vn -0.2904 0.222 -0.9308
vn -0.2501 0.2808 -0.9266
vn 0.0655 0.2714 -0.9602
vn 0.0701 0.248 -0.9662
vn 0.8863 0.2224 -0.4062
vn 0.9774 0.1502 0.1485
vn 0.7365 0.6643 -0.1275
vn 0.7847 0.1715 0.5957
vn 0.7801 0.1845 0.5979
usemtl Elf_bush_Map
f 1//1 2//1 14//1
f 14//2 2//2 16//2
f 2//3 3//3 16//3
f 16//4 3//4 8//4
f 19//5 20//5 3//5
f 3//6 20//6 8//6
f 4//7 5//7 9//7
f 9//8 5//8 10//8
f 5//9 6//9 10//9
f 10//10 6//10 11//10
f 6//11 17//11 11//11
f 11//12 17//12 18//12
f 1//13 14//13 7//13
f 7//14 14//14 12//14
f 18//15 12//15 11//15
f 11//16 12//16 10//16
f 13//17 15//17 20//17
f 20//18 15//18 8//18
f 13//19 14//19 15//19
f 15//20 14//20 16//20
f 13//21 12//21 14//21
f 15//22 16//22 8//22
f 17//23 7//23 18//23
f 18//24 7//24 12//24
f 4//25 9//25 19//25
f 19//26 9//26 20//26
f 20//27 12//27 13//27
f 12//28 20//28 10//28
f 10//29 20//29 9//29
f 21//30 22//30 34//30
f 34//31 22//31 35//31
f 22//32 23//32 35//32
f 35//33 23//33 28//33
f 24//34 29//34 23//34
f 23//35 29//35 28//35
f 24//36 25//36 29//36
f 29//37 25//37 30//37
f 25//38 26//38 30//38
f 30//39 26//39 31//39
f 26//40 36//40 31//40
f 21//41 34//41 27//41
f 27//42 34//42 32//42
f 36//43 32//43 31//43
f 31//44 32//44 30//44
f 33//45 28//45 29//45
f 33//46 34//46 28//46
f 28//47 34//47 35//47
f 33//48 32//48 34//48
f 36//49 27//49 32//49
f 29//50 32//50 33//50
f 32//51 29//51 30//51
f 38//52 42//52 59//52
f 59//53 42//53 58//53
f 63//54 64//54 47//54
f 47//55 64//55 49//55
f 46//56 37//56 61//56
f 61//57 37//57 60//57
f 38//58 59//58 37//58
f 37//59 59//59 60//59
f 50//60 57//60 42//60
f 42//61 57//61 58//61
f 63//62 47//62 62//62
f 62//63 47//63 51//63
f 61//64 62//64 46//64
f 46//65 62//65 51//65
f 53//66 54//66 56//66
f 56//67 54//67 43//67
f 53//68 55//68 54//68
f 54//69 55//69 45//69
f 41//70 48//70 66//70
f 66//71 48//71 65//71
f 54//72 45//72 43//72
f 45//73 52//73 43//73
f 52//74 44//74 43//74
f 43//75 44//75 40//75
f 39//76 40//76 44//76
f 65//77 48//77 64//77
f 64//78 48//78 49//78
f 41//70 66//70 50//70
f 50//79 66//79 57//79
f 57//80 56//80 58//80
f 58//81 56//81 43//81
f 59//82 58//82 40//82
f 40//83 58//83 43//83
f 59//84 40//84 60//84
f 60//85 40//85 39//85
f 44//86 61//86 39//86
f 39//87 61//87 60//87
f 44//88 52//88 61//88
f 61//89 52//89 62//89
f 45//90 63//90 52//90
f 52//91 63//91 62//91
f 64//92 63//92 55//92
f 55//93 63//93 45//93
f 55//94 65//94 64//94
f 66//95 65//95 53//95
f 53//96 65//96 55//96
f 66//97 53//97 57//97
f 57//98 53//98 56//98