mtllib bench.mtl
v 0.234950 0.000000 0.136063
v 0.167950 0.000000 0.136063
v 0.234950 0.150600 0.086063
v 0.167950 0.150600 0.086063
v 0.167950 0.000000 0.069063
v 0.234950 0.000000 0.069063
v 0.167950 0.150600 0.019062
v 0.234950 0.150600 0.019062
v 0.234950 0.376500 0.161062
v 0.167950 0.376500 0.161062
v 0.234950 0.393149 0.099590
v 0.167950 0.393149 0.099590
v -0.167950 0.000000 0.136063
v -0.234950 0.000000 0.136063
v -0.167950 0.150600 0.086062
v -0.234950 0.150600 0.086062
v -0.234950 0.000000 0.069062
v -0.167950 0.000000 0.069062
v -0.234950 0.150600 0.019062
v -0.167950 0.150600 0.019062
v -0.167950 0.376500 0.161062
v -0.234950 0.376500 0.161062
v -0.167950 0.393149 0.099590
v -0.234950 0.393149 0.099590
v 0.234950 0.000000 -0.094062
v 0.234950 0.000000 -0.161062
v 0.167950 0.000000 -0.094062
v 0.167950 0.000000 -0.161062
v 0.234950 0.150600 -0.094062
v 0.167950 0.150600 -0.094062
v 0.167950 0.150600 -0.161062
v 0.234950 0.150600 -0.161062
v -0.167950 0.000000 -0.094062
v -0.167950 0.000000 -0.161062
v -0.234950 0.000000 -0.094062
v -0.234950 0.000000 -0.161062
v -0.167950 0.150600 -0.094062
v -0.234950 0.150600 -0.094062
v -0.234950 0.150600 -0.161062
v -0.167950 0.150600 -0.161062
v 0.301950 0.201200 -0.161062
v 0.301950 0.150600 -0.161062
v 0.301950 0.201200 0.035862
v 0.301950 0.150600 0.019063
v -0.301950 0.150600 0.019062
v -0.301950 0.201200 0.035862
v -0.301950 0.201200 -0.161062
v -0.301950 0.150600 -0.161062
v 0.301950 0.278596 0.008242
v 0.301950 0.262653 0.056265
v 0.301950 0.409092 0.051567
v 0.301950 0.393149 0.099590
v -0.301950 0.393149 0.099590
v -0.301950 0.409092 0.051567
v -0.301950 0.278596 0.008242
v -0.301950 0.262653 0.056265
vn 0.000000 0.315093 0.949061
vn 0.000000 -0.315093 -0.949061
vn 0.000000 0.965228 0.261410
vn 0.000000 -0.315093 0.949061
vn 0.000000 -1.000000 0.000000
vn 0.000000 0.315093 -0.949061
vn 1.000000 0.000000 0.000000
vn -1.000000 0.000000 0.000000
vn 0.000000 0.000000 1.000000
vn 0.000000 0.000000 -1.000000
vn 0.000000 -0.315093 0.949061
vn 0.000000 1.000000 0.000000
vn 1.000000 0.000000 -0.000000
vn 0.000000 0.949061 0.315093
vn -1.000000 -0.000000 0.000000
vn 0.000000 -0.315093 0.949061
vn -0.000000 -0.949061 -0.315093
vn -0.000000 0.315093 -0.949061
usemtl metal
f 3/3/1 2/2/1 1/1/1
f 2/2/1 3/3/1 4/4/1
f 7/7/2 6/6/2 5/5/2
f 6/6/2 7/7/2 8/8/2
f 11/11/3 10/10/3 9/9/3
f 10/10/3 11/11/3 12/12/3
f 9/15/4 4/14/4 3/13/4
f 4/14/4 9/15/4 10/16/4
f 2/19/5 6/18/5 1/17/5
f 6/18/5 2/19/5 5/20/5
f 12/23/6 8/22/6 7/21/6
f 8/22/6 12/23/6 11/24/6
f 11/27/7 6/26/7 8/25/7
f 6/26/7 11/27/7 3/28/7
f 3/28/7 11/27/7 9/29/7
f 1/30/7 6/26/7 3/28/7
f 2/33/8 4/32/8 5/31/8
f 12/34/8 5/31/8 4/32/8
f 12/34/8 4/32/8 10/35/8
f 5/31/8 12/34/8 7/36/8
f 15/3/1 14/2/1 13/1/1
f 14/2/1 15/3/1 16/4/1
f 19/7/2 18/6/2 17/5/2
f 18/6/2 19/7/2 20/8/2
f 23/11/3 22/10/3 21/9/3
f 22/10/3 23/11/3 24/12/3
f 21/15/4 16/14/4 15/13/4
f 16/14/4 21/15/4 22/16/4
f 14/19/5 18/18/5 13/17/5
f 18/18/5 14/19/5 17/20/5
f 24/23/6 20/22/6 19/21/6
f 20/22/6 24/23/6 23/24/6
f 23/27/7 18/26/7 20/25/7
f 18/26/7 23/27/7 15/28/7
f 15/28/7 23/27/7 21/29/7
f 13/30/7 18/26/7 15/28/7
f 14/33/8 16/32/8 17/31/8
f 24/34/8 17/31/8 16/32/8
f 24/34/8 16/32/8 22/35/8
f 17/31/8 24/34/8 19/36/8
f 27/39/5 26/38/5 25/37/5
f 26/38/5 27/39/5 28/40/5
f 29/43/9 27/42/9 25/41/9
f 27/42/9 29/43/9 30/44/9
f 27/41/8 31/44/8 28/42/8
f 31/44/8 27/41/8 30/43/8
f 31/43/10 26/42/10 28/41/10
f 26/42/10 31/43/10 32/44/10
f 29/44/7 26/41/7 32/43/7
f 26/41/7 29/44/7 25/42/7
f 35/39/5 34/38/5 33/37/5
f 34/38/5 35/39/5 36/40/5
f 37/43/9 35/42/9 33/41/9
f 35/42/9 37/43/9 38/44/9
f 35/41/8 39/44/8 36/42/8
f 39/44/8 35/41/8 38/43/8
f 39/43/10 34/42/10 36/41/10
f 34/42/10 39/43/10 40/44/10
f 37/44/7 34/41/7 40/43/7
f 34/41/7 37/44/7 33/42/7
f 3/3/1 2/2/1 1/1/1
f 2/2/1 3/3/1 4/4/1
f 7/7/2 6/6/2 5/5/2
f 6/6/2 7/7/2 8/8/2
f 11/11/3 10/10/3 9/9/3
f 10/10/3 11/11/3 12/12/3
f 9/15/4 4/14/4 3/13/4
f 4/14/4 9/15/4 10/16/4
f 2/19/5 6/18/5 1/17/5
f 6/18/5 2/19/5 5/20/5
f 12/23/6 8/22/6 7/21/6
f 8/22/6 12/23/6 11/24/6
f 11/27/7 6/26/7 8/25/7
f 6/26/7 11/27/7 3/28/7
f 3/28/7 11/27/7 9/29/7
f 1/30/7 6/26/7 3/28/7
f 2/33/8 4/32/8 5/31/8
f 12/34/8 5/31/8 4/32/8
f 12/34/8 4/32/8 10/35/8
f 5/31/8 12/34/8 7/36/8
f 15/3/1 14/2/1 13/1/1
f 14/2/1 15/3/1 16/4/1
f 19/7/2 18/6/2 17/5/2
f 18/6/2 19/7/2 20/8/2
f 23/11/3 22/10/3 21/9/3
f 22/10/3 23/11/3 24/12/3
f 21/15/4 16/14/4 15/13/4
f 16/14/4 21/15/4 22/16/4
f 14/19/5 18/18/5 13/17/5
f 18/18/5 14/19/5 17/20/5
f 24/23/6 20/22/6 19/21/6
f 20/22/6 24/23/6 23/24/6
f 23/27/7 18/26/7 20/25/7
f 18/26/7 23/27/7 15/28/7
f 15/28/7 23/27/7 21/29/7
f 13/30/7 18/26/7 15/28/7
f 14/33/8 16/32/8 17/31/8
f 24/34/8 17/31/8 16/32/8
f 24/34/8 16/32/8 22/35/8
f 17/31/8 24/34/8 19/36/8
f 27/39/5 26/38/5 25/37/5
f 26/38/5 27/39/5 28/40/5
f 29/43/9 27/42/9 25/41/9
f 27/42/9 29/43/9 30/44/9
f 27/41/8 31/44/8 28/42/8
f 31/44/8 27/41/8 30/43/8
f 31/43/10 26/42/10 28/41/10
f 26/42/10 31/43/10 32/44/10
f 29/44/7 26/41/7 32/43/7
f 26/41/7 29/44/7 25/42/7
f 35/39/5 34/38/5 33/37/5
f 34/38/5 35/39/5 36/40/5
f 37/43/9 35/42/9 33/41/9
f 35/42/9 37/43/9 38/44/9
f 35/41/8 39/44/8 36/42/8
f 39/44/8 35/41/8 38/43/8
f 39/43/10 34/42/10 36/41/10
f 34/42/10 39/43/10 40/44/10
f 37/44/7 34/41/7 40/43/7
f 34/41/7 37/44/7 33/42/7
usemtl planks
f 43/47/7 42/46/7 41/45/7
f 42/46/7 43/47/7 44/48/7
f 43/51/11 45/50/11 44/49/11
f 45/50/11 43/51/11 46/52/11
f 48/55/8 46/54/8 47/53/8
f 46/54/8 48/55/8 45/56/8
f 44/59/5 48/58/5 42/57/5
f 48/58/5 44/59/5 45/60/5
f 48/63/10 41/62/10 42/61/10
f 41/62/10 48/63/10 47/64/10
f 47/67/12 43/66/12 41/65/12
f 43/66/12 47/67/12 46/68/12
f 51/71/13 50/70/13 49/69/13
f 50/70/13 51/71/13 52/72/13
f 51/75/14 53/74/14 52/73/14
f 53/74/14 51/75/14 54/76/14
f 56/79/15 54/78/15 55/77/15
f 54/78/15 56/79/15 53/80/15
f 52/59/16 56/58/16 50/57/16
f 56/58/16 52/59/16 53/60/16
f 56/63/17 49/62/17 50/61/17
f 49/62/17 56/63/17 55/64/17
f 55/83/18 51/82/18 49/81/18
f 51/82/18 55/83/18 54/84/18
f 43/47/7 42/46/7 41/45/7
f 42/46/7 43/47/7 44/48/7
f 43/51/11 45/50/11 44/49/11
f 45/50/11 43/51/11 46/52/11
f 48/55/8 46/54/8 47/53/8
f 46/54/8 48/55/8 45/56/8
f 44/59/5 48/58/5 42/57/5
f 48/58/5 44/59/5 45/60/5
f 48/63/10 41/62/10 42/61/10
f 41/62/10 48/63/10 47/64/10
f 47/67/12 43/66/12 41/65/12
f 43/66/12 47/67/12 46/68/12
f 51/71/13 50/70/13 49/69/13
f 50/70/13 51/71/13 52/72/13
f 51/75/14 53/74/14 52/73/14
f 53/74/14 51/75/14 54/76/14
f 56/79/15 54/78/15 55/77/15
f 54/78/15 56/79/15 53/80/15
f 52/59/16 56/58/16 50/57/16
f 56/58/16 52/59/16 53/60/16
f 56/63/17 49/62/17 50/61/17
f 49/62/17 56/63/17 55/64/17
f 55/83/18 51/82/18 49/81/18
f 51/82/18 55/83/18 54/84/18
