mtllib light-double.mtl
v 0.023100 0.960000 -0.023100
v 0.023100 0.953810 -0.000000
v -0.023100 0.960000 -0.023100
v -0.023100 0.953810 -0.000000
v -0.034650 0.960000 -0.155100
v -0.034650 0.960000 -0.204600
v -0.023100 0.960000 -0.089100
v 0.000000 0.960000 -0.221100
v 0.023100 0.960000 -0.089100
v 0.034650 0.960000 -0.155100
v 0.034650 0.960000 -0.204600
v 0.034650 0.913800 -0.155100
v 0.023100 0.913800 -0.089100
v 0.034650 0.913800 -0.204600
v 0.000000 0.913800 -0.221100
v -0.023100 0.913800 -0.089100
v -0.034650 0.913800 -0.204600
v -0.034650 0.913800 -0.155100
v -0.023100 0.913800 -0.023100
v 0.023100 0.913800 -0.023100
v 0.023100 0.244554 0.023100
v -0.023100 0.244554 0.023100
v 0.023100 0.913800 0.023100
v -0.023100 0.913800 0.023100
v -0.023100 0.244554 -0.023100
v 0.023100 0.244554 -0.023100
v 0.043100 0.000000 0.043100
v 0.043100 0.000000 -0.043100
v -0.043100 0.000000 0.043100
v -0.043100 0.000000 -0.043100
v 0.023100 0.960000 0.089100
v 0.023100 0.960000 0.023100
v 0.023100 0.913800 0.089100
v -0.043100 0.244554 -0.043100
v 0.043100 0.244554 -0.043100
v -0.043100 0.244554 0.043100
v 0.043100 0.244554 0.043100
v -0.023100 0.913800 0.089100
v -0.023100 0.960000 0.089100
v -0.034650 0.913800 0.155100
v -0.034650 0.960000 0.155100
v 0.034650 0.913800 0.204600
v 0.034650 0.913800 0.155100
v -0.000000 0.913800 0.221100
v -0.034650 0.913800 0.204600
v -0.023100 0.960000 0.023100
v -0.000000 0.960000 0.221100
v 0.034650 0.960000 0.204600
v 0.034650 0.960000 0.155100
v -0.034650 0.960000 0.204600
vn 0.000000 0.965926 0.258819
vn 0.000000 1.000000 0.000000
vn 0.996251 0.000000 0.086515
vn 0.985031 0.000000 0.172380
vn 0.000000 -1.000000 0.000000
vn 0.000000 0.000000 1.000000
vn 0.000000 0.000000 -1.000000
vn 0.845557 0.000000 -0.533885
vn -0.845557 0.000000 -0.533885
vn -0.996251 0.000000 0.086515
vn -0.985031 0.000000 0.172380
vn 1.000000 0.000000 0.000000
vn -1.000000 0.000000 0.000000
vn -0.985031 0.000000 -0.172380
vn -0.996251 0.000000 -0.086515
vn 0.000000 0.965926 -0.258819
vn 0.845557 0.000000 0.533885
vn -0.845557 0.000000 0.533885
vn 0.985031 0.000000 -0.172380
vn 0.996251 0.000000 -0.086515
usemtl metal
f 3/3/1 2/2/2 1/1/1
f 2/2/2 3/3/1 4/4/2
f 7/7/2 6/6/2 5/5/2
f 6/6/2 7/7/2 8/8/2
f 3/9/2 8/8/2 7/7/2
f 1/10/2 8/8/2 3/9/2
f 9/11/2 8/8/2 1/10/2
f 10/12/2 8/8/2 9/11/2
f 8/8/2 10/12/2 11/13/2
f 9/16/4 12/15/3 10/14/3
f 12/15/3 9/16/4 13/17/4
f 13/20/5 14/19/5 12/18/5
f 14/19/5 13/20/5 15/21/5
f 15/21/5 13/20/5 16/22/5
f 15/21/5 16/22/5 17/23/5
f 17/23/5 16/22/5 18/24/5
f 13/20/5 19/25/5 16/22/5
f 19/25/5 13/20/5 20/26/5
f 23/29/6 22/28/6 21/27/6
f 22/28/6 23/29/6 24/30/6
f 19/29/7 26/28/7 25/27/7
f 26/28/7 19/29/7 20/30/7
f 29/33/5 28/32/5 27/31/5
f 28/32/5 29/33/5 30/34/5
f 10/37/3 14/36/8 11/35/8
f 14/36/8 10/37/3 12/38/3
f 18/41/10 6/40/9 17/39/9
f 6/40/9 18/41/10 5/42/10
f 16/45/11 5/44/10 18/43/10
f 5/44/10 16/45/11 7/46/11
f 6/49/9 15/48/7 17/47/9
f 15/48/7 6/49/9 8/50/7
f 8/53/7 14/52/8 15/51/7
f 14/52/8 8/53/7 11/54/8
f 33/57/12 32/56/12 31/55/12
f 23/30/12 32/56/12 33/57/12
f 32/56/12 23/30/12 2/58/12
f 21/28/12 2/58/12 23/30/12
f 26/27/12 2/58/12 21/28/12
f 20/29/12 2/58/12 26/27/12
f 20/29/12 1/59/12 2/58/12
f 13/60/12 1/59/12 20/29/12
f 1/59/12 13/60/12 9/61/12
f 34/64/7 28/63/7 30/62/7
f 28/63/7 34/64/7 35/65/7
f 29/62/13 34/65/13 30/63/13
f 34/65/13 29/62/13 36/64/13
f 37/65/12 28/62/12 35/64/12
f 28/62/12 37/65/12 27/63/12
f 37/64/6 29/63/6 27/62/6
f 29/63/6 37/64/6 36/65/6
f 40/68/15 39/67/14 38/66/14
f 39/67/14 40/68/15 41/69/15
f 44/72/5 43/71/5 42/70/5
f 43/71/5 44/72/5 33/73/5
f 33/73/5 44/72/5 38/74/5
f 38/74/5 44/72/5 45/75/5
f 38/74/5 45/75/5 40/76/5
f 38/74/5 23/77/5 33/73/5
f 23/77/5 38/74/5 24/78/5
f 46/81/2 31/80/2 32/79/2
f 31/80/2 46/81/2 47/82/2
f 47/82/2 46/81/2 39/83/2
f 48/84/2 31/80/2 47/82/2
f 31/80/2 48/84/2 49/85/2
f 47/82/2 39/83/2 50/86/2
f 50/86/2 39/83/2 41/87/2
f 4/88/2 32/3/16 2/4/2
f 32/3/16 4/88/2 46/89/16
f 48/92/17 44/91/6 42/90/17
f 44/91/6 48/92/17 47/93/6
f 45/96/18 41/95/15 40/94/15
f 41/95/15 45/96/18 50/97/18
f 49/99/20 33/73/19 31/98/19
f 33/73/19 49/99/20 43/71/20
f 22/27/13 19/30/13 25/28/13
f 19/30/13 22/27/13 3/56/13
f 7/55/13 19/30/13 3/56/13
f 19/30/13 7/55/13 16/57/13
f 3/56/13 22/27/13 4/100/13
f 4/100/13 22/27/13 24/29/13
f 4/100/13 24/29/13 46/59/13
f 46/59/13 24/29/13 38/60/13
f 46/59/13 38/60/13 39/61/13
f 48/103/17 43/102/20 49/101/20
f 43/102/20 48/103/17 42/104/17
f 47/107/6 45/106/18 44/105/6
f 45/106/18 47/107/6 50/108/18
f 26/10/2 34/32/2 25/9/2
f 25/9/2 34/32/2 22/109/2
f 26/10/2 35/34/2 34/32/2
f 36/31/2 22/109/2 34/32/2
f 35/34/2 26/10/2 37/33/2
f 36/31/2 21/110/2 22/109/2
f 37/33/2 21/110/2 36/31/2
f 21/110/2 37/33/2 26/10/2
f 3/3/1 2/2/2 1/1/1
f 2/2/2 3/3/1 4/4/2
f 7/7/2 6/6/2 5/5/2
f 6/6/2 7/7/2 8/8/2
f 3/9/2 8/8/2 7/7/2
f 1/10/2 8/8/2 3/9/2
f 9/11/2 8/8/2 1/10/2
f 10/12/2 8/8/2 9/11/2
f 8/8/2 10/12/2 11/13/2
f 9/16/4 12/15/3 10/14/3
f 12/15/3 9/16/4 13/17/4
f 13/20/5 14/19/5 12/18/5
f 14/19/5 13/20/5 15/21/5
f 15/21/5 13/20/5 16/22/5
f 15/21/5 16/22/5 17/23/5
f 17/23/5 16/22/5 18/24/5
f 13/20/5 19/25/5 16/22/5
f 19/25/5 13/20/5 20/26/5
f 23/29/6 22/28/6 21/27/6
f 22/28/6 23/29/6 24/30/6
f 19/29/7 26/28/7 25/27/7
f 26/28/7 19/29/7 20/30/7
f 29/33/5 28/32/5 27/31/5
f 28/32/5 29/33/5 30/34/5
f 10/37/3 14/36/8 11/35/8
f 14/36/8 10/37/3 12/38/3
f 18/41/10 6/40/9 17/39/9
f 6/40/9 18/41/10 5/42/10
f 16/45/11 5/44/10 18/43/10
f 5/44/10 16/45/11 7/46/11
f 6/49/9 15/48/7 17/47/9
f 15/48/7 6/49/9 8/50/7
f 8/53/7 14/52/8 15/51/7
f 14/52/8 8/53/7 11/54/8
f 33/57/12 32/56/12 31/55/12
f 23/30/12 32/56/12 33/57/12
f 32/56/12 23/30/12 2/58/12
f 21/28/12 2/58/12 23/30/12
f 26/27/12 2/58/12 21/28/12
f 20/29/12 2/58/12 26/27/12
f 20/29/12 1/59/12 2/58/12
f 13/60/12 1/59/12 20/29/12
f 1/59/12 13/60/12 9/61/12
f 34/64/7 28/63/7 30/62/7
f 28/63/7 34/64/7 35/65/7
f 29/62/13 34/65/13 30/63/13
f 34/65/13 29/62/13 36/64/13
f 37/65/12 28/62/12 35/64/12
f 28/62/12 37/65/12 27/63/12
f 37/64/6 29/63/6 27/62/6
f 29/63/6 37/64/6 36/65/6
f 40/68/15 39/67/14 38/66/14
f 39/67/14 40/68/15 41/69/15
f 44/72/5 43/71/5 42/70/5
f 43/71/5 44/72/5 33/73/5
f 33/73/5 44/72/5 38/74/5
f 38/74/5 44/72/5 45/75/5
f 38/74/5 45/75/5 40/76/5
f 38/74/5 23/77/5 33/73/5
f 23/77/5 38/74/5 24/78/5
f 46/81/2 31/80/2 32/79/2
f 31/80/2 46/81/2 47/82/2
f 47/82/2 46/81/2 39/83/2
f 48/84/2 31/80/2 47/82/2
f 31/80/2 48/84/2 49/85/2
f 47/82/2 39/83/2 50/86/2
f 50/86/2 39/83/2 41/87/2
f 4/88/2 32/3/16 2/4/2
f 32/3/16 4/88/2 46/89/16
f 48/92/17 44/91/6 42/90/17
f 44/91/6 48/92/17 47/93/6
f 45/96/18 41/95/15 40/94/15
f 41/95/15 45/96/18 50/97/18
f 49/99/20 33/73/19 31/98/19
f 33/73/19 49/99/20 43/71/20
f 22/27/13 19/30/13 25/28/13
f 19/30/13 22/27/13 3/56/13
f 7/55/13 19/30/13 3/56/13
f 19/30/13 7/55/13 16/57/13
f 3/56/13 22/27/13 4/100/13
f 4/100/13 22/27/13 24/29/13
f 4/100/13 24/29/13 46/59/13
f 46/59/13 24/29/13 38/60/13
f 46/59/13 38/60/13 39/61/13
f 48/103/17 43/102/20 49/101/20
f 43/102/20 48/103/17 42/104/17
f 47/107/6 45/106/18 44/105/6
f 45/106/18 47/107/6 50/108/18
f 26/10/2 34/32/2 25/9/2
f 25/9/2 34/32/2 22/109/2
f 26/10/2 35/34/2 34/32/2
f 36/31/2 22/109/2 34/32/2
f 35/34/2 26/10/2 37/33/2
f 36/31/2 21/110/2 22/109/2
f 37/33/2 21/110/2 36/31/2
f 21/110/2 37/33/2 26/10/2
