mtllib road-asphalt-corner.mtl
v 1.000000 0.000000 0.500000
v 0.750000 0.000000 0.566987
v 1.000000 0.000000 -0.500000
v 0.611771 0.000000 -0.448889
v 0.566987 0.000000 0.750000
v 0.250000 0.000000 -0.299038
v 0.500000 0.000000 1.000000
v -0.500000 0.000000 1.000000
v -0.060660 0.000000 -0.060660
v -0.299038 0.000000 0.250000
v -0.448889 0.000000 0.611771
v -1.000000 0.000000 -1.000000
v 1.000000 0.000000 -1.000000
v -1.000000 0.050000 -1.000000
v 1.000000 0.050000 -1.000000
v 1.000000 0.050000 -0.500000
v 0.611771 0.050000 -0.448889
v 0.250000 0.050000 -0.299038
v -0.060660 0.050000 -0.060660
v -0.299038 0.050000 0.250000
v -0.448889 0.050000 0.611771
v -0.500000 0.050000 1.000000
v -1.000000 0.050000 1.000000
v -1.000000 0.000000 1.000000
v 1.000000 0.050000 0.500000
v 1.000000 0.050000 1.000000
v 0.750000 0.050000 0.566987
v 0.500000 0.050000 1.000000
v 0.566987 0.050000 0.750000
v 1.000000 0.000000 1.000000
vn 0.000000 1.000000 0.000000
vn 0.000000 0.000000 -1.000000
vn 1.000000 0.000000 0.000000
vn -1.000000 0.000000 0.000000
vn 0.130526 0.000000 0.991445
vn 0.258819 0.000000 0.965926
vn 0.500000 0.000000 0.866025
vn 0.707107 0.000000 0.707107
vn 0.866025 0.000000 0.500000
vn 0.965926 0.000000 0.258819
vn 0.991445 0.000000 0.130526
vn 0.000000 0.000000 1.000000
vn -0.258819 0.000000 -0.965926
vn -0.500000 0.000000 -0.866025
vn -0.866025 0.000000 -0.500000
vn -0.965926 0.000000 -0.258819
usemtl asphalt
f 3/3/1 2/2/1 1/1/1
f 2/2/1 3/3/1 4/4/1
f 2/2/1 4/4/1 5/5/1
f 5/5/1 4/4/1 6/6/1
f 5/5/1 6/6/1 7/7/1
f 7/7/1 6/6/1 8/8/1
f 8/8/1 6/6/1 9/9/1
f 8/8/1 9/9/1 10/10/1
f 8/8/1 10/10/1 11/11/1
f 3/3/1 2/2/1 1/1/1
f 2/2/1 3/3/1 4/4/1
f 2/2/1 4/4/1 5/5/1
f 5/5/1 4/4/1 6/6/1
f 5/5/1 6/6/1 7/7/1
f 7/7/1 6/6/1 8/8/1
f 8/8/1 6/6/1 9/9/1
f 8/8/1 9/9/1 10/10/1
f 8/8/1 10/10/1 11/11/1
usemtl concreteSmooth
f 14/14/2 13/13/2 12/12/2
f 13/13/2 14/14/2 15/15/2
f 16/16/3 13/13/3 15/15/3
f 13/13/3 16/16/3 3/17/3
f 14/20/1 16/19/1 15/18/1
f 16/19/1 14/20/1 17/21/1
f 17/21/1 14/20/1 18/22/1
f 18/22/1 14/20/1 19/23/1
f 19/23/1 14/20/1 20/24/1
f 20/24/1 14/20/1 21/25/1
f 21/25/1 14/20/1 22/26/1
f 22/26/1 14/20/1 23/27/1
f 24/28/4 14/14/4 12/12/4
f 14/14/4 24/28/4 23/29/4
f 17/32/6 3/31/5 16/30/5
f 3/31/5 17/32/6 4/33/6
f 18/34/7 4/33/6 17/32/6
f 4/33/6 18/34/7 6/35/7
f 19/36/8 6/35/7 18/34/7
f 6/35/7 19/36/8 9/37/8
f 20/38/9 9/37/8 19/36/8
f 9/37/8 20/38/9 10/39/9
f 21/40/10 10/39/9 20/38/9
f 10/39/9 21/40/10 11/41/10
f 22/42/11 11/41/10 21/40/10
f 11/41/10 22/42/11 8/43/11
f 22/46/12 24/45/12 8/44/12
f 24/45/12 22/46/12 23/47/12
f 27/50/1 26/49/1 25/48/1
f 26/49/1 27/50/1 28/51/1
f 28/51/1 27/50/1 29/52/1
f 26/55/12 7/54/12 30/53/12
f 7/54/12 26/55/12 28/56/12
f 26/55/3 1/58/3 25/57/3
f 1/58/3 26/55/3 30/59/3
f 1/43/13 27/60/14 25/42/13
f 27/60/14 1/43/13 2/61/14
f 5/62/15 27/60/14 2/61/14
f 27/60/14 5/62/15 29/63/15
f 7/39/16 29/63/15 5/62/15
f 29/63/15 7/39/16 28/38/16
f 14/14/2 13/13/2 12/12/2
f 13/13/2 14/14/2 15/15/2
f 16/16/3 13/13/3 15/15/3
f 13/13/3 16/16/3 3/17/3
f 14/20/1 16/19/1 15/18/1
f 16/19/1 14/20/1 17/21/1
f 17/21/1 14/20/1 18/22/1
f 18/22/1 14/20/1 19/23/1
f 19/23/1 14/20/1 20/24/1
f 20/24/1 14/20/1 21/25/1
f 21/25/1 14/20/1 22/26/1
f 22/26/1 14/20/1 23/27/1
f 24/28/4 14/14/4 12/12/4
f 14/14/4 24/28/4 23/29/4
f 17/32/6 3/31/5 16/30/5
f 3/31/5 17/32/6 4/33/6
f 18/34/7 4/33/6 17/32/6
f 4/33/6 18/34/7 6/35/7
f 19/36/8 6/35/7 18/34/7
f 6/35/7 19/36/8 9/37/8
f 20/38/9 9/37/8 19/36/8
f 9/37/8 20/38/9 10/39/9
f 21/40/10 10/39/9 20/38/9
f 10/39/9 21/40/10 11/41/10
f 22/42/11 11/41/10 21/40/10
f 11/41/10 22/42/11 8/43/11
f 22/46/12 24/45/12 8/44/12
f 24/45/12 22/46/12 23/47/12
f 27/50/1 26/49/1 25/48/1
f 26/49/1 27/50/1 28/51/1
f 28/51/1 27/50/1 29/52/1
f 26/55/12 7/54/12 30/53/12
f 7/54/12 26/55/12 28/56/12
f 26/55/3 1/58/3 25/57/3
f 1/58/3 26/55/3 30/59/3
f 1/43/13 27/60/14 25/42/13
f 27/60/14 1/43/13 2/61/14
f 5/62/15 27/60/14 2/61/14
f 27/60/14 5/62/15 29/63/15
f 7/39/16 29/63/15 5/62/15
f 29/63/15 7/39/16 28/38/16
