mtllib road-asphalt-straight.mtl
v -0.500000 0.000000 0.500000
v -0.500000 0.050000 0.500000
v -0.500000 0.000000 1.000000
v -0.500000 0.050000 1.000000
v 0.500000 0.050000 0.500000
v 0.500000 0.050000 1.000000
v 0.500000 0.000000 0.500000
v 0.500000 0.000000 1.000000
v -0.500000 0.000000 -1.000000
v 0.500000 0.000000 -1.000000
v -0.500000 0.050000 -1.000000
v 0.500000 0.050000 -1.000000
v 0.500000 0.050000 -0.500000
v 0.500000 0.000000 -0.500000
v -0.500000 0.000000 -0.500000
v -0.500000 0.050000 -0.500000
vn -1.000000 0.000000 0.000000
vn 0.000000 1.000000 0.000000
vn 1.000000 0.000000 0.000000
vn 0.000000 0.000000 -1.000000
vn 0.000000 0.000000 1.000000
usemtl concreteSmooth
f 3/3/1 2/2/1 1/1/1
f 2/2/1 3/3/1 4/4/1
f 2/2/2 6/6/2 5/5/2
f 6/6/2 2/2/2 4/4/2
f 6/6/3 7/7/3 5/5/3
f 7/7/3 6/6/3 8/8/3
f 2/2/4 7/10/4 1/9/4
f 7/10/4 2/2/4 5/5/4
f 6/6/5 3/12/5 8/11/5
f 3/12/5 6/6/5 4/4/5
f 11/6/4 10/12/4 9/11/4
f 10/12/4 11/6/4 12/4/4
f 13/2/3 10/3/3 12/4/3
f 10/3/3 13/2/3 14/1/3
f 13/2/5 15/10/5 14/9/5
f 15/10/5 13/2/5 16/5/5
f 12/4/2 16/5/2 13/2/2
f 16/5/2 12/4/2 11/6/2
f 15/7/1 11/6/1 9/8/1
f 11/6/1 15/7/1 16/5/1
f 3/3/1 2/2/1 1/1/1
f 2/2/1 3/3/1 4/4/1
f 2/2/2 6/6/2 5/5/2
f 6/6/2 2/2/2 4/4/2
f 6/6/3 7/7/3 5/5/3
f 7/7/3 6/6/3 8/8/3
f 2/2/4 7/10/4 1/9/4
f 7/10/4 2/2/4 5/5/4
f 6/6/5 3/12/5 8/11/5
f 3/12/5 6/6/5 4/4/5
f 11/6/4 10/12/4 9/11/4
f 10/12/4 11/6/4 12/4/4
f 13/2/3 10/3/3 12/4/3
f 10/3/3 13/2/3 14/1/3
f 13/2/5 15/10/5 14/9/5
f 15/10/5 13/2/5 16/5/5
f 12/4/2 16/5/2 13/2/2
f 16/5/2 12/4/2 11/6/2
f 15/7/1 11/6/1 9/8/1
f 11/6/1 15/7/1 16/5/1
usemtl asphalt
f 14/15/2 1/14/2 7/13/2
f 1/14/2 14/15/2 15/16/2
f 14/15/2 1/14/2 7/13/2
f 1/14/2 14/15/2 15/16/2
