mtllib shrub.mtl
v -0.390000 0.000000 0.000000
v 0.000000 0.000000 0.000000
v -0.390000 0.300000 0.000000
v 0.390000 0.000000 0.000000
v 0.390000 0.300000 0.000000
v 0.000000 0.300000 0.000000
v 0.000000 0.000000 -0.390000
v 0.000000 0.300000 -0.390000
v -0.000000 0.000000 0.390000
v -0.000000 0.300000 0.390000
v 0.134550 0.000000 -0.233047
v 0.134550 0.207000 -0.233047
v 0.000000 0.207000 -0.000000
v -0.134550 0.207000 0.233047
v -0.134550 0.000000 0.233047
v 0.233047 0.000000 0.134550
v 0.233047 0.207000 0.134550
v -0.233047 0.000000 -0.134550
v -0.233047 0.207000 -0.134550
vn 0.000000 0.000000 -1.000000
vn 0.000000 0.000000 1.000000
vn -1.000000 0.000000 0.000000
vn 1.000000 0.000000 0.000000
vn -0.866025 0.000000 -0.500000
vn 0.866025 0.000000 0.500000
vn -0.500000 0.000000 0.866025
vn 0.500000 0.000000 -0.866025
usemtl treeA
f 3/3/1 2/2/1 1/1/1
f 2/2/1 3/3/1 4/4/1
f 4/4/1 3/3/1 5/5/1
f 5/5/1 3/3/1 6/6/1
f 1/1/2 2/2/2 3/3/2
f 4/4/2 3/3/2 2/2/2
f 5/5/2 3/3/2 4/4/2
f 6/6/2 3/3/2 5/5/2
f 2/2/3 8/5/3 7/4/3
f 8/5/3 2/2/3 6/6/3
f 6/6/3 2/2/3 9/1/3
f 6/6/3 9/1/3 10/3/3
f 7/4/4 8/5/4 2/2/4
f 6/6/4 2/2/4 8/5/4
f 9/1/4 2/2/4 6/6/4
f 10/3/4 9/1/4 6/6/4
f 2/2/5 12/5/5 11/4/5
f 12/5/5 2/2/5 13/6/5
f 13/6/5 2/2/5 14/3/5
f 14/3/5 2/2/5 15/1/5
f 11/4/6 12/5/6 2/2/6
f 13/6/6 2/2/6 12/5/6
f 14/3/6 2/2/6 13/6/6
f 15/1/6 2/2/6 14/3/6
f 17/3/7 2/2/7 16/1/7
f 2/2/7 17/3/7 18/4/7
f 18/4/7 17/3/7 19/5/7
f 19/5/7 17/3/7 13/6/7
f 16/1/8 2/2/8 17/3/8
f 18/4/8 17/3/8 2/2/8
f 19/5/8 17/3/8 18/4/8
f 13/6/8 17/3/8 19/5/8
f 3/3/1 2/2/1 1/1/1
f 2/2/1 3/3/1 4/4/1
f 4/4/1 3/3/1 5/5/1
f 5/5/1 3/3/1 6/6/1
f 1/1/2 2/2/2 3/3/2
f 4/4/2 3/3/2 2/2/2
f 5/5/2 3/3/2 4/4/2
f 6/6/2 3/3/2 5/5/2
f 2/2/3 8/5/3 7/4/3
f 8/5/3 2/2/3 6/6/3
f 6/6/3 2/2/3 9/1/3
f 6/6/3 9/1/3 10/3/3
f 7/4/4 8/5/4 2/2/4
f 6/6/4 2/2/4 8/5/4
f 9/1/4 2/2/4 6/6/4
f 10/3/4 9/1/4 6/6/4
f 2/2/5 12/5/5 11/4/5
f 12/5/5 2/2/5 13/6/5
f 13/6/5 2/2/5 14/3/5
f 14/3/5 2/2/5 15/1/5
f 11/4/6 12/5/6 2/2/6
f 13/6/6 2/2/6 12/5/6
f 14/3/6 2/2/6 13/6/6
f 15/1/6 2/2/6 14/3/6
f 17/3/7 2/2/7 16/1/7
f 2/2/7 17/3/7 18/4/7
f 18/4/7 17/3/7 19/5/7
f 19/5/7 17/3/7 13/6/7
f 16/1/8 2/2/8 17/3/8
f 18/4/8 17/3/8 2/2/8
f 19/5/8 17/3/8 18/4/8
f 13/6/8 17/3/8 19/5/8
