mtllib truck-flat.mtl
v -0.415000 0.000000 0.614200
v -0.415000 0.081417 0.614200
v 0.415000 0.000000 0.614200
v 0.415000 0.081417 0.614200
v 0.415000 0.000000 -0.630800
v -0.415000 0.000000 -0.630800
v -0.415000 0.081417 -0.630800
v 0.415000 0.081417 -0.630800
v 0.415000 0.827190 -0.692909
v 0.415000 0.827190 -0.656390
v -0.415000 0.827190 -0.692909
v -0.415000 0.827190 -0.656390
v -0.415000 0.081417 -0.821700
v 0.415000 0.081417 -0.821700
v -0.415000 0.534807 -0.821700
v 0.415000 0.534807 -0.821700
v -0.415000 0.779719 -0.748420
v 0.415000 0.779719 -0.748420
v -0.415000 1.005960 -0.569496
v 0.415000 1.005960 -0.569496
v 0.415000 0.081417 0.821700
v -0.415000 0.081417 0.821700
v 0.415000 1.005960 -0.346510
v -0.415000 1.005960 -0.346510
v -0.415000 0.345454 -0.346510
v -0.415000 0.345454 0.821700
v 0.264401 0.345454 0.821700
v 0.415000 0.345454 0.821700
v 0.264401 0.295454 0.821700
v -0.264401 0.295454 0.821700
v -0.264401 0.345454 0.821700
v 0.415000 0.345454 -0.346510
v 0.264401 0.345454 -0.346510
v -0.264401 0.345454 -0.346510
v -0.264401 0.295454 -0.346510
v 0.264401 0.295454 -0.346510
vn 0.000000 0.000000 1.000000
vn 0.000000 -1.000000 0.000000
vn 0.000000 0.000000 -1.000000
vn 0.000000 1.000000 0.000000
vn 0.000000 0.144854 -0.989453
vn 0.000000 0.545531 -0.838091
vn 0.000000 0.760000 -0.649923
vn 0.000000 0.437157 -0.899385
vn 0.000000 0.847690 -0.530492
vn -1.000000 0.000000 0.000000
vn 1.000000 0.000000 0.000000
usemtl truck
f 3/3/1 2/2/1 1/1/1
f 2/2/1 3/3/1 4/4/1
f 3/7/2 6/6/2 5/5/2
f 6/6/2 3/7/2 1/8/2
f 7/11/3 5/10/3 6/9/3
f 5/10/3 7/11/3 8/12/3
f 11/15/4 10/14/4 9/13/4
f 10/14/4 11/15/4 12/16/4
f 15/19/5 14/18/3 13/17/3
f 14/18/3 15/19/5 16/20/5
f 17/21/6 16/20/5 15/19/5
f 16/20/5 17/21/6 18/22/6
f 17/21/6 9/13/7 18/22/6
f 9/13/7 17/21/6 11/15/7
f 19/25/9 10/24/8 12/23/8
f 10/24/8 19/25/9 20/26/9
f 7/29/2 14/28/2 8/27/2
f 14/28/2 7/29/2 13/30/2
f 22/33/2 4/32/2 21/31/2
f 4/32/2 22/33/2 2/34/2
f 19/37/9 23/36/4 20/35/9
f 23/36/4 19/37/9 24/38/4
f 13/41/10 17/40/10 15/39/10
f 17/40/10 13/41/10 7/42/10
f 17/40/10 7/42/10 11/43/10
f 11/43/10 7/42/10 12/44/10
f 12/44/10 7/42/10 19/45/10
f 7/42/10 25/46/10 19/45/10
f 24/47/10 19/45/10 25/46/10
f 7/42/10 1/48/10 25/46/10
f 1/48/10 7/42/10 6/49/10
f 25/46/10 1/48/10 2/50/10
f 25/46/10 2/50/10 26/51/10
f 26/51/10 2/50/10 22/52/10
f 29/55/1 28/54/1 27/53/1
f 29/55/1 21/56/1 28/54/1
f 21/56/1 29/55/1 22/57/1
f 30/58/1 22/57/1 29/55/1
f 22/57/1 30/58/1 26/59/1
f 26/59/1 30/58/1 31/60/1
f 4/50/11 28/51/11 21/52/11
f 28/51/11 4/50/11 32/46/11
f 3/48/11 32/46/11 4/50/11
f 5/49/11 32/46/11 3/48/11
f 5/49/11 20/45/11 32/46/11
f 32/46/11 20/45/11 23/47/11
f 8/42/11 20/45/11 5/49/11
f 8/42/11 10/44/11 20/45/11
f 8/42/11 9/43/11 10/44/11
f 8/42/11 18/40/11 9/43/11
f 14/41/11 18/40/11 8/42/11
f 18/40/11 14/41/11 16/39/11
f 23/63/1 33/62/1 32/61/1
f 33/62/1 23/63/1 34/64/1
f 34/64/1 23/63/1 25/65/1
f 25/65/1 23/63/1 24/66/1
f 35/67/1 33/62/1 34/64/1
f 33/62/1 35/67/1 36/68/1
f 29/70/10 33/46/10 36/69/10
f 33/46/10 29/70/10 27/51/10
f 31/51/11 35/69/11 34/46/11
f 35/69/11 31/51/11 30/70/11
f 3/3/1 2/2/1 1/1/1
f 2/2/1 3/3/1 4/4/1
f 3/7/2 6/6/2 5/5/2
f 6/6/2 3/7/2 1/8/2
f 7/11/3 5/10/3 6/9/3
f 5/10/3 7/11/3 8/12/3
f 11/15/4 10/14/4 9/13/4
f 10/14/4 11/15/4 12/16/4
f 15/19/5 14/18/3 13/17/3
f 14/18/3 15/19/5 16/20/5
f 17/21/6 16/20/5 15/19/5
f 16/20/5 17/21/6 18/22/6
f 17/21/6 9/13/7 18/22/6
f 9/13/7 17/21/6 11/15/7
f 19/25/9 10/24/8 12/23/8
f 10/24/8 19/25/9 20/26/9
f 7/29/2 14/28/2 8/27/2
f 14/28/2 7/29/2 13/30/2
f 22/33/2 4/32/2 21/31/2
f 4/32/2 22/33/2 2/34/2
f 19/37/9 23/36/4 20/35/9
f 23/36/4 19/37/9 24/38/4
f 13/41/10 17/40/10 15/39/10
f 17/40/10 13/41/10 7/42/10
f 17/40/10 7/42/10 11/43/10
f 11/43/10 7/42/10 12/44/10
f 12/44/10 7/42/10 19/45/10
f 7/42/10 25/46/10 19/45/10
f 24/47/10 19/45/10 25/46/10
f 7/42/10 1/48/10 25/46/10
f 1/48/10 7/42/10 6/49/10
f 25/46/10 1/48/10 2/50/10
f 25/46/10 2/50/10 26/51/10
f 26/51/10 2/50/10 22/52/10
f 29/55/1 28/54/1 27/53/1
f 29/55/1 21/56/1 28/54/1
f 21/56/1 29/55/1 22/57/1
f 30/58/1 22/57/1 29/55/1
f 22/57/1 30/58/1 26/59/1
f 26/59/1 30/58/1 31/60/1
f 4/50/11 28/51/11 21/52/11
f 28/51/11 4/50/11 32/46/11
f 3/48/11 32/46/11 4/50/11
f 5/49/11 32/46/11 3/48/11
f 5/49/11 20/45/11 32/46/11
f 32/46/11 20/45/11 23/47/11
f 8/42/11 20/45/11 5/49/11
f 8/42/11 10/44/11 20/45/11
f 8/42/11 9/43/11 10/44/11
f 8/42/11 18/40/11 9/43/11
f 14/41/11 18/40/11 8/42/11
f 18/40/11 14/41/11 16/39/11
f 23/63/1 33/62/1 32/61/1
f 33/62/1 23/63/1 34/64/1
f 34/64/1 23/63/1 25/65/1
f 25/65/1 23/63/1 24/66/1
f 35/67/1 33/62/1 34/64/1
f 33/62/1 35/67/1 36/68/1
f 29/70/10 33/46/10 36/69/10
f 33/46/10 29/70/10 27/51/10
f 31/51/11 35/69/11 34/46/11
f 35/69/11 31/51/11 30/70/11
usemtl metal
f 35/73/4 29/72/4 36/71/4
f 29/72/4 35/73/4 30/74/4
f 33/71/4 28/76/4 32/75/4
f 28/76/4 33/71/4 27/72/4
f 25/77/4 31/74/4 34/73/4
f 31/74/4 25/77/4 26/78/4
f 35/73/4 29/72/4 36/71/4
f 29/72/4 35/73/4 30/74/4
f 33/71/4 28/76/4 32/75/4
f 28/76/4 33/71/4 27/72/4
f 25/77/4 31/74/4 34/73/4
f 31/74/4 25/77/4 26/78/4
