mtllib wall-a.mtl
v -0.500000 0.000000 -0.500000
v 0.500000 0.000000 -0.500000
v -0.500000 1.000000 -0.500000
v 0.500000 1.000000 -0.500000
v 0.500000 0.000000 0.500000
v -0.500000 0.000000 0.500000
v 0.500000 1.000000 0.500000
v -0.500000 1.000000 0.500000
vn 0.000000 0.000000 -1.000000
vn 0.000000 0.000000 1.000000
vn -1.000000 0.000000 0.000000
vn 1.000000 0.000000 0.000000
vn 0.000000 1.000000 0.000000
vn 0.000000 -1.000000 0.000000
usemtl wall_lines
f 3/3/1 2/2/1 1/1/1
f 2/2/1 3/3/1 4/4/1
f 7/7/2 6/6/2 5/5/2
f 6/6/2 7/7/2 8/8/2
f 6/6/3 3/10/3 1/9/3
f 3/10/3 6/6/3 8/8/3
f 7/11/4 2/2/4 4/4/4
f 2/2/4 7/11/4 5/12/4
f 3/3/1 2/2/1 1/1/1
f 2/2/1 3/3/1 4/4/1
f 7/7/2 6/6/2 5/5/2
f 6/6/2 7/7/2 8/8/2
f 6/6/3 3/10/3 1/9/3
f 3/10/3 6/6/3 8/8/3
f 7/11/4 2/2/4 4/4/4
f 2/2/4 7/11/4 5/12/4
usemtl concrete
f 3/15/5 7/14/5 4/13/5
f 7/14/5 3/15/5 8/16/5
f 6/19/6 2/18/6 5/17/6
f 2/18/6 6/19/6 1/20/6
f 3/15/5 7/14/5 4/13/5
f 7/14/5 3/15/5 8/16/5
f 6/19/6 2/18/6 5/17/6
f 2/18/6 6/19/6 1/20/6
