mtllib barrier-strong.mtl
v -0.332000 0.000000 -0.124500
v -0.332000 0.083000 -0.124500
v -0.332000 0.000000 0.124500
v -0.332000 0.166000 -0.095865
v -0.332000 0.332000 -0.072857
v -0.332000 0.166000 0.095865
v -0.332000 0.332000 0.072857
v -0.332000 0.083000 0.124500
v 0.332000 0.083000 -0.124500
v 0.332000 0.166000 -0.095865
v 0.332000 0.332000 -0.072857
v 0.332000 0.000000 -0.124500
v 0.332000 0.332000 0.072857
v 0.332000 0.000000 0.124500
v 0.332000 0.166000 0.095865
v 0.332000 0.083000 0.124500
vn -1.000000 0.000000 0.000000
vn 0.000000 0.326136 -0.945323
vn 0.000000 0.137288 -0.990531
vn 0.000000 0.000000 -1.000000
vn 0.000000 1.000000 0.000000
vn 0.000000 -1.000000 0.000000
vn 1.000000 0.000000 0.000000
vn 0.000000 0.137288 0.990531
vn 0.000000 0.000000 1.000000
vn 0.000000 0.326136 0.945323
usemtl concrete
f 3/3/1 2/2/1 1/1/1
f 2/2/1 3/3/1 4/4/1
f 4/4/1 3/3/1 5/5/1
f 5/5/1 3/3/1 6/6/1
f 5/5/1 6/6/1 7/7/1
f 6/6/1 3/3/1 8/8/1
f 4/10/2 9/9/2 2/2/2
f 9/9/2 4/10/2 10/11/2
f 5/14/3 10/13/3 4/12/3
f 10/13/3 5/14/3 11/15/3
f 2/18/4 12/17/4 1/16/4
f 12/17/4 2/18/4 9/9/4
f 5/14/5 13/19/5 11/15/5
f 13/19/5 5/14/5 7/20/5
f 3/23/6 12/22/6 14/21/6
f 12/22/6 3/23/6 1/24/6
f 10/26/7 12/25/7 9/9/7
f 12/25/7 10/26/7 14/27/7
f 14/27/7 10/26/7 11/28/7
f 14/27/7 11/28/7 15/29/7
f 15/29/7 11/28/7 13/30/7
f 14/27/7 15/29/7 16/31/7
f 13/14/8 6/13/8 15/12/8
f 6/13/8 13/14/8 7/15/8
f 16/18/9 3/17/9 14/16/9
f 3/17/9 16/18/9 8/9/9
f 15/10/10 8/9/10 16/2/10
f 8/9/10 15/10/10 6/11/10
f 3/3/1 2/2/1 1/1/1
f 2/2/1 3/3/1 4/4/1
f 4/4/1 3/3/1 5/5/1
f 5/5/1 3/3/1 6/6/1
f 5/5/1 6/6/1 7/7/1
f 6/6/1 3/3/1 8/8/1
f 4/10/2 9/9/2 2/2/2
f 9/9/2 4/10/2 10/11/2
f 5/14/3 10/13/3 4/12/3
f 10/13/3 5/14/3 11/15/3
f 2/18/4 12/17/4 1/16/4
f 12/17/4 2/18/4 9/9/4
f 5/14/5 13/19/5 11/15/5
f 13/19/5 5/14/5 7/20/5
f 3/23/6 12/22/6 14/21/6
f 12/22/6 3/23/6 1/24/6
f 10/26/7 12/25/7 9/9/7
f 12/25/7 10/26/7 14/27/7
f 14/27/7 10/26/7 11/28/7
f 14/27/7 11/28/7 15/29/7
f 15/29/7 11/28/7 13/30/7
f 14/27/7 15/29/7 16/31/7
f 13/14/8 6/13/8 15/12/8
f 6/13/8 13/14/8 7/15/8
f 16/18/9 3/17/9 14/16/9
f 3/17/9 16/18/9 8/9/9
f 15/10/10 8/9/10 16/2/10
f 8/9/10 15/10/10 6/11/10
