mtllib dumpster.mtl
v 0.300000 0.300000 -0.200000
v 0.300000 0.000000 -0.200000
v 0.300000 0.500000 0.200000
v 0.300000 0.000000 0.200000
v -0.300000 0.000000 0.200000
v -0.300000 0.500000 0.200000
v -0.300000 0.000000 -0.200000
v -0.300000 0.300000 -0.200000
v 0.300000 0.544721 0.177639
v -0.300000 0.544721 0.177639
v 0.300000 0.329069 -0.253666
v -0.300000 0.329069 -0.253666
v 0.300000 0.284347 -0.231305
v 0.300000 0.500000 0.200000
v -0.300000 0.284347 -0.231305
v -0.300000 0.500000 0.200000
vn 1.000000 0.000000 0.000000
vn 0.000000 0.000000 1.000000
vn -1.000000 0.000000 0.000000
vn 0.000000 0.000000 -1.000000
vn 0.000000 -1.000000 0.000000
vn 0.000000 0.894427 -0.447214
vn 0.000000 -0.447214 -0.894427
vn 0.000000 0.447214 0.894427
vn 0.000000 -0.894427 0.447214
usemtl wall_metal
f 3/3/1 2/2/1 1/1/1
f 2/2/1 3/3/1 4/4/1
f 3/7/2 5/6/2 4/5/2
f 5/6/2 3/7/2 6/8/2
f 5/11/3 8/10/3 7/9/3
f 8/10/3 5/11/3 6/12/3
f 8/15/4 2/14/4 7/13/4
f 2/14/4 8/15/4 1/16/4
f 3/3/1 2/2/1 1/1/1
f 2/2/1 3/3/1 4/4/1
f 3/7/2 5/6/2 4/5/2
f 5/6/2 3/7/2 6/8/2
f 5/11/3 8/10/3 7/9/3
f 8/10/3 5/11/3 6/12/3
f 8/15/4 2/14/4 7/13/4
f 2/14/4 8/15/4 1/16/4
usemtl wall
f 5/19/5 2/18/5 4/17/5
f 2/18/5 5/19/5 7/20/5
f 5/19/5 2/18/5 4/17/5
f 2/18/5 5/19/5 7/20/5
usemtl roof
f 11/23/6 10/22/6 9/21/6
f 10/22/6 11/23/6 12/24/6
f 9/27/1 13/26/1 11/25/1
f 13/26/1 9/27/1 14/28/1
f 12/31/7 13/30/7 15/29/7
f 13/30/7 12/31/7 11/32/7
f 15/35/3 10/34/3 12/33/3
f 10/34/3 15/35/3 16/36/3
f 9/21/8 16/38/8 14/37/8
f 16/38/8 9/21/8 10/39/8
f 16/42/9 13/41/9 14/40/9
f 13/41/9 16/42/9 15/43/9
f 11/23/6 10/22/6 9/21/6
f 10/22/6 11/23/6 12/24/6
f 9/27/1 13/26/1 11/25/1
f 13/26/1 9/27/1 14/28/1
f 12/31/7 13/30/7 15/29/7
f 13/30/7 12/31/7 11/32/7
f 15/35/3 10/34/3 12/33/3
f 10/34/3 15/35/3 16/36/3
f 9/21/8 16/38/8 14/37/8
f 16/38/8 9/21/8 10/39/8
f 16/42/9 13/41/9 14/40/9
f 13/41/9 16/42/9 15/43/9
