mtllib planks.mtl
v 0.445495 0.050000 -0.143014
v 0.445495 0.000000 -0.143014
v 0.429295 0.050000 0.006108
v 0.429295 0.000000 0.006108
v -0.564856 0.000000 -0.101891
v -0.564856 0.050000 -0.101891
v -0.548656 0.050000 -0.251014
v -0.548656 0.000000 -0.251014
v -0.477274 0.100000 -0.150092
v -0.477274 0.050000 -0.150092
v -0.411990 0.100000 -0.285139
v -0.411990 0.050000 -0.285139
v 0.488329 0.050000 0.150092
v 0.488329 0.100000 0.150092
v 0.423044 0.100000 0.285139
v 0.423044 0.050000 0.285139
v -0.432329 0.050000 0.245941
v -0.432329 0.000000 0.245941
v -0.443576 0.050000 0.096363
v -0.443576 0.000000 0.096363
v 0.553609 0.000000 0.021385
v 0.553609 0.050000 0.021385
v 0.564856 0.050000 0.170962
v 0.564856 0.000000 0.170962
vn 0.994151 0.000000 0.107999
vn -0.107999 0.000000 0.994151
vn -0.994151 0.000000 -0.107999
vn 0.000000 -1.000000 0.000000
vn 0.107999 0.000000 -0.994151
vn 0.000000 1.000000 0.000000
vn -0.900319 0.000000 -0.435231
vn 0.435231 0.000000 -0.900319
vn 0.900319 0.000000 0.435231
vn -0.435231 0.000000 0.900319
vn -0.997185 0.000000 0.074979
vn -0.074979 0.000000 -0.997185
vn 0.997185 0.000000 -0.074979
vn 0.074979 0.000000 0.997185
usemtl planks
f 3/3/1 2/2/1 1/1/1
f 2/2/1 3/3/1 4/4/1
f 3/7/2 5/6/2 4/5/2
f 5/6/2 3/7/2 6/8/2
f 8/11/3 6/10/3 7/9/3
f 6/10/3 8/11/3 5/12/3
f 4/15/4 8/14/4 2/13/4
f 8/14/4 4/15/4 5/16/4
f 8/19/5 1/18/5 2/17/5
f 1/18/5 8/19/5 7/20/5
f 7/22/6 3/5/6 1/21/6
f 3/5/6 7/22/6 6/6/6
f 11/3/7 10/2/7 9/1/7
f 10/2/7 11/3/7 12/4/7
f 11/7/8 13/6/8 12/5/8
f 13/6/8 11/7/8 14/8/8
f 16/11/9 14/10/9 15/9/9
f 14/10/9 16/11/9 13/12/9
f 12/15/4 16/14/4 10/13/4
f 16/14/4 12/15/4 13/16/4
f 16/19/10 9/18/10 10/17/10
f 9/18/10 16/19/10 15/20/10
f 15/22/6 11/5/6 9/21/6
f 11/5/6 15/22/6 14/6/6
f 19/3/11 18/2/11 17/1/11
f 18/2/11 19/3/11 20/4/11
f 19/7/12 21/6/12 20/5/12
f 21/6/12 19/7/12 22/8/12
f 24/11/13 22/10/13 23/9/13
f 22/10/13 24/11/13 21/12/13
f 20/15/4 24/14/4 18/13/4
f 24/14/4 20/15/4 21/16/4
f 24/19/14 17/18/14 18/17/14
f 17/18/14 24/19/14 23/20/14
f 23/22/6 19/5/6 17/21/6
f 19/5/6 23/22/6 22/6/6
f 3/3/1 2/2/1 1/1/1
f 2/2/1 3/3/1 4/4/1
f 3/7/2 5/6/2 4/5/2
f 5/6/2 3/7/2 6/8/2
f 8/11/3 6/10/3 7/9/3
f 6/10/3 8/11/3 5/12/3
f 4/15/4 8/14/4 2/13/4
f 8/14/4 4/15/4 5/16/4
f 8/19/5 1/18/5 2/17/5
f 1/18/5 8/19/5 7/20/5
f 7/22/6 3/5/6 1/21/6
f 3/5/6 7/22/6 6/6/6
f 11/3/7 10/2/7 9/1/7
f 10/2/7 11/3/7 12/4/7
f 11/7/8 13/6/8 12/5/8
f 13/6/8 11/7/8 14/8/8
f 16/11/9 14/10/9 15/9/9
f 14/10/9 16/11/9 13/12/9
f 12/15/4 16/14/4 10/13/4
f 16/14/4 12/15/4 13/16/4
f 16/19/10 9/18/10 10/17/10
f 9/18/10 16/19/10 15/20/10
f 15/22/6 11/5/6 9/21/6
f 11/5/6 15/22/6 14/6/6
f 19/3/11 18/2/11 17/1/11
f 18/2/11 19/3/11 20/4/11
f 19/7/12 21/6/12 20/5/12
f 21/6/12 19/7/12 22/8/12
f 24/11/13 22/10/13 23/9/13
f 22/10/13 24/11/13 21/12/13
f 20/15/4 24/14/4 18/13/4
f 24/14/4 20/15/4 21/16/4
f 24/19/14 17/18/14 18/17/14
f 17/18/14 24/19/14 23/20/14
f 23/22/6 19/5/6 17/21/6
f 19/5/6 23/22/6 22/6/6
