mtllib road-dirt-side.mtl
v 0.500000 0.000000 -0.500000
v 0.500000 0.000000 0.000000
v -0.500000 0.000000 -0.500000
v -0.500000 0.000000 0.000000
v 0.500000 0.050000 0.000000
v 0.500000 0.050000 0.500000
v -0.500000 0.050000 0.000000
v -0.500000 0.050000 0.500000
v 0.500000 0.000000 0.500000
v -0.500000 0.000000 0.500000
vn 0.000000 1.000000 0.000000
vn 1.000000 0.000000 0.000000
vn 0.000000 0.000000 -1.000000
vn -1.000000 0.000000 0.000000
vn 0.000000 0.000000 1.000000
usemtl dirt
f 3/3/1 2/2/1 1/1/1
f 2/2/1 3/3/1 4/4/1
f 3/3/1 2/2/1 1/1/1
f 2/2/1 3/3/1 4/4/1
usemtl concrete
f 7/7/1 6/6/1 5/5/1
f 6/6/1 7/7/1 8/8/1
f 6/6/2 2/9/2 5/5/2
f 2/9/2 6/6/2 9/10/2
f 7/7/3 2/12/3 4/11/3
f 2/12/3 7/7/3 5/5/3
f 10/14/4 7/7/4 4/13/4
f 7/7/4 10/14/4 8/8/4
f 6/6/5 10/16/5 9/15/5
f 10/16/5 6/6/5 8/8/5
f 7/7/1 6/6/1 5/5/1
f 6/6/1 7/7/1 8/8/1
f 6/6/2 2/9/2 5/5/2
f 2/9/2 6/6/2 9/10/2
f 7/7/3 2/12/3 4/11/3
f 2/12/3 7/7/3 5/5/3
f 10/14/4 7/7/4 4/13/4
f 7/7/4 10/14/4 8/8/4
f 6/6/5 10/16/5 9/15/5
f 10/16/5 6/6/5 8/8/5
