mtllib tree-retro-small.mtl
v -0.390000 0.000000 0.000000
v 0.000000 0.000000 0.000000
v -0.390000 0.300000 0.000000
v 0.390000 0.000000 0.000000
v 0.390000 0.300000 0.000000
v 0.000000 0.300000 0.000000
v 0.000000 0.000000 -0.390000
v 0.000000 0.300000 -0.390000
v -0.000000 0.000000 0.390000
v -0.000000 0.300000 0.390000
vn 0.000000 0.000000 -1.000000
vn 0.000000 0.000000 1.000000
vn -1.000000 0.000000 0.000000
vn 1.000000 0.000000 0.000000
usemtl treeA
f 3/3/1 2/2/1 1/1/1
f 2/2/1 3/3/1 4/4/1
f 4/4/1 3/3/1 5/5/1
f 5/5/1 3/3/1 6/6/1
f 1/1/2 2/2/2 3/3/2
f 4/4/2 3/3/2 2/2/2
f 5/5/2 3/3/2 4/4/2
f 6/6/2 3/3/2 5/5/2
f 2/2/3 8/5/3 7/4/3
f 8/5/3 2/2/3 6/6/3
f 6/6/3 2/2/3 9/1/3
f 6/6/3 9/1/3 10/3/3
f 7/4/4 8/5/4 2/2/4
f 6/6/4 2/2/4 8/5/4
f 9/1/4 2/2/4 6/6/4
f 10/3/4 9/1/4 6/6/4
f 3/3/1 2/2/1 1/1/1
f 2/2/1 3/3/1 4/4/1
f 4/4/1 3/3/1 5/5/1
f 5/5/1 3/3/1 6/6/1
f 1/1/2 2/2/2 3/3/2
f 4/4/2 3/3/2 2/2/2
f 5/5/2 3/3/2 4/4/2
f 6/6/2 3/3/2 5/5/2
f 2/2/3 8/5/3 7/4/3
f 8/5/3 2/2/3 6/6/3
f 6/6/3 2/2/3 9/1/3
f 6/6/3 9/1/3 10/3/3
f 7/4/4 8/5/4 2/2/4
f 6/6/4 2/2/4 8/5/4
f 9/1/4 2/2/4 6/6/4
f 10/3/4 9/1/4 6/6/4
