mtllib tree-retro-large.mtl
v 0.000000 0.000000 -0.650000
v 0.000000 1.700000 -0.650000
v 0.000000 0.000000 -0.000000
v 0.000000 1.700000 -0.000000
v -0.000000 0.000000 0.650000
v -0.000000 1.700000 0.650000
v -0.650000 0.000000 -0.000000
v -0.650000 1.700000 -0.000000
v 0.650000 0.000000 -0.000000
v 0.650000 1.700000 -0.000000
vn -1.000000 0.000000 0.000000
vn 1.000000 0.000000 0.000000
vn 0.000000 0.000000 -1.000000
vn 0.000000 0.000000 1.000000
usemtl treeA
f 3/3/1 2/2/1 1/1/1
f 2/2/1 3/3/1 4/4/1
f 4/4/1 3/3/1 5/5/1
f 4/4/1 5/5/1 6/6/1
f 1/1/2 2/2/2 3/3/2
f 4/4/2 3/3/2 2/2/2
f 5/5/2 3/3/2 4/4/2
f 6/6/2 5/5/2 4/4/2
f 8/6/3 3/3/3 7/5/3
f 3/3/3 8/6/3 9/1/3
f 9/1/3 8/6/3 10/2/3
f 10/2/3 8/6/3 4/4/3
f 7/5/4 3/3/4 8/6/4
f 9/1/4 8/6/4 3/3/4
f 10/2/4 8/6/4 9/1/4
f 4/4/4 8/6/4 10/2/4
f 3/3/1 2/2/1 1/1/1
f 2/2/1 3/3/1 4/4/1
f 4/4/1 3/3/1 5/5/1
f 4/4/1 5/5/1 6/6/1
f 1/1/2 2/2/2 3/3/2
f 4/4/2 3/3/2 2/2/2
f 5/5/2 3/3/2 4/4/2
f 6/6/2 5/5/2 4/4/2
f 8/6/3 3/3/3 7/5/3
f 3/3/3 8/6/3 9/1/3
f 9/1/3 8/6/3 10/2/3
f 10/2/3 8/6/3 4/4/3
f 7/5/4 3/3/4 8/6/4
f 9/1/4 8/6/4 3/3/4
f 10/2/4 8/6/4 9/1/4
f 4/4/4 8/6/4 10/2/4
