mtllib truck-grey-cargo.mtl
v 0.415000 0.738358 -0.584105
v 0.415000 0.000000 -0.584105
v 0.415000 0.738358 0.584105
v 0.415000 0.000000 0.584105
v -0.415000 0.000000 0.584105
v -0.415000 0.738358 0.584105
v -0.415000 0.738358 -0.584105
v -0.415000 0.000000 -0.584105
vn 1.000000 0.000000 0.000000
vn 0.000000 0.000000 1.000000
vn 0.000000 1.000000 0.000000
vn -1.000000 0.000000 0.000000
vn 0.000000 0.000000 -1.000000
vn 0.000000 -1.000000 0.000000
usemtl truck
f 3/3/1 2/2/1 1/1/1
f 2/2/1 3/3/1 4/4/1
f 3/7/2 5/6/2 4/5/2
f 5/6/2 3/7/2 6/8/2
f 7/11/3 3/10/3 1/9/3
f 3/10/3 7/11/3 6/12/3
f 5/4/4 7/1/4 8/2/4
f 7/1/4 5/4/4 6/3/4
f 8/6/5 1/7/5 2/5/5
f 1/7/5 8/6/5 7/8/5
f 5/12/6 2/9/6 4/10/6
f 2/9/6 5/12/6 8/11/6
f 3/3/1 2/2/1 1/1/1
f 2/2/1 3/3/1 4/4/1
f 3/7/2 5/6/2 4/5/2
f 5/6/2 3/7/2 6/8/2
f 7/11/3 3/10/3 1/9/3
f 3/10/3 7/11/3 6/12/3
f 5/4/4 7/1/4 8/2/4
f 7/1/4 5/4/4 6/3/4
f 8/6/5 1/7/5 2/5/5
f 1/7/5 8/6/5 7/8/5
f 5/12/6 2/9/6 4/10/6
f 2/9/6 5/12/6 8/11/6
