mtllib truck-grey.mtl
v -0.415000 0.000000 0.614200
v -0.415000 0.081417 0.614200
v 0.415000 0.000000 0.614200
v 0.415000 0.081417 0.614200
v 0.415000 0.000000 -0.630800
v -0.415000 0.000000 -0.630800
v -0.415000 0.081417 -0.630800
v -0.415000 1.005960 -0.569496
v -0.415000 1.005960 -0.346510
v -0.415000 1.005960 0.821700
v -0.415000 0.081417 0.821700
v -0.415000 0.827190 -0.656390
v -0.415000 0.827190 -0.692909
v -0.415000 0.779719 -0.748420
v -0.415000 0.081417 -0.821700
v -0.415000 0.534807 -0.821700
v 0.415000 0.081417 -0.630800
v 0.415000 0.827190 -0.692909
v 0.415000 0.827190 -0.656390
v 0.415000 0.081417 0.821700
v 0.415000 1.005960 0.821700
v 0.415000 1.005960 -0.346510
v 0.415000 1.005960 -0.569496
v 0.415000 0.779719 -0.748420
v 0.415000 0.081417 -0.821700
v 0.415000 0.534807 -0.821700
vn 0.000000 0.000000 1.000000
vn 0.000000 -1.000000 0.000000
vn -1.000000 0.000000 0.000000
vn 0.000000 0.000000 -1.000000
vn 0.000000 1.000000 0.000000
vn 1.000000 0.000000 0.000000
vn 0.000000 0.144854 -0.989453
vn 0.000000 0.545531 -0.838091
vn 0.000000 0.760000 -0.649923
vn 0.000000 0.437157 -0.899385
vn 0.000000 0.847690 -0.530492
usemtl truck
f 3/3/1 2/2/1 1/1/1
f 2/2/1 3/3/1 4/4/1
f 3/7/2 6/6/2 5/5/2
f 6/6/2 3/7/2 1/8/2
f 1/11/3 7/10/3 6/9/3
f 7/10/3 1/11/3 8/12/3
f 8/12/3 1/11/3 9/13/3
f 9/13/3 1/11/3 2/14/3
f 9/13/3 2/14/3 10/15/3
f 10/15/3 2/14/3 11/16/3
f 12/17/3 7/10/3 8/12/3
f 13/18/3 7/10/3 12/17/3
f 14/19/3 7/10/3 13/18/3
f 14/19/3 15/20/3 7/10/3
f 15/20/3 14/19/3 16/21/3
f 7/24/4 5/23/4 6/22/4
f 5/23/4 7/24/4 17/25/4
f 13/28/5 19/27/5 18/26/5
f 19/27/5 13/28/5 12/29/5
f 4/14/6 21/15/6 20/16/6
f 21/15/6 4/14/6 22/13/6
f 3/11/6 22/13/6 4/14/6
f 3/11/6 23/12/6 22/13/6
f 5/9/6 23/12/6 3/11/6
f 17/10/6 23/12/6 5/9/6
f 17/10/6 19/17/6 23/12/6
f 17/10/6 18/18/6 19/17/6
f 17/10/6 24/19/6 18/18/6
f 25/20/6 24/19/6 17/10/6
f 24/19/6 25/20/6 26/21/6
f 16/32/7 25/31/4 15/30/4
f 25/31/4 16/32/7 26/33/7
f 14/34/8 26/33/7 16/32/7
f 26/33/7 14/34/8 24/35/8
f 14/34/8 18/26/9 24/35/8
f 18/26/9 14/34/8 13/28/9
f 8/38/11 19/37/10 12/36/10
f 19/37/10 8/38/11 23/39/11
f 7/42/2 25/41/2 17/40/2
f 25/41/2 7/42/2 15/43/2
f 21/46/1 11/45/1 20/44/1
f 11/45/1 21/46/1 10/47/1
f 11/50/2 4/49/2 20/48/2
f 4/49/2 11/50/2 2/51/2
f 8/54/11 22/53/5 23/52/11
f 22/53/5 8/54/11 9/55/5
f 9/58/5 21/57/5 22/56/5
f 21/57/5 9/58/5 10/59/5
f 3/3/1 2/2/1 1/1/1
f 2/2/1 3/3/1 4/4/1
f 3/7/2 6/6/2 5/5/2
f 6/6/2 3/7/2 1/8/2
f 1/11/3 7/10/3 6/9/3
f 7/10/3 1/11/3 8/12/3
f 8/12/3 1/11/3 9/13/3
f 9/13/3 1/11/3 2/14/3
f 9/13/3 2/14/3 10/15/3
f 10/15/3 2/14/3 11/16/3
f 12/17/3 7/10/3 8/12/3
f 13/18/3 7/10/3 12/17/3
f 14/19/3 7/10/3 13/18/3
f 14/19/3 15/20/3 7/10/3
f 15/20/3 14/19/3 16/21/3
f 7/24/4 5/23/4 6/22/4
f 5/23/4 7/24/4 17/25/4
f 13/28/5 19/27/5 18/26/5
f 19/27/5 13/28/5 12/29/5
f 4/14/6 21/15/6 20/16/6
f 21/15/6 4/14/6 22/13/6
f 3/11/6 22/13/6 4/14/6
f 3/11/6 23/12/6 22/13/6
f 5/9/6 23/12/6 3/11/6
f 17/10/6 23/12/6 5/9/6
f 17/10/6 19/17/6 23/12/6
f 17/10/6 18/18/6 19/17/6
f 17/10/6 24/19/6 18/18/6
f 25/20/6 24/19/6 17/10/6
f 24/19/6 25/20/6 26/21/6
f 16/32/7 25/31/4 15/30/4
f 25/31/4 16/32/7 26/33/7
f 14/34/8 26/33/7 16/32/7
f 26/33/7 14/34/8 24/35/8
f 14/34/8 18/26/9 24/35/8
f 18/26/9 14/34/8 13/28/9
f 8/38/11 19/37/10 12/36/10
f 19/37/10 8/38/11 23/39/11
f 7/42/2 25/41/2 17/40/2
f 25/41/2 7/42/2 15/43/2
f 21/46/1 11/45/1 20/44/1
f 11/45/1 21/46/1 10/47/1
f 11/50/2 4/49/2 20/48/2
f 4/49/2 11/50/2 2/51/2
f 8/54/11 22/53/5 23/52/11
f 22/53/5 8/54/11 9/55/5
f 9/58/5 21/57/5 22/56/5
f 21/57/5 9/58/5 10/59/5
