mtllib wall-b.mtl
v -0.500000 0.000000 -0.500000
v 0.500000 0.000000 -0.500000
v -0.500000 1.000000 -0.500000
v 0.500000 1.000000 -0.500000
v 0.500000 0.000000 0.500000
v -0.500000 0.000000 0.500000
v 0.500000 1.000000 0.500000
v -0.500000 1.000000 0.500000
vn 0.000000 0.000000 -1.000000
vn 0.000000 0.000000 1.000000
vn -1.000000 0.000000 0.000000
vn 1.000000 0.000000 0.000000
vn 0.000000 1.000000 0.000000
vn 0.000000 -1.000000 0.000000
usemtl wall_metal
f 3/3/1 2/2/1 1/1/1
f 2/2/1 3/3/1 4/4/1
f 7/7/2 6/6/2 5/5/2
f 6/6/2 7/7/2 8/8/2
f 6/9/3 3/3/3 1/1/3
f 3/3/3 6/9/3 8/10/3
f 7/7/4 2/2/4 4/4/4
f 2/2/4 7/7/4 5/5/4
f 3/3/1 2/2/1 1/1/1
f 2/2/1 3/3/1 4/4/1
f 7/7/2 6/6/2 5/5/2
f 6/6/2 7/7/2 8/8/2
f 6/9/3 3/3/3 1/1/3
f 3/3/3 6/9/3 8/10/3
f 7/7/4 2/2/4 4/4/4
f 2/2/4 7/7/4 5/5/4
usemtl concrete
f 3/13/5 7/12/5 4/11/5
f 7/12/5 3/13/5 8/14/5
f 6/17/6 2/16/6 5/15/6
f 2/16/6 6/17/6 1/18/6
f 3/13/5 7/12/5 4/11/5
f 7/12/5 3/13/5 8/14/5
f 6/17/6 2/16/6 5/15/6
f 2/16/6 6/17/6 1/18/6
