mtllib conveyor.mtl
v 0.356569 0.256569 -0.450000
v 0.380000 0.200000 -0.450000
v 0.370711 0.270711 -0.400000
v 0.400000 0.200000 -0.400000
v 0.220000 0.200000 -0.450000
v 0.243431 0.256569 -0.450000
v 0.200000 0.200000 -0.400000
v 0.229289 0.270711 -0.400000
v 0.243431 0.143431 -0.450000
v 0.229289 0.129289 -0.400000
v 0.370711 0.129289 -0.400000
v 0.356569 0.143431 -0.450000
v 0.300000 0.100000 -0.400000
v 0.300000 0.120000 -0.450000
v 0.300000 0.280000 -0.450000
v 0.300000 0.300000 -0.400000
v -0.243431 0.256569 -0.450000
v -0.220000 0.200000 -0.450000
v -0.229289 0.270711 -0.400000
v -0.200000 0.200000 -0.400000
v -0.380000 0.200000 -0.450000
v -0.356569 0.256569 -0.450000
v -0.400000 0.200000 -0.400000
v -0.370711 0.270711 -0.400000
v -0.356569 0.143431 -0.450000
v -0.370711 0.129289 -0.400000
v -0.229289 0.129289 -0.400000
v -0.243431 0.143431 -0.450000
v -0.300000 0.100000 -0.400000
v -0.300000 0.120000 -0.450000
v -0.300000 0.280000 -0.450000
v -0.300000 0.300000 -0.400000
v 0.243431 0.256569 0.450000
v 0.220000 0.200000 0.450000
v 0.229289 0.270711 0.400000
v 0.200000 0.200000 0.400000
v 0.380000 0.200000 0.450000
v 0.356569 0.256569 0.450000
v 0.400000 0.200000 0.400000
v 0.370711 0.270711 0.400000
v 0.356569 0.143431 0.450000
v 0.370711 0.129289 0.400000
v 0.229289 0.129289 0.400000
v 0.243431 0.143431 0.450000
v 0.300000 0.100000 0.400000
v 0.300000 0.120000 0.450000
v 0.300000 0.280000 0.450000
v 0.300000 0.300000 0.400000
v -0.356569 0.256569 0.450000
v -0.380000 0.200000 0.450000
v -0.370711 0.270711 0.400000
v -0.400000 0.200000 0.400000
v -0.220000 0.200000 0.450000
v -0.243431 0.256569 0.450000
v -0.200000 0.200000 0.400000
v -0.229289 0.270711 0.400000
v -0.243431 0.143431 0.450000
v -0.229289 0.129289 0.400000
v -0.370711 0.129289 0.400000
v -0.356569 0.143431 0.450000
v -0.300000 0.100000 0.400000
v -0.300000 0.120000 0.450000
v -0.300000 0.280000 0.450000
v -0.300000 0.300000 0.400000
v -0.400000 0.000000 -0.500000
v 0.400000 0.000000 -0.500000
v -0.470711 0.029289 -0.500000
v 0.470711 0.029289 -0.500000
v -0.500000 0.100000 -0.500000
v 0.500000 0.100000 -0.500000
v -0.380109 0.100000 -0.500000
v -0.400000 0.119891 -0.500000
v 0.380109 0.100000 -0.500000
v 0.400000 0.119891 -0.500000
v -0.500000 0.300000 -0.500000
v 0.500000 0.300000 -0.500000
v -0.400000 0.280109 -0.500000
v 0.400000 0.280109 -0.500000
v 0.380109 0.300000 -0.500000
v -0.380109 0.300000 -0.500000
v -0.470711 0.370711 -0.500000
v 0.470711 0.370711 -0.500000
v -0.400000 0.400000 -0.500000
v 0.400000 0.400000 -0.500000
v -0.400000 0.000000 0.500000
v -0.470711 0.029289 0.500000
v 0.470711 0.370711 0.500000
v 0.400000 0.400000 0.500000
v 0.400000 0.000000 0.500000
v 0.500000 0.100000 0.500000
v 0.470711 0.029289 0.500000
v 0.500000 0.300000 0.500000
v -0.500000 0.100000 0.500000
v -0.400000 0.400000 0.500000
v -0.470711 0.370711 0.500000
v -0.500000 0.300000 0.500000
v -0.380109 0.100000 0.500000
v 0.380109 0.100000 0.500000
v -0.400000 0.119891 0.500000
v 0.400000 0.119891 0.500000
v -0.400000 0.280109 0.500000
v 0.400000 0.280109 0.500000
v -0.380109 0.300000 0.500000
v 0.380109 0.300000 0.500000
v 0.400000 0.119891 -0.400000
v 0.400000 0.280109 -0.400000
v 0.380109 0.100000 -0.400000
v -0.380109 0.100000 -0.400000
v -0.400000 0.280109 -0.400000
v -0.400000 0.119891 -0.400000
v 0.380109 0.300000 -0.400000
v -0.380109 0.300000 -0.400000
v 0.400000 0.119891 0.400000
v 0.400000 0.280109 0.400000
v 0.380109 0.100000 0.400000
v -0.380109 0.100000 0.400000
v 0.380109 0.300000 0.400000
v -0.380109 0.300000 0.400000
v -0.400000 0.119891 0.400000
v -0.400000 0.280109 0.400000
vn 0.454146 0.454146 -0.766487
vn 0.642260 0.000000 -0.766487
vn 0.656532 0.656532 -0.371391
vn 0.928477 0.000000 -0.371391
vn -0.642260 0.000000 -0.766487
vn -0.454146 0.454146 -0.766487
vn -0.928477 0.000000 -0.371391
vn -0.656532 0.656532 -0.371391
vn -0.454146 -0.454146 -0.766487
vn -0.656532 -0.656532 -0.371391
vn 0.656532 -0.656532 -0.371391
vn 0.454146 -0.454146 -0.766487
vn 0.000000 -0.928477 -0.371391
vn 0.000000 -0.642260 -0.766487
vn 0.000000 0.642260 -0.766487
vn 0.000000 0.928477 -0.371391
vn -0.454147 0.454146 0.766487
vn -0.642260 0.000000 0.766487
vn -0.656532 0.656532 0.371391
vn -0.928477 0.000000 0.371391
vn 0.642260 0.000000 0.766487
vn 0.454146 0.454146 0.766487
vn 0.928477 0.000000 0.371391
vn 0.656532 0.656532 0.371391
vn 0.454146 -0.454146 0.766487
vn 0.656532 -0.656532 0.371391
vn -0.656532 -0.656532 0.371391
vn -0.454147 -0.454146 0.766487
vn -0.000000 -0.928477 0.371391
vn -0.000000 -0.642260 0.766487
vn -0.000000 0.642260 0.766487
vn -0.000000 0.928477 0.371391
vn 0.000000 0.000000 -1.000000
vn -0.195090 -0.980785 0.000000
vn -0.707107 -0.707107 0.000000
vn 0.707107 0.707107 0.000000
vn 0.195090 0.980785 0.000000
vn 0.195090 -0.980785 0.000000
vn 0.980785 -0.195090 0.000000
vn 0.707107 -0.707107 0.000000
vn 0.980785 0.195090 0.000000
vn -0.980785 -0.195090 0.000000
vn -0.195090 0.980785 0.000000
vn -0.707107 0.707107 0.000000
vn -0.980785 0.195090 0.000000
vn 0.000000 0.000000 1.000000
vn -0.923879 0.382683 0.000000
vn -0.923879 -0.382683 0.000000
vn -0.382683 0.923879 0.000000
vn 0.382683 0.923879 0.000000
vn 0.923879 -0.382683 0.000000
vn 0.923879 0.382683 0.000000
vn -0.382683 -0.923879 0.000000
vn 0.382683 -0.923879 0.000000
usemtl colormap
f 3/3/3 2/2/2 1/1/1
f 2/2/2 3/3/3 4/2/4
f 7/2/7 6/1/6 5/2/5
f 6/1/6 7/2/7 8/3/8
f 10/5/10 5/2/5 9/4/9
f 5/2/5 10/5/10 7/2/7
f 13/6/13 12/4/12 11/5/11
f 12/4/12 13/6/13 14/7/14
f 6/1/6 16/9/16 15/8/15
f 16/9/16 6/1/6 8/3/8
f 4/2/4 12/4/12 2/2/2
f 12/4/12 4/2/4 11/5/11
f 9/4/9 12/4/12 14/7/14
f 12/4/12 9/4/9 5/2/5
f 12/4/12 5/2/5 2/2/2
f 2/2/2 5/2/5 1/1/1
f 1/1/1 5/2/5 6/1/6
f 1/1/1 6/1/6 15/8/15
f 1/1/1 16/9/16 3/3/3
f 16/9/16 1/1/1 15/8/15
f 13/6/13 9/4/9 14/7/14
f 9/4/9 13/6/13 10/5/10
f 19/3/3 18/2/2 17/1/1
f 18/2/2 19/3/3 20/2/4
f 23/2/7 22/1/6 21/2/5
f 22/1/6 23/2/7 24/3/8
f 26/5/10 21/2/5 25/4/9
f 21/2/5 26/5/10 23/2/7
f 29/6/13 28/4/12 27/5/11
f 28/4/12 29/6/13 30/7/14
f 22/1/6 32/9/16 31/8/15
f 32/9/16 22/1/6 24/3/8
f 20/2/4 28/4/12 18/2/2
f 28/4/12 20/2/4 27/5/11
f 25/4/9 28/4/12 30/7/14
f 28/4/12 25/4/9 21/2/5
f 28/4/12 21/2/5 18/2/2
f 18/2/2 21/2/5 17/1/1
f 17/1/1 21/2/5 22/1/6
f 17/1/1 22/1/6 31/8/15
f 17/1/1 32/9/16 19/3/3
f 32/9/16 17/1/1 31/8/15
f 29/6/13 25/4/9 30/7/14
f 25/4/9 29/6/13 26/5/10
f 35/3/19 34/2/18 33/1/17
f 34/2/18 35/3/19 36/2/20
f 39/2/23 38/1/22 37/2/21
f 38/1/22 39/2/23 40/3/24
f 42/5/26 37/2/21 41/4/25
f 37/2/21 42/5/26 39/2/23
f 45/6/29 44/4/28 43/5/27
f 44/4/28 45/6/29 46/7/30
f 38/1/22 48/9/32 47/8/31
f 48/9/32 38/1/22 40/3/24
f 36/2/20 44/4/28 34/2/18
f 44/4/28 36/2/20 43/5/27
f 41/4/25 44/4/28 46/7/30
f 44/4/28 41/4/25 37/2/21
f 44/4/28 37/2/21 34/2/18
f 34/2/18 37/2/21 33/1/17
f 33/1/17 37/2/21 38/1/22
f 33/1/17 38/1/22 47/8/31
f 33/1/17 48/9/32 35/3/19
f 48/9/32 33/1/17 47/8/31
f 45/6/29 41/4/25 46/7/30
f 41/4/25 45/6/29 42/5/26
f 51/3/19 50/2/18 49/1/17
f 50/2/18 51/3/19 52/2/20
f 55/2/23 54/1/22 53/2/21
f 54/1/22 55/2/23 56/3/24
f 58/5/26 53/2/21 57/4/25
f 53/2/21 58/5/26 55/2/23
f 61/6/29 60/4/28 59/5/27
f 60/4/28 61/6/29 62/7/30
f 54/1/22 64/9/32 63/8/31
f 64/9/32 54/1/22 56/3/24
f 52/2/20 60/4/28 50/2/18
f 60/4/28 52/2/20 59/5/27
f 57/4/25 60/4/28 62/7/30
f 60/4/28 57/4/25 53/2/21
f 60/4/28 53/2/21 50/2/18
f 50/2/18 53/2/21 49/1/17
f 49/1/17 53/2/21 54/1/22
f 49/1/17 54/1/22 63/8/31
f 49/1/17 64/9/32 51/3/19
f 64/9/32 49/1/17 63/8/31
f 61/6/29 57/4/25 62/7/30
f 57/4/25 61/6/29 58/5/26
f 67/11/33 66/10/33 65/10/33
f 66/10/33 67/11/33 68/11/33
f 68/11/33 67/11/33 69/12/33
f 68/11/33 69/12/33 70/12/33
f 70/12/33 69/12/33 71/12/33
f 71/12/33 69/12/33 72/13/33
f 70/12/33 71/12/33 73/12/33
f 74/13/33 70/12/33 73/12/33
f 72/13/33 69/12/33 75/14/33
f 70/12/33 74/13/33 76/14/33
f 72/13/33 75/14/33 77/15/33
f 76/14/33 74/13/33 78/15/33
f 76/14/33 78/15/33 79/14/33
f 77/15/33 75/14/33 80/14/33
f 76/14/33 79/14/33 80/14/33
f 76/14/33 80/14/33 75/14/33
f 76/14/33 75/14/33 81/16/33
f 76/14/33 81/16/33 82/16/33
f 82/16/33 81/16/33 83/17/33
f 82/16/33 83/17/33 84/17/33
f 86/11/35 65/10/34 85/10/34
f 65/10/34 86/11/35 67/11/35
f 84/17/37 87/16/36 82/16/36
f 87/16/36 84/17/37 88/17/37
f 85/10/34 66/10/38 89/10/38
f 66/10/38 85/10/34 65/10/34
f 90/12/39 68/11/40 70/12/39
f 68/11/40 90/12/39 91/11/40
f 89/10/38 68/11/40 91/11/40
f 68/11/40 89/10/38 66/10/38
f 92/14/41 70/12/39 76/14/41
f 70/12/39 92/14/41 90/12/39
f 86/11/35 69/12/42 67/11/35
f 69/12/42 86/11/35 93/12/42
f 87/16/36 76/14/41 82/16/36
f 76/14/41 87/16/36 92/14/41
f 81/16/44 94/17/43 83/17/43
f 94/17/43 81/16/44 95/16/44
f 93/12/42 75/14/45 69/12/42
f 75/14/45 93/12/42 96/14/45
f 83/17/43 88/17/37 84/17/37
f 88/17/37 83/17/43 94/17/43
f 96/14/45 81/16/44 75/14/45
f 81/16/44 96/14/45 95/16/44
f 91/11/46 85/10/46 89/10/46
f 85/10/46 91/11/46 86/11/46
f 86/11/46 91/11/46 93/12/46
f 93/12/46 91/11/46 90/12/46
f 93/12/46 90/12/46 97/12/46
f 90/12/46 98/12/46 97/12/46
f 93/12/46 97/12/46 99/13/46
f 98/12/46 90/12/46 100/13/46
f 93/12/46 99/13/46 96/14/46
f 100/13/46 90/12/46 92/14/46
f 96/14/46 99/13/46 101/15/46
f 100/13/46 92/14/46 102/15/46
f 96/14/46 101/15/46 103/14/46
f 102/15/46 92/14/46 104/14/46
f 96/14/46 103/14/46 104/14/46
f 96/14/46 104/14/46 92/14/46
f 96/14/46 92/14/46 87/16/46
f 96/14/46 87/16/46 95/16/46
f 95/16/46 87/16/46 88/17/46
f 95/16/46 88/17/46 94/17/46
f 105/18/47 78/19/48 74/18/47
f 78/19/48 105/18/47 106/19/48
f 71/20/50 107/20/49 73/20/49
f 107/20/49 71/20/50 108/20/50
f 109/19/51 72/18/52 77/19/51
f 72/18/52 109/19/51 110/18/52
f 112/21/54 79/21/53 111/21/53
f 79/21/53 112/21/54 80/21/54
f 111/21/53 78/19/48 106/19/48
f 78/19/48 111/21/53 79/21/53
f 109/19/51 80/21/54 112/21/54
f 80/21/54 109/19/51 77/19/51
f 73/20/49 105/18/47 74/18/47
f 105/18/47 73/20/49 107/20/49
f 100/18/47 114/19/48 113/18/47
f 114/19/48 100/18/47 102/19/48
f 116/20/50 98/20/49 115/20/49
f 98/20/49 116/20/50 97/20/50
f 104/21/53 118/21/54 117/21/53
f 118/21/54 104/21/53 103/21/54
f 115/20/49 100/18/47 113/18/47
f 100/18/47 115/20/49 98/20/49
f 102/19/48 117/21/53 114/19/48
f 117/21/53 102/19/48 104/21/53
f 119/18/52 97/20/50 116/20/50
f 97/20/50 119/18/52 99/18/52
f 115/20/46 119/18/46 116/20/46
f 119/18/46 115/20/46 113/18/46
f 119/18/46 113/18/46 114/19/46
f 119/18/46 114/19/46 120/19/46
f 120/19/46 114/19/46 117/21/46
f 120/19/46 117/21/46 118/21/46
f 103/21/54 120/19/51 118/21/54
f 120/19/51 103/21/54 101/19/51
f 101/19/51 119/18/52 120/19/51
f 119/18/52 101/19/51 99/18/52
f 72/18/52 108/20/50 71/20/50
f 108/20/50 72/18/52 110/18/52
f 108/20/33 105/18/33 107/20/33
f 105/18/33 108/20/33 110/18/33
f 105/18/33 110/18/33 109/19/33
f 105/18/33 109/19/33 106/19/33
f 106/19/33 109/19/33 112/21/33
f 106/19/33 112/21/33 111/21/33
f 3/3/3 2/2/2 1/1/1
f 2/2/2 3/3/3 4/2/4
f 7/2/7 6/1/6 5/2/5
f 6/1/6 7/2/7 8/3/8
f 10/5/10 5/2/5 9/4/9
f 5/2/5 10/5/10 7/2/7
f 13/6/13 12/4/12 11/5/11
f 12/4/12 13/6/13 14/7/14
f 6/1/6 16/9/16 15/8/15
f 16/9/16 6/1/6 8/3/8
f 4/2/4 12/4/12 2/2/2
f 12/4/12 4/2/4 11/5/11
f 9/4/9 12/4/12 14/7/14
f 12/4/12 9/4/9 5/2/5
f 12/4/12 5/2/5 2/2/2
f 2/2/2 5/2/5 1/1/1
f 1/1/1 5/2/5 6/1/6
f 1/1/1 6/1/6 15/8/15
f 1/1/1 16/9/16 3/3/3
f 16/9/16 1/1/1 15/8/15
f 13/6/13 9/4/9 14/7/14
f 9/4/9 13/6/13 10/5/10
f 19/3/3 18/2/2 17/1/1
f 18/2/2 19/3/3 20/2/4
f 23/2/7 22/1/6 21/2/5
f 22/1/6 23/2/7 24/3/8
f 26/5/10 21/2/5 25/4/9
f 21/2/5 26/5/10 23/2/7
f 29/6/13 28/4/12 27/5/11
f 28/4/12 29/6/13 30/7/14
f 22/1/6 32/9/16 31/8/15
f 32/9/16 22/1/6 24/3/8
f 20/2/4 28/4/12 18/2/2
f 28/4/12 20/2/4 27/5/11
f 25/4/9 28/4/12 30/7/14
f 28/4/12 25/4/9 21/2/5
f 28/4/12 21/2/5 18/2/2
f 18/2/2 21/2/5 17/1/1
f 17/1/1 21/2/5 22/1/6
f 17/1/1 22/1/6 31/8/15
f 17/1/1 32/9/16 19/3/3
f 32/9/16 17/1/1 31/8/15
f 29/6/13 25/4/9 30/7/14
f 25/4/9 29/6/13 26/5/10
f 35/3/19 34/2/18 33/1/17
f 34/2/18 35/3/19 36/2/20
f 39/2/23 38/1/22 37/2/21
f 38/1/22 39/2/23 40/3/24
f 42/5/26 37/2/21 41/4/25
f 37/2/21 42/5/26 39/2/23
f 45/6/29 44/4/28 43/5/27
f 44/4/28 45/6/29 46/7/30
f 38/1/22 48/9/32 47/8/31
f 48/9/32 38/1/22 40/3/24
f 36/2/20 44/4/28 34/2/18
f 44/4/28 36/2/20 43/5/27
f 41/4/25 44/4/28 46/7/30
f 44/4/28 41/4/25 37/2/21
f 44/4/28 37/2/21 34/2/18
f 34/2/18 37/2/21 33/1/17
f 33/1/17 37/2/21 38/1/22
f 33/1/17 38/1/22 47/8/31
f 33/1/17 48/9/32 35/3/19
f 48/9/32 33/1/17 47/8/31
f 45/6/29 41/4/25 46/7/30
f 41/4/25 45/6/29 42/5/26
f 51/3/19 50/2/18 49/1/17
f 50/2/18 51/3/19 52/2/20
f 55/2/23 54/1/22 53/2/21
f 54/1/22 55/2/23 56/3/24
f 58/5/26 53/2/21 57/4/25
f 53/2/21 58/5/26 55/2/23
f 61/6/29 60/4/28 59/5/27
f 60/4/28 61/6/29 62/7/30
f 54/1/22 64/9/32 63/8/31
f 64/9/32 54/1/22 56/3/24
f 52/2/20 60/4/28 50/2/18
f 60/4/28 52/2/20 59/5/27
f 57/4/25 60/4/28 62/7/30
f 60/4/28 57/4/25 53/2/21
f 60/4/28 53/2/21 50/2/18
f 50/2/18 53/2/21 49/1/17
f 49/1/17 53/2/21 54/1/22
f 49/1/17 54/1/22 63/8/31
f 49/1/17 64/9/32 51/3/19
f 64/9/32 49/1/17 63/8/31
f 61/6/29 57/4/25 62/7/30
f 57/4/25 61/6/29 58/5/26
f 67/11/33 66/10/33 65/10/33
f 66/10/33 67/11/33 68/11/33
f 68/11/33 67/11/33 69/12/33
f 68/11/33 69/12/33 70/12/33
f 70/12/33 69/12/33 71/12/33
f 71/12/33 69/12/33 72/13/33
f 70/12/33 71/12/33 73/12/33
f 74/13/33 70/12/33 73/12/33
f 72/13/33 69/12/33 75/14/33
f 70/12/33 74/13/33 76/14/33
f 72/13/33 75/14/33 77/15/33
f 76/14/33 74/13/33 78/15/33
f 76/14/33 78/15/33 79/14/33
f 77/15/33 75/14/33 80/14/33
f 76/14/33 79/14/33 80/14/33
f 76/14/33 80/14/33 75/14/33
f 76/14/33 75/14/33 81/16/33
f 76/14/33 81/16/33 82/16/33
f 82/16/33 81/16/33 83/17/33
f 82/16/33 83/17/33 84/17/33
f 86/11/35 65/10/34 85/10/34
f 65/10/34 86/11/35 67/11/35
f 84/17/37 87/16/36 82/16/36
f 87/16/36 84/17/37 88/17/37
f 85/10/34 66/10/38 89/10/38
f 66/10/38 85/10/34 65/10/34
f 90/12/39 68/11/40 70/12/39
f 68/11/40 90/12/39 91/11/40
f 89/10/38 68/11/40 91/11/40
f 68/11/40 89/10/38 66/10/38
f 92/14/41 70/12/39 76/14/41
f 70/12/39 92/14/41 90/12/39
f 86/11/35 69/12/42 67/11/35
f 69/12/42 86/11/35 93/12/42
f 87/16/36 76/14/41 82/16/36
f 76/14/41 87/16/36 92/14/41
f 81/16/44 94/17/43 83/17/43
f 94/17/43 81/16/44 95/16/44
f 93/12/42 75/14/45 69/12/42
f 75/14/45 93/12/42 96/14/45
f 83/17/43 88/17/37 84/17/37
f 88/17/37 83/17/43 94/17/43
f 96/14/45 81/16/44 75/14/45
f 81/16/44 96/14/45 95/16/44
f 91/11/46 85/10/46 89/10/46
f 85/10/46 91/11/46 86/11/46
f 86/11/46 91/11/46 93/12/46
f 93/12/46 91/11/46 90/12/46
f 93/12/46 90/12/46 97/12/46
f 90/12/46 98/12/46 97/12/46
f 93/12/46 97/12/46 99/13/46
f 98/12/46 90/12/46 100/13/46
f 93/12/46 99/13/46 96/14/46
f 100/13/46 90/12/46 92/14/46
f 96/14/46 99/13/46 101/15/46
f 100/13/46 92/14/46 102/15/46
f 96/14/46 101/15/46 103/14/46
f 102/15/46 92/14/46 104/14/46
f 96/14/46 103/14/46 104/14/46
f 96/14/46 104/14/46 92/14/46
f 96/14/46 92/14/46 87/16/46
f 96/14/46 87/16/46 95/16/46
f 95/16/46 87/16/46 88/17/46
f 95/16/46 88/17/46 94/17/46
f 105/18/47 78/19/48 74/18/47
f 78/19/48 105/18/47 106/19/48
f 71/20/50 107/20/49 73/20/49
f 107/20/49 71/20/50 108/20/50
f 109/19/51 72/18/52 77/19/51
f 72/18/52 109/19/51 110/18/52
f 112/21/54 79/21/53 111/21/53
f 79/21/53 112/21/54 80/21/54
f 111/21/53 78/19/48 106/19/48
f 78/19/48 111/21/53 79/21/53
f 109/19/51 80/21/54 112/21/54
f 80/21/54 109/19/51 77/19/51
f 73/20/49 105/18/47 74/18/47
f 105/18/47 73/20/49 107/20/49
f 100/18/47 114/19/48 113/18/47
f 114/19/48 100/18/47 102/19/48
f 116/20/50 98/20/49 115/20/49
f 98/20/49 116/20/50 97/20/50
f 104/21/53 118/21/54 117/21/53
f 118/21/54 104/21/53 103/21/54
f 115/20/49 100/18/47 113/18/47
f 100/18/47 115/20/49 98/20/49
f 102/19/48 117/21/53 114/19/48
f 117/21/53 102/19/48 104/21/53
f 119/18/52 97/20/50 116/20/50
f 97/20/50 119/18/52 99/18/52
f 115/20/46 119/18/46 116/20/46
f 119/18/46 115/20/46 113/18/46
f 119/18/46 113/18/46 114/19/46
f 119/18/46 114/19/46 120/19/46
f 120/19/46 114/19/46 117/21/46
f 120/19/46 117/21/46 118/21/46
f 103/21/54 120/19/51 118/21/54
f 120/19/51 103/21/54 101/19/51
f 101/19/51 119/18/52 120/19/51
f 119/18/52 101/19/51 99/18/52
f 72/18/52 108/20/50 71/20/50
f 108/20/50 72/18/52 110/18/52
f 108/20/33 105/18/33 107/20/33
f 105/18/33 108/20/33 110/18/33
f 105/18/33 110/18/33 109/19/33
f 105/18/33 109/19/33 106/19/33
f 106/19/33 109/19/33 112/21/33
f 106/19/33 112/21/33 111/21/33
