mtllib machine.mtl
v -0.500000 0.000000 -0.500000
v -0.500000 -0.000000 -0.550000
v -0.600000 0.000000 -0.500000
v -0.600000 0.000000 -0.550000
v -0.500000 1.095499 -0.550000
v -0.500000 1.150499 -0.000000
v -0.600000 1.095499 -0.550000
v -0.600000 1.150499 -0.000000
v -0.500000 1.000000 -0.500000
v -0.600000 1.000000 -0.500000
v -0.500000 1.050000 -0.000000
v -0.600000 1.050000 -0.000000
v -0.500000 1.000000 0.500000
v -0.600000 1.000000 0.500000
v -0.500000 0.000000 0.500000
v -0.600000 0.000000 0.500000
v -0.500000 0.000000 0.550000
v -0.600000 0.000000 0.550000
v -0.500000 1.095499 0.550000
v -0.600000 1.095499 0.550000
v -0.500000 1.040249 0.600000
v -0.600000 1.040249 0.600000
v -0.500000 1.040249 -0.600000
v -0.600000 1.040249 -0.600000
v 0.500000 -0.000000 0.500000
v 0.500000 -0.000000 0.550000
v 0.600000 0.000000 0.500000
v 0.600000 0.000000 0.550000
v 0.500000 1.095499 0.550000
v 0.500000 1.150499 0.000000
v 0.600000 1.095499 0.550000
v 0.600000 1.150499 -0.000000
v 0.500000 1.000000 0.500000
v 0.600000 1.000000 0.500000
v 0.500000 1.050000 0.000000
v 0.600000 1.050000 -0.000000
v 0.500000 1.000000 -0.500000
v 0.600000 1.000000 -0.500000
v 0.500000 -0.000000 -0.500000
v 0.600000 0.000000 -0.500000
v 0.500000 0.000000 -0.550000
v 0.600000 0.000000 -0.550000
v 0.500000 1.095499 -0.550000
v 0.600000 1.095499 -0.550000
v 0.500000 1.040249 -0.600000
v 0.600000 1.040249 -0.600000
v 0.500000 1.040249 0.600000
v 0.600000 1.040249 0.600000
v -0.500000 1.050000 0.000000
v 0.500000 1.050000 0.000000
v -0.300000 0.469891 0.700000
v -0.300000 0.830109 0.700000
v -0.300000 0.469891 0.500000
v -0.300000 0.830109 0.500000
v 0.300000 0.830109 0.700000
v 0.300000 0.469891 0.700000
v 0.300000 0.830109 0.500000
v 0.300000 0.469891 0.500000
v -0.280109 0.850000 0.500000
v -0.280109 0.850000 0.700000
v 0.280109 0.850000 0.500000
v 0.280109 0.850000 0.700000
v -0.280109 0.450000 0.700000
v -0.280109 0.450000 0.500000
v 0.280109 0.450000 0.700000
v 0.280109 0.450000 0.500000
v 0.500000 0.250000 0.500000
v -0.500000 0.250000 0.500000
v 0.535355 0.760355 -0.500000
v 0.550000 0.725000 -0.500000
v 0.535355 0.760355 0.500000
v 0.550000 0.725000 0.500000
v 0.500000 0.775000 0.500000
v 0.500000 0.775000 -0.500000
v 0.464645 0.760355 0.500000
v 0.464645 0.760355 -0.500000
v 0.450000 0.725000 -0.500000
v 0.450000 0.725000 0.500000
v 0.464645 0.689645 -0.500000
v 0.464645 0.689645 0.500000
v 0.500000 0.675000 0.500000
v 0.500000 0.675000 -0.500000
v 0.535355 0.689645 0.500000
v 0.535355 0.689645 -0.500000
v -0.464645 0.760355 -0.500000
v -0.450000 0.725000 -0.500000
v -0.464645 0.760355 0.500000
v -0.450000 0.725000 0.500000
v -0.500000 0.775000 0.500000
v -0.500000 0.775000 -0.500000
v -0.535355 0.760355 0.500000
v -0.535355 0.760355 -0.500000
v -0.550000 0.725000 -0.500000
v -0.550000 0.725000 0.500000
v -0.535355 0.689645 -0.500000
v -0.535355 0.689645 0.500000
v -0.500000 0.675000 0.500000
v -0.500000 0.675000 -0.500000
v -0.464645 0.689645 0.500000
v -0.464645 0.689645 -0.500000
v -0.500000 1.017647 -0.500000
v -0.500000 1.050000 -0.000000
v -0.500000 1.017647 0.500000
v 0.500000 1.017647 -0.500000
v 0.500000 1.050000 0.000000
v 0.500000 1.017647 0.500000
v -0.500000 0.000000 0.500000
v 0.500000 0.000000 0.500000
v 0.500000 0.000000 -0.500000
v -0.500000 0.000000 -0.500000
v 0.500000 0.250000 -0.500000
v -0.500000 0.250000 -0.500000
v -0.500000 1.200000 0.500000
v -0.500000 1.250000 0.000000
v 0.500000 1.200000 0.500000
v 0.500000 1.250000 0.000000
v 0.500000 0.250000 0.700000
v 0.500000 1.000000 0.700000
v 0.500000 1.150000 0.650000
v -0.500000 1.150000 0.650000
v -0.500000 0.250000 0.700000
v -0.500000 1.000000 0.700000
v 0.424023 0.594157 -0.700000
v 0.388668 0.655394 -0.700000
v 0.424023 0.594157 -0.750000
v 0.388668 0.655394 -0.750000
v -0.014111 0.504500 -0.700000
v -0.014111 0.504500 -0.750000
v 0.037653 0.697685 -0.700000
v 0.037653 0.697685 -0.750000
v 0.311022 0.365617 -0.700000
v 0.372260 0.400972 -0.700000
v 0.311022 0.365617 -0.750000
v 0.372260 0.400972 -0.750000
v 0.021245 0.443262 -0.750000
v 0.098890 0.733040 -0.750000
v 0.098890 0.733040 -0.700000
v 0.021245 0.443262 -0.700000
v 0.500000 1.200000 -0.500000
v -0.500000 1.200000 -0.500000
v -0.500000 0.250000 -0.700000
v -0.500000 1.000000 -0.700000
v -0.500000 1.150000 -0.650000
v 0.500000 1.150000 -0.650000
v 0.500000 0.250000 -0.700000
v 0.500000 1.000000 -0.700000
v -0.438883 1.283357 -0.168922
v -0.403528 1.289450 -0.107989
v -0.438883 1.233605 -0.163947
v -0.403528 1.239699 -0.103014
v -0.361237 1.204771 -0.452287
v -0.361237 1.254523 -0.457262
v 0.121726 1.267400 -0.328495
v 0.121726 1.217648 -0.323519
v 0.044080 1.296234 -0.040155
v 0.044080 1.246482 -0.035180
v -0.300000 1.201253 -0.487467
v -0.300000 1.251005 -0.492442
v 0.086370 1.211555 -0.384453
v 0.086370 1.261307 -0.389428
v -0.017157 1.250000 0.000000
v -0.017157 1.299752 -0.004975
v -0.500000 0.000000 0.700000
v 0.500000 0.000000 0.700000
v -0.500000 0.200000 0.750000
v 0.500000 0.200000 0.750000
v 0.500000 0.000000 -0.700000
v -0.500000 0.000000 -0.700000
v 0.500000 0.200000 -0.750000
v -0.500000 0.200000 -0.750000
vn 0.000000 -1.000000 0.000000
vn 0.000000 0.892720 -0.450612
vn 0.000000 1.000000 0.000000
vn 0.000000 0.000000 1.000000
vn 0.000000 -0.995037 0.099504
vn 0.000000 -0.995037 -0.099504
vn 0.000000 0.000000 -1.000000
vn 0.000000 0.892720 0.450612
vn 0.000000 0.337037 0.941492
vn 0.000000 0.337037 -0.941492
vn 0.000000 -0.048010 -0.998847
vn -1.000000 0.000000 0.000000
vn 0.000000 -0.048010 0.998847
vn 0.000000 0.892720 0.450612
vn -0.000000 0.000000 -1.000000
vn -0.000000 -0.995037 -0.099504
vn 0.000000 -0.995037 0.099504
vn 0.000000 0.000000 1.000000
vn -0.000000 0.892720 -0.450612
vn -0.000000 0.337037 -0.941492
vn 0.000000 0.337037 0.941492
vn 0.000000 -0.048010 0.998847
vn 1.000000 0.000000 -0.000000
vn -0.000000 -0.048010 -0.998847
vn 0.000000 -0.995037 -0.099504
vn 0.923879 0.382683 0.000000
vn 0.923879 -0.382683 0.000000
vn -0.923879 -0.382683 -0.000000
vn -0.923879 0.382683 -0.000000
vn 0.382683 -0.923879 0.000000
vn -0.382683 -0.923879 -0.000000
vn 0.382683 0.923879 0.000000
vn -0.382683 0.923879 -0.000000
vn 0.000000 0.000000 -1.000000
vn 0.707107 0.707107 0.000000
vn 1.000000 0.000000 0.000000
vn -0.707107 0.707107 0.000000
vn -0.707107 -0.707107 0.000000
vn 0.707107 -0.707107 0.000000
vn -0.000000 0.000000 -1.000000
vn -0.000000 0.977883 0.209154
vn -0.000000 0.995037 0.099504
vn 1.000000 0.000000 0.000000
vn -1.000000 0.000000 -0.000000
vn -0.000000 0.316228 0.948683
vn -0.000000 0.707107 0.707107
vn -0.000000 0.000000 1.000000
vn 0.991445 0.130526 -0.000000
vn 0.608761 0.793353 -0.000000
vn -0.991445 -0.130526 0.000000
vn -0.793353 0.608761 -0.000000
vn 0.130526 -0.991445 0.000000
vn 0.793353 -0.608761 0.000000
vn -0.000000 -0.000000 -1.000000
vn -0.130526 0.991445 -0.000000
vn -0.608761 -0.793353 0.000000
vn 0.000000 0.977883 -0.209154
vn 0.000000 0.995037 -0.099504
vn 0.000000 0.316228 -0.948683
vn 0.000000 0.707107 -0.707107
vn -0.991445 0.012988 0.129878
vn -0.608761 0.078942 0.789416
vn -0.793353 -0.060574 -0.605740
vn 0.991445 -0.012988 -0.129878
vn 0.793353 0.060574 0.605740
vn -0.130526 -0.098652 -0.986525
vn 0.608761 -0.078942 -0.789416
vn 0.130526 0.098652 0.986525
vn 0.000000 0.995037 -0.099504
vn 0.000000 0.266934 0.963715
vn 0.000000 0.707107 0.707107
vn 1.000000 0.000000 -0.000000
vn -1.000000 0.000000 0.000000
vn 0.000000 -0.242536 0.970143
vn 0.000000 0.266934 -0.963715
vn 0.000000 -0.242536 -0.970143
usemtl colormap
f 3/1/1 2/1/1 1/1/1
f 2/1/1 3/1/1 4/1/1
f 7/2/2 6/3/3 5/2/2
f 6/3/3 7/2/2 8/3/3
f 9/4/4 3/1/4 1/1/4
f 3/1/4 9/4/4 10/4/4
f 12/5/5 9/4/5 11/5/5
f 9/4/5 12/5/5 10/4/5
f 13/4/6 12/5/6 11/5/6
f 12/5/6 13/4/6 14/4/6
f 16/1/7 13/4/7 15/1/7
f 13/4/7 16/1/7 14/4/7
f 18/1/1 15/1/1 17/1/1
f 15/1/1 18/1/1 16/1/1
f 8/3/3 19/2/8 6/3/3
f 19/2/8 8/3/3 20/2/8
f 19/2/8 22/6/9 21/6/9
f 22/6/9 19/2/8 20/2/8
f 24/6/10 5/2/2 23/6/10
f 5/2/2 24/6/10 7/2/2
f 4/1/11 23/6/10 2/1/11
f 23/6/10 4/1/11 24/6/10
f 3/1/12 10/4/12 4/1/12
f 7/2/12 4/1/12 10/4/12
f 4/1/12 7/2/12 24/6/12
f 7/2/12 10/4/12 8/3/12
f 8/3/12 10/4/12 12/5/12
f 8/3/12 12/5/12 14/4/12
f 8/3/12 14/4/12 20/2/12
f 20/2/12 14/4/12 18/1/12
f 18/1/12 14/4/12 16/1/12
f 20/2/12 18/1/12 22/6/12
f 17/1/13 22/6/9 18/1/13
f 22/6/9 17/1/13 21/6/9
f 27/1/1 26/1/1 25/1/1
f 26/1/1 27/1/1 28/1/1
f 31/2/14 30/3/3 29/2/14
f 30/3/3 31/2/14 32/3/3
f 33/4/15 27/1/15 25/1/15
f 27/1/15 33/4/15 34/4/15
f 36/5/16 33/4/16 35/5/16
f 33/4/16 36/5/16 34/4/16
f 37/4/17 36/5/17 35/5/17
f 36/5/17 37/4/17 38/4/17
f 40/1/18 37/4/18 39/1/18
f 37/4/18 40/1/18 38/4/18
f 42/1/1 39/1/1 41/1/1
f 39/1/1 42/1/1 40/1/1
f 32/3/3 43/2/19 30/3/3
f 43/2/19 32/3/3 44/2/19
f 43/2/19 46/6/20 45/6/20
f 46/6/20 43/2/19 44/2/19
f 48/6/21 29/2/14 47/6/21
f 29/2/14 48/6/21 31/2/14
f 28/1/22 47/6/21 26/1/22
f 47/6/21 28/1/22 48/6/21
f 27/1/23 34/4/23 28/1/23
f 31/2/23 28/1/23 34/4/23
f 28/1/23 31/2/23 48/6/23
f 31/2/23 34/4/23 32/3/23
f 32/3/23 34/4/23 36/5/23
f 32/3/23 36/5/23 38/4/23
f 32/3/23 38/4/23 44/2/23
f 44/2/23 38/4/23 42/1/23
f 42/1/23 38/4/23 40/1/23
f 44/2/23 42/1/23 46/6/23
f 41/1/24 46/6/20 42/1/24
f 46/6/20 41/1/24 45/6/20
f 49/8/25 33/7/25 13/7/25
f 33/7/25 49/8/25 50/8/25
f 53/9/26 52/10/27 51/9/26
f 52/10/27 53/9/26 54/10/27
f 57/10/28 56/9/29 55/10/28
f 56/9/29 57/10/28 58/9/29
f 61/11/31 60/11/30 59/11/30
f 60/11/30 61/11/31 62/11/31
f 64/12/32 51/9/26 63/12/32
f 51/9/26 64/12/32 53/9/26
f 61/11/31 55/10/28 62/11/31
f 55/10/28 61/11/31 57/10/28
f 65/12/33 64/12/32 63/12/32
f 64/12/32 65/12/33 66/12/33
f 56/9/29 66/12/33 65/12/33
f 66/12/33 56/9/29 58/9/29
f 54/10/27 60/11/30 52/10/27
f 60/11/30 54/10/27 59/11/30
f 33/7/34 58/9/34 57/10/34
f 33/7/34 57/10/34 61/11/34
f 67/1/34 58/9/34 33/7/34
f 58/9/34 67/1/34 66/12/34
f 66/12/34 67/1/34 64/12/34
f 68/1/34 64/12/34 67/1/34
f 64/12/34 68/1/34 53/9/34
f 33/7/34 61/11/34 13/7/34
f 53/9/34 68/1/34 13/7/34
f 59/11/34 13/7/34 61/11/34
f 53/9/34 13/7/34 54/10/34
f 54/10/34 13/7/34 59/11/34
f 71/13/35 70/12/36 69/13/35
f 70/12/36 71/13/35 72/12/36
f 69/13/35 73/14/3 71/13/35
f 73/14/3 69/13/35 74/14/3
f 74/14/3 75/13/37 73/14/3
f 75/13/37 74/14/3 76/13/37
f 78/12/12 76/13/37 77/12/12
f 76/13/37 78/12/12 75/13/37
f 80/15/38 77/12/12 79/15/38
f 77/12/12 80/15/38 78/12/12
f 80/15/38 82/1/1 81/1/1
f 82/1/1 80/15/38 79/15/38
f 81/1/1 84/15/39 83/15/39
f 84/15/39 81/1/1 82/1/1
f 72/12/36 84/15/39 70/12/36
f 84/15/39 72/12/36 83/15/39
f 87/13/35 86/12/36 85/13/35
f 86/12/36 87/13/35 88/12/36
f 85/13/35 89/14/3 87/13/35
f 89/14/3 85/13/35 90/14/3
f 90/14/3 91/13/37 89/14/3
f 91/13/37 90/14/3 92/13/37
f 94/12/12 92/13/37 93/12/12
f 92/13/37 94/12/12 91/13/37
f 96/15/38 93/12/12 95/15/38
f 93/12/12 96/15/38 94/12/12
f 96/15/38 98/1/1 97/1/1
f 98/1/1 96/15/38 95/15/38
f 97/1/1 100/15/39 99/15/39
f 100/15/39 97/1/1 98/1/1
f 88/12/36 100/15/39 86/12/36
f 100/15/39 88/12/36 99/15/39
f 89/16/12 101/17/12 90/16/12
f 101/17/12 89/16/12 102/1/12
f 102/1/12 89/16/12 103/17/12
f 90/16/36 101/17/36 89/16/36
f 102/1/36 89/16/36 101/17/36
f 103/17/36 89/16/36 102/1/36
f 105/1/36 74/16/36 104/17/36
f 74/16/36 105/1/36 73/16/36
f 73/16/36 105/1/36 106/17/36
f 104/17/12 74/16/12 105/1/12
f 73/16/12 105/1/12 74/16/12
f 106/17/12 105/1/12 73/16/12
f 68/7/40 108/18/40 107/18/40
f 108/18/40 68/7/40 67/7/40
f 111/7/4 110/18/4 109/18/4
f 110/18/4 111/7/4 112/7/4
f 37/7/4 112/1/4 111/1/4
f 112/1/4 37/7/4 9/7/4
f 50/8/5 9/7/5 37/7/5
f 9/7/5 50/8/5 49/8/5
f 115/19/41 114/20/42 113/19/41
f 114/20/42 115/19/41 116/20/42
f 67/21/43 118/22/43 117/21/43
f 118/22/43 67/21/43 119/23/43
f 119/23/43 67/21/43 33/22/43
f 33/22/43 115/19/43 119/23/43
f 115/19/43 33/22/43 50/24/43
f 115/19/43 50/24/43 116/20/43
f 13/22/44 114/20/44 49/24/44
f 114/20/44 13/22/44 113/19/44
f 13/22/44 120/23/44 113/19/44
f 68/21/44 120/23/44 13/22/44
f 121/21/44 120/23/44 68/21/44
f 120/23/44 121/21/44 122/22/44
f 119/23/46 122/22/45 118/22/45
f 122/22/45 119/23/46 120/23/46
f 119/23/46 113/19/41 120/23/46
f 113/19/41 119/23/46 115/19/41
f 122/22/47 51/26/47 52/25/47
f 122/22/47 52/25/47 60/27/47
f 121/21/47 51/26/47 122/22/47
f 51/26/47 121/21/47 63/28/47
f 122/22/47 60/27/47 118/22/47
f 63/28/47 121/21/47 117/21/47
f 63/28/47 117/21/47 65/28/47
f 117/21/47 56/26/47 65/28/47
f 56/26/47 117/21/47 118/22/47
f 62/27/47 118/22/47 60/27/47
f 56/26/47 118/22/47 55/25/47
f 55/25/47 118/22/47 62/27/47
f 125/22/48 124/29/49 123/29/48
f 124/29/49 125/22/48 126/22/49
f 129/29/51 128/22/50 127/29/50
f 128/22/50 129/29/51 130/22/51
f 133/22/52 132/29/53 131/29/52
f 132/29/53 133/22/52 134/22/53
f 134/22/53 123/29/48 132/29/53
f 123/29/48 134/22/53 125/22/48
f 133/22/54 125/22/54 134/22/54
f 125/22/54 133/22/54 126/22/54
f 126/22/54 133/22/54 135/22/54
f 126/22/54 135/22/54 136/22/54
f 136/22/54 135/22/54 128/22/54
f 136/22/54 128/22/54 130/22/54
f 137/29/55 130/22/51 129/29/51
f 130/22/51 137/29/55 136/22/55
f 138/29/56 128/22/50 135/22/56
f 128/22/50 138/29/56 127/29/50
f 124/29/49 136/22/55 137/29/55
f 136/22/55 124/29/49 126/22/49
f 138/29/56 133/22/52 131/29/52
f 133/22/52 138/29/56 135/22/56
f 140/19/57 116/20/58 139/19/57
f 116/20/58 140/19/57 114/20/58
f 112/21/12 142/22/12 141/21/12
f 142/22/12 112/21/12 143/23/12
f 143/23/12 112/21/12 9/22/12
f 9/22/12 140/19/12 143/23/12
f 140/19/12 9/22/12 49/24/12
f 140/19/12 49/24/12 114/20/12
f 37/22/36 116/20/36 50/24/36
f 116/20/36 37/22/36 139/19/36
f 37/22/36 144/23/36 139/19/36
f 111/21/36 144/23/36 37/22/36
f 145/21/36 144/23/36 111/21/36
f 144/23/36 145/21/36 146/22/36
f 143/23/60 146/22/59 142/22/59
f 146/22/59 143/23/60 144/23/60
f 143/23/60 139/19/57 144/23/60
f 139/19/57 143/23/60 140/19/57
f 141/21/7 146/22/7 145/21/7
f 146/22/7 141/21/7 142/22/7
f 149/29/61 148/22/62 147/22/61
f 148/22/62 149/29/61 150/29/62
f 149/29/61 152/22/63 151/29/63
f 152/22/63 149/29/61 147/22/61
f 155/22/65 154/29/64 153/22/64
f 154/29/64 155/22/65 156/29/65
f 152/22/63 157/29/66 151/29/63
f 157/29/66 152/22/63 158/22/66
f 157/29/66 160/22/67 159/29/67
f 160/22/67 157/29/66 158/22/66
f 162/22/68 150/29/62 161/29/68
f 150/29/62 162/22/68 148/22/62
f 156/29/65 162/22/68 161/29/68
f 162/22/68 156/29/65 155/22/65
f 153/22/64 159/29/67 160/22/67
f 159/29/67 153/22/64 154/29/64
f 160/22/69 155/22/69 153/22/69
f 155/22/69 160/22/69 158/22/69
f 155/22/69 158/22/69 162/22/69
f 162/22/69 158/22/69 148/22/69
f 148/22/69 158/22/69 152/22/69
f 148/22/69 152/22/69 147/22/69
f 108/30/1 163/30/1 107/30/1
f 163/30/1 108/30/1 164/30/1
f 166/31/70 121/32/71 165/31/70
f 121/32/71 166/31/70 117/32/71
f 164/30/72 117/32/72 166/31/72
f 117/32/72 164/30/72 108/30/72
f 117/32/72 108/30/72 67/32/72
f 121/32/73 163/30/73 165/31/73
f 163/30/73 121/32/73 68/32/73
f 163/30/73 68/32/73 107/30/73
f 166/31/70 163/30/74 164/30/74
f 163/30/74 166/31/70 165/31/70
f 110/30/1 167/30/1 109/30/1
f 167/30/1 110/30/1 168/30/1
f 170/31/75 145/32/60 169/31/75
f 145/32/60 170/31/75 141/32/60
f 168/30/12 141/32/12 170/31/12
f 141/32/12 168/30/12 110/30/12
f 141/32/12 110/30/12 112/32/12
f 145/32/36 167/30/36 169/31/36
f 167/30/36 145/32/36 111/32/36
f 167/30/36 111/32/36 109/30/36
f 170/31/75 167/30/76 168/30/76
f 167/30/76 170/31/75 169/31/75
f 3/1/1 2/1/1 1/1/1
f 2/1/1 3/1/1 4/1/1
f 7/2/2 6/3/3 5/2/2
f 6/3/3 7/2/2 8/3/3
f 9/4/4 3/1/4 1/1/4
f 3/1/4 9/4/4 10/4/4
f 12/5/5 9/4/5 11/5/5
f 9/4/5 12/5/5 10/4/5
f 13/4/6 12/5/6 11/5/6
f 12/5/6 13/4/6 14/4/6
f 16/1/7 13/4/7 15/1/7
f 13/4/7 16/1/7 14/4/7
f 18/1/1 15/1/1 17/1/1
f 15/1/1 18/1/1 16/1/1
f 8/3/3 19/2/8 6/3/3
f 19/2/8 8/3/3 20/2/8
f 19/2/8 22/6/9 21/6/9
f 22/6/9 19/2/8 20/2/8
f 24/6/10 5/2/2 23/6/10
f 5/2/2 24/6/10 7/2/2
f 4/1/11 23/6/10 2/1/11
f 23/6/10 4/1/11 24/6/10
f 3/1/12 10/4/12 4/1/12
f 7/2/12 4/1/12 10/4/12
f 4/1/12 7/2/12 24/6/12
f 7/2/12 10/4/12 8/3/12
f 8/3/12 10/4/12 12/5/12
f 8/3/12 12/5/12 14/4/12
f 8/3/12 14/4/12 20/2/12
f 20/2/12 14/4/12 18/1/12
f 18/1/12 14/4/12 16/1/12
f 20/2/12 18/1/12 22/6/12
f 17/1/13 22/6/9 18/1/13
f 22/6/9 17/1/13 21/6/9
f 27/1/1 26/1/1 25/1/1
f 26/1/1 27/1/1 28/1/1
f 31/2/14 30/3/3 29/2/14
f 30/3/3 31/2/14 32/3/3
f 33/4/15 27/1/15 25/1/15
f 27/1/15 33/4/15 34/4/15
f 36/5/16 33/4/16 35/5/16
f 33/4/16 36/5/16 34/4/16
f 37/4/17 36/5/17 35/5/17
f 36/5/17 37/4/17 38/4/17
f 40/1/18 37/4/18 39/1/18
f 37/4/18 40/1/18 38/4/18
f 42/1/1 39/1/1 41/1/1
f 39/1/1 42/1/1 40/1/1
f 32/3/3 43/2/19 30/3/3
f 43/2/19 32/3/3 44/2/19
f 43/2/19 46/6/20 45/6/20
f 46/6/20 43/2/19 44/2/19
f 48/6/21 29/2/14 47/6/21
f 29/2/14 48/6/21 31/2/14
f 28/1/22 47/6/21 26/1/22
f 47/6/21 28/1/22 48/6/21
f 27/1/23 34/4/23 28/1/23
f 31/2/23 28/1/23 34/4/23
f 28/1/23 31/2/23 48/6/23
f 31/2/23 34/4/23 32/3/23
f 32/3/23 34/4/23 36/5/23
f 32/3/23 36/5/23 38/4/23
f 32/3/23 38/4/23 44/2/23
f 44/2/23 38/4/23 42/1/23
f 42/1/23 38/4/23 40/1/23
f 44/2/23 42/1/23 46/6/23
f 41/1/24 46/6/20 42/1/24
f 46/6/20 41/1/24 45/6/20
f 49/8/25 33/7/25 13/7/25
f 33/7/25 49/8/25 50/8/25
f 53/9/26 52/10/27 51/9/26
f 52/10/27 53/9/26 54/10/27
f 57/10/28 56/9/29 55/10/28
f 56/9/29 57/10/28 58/9/29
f 61/11/31 60/11/30 59/11/30
f 60/11/30 61/11/31 62/11/31
f 64/12/32 51/9/26 63/12/32
f 51/9/26 64/12/32 53/9/26
f 61/11/31 55/10/28 62/11/31
f 55/10/28 61/11/31 57/10/28
f 65/12/33 64/12/32 63/12/32
f 64/12/32 65/12/33 66/12/33
f 56/9/29 66/12/33 65/12/33
f 66/12/33 56/9/29 58/9/29
f 54/10/27 60/11/30 52/10/27
f 60/11/30 54/10/27 59/11/30
f 33/7/34 58/9/34 57/10/34
f 33/7/34 57/10/34 61/11/34
f 67/1/34 58/9/34 33/7/34
f 58/9/34 67/1/34 66/12/34
f 66/12/34 67/1/34 64/12/34
f 68/1/34 64/12/34 67/1/34
f 64/12/34 68/1/34 53/9/34
f 33/7/34 61/11/34 13/7/34
f 53/9/34 68/1/34 13/7/34
f 59/11/34 13/7/34 61/11/34
f 53/9/34 13/7/34 54/10/34
f 54/10/34 13/7/34 59/11/34
f 71/13/35 70/12/36 69/13/35
f 70/12/36 71/13/35 72/12/36
f 69/13/35 73/14/3 71/13/35
f 73/14/3 69/13/35 74/14/3
f 74/14/3 75/13/37 73/14/3
f 75/13/37 74/14/3 76/13/37
f 78/12/12 76/13/37 77/12/12
f 76/13/37 78/12/12 75/13/37
f 80/15/38 77/12/12 79/15/38
f 77/12/12 80/15/38 78/12/12
f 80/15/38 82/1/1 81/1/1
f 82/1/1 80/15/38 79/15/38
f 81/1/1 84/15/39 83/15/39
f 84/15/39 81/1/1 82/1/1
f 72/12/36 84/15/39 70/12/36
f 84/15/39 72/12/36 83/15/39
f 87/13/35 86/12/36 85/13/35
f 86/12/36 87/13/35 88/12/36
f 85/13/35 89/14/3 87/13/35
f 89/14/3 85/13/35 90/14/3
f 90/14/3 91/13/37 89/14/3
f 91/13/37 90/14/3 92/13/37
f 94/12/12 92/13/37 93/12/12
f 92/13/37 94/12/12 91/13/37
f 96/15/38 93/12/12 95/15/38
f 93/12/12 96/15/38 94/12/12
f 96/15/38 98/1/1 97/1/1
f 98/1/1 96/15/38 95/15/38
f 97/1/1 100/15/39 99/15/39
f 100/15/39 97/1/1 98/1/1
f 88/12/36 100/15/39 86/12/36
f 100/15/39 88/12/36 99/15/39
f 89/16/12 101/17/12 90/16/12
f 101/17/12 89/16/12 102/1/12
f 102/1/12 89/16/12 103/17/12
f 90/16/36 101/17/36 89/16/36
f 102/1/36 89/16/36 101/17/36
f 103/17/36 89/16/36 102/1/36
f 105/1/36 74/16/36 104/17/36
f 74/16/36 105/1/36 73/16/36
f 73/16/36 105/1/36 106/17/36
f 104/17/12 74/16/12 105/1/12
f 73/16/12 105/1/12 74/16/12
f 106/17/12 105/1/12 73/16/12
f 68/7/40 108/18/40 107/18/40
f 108/18/40 68/7/40 67/7/40
f 111/7/4 110/18/4 109/18/4
f 110/18/4 111/7/4 112/7/4
f 37/7/4 112/1/4 111/1/4
f 112/1/4 37/7/4 9/7/4
f 50/8/5 9/7/5 37/7/5
f 9/7/5 50/8/5 49/8/5
f 115/19/41 114/20/42 113/19/41
f 114/20/42 115/19/41 116/20/42
f 67/21/43 118/22/43 117/21/43
f 118/22/43 67/21/43 119/23/43
f 119/23/43 67/21/43 33/22/43
f 33/22/43 115/19/43 119/23/43
f 115/19/43 33/22/43 50/24/43
f 115/19/43 50/24/43 116/20/43
f 13/22/44 114/20/44 49/24/44
f 114/20/44 13/22/44 113/19/44
f 13/22/44 120/23/44 113/19/44
f 68/21/44 120/23/44 13/22/44
f 121/21/44 120/23/44 68/21/44
f 120/23/44 121/21/44 122/22/44
f 119/23/46 122/22/45 118/22/45
f 122/22/45 119/23/46 120/23/46
f 119/23/46 113/19/41 120/23/46
f 113/19/41 119/23/46 115/19/41
f 122/22/47 51/26/47 52/25/47
f 122/22/47 52/25/47 60/27/47
f 121/21/47 51/26/47 122/22/47
f 51/26/47 121/21/47 63/28/47
f 122/22/47 60/27/47 118/22/47
f 63/28/47 121/21/47 117/21/47
f 63/28/47 117/21/47 65/28/47
f 117/21/47 56/26/47 65/28/47
f 56/26/47 117/21/47 118/22/47
f 62/27/47 118/22/47 60/27/47
f 56/26/47 118/22/47 55/25/47
f 55/25/47 118/22/47 62/27/47
f 125/22/48 124/29/49 123/29/48
f 124/29/49 125/22/48 126/22/49
f 129/29/51 128/22/50 127/29/50
f 128/22/50 129/29/51 130/22/51
f 133/22/52 132/29/53 131/29/52
f 132/29/53 133/22/52 134/22/53
f 134/22/53 123/29/48 132/29/53
f 123/29/48 134/22/53 125/22/48
f 133/22/54 125/22/54 134/22/54
f 125/22/54 133/22/54 126/22/54
f 126/22/54 133/22/54 135/22/54
f 126/22/54 135/22/54 136/22/54
f 136/22/54 135/22/54 128/22/54
f 136/22/54 128/22/54 130/22/54
f 137/29/55 130/22/51 129/29/51
f 130/22/51 137/29/55 136/22/55
f 138/29/56 128/22/50 135/22/56
f 128/22/50 138/29/56 127/29/50
f 124/29/49 136/22/55 137/29/55
f 136/22/55 124/29/49 126/22/49
f 138/29/56 133/22/52 131/29/52
f 133/22/52 138/29/56 135/22/56
f 140/19/57 116/20/58 139/19/57
f 116/20/58 140/19/57 114/20/58
f 112/21/12 142/22/12 141/21/12
f 142/22/12 112/21/12 143/23/12
f 143/23/12 112/21/12 9/22/12
f 9/22/12 140/19/12 143/23/12
f 140/19/12 9/22/12 49/24/12
f 140/19/12 49/24/12 114/20/12
f 37/22/36 116/20/36 50/24/36
f 116/20/36 37/22/36 139/19/36
f 37/22/36 144/23/36 139/19/36
f 111/21/36 144/23/36 37/22/36
f 145/21/36 144/23/36 111/21/36
f 144/23/36 145/21/36 146/22/36
f 143/23/60 146/22/59 142/22/59
f 146/22/59 143/23/60 144/23/60
f 143/23/60 139/19/57 144/23/60
f 139/19/57 143/23/60 140/19/57
f 141/21/7 146/22/7 145/21/7
f 146/22/7 141/21/7 142/22/7
f 149/29/61 148/22/62 147/22/61
f 148/22/62 149/29/61 150/29/62
f 149/29/61 152/22/63 151/29/63
f 152/22/63 149/29/61 147/22/61
f 155/22/65 154/29/64 153/22/64
f 154/29/64 155/22/65 156/29/65
f 152/22/63 157/29/66 151/29/63
f 157/29/66 152/22/63 158/22/66
f 157/29/66 160/22/67 159/29/67
f 160/22/67 157/29/66 158/22/66
f 162/22/68 150/29/62 161/29/68
f 150/29/62 162/22/68 148/22/62
f 156/29/65 162/22/68 161/29/68
f 162/22/68 156/29/65 155/22/65
f 153/22/64 159/29/67 160/22/67
f 159/29/67 153/22/64 154/29/64
f 160/22/69 155/22/69 153/22/69
f 155/22/69 160/22/69 158/22/69
f 155/22/69 158/22/69 162/22/69
f 162/22/69 158/22/69 148/22/69
f 148/22/69 158/22/69 152/22/69
f 148/22/69 152/22/69 147/22/69
f 108/30/1 163/30/1 107/30/1
f 163/30/1 108/30/1 164/30/1
f 166/31/70 121/32/71 165/31/70
f 121/32/71 166/31/70 117/32/71
f 164/30/72 117/32/72 166/31/72
f 117/32/72 164/30/72 108/30/72
f 117/32/72 108/30/72 67/32/72
f 121/32/73 163/30/73 165/31/73
f 163/30/73 121/32/73 68/32/73
f 163/30/73 68/32/73 107/30/73
f 166/31/70 163/30/74 164/30/74
f 163/30/74 166/31/70 165/31/70
f 110/30/1 167/30/1 109/30/1
f 167/30/1 110/30/1 168/30/1
f 170/31/75 145/32/60 169/31/75
f 145/32/60 170/31/75 141/32/60
f 168/30/12 141/32/12 170/31/12
f 141/32/12 168/30/12 110/30/12
f 141/32/12 110/30/12 112/32/12
f 145/32/36 167/30/36 169/31/36
f 167/30/36 145/32/36 111/32/36
f 167/30/36 111/32/36 109/30/36
f 170/31/75 167/30/76 168/30/76
f 167/30/76 170/31/75 169/31/75
