mtllib pipe-large.mtl
v 0.335800 0.654868 -0.373885
v 0.350000 0.638508 -0.334389
v 0.319164 0.691975 -0.358515
v 0.329205 0.684891 -0.315176
v 0.222200 0.654868 -0.373885
v 0.238836 0.691975 -0.358515
v 0.208000 0.638508 -0.334389
v 0.228795 0.684891 -0.315176
v 0.238836 0.617762 -0.389255
v 0.228795 0.592125 -0.353601
v 0.329205 0.592125 -0.353601
v 0.319164 0.617762 -0.389255
v 0.279000 0.572913 -0.361559
v 0.279000 0.602392 -0.395621
v 0.279000 0.707344 -0.352148
v 0.279000 0.704104 -0.307218
v -0.222200 0.654868 -0.373885
v -0.208000 0.638508 -0.334389
v -0.238836 0.691975 -0.358515
v -0.228795 0.684891 -0.315176
v -0.335800 0.654868 -0.373885
v -0.319164 0.691975 -0.358515
v -0.350000 0.638508 -0.334389
v -0.329205 0.684891 -0.315176
v -0.319164 0.617762 -0.389255
v -0.329205 0.592125 -0.353601
v -0.228795 0.592125 -0.353601
v -0.238836 0.617762 -0.389255
v -0.279000 0.572913 -0.361559
v -0.279000 0.602392 -0.395621
v -0.279000 0.707344 -0.352148
v -0.279000 0.704104 -0.307218
v -0.222200 0.654868 0.373885
v -0.208000 0.638508 0.334389
v -0.238836 0.691975 0.358515
v -0.228795 0.684891 0.315176
v -0.335800 0.654868 0.373885
v -0.319164 0.691975 0.358515
v -0.350000 0.638508 0.334389
v -0.329205 0.684891 0.315176
v -0.319164 0.617762 0.389255
v -0.329205 0.592125 0.353601
v -0.228795 0.592125 0.353601
v -0.238836 0.617762 0.389255
v -0.279000 0.572913 0.361559
v -0.279000 0.602392 0.395621
v -0.279000 0.707344 0.352148
v -0.279000 0.704104 0.307218
v 0.335800 0.654868 0.373885
v 0.350000 0.638508 0.334389
v 0.319164 0.691975 0.358515
v 0.329205 0.684891 0.315176
v 0.222200 0.654868 0.373885
v 0.238836 0.691975 0.358515
v 0.208000 0.638508 0.334389
v 0.228795 0.684891 0.315176
v 0.238836 0.617762 0.389255
v 0.228795 0.592125 0.353601
v 0.329205 0.592125 0.353601
v 0.319164 0.617762 0.389255
v 0.279000 0.572913 0.361559
v 0.279000 0.602392 0.395621
v 0.279000 0.707344 0.352148
v 0.279000 0.704104 0.307218
v 0.400000 0.891761 -0.000000
v -0.400000 0.891761 -0.000000
v 0.400000 0.777017 0.277017
v -0.400000 0.777017 0.277017
v 0.400000 0.222983 -0.277017
v 0.400000 0.108239 -0.000000
v -0.400000 0.222983 -0.277017
v -0.400000 0.108239 -0.000000
v 0.400000 0.222983 0.277017
v 0.400000 0.500000 0.391761
v -0.400000 0.222983 0.277017
v -0.400000 0.500000 0.391761
v 0.400000 0.500000 -0.391761
v -0.400000 0.500000 -0.391761
v 0.400000 0.777017 -0.277017
v -0.400000 0.777017 -0.277017
v 0.400000 0.500000 -0.337641
v 0.400000 0.738748 -0.238748
v -0.400000 0.500000 -0.337641
v -0.400000 0.738748 -0.238748
v 0.400000 0.261252 -0.238748
v -0.400000 0.261252 -0.238748
v 0.400000 0.162359 -0.000000
v -0.400000 0.162359 -0.000000
v 0.400000 0.261252 0.238748
v -0.400000 0.261252 0.238748
v 0.400000 0.500000 0.337641
v -0.400000 0.500000 0.337641
v 0.400000 0.738748 0.238748
v -0.400000 0.738748 0.238748
v 0.400000 0.837641 -0.000000
v -0.400000 0.837641 -0.000000
v -0.500000 0.500000 -0.500000
v -0.500000 0.853553 -0.353553
v -0.500000 0.146447 -0.353553
v -0.500000 0.500000 -0.337641
v -0.500000 0.261252 -0.238748
v -0.500000 0.738748 -0.238748
v -0.500000 0.000000 0.000000
v -0.500000 0.162359 0.000000
v -0.500000 1.000000 0.000000
v -0.500000 0.837641 0.000000
v -0.500000 0.738748 0.238748
v -0.500000 0.146447 0.353553
v -0.500000 0.853553 0.353553
v -0.500000 0.261252 0.238748
v -0.500000 0.500000 0.337641
v -0.500000 0.500000 0.500000
v -0.400000 0.500000 -0.500000
v -0.400000 0.853553 -0.353553
v -0.400000 0.146447 0.353553
v -0.400000 0.500000 0.500000
v -0.400000 0.146447 -0.353553
v -0.400000 0.500000 -0.337641
v -0.400000 0.738748 -0.238748
v -0.400000 0.261252 -0.238748
v -0.400000 1.000000 0.000000
v -0.400000 0.837641 0.000000
v -0.400000 0.000000 0.000000
v -0.400000 0.162359 0.000000
v -0.400000 0.261252 0.238748
v -0.400000 0.853553 0.353553
v -0.400000 0.738748 0.238748
v -0.400000 0.500000 0.337641
v 0.400000 0.500000 -0.500000
v 0.400000 0.853553 -0.353553
v 0.400000 0.146447 -0.353553
v 0.400000 0.500000 -0.337641
v 0.400000 0.261252 -0.238748
v 0.400000 0.738748 -0.238748
v 0.400000 0.000000 0.000000
v 0.400000 0.162359 0.000000
v 0.400000 1.000000 0.000000
v 0.400000 0.837641 0.000000
v 0.400000 0.738748 0.238748
v 0.400000 0.146447 0.353553
v 0.400000 0.853553 0.353553
v 0.400000 0.261252 0.238748
v 0.400000 0.500000 0.337641
v 0.400000 0.500000 0.500000
v 0.500000 0.500000 -0.500000
v 0.500000 0.853553 -0.353553
v 0.500000 0.146447 0.353553
v 0.500000 0.500000 0.500000
v 0.500000 0.146447 -0.353553
v 0.500000 0.500000 -0.337641
v 0.500000 0.738748 -0.238748
v 0.500000 0.261252 -0.238748
v 0.500000 1.000000 0.000000
v 0.500000 0.837641 0.000000
v 0.500000 -0.000000 0.000000
v 0.500000 0.162359 0.000000
v 0.500000 0.261252 0.238748
v 0.500000 0.853553 0.353553
v 0.500000 0.738748 0.238748
v 0.500000 0.500000 0.337641
vn 0.665809 0.285529 -0.689327
vn 0.949016 0.120633 -0.291233
vn 0.470798 0.720489 -0.509160
vn 0.671055 0.740607 -0.034431
vn -0.665809 0.285529 -0.689327
vn -0.470798 0.720489 -0.509160
vn -0.949016 0.120633 -0.291233
vn -0.671055 0.740607 -0.034431
vn -0.470798 -0.149432 -0.869493
vn -0.671055 -0.499341 -0.548035
vn 0.671055 -0.499341 -0.548035
vn 0.470798 -0.149432 -0.869493
vn 0.000000 -0.756143 -0.654406
vn 0.000000 -0.329599 -0.944121
vn 0.000000 0.900656 -0.434532
vn 0.000000 0.997409 0.071939
vn 0.665809 0.285529 0.689327
vn 0.949016 0.120633 0.291233
vn 0.470798 0.720489 0.509160
vn 0.671055 0.740607 0.034431
vn -0.665809 0.285529 0.689327
vn -0.470798 0.720489 0.509160
vn -0.949016 0.120633 0.291233
vn -0.671055 0.740607 0.034431
vn -0.470798 -0.149432 0.869494
vn -0.671055 -0.499341 0.548035
vn 0.671055 -0.499341 0.548035
vn 0.470798 -0.149432 0.869494
vn 0.000000 -0.756143 0.654406
vn 0.000000 -0.329599 0.944121
vn 0.000000 0.900656 0.434533
vn 0.000000 0.997409 -0.071939
vn 0.000000 1.000000 0.000000
vn 0.000000 0.707107 0.707107
vn 0.000000 -0.707107 -0.707107
vn 0.000000 -1.000000 0.000000
vn 0.000000 -0.707107 0.707107
vn 0.000000 0.000000 1.000000
vn 0.000000 0.000000 -1.000000
vn 0.000000 0.707107 -0.707107
vn -1.000000 0.000000 0.000000
vn 1.000000 0.000000 0.000000
usemtl colormap
f 3/2/3 2/1/2 1/1/1
f 2/1/2 3/2/3 4/3/4
f 7/1/7 6/2/6 5/1/5
f 6/2/6 7/1/7 8/3/8
f 9/4/9 7/1/7 5/1/5
f 7/1/7 9/4/9 10/5/10
f 13/6/13 12/4/12 11/5/11
f 12/4/12 13/6/13 14/7/14
f 6/2/6 16/9/16 15/8/15
f 16/9/16 6/2/6 8/3/8
f 2/1/2 12/4/12 1/1/1
f 12/4/12 2/1/2 11/5/11
f 9/4/9 12/4/12 14/7/14
f 12/4/12 9/4/9 5/1/5
f 12/4/12 5/1/5 1/1/1
f 1/1/1 5/1/5 6/2/6
f 1/1/1 6/2/6 3/2/3
f 3/2/3 6/2/6 15/8/15
f 3/2/3 16/9/16 4/3/4
f 16/9/16 3/2/3 15/8/15
f 13/6/13 9/4/9 14/7/14
f 9/4/9 13/6/13 10/5/10
f 19/2/3 18/1/2 17/1/1
f 18/1/2 19/2/3 20/3/4
f 23/1/7 22/2/6 21/1/5
f 22/2/6 23/1/7 24/3/8
f 25/4/9 23/1/7 21/1/5
f 23/1/7 25/4/9 26/5/10
f 29/6/13 28/4/12 27/5/11
f 28/4/12 29/6/13 30/7/14
f 22/2/6 32/9/16 31/8/15
f 32/9/16 22/2/6 24/3/8
f 18/1/2 28/4/12 17/1/1
f 28/4/12 18/1/2 27/5/11
f 25/4/9 28/4/12 30/7/14
f 28/4/12 25/4/9 21/1/5
f 28/4/12 21/1/5 17/1/1
f 17/1/1 21/1/5 22/2/6
f 17/1/1 22/2/6 19/2/3
f 19/2/3 22/2/6 31/8/15
f 19/2/3 32/9/16 20/3/4
f 32/9/16 19/2/3 31/8/15
f 29/6/13 25/4/9 30/7/14
f 25/4/9 29/6/13 26/5/10
f 42/5/26 45/6/29 41/4/25
f 46/7/30 41/4/25 45/6/29
f 47/8/31 35/2/19 48/9/32
f 36/3/20 48/9/32 35/2/19
f 47/8/31 38/2/22 35/2/19
f 35/2/19 38/2/22 33/1/17
f 38/2/22 37/1/21 33/1/17
f 33/1/17 37/1/21 44/4/28
f 37/1/21 41/4/25 44/4/28
f 46/7/30 44/4/28 41/4/25
f 43/5/27 34/1/18 44/4/28
f 33/1/17 44/4/28 34/1/18
f 40/3/24 38/2/22 48/9/32
f 47/8/31 48/9/32 38/2/22
f 46/7/30 45/6/29 44/4/28
f 43/5/27 44/4/28 45/6/29
f 42/5/26 41/4/25 39/1/23
f 37/1/21 39/1/23 41/4/25
f 40/3/24 39/1/23 38/2/22
f 37/1/21 38/2/22 39/1/23
f 36/3/20 35/2/19 34/1/18
f 33/1/17 34/1/18 35/2/19
f 58/5/26 61/6/29 57/4/25
f 62/7/30 57/4/25 61/6/29
f 63/8/31 51/2/19 64/9/32
f 52/3/20 64/9/32 51/2/19
f 63/8/31 54/2/22 51/2/19
f 51/2/19 54/2/22 49/1/17
f 54/2/22 53/1/21 49/1/17
f 49/1/17 53/1/21 60/4/28
f 53/1/21 57/4/25 60/4/28
f 62/7/30 60/4/28 57/4/25
f 59/5/27 50/1/18 60/4/28
f 49/1/17 60/4/28 50/1/18
f 56/3/24 54/2/22 64/9/32
f 63/8/31 64/9/32 54/2/22
f 62/7/30 61/6/29 60/4/28
f 59/5/27 60/4/28 61/6/29
f 58/5/26 57/4/25 55/1/23
f 53/1/21 55/1/23 57/4/25
f 56/3/24 55/1/23 54/2/22
f 53/1/21 54/2/22 55/1/23
f 52/3/20 51/2/19 50/1/18
f 49/1/17 50/1/18 51/2/19
f 84/15/37 82/15/37 96/18/36
f 95/18/36 96/18/36 82/15/37
f 94/15/35 96/18/36 93/15/35
f 95/18/36 93/15/35 96/18/36
f 94/15/35 93/15/35 92/14/39
f 91/14/39 92/14/39 93/15/35
f 92/14/39 91/14/39 90/16/40
f 89/16/40 90/16/40 91/14/39
f 88/17/33 90/16/40 87/17/33
f 89/16/40 87/17/33 90/16/40
f 88/17/33 87/17/33 86/16/34
f 85/16/34 86/16/34 87/17/33
f 83/14/38 86/16/34 81/14/38
f 85/16/34 81/14/38 86/16/34
f 84/15/37 83/14/38 82/15/37
f 81/14/38 82/15/37 83/14/38
f 72/13/36 70/13/36 75/12/37
f 73/12/37 75/12/37 70/13/36
f 78/14/39 77/14/39 71/12/35
f 69/12/35 71/12/35 77/14/39
f 80/11/40 66/10/33 79/11/40
f 65/10/33 79/11/40 66/10/33
f 68/11/34 76/14/38 67/11/34
f 74/14/38 67/11/34 76/14/38
f 80/11/40 79/11/40 78/14/39
f 77/14/39 78/14/39 79/11/40
f 76/14/38 75/12/37 74/14/38
f 73/12/37 74/14/38 75/12/37
f 72/13/36 71/12/35 70/13/36
f 69/12/35 70/13/36 71/12/35
f 68/11/34 67/11/34 66/10/33
f 65/10/33 66/10/33 67/11/34
f 99/21/41 98/20/41 97/19/41
f 98/20/41 99/21/41 100/19/41
f 100/19/41 99/21/41 101/22/41
f 102/23/41 98/20/41 100/19/41
f 101/22/41 99/21/41 103/24/41
f 101/22/41 103/24/41 104/25/41
f 98/20/41 102/23/41 105/26/41
f 105/26/41 102/23/41 106/27/41
f 105/26/41 106/27/41 107/23/41
f 104/25/41 103/24/41 108/21/41
f 105/26/41 107/23/41 109/20/41
f 104/25/41 108/21/41 110/22/41
f 109/20/41 107/23/41 111/19/41
f 110/22/41 108/21/41 111/19/41
f 109/20/41 111/19/41 108/21/41
f 109/20/41 108/21/41 112/19/41
f 97/19/39 114/20/40 113/19/39
f 114/20/40 97/19/39 98/20/40
f 116/19/38 108/21/37 115/21/37
f 108/21/37 116/19/38 112/19/38
f 114/20/42 117/21/42 113/19/42
f 117/21/42 114/20/42 118/19/42
f 118/19/42 114/20/42 119/23/42
f 120/22/42 117/21/42 118/19/42
f 119/23/42 114/20/42 121/26/42
f 119/23/42 121/26/42 122/27/42
f 117/21/42 120/22/42 123/24/42
f 123/24/42 120/22/42 124/25/42
f 123/24/42 124/25/42 125/22/42
f 122/27/42 121/26/42 126/20/42
f 123/24/42 125/22/42 115/21/42
f 122/27/42 126/20/42 127/23/42
f 115/21/42 125/22/42 128/19/42
f 127/23/42 126/20/42 128/19/42
f 115/21/42 128/19/42 126/20/42
f 115/21/42 126/20/42 116/19/42
f 114/20/40 105/26/33 121/26/33
f 105/26/33 114/20/40 98/20/40
f 108/21/37 123/24/36 115/21/37
f 123/24/36 108/21/37 103/24/36
f 105/26/33 126/20/34 121/26/33
f 126/20/34 105/26/33 109/20/34
f 123/24/36 99/21/35 117/21/35
f 99/21/35 123/24/36 103/24/36
f 126/20/34 112/19/38 116/19/38
f 112/19/38 126/20/34 109/20/34
f 99/21/35 113/19/39 117/21/35
f 113/19/39 99/21/35 97/19/39
f 106/27/36 119/23/37 122/27/36
f 119/23/37 106/27/36 102/23/37
f 119/23/37 100/19/38 118/19/38
f 100/19/38 119/23/37 102/23/37
f 118/19/38 101/22/34 120/22/34
f 101/22/34 118/19/38 100/19/38
f 101/22/34 124/25/33 120/22/34
f 124/25/33 101/22/34 104/25/33
f 124/25/33 110/22/40 125/22/40
f 110/22/40 124/25/33 104/25/33
f 110/22/40 128/19/39 125/22/40
f 128/19/39 110/22/40 111/19/39
f 111/19/39 127/23/35 128/19/39
f 127/23/35 111/19/39 107/23/35
f 127/23/35 106/27/36 122/27/36
f 106/27/36 127/23/35 107/23/35
f 131/21/41 130/20/41 129/19/41
f 130/20/41 131/21/41 132/19/41
f 132/19/41 131/21/41 133/22/41
f 134/23/41 130/20/41 132/19/41
f 133/22/41 131/21/41 135/24/41
f 133/22/41 135/24/41 136/25/41
f 130/20/41 134/23/41 137/26/41
f 137/26/41 134/23/41 138/27/41
f 137/26/41 138/27/41 139/23/41
f 136/25/41 135/24/41 140/21/41
f 137/26/41 139/23/41 141/20/41
f 136/25/41 140/21/41 142/22/41
f 141/20/41 139/23/41 143/19/41
f 142/22/41 140/21/41 143/19/41
f 141/20/41 143/19/41 140/21/41
f 141/20/41 140/21/41 144/19/41
f 129/19/39 146/20/40 145/19/39
f 146/20/40 129/19/39 130/20/40
f 148/19/38 140/21/37 147/21/37
f 140/21/37 148/19/38 144/19/38
f 146/20/42 149/21/42 145/19/42
f 149/21/42 146/20/42 150/19/42
f 150/19/42 146/20/42 151/23/42
f 152/22/42 149/21/42 150/19/42
f 151/23/42 146/20/42 153/26/42
f 151/23/42 153/26/42 154/27/42
f 149/21/42 152/22/42 155/24/42
f 155/24/42 152/22/42 156/25/42
f 155/24/42 156/25/42 157/22/42
f 154/27/42 153/26/42 158/20/42
f 155/24/42 157/22/42 147/21/42
f 154/27/42 158/20/42 159/23/42
f 147/21/42 157/22/42 160/19/42
f 159/23/42 158/20/42 160/19/42
f 147/21/42 160/19/42 158/20/42
f 147/21/42 158/20/42 148/19/42
f 146/20/40 137/26/33 153/26/33
f 137/26/33 146/20/40 130/20/40
f 140/21/37 155/24/36 147/21/37
f 155/24/36 140/21/37 135/24/36
f 137/26/33 158/20/34 153/26/33
f 158/20/34 137/26/33 141/20/34
f 155/24/36 131/21/35 149/21/35
f 131/21/35 155/24/36 135/24/36
f 158/20/34 144/19/38 148/19/38
f 144/19/38 158/20/34 141/20/34
f 131/21/35 145/19/39 149/21/35
f 145/19/39 131/21/35 129/19/39
f 138/27/36 151/23/37 154/27/36
f 151/23/37 138/27/36 134/23/37
f 151/23/37 132/19/38 150/19/38
f 132/19/38 151/23/37 134/23/37
f 150/19/38 133/22/34 152/22/34
f 133/22/34 150/19/38 132/19/38
f 133/22/34 156/25/33 152/22/34
f 156/25/33 133/22/34 136/25/33
f 156/25/33 142/22/40 157/22/40
f 142/22/40 156/25/33 136/25/33
f 142/22/40 160/19/39 157/22/40
f 160/19/39 142/22/40 143/19/39
f 143/19/39 159/23/35 160/19/39
f 159/23/35 143/19/39 139/23/35
f 159/23/35 138/27/36 154/27/36
f 138/27/36 159/23/35 139/23/35
f 3/2/3 2/1/2 1/1/1
f 2/1/2 3/2/3 4/3/4
f 7/1/7 6/2/6 5/1/5
f 6/2/6 7/1/7 8/3/8
f 9/4/9 7/1/7 5/1/5
f 7/1/7 9/4/9 10/5/10
f 13/6/13 12/4/12 11/5/11
f 12/4/12 13/6/13 14/7/14
f 6/2/6 16/9/16 15/8/15
f 16/9/16 6/2/6 8/3/8
f 2/1/2 12/4/12 1/1/1
f 12/4/12 2/1/2 11/5/11
f 9/4/9 12/4/12 14/7/14
f 12/4/12 9/4/9 5/1/5
f 12/4/12 5/1/5 1/1/1
f 1/1/1 5/1/5 6/2/6
f 1/1/1 6/2/6 3/2/3
f 3/2/3 6/2/6 15/8/15
f 3/2/3 16/9/16 4/3/4
f 16/9/16 3/2/3 15/8/15
f 13/6/13 9/4/9 14/7/14
f 9/4/9 13/6/13 10/5/10
f 19/2/3 18/1/2 17/1/1
f 18/1/2 19/2/3 20/3/4
f 23/1/7 22/2/6 21/1/5
f 22/2/6 23/1/7 24/3/8
f 25/4/9 23/1/7 21/1/5
f 23/1/7 25/4/9 26/5/10
f 29/6/13 28/4/12 27/5/11
f 28/4/12 29/6/13 30/7/14
f 22/2/6 32/9/16 31/8/15
f 32/9/16 22/2/6 24/3/8
f 18/1/2 28/4/12 17/1/1
f 28/4/12 18/1/2 27/5/11
f 25/4/9 28/4/12 30/7/14
f 28/4/12 25/4/9 21/1/5
f 28/4/12 21/1/5 17/1/1
f 17/1/1 21/1/5 22/2/6
f 17/1/1 22/2/6 19/2/3
f 19/2/3 22/2/6 31/8/15
f 19/2/3 32/9/16 20/3/4
f 32/9/16 19/2/3 31/8/15
f 29/6/13 25/4/9 30/7/14
f 25/4/9 29/6/13 26/5/10
f 42/5/26 45/6/29 41/4/25
f 46/7/30 41/4/25 45/6/29
f 47/8/31 35/2/19 48/9/32
f 36/3/20 48/9/32 35/2/19
f 47/8/31 38/2/22 35/2/19
f 35/2/19 38/2/22 33/1/17
f 38/2/22 37/1/21 33/1/17
f 33/1/17 37/1/21 44/4/28
f 37/1/21 41/4/25 44/4/28
f 46/7/30 44/4/28 41/4/25
f 43/5/27 34/1/18 44/4/28
f 33/1/17 44/4/28 34/1/18
f 40/3/24 38/2/22 48/9/32
f 47/8/31 48/9/32 38/2/22
f 46/7/30 45/6/29 44/4/28
f 43/5/27 44/4/28 45/6/29
f 42/5/26 41/4/25 39/1/23
f 37/1/21 39/1/23 41/4/25
f 40/3/24 39/1/23 38/2/22
f 37/1/21 38/2/22 39/1/23
f 36/3/20 35/2/19 34/1/18
f 33/1/17 34/1/18 35/2/19
f 58/5/26 61/6/29 57/4/25
f 62/7/30 57/4/25 61/6/29
f 63/8/31 51/2/19 64/9/32
f 52/3/20 64/9/32 51/2/19
f 63/8/31 54/2/22 51/2/19
f 51/2/19 54/2/22 49/1/17
f 54/2/22 53/1/21 49/1/17
f 49/1/17 53/1/21 60/4/28
f 53/1/21 57/4/25 60/4/28
f 62/7/30 60/4/28 57/4/25
f 59/5/27 50/1/18 60/4/28
f 49/1/17 60/4/28 50/1/18
f 56/3/24 54/2/22 64/9/32
f 63/8/31 64/9/32 54/2/22
f 62/7/30 61/6/29 60/4/28
f 59/5/27 60/4/28 61/6/29
f 58/5/26 57/4/25 55/1/23
f 53/1/21 55/1/23 57/4/25
f 56/3/24 55/1/23 54/2/22
f 53/1/21 54/2/22 55/1/23
f 52/3/20 51/2/19 50/1/18
f 49/1/17 50/1/18 51/2/19
f 84/15/37 82/15/37 96/18/36
f 95/18/36 96/18/36 82/15/37
f 94/15/35 96/18/36 93/15/35
f 95/18/36 93/15/35 96/18/36
f 94/15/35 93/15/35 92/14/39
f 91/14/39 92/14/39 93/15/35
f 92/14/39 91/14/39 90/16/40
f 89/16/40 90/16/40 91/14/39
f 88/17/33 90/16/40 87/17/33
f 89/16/40 87/17/33 90/16/40
f 88/17/33 87/17/33 86/16/34
f 85/16/34 86/16/34 87/17/33
f 83/14/38 86/16/34 81/14/38
f 85/16/34 81/14/38 86/16/34
f 84/15/37 83/14/38 82/15/37
f 81/14/38 82/15/37 83/14/38
f 72/13/36 70/13/36 75/12/37
f 73/12/37 75/12/37 70/13/36
f 78/14/39 77/14/39 71/12/35
f 69/12/35 71/12/35 77/14/39
f 80/11/40 66/10/33 79/11/40
f 65/10/33 79/11/40 66/10/33
f 68/11/34 76/14/38 67/11/34
f 74/14/38 67/11/34 76/14/38
f 80/11/40 79/11/40 78/14/39
f 77/14/39 78/14/39 79/11/40
f 76/14/38 75/12/37 74/14/38
f 73/12/37 74/14/38 75/12/37
f 72/13/36 71/12/35 70/13/36
f 69/12/35 70/13/36 71/12/35
f 68/11/34 67/11/34 66/10/33
f 65/10/33 66/10/33 67/11/34
f 99/21/41 98/20/41 97/19/41
f 98/20/41 99/21/41 100/19/41
f 100/19/41 99/21/41 101/22/41
f 102/23/41 98/20/41 100/19/41
f 101/22/41 99/21/41 103/24/41
f 101/22/41 103/24/41 104/25/41
f 98/20/41 102/23/41 105/26/41
f 105/26/41 102/23/41 106/27/41
f 105/26/41 106/27/41 107/23/41
f 104/25/41 103/24/41 108/21/41
f 105/26/41 107/23/41 109/20/41
f 104/25/41 108/21/41 110/22/41
f 109/20/41 107/23/41 111/19/41
f 110/22/41 108/21/41 111/19/41
f 109/20/41 111/19/41 108/21/41
f 109/20/41 108/21/41 112/19/41
f 97/19/39 114/20/40 113/19/39
f 114/20/40 97/19/39 98/20/40
f 116/19/38 108/21/37 115/21/37
f 108/21/37 116/19/38 112/19/38
f 114/20/42 117/21/42 113/19/42
f 117/21/42 114/20/42 118/19/42
f 118/19/42 114/20/42 119/23/42
f 120/22/42 117/21/42 118/19/42
f 119/23/42 114/20/42 121/26/42
f 119/23/42 121/26/42 122/27/42
f 117/21/42 120/22/42 123/24/42
f 123/24/42 120/22/42 124/25/42
f 123/24/42 124/25/42 125/22/42
f 122/27/42 121/26/42 126/20/42
f 123/24/42 125/22/42 115/21/42
f 122/27/42 126/20/42 127/23/42
f 115/21/42 125/22/42 128/19/42
f 127/23/42 126/20/42 128/19/42
f 115/21/42 128/19/42 126/20/42
f 115/21/42 126/20/42 116/19/42
f 114/20/40 105/26/33 121/26/33
f 105/26/33 114/20/40 98/20/40
f 108/21/37 123/24/36 115/21/37
f 123/24/36 108/21/37 103/24/36
f 105/26/33 126/20/34 121/26/33
f 126/20/34 105/26/33 109/20/34
f 123/24/36 99/21/35 117/21/35
f 99/21/35 123/24/36 103/24/36
f 126/20/34 112/19/38 116/19/38
f 112/19/38 126/20/34 109/20/34
f 99/21/35 113/19/39 117/21/35
f 113/19/39 99/21/35 97/19/39
f 106/27/36 119/23/37 122/27/36
f 119/23/37 106/27/36 102/23/37
f 119/23/37 100/19/38 118/19/38
f 100/19/38 119/23/37 102/23/37
f 118/19/38 101/22/34 120/22/34
f 101/22/34 118/19/38 100/19/38
f 101/22/34 124/25/33 120/22/34
f 124/25/33 101/22/34 104/25/33
f 124/25/33 110/22/40 125/22/40
f 110/22/40 124/25/33 104/25/33
f 110/22/40 128/19/39 125/22/40
f 128/19/39 110/22/40 111/19/39
f 111/19/39 127/23/35 128/19/39
f 127/23/35 111/19/39 107/23/35
f 127/23/35 106/27/36 122/27/36
f 106/27/36 127/23/35 107/23/35
f 131/21/41 130/20/41 129/19/41
f 130/20/41 131/21/41 132/19/41
f 132/19/41 131/21/41 133/22/41
f 134/23/41 130/20/41 132/19/41
f 133/22/41 131/21/41 135/24/41
f 133/22/41 135/24/41 136/25/41
f 130/20/41 134/23/41 137/26/41
f 137/26/41 134/23/41 138/27/41
f 137/26/41 138/27/41 139/23/41
f 136/25/41 135/24/41 140/21/41
f 137/26/41 139/23/41 141/20/41
f 136/25/41 140/21/41 142/22/41
f 141/20/41 139/23/41 143/19/41
f 142/22/41 140/21/41 143/19/41
f 141/20/41 143/19/41 140/21/41
f 141/20/41 140/21/41 144/19/41
f 129/19/39 146/20/40 145/19/39
f 146/20/40 129/19/39 130/20/40
f 148/19/38 140/21/37 147/21/37
f 140/21/37 148/19/38 144/19/38
f 146/20/42 149/21/42 145/19/42
f 149/21/42 146/20/42 150/19/42
f 150/19/42 146/20/42 151/23/42
f 152/22/42 149/21/42 150/19/42
f 151/23/42 146/20/42 153/26/42
f 151/23/42 153/26/42 154/27/42
f 149/21/42 152/22/42 155/24/42
f 155/24/42 152/22/42 156/25/42
f 155/24/42 156/25/42 157/22/42
f 154/27/42 153/26/42 158/20/42
f 155/24/42 157/22/42 147/21/42
f 154/27/42 158/20/42 159/23/42
f 147/21/42 157/22/42 160/19/42
f 159/23/42 158/20/42 160/19/42
f 147/21/42 160/19/42 158/20/42
f 147/21/42 158/20/42 148/19/42
f 146/20/40 137/26/33 153/26/33
f 137/26/33 146/20/40 130/20/40
f 140/21/37 155/24/36 147/21/37
f 155/24/36 140/21/37 135/24/36
f 137/26/33 158/20/34 153/26/33
f 158/20/34 137/26/33 141/20/34
f 155/24/36 131/21/35 149/21/35
f 131/21/35 155/24/36 135/24/36
f 158/20/34 144/19/38 148/19/38
f 144/19/38 158/20/34 141/20/34
f 131/21/35 145/19/39 149/21/35
f 145/19/39 131/21/35 129/19/39
f 138/27/36 151/23/37 154/27/36
f 151/23/37 138/27/36 134/23/37
f 151/23/37 132/19/38 150/19/38
f 132/19/38 151/23/37 134/23/37
f 150/19/38 133/22/34 152/22/34
f 133/22/34 150/19/38 132/19/38
f 133/22/34 156/25/33 152/22/34
f 156/25/33 133/22/34 136/25/33
f 156/25/33 142/22/40 157/22/40
f 142/22/40 156/25/33 136/25/33
f 142/22/40 160/19/39 157/22/40
f 160/19/39 142/22/40 143/19/39
f 143/19/39 159/23/35 160/19/39
f 159/23/35 143/19/39 139/23/35
f 159/23/35 138/27/36 154/27/36
f 138/27/36 159/23/35 139/23/35
