# Baked flat-color version of Kenney Models/OBJ format/track-single.obj (CC0). UV colormap sampled per-face.
mtllib track-single.mtl
v 0.5 0 0.1 1 1 1
v -0.5 0 0.1 1 1 1
v 0.5 0.05 0.1 1 1 1
v -0.5 0.05 0.1 1 1 1
v -0.5 0 -0.1 1 1 1
v -0.5 0.05 -0.1 1 1 1
v 0.5 0 -0.1 1 1 1
v 0.5 0.05 -0.1 1 1 1
v 0.25 0.05 -0.5 1 1 1
v 0.35 0.05 -0.5 1 1 1
v 0.25 0.15 -0.5 1 1 1
v 0.35 0.15 -0.5 1 1 1
v 0.35 0.05 0.5 1 1 1
v 0.25 0.05 0.5 1 1 1
v 0.35 0.15 0.5 1 1 1
v 0.25 0.15 0.5 1 1 1
v 0.25 0.15 0 1 1 1
v 0.35 0.15 0 1 1 1
v 0.25 0.05 0 1 1 1
v 0.35 0.05 0 1 1 1
v -0.35 0.05 -0.5 1 1 1
v -0.25 0.05 -0.5 1 1 1
v -0.35 0.15 -0.5 1 1 1
v -0.25 0.15 -0.5 1 1 1
v -0.25 0.05 0.5 1 1 1
v -0.35 0.05 0.5 1 1 1
v -0.25 0.15 0.5 1 1 1
v -0.35 0.15 0.5 1 1 1
v -0.35 0.15 0 1 1 1
v -0.25 0.15 0 1 1 1
v -0.35 0.05 0 1 1 1
v -0.25 0.05 0 1 1 1
vn 0 0 1
vn -1 0 0
vn -0.7071068 0.7071068 0
vn 0 -1 0
vn 0.7071068 0.7071068 0
vn 1 0 0
vn 0 0 -1
usemtl baked_0
f 10/3/4 19/3/4 9/3/4
f 19/3/4 10/3/4 20/3/4
f 20/3/4 14/3/4 19/3/4
f 14/3/4 20/3/4 13/3/4
f 22/3/4 31/3/4 21/3/4
f 31/3/4 22/3/4 32/3/4
f 32/3/4 26/3/4 31/3/4
f 26/3/4 32/3/4 25/3/4
f 10/3/4 19/3/4 9/3/4
f 19/3/4 10/3/4 20/3/4
f 20/3/4 14/3/4 19/3/4
f 14/3/4 20/3/4 13/3/4
f 22/3/4 31/3/4 21/3/4
f 31/3/4 22/3/4 32/3/4
f 32/3/4 26/3/4 31/3/4
f 26/3/4 32/3/4 25/3/4
usemtl baked_1
f 11/4/7 10/3/7 9/3/7
f 15/4/1 14/3/1 13/3/1
f 19/3/2 11/4/3 9/3/2
f 14/3/2 17/4/3 19/3/2
f 20/3/6 15/4/5 13/3/6
f 10/3/6 18/4/5 20/3/6
f 23/4/7 22/3/7 21/3/7
f 27/4/1 26/3/1 25/3/1
f 31/3/2 23/4/3 21/3/2
f 26/3/2 29/4/3 31/3/2
f 32/3/6 27/4/5 25/3/6
f 22/3/6 30/4/5 32/3/6
f 11/4/7 10/3/7 9/3/7
f 15/4/1 14/3/1 13/3/1
f 19/3/2 11/4/3 9/3/2
f 14/3/2 17/4/3 19/3/2
f 20/3/6 15/4/5 13/3/6
f 10/3/6 18/4/5 20/3/6
f 23/4/7 22/3/7 21/3/7
f 27/4/1 26/3/1 25/3/1
f 31/3/2 23/4/3 21/3/2
f 26/3/2 29/4/3 31/3/2
f 32/3/6 27/4/5 25/3/6
f 22/3/6 30/4/5 32/3/6
usemtl baked_2
f 10/3/7 11/4/7 12/4/7
f 14/3/1 15/4/1 16/4/1
f 11/4/3 19/3/2 17/4/3
f 17/4/3 14/3/2 16/4/3
f 15/4/5 20/3/6 18/4/5
f 18/4/5 10/3/6 12/4/5
f 22/3/7 23/4/7 24/4/7
f 26/3/1 27/4/1 28/4/1
f 23/4/3 31/3/2 29/4/3
f 29/4/3 26/3/2 28/4/3
f 27/4/5 32/3/6 30/4/5
f 30/4/5 22/3/6 24/4/5
f 10/3/7 11/4/7 12/4/7
f 14/3/1 15/4/1 16/4/1
f 11/4/3 19/3/2 17/4/3
f 17/4/3 14/3/2 16/4/3
f 15/4/5 20/3/6 18/4/5
f 18/4/5 10/3/6 12/4/5
f 22/3/7 23/4/7 24/4/7
f 26/3/1 27/4/1 28/4/1
f 23/4/3 31/3/2 29/4/3
f 29/4/3 26/3/2 28/4/3
f 27/4/5 32/3/6 30/4/5
f 30/4/5 22/3/6 24/4/5
usemtl baked_3
f 2/1/4 7/1/4 1/1/4
f 7/1/4 2/1/4 5/1/4
f 2/1/4 7/1/4 1/1/4
f 7/1/4 2/1/4 5/1/4
usemtl baked_4
f 15/4/5 17/4/3 16/4/3
f 17/4/3 15/4/5 18/4/5
f 18/4/5 11/4/3 17/4/3
f 11/4/3 18/4/5 12/4/5
f 27/4/5 29/4/3 28/4/3
f 29/4/3 27/4/5 30/4/5
f 30/4/5 23/4/3 29/4/3
f 23/4/3 30/4/5 24/4/5
f 15/4/5 17/4/3 16/4/3
f 17/4/3 15/4/5 18/4/5
f 18/4/5 11/4/3 17/4/3
f 11/4/3 18/4/5 12/4/5
f 27/4/5 29/4/3 28/4/3
f 29/4/3 27/4/5 30/4/5
f 30/4/5 23/4/3 29/4/3
f 23/4/3 30/4/5 24/4/5
usemtl baked_5
f 3/2/1 2/1/1 1/1/1
f 2/1/2 6/2/3 5/1/2
f 7/1/6 3/2/5 1/1/6
f 6/2/7 7/1/7 5/1/7
f 3/2/1 2/1/1 1/1/1
f 2/1/2 6/2/3 5/1/2
f 7/1/6 3/2/5 1/1/6
f 6/2/7 7/1/7 5/1/7
usemtl baked_6
f 2/1/1 3/2/1 4/2/1
f 6/2/3 2/1/2 4/2/3
f 3/2/5 7/1/6 8/2/5
f 7/1/7 6/2/7 8/2/7
f 2/1/1 3/2/1 4/2/1
f 6/2/3 2/1/2 4/2/3
f 3/2/5 7/1/6 8/2/5
f 7/1/7 6/2/7 8/2/7
usemtl baked_7
f 6/2/3 3/2/5 8/2/5
f 3/2/5 6/2/3 4/2/3
f 6/2/3 3/2/5 8/2/5
f 3/2/5 6/2/3 4/2/3
