mtllib boat-speed-a.mtl
v 0.000000 0.000000 0.379640
v 0.000000 0.200000 1.155800
v 0.178089 0.000000 0.281068
v 0.296815 0.200000 0.991514
v -0.678300 0.200000 0.386300
v -0.296815 0.200000 0.991514
v -0.406980 0.000000 -0.082060
v -0.178089 0.000000 0.281068
v 0.551119 0.900000 -1.235000
v 0.401119 0.900000 -1.235000
v 0.551119 1.500000 -1.435000
v 0.401119 1.350000 -1.385000
v -0.401119 1.350000 -1.385000
v -0.551119 1.500000 -1.435000
v -0.551119 0.900000 -1.235000
v -0.401119 0.900000 -1.235000
v 0.551119 0.900000 -1.485000
v 0.551119 1.500000 -1.685000
v -0.390547 0.600000 1.468834
v -0.892500 0.600000 0.672500
v -0.401119 0.900000 -1.485000
v -0.401119 1.350000 -1.635000
v 0.000000 0.600000 1.685000
v 0.406980 0.000000 -0.082060
v 0.678300 0.200000 0.386300
v -0.551119 0.900000 -1.485000
v -0.551119 1.500000 -1.685000
v 0.401119 1.350000 -1.635000
v 0.401119 0.900000 -1.485000
v 0.406980 0.000000 -1.285000
v 0.678300 0.200000 -1.381409
v -0.406980 0.000000 -1.285000
v -0.678300 0.200000 -1.381409
v 0.390547 0.600000 1.468834
v -0.892500 0.600000 -1.485000
v 0.892500 0.600000 -1.485000
v 0.892500 0.600000 0.672500
v -0.551119 0.900000 0.396575
v -0.551119 0.900000 -0.833008
v -0.413339 1.199503 0.177031
v -0.413339 1.199503 -0.583008
v 0.551119 0.900000 0.396575
v 0.413339 1.199503 0.177031
v 0.551119 0.900000 -0.833008
v 0.413339 1.199503 -0.583008
v -0.200000 1.249503 -0.002988
v -0.200000 1.199503 -0.002988
v -0.200000 1.299503 -0.402989
v -0.200000 1.199503 -0.402989
v 0.200000 1.199503 -0.002988
v 0.200000 1.249503 -0.002988
v 0.200000 1.199503 -0.402989
v 0.200000 1.299503 -0.402989
v 0.371019 0.800000 1.369392
v 0.847875 0.800000 0.612875
v 0.000000 0.800000 1.574750
v 0.241163 0.900000 0.888311
v -0.847875 0.800000 -1.485000
v -0.847875 0.800000 0.612875
v 0.847875 0.800000 -1.485000
v -0.371019 0.800000 1.369392
v 0.000000 0.900000 1.021794
v -0.241163 0.900000 0.888311
v 0.647875 0.800000 0.112875
v 0.647875 0.900000 0.212875
v 0.647875 0.800000 0.612875
v 0.647875 0.900000 0.512875
v 0.847875 0.900000 0.212875
v 0.847875 0.900000 0.512875
v 0.847875 0.800000 0.112875
v -0.847875 0.800000 0.112875
v -0.847875 0.900000 0.212875
v -0.847875 0.900000 0.512875
v -0.647875 0.900000 0.212875
v -0.647875 0.900000 0.512875
v -0.647875 0.800000 0.112875
v -0.647875 0.800000 0.612875
v -0.300000 0.900000 -1.033007
v -0.300000 1.100000 -0.933007
v -0.300000 0.900000 -0.533007
v -0.300000 1.100000 -0.633007
v 0.300000 1.100000 -0.933007
v 0.300000 1.100000 -0.633007
v 0.300000 0.900000 -1.033007
v 0.300000 0.900000 -0.533007
v 0.180872 1.199503 0.545833
v 0.551119 0.900000 0.396575
v 0.413339 1.199503 0.177030
v -0.180872 1.199503 0.545833
v 0.000000 0.900000 1.021794
v 0.000000 1.199503 0.645945
v -0.551119 0.900000 0.396575
v -0.413339 1.199503 0.177030
vn 0.000000 -0.968368 0.249528
vn 0.261964 -0.939502 0.220704
vn 0.192022 -0.952574 0.236073
vn -0.393430 -0.905541 0.158773
vn -0.192022 -0.952574 0.236073
vn -0.518084 -0.852925 0.064093
vn -0.261964 -0.939502 0.220704
vn 0.000000 0.316228 0.948683
vn 1.000000 0.000000 -0.000000
vn 0.769485 0.638665 -0.000000
vn 0.622386 0.782711 -0.000000
vn -0.440700 -0.728734 0.524147
vn -0.532339 -0.697377 0.479875
vn -0.754441 -0.597847 0.270921
vn -0.816960 -0.553450 0.162079
vn 0.000000 -0.797751 0.602987
vn 0.518084 -0.852925 0.064093
vn 0.393430 -0.905541 0.158773
vn -0.000000 -0.316228 -0.948683
vn -1.000000 0.000000 0.000000
vn -0.769485 0.638665 0.000000
vn -0.622386 0.782711 0.000000
vn 0.593353 -0.804942 -0.000000
vn -0.000000 -0.434228 -0.900803
vn -0.593353 -0.804942 0.000000
vn 0.440700 -0.728734 0.524147
vn 0.532339 -0.697377 0.479875
vn 0.000000 -1.000000 0.000000
vn -0.000000 -0.250707 -0.968063
vn 0.754441 -0.597847 0.270921
vn 0.816960 -0.553450 0.162079
vn -0.908481 0.417927 0.000000
vn -0.881559 -0.472075 0.000000
vn 0.881559 -0.472075 -0.000000
vn 0.908481 0.417927 -0.000000
vn -0.000000 0.640811 -0.767698
vn 0.000000 1.000000 0.000000
vn 0.000000 0.000000 1.000000
vn 0.000000 0.661802 0.749678
vn -0.000000 0.000000 -1.000000
vn 0.000000 0.992278 0.124035
vn 0.605134 0.401033 0.687739
vn 0.661771 0.384589 0.643545
vn 0.909183 0.291506 0.297339
vn 0.933260 0.276567 0.229209
vn 0.000000 0.482759 0.875753
vn 0.177293 0.972005 0.154190
vn 0.280822 0.958028 0.057638
vn 0.137975 0.976471 0.165731
vn 0.259505 0.961672 0.088569
vn -0.319334 0.947642 0.000000
vn -0.259505 0.961672 0.088569
vn -0.280822 0.958028 0.057638
vn 0.319334 0.947642 -0.000000
vn -0.605134 0.401033 0.687739
vn -0.661771 0.384589 0.643545
vn -0.909183 0.291506 0.297339
vn -0.933260 0.276567 0.229209
vn -0.976000 0.217770 0.000000
vn 0.000000 0.984038 0.177959
vn -0.137975 0.976471 0.165731
vn -0.177293 0.972005 0.154190
vn 0.976000 0.217770 -0.000000
vn -1.000000 0.000000 0.000000
vn 0.000000 0.923879 -0.382683
vn 0.000000 0.923879 0.382683
vn 1.000000 0.000000 0.000000
vn 0.000000 0.707107 0.707107
vn 0.000000 0.707107 -0.707107
vn 0.000000 0.850651 -0.525731
vn 0.000000 0.850651 0.525731
vn 0.000000 0.447214 0.894427
vn 0.000000 0.447214 -0.894427
vn 0.453343 0.708982 0.540208
vn 0.548276 0.674978 0.493759
vn 0.667030 0.615055 0.420450
vn -0.453343 0.708982 0.540208
vn -0.548276 0.674978 0.493759
vn 0.000000 0.782062 0.623201
vn -0.667030 0.615055 0.420450
usemtl colormap
f 3/1/2 2/2/1 1/1/1
f 2/2/1 3/1/2 4/2/3
f 7/1/6 6/2/5 5/2/4
f 6/2/5 7/1/6 8/1/7
f 8/1/7 2/2/1 6/2/5
f 2/2/1 8/1/7 1/1/1
f 11/4/8 10/3/8 9/3/8
f 10/3/8 11/4/8 12/5/8
f 12/5/8 11/4/8 13/5/8
f 14/4/8 13/5/8 11/4/8
f 15/3/8 13/5/8 14/4/8
f 13/5/8 15/3/8 16/3/8
f 17/3/9 11/4/10 9/3/9
f 11/4/10 17/3/9 18/4/11
f 20/6/14 6/2/13 19/6/12
f 6/2/13 20/6/14 5/2/15
f 21/3/9 13/5/9 16/3/9
f 13/5/9 21/3/9 22/5/9
f 6/2/13 23/6/16 19/6/12
f 23/6/16 6/2/13 2/2/16
f 24/1/17 4/2/3 3/1/2
f 4/2/3 24/1/17 25/2/18
f 27/4/19 21/3/19 26/3/19
f 21/3/19 27/4/19 22/5/19
f 22/5/19 27/4/19 28/5/19
f 18/4/19 28/5/19 27/4/19
f 17/3/19 28/5/19 18/4/19
f 28/5/19 17/3/19 29/3/19
f 14/4/21 26/3/20 15/3/20
f 26/3/20 14/4/21 27/4/22
f 31/2/23 24/1/17 30/1/23
f 24/1/17 31/2/23 25/2/18
f 12/5/20 29/3/20 10/3/20
f 29/3/20 12/5/20 28/5/20
f 33/2/24 30/1/24 32/1/24
f 30/1/24 33/2/24 31/2/24
f 32/1/25 5/2/4 33/2/25
f 5/2/4 32/1/25 7/1/6
f 2/2/16 34/6/26 23/6/16
f 34/6/26 2/2/16 4/2/27
f 30/1/28 7/1/28 32/1/28
f 7/1/28 30/1/28 8/1/28
f 8/1/28 30/1/28 1/1/28
f 1/1/28 30/1/28 3/1/28
f 3/1/28 30/1/28 24/1/28
f 28/5/28 13/5/28 22/5/28
f 13/5/28 28/5/28 12/5/28
f 35/6/29 31/2/29 33/2/29
f 31/2/29 35/6/29 36/6/29
f 4/2/27 37/6/30 34/6/26
f 37/6/30 4/2/27 25/2/31
f 40/7/32 39/3/32 38/3/32
f 39/3/32 40/7/32 41/7/32
f 35/6/33 5/2/15 20/6/14
f 5/2/15 35/6/33 33/2/33
f 11/4/10 27/4/22 14/4/21
f 27/4/22 11/4/10 18/4/11
f 25/2/31 36/6/34 37/6/30
f 36/6/34 25/2/31 31/2/34
f 44/3/35 43/7/35 42/3/35
f 43/7/35 44/3/35 45/7/35
f 41/7/36 44/3/36 39/3/36
f 44/3/36 41/7/36 45/7/36
f 40/7/37 45/7/37 41/7/37
f 45/7/37 40/7/37 43/7/37
f 48/4/20 47/1/20 46/8/20
f 47/1/20 48/4/20 49/1/20
f 51/8/39 47/1/38 50/1/38
f 47/1/38 51/8/39 46/8/39
f 52/1/9 51/8/9 50/1/9
f 51/8/9 52/1/9 53/4/9
f 48/4/40 52/1/40 49/1/40
f 52/1/40 48/4/40 53/4/40
f 46/8/39 53/4/41 48/4/41
f 53/4/41 46/8/39 51/8/39
f 37/9/44 54/10/43 34/9/42
f 54/10/43 37/9/44 55/10/45
f 54/10/43 23/9/46 34/9/42
f 23/9/46 54/10/43 56/10/46
f 54/10/49 42/11/48 57/11/47
f 42/11/48 54/10/49 55/10/50
f 59/10/52 26/11/51 58/10/51
f 26/11/51 59/10/52 38/11/53
f 26/11/51 38/11/53 39/11/51
f 26/11/51 39/11/51 15/11/51
f 55/10/50 44/11/54 42/11/48
f 44/11/54 55/10/50 9/11/54
f 9/11/54 55/10/50 60/10/54
f 60/10/54 17/11/54 9/11/54
f 56/10/46 19/9/55 23/9/46
f 19/9/55 56/10/46 61/10/56
f 61/10/56 20/9/57 19/9/55
f 20/9/57 61/10/56 59/10/58
f 59/10/58 35/9/59 20/9/57
f 35/9/59 59/10/58 58/10/59
f 54/10/49 62/11/60 56/10/60
f 62/11/60 54/10/49 57/11/47
f 44/11/37 15/11/37 39/11/37
f 15/11/37 44/11/37 16/11/37
f 16/11/37 44/11/37 10/11/37
f 10/11/37 44/11/37 9/11/37
f 16/11/37 10/11/37 29/11/37
f 29/11/37 21/11/37 16/11/37
f 58/10/40 36/9/40 35/9/40
f 36/9/40 58/10/40 60/10/40
f 60/10/40 58/10/40 26/11/40
f 60/10/40 26/11/40 17/11/40
f 17/11/40 26/11/40 21/11/40
f 17/11/40 21/11/40 29/11/40
f 56/10/60 63/11/62 61/10/61
f 63/11/62 56/10/60 62/11/60
f 61/10/61 38/11/53 59/10/52
f 38/11/53 61/10/61 63/11/62
f 36/9/63 55/10/45 37/9/44
f 55/10/45 36/9/63 60/10/63
f 66/12/64 65/13/64 64/12/64
f 65/13/64 66/12/64 67/13/64
f 65/13/65 69/13/66 68/13/65
f 69/13/66 65/13/65 67/13/66
f 68/13/67 55/12/67 70/12/67
f 55/12/67 68/13/67 69/13/67
f 67/13/66 55/12/68 69/13/66
f 55/12/68 67/13/66 66/12/68
f 64/12/69 68/13/65 70/12/69
f 68/13/65 64/12/69 65/13/65
f 59/12/64 72/13/64 71/12/64
f 72/13/64 59/12/64 73/13/64
f 72/13/65 75/13/66 74/13/65
f 75/13/66 72/13/65 73/13/66
f 74/13/67 77/12/67 76/12/67
f 77/12/67 74/13/67 75/13/67
f 73/13/66 77/12/68 75/13/66
f 77/12/68 73/13/66 59/12/68
f 71/12/69 74/13/65 76/12/69
f 74/13/65 71/12/69 72/13/65
f 80/12/64 79/13/64 78/12/64
f 79/13/64 80/12/64 81/13/64
f 79/13/70 83/13/71 82/13/70
f 83/13/71 79/13/70 81/13/71
f 82/13/67 85/12/67 84/12/67
f 85/12/67 82/13/67 83/13/67
f 83/13/71 80/12/72 85/12/72
f 80/12/72 83/13/71 81/13/71
f 79/13/70 84/12/73 78/12/73
f 84/12/73 79/13/70 82/13/70
f 87/14/76 86/15/75 57/14/74
f 86/15/75 87/14/76 88/15/76
f 90/14/79 89/15/78 63/14/77
f 89/15/78 90/14/79 91/15/79
f 89/15/78 92/14/80 63/14/77
f 92/14/80 89/15/78 93/15/80
f 89/15/37 88/15/37 93/15/37
f 88/15/37 89/15/37 91/15/37
f 88/15/37 91/15/37 86/15/37
f 90/14/79 86/15/75 91/15/79
f 86/15/75 90/14/79 57/14/74
f 3/1/2 2/2/1 1/1/1
f 2/2/1 3/1/2 4/2/3
f 7/1/6 6/2/5 5/2/4
f 6/2/5 7/1/6 8/1/7
f 8/1/7 2/2/1 6/2/5
f 2/2/1 8/1/7 1/1/1
f 11/4/8 10/3/8 9/3/8
f 10/3/8 11/4/8 12/5/8
f 12/5/8 11/4/8 13/5/8
f 14/4/8 13/5/8 11/4/8
f 15/3/8 13/5/8 14/4/8
f 13/5/8 15/3/8 16/3/8
f 17/3/9 11/4/10 9/3/9
f 11/4/10 17/3/9 18/4/11
f 20/6/14 6/2/13 19/6/12
f 6/2/13 20/6/14 5/2/15
f 21/3/9 13/5/9 16/3/9
f 13/5/9 21/3/9 22/5/9
f 6/2/13 23/6/16 19/6/12
f 23/6/16 6/2/13 2/2/16
f 24/1/17 4/2/3 3/1/2
f 4/2/3 24/1/17 25/2/18
f 27/4/19 21/3/19 26/3/19
f 21/3/19 27/4/19 22/5/19
f 22/5/19 27/4/19 28/5/19
f 18/4/19 28/5/19 27/4/19
f 17/3/19 28/5/19 18/4/19
f 28/5/19 17/3/19 29/3/19
f 14/4/21 26/3/20 15/3/20
f 26/3/20 14/4/21 27/4/22
f 31/2/23 24/1/17 30/1/23
f 24/1/17 31/2/23 25/2/18
f 12/5/20 29/3/20 10/3/20
f 29/3/20 12/5/20 28/5/20
f 33/2/24 30/1/24 32/1/24
f 30/1/24 33/2/24 31/2/24
f 32/1/25 5/2/4 33/2/25
f 5/2/4 32/1/25 7/1/6
f 2/2/16 34/6/26 23/6/16
f 34/6/26 2/2/16 4/2/27
f 30/1/28 7/1/28 32/1/28
f 7/1/28 30/1/28 8/1/28
f 8/1/28 30/1/28 1/1/28
f 1/1/28 30/1/28 3/1/28
f 3/1/28 30/1/28 24/1/28
f 28/5/28 13/5/28 22/5/28
f 13/5/28 28/5/28 12/5/28
f 35/6/29 31/2/29 33/2/29
f 31/2/29 35/6/29 36/6/29
f 4/2/27 37/6/30 34/6/26
f 37/6/30 4/2/27 25/2/31
f 40/7/32 39/3/32 38/3/32
f 39/3/32 40/7/32 41/7/32
f 35/6/33 5/2/15 20/6/14
f 5/2/15 35/6/33 33/2/33
f 11/4/10 27/4/22 14/4/21
f 27/4/22 11/4/10 18/4/11
f 25/2/31 36/6/34 37/6/30
f 36/6/34 25/2/31 31/2/34
f 44/3/35 43/7/35 42/3/35
f 43/7/35 44/3/35 45/7/35
f 41/7/36 44/3/36 39/3/36
f 44/3/36 41/7/36 45/7/36
f 40/7/37 45/7/37 41/7/37
f 45/7/37 40/7/37 43/7/37
f 48/4/20 47/1/20 46/8/20
f 47/1/20 48/4/20 49/1/20
f 51/8/39 47/1/38 50/1/38
f 47/1/38 51/8/39 46/8/39
f 52/1/9 51/8/9 50/1/9
f 51/8/9 52/1/9 53/4/9
f 48/4/40 52/1/40 49/1/40
f 52/1/40 48/4/40 53/4/40
f 46/8/39 53/4/41 48/4/41
f 53/4/41 46/8/39 51/8/39
f 37/9/44 54/10/43 34/9/42
f 54/10/43 37/9/44 55/10/45
f 54/10/43 23/9/46 34/9/42
f 23/9/46 54/10/43 56/10/46
f 54/10/49 42/11/48 57/11/47
f 42/11/48 54/10/49 55/10/50
f 59/10/52 26/11/51 58/10/51
f 26/11/51 59/10/52 38/11/53
f 26/11/51 38/11/53 39/11/51
f 26/11/51 39/11/51 15/11/51
f 55/10/50 44/11/54 42/11/48
f 44/11/54 55/10/50 9/11/54
f 9/11/54 55/10/50 60/10/54
f 60/10/54 17/11/54 9/11/54
f 56/10/46 19/9/55 23/9/46
f 19/9/55 56/10/46 61/10/56
f 61/10/56 20/9/57 19/9/55
f 20/9/57 61/10/56 59/10/58
f 59/10/58 35/9/59 20/9/57
f 35/9/59 59/10/58 58/10/59
f 54/10/49 62/11/60 56/10/60
f 62/11/60 54/10/49 57/11/47
f 44/11/37 15/11/37 39/11/37
f 15/11/37 44/11/37 16/11/37
f 16/11/37 44/11/37 10/11/37
f 10/11/37 44/11/37 9/11/37
f 16/11/37 10/11/37 29/11/37
f 29/11/37 21/11/37 16/11/37
f 58/10/40 36/9/40 35/9/40
f 36/9/40 58/10/40 60/10/40
f 60/10/40 58/10/40 26/11/40
f 60/10/40 26/11/40 17/11/40
f 17/11/40 26/11/40 21/11/40
f 17/11/40 21/11/40 29/11/40
f 56/10/60 63/11/62 61/10/61
f 63/11/62 56/10/60 62/11/60
f 61/10/61 38/11/53 59/10/52
f 38/11/53 61/10/61 63/11/62
f 36/9/63 55/10/45 37/9/44
f 55/10/45 36/9/63 60/10/63
f 66/12/64 65/13/64 64/12/64
f 65/13/64 66/12/64 67/13/64
f 65/13/65 69/13/66 68/13/65
f 69/13/66 65/13/65 67/13/66
f 68/13/67 55/12/67 70/12/67
f 55/12/67 68/13/67 69/13/67
f 67/13/66 55/12/68 69/13/66
f 55/12/68 67/13/66 66/12/68
f 64/12/69 68/13/65 70/12/69
f 68/13/65 64/12/69 65/13/65
f 59/12/64 72/13/64 71/12/64
f 72/13/64 59/12/64 73/13/64
f 72/13/65 75/13/66 74/13/65
f 75/13/66 72/13/65 73/13/66
f 74/13/67 77/12/67 76/12/67
f 77/12/67 74/13/67 75/13/67
f 73/13/66 77/12/68 75/13/66
f 77/12/68 73/13/66 59/12/68
f 71/12/69 74/13/65 76/12/69
f 74/13/65 71/12/69 72/13/65
f 80/12/64 79/13/64 78/12/64
f 79/13/64 80/12/64 81/13/64
f 79/13/70 83/13/71 82/13/70
f 83/13/71 79/13/70 81/13/71
f 82/13/67 85/12/67 84/12/67
f 85/12/67 82/13/67 83/13/67
f 83/13/71 80/12/72 85/12/72
f 80/12/72 83/13/71 81/13/71
f 79/13/70 84/12/73 78/12/73
f 84/12/73 79/13/70 82/13/70
f 87/14/76 86/15/75 57/14/74
f 86/15/75 87/14/76 88/15/76
f 90/14/79 89/15/78 63/14/77
f 89/15/78 90/14/79 91/15/79
f 89/15/78 92/14/80 63/14/77
f 92/14/80 89/15/78 93/15/80
f 89/15/37 88/15/37 93/15/37
f 88/15/37 89/15/37 91/15/37
f 88/15/37 91/15/37 86/15/37
f 90/14/79 86/15/75 91/15/79
f 86/15/75 90/14/79 57/14/74
