mtllib boat-sail-b.mtl
v -0.406980 0.000000 -1.585000
v 0.406980 0.000000 -1.585000
v -0.678300 0.200000 -1.681409
v 0.678300 0.200000 -1.681409
v -0.892500 0.600000 -1.785000
v 0.892500 0.600000 -1.785000
v 0.892500 0.600000 1.272500
v 0.678300 0.200000 0.986300
v 0.296815 0.200000 1.591514
v 0.390547 0.600000 2.068834
v 0.000000 0.600000 2.285000
v 0.000000 0.200000 1.755800
v -0.390547 0.600000 2.068834
v -0.296815 0.200000 1.591514
v -0.892500 0.600000 1.272500
v -0.678300 0.200000 0.986300
v 0.406980 0.000000 0.517940
v 0.178089 0.000000 0.881068
v 0.000000 0.000000 0.979640
v -0.178089 0.000000 0.881068
v -0.406980 0.000000 0.517940
v -0.492500 1.100000 0.714727
v -0.392500 1.100000 0.814727
v -0.492500 1.100000 0.814727
v -0.492500 1.100000 -1.085000
v 0.392500 1.100000 0.814727
v 0.492500 1.100000 0.714727
v 0.492500 1.100000 0.814727
v 0.492500 1.100000 -1.085000
v -0.492500 0.700000 -1.085000
v 0.492500 0.700000 -1.085000
v 0.492500 0.700000 0.714727
v 0.392500 0.700000 0.814727
v -0.392500 0.700000 0.814727
v -0.492500 0.700000 0.714727
v -0.470623 0.800000 1.566727
v -0.248747 0.900000 1.918727
v -0.692500 0.700000 1.214727
v -0.892500 0.900000 -1.785000
v 0.892500 0.900000 -1.785000
v 0.390547 0.900000 2.068834
v 0.000000 0.900000 2.285000
v 0.892500 0.900000 1.272500
v -0.390547 0.900000 2.068834
v -0.892500 0.900000 1.272500
v -0.692500 0.900000 1.214727
v -0.470623 0.700000 1.566727
v -0.248747 0.800000 1.918727
v 0.692500 0.700000 1.214727
v 0.692500 0.900000 1.214727
v 0.470623 0.700000 1.566727
v 0.470623 0.800000 1.566727
v 0.248747 0.900000 1.918727
v 0.248747 0.800000 1.918727
v 0.000000 0.800000 2.056408
v 0.000000 0.900000 2.056408
v 0.692500 0.700000 -1.585000
v -0.692500 0.700000 -1.585000
v 0.692500 0.900000 -1.585000
v -0.692500 0.900000 -1.585000
v -0.892500 0.800000 -0.485000
v -0.892500 0.900000 -0.885000
v -0.892500 0.900000 -0.685000
v -0.892500 0.800000 0.115000
v -0.892500 0.900000 0.315000
v -0.892500 0.900000 0.515000
v 0.692500 0.900000 -0.685000
v 0.692500 0.800000 -0.485000
v 0.692500 0.900000 -0.885000
v 0.692500 0.800000 0.115000
v 0.692500 0.900000 0.315000
v 0.692500 0.900000 0.515000
v -0.692500 0.900000 -0.885000
v -0.692500 0.800000 -0.485000
v -0.692500 0.900000 -0.685000
v -0.692500 0.800000 0.115000
v -0.692500 0.900000 0.315000
v -0.692500 0.900000 0.515000
v 0.892500 0.900000 -0.885000
v 0.892500 0.800000 -0.485000
v 0.892500 0.900000 -0.685000
v 0.892500 0.800000 0.115000
v 0.892500 0.900000 0.315000
v 0.892500 0.900000 0.515000
v -0.592500 1.100000 -1.285000
v 0.592500 1.100000 -1.285000
v -0.592500 1.300000 -1.285000
v 0.592500 1.300000 -1.285000
v 0.692500 1.300000 -1.185000
v 0.692500 1.100000 -1.185000
v -0.692500 1.100000 -1.185000
v -0.692500 1.300000 -1.185000
v 0.692500 1.300000 0.914727
v 0.692500 1.100000 0.914727
v 0.592500 1.300000 1.014727
v 0.592500 1.100000 1.014727
v -0.592500 1.100000 1.014727
v -0.592500 1.300000 1.014727
v -0.692500 1.100000 0.914727
v -0.692500 1.300000 0.914727
v 0.892500 0.900000 -0.885000
v 0.892500 1.000000 -0.985000
v 0.892500 0.900000 -1.385000
v 0.892500 1.000000 -1.285000
v 0.692500 1.000000 -0.985000
v 0.692500 1.000000 -1.285000
v 0.692500 0.900000 -0.885000
v 0.692500 0.900000 -1.385000
v -0.692500 0.900000 -0.885000
v -0.692500 1.000000 -0.985000
v -0.692500 0.900000 -1.385000
v -0.692500 1.000000 -1.285000
v -0.892500 1.000000 -0.985000
v -0.892500 1.000000 -1.285000
v -0.892500 0.900000 -0.885000
v -0.892500 0.900000 -1.385000
v -0.692500 0.900000 1.015000
v -0.692500 1.000000 0.915000
v -0.692500 0.900000 0.515000
v -0.692500 1.000000 0.615000
v -0.892500 1.000000 0.915000
v -0.892500 1.000000 0.615000
v -0.892500 0.900000 1.015000
v 0.892500 0.900000 1.015000
v 0.892500 1.000000 0.915000
v 0.892500 1.000000 0.615000
v 0.692500 1.000000 0.915000
v 0.692500 1.000000 0.615000
v 0.692500 0.900000 1.015000
v 0.692500 0.900000 0.515000
v 0.283525 1.300000 -0.070475
v -0.283525 1.300000 -0.070475
v 0.283525 1.386250 -0.070475
v -0.283525 1.386250 -0.070475
v 0.283525 1.472500 -0.156725
v -0.283525 1.472500 -0.156725
v -0.283525 1.300000 -0.999799
v 0.283525 1.300000 -0.999799
v -0.283525 1.386250 -0.999799
v 0.283525 1.386250 -0.999799
v 0.283525 1.472500 -0.913549
v -0.283525 1.472500 -0.913549
v -0.000000 1.300000 0.014727
v -0.120718 1.300000 -0.054970
v -0.000000 4.480865 -0.020642
v -0.090088 4.480865 -0.072654
v 0.090088 4.480865 -0.176679
v 0.090088 4.480865 -0.072654
v -0.000000 4.480865 -0.228692
v -0.090088 4.480865 -0.176679
v -0.120718 1.300000 -0.194364
v -0.000000 1.300000 -0.264060
v 0.120718 1.300000 -0.194364
v 0.120718 1.300000 -0.054970
v -0.190088 1.719823 -1.256856
v -0.190088 1.900000 -1.256856
v -0.190088 1.719823 -1.056856
v -0.190088 1.900000 -1.056856
v -0.090088 1.619823 -1.056856
v -0.090088 1.619823 -1.256856
v 0.090088 2.000000 -1.256856
v 0.090088 2.000000 -1.056856
v -0.090088 2.000000 -1.256856
v -0.090088 2.000000 -1.056856
v 0.190088 1.900000 -1.256856
v 0.190088 1.719823 -1.256856
v 0.190088 1.900000 -1.056856
v 0.190088 1.719823 -1.056856
v 0.090088 1.619823 -1.056856
v 0.090088 1.619823 -1.256856
v -0.190088 1.700000 -0.034579
v -0.190088 1.700000 -0.214755
v -0.190088 1.900000 -0.034579
v -0.190088 1.900000 -0.214755
v -0.090088 1.900000 0.065421
v -0.090088 1.700000 0.065421
v 0.090088 1.700000 -0.314755
v 0.090088 1.900000 -0.314755
v -0.090088 1.700000 -0.314755
v -0.090088 1.900000 -0.314755
v 0.190088 1.700000 -0.214755
v 0.190088 1.700000 -0.034579
v 0.190088 1.900000 -0.214755
v 0.190088 1.900000 -0.034579
v 0.090088 1.900000 0.065421
v 0.090088 1.700000 0.065421
v -0.190088 3.900000 -0.034579
v -0.190088 3.900000 -0.214755
v -0.190088 4.099999 -0.034579
v -0.190088 4.099999 -0.214755
v -0.090088 4.099999 0.065421
v -0.090088 3.900000 0.065421
v 0.090088 3.900000 -0.314755
v 0.090088 4.099999 -0.314755
v -0.090088 3.900000 -0.314755
v -0.090088 4.099999 -0.314755
v 0.190088 3.900000 -0.214755
v 0.190088 3.900000 -0.034579
v 0.190088 4.099999 -0.214755
v 0.190088 4.099999 -0.034579
v 0.090088 4.099999 0.065421
v 0.090088 3.900000 0.065421
v -0.190088 2.800000 -0.034579
v -0.190088 2.800000 -0.214755
v -0.190088 3.000000 -0.034579
v -0.190088 3.000000 -0.214755
v -0.090088 3.000000 0.065421
v -0.090088 2.800000 0.065421
v 0.090088 2.800000 -0.314755
v 0.090088 3.000000 -0.314755
v -0.090088 2.800000 -0.314755
v -0.090088 3.000000 -0.314755
v 0.190088 2.800000 -0.214755
v 0.190088 2.800000 -0.034579
v 0.190088 3.000000 -0.214755
v 0.190088 3.000000 -0.034579
v 0.090088 3.000000 0.065421
v 0.090088 2.800000 0.065421
v 0.090088 1.725000 -0.124667
v 0.090088 1.725000 -1.456856
v -0.090088 1.725000 -0.124667
v -0.090088 1.725000 -1.456856
v 0.090088 1.875000 -1.456856
v 0.090088 1.875000 -0.124667
v -0.090088 1.875000 -1.456856
v -0.090088 1.875000 -0.124667
v 0.090088 2.000000 -0.314755
v 0.090088 2.000000 -1.456856
v -0.090088 2.000000 -0.314755
v -0.090088 2.000000 -1.456856
v 0.090088 4.480865 -0.314755
v -0.090088 4.480865 -0.314755
v 0.090088 3.727926 -0.846204
v 0.090088 2.891710 -1.231168
v -0.090088 3.727926 -0.846204
v -0.090088 2.891710 -1.231168
v 0.090088 1.700000 1.199422
v 0.090088 1.700000 0.065422
v -0.090088 1.700000 1.199422
v -0.090088 1.700000 0.065422
v -0.090088 4.180864 0.065422
v 0.090088 4.180864 0.065422
v 0.090088 2.452938 0.671743
v 0.090088 3.289155 0.289509
v -0.090088 2.452938 0.671743
v -0.090088 3.289155 0.289509
vn 0.000000 -0.434228 -0.900803
vn 0.000000 -0.250707 -0.968063
vn 0.881559 -0.472075 0.000000
vn 0.754441 -0.597847 0.270921
vn 0.816960 -0.553450 0.162079
vn 0.532339 -0.697377 0.479875
vn 0.440700 -0.728734 0.524147
vn 0.000000 -0.797751 0.602987
vn -0.440700 -0.728734 0.524147
vn -0.532339 -0.697377 0.479875
vn -0.754441 -0.597847 0.270921
vn -0.816960 -0.553450 0.162079
vn -0.881559 -0.472075 0.000000
vn 0.593353 -0.804942 0.000000
vn 0.518084 -0.852925 0.064093
vn 0.393430 -0.905541 0.158773
vn 0.192022 -0.952574 0.236073
vn 0.261964 -0.939502 0.220704
vn 0.000000 -0.968368 0.249528
vn -0.192022 -0.952574 0.236073
vn -0.261964 -0.939502 0.220704
vn -0.518084 -0.852925 0.064093
vn -0.393430 -0.905541 0.158773
vn -0.593353 -0.804942 0.000000
vn 0.000000 -1.000000 0.000000
vn 0.000000 1.000000 0.000000
vn 0.000000 0.000000 -1.000000
vn 1.000000 0.000000 0.000000
vn 0.923879 0.000000 0.382683
vn 0.382683 0.000000 0.923879
vn -0.382683 0.000000 0.923879
vn -0.923879 0.000000 0.382683
vn -1.000000 0.000000 0.000000
vn 0.845965 0.000000 -0.533238
vn 0.686706 0.000000 -0.726935
vn 0.686706 0.000000 0.726935
vn 0.000000 0.000000 1.000000
vn 0.845965 0.000000 0.533238
vn -0.686706 0.000000 0.726935
vn -0.845965 0.000000 0.533238
vn -0.845965 0.000000 -0.533238
vn -0.686706 0.000000 -0.726935
vn 0.000000 0.894427 -0.447214
vn 0.000000 0.973249 -0.229753
vn 0.000000 0.973249 0.229753
vn 0.000000 0.894427 0.447214
vn -0.382683 0.000000 -0.923879
vn 0.382683 0.000000 -0.923879
vn 0.923879 0.000000 -0.382683
vn -0.923879 0.000000 -0.382683
vn 1.000000 0.000000 0.000000
vn -0.000000 0.923879 0.382683
vn 0.000000 0.923879 -0.382683
vn -1.000000 0.000000 -0.000000
vn 0.000000 0.707107 -0.707107
vn -0.000000 0.707107 0.707107
vn 0.000000 0.382683 0.923879
vn 0.000000 0.923879 0.382683
vn 0.000000 0.382683 -0.923879
vn 0.000000 0.923879 -0.382683
vn 0.000000 0.011118 0.999938
vn -0.865972 0.011118 0.499969
vn -0.865972 0.011118 -0.499969
vn 0.000000 0.011118 -0.999938
vn 0.865972 0.011118 -0.499969
vn 0.865972 0.011118 0.499969
vn -0.923879 -0.382683 0.000000
vn -0.923879 0.382683 0.000000
vn -0.382683 -0.923879 0.000000
vn 0.382683 0.923879 0.000000
vn -0.382683 0.923879 0.000000
vn 0.923879 0.382683 0.000000
vn 0.923879 -0.382683 0.000000
vn 0.382683 -0.923879 0.000000
vn -0.923879 0.000000 0.382684
vn -0.923879 -0.000000 -0.382684
vn -0.382683 0.000000 0.923880
vn 0.382683 -0.000000 -0.923880
vn -0.382683 -0.000000 -0.923880
vn 0.923879 -0.000000 -0.382684
vn 0.923879 0.000000 0.382684
vn 0.382683 0.000000 0.923880
vn 0.000000 -1.000000 0.000000
vn 0.000000 1.000000 -0.000000
vn 0.000000 -1.000000 0.000000
vn 0.000000 1.000000 0.000000
vn 0.000000 -1.000000 0.000000
vn 0.364384 0.537010 -0.760818
vn 0.687087 0.362932 -0.629437
vn -0.364384 0.537010 -0.760818
vn 0.687049 0.242086 -0.685097
vn 0.644173 0.187670 -0.741499
vn -0.687087 0.362932 -0.629437
vn -0.687049 0.242086 -0.685097
vn -0.644173 0.187670 -0.741499
vn 0.521286 0.489770 0.698846
vn 0.728209 0.340546 0.594761
vn -0.521286 0.489770 0.698846
vn 0.728209 0.226923 0.646698
vn 0.154847 0.240783 0.958147
vn -0.728209 0.340546 0.594761
vn -0.728209 0.226923 0.646698
vn -0.154847 0.240783 0.958147
usemtl colormap
f 3/2/1 2/1/1 1/1/1
f 2/1/1 3/2/1 4/2/1
f 5/3/2 4/2/2 3/2/2
f 4/2/2 5/3/2 6/3/2
f 7/3/4 4/2/3 6/3/3
f 4/2/3 7/3/4 8/2/5
f 7/3/4 9/2/6 8/2/5
f 9/2/6 7/3/4 10/3/7
f 11/3/8 9/2/6 10/3/7
f 9/2/6 11/3/8 12/2/8
f 13/3/9 12/2/8 11/3/8
f 12/2/8 13/3/9 14/2/10
f 15/3/11 14/2/10 13/3/9
f 14/2/10 15/3/11 16/2/12
f 15/3/11 3/2/13 16/2/12
f 3/2/13 15/3/11 5/3/13
f 4/2/14 17/1/15 2/1/14
f 17/1/15 4/2/14 8/2/16
f 9/2/17 17/1/15 8/2/16
f 17/1/15 9/2/17 18/1/18
f 12/2/19 18/1/18 9/2/17
f 18/1/18 12/2/19 19/1/19
f 14/2/20 19/1/19 12/2/19
f 19/1/19 14/2/20 20/1/21
f 14/2/20 21/1/22 20/1/21
f 21/1/22 14/2/20 16/2/23
f 16/2/23 1/1/24 21/1/22
f 1/1/24 16/2/23 3/2/24
f 18/1/25 2/1/25 17/1/25
f 2/1/25 18/1/25 1/1/25
f 1/1/25 18/1/25 19/1/25
f 1/1/25 19/1/25 20/1/25
f 1/1/25 20/1/25 21/1/25
f 24/4/26 23/4/26 22/4/26
f 23/4/26 25/4/26 22/4/26
f 26/4/26 25/4/26 23/4/26
f 27/4/26 25/4/26 26/4/26
f 26/4/26 28/4/26 27/4/26
f 25/4/26 27/4/26 29/4/26
f 25/4/27 31/1/27 30/1/27
f 31/1/27 25/4/27 29/4/27
f 33/1/25 31/1/25 32/1/25
f 31/1/25 33/1/25 30/1/25
f 30/1/25 33/1/25 34/1/25
f 30/1/25 34/1/25 35/1/25
f 27/4/29 31/1/28 29/4/28
f 31/1/28 27/4/29 32/1/29
f 26/4/30 32/1/29 27/4/29
f 32/1/29 26/4/30 33/1/30
f 26/4/30 34/1/31 33/1/30
f 34/1/31 26/4/30 23/4/31
f 22/4/32 34/1/31 23/4/31
f 34/1/31 22/4/32 35/1/32
f 25/4/33 35/1/32 22/4/32
f 35/1/32 25/4/33 30/1/33
f 38/7/34 37/6/35 36/5/34
f 39/6/27 6/8/27 5/8/27
f 6/8/27 39/6/27 40/6/27
f 41/6/36 11/8/37 10/8/36
f 11/8/37 41/6/36 42/6/37
f 41/6/36 7/8/38 43/6/38
f 7/8/38 41/6/36 10/8/36
f 42/6/37 13/8/39 11/8/37
f 13/8/39 42/6/37 44/6/39
f 13/8/39 45/6/40 15/8/40
f 45/6/40 13/8/39 44/6/39
f 37/6/35 38/7/34 46/6/34
f 47/7/34 38/7/34 36/5/34
f 36/5/34 37/6/35 48/5/35
f 51/7/41 50/6/41 49/7/41
f 50/6/41 51/7/41 52/5/41
f 50/6/41 52/5/41 53/6/42
f 53/6/42 52/5/41 54/5/42
f 56/6/27 54/5/42 55/5/27
f 54/5/42 56/6/27 53/6/42
f 37/6/35 55/5/27 48/5/35
f 55/5/27 37/6/35 56/6/27
f 59/6/37 58/7/37 57/7/37
f 58/7/37 59/6/37 60/6/37
f 15/8/33 39/6/33 5/8/33
f 39/6/33 15/8/33 61/5/33
f 39/6/33 61/5/33 62/6/33
f 62/6/33 61/5/33 63/6/33
f 61/5/33 15/8/33 64/5/33
f 64/5/33 15/8/33 65/6/33
f 65/6/33 15/8/33 66/6/33
f 66/6/33 15/8/33 45/6/33
f 69/6/33 68/5/33 67/6/33
f 59/6/33 68/5/33 69/6/33
f 57/7/33 68/5/33 59/6/33
f 68/5/33 57/7/33 49/7/33
f 68/5/33 49/7/33 70/5/33
f 70/5/33 49/7/33 71/6/33
f 71/6/33 49/7/33 72/6/33
f 72/6/33 49/7/33 50/6/33
f 73/6/28 58/7/28 60/6/28
f 58/7/28 73/6/28 74/5/28
f 74/5/28 73/6/28 75/6/28
f 58/7/28 74/5/28 38/7/28
f 38/7/28 74/5/28 76/5/28
f 38/7/28 76/5/28 77/6/28
f 38/7/28 77/6/28 78/6/28
f 38/7/28 78/6/28 46/6/28
f 79/6/28 6/8/28 40/6/28
f 6/8/28 79/6/28 80/5/28
f 80/5/28 79/6/28 81/6/28
f 6/8/28 80/5/28 7/8/28
f 7/8/28 80/5/28 82/5/28
f 7/8/28 82/5/28 83/6/28
f 7/8/28 83/6/28 84/6/28
f 7/8/28 84/6/28 43/6/28
f 66/6/26 77/6/26 65/6/26
f 77/6/26 66/6/26 78/6/26
f 45/6/26 78/6/26 66/6/26
f 45/6/26 46/6/26 78/6/26
f 44/6/26 46/6/26 45/6/26
f 44/6/26 37/6/26 46/6/26
f 44/6/26 56/6/26 37/6/26
f 42/6/26 56/6/26 44/6/26
f 42/6/26 53/6/26 56/6/26
f 41/6/26 53/6/26 42/6/26
f 41/6/26 50/6/26 53/6/26
f 43/6/26 50/6/26 41/6/26
f 50/6/26 43/6/26 84/6/26
f 72/6/26 50/6/26 84/6/26
f 83/6/26 72/6/26 84/6/26
f 72/6/26 83/6/26 71/6/26
f 76/5/44 65/6/43 77/6/43
f 65/6/43 76/5/44 64/5/44
f 73/6/26 63/6/26 75/6/26
f 63/6/26 73/6/26 62/6/26
f 73/6/26 39/6/26 62/6/26
f 60/6/26 39/6/26 73/6/26
f 59/6/26 39/6/26 60/6/26
f 59/6/26 40/6/26 39/6/26
f 40/6/26 59/6/26 79/6/26
f 69/6/26 79/6/26 59/6/26
f 67/6/26 79/6/26 69/6/26
f 79/6/26 67/6/26 81/6/26
f 74/5/45 64/5/44 76/5/44
f 64/5/44 74/5/45 61/5/45
f 63/6/46 74/5/45 75/6/46
f 74/5/45 63/6/46 61/5/45
f 82/5/44 71/6/43 83/6/43
f 71/6/43 82/5/44 70/5/44
f 67/6/46 80/5/45 81/6/46
f 80/5/45 67/6/46 68/5/45
f 80/5/45 70/5/44 82/5/44
f 70/5/44 80/5/45 68/5/45
f 87/6/47 86/9/48 85/9/47
f 86/9/48 87/6/47 88/6/48
f 89/6/49 86/9/48 88/6/48
f 86/9/48 89/6/49 90/9/49
f 91/9/50 87/6/47 85/9/47
f 87/6/47 91/9/50 92/6/50
f 95/6/30 94/9/29 93/6/29
f 94/9/29 95/6/30 96/9/30
f 95/6/30 97/9/31 96/9/30
f 97/9/31 95/6/30 98/6/31
f 97/9/31 100/6/32 99/9/32
f 100/6/32 97/9/31 98/6/31
f 88/6/26 93/6/26 89/6/26
f 93/6/26 88/6/26 95/6/26
f 95/6/26 88/6/26 87/6/26
f 95/6/26 87/6/26 98/6/26
f 98/6/26 87/6/26 92/6/26
f 98/6/26 92/6/26 100/6/26
f 93/6/29 90/9/49 89/6/49
f 90/9/49 93/6/29 94/9/29
f 96/9/25 90/9/25 94/9/25
f 90/9/25 96/9/25 86/9/25
f 86/9/25 96/9/25 28/9/25
f 28/9/25 96/9/25 97/9/25
f 29/9/25 86/9/25 28/9/25
f 29/9/25 28/9/25 27/9/25
f 28/9/25 97/9/25 26/9/25
f 86/9/25 29/9/25 85/9/25
f 26/9/25 97/9/25 23/9/25
f 23/9/25 97/9/25 24/9/25
f 24/9/25 97/9/25 22/9/25
f 22/9/25 97/9/25 25/9/25
f 85/9/25 29/9/25 25/9/25
f 85/9/25 25/9/25 97/9/25
f 85/9/25 97/9/25 99/9/25
f 85/9/25 99/9/25 91/9/25
f 99/9/32 92/6/50 91/9/50
f 92/6/50 99/9/32 100/6/32
f 57/10/26 51/10/26 49/10/26
f 51/10/26 57/10/26 58/10/26
f 51/10/26 58/10/26 47/10/26
f 47/10/26 58/10/26 38/10/26
f 36/11/26 54/11/26 52/11/26
f 54/11/26 36/11/26 55/11/26
f 55/11/26 36/11/26 48/11/26
f 36/11/27 51/10/27 47/10/27
f 51/10/27 36/11/27 52/11/27
f 103/12/51 102/13/51 101/12/51
f 102/13/51 103/12/51 104/13/51
f 102/13/52 106/13/53 105/13/52
f 106/13/53 102/13/52 104/13/53
f 105/13/54 108/12/54 107/12/54
f 108/12/54 105/13/54 106/13/54
f 104/13/53 108/12/55 106/13/53
f 108/12/55 104/13/53 103/12/55
f 101/12/56 105/13/52 107/12/56
f 105/13/52 101/12/56 102/13/52
f 111/12/51 110/13/51 109/12/51
f 110/13/51 111/12/51 112/13/51
f 110/13/52 114/13/53 113/13/52
f 114/13/53 110/13/52 112/13/53
f 113/13/54 116/12/54 115/12/54
f 116/12/54 113/13/54 114/13/54
f 112/13/53 116/12/55 114/13/53
f 116/12/55 112/13/53 111/12/55
f 109/12/56 113/13/52 115/12/56
f 113/13/52 109/12/56 110/13/52
f 119/12/51 118/13/51 117/12/51
f 118/13/51 119/12/51 120/13/51
f 118/13/52 122/13/53 121/13/52
f 122/13/53 118/13/52 120/13/53
f 121/13/54 66/12/54 123/12/54
f 66/12/54 121/13/54 122/13/54
f 120/13/53 66/12/55 122/13/53
f 66/12/55 120/13/53 119/12/55
f 117/12/56 121/13/52 123/12/56
f 121/13/52 117/12/56 118/13/52
f 84/12/51 125/13/51 124/12/51
f 125/13/51 84/12/51 126/13/51
f 125/13/52 128/13/53 127/13/52
f 128/13/53 125/13/52 126/13/53
f 127/13/54 130/12/54 129/12/54
f 130/12/54 127/13/54 128/13/54
f 126/13/53 130/12/55 128/13/53
f 130/12/55 126/13/53 84/12/55
f 124/12/56 127/13/52 129/12/56
f 127/13/52 124/12/56 125/13/52
f 133/14/57 132/12/37 131/12/37
f 132/12/37 133/14/57 134/14/57
f 135/13/58 134/14/57 133/14/57
f 134/14/57 135/13/58 136/13/58
f 139/14/59 138/12/27 137/12/27
f 138/12/27 139/14/59 140/14/59
f 141/13/60 136/13/58 135/13/58
f 136/13/58 141/13/60 142/13/60
f 140/14/59 142/13/60 141/13/60
f 142/13/60 140/14/59 139/14/59
f 132/12/33 139/14/33 137/12/33
f 139/14/33 132/12/33 142/13/33
f 142/13/33 132/12/33 136/13/33
f 136/13/33 132/12/33 134/14/33
f 141/13/28 138/12/28 140/14/28
f 138/12/28 141/13/28 131/12/28
f 131/12/28 141/13/28 135/13/28
f 131/12/28 135/13/28 133/14/28
f 3/2/1 2/1/1 1/1/1
f 2/1/1 3/2/1 4/2/1
f 5/3/2 4/2/2 3/2/2
f 4/2/2 5/3/2 6/3/2
f 7/3/4 4/2/3 6/3/3
f 4/2/3 7/3/4 8/2/5
f 7/3/4 9/2/6 8/2/5
f 9/2/6 7/3/4 10/3/7
f 11/3/8 9/2/6 10/3/7
f 9/2/6 11/3/8 12/2/8
f 13/3/9 12/2/8 11/3/8
f 12/2/8 13/3/9 14/2/10
f 15/3/11 14/2/10 13/3/9
f 14/2/10 15/3/11 16/2/12
f 15/3/11 3/2/13 16/2/12
f 3/2/13 15/3/11 5/3/13
f 4/2/14 17/1/15 2/1/14
f 17/1/15 4/2/14 8/2/16
f 9/2/17 17/1/15 8/2/16
f 17/1/15 9/2/17 18/1/18
f 12/2/19 18/1/18 9/2/17
f 18/1/18 12/2/19 19/1/19
f 14/2/20 19/1/19 12/2/19
f 19/1/19 14/2/20 20/1/21
f 14/2/20 21/1/22 20/1/21
f 21/1/22 14/2/20 16/2/23
f 16/2/23 1/1/24 21/1/22
f 1/1/24 16/2/23 3/2/24
f 18/1/25 2/1/25 17/1/25
f 2/1/25 18/1/25 1/1/25
f 1/1/25 18/1/25 19/1/25
f 1/1/25 19/1/25 20/1/25
f 1/1/25 20/1/25 21/1/25
f 24/4/26 23/4/26 22/4/26
f 23/4/26 25/4/26 22/4/26
f 26/4/26 25/4/26 23/4/26
f 27/4/26 25/4/26 26/4/26
f 26/4/26 28/4/26 27/4/26
f 25/4/26 27/4/26 29/4/26
f 25/4/27 31/1/27 30/1/27
f 31/1/27 25/4/27 29/4/27
f 33/1/25 31/1/25 32/1/25
f 31/1/25 33/1/25 30/1/25
f 30/1/25 33/1/25 34/1/25
f 30/1/25 34/1/25 35/1/25
f 27/4/29 31/1/28 29/4/28
f 31/1/28 27/4/29 32/1/29
f 26/4/30 32/1/29 27/4/29
f 32/1/29 26/4/30 33/1/30
f 26/4/30 34/1/31 33/1/30
f 34/1/31 26/4/30 23/4/31
f 22/4/32 34/1/31 23/4/31
f 34/1/31 22/4/32 35/1/32
f 25/4/33 35/1/32 22/4/32
f 35/1/32 25/4/33 30/1/33
f 38/7/34 37/6/35 36/5/34
f 39/6/27 6/8/27 5/8/27
f 6/8/27 39/6/27 40/6/27
f 41/6/36 11/8/37 10/8/36
f 11/8/37 41/6/36 42/6/37
f 41/6/36 7/8/38 43/6/38
f 7/8/38 41/6/36 10/8/36
f 42/6/37 13/8/39 11/8/37
f 13/8/39 42/6/37 44/6/39
f 13/8/39 45/6/40 15/8/40
f 45/6/40 13/8/39 44/6/39
f 37/6/35 38/7/34 46/6/34
f 47/7/34 38/7/34 36/5/34
f 36/5/34 37/6/35 48/5/35
f 51/7/41 50/6/41 49/7/41
f 50/6/41 51/7/41 52/5/41
f 50/6/41 52/5/41 53/6/42
f 53/6/42 52/5/41 54/5/42
f 56/6/27 54/5/42 55/5/27
f 54/5/42 56/6/27 53/6/42
f 37/6/35 55/5/27 48/5/35
f 55/5/27 37/6/35 56/6/27
f 59/6/37 58/7/37 57/7/37
f 58/7/37 59/6/37 60/6/37
f 15/8/33 39/6/33 5/8/33
f 39/6/33 15/8/33 61/5/33
f 39/6/33 61/5/33 62/6/33
f 62/6/33 61/5/33 63/6/33
f 61/5/33 15/8/33 64/5/33
f 64/5/33 15/8/33 65/6/33
f 65/6/33 15/8/33 66/6/33
f 66/6/33 15/8/33 45/6/33
f 69/6/33 68/5/33 67/6/33
f 59/6/33 68/5/33 69/6/33
f 57/7/33 68/5/33 59/6/33
f 68/5/33 57/7/33 49/7/33
f 68/5/33 49/7/33 70/5/33
f 70/5/33 49/7/33 71/6/33
f 71/6/33 49/7/33 72/6/33
f 72/6/33 49/7/33 50/6/33
f 73/6/28 58/7/28 60/6/28
f 58/7/28 73/6/28 74/5/28
f 74/5/28 73/6/28 75/6/28
f 58/7/28 74/5/28 38/7/28
f 38/7/28 74/5/28 76/5/28
f 38/7/28 76/5/28 77/6/28
f 38/7/28 77/6/28 78/6/28
f 38/7/28 78/6/28 46/6/28
f 79/6/28 6/8/28 40/6/28
f 6/8/28 79/6/28 80/5/28
f 80/5/28 79/6/28 81/6/28
f 6/8/28 80/5/28 7/8/28
f 7/8/28 80/5/28 82/5/28
f 7/8/28 82/5/28 83/6/28
f 7/8/28 83/6/28 84/6/28
f 7/8/28 84/6/28 43/6/28
f 66/6/26 77/6/26 65/6/26
f 77/6/26 66/6/26 78/6/26
f 45/6/26 78/6/26 66/6/26
f 45/6/26 46/6/26 78/6/26
f 44/6/26 46/6/26 45/6/26
f 44/6/26 37/6/26 46/6/26
f 44/6/26 56/6/26 37/6/26
f 42/6/26 56/6/26 44/6/26
f 42/6/26 53/6/26 56/6/26
f 41/6/26 53/6/26 42/6/26
f 41/6/26 50/6/26 53/6/26
f 43/6/26 50/6/26 41/6/26
f 50/6/26 43/6/26 84/6/26
f 72/6/26 50/6/26 84/6/26
f 83/6/26 72/6/26 84/6/26
f 72/6/26 83/6/26 71/6/26
f 76/5/44 65/6/43 77/6/43
f 65/6/43 76/5/44 64/5/44
f 73/6/26 63/6/26 75/6/26
f 63/6/26 73/6/26 62/6/26
f 73/6/26 39/6/26 62/6/26
f 60/6/26 39/6/26 73/6/26
f 59/6/26 39/6/26 60/6/26
f 59/6/26 40/6/26 39/6/26
f 40/6/26 59/6/26 79/6/26
f 69/6/26 79/6/26 59/6/26
f 67/6/26 79/6/26 69/6/26
f 79/6/26 67/6/26 81/6/26
f 74/5/45 64/5/44 76/5/44
f 64/5/44 74/5/45 61/5/45
f 63/6/46 74/5/45 75/6/46
f 74/5/45 63/6/46 61/5/45
f 82/5/44 71/6/43 83/6/43
f 71/6/43 82/5/44 70/5/44
f 67/6/46 80/5/45 81/6/46
f 80/5/45 67/6/46 68/5/45
f 80/5/45 70/5/44 82/5/44
f 70/5/44 80/5/45 68/5/45
f 87/6/47 86/9/48 85/9/47
f 86/9/48 87/6/47 88/6/48
f 89/6/49 86/9/48 88/6/48
f 86/9/48 89/6/49 90/9/49
f 91/9/50 87/6/47 85/9/47
f 87/6/47 91/9/50 92/6/50
f 95/6/30 94/9/29 93/6/29
f 94/9/29 95/6/30 96/9/30
f 95/6/30 97/9/31 96/9/30
f 97/9/31 95/6/30 98/6/31
f 97/9/31 100/6/32 99/9/32
f 100/6/32 97/9/31 98/6/31
f 88/6/26 93/6/26 89/6/26
f 93/6/26 88/6/26 95/6/26
f 95/6/26 88/6/26 87/6/26
f 95/6/26 87/6/26 98/6/26
f 98/6/26 87/6/26 92/6/26
f 98/6/26 92/6/26 100/6/26
f 93/6/29 90/9/49 89/6/49
f 90/9/49 93/6/29 94/9/29
f 96/9/25 90/9/25 94/9/25
f 90/9/25 96/9/25 86/9/25
f 86/9/25 96/9/25 28/9/25
f 28/9/25 96/9/25 97/9/25
f 29/9/25 86/9/25 28/9/25
f 29/9/25 28/9/25 27/9/25
f 28/9/25 97/9/25 26/9/25
f 86/9/25 29/9/25 85/9/25
f 26/9/25 97/9/25 23/9/25
f 23/9/25 97/9/25 24/9/25
f 24/9/25 97/9/25 22/9/25
f 22/9/25 97/9/25 25/9/25
f 85/9/25 29/9/25 25/9/25
f 85/9/25 25/9/25 97/9/25
f 85/9/25 97/9/25 99/9/25
f 85/9/25 99/9/25 91/9/25
f 99/9/32 92/6/50 91/9/50
f 92/6/50 99/9/32 100/6/32
f 57/10/26 51/10/26 49/10/26
f 51/10/26 57/10/26 58/10/26
f 51/10/26 58/10/26 47/10/26
f 47/10/26 58/10/26 38/10/26
f 36/11/26 54/11/26 52/11/26
f 54/11/26 36/11/26 55/11/26
f 55/11/26 36/11/26 48/11/26
f 36/11/27 51/10/27 47/10/27
f 51/10/27 36/11/27 52/11/27
f 103/12/51 102/13/51 101/12/51
f 102/13/51 103/12/51 104/13/51
f 102/13/52 106/13/53 105/13/52
f 106/13/53 102/13/52 104/13/53
f 105/13/54 108/12/54 107/12/54
f 108/12/54 105/13/54 106/13/54
f 104/13/53 108/12/55 106/13/53
f 108/12/55 104/13/53 103/12/55
f 101/12/56 105/13/52 107/12/56
f 105/13/52 101/12/56 102/13/52
f 111/12/51 110/13/51 109/12/51
f 110/13/51 111/12/51 112/13/51
f 110/13/52 114/13/53 113/13/52
f 114/13/53 110/13/52 112/13/53
f 113/13/54 116/12/54 115/12/54
f 116/12/54 113/13/54 114/13/54
f 112/13/53 116/12/55 114/13/53
f 116/12/55 112/13/53 111/12/55
f 109/12/56 113/13/52 115/12/56
f 113/13/52 109/12/56 110/13/52
f 119/12/51 118/13/51 117/12/51
f 118/13/51 119/12/51 120/13/51
f 118/13/52 122/13/53 121/13/52
f 122/13/53 118/13/52 120/13/53
f 121/13/54 66/12/54 123/12/54
f 66/12/54 121/13/54 122/13/54
f 120/13/53 66/12/55 122/13/53
f 66/12/55 120/13/53 119/12/55
f 117/12/56 121/13/52 123/12/56
f 121/13/52 117/12/56 118/13/52
f 84/12/51 125/13/51 124/12/51
f 125/13/51 84/12/51 126/13/51
f 125/13/52 128/13/53 127/13/52
f 128/13/53 125/13/52 126/13/53
f 127/13/54 130/12/54 129/12/54
f 130/12/54 127/13/54 128/13/54
f 126/13/53 130/12/55 128/13/53
f 130/12/55 126/13/53 84/12/55
f 124/12/56 127/13/52 129/12/56
f 127/13/52 124/12/56 125/13/52
f 133/14/57 132/12/37 131/12/37
f 132/12/37 133/14/57 134/14/57
f 135/13/58 134/14/57 133/14/57
f 134/14/57 135/13/58 136/13/58
f 139/14/59 138/12/27 137/12/27
f 138/12/27 139/14/59 140/14/59
f 141/13/60 136/13/58 135/13/58
f 136/13/58 141/13/60 142/13/60
f 140/14/59 142/13/60 141/13/60
f 142/13/60 140/14/59 139/14/59
f 132/12/33 139/14/33 137/12/33
f 139/14/33 132/12/33 142/13/33
f 142/13/33 132/12/33 136/13/33
f 136/13/33 132/12/33 134/14/33
f 141/13/28 138/12/28 140/14/28
f 138/12/28 141/13/28 131/12/28
f 131/12/28 141/13/28 135/13/28
f 131/12/28 135/13/28 133/14/28
f 145/6/61 144/15/62 143/15/61
f 144/15/62 145/6/61 146/6/62
f 149/6/26 148/6/26 147/6/26
f 148/6/26 149/6/26 145/6/26
f 145/6/26 149/6/26 150/6/26
f 145/6/26 150/6/26 146/6/26
f 150/6/63 152/15/64 151/15/63
f 152/15/64 150/6/63 149/6/64
f 149/6/64 153/15/65 152/15/64
f 153/15/65 149/6/64 147/6/65
f 147/6/65 154/15/66 153/15/65
f 154/15/66 147/6/65 148/6/66
f 144/15/62 150/6/63 151/15/63
f 150/6/63 144/15/62 146/6/62
f 148/6/66 143/15/61 154/15/66
f 143/15/61 148/6/66 145/6/61
f 157/16/67 156/17/68 155/16/67
f 156/17/68 157/16/67 158/17/68
f 157/16/67 160/15/69 159/15/69
f 160/15/69 157/16/67 155/16/67
f 163/6/71 162/6/70 161/6/70
f 162/6/70 163/6/71 164/6/71
f 156/17/68 164/6/71 163/6/71
f 164/6/71 156/17/68 158/17/68
f 167/17/72 166/16/73 165/17/72
f 166/16/73 167/17/72 168/16/73
f 161/6/70 167/17/72 165/17/72
f 167/17/72 161/6/70 162/6/70
f 159/15/69 170/15/74 169/15/74
f 170/15/74 159/15/69 160/15/69
f 169/15/74 166/16/73 168/16/73
f 166/16/73 169/15/74 170/15/74
f 155/16/27 170/15/27 160/15/27
f 170/15/27 155/16/27 166/16/27
f 166/16/27 155/16/27 156/17/27
f 166/16/27 156/17/27 165/17/27
f 165/17/27 156/17/27 163/6/27
f 165/17/27 163/6/27 161/6/27
f 168/16/37 159/15/37 169/15/37
f 159/15/37 168/16/37 157/16/37
f 157/16/37 168/16/37 167/17/37
f 157/16/37 167/17/37 158/17/37
f 158/17/37 167/17/37 162/6/37
f 158/17/37 162/6/37 164/6/37
f 173/16/75 172/17/76 171/16/75
f 172/17/76 173/16/75 174/17/76
f 173/16/75 176/15/77 175/15/77
f 176/15/77 173/16/75 171/16/75
f 179/6/79 178/6/78 177/6/78
f 178/6/78 179/6/79 180/6/79
f 172/17/76 180/6/79 179/6/79
f 180/6/79 172/17/76 174/17/76
f 183/17/80 182/16/81 181/17/80
f 182/16/81 183/17/80 184/16/81
f 177/6/78 183/17/80 181/17/80
f 183/17/80 177/6/78 178/6/78
f 175/15/77 186/15/82 185/15/82
f 186/15/82 175/15/77 176/15/77
f 185/15/82 182/16/81 184/16/81
f 182/16/81 185/15/82 186/15/82
f 171/16/83 186/15/83 176/15/83
f 186/15/83 171/16/83 182/16/83
f 182/16/83 171/16/83 172/17/83
f 182/16/83 172/17/83 181/17/83
f 181/17/83 172/17/83 179/6/83
f 181/17/83 179/6/83 177/6/83
f 184/16/84 175/15/84 185/15/84
f 175/15/84 184/16/84 173/16/84
f 173/16/84 184/16/84 183/17/84
f 173/16/84 183/17/84 174/17/84
f 174/17/84 183/17/84 178/6/84
f 174/17/84 178/6/84 180/6/84
f 189/16/75 188/17/76 187/16/75
f 188/17/76 189/16/75 190/17/76
f 189/16/75 192/15/77 191/15/77
f 192/15/77 189/16/75 187/16/75
f 195/6/79 194/6/78 193/6/78
f 194/6/78 195/6/79 196/6/79
f 188/17/76 196/6/79 195/6/79
f 196/6/79 188/17/76 190/17/76
f 199/17/80 198/16/81 197/17/80
f 198/16/81 199/17/80 200/16/81
f 193/6/78 199/17/80 197/17/80
f 199/17/80 193/6/78 194/6/78
f 191/15/77 202/15/82 201/15/82
f 202/15/82 191/15/77 192/15/77
f 201/15/82 198/16/81 200/16/81
f 198/16/81 201/15/82 202/15/82
f 187/16/83 202/15/83 192/15/83
f 202/15/83 187/16/83 198/16/83
f 198/16/83 187/16/83 188/17/83
f 198/16/83 188/17/83 197/17/83
f 197/17/83 188/17/83 195/6/83
f 197/17/83 195/6/83 193/6/83
f 200/16/84 191/15/84 201/15/84
f 191/15/84 200/16/84 189/16/84
f 189/16/84 200/16/84 199/17/84
f 189/16/84 199/17/84 190/17/84
f 190/17/84 199/17/84 194/6/84
f 190/17/84 194/6/84 196/6/84
f 205/16/75 204/17/76 203/16/75
f 204/17/76 205/16/75 206/17/76
f 205/16/75 208/15/77 207/15/77
f 208/15/77 205/16/75 203/16/75
f 211/6/79 210/6/78 209/6/78
f 210/6/78 211/6/79 212/6/79
f 204/17/76 212/6/79 211/6/79
f 212/6/79 204/17/76 206/17/76
f 215/17/80 214/16/81 213/17/80
f 214/16/81 215/17/80 216/16/81
f 209/6/78 215/17/80 213/17/80
f 215/17/80 209/6/78 210/6/78
f 207/15/77 218/15/82 217/15/82
f 218/15/82 207/15/77 208/15/77
f 217/15/82 214/16/81 216/16/81
f 214/16/81 217/15/82 218/15/82
f 203/16/83 218/15/83 208/15/83
f 218/15/83 203/16/83 214/16/83
f 214/16/83 203/16/83 204/17/83
f 214/16/83 204/17/83 213/17/83
f 213/17/83 204/17/83 211/6/83
f 213/17/83 211/6/83 209/6/83
f 216/16/84 207/15/84 217/15/84
f 207/15/84 216/16/84 205/16/84
f 205/16/84 216/16/84 215/17/84
f 205/16/84 215/17/84 206/17/84
f 206/17/84 215/17/84 210/6/84
f 206/17/84 210/6/84 212/6/84
f 221/15/85 220/15/85 219/15/85
f 220/15/85 221/15/85 222/15/85
f 225/6/86 224/6/86 223/6/86
f 224/6/86 225/6/86 226/6/86
f 221/15/33 225/6/33 222/15/33
f 225/6/33 221/15/33 226/6/33
f 225/6/27 220/15/27 222/15/27
f 220/15/27 225/6/27 223/6/27
f 224/6/28 220/15/28 223/6/28
f 220/15/28 224/6/28 219/15/28
f 224/6/37 221/15/37 219/15/37
f 221/15/37 224/6/37 226/6/37
f 229/1/87 228/1/87 227/1/87
f 228/1/87 229/1/87 230/1/87
f 231/18/37 229/1/37 227/1/37
f 229/1/37 231/18/37 232/18/37
f 227/1/28 233/19/89 231/18/88
f 233/19/89 232/18/90 231/18/88
f 227/1/28 234/20/91 233/19/89
f 234/20/91 227/1/28 228/1/92
f 232/18/90 233/19/89 235/19/93
f 234/20/91 235/19/93 233/19/89
f 235/19/93 229/1/33 232/18/90
f 228/1/92 236/20/94 234/20/91
f 235/19/93 234/20/91 236/20/94
f 236/20/94 229/1/33 235/19/93
f 236/20/94 228/1/92 230/1/95
f 229/1/33 236/20/94 230/1/95
f 239/1/87 238/1/87 237/1/87
f 238/1/87 239/1/87 240/1/87
f 241/18/27 238/1/27 240/1/27
f 238/1/27 241/18/27 242/18/27
f 238/1/28 243/21/97 237/1/96
f 243/21/97 239/1/98 237/1/96
f 238/1/28 244/22/99 243/21/97
f 244/22/99 238/1/28 242/18/100
f 239/1/98 243/21/97 245/21/101
f 244/22/99 245/21/101 243/21/97
f 245/21/101 240/1/33 239/1/98
f 242/18/100 246/22/102 244/22/99
f 245/21/101 244/22/99 246/22/102
f 246/22/102 240/1/33 245/21/101
f 246/22/102 242/18/100 241/18/103
f 240/1/33 246/22/102 241/18/103
