mtllib boat-house-a.mtl
v 1.338750 0.700000 -2.322000
v 1.275000 1.000000 -2.322000
v 0.517500 0.700000 -2.322000
v 0.517500 1.000000 -2.322000
v 0.517500 1.000000 -2.072000
v 0.517500 0.700000 -2.072000
v 1.025000 0.700000 -2.072000
v 1.025000 1.000000 -2.072000
v -0.517500 0.700000 -2.072000
v -1.025000 0.700000 -2.072000
v -0.517500 1.000000 -2.072000
v -1.025000 1.000000 -2.072000
v -0.517500 0.700000 -2.322000
v -0.517500 1.000000 -2.322000
v -1.338750 0.700000 -2.322000
v -1.275000 1.000000 -2.322000
v 1.338750 0.700000 2.322000
v -1.338750 0.700000 2.322000
v 1.275000 1.000000 2.238000
v -1.275000 1.000000 2.238000
v -1.025000 0.700000 2.008000
v -1.025000 1.000000 2.008000
v 1.025000 0.700000 2.008000
v 1.025000 1.000000 2.008000
v -0.850000 1.400000 1.008000
v -0.850000 1.400000 0.308000
v -0.800000 1.400000 1.008000
v -0.800000 1.400000 0.308000
v -0.800000 0.700000 1.008000
v -0.850000 0.700000 1.008000
v -0.850000 0.700000 0.308000
v -0.800000 0.700000 0.308000
v -0.850000 0.700000 1.108000
v -0.750000 0.700000 1.108000
v -0.850000 1.450000 1.108000
v -0.750000 1.450000 1.108000
v -0.750000 0.700000 0.208000
v -0.850000 0.700000 0.208000
v -0.750000 1.450000 0.208000
v -0.850000 1.450000 0.208000
v -0.850000 1.500000 0.258000
v -0.850000 1.500000 1.058000
v -0.750000 1.500000 0.258000
v -0.750000 1.500000 1.058000
v 0.750000 0.700000 0.208000
v 0.850000 0.700000 0.208000
v 0.750000 1.450000 0.208000
v 0.850000 1.450000 0.208000
v 0.850000 1.400000 1.008000
v 0.850000 1.400000 0.308000
v 0.800000 1.400000 1.008000
v 0.800000 1.400000 0.308000
v 0.800000 0.700000 1.008000
v 0.850000 0.700000 1.008000
v 0.850000 0.700000 0.308000
v 0.800000 0.700000 0.308000
v 0.850000 0.700000 1.108000
v 0.750000 0.700000 1.108000
v 0.850000 1.450000 1.108000
v 0.850000 1.500000 1.058000
v 0.850000 1.500000 0.258000
v 0.750000 1.500000 0.258000
v 0.750000 1.500000 1.058000
v 0.750000 1.450000 1.108000
v 0.550000 0.700000 1.308000
v 0.550000 0.700000 1.408000
v 0.550000 1.450000 1.308000
v 0.550000 1.450000 1.408000
v -0.450000 1.400000 1.408000
v 0.450000 1.400000 1.408000
v -0.450000 1.400000 1.358000
v 0.450000 1.400000 1.358000
v -0.450000 0.700000 1.358000
v -0.450000 0.700000 1.408000
v 0.450000 0.700000 1.408000
v 0.450000 0.700000 1.358000
v -0.550000 0.700000 1.408000
v -0.550000 0.700000 1.308000
v -0.550000 1.450000 1.408000
v -0.500000 1.500000 1.408000
v 0.500000 1.500000 1.408000
v -0.550000 1.450000 1.308000
v 0.500000 1.500000 1.308000
v -0.500000 1.500000 1.308000
v 0.750000 1.361995 -1.525174
v 0.850000 1.361995 -1.525174
v 0.750000 1.500000 -1.387169
v 0.850000 1.500000 -1.387169
v 0.750000 1.028821 -1.192000
v 0.850000 1.028821 -1.192000
v 0.750000 1.028821 -1.387169
v 0.850000 1.028821 -1.387169
v 0.750000 1.361995 -1.053995
v 0.750000 1.500000 -1.192000
v 0.850000 1.361995 -1.053995
v 0.850000 1.500000 -1.192000
v 0.750000 1.166826 -1.525174
v 0.850000 1.166826 -1.525174
v 0.850000 1.166826 -1.053995
v 0.850000 1.208248 -1.153995
v 0.850000 1.128821 -1.233421
v 0.850000 1.320574 -1.153995
v 0.850000 1.400000 -1.233421
v 0.850000 1.128821 -1.345747
v 0.850000 1.208248 -1.425174
v 0.850000 1.400000 -1.345747
v 0.850000 1.320574 -1.425174
v 0.750000 1.166826 -1.053995
v 0.800000 1.208248 -1.425174
v 0.800000 1.320574 -1.425174
v 0.800000 1.320574 -1.153995
v 0.800000 1.400000 -1.233421
v 0.800000 1.400000 -1.345747
v 0.800000 1.128821 -1.345747
v 0.800000 1.128821 -1.233421
v 0.800000 1.208248 -1.153995
v 0.750000 1.850000 -1.892000
v 0.750000 1.700000 -1.892000
v 0.850000 1.850000 -1.792000
v 0.850000 1.700000 -1.792000
v -0.750000 1.700000 -1.892000
v -0.750000 1.850000 -1.892000
v -0.850000 1.700000 -1.792000
v -0.850000 1.850000 -1.792000
v -0.850000 1.700000 1.508000
v -0.850000 1.850000 1.508000
v -0.750000 1.700000 1.608000
v -0.750000 1.850000 1.608000
v 0.850000 1.700000 1.508000
v 0.750000 1.700000 1.608000
v 0.850000 1.850000 1.508000
v 0.750000 1.850000 1.608000
v -0.750000 1.361995 -1.525174
v -0.850000 1.361995 -1.525174
v -0.750000 1.500000 -1.387169
v -0.850000 1.500000 -1.387169
v -0.750000 1.028821 -1.192000
v -0.850000 1.028821 -1.192000
v -0.750000 1.028821 -1.387169
v -0.850000 1.028821 -1.387169
v -0.750000 1.361995 -1.053995
v -0.750000 1.500000 -1.192000
v -0.850000 1.361995 -1.053995
v -0.850000 1.500000 -1.192000
v -0.750000 1.166826 -1.525174
v -0.850000 1.166826 -1.525174
v -0.850000 1.166826 -1.053995
v -0.850000 1.208248 -1.153995
v -0.850000 1.128821 -1.233421
v -0.850000 1.320574 -1.153995
v -0.850000 1.400000 -1.233421
v -0.850000 1.128821 -1.345747
v -0.850000 1.208248 -1.425174
v -0.850000 1.400000 -1.345747
v -0.850000 1.320574 -1.425174
v -0.750000 1.166826 -1.053995
v -0.800000 1.208248 -1.425174
v -0.800000 1.320574 -1.425174
v -0.800000 1.320574 -1.153995
v -0.800000 1.400000 -1.233421
v -0.800000 1.400000 -1.345747
v -0.800000 1.128821 -1.345747
v -0.800000 1.128821 -1.233421
v -0.800000 1.208248 -1.153995
v -0.250000 0.700000 -1.842000
v -0.250000 0.700000 -1.892000
v -0.250000 1.400000 -1.842000
v -0.250000 1.400000 -1.892000
v 0.250000 0.700000 -1.892000
v 0.250000 0.700000 -1.842000
v 0.250000 1.400000 -1.892000
v 0.250000 1.400000 -1.842000
v 0.350000 0.700000 -1.792000
v 0.350000 0.700000 -1.892000
v 0.350000 1.450000 -1.792000
v 0.350000 1.450000 -1.892000
v 0.300000 1.500000 -1.892000
v 0.300000 1.500000 -1.792000
v -0.300000 1.500000 -1.892000
v -0.350000 1.450000 -1.892000
v -0.300000 1.500000 -1.792000
v -0.350000 1.450000 -1.792000
v -0.350000 0.700000 -1.892000
v -0.350000 0.700000 -1.792000
v 1.025000 1.000000 1.008000
v 1.025000 1.100000 1.108000
v 1.025000 1.000000 1.508000
v 1.025000 1.100000 1.408000
v 1.150000 1.100000 1.108000
v 1.150000 1.100000 1.408000
v 1.150000 1.000000 1.008000
v 1.150000 1.000000 1.508000
v -1.150000 1.000000 1.008000
v -1.150000 1.100000 1.108000
v -1.150000 1.000000 1.508000
v -1.150000 1.100000 1.408000
v -1.025000 1.100000 1.108000
v -1.025000 1.100000 1.408000
v -1.025000 1.000000 1.008000
v -1.025000 1.000000 1.508000
v 1.025000 1.000000 -1.572000
v 1.025000 1.100000 -1.472000
v 1.025000 1.000000 -1.072000
v 1.025000 1.100000 -1.172000
v 1.150000 1.100000 -1.472000
v 1.150000 1.100000 -1.172000
v 1.150000 1.000000 -1.572000
v 1.150000 1.000000 -1.072000
v -1.150000 1.000000 -1.572000
v -1.150000 1.100000 -1.472000
v -1.150000 1.000000 -1.072000
v -1.150000 1.100000 -1.172000
v -1.025000 1.100000 -1.472000
v -1.025000 1.100000 -1.172000
v -1.025000 1.000000 -1.572000
v -1.025000 1.000000 -1.072000
v -0.750000 1.700000 -1.792000
v -0.750000 0.700000 -1.792000
v -0.750000 1.700000 1.308000
v -0.750000 0.700000 1.308000
v 0.750000 0.700000 1.308000
v 0.750000 1.700000 1.308000
v 0.750000 0.700000 -1.792000
v 0.750000 1.700000 -1.792000
v -0.765000 0.000000 -2.099400
v -0.765000 0.000000 1.674600
v 0.765000 0.000000 -2.099400
v 0.765000 0.000000 1.674600
v -1.275000 0.300000 -2.122000
v 1.275000 0.300000 -2.122000
v 1.275000 0.300000 2.143440
v -1.275000 0.300000 2.143440
v -0.367051 2.086250 -1.321324
v 0.367051 2.086250 -1.321324
v -0.367051 2.172500 -1.235074
v 0.367051 2.172500 -1.235074
v -0.367051 2.000000 -1.321324
v 0.367051 2.000000 -1.321324
v -0.367051 2.000000 0.208000
v 0.367051 2.000000 0.208000
v 0.367051 2.086250 0.208000
v 0.367051 2.172500 0.121750
v -0.367051 2.086250 0.208000
v -0.367051 2.172500 0.121750
v 0.750000 2.000000 -1.892000
v 0.750000 1.850000 -1.892000
v 0.850000 2.000000 -1.792000
v 0.850000 1.850000 -1.792000
v -0.750000 1.850000 -1.892000
v -0.750000 2.000000 -1.892000
v -0.850000 1.850000 -1.792000
v -0.850000 2.000000 -1.792000
v -0.850000 1.850000 1.508000
v -0.850000 2.000000 1.508000
v -0.750000 1.850000 1.608000
v -0.750000 2.000000 1.608000
v 0.850000 2.000000 1.508000
v 0.850000 1.850000 1.508000
v 0.750000 2.000000 1.608000
v 0.750000 1.850000 1.608000
vn -0.000000 0.000000 -1.000000
vn -1.000000 0.000000 0.000000
vn 0.000000 0.000000 1.000000
vn 1.000000 0.000000 -0.000000
vn 0.656390 0.329507 0.678658
vn -0.656390 0.329507 0.678658
vn 0.685165 0.327735 0.650491
vn -0.685165 0.327735 0.650491
vn 0.978159 0.207859 -0.000000
vn -0.978159 0.207859 0.000000
vn 0.000000 1.000000 0.000000
vn 0.000000 -1.000000 0.000000
vn -0.000000 0.000000 -1.000000
vn 0.000000 0.000000 1.000000
vn 0.000000 0.382683 0.923879
vn -0.000000 0.382683 -0.923879
vn -0.000000 0.923879 -0.382683
vn 0.000000 0.923879 0.382683
vn -1.000000 0.000000 0.000000
vn 0.000000 0.000000 -1.000000
vn 0.000000 0.382683 -0.923879
vn 0.000000 0.000000 1.000000
vn 1.000000 0.000000 0.000000
vn 0.000000 0.923879 -0.382683
vn 0.000000 0.923879 0.382683
vn 0.000000 0.382683 0.923879
vn 1.000000 0.000000 -0.000000
vn 0.923880 0.382683 -0.000000
vn -1.000000 0.000000 0.000000
vn 0.000000 0.000000 1.000000
vn -0.923880 0.382683 0.000000
vn 0.382684 0.923879 -0.000000
vn -0.382684 0.923879 0.000000
vn -0.000000 0.382683 -0.923879
vn -0.000000 0.923879 -0.382683
vn 0.000000 -0.923879 0.382683
vn -0.000000 -0.923879 -0.382683
vn 0.000000 0.382683 0.923879
vn 0.000000 0.923879 0.382683
vn -0.000000 -0.382683 -0.923879
vn 0.000000 -0.382683 0.923879
vn 0.382683 0.000000 -0.923879
vn 0.923879 0.000000 -0.382683
vn -0.382683 0.000000 -0.923879
vn -0.923879 0.000000 -0.382683
vn -0.923879 0.000000 0.382683
vn -0.382683 0.000000 0.923879
vn 0.923879 0.000000 0.382683
vn 0.382683 0.000000 0.923879
vn -0.000000 0.000000 -1.000000
vn -1.000000 0.000000 0.000000
vn 0.000000 0.707107 0.707107
vn 0.000000 0.707107 -0.707107
vn 0.000000 0.000000 1.000000
vn 1.000000 0.000000 -0.000000
vn -0.000000 0.000000 -1.000000
vn -0.000000 -0.447214 -0.894427
vn 0.603040 -0.403336 0.688232
vn 0.987537 -0.157389 -0.000000
vn 0.724720 -0.373874 0.578791
vn -0.284156 -0.917579 0.278036
vn -0.268590 -0.917083 0.294651
vn -0.507020 -0.861934 0.000000
vn 0.284156 -0.917579 0.278036
vn 0.268590 -0.917083 0.294651
vn -0.603040 -0.403336 0.688232
vn -0.724720 -0.373874 0.578791
vn -0.987537 -0.157389 0.000000
vn 0.507020 -0.861934 -0.000000
vn -0.000000 -0.075120 -0.997174
vn -0.000000 0.707107 -0.707107
vn 0.000000 0.707107 0.707107
usemtl colormap
f 3/1/1 2/2/1 1/1/1
f 2/2/1 3/1/1 4/2/1
f 4/2/2 6/1/2 5/2/2
f 6/1/2 4/2/2 3/1/2
f 7/1/3 5/2/3 6/1/3
f 5/2/3 7/1/3 8/2/3
f 11/2/3 10/1/3 9/1/3
f 10/1/3 11/2/3 12/2/3
f 13/1/4 11/2/4 9/1/4
f 11/2/4 13/1/4 14/2/4
f 16/2/1 13/1/1 15/1/1
f 13/1/1 16/2/1 14/2/1
f 19/2/7 18/1/6 17/1/5
f 18/1/6 19/2/7 20/2/8
f 1/1/9 19/2/7 17/1/5
f 19/2/7 1/1/9 2/2/9
f 20/2/8 15/1/10 18/1/6
f 15/1/10 20/2/8 16/2/10
f 10/1/4 22/2/4 21/1/4
f 22/2/4 10/1/4 12/2/4
f 22/2/1 23/1/1 21/1/1
f 23/1/1 22/2/1 24/2/1
f 14/2/11 12/2/11 11/2/11
f 16/2/11 12/2/11 14/2/11
f 12/2/11 16/2/11 20/2/11
f 20/2/11 22/2/11 12/2/11
f 22/2/11 20/2/11 19/2/11
f 22/2/11 19/2/11 24/2/11
f 24/2/11 19/2/11 2/2/11
f 2/2/11 8/2/11 24/2/11
f 2/2/11 5/2/11 8/2/11
f 5/2/11 2/2/11 4/2/11
f 8/2/2 23/1/2 24/2/2
f 23/1/2 8/2/2 7/1/2
f 40/5/19 38/4/19 41/2/19
f 31/4/19 41/2/19 38/4/19
f 26/3/19 41/2/19 31/4/19
f 41/2/19 26/3/19 42/2/19
f 25/3/19 42/2/19 26/3/19
f 30/4/19 42/2/19 25/3/19
f 33/4/19 42/2/19 30/4/19
f 35/5/19 42/2/19 33/4/19
f 39/5/16 40/5/16 43/2/17
f 41/2/17 43/2/17 40/5/16
f 36/5/15 44/2/18 35/5/15
f 42/2/18 35/5/15 44/2/18
f 44/2/18 43/2/17 42/2/18
f 41/2/17 42/2/18 43/2/17
f 40/5/16 39/5/16 38/4/13
f 37/4/13 38/4/13 39/5/16
f 31/4/12 38/4/12 32/4/12
f 37/4/12 32/4/12 38/4/12
f 34/4/12 32/4/12 37/4/12
f 32/4/12 34/4/12 29/4/12
f 29/4/12 34/4/12 30/4/12
f 33/4/12 30/4/12 34/4/12
f 36/5/15 35/5/15 34/4/14
f 33/4/14 34/4/14 35/5/15
f 28/3/14 26/3/14 32/4/14
f 31/4/14 32/4/14 26/3/14
f 25/3/13 27/3/13 30/4/13
f 29/4/13 30/4/13 27/3/13
f 28/3/12 27/3/12 26/3/12
f 25/3/12 26/3/12 27/3/12
f 47/5/21 46/4/20 45/4/20
f 46/4/20 47/5/21 48/5/21
f 51/3/12 50/3/12 49/3/12
f 50/3/12 51/3/12 52/3/12
f 51/3/20 54/4/20 53/4/20
f 54/4/20 51/3/20 49/3/20
f 50/3/22 56/4/22 55/4/22
f 56/4/22 50/3/22 52/3/22
f 58/4/12 54/4/12 57/4/12
f 54/4/12 58/4/12 53/4/12
f 53/4/12 58/4/12 56/4/12
f 45/4/12 56/4/12 58/4/12
f 46/4/12 56/4/12 45/4/12
f 56/4/12 46/4/12 55/4/12
f 57/4/23 60/2/23 59/5/23
f 54/4/23 60/2/23 57/4/23
f 49/3/23 60/2/23 54/4/23
f 50/3/23 60/2/23 49/3/23
f 60/2/23 50/3/23 61/2/23
f 55/4/23 61/2/23 50/3/23
f 46/4/23 61/2/23 55/4/23
f 61/2/23 46/4/23 48/5/23
f 62/2/24 60/2/25 61/2/24
f 60/2/25 62/2/24 63/2/25
f 59/5/26 58/4/22 57/4/22
f 58/4/22 59/5/26 64/5/26
f 47/5/21 61/2/24 48/5/21
f 61/2/24 47/5/21 62/2/24
f 63/2/25 59/5/26 60/2/25
f 59/5/26 63/2/25 64/5/26
f 67/5/28 66/4/27 65/4/27
f 66/4/27 67/5/28 68/5/28
f 71/3/12 70/3/12 69/3/12
f 70/3/12 71/3/12 72/3/12
f 71/3/27 74/4/27 73/4/27
f 74/4/27 71/3/27 69/3/27
f 70/3/29 76/4/29 75/4/29
f 76/4/29 70/3/29 72/3/29
f 77/4/12 73/4/12 74/4/12
f 73/4/12 77/4/12 78/4/12
f 73/4/12 78/4/12 76/4/12
f 76/4/12 78/4/12 65/4/12
f 65/4/12 75/4/12 76/4/12
f 75/4/12 65/4/12 66/4/12
f 77/4/30 80/2/30 79/5/30
f 74/4/30 80/2/30 77/4/30
f 69/3/30 80/2/30 74/4/30
f 70/3/30 80/2/30 69/3/30
f 80/2/30 70/3/30 81/2/30
f 75/4/30 81/2/30 70/3/30
f 66/4/30 81/2/30 75/4/30
f 81/2/30 66/4/30 68/5/30
f 79/5/31 78/4/29 77/4/29
f 78/4/29 79/5/31 82/5/31
f 83/2/32 80/2/33 81/2/32
f 80/2/33 83/2/32 84/2/33
f 84/2/33 79/5/31 80/2/33
f 79/5/31 84/2/33 82/5/31
f 67/5/28 81/2/32 68/5/28
f 81/2/32 67/5/28 83/2/32
f 87/2/35 86/6/34 85/6/34
f 86/6/34 87/2/35 88/2/35
f 91/4/37 90/4/36 89/4/36
f 90/4/36 91/4/37 92/4/37
f 95/6/38 94/2/39 93/6/38
f 94/2/39 95/6/38 96/2/39
f 85/6/34 98/7/40 97/7/40
f 98/7/40 85/6/34 86/6/34
f 90/4/4 95/6/4 99/7/4
f 95/6/4 90/4/4 100/8/4
f 100/8/4 90/4/4 101/9/4
f 102/10/4 95/6/4 100/8/4
f 95/6/4 102/10/4 96/2/4
f 96/2/4 102/10/4 103/11/4
f 101/9/4 90/4/4 92/4/4
f 101/9/4 92/4/4 104/9/4
f 104/9/4 92/4/4 105/8/4
f 105/8/4 92/4/4 98/7/4
f 96/2/4 103/11/4 88/2/4
f 88/2/4 103/11/4 106/11/4
f 105/8/4 98/7/4 107/10/4
f 88/2/4 106/11/4 107/10/4
f 86/6/4 107/10/4 98/7/4
f 88/2/4 107/10/4 86/6/4
f 99/7/41 89/4/36 90/4/36
f 89/4/36 99/7/41 108/7/41
f 95/6/38 108/7/41 99/7/41
f 108/7/41 95/6/38 93/6/38
f 96/2/39 87/2/35 94/2/39
f 87/2/35 96/2/39 88/2/35
f 97/7/40 92/4/37 91/4/37
f 92/4/37 97/7/40 98/7/40
f 107/10/41 109/8/38 105/8/38
f 109/8/38 107/10/41 110/10/41
f 112/11/37 102/10/40 111/10/40
f 102/10/40 112/11/37 103/11/37
f 106/11/36 110/10/41 107/10/41
f 110/10/41 106/11/36 113/11/36
f 104/9/39 109/8/38 114/9/39
f 109/8/38 104/9/39 105/8/38
f 115/9/35 100/8/34 101/9/35
f 100/8/34 115/9/35 116/8/34
f 116/8/34 102/10/40 100/8/34
f 102/10/40 116/8/34 111/10/40
f 113/11/36 103/11/37 112/11/37
f 103/11/37 113/11/36 106/11/36
f 101/9/35 114/9/39 115/9/35
f 114/9/39 101/9/35 104/9/39
f 119/2/43 118/4/42 117/2/42
f 118/4/42 119/2/43 120/4/43
f 122/2/44 118/4/42 121/4/44
f 118/4/42 122/2/44 117/2/42
f 123/4/45 122/2/44 121/4/44
f 122/2/44 123/4/45 124/2/45
f 127/4/47 126/2/46 125/4/46
f 126/2/46 127/4/47 128/2/47
f 125/4/46 124/2/45 123/4/45
f 124/2/45 125/4/46 126/2/46
f 130/4/12 120/4/12 129/4/12
f 120/4/12 130/4/12 118/4/12
f 118/4/12 130/4/12 127/4/12
f 118/4/12 127/4/12 121/4/12
f 121/4/12 127/4/12 125/4/12
f 121/4/12 125/4/12 123/4/12
f 132/2/49 129/4/48 131/2/48
f 129/4/48 132/2/49 130/4/49
f 132/2/49 127/4/47 130/4/49
f 127/4/47 132/2/49 128/2/47
f 131/2/48 120/4/43 119/2/43
f 120/4/43 131/2/48 129/4/48
f 152/9/39 149/9/35 162/9/39
f 163/9/35 162/9/39 149/9/35
f 154/11/36 161/11/36 151/11/37
f 160/11/37 151/11/37 161/11/36
f 159/10/40 164/8/34 150/10/40
f 148/8/34 150/10/40 164/8/34
f 164/8/34 163/9/35 148/8/34
f 149/9/35 148/8/34 163/9/35
f 153/8/38 152/9/39 157/8/38
f 162/9/39 157/8/38 152/9/39
f 161/11/36 154/11/36 158/10/41
f 155/10/41 158/10/41 154/11/36
f 151/11/37 160/11/37 150/10/40
f 159/10/40 150/10/40 160/11/37
f 158/10/41 155/10/41 157/8/38
f 153/8/38 157/8/38 155/10/41
f 146/7/40 145/7/40 140/4/37
f 139/4/37 140/4/37 145/7/40
f 136/2/35 144/2/39 135/2/35
f 142/2/39 135/2/35 144/2/39
f 141/6/38 143/6/38 156/7/41
f 147/7/41 156/7/41 143/6/38
f 156/7/41 147/7/41 137/4/36
f 138/4/36 137/4/36 147/7/41
f 134/6/2 155/10/2 136/2/2
f 146/7/2 155/10/2 134/6/2
f 155/10/2 154/11/2 136/2/2
f 155/10/2 146/7/2 153/8/2
f 154/11/2 151/11/2 136/2/2
f 136/2/2 151/11/2 144/2/2
f 146/7/2 140/4/2 153/8/2
f 153/8/2 140/4/2 152/9/2
f 152/9/2 140/4/2 149/9/2
f 140/4/2 138/4/2 149/9/2
f 151/11/2 150/10/2 144/2/2
f 144/2/2 150/10/2 143/6/2
f 148/8/2 143/6/2 150/10/2
f 149/9/2 138/4/2 148/8/2
f 148/8/2 138/4/2 143/6/2
f 147/7/2 143/6/2 138/4/2
f 134/6/34 133/6/34 146/7/40
f 145/7/40 146/7/40 133/6/34
f 144/2/39 143/6/38 142/2/39
f 141/6/38 142/2/39 143/6/38
f 140/4/37 139/4/37 138/4/36
f 137/4/36 138/4/36 139/4/37
f 136/2/35 135/2/35 134/6/34
f 133/6/34 134/6/34 135/2/35
f 181/2/33 178/2/32 179/2/33
f 177/2/32 179/2/33 178/2/32
f 169/4/12 174/4/12 170/4/12
f 173/4/12 170/4/12 174/4/12
f 165/4/12 170/4/12 173/4/12
f 173/4/12 184/4/12 165/4/12
f 165/4/12 184/4/12 166/4/12
f 183/4/12 166/4/12 184/4/12
f 167/3/12 168/3/12 172/3/12
f 171/3/12 172/3/12 168/3/12
f 176/5/50 174/4/50 177/2/50
f 169/4/50 177/2/50 174/4/50
f 171/3/50 177/2/50 169/4/50
f 177/2/50 171/3/50 179/2/50
f 168/3/50 179/2/50 171/3/50
f 166/4/50 179/2/50 168/3/50
f 183/4/50 179/2/50 166/4/50
f 180/5/50 179/2/50 183/4/50
f 182/5/31 180/5/31 184/4/29
f 183/4/29 184/4/29 180/5/31
f 182/5/31 181/2/33 180/5/31
f 179/2/33 180/5/31 181/2/33
f 175/5/28 176/5/28 178/2/32
f 177/2/32 178/2/32 176/5/28
f 176/5/28 175/5/28 174/4/27
f 173/4/27 174/4/27 175/5/28
f 172/3/29 171/3/29 170/4/29
f 169/4/29 170/4/29 171/3/29
f 168/3/27 167/3/27 166/4/27
f 165/4/27 166/4/27 167/3/27
f 187/4/51 186/2/51 185/4/51
f 186/2/51 187/4/51 188/2/51
f 186/2/24 190/2/25 189/2/24
f 190/2/25 186/2/24 188/2/25
f 189/2/23 192/4/23 191/4/23
f 192/4/23 189/2/23 190/2/23
f 188/2/25 192/4/52 190/2/25
f 192/4/52 188/2/25 187/4/52
f 185/4/53 189/2/24 191/4/53
f 189/2/24 185/4/53 186/2/24
f 195/4/51 194/2/51 193/4/51
f 194/2/51 195/4/51 196/2/51
f 194/2/24 198/2/25 197/2/24
f 198/2/25 194/2/24 196/2/25
f 197/2/23 200/4/23 199/4/23
f 200/4/23 197/2/23 198/2/23
f 196/2/25 200/4/52 198/2/25
f 200/4/52 196/2/25 195/4/52
f 193/4/53 197/2/24 199/4/53
f 197/2/24 193/4/53 194/2/24
f 203/4/51 202/2/51 201/4/51
f 202/2/51 203/4/51 204/2/51
f 202/2/24 206/2/25 205/2/24
f 206/2/25 202/2/24 204/2/25
f 205/2/23 208/4/23 207/4/23
f 208/4/23 205/2/23 206/2/23
f 204/2/25 208/4/52 206/2/25
f 208/4/52 204/2/25 203/4/52
f 201/4/53 205/2/24 207/4/53
f 205/2/24 201/4/53 202/2/24
f 211/4/51 210/2/51 209/4/51
f 210/2/51 211/4/51 212/2/51
f 210/2/24 214/2/25 213/2/24
f 214/2/25 210/2/24 212/2/25
f 213/2/23 216/4/23 215/4/23
f 216/4/23 213/2/23 214/2/23
f 212/2/25 216/4/52 214/2/25
f 216/4/52 212/2/25 211/4/52
f 209/4/53 213/2/24 215/4/53
f 213/2/24 209/4/53 210/2/24
f 21/12/11 9/12/11 10/12/11
f 9/12/11 21/12/11 23/12/11
f 9/12/11 23/12/11 6/12/11
f 6/12/11 23/12/11 7/12/11
f 9/12/11 6/12/11 3/12/11
f 3/12/11 13/12/11 9/12/11
f 217/13/56 224/13/56 218/14/56
f 223/14/56 218/14/56 224/13/56
f 222/13/55 221/14/55 224/13/55
f 223/14/55 224/13/55 221/14/55
f 222/13/54 219/13/54 221/14/54
f 220/14/54 221/14/54 219/13/54
f 220/14/19 219/13/19 218/14/19
f 217/13/19 218/14/19 219/13/19
f 227/15/12 226/15/12 225/15/12
f 226/15/12 227/15/12 228/15/12
f 15/17/57 230/16/57 229/16/57
f 230/16/57 15/17/57 1/17/57
f 1/17/57 15/17/57 13/17/57
f 1/17/57 13/17/57 3/17/57
f 231/16/60 1/17/59 17/17/58
f 1/17/59 231/16/60 230/16/59
f 229/16/63 226/15/62 232/16/61
f 226/15/62 229/16/63 225/15/63
f 226/15/62 231/16/64 232/16/61
f 231/16/64 226/15/62 228/15/65
f 15/17/68 232/16/67 18/17/66
f 232/16/67 15/17/68 229/16/68
f 230/16/69 228/15/65 227/15/69
f 228/15/65 230/16/69 231/16/64
f 229/16/70 227/15/70 225/15/70
f 227/15/70 229/16/70 230/16/70
f 17/17/58 232/16/67 231/16/60
f 232/16/67 17/17/58 18/17/66
f 29/19/19 27/18/19 32/19/19
f 28/18/19 32/19/19 27/18/19
f 51/18/23 56/19/23 52/18/23
f 56/19/23 51/18/23 53/19/23
f 71/18/30 76/19/30 72/18/30
f 76/19/30 71/18/30 73/19/30
f 115/22/4 111/21/4 116/20/4
f 111/21/4 115/22/4 112/23/4
f 112/23/4 115/22/4 114/22/4
f 112/23/4 114/22/4 113/23/4
f 113/23/4 114/22/4 109/20/4
f 113/23/4 109/20/4 110/21/4
f 158/21/2 157/20/2 161/23/2
f 157/20/2 162/22/2 161/23/2
f 161/23/2 162/22/2 160/23/2
f 162/22/2 163/22/2 160/23/2
f 160/23/2 163/22/2 159/21/2
f 164/20/2 159/21/2 163/22/2
f 165/19/50 167/18/50 170/19/50
f 172/18/50 170/19/50 167/18/50
f 235/25/71 234/24/34 233/24/34
f 234/24/34 235/25/71 236/25/71
f 233/24/34 238/26/1 237/26/1
f 238/26/1 233/24/34 234/24/34
f 240/26/11 237/26/11 239/26/11
f 237/26/11 240/26/11 238/26/11
f 238/26/4 241/24/4 240/26/4
f 241/24/4 238/26/4 242/25/4
f 242/25/4 238/26/4 236/25/4
f 236/25/4 238/26/4 234/24/4
f 241/24/38 244/25/72 243/24/38
f 244/25/72 241/24/38 242/25/72
f 242/25/11 235/25/11 244/25/11
f 235/25/11 242/25/11 236/25/11
f 240/26/3 243/24/38 239/26/3
f 243/24/38 240/26/3 241/24/38
f 244/25/2 239/26/2 243/24/2
f 239/26/2 244/25/2 237/26/2
f 237/26/2 244/25/2 235/25/2
f 237/26/2 235/25/2 233/24/2
f 247/25/43 246/26/42 245/25/42
f 246/26/42 247/25/43 248/26/43
f 250/25/44 246/26/42 249/26/44
f 246/26/42 250/25/44 245/25/42
f 251/26/45 250/25/44 249/26/44
f 250/25/44 251/26/45 252/25/45
f 255/26/47 254/25/46 253/26/46
f 254/25/46 255/26/47 256/25/47
f 253/26/46 252/25/45 251/26/45
f 252/25/45 253/26/46 254/25/46
f 259/25/49 258/26/48 257/25/48
f 258/26/48 259/25/49 260/26/49
f 259/25/49 255/26/47 260/26/49
f 255/26/47 259/25/49 256/25/47
f 245/25/11 257/25/11 247/25/11
f 257/25/11 245/25/11 259/25/11
f 259/25/11 245/25/11 250/25/11
f 259/25/11 250/25/11 256/25/11
f 256/25/11 250/25/11 252/25/11
f 256/25/11 252/25/11 254/25/11
f 257/25/48 248/26/43 247/25/43
f 248/26/43 257/25/48 258/26/48
f 3/1/1 2/2/1 1/1/1
f 2/2/1 3/1/1 4/2/1
f 4/2/2 6/1/2 5/2/2
f 6/1/2 4/2/2 3/1/2
f 7/1/3 5/2/3 6/1/3
f 5/2/3 7/1/3 8/2/3
f 11/2/3 10/1/3 9/1/3
f 10/1/3 11/2/3 12/2/3
f 13/1/4 11/2/4 9/1/4
f 11/2/4 13/1/4 14/2/4
f 16/2/1 13/1/1 15/1/1
f 13/1/1 16/2/1 14/2/1
f 19/2/7 18/1/6 17/1/5
f 18/1/6 19/2/7 20/2/8
f 1/1/9 19/2/7 17/1/5
f 19/2/7 1/1/9 2/2/9
f 20/2/8 15/1/10 18/1/6
f 15/1/10 20/2/8 16/2/10
f 10/1/4 22/2/4 21/1/4
f 22/2/4 10/1/4 12/2/4
f 22/2/1 23/1/1 21/1/1
f 23/1/1 22/2/1 24/2/1
f 14/2/11 12/2/11 11/2/11
f 16/2/11 12/2/11 14/2/11
f 12/2/11 16/2/11 20/2/11
f 20/2/11 22/2/11 12/2/11
f 22/2/11 20/2/11 19/2/11
f 22/2/11 19/2/11 24/2/11
f 24/2/11 19/2/11 2/2/11
f 2/2/11 8/2/11 24/2/11
f 2/2/11 5/2/11 8/2/11
f 5/2/11 2/2/11 4/2/11
f 8/2/2 23/1/2 24/2/2
f 23/1/2 8/2/2 7/1/2
f 40/5/19 38/4/19 41/2/19
f 31/4/19 41/2/19 38/4/19
f 26/3/19 41/2/19 31/4/19
f 41/2/19 26/3/19 42/2/19
f 25/3/19 42/2/19 26/3/19
f 30/4/19 42/2/19 25/3/19
f 33/4/19 42/2/19 30/4/19
f 35/5/19 42/2/19 33/4/19
f 39/5/16 40/5/16 43/2/17
f 41/2/17 43/2/17 40/5/16
f 36/5/15 44/2/18 35/5/15
f 42/2/18 35/5/15 44/2/18
f 44/2/18 43/2/17 42/2/18
f 41/2/17 42/2/18 43/2/17
f 40/5/16 39/5/16 38/4/13
f 37/4/13 38/4/13 39/5/16
f 31/4/12 38/4/12 32/4/12
f 37/4/12 32/4/12 38/4/12
f 34/4/12 32/4/12 37/4/12
f 32/4/12 34/4/12 29/4/12
f 29/4/12 34/4/12 30/4/12
f 33/4/12 30/4/12 34/4/12
f 36/5/15 35/5/15 34/4/14
f 33/4/14 34/4/14 35/5/15
f 28/3/14 26/3/14 32/4/14
f 31/4/14 32/4/14 26/3/14
f 25/3/13 27/3/13 30/4/13
f 29/4/13 30/4/13 27/3/13
f 28/3/12 27/3/12 26/3/12
f 25/3/12 26/3/12 27/3/12
f 47/5/21 46/4/20 45/4/20
f 46/4/20 47/5/21 48/5/21
f 51/3/12 50/3/12 49/3/12
f 50/3/12 51/3/12 52/3/12
f 51/3/20 54/4/20 53/4/20
f 54/4/20 51/3/20 49/3/20
f 50/3/22 56/4/22 55/4/22
f 56/4/22 50/3/22 52/3/22
f 58/4/12 54/4/12 57/4/12
f 54/4/12 58/4/12 53/4/12
f 53/4/12 58/4/12 56/4/12
f 45/4/12 56/4/12 58/4/12
f 46/4/12 56/4/12 45/4/12
f 56/4/12 46/4/12 55/4/12
f 57/4/23 60/2/23 59/5/23
f 54/4/23 60/2/23 57/4/23
f 49/3/23 60/2/23 54/4/23
f 50/3/23 60/2/23 49/3/23
f 60/2/23 50/3/23 61/2/23
f 55/4/23 61/2/23 50/3/23
f 46/4/23 61/2/23 55/4/23
f 61/2/23 46/4/23 48/5/23
f 62/2/24 60/2/25 61/2/24
f 60/2/25 62/2/24 63/2/25
f 59/5/26 58/4/22 57/4/22
f 58/4/22 59/5/26 64/5/26
f 47/5/21 61/2/24 48/5/21
f 61/2/24 47/5/21 62/2/24
f 63/2/25 59/5/26 60/2/25
f 59/5/26 63/2/25 64/5/26
f 67/5/28 66/4/27 65/4/27
f 66/4/27 67/5/28 68/5/28
f 71/3/12 70/3/12 69/3/12
f 70/3/12 71/3/12 72/3/12
f 71/3/27 74/4/27 73/4/27
f 74/4/27 71/3/27 69/3/27
f 70/3/29 76/4/29 75/4/29
f 76/4/29 70/3/29 72/3/29
f 77/4/12 73/4/12 74/4/12
f 73/4/12 77/4/12 78/4/12
f 73/4/12 78/4/12 76/4/12
f 76/4/12 78/4/12 65/4/12
f 65/4/12 75/4/12 76/4/12
f 75/4/12 65/4/12 66/4/12
f 77/4/30 80/2/30 79/5/30
f 74/4/30 80/2/30 77/4/30
f 69/3/30 80/2/30 74/4/30
f 70/3/30 80/2/30 69/3/30
f 80/2/30 70/3/30 81/2/30
f 75/4/30 81/2/30 70/3/30
f 66/4/30 81/2/30 75/4/30
f 81/2/30 66/4/30 68/5/30
f 79/5/31 78/4/29 77/4/29
f 78/4/29 79/5/31 82/5/31
f 83/2/32 80/2/33 81/2/32
f 80/2/33 83/2/32 84/2/33
f 84/2/33 79/5/31 80/2/33
f 79/5/31 84/2/33 82/5/31
f 67/5/28 81/2/32 68/5/28
f 81/2/32 67/5/28 83/2/32
f 87/2/35 86/6/34 85/6/34
f 86/6/34 87/2/35 88/2/35
f 91/4/37 90/4/36 89/4/36
f 90/4/36 91/4/37 92/4/37
f 95/6/38 94/2/39 93/6/38
f 94/2/39 95/6/38 96/2/39
f 85/6/34 98/7/40 97/7/40
f 98/7/40 85/6/34 86/6/34
f 90/4/4 95/6/4 99/7/4
f 95/6/4 90/4/4 100/8/4
f 100/8/4 90/4/4 101/9/4
f 102/10/4 95/6/4 100/8/4
f 95/6/4 102/10/4 96/2/4
f 96/2/4 102/10/4 103/11/4
f 101/9/4 90/4/4 92/4/4
f 101/9/4 92/4/4 104/9/4
f 104/9/4 92/4/4 105/8/4
f 105/8/4 92/4/4 98/7/4
f 96/2/4 103/11/4 88/2/4
f 88/2/4 103/11/4 106/11/4
f 105/8/4 98/7/4 107/10/4
f 88/2/4 106/11/4 107/10/4
f 86/6/4 107/10/4 98/7/4
f 88/2/4 107/10/4 86/6/4
f 99/7/41 89/4/36 90/4/36
f 89/4/36 99/7/41 108/7/41
f 95/6/38 108/7/41 99/7/41
f 108/7/41 95/6/38 93/6/38
f 96/2/39 87/2/35 94/2/39
f 87/2/35 96/2/39 88/2/35
f 97/7/40 92/4/37 91/4/37
f 92/4/37 97/7/40 98/7/40
f 107/10/41 109/8/38 105/8/38
f 109/8/38 107/10/41 110/10/41
f 112/11/37 102/10/40 111/10/40
f 102/10/40 112/11/37 103/11/37
f 106/11/36 110/10/41 107/10/41
f 110/10/41 106/11/36 113/11/36
f 104/9/39 109/8/38 114/9/39
f 109/8/38 104/9/39 105/8/38
f 115/9/35 100/8/34 101/9/35
f 100/8/34 115/9/35 116/8/34
f 116/8/34 102/10/40 100/8/34
f 102/10/40 116/8/34 111/10/40
f 113/11/36 103/11/37 112/11/37
f 103/11/37 113/11/36 106/11/36
f 101/9/35 114/9/39 115/9/35
f 114/9/39 101/9/35 104/9/39
f 119/2/43 118/4/42 117/2/42
f 118/4/42 119/2/43 120/4/43
f 122/2/44 118/4/42 121/4/44
f 118/4/42 122/2/44 117/2/42
f 123/4/45 122/2/44 121/4/44
f 122/2/44 123/4/45 124/2/45
f 127/4/47 126/2/46 125/4/46
f 126/2/46 127/4/47 128/2/47
f 125/4/46 124/2/45 123/4/45
f 124/2/45 125/4/46 126/2/46
f 130/4/12 120/4/12 129/4/12
f 120/4/12 130/4/12 118/4/12
f 118/4/12 130/4/12 127/4/12
f 118/4/12 127/4/12 121/4/12
f 121/4/12 127/4/12 125/4/12
f 121/4/12 125/4/12 123/4/12
f 132/2/49 129/4/48 131/2/48
f 129/4/48 132/2/49 130/4/49
f 132/2/49 127/4/47 130/4/49
f 127/4/47 132/2/49 128/2/47
f 131/2/48 120/4/43 119/2/43
f 120/4/43 131/2/48 129/4/48
f 152/9/39 149/9/35 162/9/39
f 163/9/35 162/9/39 149/9/35
f 154/11/36 161/11/36 151/11/37
f 160/11/37 151/11/37 161/11/36
f 159/10/40 164/8/34 150/10/40
f 148/8/34 150/10/40 164/8/34
f 164/8/34 163/9/35 148/8/34
f 149/9/35 148/8/34 163/9/35
f 153/8/38 152/9/39 157/8/38
f 162/9/39 157/8/38 152/9/39
f 161/11/36 154/11/36 158/10/41
f 155/10/41 158/10/41 154/11/36
f 151/11/37 160/11/37 150/10/40
f 159/10/40 150/10/40 160/11/37
f 158/10/41 155/10/41 157/8/38
f 153/8/38 157/8/38 155/10/41
f 146/7/40 145/7/40 140/4/37
f 139/4/37 140/4/37 145/7/40
f 136/2/35 144/2/39 135/2/35
f 142/2/39 135/2/35 144/2/39
f 141/6/38 143/6/38 156/7/41
f 147/7/41 156/7/41 143/6/38
f 156/7/41 147/7/41 137/4/36
f 138/4/36 137/4/36 147/7/41
f 134/6/2 155/10/2 136/2/2
f 146/7/2 155/10/2 134/6/2
f 155/10/2 154/11/2 136/2/2
f 155/10/2 146/7/2 153/8/2
f 154/11/2 151/11/2 136/2/2
f 136/2/2 151/11/2 144/2/2
f 146/7/2 140/4/2 153/8/2
f 153/8/2 140/4/2 152/9/2
f 152/9/2 140/4/2 149/9/2
f 140/4/2 138/4/2 149/9/2
f 151/11/2 150/10/2 144/2/2
f 144/2/2 150/10/2 143/6/2
f 148/8/2 143/6/2 150/10/2
f 149/9/2 138/4/2 148/8/2
f 148/8/2 138/4/2 143/6/2
f 147/7/2 143/6/2 138/4/2
f 134/6/34 133/6/34 146/7/40
f 145/7/40 146/7/40 133/6/34
f 144/2/39 143/6/38 142/2/39
f 141/6/38 142/2/39 143/6/38
f 140/4/37 139/4/37 138/4/36
f 137/4/36 138/4/36 139/4/37
f 136/2/35 135/2/35 134/6/34
f 133/6/34 134/6/34 135/2/35
f 181/2/33 178/2/32 179/2/33
f 177/2/32 179/2/33 178/2/32
f 169/4/12 174/4/12 170/4/12
f 173/4/12 170/4/12 174/4/12
f 165/4/12 170/4/12 173/4/12
f 173/4/12 184/4/12 165/4/12
f 165/4/12 184/4/12 166/4/12
f 183/4/12 166/4/12 184/4/12
f 167/3/12 168/3/12 172/3/12
f 171/3/12 172/3/12 168/3/12
f 176/5/50 174/4/50 177/2/50
f 169/4/50 177/2/50 174/4/50
f 171/3/50 177/2/50 169/4/50
f 177/2/50 171/3/50 179/2/50
f 168/3/50 179/2/50 171/3/50
f 166/4/50 179/2/50 168/3/50
f 183/4/50 179/2/50 166/4/50
f 180/5/50 179/2/50 183/4/50
f 182/5/31 180/5/31 184/4/29
f 183/4/29 184/4/29 180/5/31
f 182/5/31 181/2/33 180/5/31
f 179/2/33 180/5/31 181/2/33
f 175/5/28 176/5/28 178/2/32
f 177/2/32 178/2/32 176/5/28
f 176/5/28 175/5/28 174/4/27
f 173/4/27 174/4/27 175/5/28
f 172/3/29 171/3/29 170/4/29
f 169/4/29 170/4/29 171/3/29
f 168/3/27 167/3/27 166/4/27
f 165/4/27 166/4/27 167/3/27
f 187/4/51 186/2/51 185/4/51
f 186/2/51 187/4/51 188/2/51
f 186/2/24 190/2/25 189/2/24
f 190/2/25 186/2/24 188/2/25
f 189/2/23 192/4/23 191/4/23
f 192/4/23 189/2/23 190/2/23
f 188/2/25 192/4/52 190/2/25
f 192/4/52 188/2/25 187/4/52
f 185/4/53 189/2/24 191/4/53
f 189/2/24 185/4/53 186/2/24
f 195/4/51 194/2/51 193/4/51
f 194/2/51 195/4/51 196/2/51
f 194/2/24 198/2/25 197/2/24
f 198/2/25 194/2/24 196/2/25
f 197/2/23 200/4/23 199/4/23
f 200/4/23 197/2/23 198/2/23
f 196/2/25 200/4/52 198/2/25
f 200/4/52 196/2/25 195/4/52
f 193/4/53 197/2/24 199/4/53
f 197/2/24 193/4/53 194/2/24
f 203/4/51 202/2/51 201/4/51
f 202/2/51 203/4/51 204/2/51
f 202/2/24 206/2/25 205/2/24
f 206/2/25 202/2/24 204/2/25
f 205/2/23 208/4/23 207/4/23
f 208/4/23 205/2/23 206/2/23
f 204/2/25 208/4/52 206/2/25
f 208/4/52 204/2/25 203/4/52
f 201/4/53 205/2/24 207/4/53
f 205/2/24 201/4/53 202/2/24
f 211/4/51 210/2/51 209/4/51
f 210/2/51 211/4/51 212/2/51
f 210/2/24 214/2/25 213/2/24
f 214/2/25 210/2/24 212/2/25
f 213/2/23 216/4/23 215/4/23
f 216/4/23 213/2/23 214/2/23
f 212/2/25 216/4/52 214/2/25
f 216/4/52 212/2/25 211/4/52
f 209/4/53 213/2/24 215/4/53
f 213/2/24 209/4/53 210/2/24
f 21/12/11 9/12/11 10/12/11
f 9/12/11 21/12/11 23/12/11
f 9/12/11 23/12/11 6/12/11
f 6/12/11 23/12/11 7/12/11
f 9/12/11 6/12/11 3/12/11
f 3/12/11 13/12/11 9/12/11
f 217/13/56 224/13/56 218/14/56
f 223/14/56 218/14/56 224/13/56
f 222/13/55 221/14/55 224/13/55
f 223/14/55 224/13/55 221/14/55
f 222/13/54 219/13/54 221/14/54
f 220/14/54 221/14/54 219/13/54
f 220/14/19 219/13/19 218/14/19
f 217/13/19 218/14/19 219/13/19
f 227/15/12 226/15/12 225/15/12
f 226/15/12 227/15/12 228/15/12
f 15/17/57 230/16/57 229/16/57
f 230/16/57 15/17/57 1/17/57
f 1/17/57 15/17/57 13/17/57
f 1/17/57 13/17/57 3/17/57
f 231/16/60 1/17/59 17/17/58
f 1/17/59 231/16/60 230/16/59
f 229/16/63 226/15/62 232/16/61
f 226/15/62 229/16/63 225/15/63
f 226/15/62 231/16/64 232/16/61
f 231/16/64 226/15/62 228/15/65
f 15/17/68 232/16/67 18/17/66
f 232/16/67 15/17/68 229/16/68
f 230/16/69 228/15/65 227/15/69
f 228/15/65 230/16/69 231/16/64
f 229/16/70 227/15/70 225/15/70
f 227/15/70 229/16/70 230/16/70
f 17/17/58 232/16/67 231/16/60
f 232/16/67 17/17/58 18/17/66
f 29/19/19 27/18/19 32/19/19
f 28/18/19 32/19/19 27/18/19
f 51/18/23 56/19/23 52/18/23
f 56/19/23 51/18/23 53/19/23
f 71/18/30 76/19/30 72/18/30
f 76/19/30 71/18/30 73/19/30
f 115/22/4 111/21/4 116/20/4
f 111/21/4 115/22/4 112/23/4
f 112/23/4 115/22/4 114/22/4
f 112/23/4 114/22/4 113/23/4
f 113/23/4 114/22/4 109/20/4
f 113/23/4 109/20/4 110/21/4
f 158/21/2 157/20/2 161/23/2
f 157/20/2 162/22/2 161/23/2
f 161/23/2 162/22/2 160/23/2
f 162/22/2 163/22/2 160/23/2
f 160/23/2 163/22/2 159/21/2
f 164/20/2 159/21/2 163/22/2
f 165/19/50 167/18/50 170/19/50
f 172/18/50 170/19/50 167/18/50
f 235/25/71 234/24/34 233/24/34
f 234/24/34 235/25/71 236/25/71
f 233/24/34 238/26/1 237/26/1
f 238/26/1 233/24/34 234/24/34
f 240/26/11 237/26/11 239/26/11
f 237/26/11 240/26/11 238/26/11
f 238/26/4 241/24/4 240/26/4
f 241/24/4 238/26/4 242/25/4
f 242/25/4 238/26/4 236/25/4
f 236/25/4 238/26/4 234/24/4
f 241/24/38 244/25/72 243/24/38
f 244/25/72 241/24/38 242/25/72
f 242/25/11 235/25/11 244/25/11
f 235/25/11 242/25/11 236/25/11
f 240/26/3 243/24/38 239/26/3
f 243/24/38 240/26/3 241/24/38
f 244/25/2 239/26/2 243/24/2
f 239/26/2 244/25/2 237/26/2
f 237/26/2 244/25/2 235/25/2
f 237/26/2 235/25/2 233/24/2
f 247/25/43 246/26/42 245/25/42
f 246/26/42 247/25/43 248/26/43
f 250/25/44 246/26/42 249/26/44
f 246/26/42 250/25/44 245/25/42
f 251/26/45 250/25/44 249/26/44
f 250/25/44 251/26/45 252/25/45
f 255/26/47 254/25/46 253/26/46
f 254/25/46 255/26/47 256/25/47
f 253/26/46 252/25/45 251/26/45
f 252/25/45 253/26/46 254/25/46
f 259/25/49 258/26/48 257/25/48
f 258/26/48 259/25/49 260/26/49
f 259/25/49 255/26/47 260/26/49
f 255/26/47 259/25/49 256/25/47
f 245/25/11 257/25/11 247/25/11
f 257/25/11 245/25/11 259/25/11
f 259/25/11 245/25/11 250/25/11
f 259/25/11 250/25/11 256/25/11
f 256/25/11 250/25/11 252/25/11
f 256/25/11 252/25/11 254/25/11
f 257/25/48 248/26/43 247/25/43
f 248/26/43 257/25/48 258/26/48
