mtllib buoy.mtl
v 0.464100 -0.200000 -0.000000
v 0.328168 -0.200000 -0.328168
v 0.324870 -0.300000 -0.000000
v 0.229718 -0.300000 -0.229718
v 0.000000 -0.200000 0.464100
v 0.000000 -0.300000 0.324870
v -0.328168 -0.200000 0.328168
v -0.229718 -0.300000 0.229718
v 0.328168 -0.200000 0.328168
v 0.229718 -0.300000 0.229718
v -0.324870 -0.300000 0.000000
v -0.464100 -0.200000 0.000000
v -0.229718 -0.300000 -0.229718
v -0.328168 -0.200000 -0.328168
v -0.000000 -0.300000 -0.324870
v -0.000000 -0.200000 -0.464100
v 0.196901 1.544100 0.196901
v -0.196901 1.544100 0.196901
v 0.196901 1.544100 -0.196901
v -0.196901 1.544100 -0.196901
v -0.246126 1.334100 -0.246126
v -0.246126 1.334100 0.246126
v 0.246126 1.334100 0.246126
v 0.246126 1.334100 -0.246126
v -0.328168 0.114100 -0.328168
v -0.000000 0.114100 -0.464100
v 0.464100 0.114100 -0.000000
v 0.328168 0.114100 0.328168
v -0.464100 0.114100 0.000000
v 0.000000 0.114100 0.464100
v 0.328168 0.114100 -0.328168
v -0.328168 0.114100 0.328168
v -0.078623 0.114100 0.196901
v -0.196901 0.114100 0.196901
v -0.078623 1.014100 0.196901
v -0.196901 1.014100 0.196901
v 0.078623 0.114100 0.078623
v 0.078623 1.014100 0.078623
v 0.078623 0.114100 0.196901
v 0.078623 1.014100 0.196901
v 0.078623 0.114100 -0.196901
v 0.196901 0.114100 -0.196901
v 0.078623 1.014100 -0.196901
v 0.196901 1.014100 -0.196901
v -0.196901 0.114100 0.078623
v -0.078623 0.114100 0.078623
v -0.196901 1.014100 0.078623
v -0.078623 1.014100 0.078623
v 0.078623 0.114100 -0.078623
v 0.078623 1.014100 -0.078623
v 0.196901 1.014100 0.078623
v 0.196901 0.114100 0.078623
v 0.196901 1.014100 0.196901
v 0.196901 0.114100 0.196901
v 0.196901 1.014100 -0.078623
v 0.196901 0.114100 -0.078623
v -0.078623 1.014100 -0.196901
v -0.078623 0.114100 -0.196901
v -0.078623 1.014100 -0.078623
v -0.078623 0.114100 -0.078623
v -0.196901 0.114100 -0.196901
v -0.196901 1.014100 -0.196901
v -0.196901 0.114100 -0.078623
v -0.196901 1.014100 -0.078623
vn 0.583361 -0.812213 0.000000
vn 0.412498 -0.812213 -0.412498
vn 0.000000 -0.812213 0.583361
vn -0.412498 -0.812213 0.412498
vn 0.412498 -0.812213 0.412498
vn -0.583361 -0.812213 0.000000
vn -0.412498 -0.812213 -0.412498
vn 0.000000 -0.812213 -0.583361
vn 0.000000 -1.000000 0.000000
vn 0.000000 1.000000 0.000000
vn -0.973610 0.228220 0.000000
vn 0.000000 0.228220 0.973610
vn 0.973610 0.228220 0.000000
vn 0.000000 0.228220 -0.973610
vn -0.707107 0.000000 -0.707107
vn 0.000000 0.000000 -1.000000
vn 1.000000 0.000000 0.000000
vn 0.707107 0.000000 0.707107
vn -1.000000 0.000000 0.000000
vn 0.000000 0.000000 1.000000
vn -0.707107 0.000000 0.707107
vn 0.707107 0.000000 -0.707107
vn 0.000000 -0.152040 0.988374
vn 0.000000 -0.152040 -0.988374
vn -0.988374 -0.152040 0.000000
vn 0.988374 -0.152040 0.000000
usemtl colormap
f 3/1/1 2/1/2 1/1/1
f 2/1/2 3/1/1 4/1/2
f 7/1/4 6/1/3 5/1/3
f 6/1/3 7/1/4 8/1/4
f 9/1/5 3/1/1 1/1/1
f 3/1/1 9/1/5 10/1/5
f 7/1/4 11/1/6 8/1/4
f 11/1/6 7/1/4 12/1/6
f 11/1/6 14/1/7 13/1/7
f 14/1/7 11/1/6 12/1/6
f 13/1/7 16/1/8 15/1/8
f 16/1/8 13/1/7 14/1/7
f 4/1/2 16/1/8 2/1/2
f 16/1/8 4/1/2 15/1/8
f 5/1/3 10/1/5 9/1/5
f 10/1/5 5/1/3 6/1/3
f 10/1/9 4/1/9 3/1/9
f 4/1/9 10/1/9 6/1/9
f 4/1/9 6/1/9 15/1/9
f 15/1/9 6/1/9 8/1/9
f 15/1/9 8/1/9 13/1/9
f 13/1/9 8/1/9 11/1/9
f 19/2/10 18/2/10 17/2/10
f 18/2/10 19/2/10 20/2/10
f 22/3/11 20/2/11 21/3/11
f 20/2/11 22/3/11 18/2/11
f 17/2/12 22/3/12 23/3/12
f 22/3/12 17/2/12 18/2/12
f 19/2/13 23/3/13 24/3/13
f 23/3/13 19/2/13 17/2/13
f 20/2/14 24/3/14 21/3/14
f 24/3/14 20/2/14 19/2/14
f 9/4/9 2/4/9 1/4/9
f 2/4/9 9/4/9 5/4/9
f 2/4/9 5/4/9 16/4/9
f 16/4/9 5/4/9 7/4/9
f 16/4/9 7/4/9 14/4/9
f 14/4/9 7/4/9 12/4/9
f 25/5/15 16/4/16 14/4/15
f 16/4/16 25/5/15 26/5/16
f 28/5/18 1/4/17 27/5/17
f 1/4/17 28/5/18 9/4/18
f 12/4/19 25/5/15 14/4/15
f 25/5/15 12/4/19 29/5/19
f 28/5/18 5/4/20 9/4/18
f 5/4/20 28/5/18 30/5/20
f 31/5/10 28/5/10 27/5/10
f 28/5/10 31/5/10 30/5/10
f 30/5/10 31/5/10 26/5/10
f 30/5/10 26/5/10 32/5/10
f 32/5/10 26/5/10 25/5/10
f 32/5/10 25/5/10 29/5/10
f 7/4/21 29/5/19 12/4/19
f 29/5/19 7/4/21 32/5/21
f 26/5/16 2/4/22 16/4/16
f 2/4/22 26/5/16 31/5/22
f 27/5/17 2/4/22 31/5/22
f 2/4/22 27/5/17 1/4/17
f 30/5/20 7/4/21 5/4/20
f 7/4/21 30/5/20 32/5/21
f 35/6/20 34/4/20 33/4/20
f 34/4/20 35/6/20 36/6/20
f 39/4/19 38/6/19 37/4/19
f 38/6/19 39/4/19 40/6/19
f 43/6/16 42/4/16 41/4/16
f 42/4/16 43/6/16 44/6/16
f 47/6/16 46/4/16 45/4/16
f 46/4/16 47/6/16 48/6/16
f 49/4/19 43/6/19 41/4/19
f 43/6/19 49/4/19 50/6/19
f 53/6/17 52/4/17 51/6/17
f 52/4/17 53/6/17 54/4/17
f 55/6/17 42/4/17 44/6/17
f 42/4/17 55/6/17 56/4/17
f 59/6/17 58/4/17 57/6/17
f 58/4/17 59/6/17 60/4/17
f 62/6/16 58/4/16 61/4/16
f 58/4/16 62/6/16 57/6/16
f 35/6/17 46/4/17 48/6/17
f 46/4/17 35/6/17 33/4/17
f 59/6/20 63/4/20 60/4/20
f 63/4/20 59/6/20 64/6/20
f 38/6/16 52/4/16 37/4/16
f 52/4/16 38/6/16 51/6/16
f 53/6/20 39/4/20 54/4/20
f 39/4/20 53/6/20 40/6/20
f 55/6/20 49/4/20 56/4/20
f 49/4/20 55/6/20 50/6/20
f 59/6/9 47/6/9 64/6/9
f 47/6/9 59/6/9 48/6/9
f 57/6/9 48/6/9 59/6/9
f 43/6/9 48/6/9 57/6/9
f 43/6/9 35/6/9 48/6/9
f 50/6/9 35/6/9 43/6/9
f 38/6/9 35/6/9 50/6/9
f 35/6/9 38/6/9 40/6/9
f 55/6/9 38/6/9 50/6/9
f 38/6/9 55/6/9 51/6/9
f 63/4/19 62/6/19 61/4/19
f 62/6/19 63/4/19 64/6/19
f 34/4/19 47/6/19 45/4/19
f 47/6/19 34/4/19 36/6/19
f 23/7/23 40/6/23 53/6/23
f 40/6/23 23/7/23 36/6/23
f 36/6/23 23/7/23 22/7/23
f 36/6/23 35/6/23 40/6/23
f 21/7/24 57/6/24 62/6/24
f 57/6/24 21/7/24 43/6/24
f 24/7/24 43/6/24 21/7/24
f 43/6/24 24/7/24 44/6/24
f 62/6/25 22/7/25 21/7/25
f 22/7/25 62/6/25 64/6/25
f 22/7/25 64/6/25 47/6/25
f 22/7/25 47/6/25 36/6/25
f 23/7/26 44/6/26 24/7/26
f 44/6/26 23/7/26 55/6/26
f 55/6/26 23/7/26 51/6/26
f 51/6/26 23/7/26 53/6/26
f 3/1/1 2/1/2 1/1/1
f 2/1/2 3/1/1 4/1/2
f 7/1/4 6/1/3 5/1/3
f 6/1/3 7/1/4 8/1/4
f 9/1/5 3/1/1 1/1/1
f 3/1/1 9/1/5 10/1/5
f 7/1/4 11/1/6 8/1/4
f 11/1/6 7/1/4 12/1/6
f 11/1/6 14/1/7 13/1/7
f 14/1/7 11/1/6 12/1/6
f 13/1/7 16/1/8 15/1/8
f 16/1/8 13/1/7 14/1/7
f 4/1/2 16/1/8 2/1/2
f 16/1/8 4/1/2 15/1/8
f 5/1/3 10/1/5 9/1/5
f 10/1/5 5/1/3 6/1/3
f 10/1/9 4/1/9 3/1/9
f 4/1/9 10/1/9 6/1/9
f 4/1/9 6/1/9 15/1/9
f 15/1/9 6/1/9 8/1/9
f 15/1/9 8/1/9 13/1/9
f 13/1/9 8/1/9 11/1/9
f 19/2/10 18/2/10 17/2/10
f 18/2/10 19/2/10 20/2/10
f 22/3/11 20/2/11 21/3/11
f 20/2/11 22/3/11 18/2/11
f 17/2/12 22/3/12 23/3/12
f 22/3/12 17/2/12 18/2/12
f 19/2/13 23/3/13 24/3/13
f 23/3/13 19/2/13 17/2/13
f 20/2/14 24/3/14 21/3/14
f 24/3/14 20/2/14 19/2/14
f 9/4/9 2/4/9 1/4/9
f 2/4/9 9/4/9 5/4/9
f 2/4/9 5/4/9 16/4/9
f 16/4/9 5/4/9 7/4/9
f 16/4/9 7/4/9 14/4/9
f 14/4/9 7/4/9 12/4/9
f 25/5/15 16/4/16 14/4/15
f 16/4/16 25/5/15 26/5/16
f 28/5/18 1/4/17 27/5/17
f 1/4/17 28/5/18 9/4/18
f 12/4/19 25/5/15 14/4/15
f 25/5/15 12/4/19 29/5/19
f 28/5/18 5/4/20 9/4/18
f 5/4/20 28/5/18 30/5/20
f 31/5/10 28/5/10 27/5/10
f 28/5/10 31/5/10 30/5/10
f 30/5/10 31/5/10 26/5/10
f 30/5/10 26/5/10 32/5/10
f 32/5/10 26/5/10 25/5/10
f 32/5/10 25/5/10 29/5/10
f 7/4/21 29/5/19 12/4/19
f 29/5/19 7/4/21 32/5/21
f 26/5/16 2/4/22 16/4/16
f 2/4/22 26/5/16 31/5/22
f 27/5/17 2/4/22 31/5/22
f 2/4/22 27/5/17 1/4/17
f 30/5/20 7/4/21 5/4/20
f 7/4/21 30/5/20 32/5/21
f 35/6/20 34/4/20 33/4/20
f 34/4/20 35/6/20 36/6/20
f 39/4/19 38/6/19 37/4/19
f 38/6/19 39/4/19 40/6/19
f 43/6/16 42/4/16 41/4/16
f 42/4/16 43/6/16 44/6/16
f 47/6/16 46/4/16 45/4/16
f 46/4/16 47/6/16 48/6/16
f 49/4/19 43/6/19 41/4/19
f 43/6/19 49/4/19 50/6/19
f 53/6/17 52/4/17 51/6/17
f 52/4/17 53/6/17 54/4/17
f 55/6/17 42/4/17 44/6/17
f 42/4/17 55/6/17 56/4/17
f 59/6/17 58/4/17 57/6/17
f 58/4/17 59/6/17 60/4/17
f 62/6/16 58/4/16 61/4/16
f 58/4/16 62/6/16 57/6/16
f 35/6/17 46/4/17 48/6/17
f 46/4/17 35/6/17 33/4/17
f 59/6/20 63/4/20 60/4/20
f 63/4/20 59/6/20 64/6/20
f 38/6/16 52/4/16 37/4/16
f 52/4/16 38/6/16 51/6/16
f 53/6/20 39/4/20 54/4/20
f 39/4/20 53/6/20 40/6/20
f 55/6/20 49/4/20 56/4/20
f 49/4/20 55/6/20 50/6/20
f 59/6/9 47/6/9 64/6/9
f 47/6/9 59/6/9 48/6/9
f 57/6/9 48/6/9 59/6/9
f 43/6/9 48/6/9 57/6/9
f 43/6/9 35/6/9 48/6/9
f 50/6/9 35/6/9 43/6/9
f 38/6/9 35/6/9 50/6/9
f 35/6/9 38/6/9 40/6/9
f 55/6/9 38/6/9 50/6/9
f 38/6/9 55/6/9 51/6/9
f 63/4/19 62/6/19 61/4/19
f 62/6/19 63/4/19 64/6/19
f 34/4/19 47/6/19 45/4/19
f 47/6/19 34/4/19 36/6/19
f 23/7/23 40/6/23 53/6/23
f 40/6/23 23/7/23 36/6/23
f 36/6/23 23/7/23 22/7/23
f 36/6/23 35/6/23 40/6/23
f 21/7/24 57/6/24 62/6/24
f 57/6/24 21/7/24 43/6/24
f 24/7/24 43/6/24 21/7/24
f 43/6/24 24/7/24 44/6/24
f 62/6/25 22/7/25 21/7/25
f 22/7/25 62/6/25 64/6/25
f 22/7/25 64/6/25 47/6/25
f 22/7/25 47/6/25 36/6/25
f 23/7/26 44/6/26 24/7/26
f 44/6/26 23/7/26 55/6/26
f 55/6/26 23/7/26 51/6/26
f 51/6/26 23/7/26 53/6/26
