mtllib lampWall.mtl
v 0.040184 0.029000 -0.058833
v 0.040184 0.029000 0.000000
v -0.040184 0.029000 -0.058833
v -0.040184 0.029000 -0.000000
v -0.040184 0.000000 -0.058833
v 0.040184 0.000000 -0.058833
v 0.040184 0.000000 0.000000
v -0.040184 0.000000 -0.000000
v -0.080367 0.000000 -0.000000
v -0.080367 0.000000 -0.046400
v 0.000000 0.000000 -0.092800
v 0.080367 0.000000 -0.046400
v 0.080367 0.000000 0.000000
v -0.113318 0.092800 -0.075168
v 0.000000 0.092800 -0.150336
v 0.113318 0.092800 -0.075168
v 0.113318 0.092800 0.000000
v -0.113318 0.092800 -0.000000
vn 0.000000 1.000000 0.000000
vn 0.000000 0.000000 -1.000000
vn 0.000000 0.000000 1.000000
vn 1.000000 0.000000 0.000000
vn -1.000000 0.000000 0.000000
vn 0.000000 -1.000000 0.000000
vn -0.456641 -0.407327 -0.790926
vn -0.477240 -0.438007 -0.761834
vn -0.475599 -0.435541 -0.764271
vn 0.475599 0.435541 0.764271
vn 0.477240 0.438007 0.761834
vn 0.456641 0.407327 0.790926
vn -0.491104 -0.459018 -0.740351
vn 0.491104 0.459018 0.740351
vn 0.440516 -0.473057 -0.762996
vn 0.477492 -0.438950 -0.761134
vn 0.474670 -0.441633 -0.761347
vn -0.474670 0.441633 0.761347
vn -0.477492 0.438950 0.761134
vn -0.440516 0.473057 0.762996
vn 0.503219 -0.413849 -0.758616
vn -0.503219 0.413849 0.758616
vn 0.942359 -0.334604 0.000000
vn -0.942359 0.334604 0.000000
vn -0.942359 -0.334604 0.000000
vn 0.942359 0.334604 0.000000
usemtl metal
f 2/2/1 1/1/1 3/3/1
f 3/3/1 4/4/1 2/2/1
f 6/2/2 5/5/2 3/6/2
f 3/6/2 1/7/2 6/2/2
f 8/2/3 7/5/3 2/6/3
f 2/6/3 4/7/3 8/2/3
f 6/9/4 1/8/4 2/10/4
f 2/10/4 7/11/4 6/9/4
f 3/13/5 5/12/5 8/14/5
f 8/14/5 4/15/5 3/13/5
f 6/3/6 7/5/6 8/16/6
f 8/16/6 5/1/6 6/3/6
f 2/2/1 1/1/1 3/3/1
f 3/3/1 4/4/1 2/2/1
f 6/2/2 5/5/2 3/6/2
f 3/6/2 1/7/2 6/2/2
f 8/2/3 7/5/3 2/6/3
f 2/6/3 4/7/3 8/2/3
f 6/9/4 1/8/4 2/10/4
f 2/10/4 7/11/4 6/9/4
f 3/13/5 5/12/5 8/14/5
f 8/14/5 4/15/5 3/13/5
f 6/3/6 7/5/6 8/16/6
f 8/16/6 5/1/6 6/3/6
usemtl lamp
f 5/1/6 8/16/6 9/17/6
f 5/1/6 9/17/6 10/18/6
f 5/1/6 10/18/6 11/19/6
f 6/3/6 5/1/6 11/19/6
f 6/3/6 11/19/6 12/20/6
f 7/5/6 6/3/6 12/20/6
f 12/20/6 13/21/6 7/5/6
f 5/1/1 9/17/1 8/16/1
f 5/1/1 10/18/1 9/17/1
f 5/1/1 11/19/1 10/18/1
f 6/3/1 11/19/1 5/1/1
f 6/3/1 12/20/1 11/19/1
f 7/5/1 12/20/1 6/3/1
f 12/20/1 7/5/1 13/21/1
f 11/23/8 10/22/7 14/24/9
f 11/23/11 14/24/10 10/22/12
f 11/26/8 14/25/9 15/27/13
f 11/26/11 15/27/14 14/25/10
f 12/29/16 11/28/15 15/30/17
f 12/29/19 15/30/18 11/28/20
f 12/32/16 15/31/17 16/33/21
f 12/32/19 16/33/22 15/31/18
f 12/35/23 16/34/23 17/36/23
f 17/36/23 13/37/23 12/35/23
f 12/35/24 17/36/24 16/34/24
f 17/36/24 12/35/24 13/37/24
f 18/39/25 14/38/25 10/40/25
f 10/40/25 9/41/25 18/39/25
f 18/39/26 10/40/26 14/38/26
f 10/40/26 18/39/26 9/41/26
f 5/1/6 8/16/6 9/17/6
f 5/1/6 9/17/6 10/18/6
f 5/1/6 10/18/6 11/19/6
f 6/3/6 5/1/6 11/19/6
f 6/3/6 11/19/6 12/20/6
f 7/5/6 6/3/6 12/20/6
f 12/20/6 13/21/6 7/5/6
f 5/1/1 9/17/1 8/16/1
f 5/1/1 10/18/1 9/17/1
f 5/1/1 11/19/1 10/18/1
f 6/3/1 11/19/1 5/1/1
f 6/3/1 12/20/1 11/19/1
f 7/5/1 12/20/1 6/3/1
f 12/20/1 7/5/1 13/21/1
f 11/23/8 10/22/7 14/24/9
f 11/23/11 14/24/10 10/22/12
f 11/26/8 14/25/9 15/27/13
f 11/26/11 15/27/14 14/25/10
f 12/29/16 11/28/15 15/30/17
f 12/29/19 15/30/18 11/28/20
f 12/32/16 15/31/17 16/33/21
f 12/32/19 16/33/22 15/31/18
f 12/35/23 16/34/23 17/36/23
f 17/36/23 13/37/23 12/35/23
f 12/35/24 17/36/24 16/34/24
f 17/36/24 12/35/24 13/37/24
f 18/39/25 14/38/25 10/40/25
f 10/40/25 9/41/25 18/39/25
f 18/39/26 10/40/26 14/38/26
f 10/40/26 18/39/26 9/41/26
