mtllib pillow.mtl
v -0.200100 0.034834 0.000000
v -0.200100 0.199235 0.044051
v -0.200100 0.000000 0.014478
v -0.200100 0.022928 0.044433
v -0.200100 0.222163 0.074006
v -0.200100 0.187329 0.088484
v -0.230000 0.193282 0.066267
v 0.000000 0.028881 0.022216
v -0.029900 0.000000 0.014478
v -0.029900 0.022928 0.044433
v -0.230000 0.028881 0.022216
v -0.000000 0.193282 0.066267
v -0.029900 0.222163 0.074006
v -0.029900 0.034834 0.000000
v -0.029900 0.199235 0.044051
v -0.029900 0.187329 0.088484
vn -1.000000 0.000000 0.000000
vn -0.520579 0.677998 -0.518957
vn 0.520579 -0.677998 0.518957
vn -0.609711 -0.205146 0.765616
vn 0.000000 -0.258819 0.965926
vn 0.000000 0.258819 -0.965926
vn 1.000000 0.000000 0.000000
vn 0.000000 -0.965926 -0.258819
vn -0.520579 -0.677998 0.518957
vn 0.609711 0.205146 -0.765616
vn 0.520579 0.327684 0.788429
vn 0.000000 0.965926 0.258819
vn 0.609711 -0.205146 0.765616
vn 0.000000 -0.383789 -0.923421
vn 0.000000 -0.794082 0.607811
vn -0.520579 -0.327684 -0.788429
vn -0.609711 0.205146 -0.765616
vn 0.000000 0.794082 -0.607811
vn 0.520579 0.677998 -0.518957
vn 0.520579 -0.327684 -0.788429
vn 0.000000 0.383789 0.923421
vn -0.520579 0.327684 0.788429
usemtl carpet
f 2/2/1 1/1/1 3/3/1
f 3/3/1 4/4/1 2/2/1
f 4/4/1 5/5/1 2/2/1
f 4/4/1 6/6/1 5/5/1
f 5/8/2 2/7/2 7/9/2
f 9/11/3 8/10/3 10/12/3
f 11/14/4 4/13/4 6/15/4
f 6/15/4 7/16/4 11/14/4
f 11/18/5 3/17/5 9/19/5
f 9/19/5 8/20/5 11/18/5
f 8/20/5 7/21/5 11/18/5
f 8/20/5 12/22/5 7/21/5
f 12/22/5 5/23/5 7/21/5
f 12/22/5 13/24/5 5/23/5
f 14/26/6 1/25/6 2/27/6
f 2/27/6 15/28/6 14/26/6
f 9/30/7 14/29/7 15/31/7
f 15/31/7 10/32/7 9/30/7
f 15/31/7 13/33/7 10/32/7
f 13/33/7 16/34/7 10/32/7
f 14/36/8 8/35/8 10/37/8
f 10/37/8 4/38/8 14/36/8
f 4/38/8 1/39/8 14/36/8
f 4/38/8 11/40/8 1/39/8
f 3/42/9 4/41/9 11/43/9
f 12/45/10 8/44/10 14/46/10
f 14/46/10 15/47/10 12/45/10
f 16/49/11 12/48/11 13/50/11
f 16/52/12 12/51/12 15/53/12
f 15/53/12 6/54/12 16/52/12
f 15/53/12 2/55/12 6/54/12
f 2/55/12 7/56/12 6/54/12
f 16/58/13 10/57/13 8/44/13
f 8/44/13 12/45/13 16/58/13
f 6/60/5 4/59/5 10/61/5
f 10/61/5 16/62/5 6/60/5
f 9/64/14 3/63/14 1/65/14
f 1/65/14 14/66/14 9/64/14
f 3/68/15 9/67/15 10/69/15
f 10/69/15 4/70/15 3/68/15
f 3/72/16 11/71/16 1/73/16
f 1/75/17 11/74/17 7/76/17
f 7/76/17 2/77/17 1/75/17
f 5/79/18 13/78/18 15/80/18
f 15/80/18 2/81/18 5/79/18
f 13/83/19 12/82/19 15/84/19
f 8/86/20 9/85/20 14/87/20
f 5/89/21 6/88/21 16/90/21
f 16/90/21 13/91/21 5/89/21
f 7/93/22 6/92/22 5/94/22
f 2/2/1 1/1/1 3/3/1
f 3/3/1 4/4/1 2/2/1
f 4/4/1 5/5/1 2/2/1
f 4/4/1 6/6/1 5/5/1
f 5/8/2 2/7/2 7/9/2
f 9/11/3 8/10/3 10/12/3
f 11/14/4 4/13/4 6/15/4
f 6/15/4 7/16/4 11/14/4
f 11/18/5 3/17/5 9/19/5
f 9/19/5 8/20/5 11/18/5
f 8/20/5 7/21/5 11/18/5
f 8/20/5 12/22/5 7/21/5
f 12/22/5 5/23/5 7/21/5
f 12/22/5 13/24/5 5/23/5
f 14/26/6 1/25/6 2/27/6
f 2/27/6 15/28/6 14/26/6
f 9/30/7 14/29/7 15/31/7
f 15/31/7 10/32/7 9/30/7
f 15/31/7 13/33/7 10/32/7
f 13/33/7 16/34/7 10/32/7
f 14/36/8 8/35/8 10/37/8
f 10/37/8 4/38/8 14/36/8
f 4/38/8 1/39/8 14/36/8
f 4/38/8 11/40/8 1/39/8
f 3/42/9 4/41/9 11/43/9
f 12/45/10 8/44/10 14/46/10
f 14/46/10 15/47/10 12/45/10
f 16/49/11 12/48/11 13/50/11
f 16/52/12 12/51/12 15/53/12
f 15/53/12 6/54/12 16/52/12
f 15/53/12 2/55/12 6/54/12
f 2/55/12 7/56/12 6/54/12
f 16/58/13 10/57/13 8/44/13
f 8/44/13 12/45/13 16/58/13
f 6/60/5 4/59/5 10/61/5
f 10/61/5 16/62/5 6/60/5
f 9/64/14 3/63/14 1/65/14
f 1/65/14 14/66/14 9/64/14
f 3/68/15 9/67/15 10/69/15
f 10/69/15 4/70/15 3/68/15
f 3/72/16 11/71/16 1/73/16
f 1/75/17 11/74/17 7/76/17
f 7/76/17 2/77/17 1/75/17
f 5/79/18 13/78/18 15/80/18
f 15/80/18 2/81/18 5/79/18
f 13/83/19 12/82/19 15/84/19
f 8/86/20 9/85/20 14/87/20
f 5/89/21 6/88/21 16/90/21
f 16/90/21 13/91/21 5/89/21
f 7/93/22 6/92/22 5/94/22
