mtllib pottedPlant.mtl
v -0.085788 0.243040 -0.049530
v -0.085788 0.243040 0.049530
v -0.067550 0.000000 -0.039000
v -0.067550 0.000000 0.039000
v -0.064549 0.243040 -0.037267
v -0.064549 0.218240 -0.037267
v -0.064549 0.243040 0.037267
v -0.064549 0.218240 0.037267
v 0.000000 0.218240 0.074535
v 0.000000 0.243040 0.074535
v -0.000000 0.218240 -0.074535
v -0.000000 0.243040 -0.074535
v 0.064549 0.218240 0.037267
v 0.064549 0.243040 0.037267
v 0.064549 0.243040 -0.037267
v 0.085788 0.243040 -0.049530
v -0.000000 0.243040 -0.099060
v 0.085788 0.243040 0.049530
v 0.000000 0.243040 0.099060
v 0.000000 0.000000 0.078000
v -0.000000 0.000000 -0.078000
v 0.067550 0.000000 -0.039000
v 0.064549 0.218240 -0.037267
v 0.067550 0.000000 0.039000
v 0.106030 0.654017 0.000000
v 0.000000 0.118240 0.000000
v 0.022843 0.352926 0.048989
v -0.059766 0.292081 0.026010
v 0.000000 0.515112 0.120731
v 0.059766 0.292081 -0.026010
v 0.000000 0.515112 -0.120731
v -0.022843 0.352926 -0.048989
v -0.106030 0.654017 0.000000
v -0.059766 0.292081 -0.026010
v -0.022843 0.352926 0.048989
v 0.022843 0.352926 -0.048989
v 0.059766 0.292081 0.026010
vn -0.997196 -0.074833 0.000000
vn 1.000000 0.000000 0.000000
vn 0.500000 0.000000 -0.866025
vn 0.500000 0.000000 0.866025
vn -0.500000 0.000000 -0.866025
vn 0.000000 1.000000 0.000000
vn -0.498598 -0.074833 0.863597
vn 0.498598 -0.074833 -0.863597
vn -1.000000 0.000000 0.000000
vn 0.000000 -1.000000 0.000000
vn -0.498598 -0.074833 -0.863597
vn -0.500000 0.000000 0.866025
vn 0.498598 -0.074833 0.863597
vn 0.997196 -0.074833 0.000000
vn 0.886914 -0.175519 0.427290
vn -0.886914 0.175519 -0.427290
vn -0.395170 -0.267350 0.878843
vn 0.395170 0.267350 -0.878843
vn 0.395170 -0.267350 -0.878843
vn -0.395170 0.267350 0.878843
vn -0.886914 -0.175519 -0.427290
vn 0.886914 0.175519 0.427290
vn -0.395170 -0.267350 -0.878843
vn 0.395170 0.267350 0.878843
vn -0.886914 -0.175519 0.427290
vn 0.886914 0.175519 -0.427290
vn 0.886914 -0.175519 -0.427290
vn -0.886914 0.175519 0.427290
vn 0.395170 -0.267350 0.878843
vn -0.395170 0.267350 -0.878843
usemtl wood
f 2/2/1 1/1/1 3/3/1
f 3/3/1 4/4/1 2/2/1
f 6/6/2 5/5/2 7/7/2
f 7/7/2 8/8/2 6/6/2
f 9/8/3 8/6/3 7/5/3
f 7/5/3 10/7/3 9/8/3
f 6/8/4 11/6/4 12/5/4
f 12/5/4 5/7/4 6/8/4
f 13/8/5 9/6/5 10/5/5
f 10/5/5 14/7/5 13/8/5
f 15/10/6 14/9/6 16/11/6
f 16/11/6 17/12/6 15/10/6
f 17/12/6 12/13/6 15/10/6
f 17/12/6 5/14/6 12/13/6
f 17/12/6 1/15/6 5/14/6
f 1/15/6 2/16/6 5/14/6
f 18/17/6 16/11/6 14/9/6
f 14/9/6 19/18/6 18/17/6
f 14/9/6 10/19/6 19/18/6
f 10/19/6 2/16/6 19/18/6
f 10/19/6 7/20/6 2/16/6
f 7/20/6 5/14/6 2/16/6
f 4/3/7 20/4/7 19/2/7
f 19/2/7 2/1/7 4/3/7
f 22/3/8 21/4/8 17/2/8
f 17/2/8 16/1/8 22/3/8
f 15/7/9 23/8/9 13/6/9
f 13/6/9 14/5/9 15/7/9
f 22/22/10 24/21/10 20/23/10
f 20/23/10 21/24/10 22/22/10
f 20/23/10 4/25/10 21/24/10
f 4/25/10 3/26/10 21/24/10
f 21/3/11 3/4/11 1/2/11
f 1/2/11 17/1/11 21/3/11
f 11/8/12 23/6/12 15/5/12
f 15/5/12 12/7/12 11/8/12
f 20/3/13 24/4/13 18/2/13
f 18/2/13 19/1/13 20/3/13
f 22/4/14 16/2/14 18/1/14
f 18/1/14 24/3/14 22/4/14
f 2/2/1 1/1/1 3/3/1
f 3/3/1 4/4/1 2/2/1
f 6/6/2 5/5/2 7/7/2
f 7/7/2 8/8/2 6/6/2
f 9/8/3 8/6/3 7/5/3
f 7/5/3 10/7/3 9/8/3
f 6/8/4 11/6/4 12/5/4
f 12/5/4 5/7/4 6/8/4
f 13/8/5 9/6/5 10/5/5
f 10/5/5 14/7/5 13/8/5
f 15/10/6 14/9/6 16/11/6
f 16/11/6 17/12/6 15/10/6
f 17/12/6 12/13/6 15/10/6
f 17/12/6 5/14/6 12/13/6
f 17/12/6 1/15/6 5/14/6
f 1/15/6 2/16/6 5/14/6
f 18/17/6 16/11/6 14/9/6
f 14/9/6 19/18/6 18/17/6
f 14/9/6 10/19/6 19/18/6
f 10/19/6 2/16/6 19/18/6
f 10/19/6 7/20/6 2/16/6
f 7/20/6 5/14/6 2/16/6
f 4/3/7 20/4/7 19/2/7
f 19/2/7 2/1/7 4/3/7
f 22/3/8 21/4/8 17/2/8
f 17/2/8 16/1/8 22/3/8
f 15/7/9 23/8/9 13/6/9
f 13/6/9 14/5/9 15/7/9
f 22/22/10 24/21/10 20/23/10
f 20/23/10 21/24/10 22/22/10
f 20/23/10 4/25/10 21/24/10
f 4/25/10 3/26/10 21/24/10
f 21/3/11 3/4/11 1/2/11
f 1/2/11 17/1/11 21/3/11
f 11/8/12 23/6/12 15/5/12
f 15/5/12 12/7/12 11/8/12
f 20/3/13 24/4/13 18/2/13
f 18/2/13 19/1/13 20/3/13
f 22/4/14 16/2/14 18/1/14
f 18/1/14 24/3/14 22/4/14
usemtl woodDark
f 9/19/6 13/9/6 23/10/6
f 23/10/6 11/13/6 9/19/6
f 11/13/6 8/20/6 9/19/6
f 11/13/6 6/14/6 8/20/6
f 9/19/6 13/9/6 23/10/6
f 23/10/6 11/13/6 9/19/6
f 11/13/6 8/20/6 9/19/6
f 11/13/6 6/14/6 8/20/6
usemtl plant
f 26/28/15 25/27/15 27/29/15
f 26/28/16 27/29/16 25/27/16
f 28/31/17 26/30/17 29/32/17
f 28/31/18 29/32/18 26/30/18
f 30/34/19 26/33/19 31/35/19
f 30/34/20 31/35/20 26/33/20
f 32/37/21 26/36/21 33/38/21
f 32/37/22 33/38/22 26/36/22
f 26/40/23 34/39/23 31/41/23
f 26/40/24 31/41/24 34/39/24
f 33/43/25 26/42/25 35/44/25
f 33/43/26 35/44/26 26/42/26
f 36/46/27 25/45/27 26/47/27
f 36/46/28 26/47/28 25/45/28
f 26/49/29 37/48/29 29/50/29
f 26/49/30 29/50/30 37/48/30
