mtllib campfire_stones.mtl
v -0.189797 0.000000 -0.172668
v -0.136588 0.063134 -0.159082
v -0.188264 0.000000 -0.167444
v -0.148972 0.032019 -0.118613
v -0.129467 0.063134 -0.134812
v -0.149472 0.027419 -0.108094
v -0.080732 0.077751 0.181366
v -0.086246 0.077751 0.207852
v -0.122726 0.077751 0.165161
v -0.124333 0.077751 0.213177
v -0.139367 0.077751 0.179251
v -0.156477 0.000000 -0.031288
v -0.179636 0.000000 -0.031288
v -0.187192 0.077751 -0.072004
v -0.206317 0.024857 -0.044305
v -0.245039 0.024857 -0.044305
v -0.224300 0.077751 -0.072004
v -0.108844 0.000000 0.125411
v -0.109901 0.000000 0.126468
v -0.153606 0.049878 0.119008
v -0.128920 0.016607 0.128451
v -0.175683 0.020796 0.170917
v -0.179733 0.049878 0.145135
v -0.177387 0.000000 0.193953
v -0.182194 0.000000 0.198761
v 0.084238 0.007178 -0.191961
v 0.080069 0.010805 -0.190001
v 0.045805 0.049878 -0.187337
v 0.044197 0.006536 -0.121674
v 0.027331 0.049878 -0.155338
v 0.038833 0.000000 -0.102903
v 0.040666 0.000000 -0.106077
v 0.095472 0.000000 0.053516
v 0.117109 0.049878 0.093802
v 0.063329 0.000000 0.125524
v 0.097914 0.049878 0.136805
v 0.067492 0.019038 0.150079
v -0.133404 0.000000 0.080589
v -0.158512 0.049878 0.110055
v 0.138759 0.049878 0.140358
v 0.132892 0.049878 0.148713
v 0.133684 0.049878 0.096566
v -0.276308 0.000000 -0.104638
v -0.230439 0.077751 -0.092926
v -0.259751 0.000000 -0.048210
v -0.248259 0.020285 -0.046775
v -0.074169 0.063134 -0.177707
v -0.086421 0.063134 -0.134812
v -0.099667 0.063134 -0.196003
v 0.062986 0.071883 0.194440
v 0.057046 0.071883 0.204728
v 0.035931 0.071883 0.154348
v -0.002110 0.071883 0.212096
v 0.028283 0.071883 0.149932
v -0.015145 0.071883 0.191705
v -0.020716 0.071883 0.201353
v 0.022409 0.000000 0.101699
v 0.063108 0.000000 0.125197
v 0.187366 0.000000 -0.122489
v 0.187366 0.000000 -0.062214
v 0.148532 0.071883 -0.109458
v 0.148532 0.071883 -0.087973
v 0.181275 0.011274 -0.055230
v -0.033679 0.016267 -0.191806
v -0.039656 0.017330 -0.173776
v -0.032096 0.000000 -0.153039
v -0.050792 0.000000 -0.087582
v 0.120790 0.000000 0.057737
v 0.159277 0.010966 0.072218
v 0.199465 0.077751 0.013747
v 0.173226 0.077751 0.039986
v 0.180786 0.077751 -0.019869
v 0.154091 0.077751 -0.015479
v 0.154091 0.077751 0.029533
v 0.087734 0.000000 -0.195839
v 0.131893 0.000000 -0.195839
v 0.112573 0.071883 -0.157005
v 0.100693 0.071883 -0.157005
v 0.113375 0.000000 -0.050046
v 0.113375 0.000000 0.053686
v -0.029437 0.000000 -0.236485
v -0.005194 0.049878 -0.198243
v -0.039157 0.000000 -0.210716
v -0.011125 0.049878 -0.182520
v -0.104710 0.000000 -0.257754
v -0.202958 0.000000 -0.177988
v -0.198610 0.077751 -0.124755
v -0.176630 0.077751 -0.108982
v -0.140398 0.000000 -0.087582
v 0.132179 0.003735 -0.051157
v 0.137390 0.071883 -0.087973
v -0.209844 0.049878 0.108926
v -0.255544 0.000000 0.110554
v -0.149114 0.000000 0.257754
v -0.144163 0.000000 0.076759
v -0.150063 0.010920 0.083067
v -0.197809 0.023889 0.076061
v -0.206965 0.024349 0.073157
v -0.200046 0.049878 0.095274
v -0.010242 0.000000 0.252243
v -0.049215 0.000000 0.229741
v -0.057287 0.022327 0.211153
v -0.041972 0.009440 0.170702
v -0.033846 0.000035 0.155835
v -0.052227 0.000000 0.244207
v -0.218956 0.071883 -0.018899
v -0.144163 0.000000 0.015616
v -0.182998 0.071883 0.028648
v 0.168635 0.000000 0.083874
v 0.176284 0.000000 0.149877
v 0.249974 0.000000 0.020819
v 0.180460 0.000000 0.090333
v -0.233111 0.000000 0.079296
v -0.290863 0.000000 0.015616
v -0.252029 0.071883 0.024577
v -0.290863 0.000000 0.062612
v -0.252029 0.071883 0.033408
v -0.230836 0.071883 -0.018899
v -0.194139 0.071883 0.050132
v 0.108754 0.000000 0.192836
v 0.096381 0.000000 0.174501
v 0.081018 0.000000 0.240877
v -0.033850 0.000000 0.155814
v 0.055376 0.000000 -0.229677
v 0.040666 0.000000 -0.075494
v 0.123174 0.000000 -0.051658
v 0.146910 0.000000 0.191703
v 0.202457 0.000000 -0.064696
v -0.182998 0.071883 0.050132
v 0.079500 0.071883 -0.113528
v 0.079500 0.071883 -0.104697
v 0.038749 0.049878 -0.194716
vn -0.768334 0.599028 0.225453
vn 0.000000 1.000000 0.000000
vn 0.000000 0.463912 0.885881
vn 0.572385 0.587155 0.572385
vn 0.701026 0.587155 0.404737
vn -0.739180 0.587155 -0.329943
vn 0.709893 0.587155 -0.388974
vn -0.850042 0.463912 0.249428
vn 0.439908 0.475315 -0.761942
vn 0.879816 0.475315 0.000000
vn 0.769936 0.599028 0.219917
vn 0.133132 0.587155 -0.798451
vn 0.000000 0.475315 -0.879816
vn -0.885881 0.463912 0.000000
vn -0.757386 0.587155 -0.285684
vn 0.466818 0.599028 -0.650574
vn -0.626413 0.463912 -0.626413
vn 0.851815 0.463912 0.243304
vn 0.000000 0.475315 0.879816
vn -0.622396 0.587155 0.517564
vn 0.516462 0.463912 -0.719759
vn -0.809920 0.463912 0.358907
vn 0.271401 0.587155 -0.762621
vn -0.439908 0.475315 0.761943
vn -0.761943 0.475315 -0.439908
vn 0.867283 0.463912 0.180573
vn 0.701734 0.475315 -0.530702
vn 0.804093 0.587155 -0.093185
vn 0.626413 0.463912 0.626413
vn -0.657638 0.587155 -0.471975
vn -0.879816 0.475315 0.000000
vn -0.790860 0.475315 -0.385508
vn 0.000000 0.475315 -0.879816
vn -0.244185 0.475315 0.845251
vn -0.572428 0.463912 -0.676100
vn -0.424698 0.463912 0.777443
vn 0.000000 -1.000000 0.000000
vn -0.260866 0.587155 0.766289
vn -0.609916 0.475315 -0.634096
vn 0.774366 0.463912 -0.430282
vn 0.318915 0.463912 -0.826486
vn 0.122664 0.463912 0.877348
vn -0.566200 0.599028 -0.566200
vn 0.662432 0.587155 0.465224
vn -0.879816 0.475315 0.000000
vn 0.585031 0.587155 -0.559453
vn 0.879816 0.475315 0.000000
vn 0.000000 0.599028 0.800728
vn -0.143753 0.463912 -0.874140
vn -0.244185 0.475315 0.845251
vn 0.108735 0.475315 0.873071
vn -0.790860 0.475315 -0.385508
vn -0.467234 0.587155 0.661016
vn 0.729290 0.475315 -0.492150
vn 0.761943 0.475315 0.439908
vn 0.064772 0.587155 -0.806879
vn 0.701734 0.475315 -0.530702
usemtl stone
f 3/3/1 2/2/1 1/1/1
f 2/2/1 3/3/1 4/4/1
f 2/2/1 4/4/1 5/5/1
f 5/5/1 4/4/1 6/6/1
f 9/9/2 8/8/2 7/7/2
f 8/8/2 9/9/2 10/10/2
f 10/10/2 9/9/2 11/11/2
f 14/14/3 13/13/3 12/12/3
f 13/13/3 14/14/3 15/15/3
f 15/15/3 14/14/3 16/16/3
f 16/16/3 14/14/3 17/17/3
f 20/20/4 19/19/4 18/18/4
f 19/19/4 20/20/4 21/21/4
f 21/21/4 20/20/4 22/22/4
f 22/22/4 20/20/4 23/23/4
f 22/22/4 23/23/4 24/24/4
f 24/24/4 23/23/4 25/25/4
f 28/28/5 27/27/5 26/26/5
f 27/27/5 28/28/5 29/29/5
f 29/29/5 28/28/5 30/30/5
f 29/29/5 30/30/5 31/31/5
f 29/29/5 31/31/5 32/32/5
f 35/35/6 34/34/6 33/33/6
f 34/34/6 35/35/6 36/36/6
f 36/36/6 35/35/6 37/37/6
f 39/40/7 18/39/7 38/38/7
f 18/39/7 39/40/7 20/41/7
f 42/44/2 41/43/2 40/42/2
f 41/43/2 42/44/2 34/45/2
f 41/43/2 34/45/2 36/46/2
f 45/49/8 44/48/8 43/47/8
f 44/48/8 45/49/8 17/50/8
f 17/50/8 45/49/8 46/51/8
f 17/50/8 46/51/8 16/52/8
f 49/55/2 48/54/2 47/53/2
f 48/54/2 49/55/2 5/56/2
f 5/56/2 49/55/2 2/57/2
f 52/60/2 51/59/2 50/58/2
f 51/59/2 52/60/2 53/61/2
f 53/61/2 52/60/2 54/62/2
f 53/61/2 54/62/2 55/63/2
f 53/61/2 55/63/2 56/64/2
f 54/67/9 58/66/9 57/65/9
f 58/66/9 54/67/9 52/68/9
f 61/71/10 60/70/10 59/69/10
f 60/70/10 61/71/10 62/72/10
f 60/70/10 62/72/10 63/73/10
f 47/76/11 65/75/11 64/74/11
f 65/75/11 47/76/11 48/77/11
f 65/75/11 48/77/11 66/78/11
f 66/78/11 48/77/11 67/79/11
f 34/82/12 68/81/12 33/80/12
f 68/81/12 34/82/12 69/83/12
f 69/83/12 34/82/12 42/84/12
f 72/87/2 71/86/2 70/85/2
f 71/86/2 72/87/2 73/88/2
f 71/86/2 73/88/2 74/89/2
f 26/92/13 76/91/13 75/90/13
f 76/91/13 26/92/13 77/93/13
f 77/93/13 26/92/13 27/94/13
f 77/93/13 27/94/13 78/95/13
f 80/98/14 73/97/14 79/96/14
f 73/97/14 80/98/14 74/99/14
f 83/102/15 82/101/15 81/100/15
f 82/101/15 83/102/15 64/103/15
f 82/101/15 64/103/15 84/104/15
f 84/104/15 64/103/15 65/105/15
f 49/108/16 83/107/16 85/106/16
f 83/107/16 49/108/16 64/109/16
f 64/109/16 49/108/16 47/110/16
f 44/113/17 86/112/17 43/111/17
f 86/112/17 44/113/17 87/114/17
f 88/117/18 6/116/18 4/115/18
f 6/116/18 88/117/18 14/118/18
f 6/116/18 14/118/18 89/119/18
f 89/119/18 14/118/18 12/120/18
f 63/123/19 91/122/19 90/121/19
f 91/122/19 63/123/19 62/124/19
f 93/127/20 23/126/20 92/125/20
f 23/126/20 93/127/20 25/128/20
f 87/131/21 3/130/21 86/129/21
f 3/130/21 87/131/21 4/132/21
f 4/132/21 87/131/21 88/133/21
f 24/136/22 11/135/22 22/134/22
f 11/135/22 24/136/22 10/137/22
f 10/137/22 24/136/22 94/138/22
f 96/141/23 38/140/23 95/139/23
f 38/140/23 96/141/23 39/142/23
f 39/142/23 96/141/23 97/143/23
f 39/142/23 97/143/23 98/144/23
f 39/142/23 98/144/23 99/145/23
f 53/148/24 101/147/24 100/146/24
f 101/147/24 53/148/24 102/149/24
f 102/149/24 53/148/24 56/150/24
f 102/153/25 55/152/25 103/151/25
f 55/152/25 102/153/25 56/154/25
f 7/157/26 103/156/26 104/155/26
f 103/156/26 7/157/26 102/158/26
f 102/158/26 7/157/26 8/159/26
f 102/158/26 8/159/26 105/160/26
f 102/158/26 105/160/26 101/161/26
f 106/164/27 13/163/27 15/162/27
f 13/163/27 106/164/27 107/165/27
f 107/165/27 106/164/27 108/166/27
f 42/169/28 109/168/28 69/167/28
f 109/168/28 42/169/28 110/170/28
f 110/170/28 42/169/28 40/171/28
f 71/174/29 111/173/29 70/172/29
f 111/173/29 71/174/29 112/175/29
f 113/178/30 99/177/30 98/176/30
f 99/177/30 113/178/30 93/179/30
f 99/177/30 93/179/30 92/180/30
f 116/183/31 115/182/31 114/181/31
f 115/182/31 116/183/31 117/184/31
f 114/187/32 46/186/32 45/185/32
f 46/186/32 114/187/32 118/188/32
f 118/188/32 114/187/32 115/189/32
f 118/192/33 16/191/33 46/190/33
f 16/191/33 118/192/33 15/193/33
f 15/193/33 118/192/33 106/194/33
f 119/197/34 98/196/34 97/195/34
f 117/198/34 98/196/34 119/197/34
f 116/199/34 98/196/34 117/198/34
f 98/196/34 116/199/34 113/200/34
f 22/203/35 9/202/35 21/201/35
f 9/202/35 22/203/35 11/204/35
f 71/207/36 109/206/36 112/205/36
f 109/206/36 71/207/36 69/208/36
f 74/209/36 69/208/36 71/207/36
f 80/210/36 69/208/36 74/209/36
f 69/208/36 80/210/36 68/211/36
f 122/214/37 121/213/37 120/212/37
f 121/213/37 122/214/37 33/215/37
f 33/215/37 122/214/37 35/216/37
f 35/216/37 122/214/37 100/217/37
f 35/216/37 100/217/37 58/218/37
f 58/218/37 100/217/37 57/219/37
f 57/219/37 100/217/37 123/220/37
f 123/220/37 100/217/37 101/221/37
f 123/220/37 101/221/37 19/222/37
f 19/222/37 101/221/37 105/223/37
f 19/222/37 105/223/37 94/224/37
f 19/222/37 94/224/37 38/225/37
f 38/225/37 94/224/37 95/226/37
f 95/226/37 94/224/37 107/227/37
f 107/227/37 94/224/37 13/228/37
f 13/228/37 94/224/37 24/229/37
f 13/228/37 24/229/37 25/230/37
f 3/231/37 13/228/37 25/230/37
f 25/230/37 113/232/37 3/231/37
f 113/232/37 25/230/37 93/233/37
f 3/231/37 113/232/37 86/234/37
f 45/235/37 86/234/37 113/232/37
f 116/236/37 45/235/37 113/232/37
f 45/235/37 116/236/37 114/237/37
f 86/234/37 45/235/37 43/238/37
f 3/231/37 12/239/37 13/228/37
f 3/231/37 89/240/37 12/239/37
f 1/241/37 89/240/37 3/231/37
f 85/242/37 89/240/37 1/241/37
f 85/242/37 67/243/37 89/240/37
f 83/244/37 67/243/37 85/242/37
f 83/244/37 66/245/37 67/243/37
f 81/246/37 66/245/37 83/244/37
f 81/246/37 31/247/37 66/245/37
f 81/246/37 32/248/37 31/247/37
f 124/249/37 32/248/37 81/246/37
f 124/249/37 125/250/37 32/248/37
f 75/251/37 125/250/37 124/249/37
f 75/251/37 126/252/37 125/250/37
f 126/252/37 75/251/37 76/253/37
f 76/253/37 68/254/37 126/252/37
f 76/253/37 127/255/37 68/254/37
f 76/253/37 109/256/37 127/255/37
f 76/253/37 112/257/37 109/256/37
f 59/258/37 112/257/37 76/253/37
f 60/259/37 112/257/37 59/258/37
f 128/260/37 112/257/37 60/259/37
f 112/257/37 128/260/37 111/261/37
f 68/254/37 127/255/37 121/213/37
f 68/254/37 121/213/37 33/215/37
f 68/254/37 79/262/37 126/252/37
f 79/262/37 68/254/37 80/263/37
f 127/255/37 109/256/37 110/264/37
f 38/225/37 18/265/37 19/222/37
f 41/268/38 121/267/38 127/266/38
f 121/267/38 41/268/38 37/269/38
f 37/269/38 41/268/38 36/270/38
f 129/273/19 97/272/19 96/271/19
f 97/272/19 129/273/19 119/274/19
f 104/277/39 57/276/39 123/275/39
f 57/276/39 104/277/39 54/278/39
f 54/278/39 104/277/39 103/279/39
f 54/278/39 103/279/39 55/280/39
f 106/283/2 129/282/2 108/281/2
f 129/282/2 106/283/2 119/284/2
f 119/284/2 106/283/2 117/285/2
f 117/285/2 106/283/2 118/286/2
f 117/285/2 118/286/2 115/287/2
f 72/290/40 111/289/40 128/288/40
f 111/289/40 72/290/40 70/291/40
f 21/294/41 123/293/41 19/292/41
f 123/293/41 21/294/41 104/295/41
f 104/295/41 21/294/41 7/296/41
f 7/296/41 21/294/41 9/297/41
f 8/300/42 94/299/42 105/298/42
f 94/299/42 8/300/42 10/301/42
f 85/304/43 2/303/43 49/302/43
f 2/303/43 85/304/43 1/305/43
f 39/308/2 23/307/2 20/306/2
f 23/307/2 39/308/2 99/309/2
f 23/307/2 99/309/2 92/310/2
f 41/313/44 110/312/44 40/311/44
f 110/312/44 41/313/44 127/314/44
f 87/317/2 14/316/2 88/315/2
f 14/316/2 87/317/2 17/318/2
f 17/318/2 87/317/2 44/319/2
f 32/322/45 130/321/45 29/320/45
f 130/321/45 32/322/45 131/323/45
f 131/323/45 32/322/45 125/324/45
f 124/327/46 26/326/46 75/325/46
f 26/326/46 124/327/46 28/328/46
f 28/328/46 124/327/46 132/329/46
f 108/332/47 95/331/47 107/330/47
f 95/331/47 108/332/47 129/333/47
f 95/331/47 129/333/47 96/334/47
f 48/337/48 89/336/48 67/335/48
f 89/336/48 48/337/48 6/338/48
f 6/338/48 48/337/48 5/339/48
f 73/342/49 126/341/49 79/340/49
f 126/341/49 73/342/49 90/343/49
f 90/343/49 73/342/49 63/344/49
f 72/345/49 63/344/49 73/342/49
f 128/346/49 63/344/49 72/345/49
f 63/344/49 128/346/49 60/347/49
f 77/350/2 62/349/2 61/348/2
f 62/349/2 77/350/2 91/351/2
f 91/351/2 77/350/2 131/352/2
f 131/352/2 77/350/2 78/353/2
f 131/352/2 78/353/2 130/354/2
f 90/357/50 125/356/50 126/355/50
f 125/356/50 90/357/50 131/358/50
f 131/358/50 90/357/50 91/359/50
f 51/362/51 100/361/51 122/360/51
f 100/361/51 51/362/51 53/363/51
f 29/366/52 78/365/52 27/364/52
f 78/365/52 29/366/52 130/367/52
f 30/370/53 66/369/53 31/368/53
f 66/369/53 30/370/53 65/371/53
f 65/371/53 30/370/53 84/372/53
f 52/375/54 35/374/54 58/373/54
f 35/374/54 52/375/54 37/376/54
f 37/376/54 52/375/54 121/377/54
f 121/377/54 52/375/54 50/378/54
f 121/377/54 50/378/54 120/379/54
f 50/382/55 122/381/55 120/380/55
f 122/381/55 50/382/55 51/383/55
f 82/386/56 124/385/56 81/384/56
f 124/385/56 82/386/56 132/387/56
f 77/390/57 59/389/57 76/388/57
f 59/389/57 77/390/57 61/391/57
f 132/394/2 30/393/2 28/392/2
f 30/393/2 132/394/2 82/395/2
f 30/393/2 82/395/2 84/396/2
