mtllib riverStraight.mtl
v 0.341000 0.000000 0.125000
v 0.279000 -0.050000 0.125000
v 0.341000 0.000000 -0.125000
v 0.279000 -0.050000 -0.125000
v 0.279000 0.000000 -0.375000
v 0.217000 -0.050000 -0.375000
v 0.279000 0.000000 -0.500000
v 0.217000 -0.050000 -0.500000
v 0.279000 0.000000 0.375000
v 0.217000 -0.050000 0.375000
v -0.155000 -0.050000 -0.125000
v -0.217000 0.000000 -0.125000
v -0.217000 -0.050000 -0.375000
v -0.279000 0.000000 -0.375000
v -0.217000 -0.050000 0.500000
v -0.279000 0.000000 0.500000
v -0.217000 -0.050000 0.375000
v -0.279000 0.000000 0.375000
v 0.279000 0.000000 0.500000
v 0.217000 -0.050000 0.500000
v -0.155000 -0.050000 0.125000
v -0.217000 0.000000 0.125000
v -0.217000 -0.050000 -0.500000
v -0.279000 0.000000 -0.500000
v -0.317000 0.000000 0.125000
v -0.379000 0.000000 0.375000
v -0.317000 0.000000 -0.125000
v -0.379000 0.000000 -0.375000
v -0.379000 0.000000 -0.500000
v -0.379000 0.000000 0.500000
v -0.500000 0.000000 0.500000
v -0.500000 0.000000 -0.500000
v 0.500000 0.000000 0.500000
v 0.441000 0.000000 -0.125000
v 0.500000 0.000000 -0.500000
v 0.379000 0.000000 -0.500000
v 0.441000 0.000000 0.125000
v 0.379000 0.000000 -0.375000
v 0.379000 0.000000 0.500000
v 0.379000 0.000000 0.375000
vn -0.627752 0.778413 0.000000
vn -0.620281 0.769148 0.153830
vn -0.620281 0.769148 -0.153830
vn 0.620281 0.769148 -0.153830
vn 0.627752 0.778413 0.000000
vn 0.620281 0.769148 0.153830
vn 0.000000 1.000000 0.000000
usemtl dirtDark
f 3/3/1 2/2/1 1/1/1
f 2/2/1 3/3/1 4/4/1
f 5/7/2 4/6/2 3/5/2
f 4/6/2 5/7/2 6/8/2
f 7/11/1 6/10/1 5/9/1
f 6/10/1 7/11/1 8/12/1
f 2/15/3 9/14/3 1/13/3
f 9/14/3 2/15/3 10/16/3
f 13/19/4 12/18/4 11/17/4
f 12/18/4 13/19/4 14/20/4
f 17/10/5 16/11/5 15/12/5
f 16/11/5 17/10/5 18/9/5
f 10/23/1 19/22/1 9/21/1
f 19/22/1 10/23/1 20/24/1
f 11/27/5 22/26/5 21/25/5
f 22/26/5 11/27/5 12/28/5
f 23/24/5 14/21/5 13/23/5
f 14/21/5 23/24/5 24/22/5
f 22/31/6 17/30/6 21/29/6
f 17/30/6 22/31/6 18/32/6
usemtl grass
f 27/35/7 26/34/7 25/33/7
f 26/34/7 27/35/7 28/36/7
f 26/34/7 28/36/7 29/37/7
f 26/34/7 29/37/7 30/38/7
f 30/38/7 29/37/7 31/39/7
f 31/39/7 29/37/7 32/40/7
f 35/43/7 34/42/7 33/41/7
f 34/42/7 35/43/7 36/44/7
f 33/41/7 34/42/7 37/45/7
f 34/42/7 36/44/7 38/46/7
f 37/45/7 39/47/7 33/41/7
f 39/47/7 37/45/7 40/48/7
usemtl water
f 8/51/7 11/50/7 21/49/7
f 11/50/7 8/51/7 23/52/7
f 11/50/7 23/52/7 13/53/7
f 15/54/7 8/51/7 21/49/7
f 20/55/7 8/51/7 15/54/7
f 10/56/7 8/51/7 20/55/7
f 10/56/7 6/57/7 8/51/7
f 10/56/7 4/58/7 6/57/7
f 4/58/7 10/56/7 2/59/7
f 15/54/7 21/49/7 17/60/7
usemtl dirt
f 24/61/7 27/35/7 25/33/7
f 27/35/7 24/61/7 29/37/7
f 27/35/7 29/37/7 28/36/7
f 16/62/7 24/61/7 25/33/7
f 18/63/7 24/61/7 16/62/7
f 18/63/7 14/64/7 24/61/7
f 18/63/7 12/65/7 14/64/7
f 12/65/7 18/63/7 22/66/7
f 16/62/7 25/33/7 30/38/7
f 30/38/7 25/33/7 26/34/7
f 36/44/7 3/68/7 1/67/7
f 3/68/7 36/44/7 7/69/7
f 3/68/7 7/69/7 5/70/7
f 39/47/7 36/44/7 1/67/7
f 40/48/7 36/44/7 39/47/7
f 40/48/7 38/46/7 36/44/7
f 40/48/7 34/42/7 38/46/7
f 34/42/7 40/48/7 37/45/7
f 39/47/7 1/67/7 19/71/7
f 19/71/7 1/67/7 9/72/7
