mtllib stump.mtl
v 0.160648 0.000000 -0.092750
v 0.160648 0.000000 0.092750
v 0.118879 0.073500 -0.068635
v 0.118879 0.073500 0.068635
v -0.160648 0.000000 -0.092750
v -0.118879 0.073500 -0.068635
v -0.160648 0.000000 0.092750
v -0.118879 0.073500 0.068635
v -0.118879 0.206500 -0.068635
v -0.118879 0.206500 0.068635
v 0.000000 0.000000 -0.185500
v 0.000000 0.073500 -0.137270
v 0.000000 0.073500 0.137270
v 0.118879 0.206500 0.068635
v 0.000000 0.206500 0.137270
v 0.000000 0.000000 0.185500
v 0.000000 0.206500 -0.137270
v 0.118879 0.206500 -0.068635
v 0.093135 0.206500 -0.053771
v 0.000000 0.206500 -0.107543
v -0.093135 0.206500 -0.053771
v -0.093135 0.206500 0.053771
v 0.093135 0.206500 0.053771
v 0.000000 0.206500 0.107543
v 0.067734 0.178500 -0.039106
v 0.067734 0.178500 0.039106
v 0.000000 0.178500 -0.078213
v 0.000000 0.178500 0.078213
v -0.067734 0.178500 -0.039106
v -0.067734 0.178500 0.039106
vn 0.869421 0.494072 0.000000
vn -0.869421 0.494072 0.000000
vn -1.000000 0.000000 0.000000
vn 0.434710 0.494072 -0.752940
vn 0.500000 0.000000 0.866025
vn 0.434710 0.494072 0.752940
vn -0.434710 0.494072 -0.752940
vn 0.500000 0.000000 -0.866025
vn -0.500000 0.000000 0.866025
vn -0.500000 0.000000 -0.866025
vn -0.434710 0.494072 0.752940
vn 0.000000 -1.000000 0.000000
vn 1.000000 0.000000 0.000000
vn 0.000000 1.000000 0.000000
vn -0.370327 0.671888 0.641424
vn -0.740653 0.671888 0.000000
vn 0.370327 0.671888 -0.641424
vn -0.370327 0.671888 -0.641424
vn 0.740653 0.671888 0.000000
vn 0.370327 0.671888 0.641424
usemtl woodBark
f 3/3/1 2/2/1 1/1/1
f 2/2/1 3/3/1 4/4/1
f 7/1/2 6/4/2 5/2/2
f 6/4/2 7/1/2 8/3/2
f 8/7/3 9/6/3 6/5/3
f 9/6/3 8/7/3 10/8/3
f 12/11/4 1/10/4 11/9/4
f 1/10/4 12/11/4 3/12/4
f 14/15/5 13/14/5 4/13/5
f 13/14/5 14/15/5 15/16/5
f 4/19/6 16/18/6 2/17/6
f 16/18/6 4/19/6 13/20/6
f 6/19/7 11/18/7 5/17/7
f 11/18/7 6/19/7 12/20/7
f 17/23/8 3/22/8 12/21/8
f 3/22/8 17/23/8 18/24/8
f 15/23/9 8/22/9 13/21/9
f 8/22/9 15/23/9 10/24/9
f 9/15/10 12/14/10 6/13/10
f 12/14/10 9/15/10 17/16/10
f 13/11/11 7/10/11 16/9/11
f 7/10/11 13/11/11 8/12/11
f 16/27/12 1/26/12 2/25/12
f 1/26/12 16/27/12 11/28/12
f 11/28/12 16/27/12 7/29/12
f 11/28/12 7/29/12 5/30/12
f 14/6/13 3/7/13 18/8/13
f 3/7/13 14/6/13 4/5/13
f 18/33/14 19/32/14 14/31/14
f 19/32/14 18/33/14 17/34/14
f 19/32/14 17/34/14 20/35/14
f 20/35/14 17/34/14 21/36/14
f 21/36/14 17/34/14 9/37/14
f 21/36/14 9/37/14 22/38/14
f 23/39/14 14/31/14 19/32/14
f 14/31/14 23/39/14 15/40/14
f 15/40/14 23/39/14 24/41/14
f 15/40/14 24/41/14 22/38/14
f 15/40/14 22/38/14 10/42/14
f 10/42/14 22/38/14 9/37/14
usemtl woodInner
f 27/45/14 26/44/14 25/43/14
f 26/44/14 27/45/14 28/46/14
f 28/46/14 27/45/14 29/47/14
f 28/46/14 29/47/14 30/48/14
f 20/51/15 25/50/15 19/49/15
f 25/50/15 20/51/15 27/52/15
f 25/55/16 23/54/16 19/53/16
f 23/54/16 25/55/16 26/56/16
f 28/52/17 22/49/17 24/51/17
f 22/49/17 28/52/17 30/50/17
f 26/59/18 24/58/18 23/57/18
f 24/58/18 26/59/18 28/60/18
f 22/53/19 29/56/19 21/54/19
f 29/56/19 22/53/19 30/55/19
f 21/57/20 27/60/20 20/58/20
f 27/60/20 21/57/20 29/59/20
