mtllib tree_palm.mtl
v 0.031000 0.000000 0.031000
v -0.031000 0.000000 0.031000
v 0.053816 0.060360 0.053816
v -0.053816 0.060360 0.053816
v 0.053816 0.060360 -0.053816
v 0.031000 0.000000 -0.031000
v -0.031000 0.000000 -0.031000
v 0.017794 1.434680 -0.017794
v 0.017794 1.434680 0.017794
v -0.053816 0.060360 -0.053816
v -0.017794 1.434680 -0.017794
v -0.017794 1.434680 0.017794
v 0.391960 1.414189 0.132717
v 0.310917 1.414189 0.273089
v 0.267738 1.488703 0.060997
v 0.186694 1.488703 0.201369
v -0.000000 1.434680 -0.050000
v 0.028868 1.434680 -0.050000
v -0.028868 1.434680 -0.050000
v -0.028868 1.434680 0.050000
v -0.043301 1.434680 0.025000
v -0.043301 1.434680 -0.025000
v -0.057735 1.434680 -0.000000
v 0.028868 1.434680 0.050000
v 0.043301 1.434680 -0.025000
v 0.043301 1.434680 0.025000
v 0.057735 1.434680 -0.000000
v -0.000000 1.434680 0.050000
v 0.145128 1.488703 -0.009792
v 0.064084 1.488703 0.130580
v 0.073693 1.434680 -0.027639
v 0.012910 1.434680 0.077639
v -0.058411 1.269183 -0.506382
v 0.038842 1.269183 -0.506382
v -0.081044 1.414189 -0.405806
v 0.081044 1.414189 -0.405806
v 0.081044 1.488703 -0.262366
v -0.081044 1.488703 -0.262366
v -0.186694 1.514591 -0.201369
v -0.267738 1.514591 -0.060997
v -0.310917 1.454369 -0.273089
v -0.391960 1.454369 -0.132717
v 0.081044 1.488703 -0.120789
v 0.060783 1.434680 -0.050000
v -0.081044 1.488703 -0.120789
v -0.060783 1.434680 -0.050000
v 0.267738 1.514591 -0.060997
v 0.145128 1.514591 0.009792
v 0.186694 1.514591 -0.201369
v 0.064084 1.514591 -0.130580
v 0.081044 1.454369 0.405806
v -0.081044 1.454369 0.405806
v 0.081044 1.514591 0.262366
v -0.081044 1.514591 0.262366
v 0.391960 1.454369 -0.132717
v 0.310917 1.454369 -0.273089
v -0.064084 1.514591 -0.130580
v -0.145128 1.514591 0.009792
v 0.058411 1.289876 0.506382
v -0.038842 1.289876 0.506382
v 0.111831 1.477344 0.018111
v 0.040231 1.477344 -0.105904
v 0.467745 1.269183 0.202606
v 0.419119 1.269183 0.286829
v -0.071600 1.477344 0.087793
v 0.071600 1.477344 0.087794
v -0.081044 1.514591 0.120789
v 0.081044 1.514591 0.120789
v -0.012910 1.434680 0.077639
v -0.064084 1.488703 0.130580
v -0.073693 1.434680 -0.027639
v -0.145128 1.488703 -0.009792
v -0.186694 1.488703 0.201369
v -0.310917 1.414189 0.273089
v -0.267738 1.488703 0.060997
v -0.391960 1.414189 0.132717
v -0.457960 1.269183 0.219553
v -0.409334 1.269183 0.303776
v -0.040231 1.477344 -0.105904
v -0.111831 1.477344 0.018111
v -0.419119 1.289876 -0.286829
v -0.467745 1.289876 -0.202606
v 0.409334 1.289876 -0.303776
v 0.457960 1.289876 -0.219553
vn 0.000000 -0.353581 0.935404
vn 0.935404 -0.353581 0.000000
vn 0.000000 -1.000000 0.000000
vn 0.999657 0.026202 0.000000
vn -0.999657 0.026202 0.000000
vn 0.000000 -0.353581 -0.935404
vn 0.000000 0.026202 0.999657
vn 0.000000 0.026202 -0.999657
vn -0.935404 -0.353581 0.000000
vn 0.399229 0.887405 0.230495
vn -0.399229 -0.887405 -0.230495
vn 0.000000 1.000000 0.000000
vn -0.525395 0.794951 -0.303337
vn 0.525395 -0.794951 0.303337
vn 0.000000 0.569925 -0.821697
vn 0.000000 -0.569925 0.821697
vn 0.000000 0.887405 -0.460990
vn 0.000000 -0.887405 0.460990
vn -0.335243 0.922035 -0.193553
vn 0.335243 -0.922035 0.193553
vn 0.000000 0.794951 0.606673
vn 0.000000 -0.794951 -0.606673
vn 0.000000 0.922035 0.387106
vn 0.000000 -0.922035 -0.387106
vn 0.335243 0.922035 -0.193553
vn -0.335243 -0.922035 0.193553
vn 0.000000 0.521647 0.853162
vn 0.000000 -0.521647 -0.853162
vn -0.648254 0.663091 0.374269
vn 0.648254 -0.663091 -0.374269
vn 0.711610 0.569925 0.410848
vn -0.711610 -0.569925 -0.410848
vn 0.000000 0.663091 -0.748539
vn 0.000000 -0.663091 0.748539
vn 0.525395 0.794951 -0.303337
vn -0.525395 -0.794951 0.303337
vn -0.399229 0.887405 0.230495
vn 0.399229 -0.887405 -0.230495
vn -0.711610 0.569925 0.410848
vn 0.711610 -0.569925 -0.410848
vn 0.648254 0.663091 0.374269
vn -0.648254 -0.663091 -0.374269
vn -0.738860 0.521647 -0.426581
vn 0.738860 -0.521647 0.426581
vn 0.738860 0.521647 -0.426581
vn -0.738860 -0.521647 0.426581
usemtl woodBark
f 3/3/1 2/2/1 1/1/1
f 2/2/1 3/3/1 4/4/1
f 3/4/2 6/1/2 5/3/2
f 6/1/2 3/4/2 1/2/2
f 2/7/3 6/6/3 1/5/3
f 6/6/3 2/7/3 7/8/3
f 8/11/4 3/10/4 5/9/4
f 3/10/4 8/11/4 9/12/4
f 4/9/5 11/12/5 10/10/5
f 11/12/5 4/9/5 12/11/5
f 10/3/6 6/2/6 7/1/6
f 6/2/6 10/3/6 5/4/6
f 9/11/7 4/10/7 3/9/7
f 4/10/7 9/11/7 12/12/7
f 11/11/8 5/10/8 10/9/8
f 5/10/8 11/11/8 8/12/8
f 7/2/9 4/3/9 10/4/9
f 4/3/9 7/2/9 2/1/9
usemtl leafsGreen
f 15/15/10 14/14/10 13/13/10
f 14/14/10 15/15/10 16/16/10
f 13/13/11 14/14/11 15/15/11
f 16/16/11 15/15/11 14/14/11
f 11/19/12 9/18/12 8/17/12
f 9/18/12 11/19/12 12/20/12
f 8/17/12 17/21/12 11/19/12
f 17/21/12 8/17/12 18/22/12
f 9/18/12 18/22/12 8/17/12
f 11/19/12 17/21/12 19/23/12
f 11/19/12 19/23/12 12/20/12
f 12/20/12 19/23/12 20/24/12
f 20/24/12 19/23/12 21/25/12
f 21/25/12 19/23/12 22/26/12
f 21/25/12 22/26/12 23/27/12
f 24/28/12 18/22/12 9/18/12
f 24/28/12 25/29/12 18/22/12
f 26/30/12 25/29/12 24/28/12
f 25/29/12 26/30/12 27/31/12
f 24/28/12 9/18/12 28/32/12
f 28/32/12 9/18/12 12/20/12
f 28/32/12 12/20/12 20/24/12
f 8/17/3 9/18/3 11/19/3
f 12/20/3 11/19/3 9/18/3
f 11/19/3 17/21/3 8/17/3
f 18/22/3 8/17/3 17/21/3
f 8/17/3 18/22/3 9/18/3
f 19/23/3 17/21/3 11/19/3
f 12/20/3 19/23/3 11/19/3
f 20/24/3 19/23/3 12/20/3
f 21/25/3 19/23/3 20/24/3
f 22/26/3 19/23/3 21/25/3
f 23/27/3 22/26/3 21/25/3
f 9/18/3 18/22/3 24/28/3
f 18/22/3 25/29/3 24/28/3
f 24/28/3 25/29/3 26/30/3
f 27/31/3 26/30/3 25/29/3
f 28/32/3 9/18/3 24/28/3
f 12/20/3 9/18/3 28/32/3
f 20/24/3 12/20/3 28/32/3
f 31/35/13 30/34/13 29/33/13
f 30/34/13 31/35/13 27/36/13
f 30/34/13 27/36/13 26/37/13
f 30/34/13 26/37/13 32/38/13
f 32/38/13 26/37/13 24/39/13
f 29/33/14 30/34/14 31/35/14
f 27/36/14 31/35/14 30/34/14
f 26/37/14 27/36/14 30/34/14
f 32/38/14 26/37/14 30/34/14
f 24/39/14 26/37/14 32/38/14
f 35/42/15 34/41/15 33/40/15
f 34/41/15 35/42/15 36/43/15
f 33/40/16 34/41/16 35/42/16
f 36/43/16 35/42/16 34/41/16
f 29/46/12 16/45/12 15/44/12
f 16/45/12 29/46/12 30/47/12
f 15/44/3 16/45/3 29/46/3
f 30/47/3 29/46/3 16/45/3
f 35/13/17 37/16/17 36/14/17
f 37/16/17 35/13/17 38/15/17
f 36/14/18 37/16/18 35/13/18
f 38/15/18 35/13/18 37/16/18
f 41/50/19 40/49/19 39/48/19
f 40/49/19 41/50/19 42/51/19
f 39/48/20 40/49/20 41/50/20
f 42/51/20 41/50/20 40/49/20
f 45/33/21 44/38/21 43/34/21
f 44/38/21 45/33/21 18/39/21
f 18/39/21 45/33/21 17/52/21
f 17/52/21 45/33/21 19/36/21
f 19/36/21 45/33/21 46/35/21
f 43/34/22 44/38/22 45/33/22
f 18/39/22 45/33/22 44/38/22
f 17/52/22 45/33/22 18/39/22
f 19/36/22 45/33/22 17/52/22
f 46/35/22 45/33/22 19/36/22
f 49/55/12 48/54/12 47/53/12
f 48/54/12 49/55/12 50/56/12
f 47/53/3 48/54/3 49/55/3
f 50/56/3 49/55/3 48/54/3
f 53/49/23 52/50/23 51/51/23
f 52/50/23 53/49/23 54/48/23
f 51/51/24 52/50/24 53/49/24
f 54/48/24 53/49/24 52/50/24
f 56/51/25 47/48/25 55/50/25
f 47/48/25 56/51/25 49/49/25
f 55/50/26 47/48/26 56/51/26
f 49/49/26 56/51/26 47/48/26
f 39/59/12 58/58/12 57/57/12
f 58/58/12 39/59/12 40/60/12
f 57/57/3 58/58/3 39/59/3
f 40/60/3 39/59/3 58/58/3
f 51/63/27 60/62/27 59/61/27
f 60/62/27 51/63/27 52/64/27
f 59/61/28 60/62/28 51/63/28
f 52/64/28 51/63/28 60/62/28
f 50/67/29 61/66/29 48/65/29
f 61/66/29 50/67/29 27/68/29
f 27/68/29 50/67/29 62/69/29
f 27/68/29 62/69/29 25/70/29
f 25/70/29 62/69/29 18/71/29
f 48/65/30 61/66/30 50/67/30
f 27/68/30 50/67/30 61/66/30
f 62/69/30 50/67/30 27/68/30
f 25/70/30 62/69/30 27/68/30
f 18/71/30 62/69/30 25/70/30
f 14/43/31 63/40/31 13/42/31
f 63/40/31 14/43/31 64/41/31
f 13/42/32 63/40/32 14/43/32
f 64/41/32 14/43/32 63/40/32
f 65/66/33 28/72/33 20/68/33
f 28/72/33 65/66/33 24/71/33
f 24/71/33 65/66/33 66/69/33
f 66/69/33 65/66/33 67/65/33
f 66/69/33 67/65/33 68/67/33
f 20/68/34 28/72/34 65/66/34
f 24/71/34 65/66/34 28/72/34
f 66/69/34 65/66/34 24/71/34
f 67/65/34 65/66/34 66/69/34
f 68/67/34 67/65/34 66/69/34
f 20/36/35 70/33/35 69/35/35
f 70/33/35 20/36/35 21/73/35
f 70/33/35 21/73/35 23/39/35
f 70/33/35 23/39/35 71/38/35
f 70/33/35 71/38/35 72/34/35
f 69/35/36 70/33/36 20/36/36
f 21/73/36 20/36/36 70/33/36
f 23/39/36 21/73/36 70/33/36
f 71/38/36 23/39/36 70/33/36
f 72/34/36 71/38/36 70/33/36
f 75/16/37 74/13/37 73/15/37
f 74/13/37 75/16/37 76/14/37
f 73/15/38 74/13/38 75/16/38
f 76/14/38 75/16/38 74/13/38
f 77/41/39 74/42/39 76/43/39
f 74/42/39 77/41/39 78/40/39
f 76/43/40 74/42/40 77/41/40
f 78/40/40 77/41/40 74/42/40
f 79/66/41 22/74/41 19/68/41
f 22/74/41 79/66/41 57/65/41
f 22/74/41 57/65/41 23/71/41
f 23/71/41 57/65/41 80/69/41
f 80/69/41 57/65/41 58/67/41
f 19/68/42 22/74/42 79/66/42
f 57/65/42 79/66/42 22/74/42
f 23/71/42 57/65/42 22/74/42
f 80/69/42 57/65/42 23/71/42
f 58/67/42 57/65/42 80/69/42
f 72/77/12 73/76/12 70/75/12
f 73/76/12 72/77/12 75/78/12
f 70/75/3 73/76/3 72/77/3
f 75/78/3 72/77/3 73/76/3
f 38/81/12 43/80/12 37/79/12
f 43/80/12 38/81/12 45/82/12
f 37/79/3 43/80/3 38/81/3
f 45/82/3 38/81/3 43/80/3
f 68/85/12 54/84/12 53/83/12
f 54/84/12 68/85/12 67/86/12
f 53/83/3 54/84/3 68/85/3
f 67/86/3 68/85/3 54/84/3
f 82/61/43 41/64/43 81/62/43
f 41/64/43 82/61/43 42/63/43
f 81/62/44 41/64/44 82/61/44
f 42/63/44 82/61/44 41/64/44
f 56/63/45 84/62/45 83/61/45
f 84/62/45 56/63/45 55/64/45
f 83/61/46 84/62/46 56/63/46
f 55/64/46 56/63/46 84/62/46
