mtllib boat-tug-a.mtl
v -0.408000 0.000000 -1.535000
v 0.408000 0.000000 -1.535000
v -0.680000 0.300000 -1.735000
v 0.680000 0.300000 -1.735000
v -0.223200 0.000000 0.821000
v -0.408000 0.000000 0.665000
v -0.372000 0.300000 1.285000
v -0.680000 0.300000 1.025000
v 0.372000 0.300000 1.285000
v 0.000000 0.300000 1.385000
v 0.488250 0.700000 1.603750
v 0.000000 0.700000 1.735000
v 0.223200 0.000000 0.821000
v 0.000000 0.000000 0.881000
v 0.680000 0.300000 1.025000
v 0.408000 0.000000 0.665000
v 0.892500 0.700000 1.262500
v -0.488250 0.700000 1.603750
v -0.892500 0.700000 1.262500
v -0.892500 0.700000 -1.735000
v 0.892500 0.700000 -1.735000
v 0.592500 0.800000 -1.435000
v 0.592500 1.500000 -1.435000
v -0.592500 0.800000 -1.435000
v -0.592500 1.500000 -1.435000
v -0.592500 0.800000 -0.248313
v -0.592500 1.500000 -0.248313
v 0.592500 1.500000 -0.248313
v 0.592500 0.800000 -0.248313
v 0.533921 1.500000 -0.106892
v 0.533921 0.800000 -0.106892
v 0.533921 1.150000 -0.106892
v -0.533921 0.800000 -0.106892
v -0.533921 1.500000 -0.106892
v -0.533921 1.150000 -0.106892
v -0.392500 0.800000 -0.048313
v -0.392500 1.150000 -0.048313
v 0.392500 0.800000 -0.048313
v 0.392500 1.150000 -0.048313
v 0.392500 1.500000 -0.048313
v -0.392500 1.500000 -0.048313
v -0.532282 0.800000 0.751687
v -0.332282 0.800000 0.751687
v -0.532282 1.500000 0.751687
v -0.332282 1.500000 0.751687
v -0.532282 0.800000 0.951687
v -0.532282 1.500000 0.951687
v -0.332282 0.800000 0.951687
v -0.332282 1.500000 0.951687
v 0.332282 0.800000 0.751687
v 0.532282 0.800000 0.751687
v 0.332282 1.500000 0.751687
v 0.532282 1.500000 0.751687
v 0.332282 0.800000 0.951687
v 0.332282 1.500000 0.951687
v 0.532282 0.800000 0.951687
v 0.532282 1.500000 0.951687
v -0.200000 0.950000 0.351687
v -0.200000 0.800000 0.351687
v -0.200000 1.000000 -0.048313
v -0.200000 0.800000 -0.048313
v 0.200000 0.800000 0.351687
v 0.200000 0.950000 0.351687
v 0.200000 0.800000 -0.048313
v 0.200000 1.000000 -0.048313
v -0.292500 0.800000 -1.735000
v -0.892500 1.000000 -1.735000
v -0.292500 0.900000 -1.735000
v -0.492500 1.000000 -1.735000
v 0.292500 0.800000 -1.735000
v 0.892500 1.000000 -1.735000
v 0.292500 0.900000 -1.735000
v 0.492500 1.000000 -1.735000
v -0.692500 0.800000 1.169599
v -0.393293 0.800000 1.422176
v -0.692500 1.000000 1.169599
v -0.393293 1.000000 1.422176
v 0.000000 0.800000 1.527900
v 0.000000 1.000000 1.527900
v 0.393293 0.800000 1.422176
v 0.393293 1.000000 1.422176
v 0.692500 0.800000 1.169599
v 0.692500 1.000000 1.169599
v -0.292500 0.800000 -1.535000
v -0.692500 0.800000 -1.535000
v -0.292500 0.900000 -1.535000
v -0.692500 1.000000 -1.535000
v -0.492500 1.000000 -1.535000
v 0.692500 0.800000 -1.535000
v 0.292500 0.800000 -1.535000
v 0.692500 1.000000 -1.535000
v 0.292500 0.900000 -1.535000
v 0.492500 1.000000 -1.535000
v 0.892500 1.000000 1.262500
v 0.488250 1.000000 1.603750
v 0.000000 1.000000 1.735000
v -0.488250 1.000000 1.603750
v -0.892500 1.000000 1.262500
v 0.432283 1.500000 1.051687
v -0.432283 1.500000 1.051687
v 0.432283 1.700000 1.051687
v -0.432283 1.700000 1.051687
v -0.686995 1.500000 0.946182
v -0.686995 1.700000 0.946182
v 0.792500 1.700000 0.691469
v 0.792500 1.500000 0.691469
v 0.686995 1.700000 0.946182
v 0.686995 1.500000 0.946182
v 0.792500 1.700000 -1.535000
v 0.792500 1.500000 -1.535000
v -0.792500 1.500000 0.691469
v -0.792500 1.700000 0.691469
v -0.792500 1.500000 -1.535000
v -0.792500 1.700000 -1.535000
v -0.692500 1.500000 -1.635000
v 0.692500 1.500000 -1.635000
v -0.692500 1.700000 -1.635000
v 0.692500 1.700000 -1.635000
v -0.532282 0.800000 0.951687
v -0.532282 0.800000 0.751687
v -0.332282 0.800000 0.751687
v -0.332282 0.800000 0.951687
v 0.332282 0.800000 0.951687
v 0.332282 0.800000 0.751687
v 0.532282 0.800000 0.751687
v 0.532282 0.800000 0.951687
v 0.340310 2.237000 -0.873313
v 0.294717 2.237000 -0.703158
v 0.294717 2.237000 -1.043468
v 0.170155 2.237000 -1.168031
v 0.217822 2.237000 -0.873313
v 0.170155 2.237000 -0.578596
v 0.188640 2.237000 -0.982224
v 0.188640 2.237000 -0.764402
v 0.108911 2.237000 -1.061953
v 0.108911 2.237000 -0.684674
v 0.000000 2.237000 -1.213623
v 0.000000 2.237000 -1.091136
v -0.000000 2.237000 -0.533003
v -0.000000 2.237000 -0.655491
v -0.108911 2.237000 -0.684674
v -0.170155 2.237000 -0.578596
v -0.188640 2.237000 -0.764402
v -0.170155 2.237000 -1.168031
v -0.108911 2.237000 -1.061953
v -0.188640 2.237000 -0.982224
v -0.294717 2.237000 -0.703158
v -0.294717 2.237000 -1.043468
v -0.217822 2.237000 -0.873313
v -0.340310 2.237000 -0.873313
v -0.318047 1.926500 -0.873313
v -0.275437 1.926500 -0.714290
v 0.275437 1.926500 -1.032337
v 0.318047 1.926500 -0.873313
v -0.000000 1.926500 -0.555266
v -0.159023 1.926500 -0.597877
v -0.275437 1.926500 -1.032337
v -0.261000 1.926500 -0.873313
v -0.226033 1.926500 -1.003813
v -0.226033 1.926500 -0.742813
v -0.130500 1.926500 -0.647281
v -0.159023 1.926500 -1.148750
v -0.130500 1.926500 -1.099346
v 0.000000 1.926500 -1.134313
v 0.000000 1.926500 -1.191360
v 0.130500 1.926500 -1.099346
v 0.159023 1.926500 -1.148750
v 0.226033 1.926500 -1.003813
v -0.000000 1.926500 -0.612313
v 0.130500 1.926500 -0.647281
v 0.159023 1.926500 -0.597877
v 0.226033 1.926500 -0.742813
v 0.275437 1.926500 -0.714290
v 0.261000 1.926500 -0.873313
v 0.255233 2.102750 0.126687
v 0.221038 2.102750 0.254303
v 0.221038 2.102750 -0.000930
v 0.127616 2.102750 -0.094351
v 0.163367 2.102750 0.126687
v 0.127616 2.102750 0.347725
v 0.141480 2.102750 0.045003
v 0.141480 2.102750 0.208370
v 0.081683 2.102750 -0.014793
v 0.081683 2.102750 0.268166
v 0.000000 2.102750 -0.128546
v 0.000000 2.102750 -0.036680
v -0.000000 2.102750 0.381919
v -0.000000 2.102750 0.290054
v -0.081683 2.102750 0.268166
v -0.127616 2.102750 0.347725
v -0.141480 2.102750 0.208370
v -0.127616 2.102750 -0.094351
v -0.081683 2.102750 -0.014793
v -0.141480 2.102750 0.045003
v -0.221038 2.102750 0.254303
v -0.221038 2.102750 -0.000930
v -0.163367 2.102750 0.126687
v -0.255233 2.102750 0.126687
v -0.238535 1.869875 0.126687
v -0.206577 1.869875 0.245954
v 0.206577 1.869875 0.007419
v 0.238535 1.869875 0.126687
v -0.000000 1.869875 0.365222
v -0.119268 1.869875 0.333264
v -0.206577 1.869875 0.007419
v -0.195750 1.869875 0.126687
v -0.169524 1.869875 0.028812
v -0.169524 1.869875 0.224562
v -0.097875 1.869875 0.296211
v -0.119268 1.869875 -0.079891
v -0.097875 1.869875 -0.042838
v 0.000000 1.869875 -0.069063
v 0.000000 1.869875 -0.111848
v 0.097875 1.869875 -0.042838
v 0.119268 1.869875 -0.079891
v 0.169524 1.869875 0.028812
v -0.000000 1.869875 0.322437
v 0.097875 1.869875 0.296211
v 0.119268 1.869875 0.333264
v 0.169524 1.869875 0.224562
v 0.206577 1.869875 0.245954
v 0.195750 1.869875 0.126687
v 0.112500 1.700000 -0.678458
v -0.000000 1.700000 -0.648313
v 0.000000 1.700000 -1.098313
v 0.112500 1.700000 -1.068169
v 0.100198 1.937000 -1.046862
v 0.000000 1.937000 -1.073710
v 0.173548 1.937000 -0.973511
v 0.200397 1.937000 -0.873313
v -0.194856 1.700000 -0.760813
v -0.112500 1.700000 -0.678458
v 0.173548 1.937000 -0.773115
v 0.100198 1.937000 -0.699765
v -0.000000 1.937000 -0.672917
v -0.100198 1.937000 -1.046862
v -0.100198 1.937000 -0.699765
v -0.173548 1.937000 -0.973511
v -0.173548 1.937000 -0.773115
v -0.200397 1.937000 -0.873313
v 0.225000 1.700000 -0.873313
v 0.194856 1.700000 -0.760813
v 0.194856 1.700000 -0.985813
v -0.194856 1.700000 -0.985813
v -0.112500 1.700000 -1.068169
v -0.225000 1.700000 -0.873313
v 0.084375 1.700000 0.272828
v -0.000000 1.700000 0.295437
v 0.000000 1.700000 -0.042063
v 0.084375 1.700000 -0.019455
v 0.075149 1.877750 -0.003475
v 0.000000 1.877750 -0.023611
v 0.130161 1.877750 0.051538
v 0.150297 1.877750 0.126687
v -0.146142 1.700000 0.211062
v -0.084375 1.700000 0.272828
v 0.130161 1.877750 0.201836
v 0.075149 1.877750 0.256848
v -0.000000 1.877750 0.276984
v -0.075149 1.877750 -0.003475
v -0.075149 1.877750 0.256848
v -0.130161 1.877750 0.051538
v -0.130161 1.877750 0.201836
v -0.150297 1.877750 0.126687
v 0.168750 1.700000 0.126687
v 0.146142 1.700000 0.211062
v 0.146142 1.700000 0.042312
v -0.146142 1.700000 0.042312
v -0.084375 1.700000 -0.019455
v -0.168750 1.700000 0.126687
v 0.533921 1.150000 -0.106892
v 0.392500 1.150000 -0.048313
v 0.533921 1.500000 -0.106892
v 0.392500 1.500000 -0.048313
v -0.392500 1.150000 -0.048313
v -0.392500 1.500000 -0.048313
v -0.533921 1.150000 -0.106892
v -0.533921 1.500000 -0.106892
vn 0.000000 -0.554700 -0.832050
vn -0.257795 -0.846977 0.464942
vn -0.614369 -0.768993 0.176638
vn -0.236947 -0.848734 0.472764
vn -0.509689 -0.810035 0.289931
vn 0.364175 -0.642844 0.673890
vn 0.000000 -0.658505 0.752577
vn 0.347397 -0.644064 0.681540
vn 0.236947 -0.848734 0.472764
vn 0.257795 -0.846977 0.464942
vn 0.000000 -0.859293 0.511484
vn 0.509689 -0.810035 0.289931
vn 0.614369 -0.768993 0.176638
vn 0.706938 -0.598928 0.376197
vn 0.769315 -0.574561 0.279347
vn 0.740833 -0.671689 0.000000
vn -0.740833 -0.671689 0.000000
vn -0.364175 -0.642844 0.673890
vn -0.769315 -0.574561 0.279347
vn -0.347397 -0.644064 0.681540
vn -0.706938 -0.598928 0.376197
vn 0.000000 -1.000000 0.000000
vn -0.883116 -0.469155 0.000000
vn 0.883116 -0.469155 0.000000
vn 0.000000 0.000000 -1.000000
vn -1.000000 0.000000 0.000000
vn -0.980785 0.000000 0.195090
vn 1.000000 0.000000 0.000000
vn 0.980785 0.000000 0.195090
vn 0.923879 0.000000 0.382683
vn -0.923879 0.000000 0.382683
vn -0.195090 0.000000 0.980785
vn -0.382683 0.000000 0.923879
vn 0.195090 0.000000 0.980785
vn 0.382683 0.000000 0.923879
vn 0.000000 1.000000 0.000000
vn 0.000000 0.000000 1.000000
vn -1.000000 0.000000 -0.000000
vn -0.000000 0.000000 1.000000
vn -0.000000 0.661802 0.749678
vn 1.000000 0.000000 0.000000
vn -0.000000 0.992278 0.124035
vn 0.645052 0.000000 -0.764139
vn 0.259601 0.000000 -0.965716
vn -0.259601 0.000000 -0.965716
vn -0.645052 0.000000 -0.764139
vn 0.447214 0.894427 0.000000
vn -0.447214 0.894427 0.000000
vn -0.463420 0.000000 0.886139
vn -0.906932 0.000000 0.421277
vn 0.906932 0.000000 0.421277
vn 0.463420 0.000000 0.886139
vn -0.707107 0.000000 0.707107
vn 0.707107 0.000000 0.707107
vn 0.923879 0.000000 -0.382683
vn -0.923879 0.000000 -0.382683
vn -0.382683 0.000000 -0.923879
vn 0.382683 0.000000 -0.923879
vn -0.997439 -0.071518 0.000000
vn -0.863808 -0.071518 0.498720
vn 0.863808 -0.071518 -0.498720
vn 0.997439 -0.071518 0.000000
vn 0.000000 -0.071518 0.997439
vn -0.498720 -0.071518 0.863808
vn 0.863808 -0.071518 0.498720
vn 0.498720 -0.071518 0.863808
vn -0.863808 -0.071518 -0.498720
vn -0.498720 -0.071518 -0.863808
vn 0.000000 -0.071518 -0.997439
vn 0.498720 -0.071518 -0.863808
vn 0.493802 -0.156970 0.855290
vn 0.000000 -0.156970 0.987603
vn 0.000000 -0.156970 -0.987603
vn 0.493802 -0.156970 -0.855290
vn -0.499159 0.057988 0.864568
vn 0.000000 0.057988 0.998317
vn -0.864568 0.057988 0.499159
vn -0.998317 0.057988 0.000000
vn -0.855290 -0.156970 0.493802
vn -0.493802 -0.156970 0.855290
vn 0.499159 0.057988 0.864568
vn 0.864568 0.057988 0.499159
vn 0.987603 -0.156970 0.000000
vn 0.855290 -0.156970 0.493802
vn -0.864568 0.057988 -0.499159
vn 0.855290 -0.156970 -0.493802
vn 0.499159 0.057988 -0.864568
vn 0.000000 0.057988 -0.998317
vn -0.855290 -0.156970 -0.493802
vn -0.493802 -0.156970 -0.855290
vn 0.998317 0.057988 0.000000
vn -0.499159 0.057988 -0.864568
vn -0.987603 -0.156970 0.000000
vn 0.864568 0.057988 -0.499159
usemtl colormap
f 3/2/1 2/1/1 1/1/1
f 2/1/1 3/2/1 4/2/1
f 7/2/4 6/1/3 5/1/2
f 6/1/3 7/2/4 8/2/5
f 11/3/8 10/2/7 9/2/6
f 10/2/7 11/3/8 12/3/7
f 10/2/11 13/1/10 9/2/9
f 13/1/10 10/2/11 14/1/11
f 7/2/4 14/1/11 10/2/11
f 14/1/11 7/2/4 5/1/2
f 9/2/9 16/1/13 15/2/12
f 16/1/13 9/2/9 13/1/10
f 11/3/8 15/2/15 17/3/14
f 15/2/15 11/3/8 9/2/6
f 15/2/12 2/1/16 4/2/16
f 2/1/16 15/2/12 16/1/13
f 1/1/17 8/2/5 3/2/17
f 8/2/5 1/1/17 6/1/3
f 18/3/20 8/2/19 7/2/18
f 8/2/19 18/3/20 19/3/21
f 13/1/22 2/1/22 16/1/22
f 2/1/22 13/1/22 1/1/22
f 1/1/22 13/1/22 14/1/22
f 1/1/22 14/1/22 5/1/22
f 1/1/22 5/1/22 6/1/22
f 12/3/7 7/2/18 10/2/7
f 7/2/18 12/3/7 18/3/20
f 8/2/19 20/3/23 3/2/23
f 20/3/23 8/2/19 19/3/21
f 17/3/14 4/2/24 21/3/24
f 4/2/24 17/3/14 15/2/15
f 24/1/25 23/4/25 22/1/25
f 23/4/25 24/1/25 25/4/25
f 26/1/27 25/4/26 24/1/26
f 25/4/26 26/1/27 27/4/27
f 28/4/29 22/1/28 23/4/28
f 22/1/28 28/4/29 29/1/29
f 30/4/30 29/1/29 28/4/29
f 29/1/29 30/4/30 31/1/30
f 31/1/30 30/4/30 32/5/30
f 33/1/31 27/4/27 26/1/27
f 27/4/27 33/1/31 34/4/31
f 34/4/31 33/1/31 35/5/31
f 37/5/32 33/1/33 36/1/32
f 33/1/33 37/5/32 35/5/33
f 39/5/34 36/1/32 38/1/34
f 36/1/32 39/5/34 37/5/32
f 32/5/35 38/1/34 31/1/35
f 38/1/34 32/5/35 39/5/34
f 25/4/36 28/4/36 23/4/36
f 28/4/36 25/4/36 30/4/36
f 30/4/36 25/4/36 40/4/36
f 40/4/36 25/4/36 41/4/36
f 41/4/36 25/4/36 34/4/36
f 34/4/36 25/4/36 27/4/36
f 44/4/25 43/1/25 42/1/25
f 43/1/25 44/4/25 45/4/25
f 46/1/26 44/4/26 42/1/26
f 44/4/26 46/1/26 47/4/26
f 49/4/37 46/1/37 48/1/37
f 46/1/37 49/4/37 47/4/37
f 49/4/28 43/1/28 45/4/28
f 43/1/28 49/4/28 48/1/28
f 52/4/25 51/1/25 50/1/25
f 51/1/25 52/4/25 53/4/25
f 54/1/26 52/4/26 50/1/26
f 52/4/26 54/1/26 55/4/26
f 57/4/37 54/1/37 56/1/37
f 54/1/37 57/4/37 55/4/37
f 57/4/28 51/1/28 53/4/28
f 51/1/28 57/4/28 56/1/28
f 60/4/38 59/1/38 58/6/38
f 59/1/38 60/4/38 61/1/38
f 63/6/40 59/1/39 62/1/39
f 59/1/39 63/6/40 58/6/40
f 64/1/41 63/6/41 62/1/41
f 63/6/41 64/1/41 65/4/41
f 63/6/40 60/4/42 58/6/40
f 60/4/42 63/6/40 65/4/42
f 20/8/25 4/7/25 3/7/25
f 4/7/25 20/8/25 21/8/25
f 21/8/25 20/8/25 66/9/25
f 66/9/25 20/8/25 67/10/25
f 66/9/25 67/10/25 68/11/25
f 68/11/25 67/10/25 69/10/25
f 70/9/25 21/8/25 66/9/25
f 21/8/25 70/9/25 71/10/25
f 71/10/25 70/9/25 72/11/25
f 71/10/25 72/11/25 73/10/25
f 76/10/43 75/9/43 74/9/43
f 75/9/43 76/10/43 77/10/43
f 77/10/44 78/9/44 75/9/44
f 78/9/44 77/10/44 79/10/44
f 79/10/45 80/9/45 78/9/45
f 80/9/45 79/10/45 81/10/45
f 80/9/46 83/10/46 82/9/46
f 83/10/46 80/9/46 81/10/46
f 86/11/37 85/9/37 84/9/37
f 85/9/37 86/11/37 87/10/37
f 87/10/37 86/11/37 88/10/37
f 91/10/37 90/9/37 89/9/37
f 90/9/37 91/10/37 92/11/37
f 92/11/37 91/10/37 93/10/37
f 68/11/47 88/10/47 86/11/47
f 88/10/47 68/11/47 69/10/47
f 86/11/28 66/9/28 68/11/28
f 66/9/28 86/11/28 84/9/28
f 70/9/26 92/11/26 72/11/26
f 92/11/26 70/9/26 90/9/26
f 73/10/48 92/11/48 93/10/48
f 92/11/48 73/10/48 72/11/48
f 91/10/36 73/10/36 93/10/36
f 91/10/36 71/10/36 73/10/36
f 71/10/36 91/10/36 83/10/36
f 83/10/36 94/10/36 71/10/36
f 94/10/36 83/10/36 95/10/36
f 95/10/36 83/10/36 81/10/36
f 95/10/36 81/10/36 96/10/36
f 96/10/36 81/10/36 79/10/36
f 96/10/36 79/10/36 97/10/36
f 97/10/36 79/10/36 77/10/36
f 97/10/36 77/10/36 76/10/36
f 97/10/36 76/10/36 98/10/36
f 98/10/36 76/10/36 87/10/36
f 87/10/36 67/10/36 98/10/36
f 87/10/36 69/10/36 67/10/36
f 69/10/36 87/10/36 88/10/36
f 97/10/49 19/8/50 18/8/49
f 19/8/50 97/10/49 98/10/50
f 19/8/50 67/10/26 20/8/26
f 67/10/26 19/8/50 98/10/50
f 96/10/37 18/8/49 12/8/37
f 18/8/49 96/10/37 97/10/49
f 94/10/51 11/8/52 17/8/51
f 11/8/52 94/10/51 95/10/52
f 76/10/28 85/9/28 87/10/28
f 85/9/28 76/10/28 74/9/28
f 95/10/52 12/8/37 11/8/52
f 12/8/37 95/10/52 96/10/37
f 94/10/51 21/8/28 71/10/28
f 21/8/28 94/10/51 17/8/51
f 82/9/26 91/10/26 89/9/26
f 91/10/26 82/9/26 83/10/26
f 101/10/34 100/12/32 99/12/34
f 100/12/32 101/10/34 102/10/32
f 102/10/32 103/12/53 100/12/32
f 103/12/53 102/10/32 104/10/53
f 107/10/54 106/12/29 105/10/29
f 106/12/29 107/10/54 108/12/54
f 107/10/54 99/12/34 108/12/54
f 99/12/34 107/10/54 101/10/34
f 105/10/29 110/12/55 109/10/55
f 110/12/55 105/10/29 106/12/29
f 103/12/53 112/10/27 111/12/27
f 112/10/27 103/12/53 104/10/53
f 111/12/27 114/10/56 113/12/56
f 114/10/56 111/12/27 112/10/27
f 117/10/57 116/12/58 115/12/57
f 116/12/58 117/10/57 118/10/58
f 109/10/55 116/12/58 118/10/58
f 116/12/58 109/10/55 110/12/55
f 113/12/56 117/10/57 115/12/57
f 117/10/57 113/12/56 114/10/56
f 118/10/36 105/10/36 109/10/36
f 105/10/36 118/10/36 107/10/36
f 107/10/36 118/10/36 117/10/36
f 107/10/36 117/10/36 101/10/36
f 101/10/36 117/10/36 102/10/36
f 102/10/36 117/10/36 104/10/36
f 104/10/36 117/10/36 112/10/36
f 112/10/36 117/10/36 114/10/36
f 108/12/22 110/12/22 106/12/22
f 110/12/22 108/12/22 116/12/22
f 116/12/22 108/12/22 115/12/22
f 115/12/22 108/12/22 99/12/22
f 115/12/22 99/12/22 100/12/22
f 115/12/22 100/12/22 103/12/22
f 115/12/22 103/12/22 111/12/22
f 115/12/22 111/12/22 113/12/22
f 9/2/22 4/2/22 15/2/22
f 4/2/22 9/2/22 3/2/22
f 3/2/22 9/2/22 10/2/22
f 3/2/22 10/2/22 7/2/22
f 3/2/22 7/2/22 8/2/22
f 119/13/36 85/13/36 74/13/36
f 75/13/36 119/13/36 74/13/36
f 120/13/36 85/13/36 119/13/36
f 121/13/36 85/13/36 120/13/36
f 75/13/36 122/13/36 119/13/36
f 85/13/36 121/13/36 84/13/36
f 122/13/36 84/13/36 121/13/36
f 78/13/36 122/13/36 75/13/36
f 122/13/36 78/13/36 84/13/36
f 78/13/36 66/13/36 84/13/36
f 78/13/36 70/13/36 66/13/36
f 78/13/36 90/13/36 70/13/36
f 78/13/36 123/13/36 90/13/36
f 80/13/36 123/13/36 78/13/36
f 124/13/36 90/13/36 123/13/36
f 125/13/36 90/13/36 124/13/36
f 90/13/36 125/13/36 89/13/36
f 80/13/36 126/13/36 123/13/36
f 126/13/36 89/13/36 125/13/36
f 82/13/36 126/13/36 80/13/36
f 126/13/36 82/13/36 89/13/36
f 129/14/36 128/14/36 127/14/36
f 128/14/36 129/14/36 130/14/36
f 128/14/36 130/14/36 131/14/36
f 131/14/36 132/14/36 128/14/36
f 131/14/36 130/14/36 133/14/36
f 132/14/36 131/14/36 134/14/36
f 133/14/36 130/14/36 135/14/36
f 132/14/36 134/14/36 136/14/36
f 135/14/36 130/14/36 137/14/36
f 135/14/36 137/14/36 138/14/36
f 132/14/36 136/14/36 139/14/36
f 139/14/36 136/14/36 140/14/36
f 139/14/36 140/14/36 141/14/36
f 139/14/36 141/14/36 142/14/36
f 142/14/36 141/14/36 143/14/36
f 138/14/36 137/14/36 144/14/36
f 138/14/36 144/14/36 145/14/36
f 145/14/36 144/14/36 146/14/36
f 142/14/36 143/14/36 147/14/36
f 146/14/36 144/14/36 148/14/36
f 147/14/36 143/14/36 149/14/36
f 146/14/36 148/14/36 149/14/36
f 147/14/36 149/14/36 148/14/36
f 147/14/36 148/14/36 150/14/36
f 151/15/59 147/14/60 150/14/59
f 147/14/60 151/15/59 152/15/60
f 127/14/62 153/15/61 129/14/61
f 153/15/61 127/14/62 154/15/62
f 139/14/63 156/15/64 155/15/63
f 156/15/64 139/14/63 142/14/64
f 157/15/22 152/15/22 151/15/22
f 158/15/22 152/15/22 157/15/22
f 157/15/22 159/15/22 158/15/22
f 160/15/22 152/15/22 158/15/22
f 160/15/22 156/15/22 152/15/22
f 161/15/22 156/15/22 160/15/22
f 162/15/22 159/15/22 157/15/22
f 162/15/22 163/15/22 159/15/22
f 162/15/22 164/15/22 163/15/22
f 165/15/22 164/15/22 162/15/22
f 165/15/22 166/15/22 164/15/22
f 167/15/22 166/15/22 165/15/22
f 167/15/22 168/15/22 166/15/22
f 161/15/22 155/15/22 156/15/22
f 169/15/22 155/15/22 161/15/22
f 170/15/22 155/15/22 169/15/22
f 170/15/22 171/15/22 155/15/22
f 172/15/22 171/15/22 170/15/22
f 153/15/22 168/15/22 167/15/22
f 172/15/22 173/15/22 171/15/22
f 153/15/22 174/15/22 168/15/22
f 173/15/22 172/15/22 174/15/22
f 153/15/22 173/15/22 174/15/22
f 173/15/22 153/15/22 154/15/22
f 128/14/65 171/15/66 173/15/65
f 171/15/66 128/14/65 132/14/66
f 127/14/62 173/15/65 154/15/62
f 173/15/65 127/14/62 128/14/65
f 148/14/67 162/15/68 157/15/67
f 162/15/68 148/14/67 144/14/68
f 137/14/69 167/15/70 165/15/69
f 167/15/70 137/14/69 130/14/70
f 129/14/61 167/15/70 130/14/70
f 167/15/70 129/14/61 153/15/61
f 132/14/66 155/15/63 171/15/66
f 155/15/63 132/14/66 139/14/63
f 157/15/67 150/14/59 148/14/67
f 150/14/59 157/15/67 151/15/59
f 144/14/68 165/15/69 162/15/68
f 165/15/69 144/14/68 137/14/69
f 156/15/64 147/14/60 152/15/60
f 147/14/60 156/15/64 142/14/64
f 177/14/36 176/14/36 175/14/36
f 176/14/36 177/14/36 178/14/36
f 176/14/36 178/14/36 179/14/36
f 179/14/36 180/14/36 176/14/36
f 179/14/36 178/14/36 181/14/36
f 180/14/36 179/14/36 182/14/36
f 181/14/36 178/14/36 183/14/36
f 180/14/36 182/14/36 184/14/36
f 183/14/36 178/14/36 185/14/36
f 183/14/36 185/14/36 186/14/36
f 180/14/36 184/14/36 187/14/36
f 187/14/36 184/14/36 188/14/36
f 187/14/36 188/14/36 189/14/36
f 187/14/36 189/14/36 190/14/36
f 190/14/36 189/14/36 191/14/36
f 186/14/36 185/14/36 192/14/36
f 186/14/36 192/14/36 193/14/36
f 193/14/36 192/14/36 194/14/36
f 190/14/36 191/14/36 195/14/36
f 194/14/36 192/14/36 196/14/36
f 195/14/36 191/14/36 197/14/36
f 194/14/36 196/14/36 197/14/36
f 195/14/36 197/14/36 196/14/36
f 195/14/36 196/14/36 198/14/36
f 199/15/59 195/14/60 198/14/59
f 195/14/60 199/15/59 200/15/60
f 175/14/62 201/15/61 177/14/61
f 201/15/61 175/14/62 202/15/62
f 187/14/63 204/15/64 203/15/63
f 204/15/64 187/14/63 190/14/64
f 205/15/22 200/15/22 199/15/22
f 206/15/22 200/15/22 205/15/22
f 205/15/22 207/15/22 206/15/22
f 208/15/22 200/15/22 206/15/22
f 208/15/22 204/15/22 200/15/22
f 209/15/22 204/15/22 208/15/22
f 210/15/22 207/15/22 205/15/22
f 210/15/22 211/15/22 207/15/22
f 210/15/22 212/15/22 211/15/22
f 213/15/22 212/15/22 210/15/22
f 213/15/22 214/15/22 212/15/22
f 215/15/22 214/15/22 213/15/22
f 215/15/22 216/15/22 214/15/22
f 209/15/22 203/15/22 204/15/22
f 217/15/22 203/15/22 209/15/22
f 218/15/22 203/15/22 217/15/22
f 218/15/22 219/15/22 203/15/22
f 220/15/22 219/15/22 218/15/22
f 201/15/22 216/15/22 215/15/22
f 220/15/22 221/15/22 219/15/22
f 201/15/22 222/15/22 216/15/22
f 221/15/22 220/15/22 222/15/22
f 201/15/22 221/15/22 222/15/22
f 221/15/22 201/15/22 202/15/22
f 176/14/65 219/15/66 221/15/65
f 219/15/66 176/14/65 180/14/66
f 175/14/62 221/15/65 202/15/62
f 221/15/65 175/14/62 176/14/65
f 196/14/67 210/15/68 205/15/67
f 210/15/68 196/14/67 192/14/68
f 185/14/69 215/15/70 213/15/69
f 215/15/70 185/14/69 178/14/70
f 177/14/61 215/15/70 178/14/70
f 215/15/70 177/14/61 201/15/61
f 180/14/66 203/15/63 219/15/66
f 203/15/63 180/14/66 187/14/63
f 205/15/67 198/14/59 196/14/67
f 198/14/59 205/15/67 199/15/59
f 192/14/68 213/15/69 210/15/68
f 213/15/69 192/14/68 185/14/69
f 204/15/64 195/14/60 200/15/60
f 195/14/60 204/15/64 190/14/64
f 170/17/71 224/16/72 223/16/71
f 224/16/72 170/17/71 169/17/72
f 164/17/73 226/16/74 225/16/73
f 226/16/74 164/17/73 166/17/74
f 135/19/75 228/18/76 227/18/75
f 228/18/76 135/19/75 138/19/76
f 229/18/77 131/19/78 133/19/77
f 131/19/78 229/18/77 230/18/78
f 232/16/80 160/17/79 231/16/79
f 160/17/79 232/16/80 161/17/80
f 169/17/72 232/16/80 224/16/72
f 232/16/80 169/17/72 161/17/80
f 229/18/36 233/18/36 230/18/36
f 233/18/36 229/18/36 227/18/36
f 233/18/36 227/18/36 234/18/36
f 234/18/36 227/18/36 228/18/36
f 234/18/36 228/18/36 235/18/36
f 235/18/36 228/18/36 236/18/36
f 235/18/36 236/18/36 237/18/36
f 237/18/36 236/18/36 238/18/36
f 237/18/36 238/18/36 239/18/36
f 239/18/36 238/18/36 240/18/36
f 145/19/81 238/18/82 236/18/81
f 238/18/82 145/19/81 146/19/82
f 138/19/76 236/18/81 228/18/76
f 236/18/81 138/19/76 145/19/81
f 174/17/83 242/16/84 241/16/83
f 242/16/84 174/17/83 172/17/84
f 233/18/85 131/19/78 230/18/78
f 131/19/78 233/18/85 134/19/85
f 172/17/84 223/16/71 242/16/84
f 223/16/71 172/17/84 170/17/71
f 168/17/86 226/16/74 166/17/74
f 226/16/74 168/17/86 243/16/86
f 141/19/87 235/18/88 237/18/87
f 235/18/88 141/19/87 140/19/88
f 174/17/83 243/16/86 168/17/86
f 243/16/86 174/17/83 241/16/83
f 159/17/89 245/16/90 244/16/89
f 245/16/90 159/17/89 163/17/90
f 149/19/91 238/18/82 146/19/82
f 238/18/82 149/19/91 240/18/91
f 136/19/92 233/18/85 234/18/92
f 233/18/85 136/19/92 134/19/85
f 246/16/93 160/17/79 158/17/93
f 160/17/79 246/16/93 231/16/79
f 140/19/88 234/18/92 235/18/88
f 234/18/92 140/19/88 136/19/92
f 143/19/94 240/18/91 149/19/91
f 240/18/91 143/19/94 239/18/94
f 227/18/75 133/19/77 135/19/75
f 133/19/77 227/18/75 229/18/77
f 163/17/90 225/16/73 245/16/90
f 225/16/73 163/17/90 164/17/73
f 244/16/89 158/17/93 159/17/89
f 158/17/93 244/16/89 246/16/93
f 143/19/94 237/18/87 239/18/94
f 237/18/87 143/19/94 141/19/87
f 218/17/71 248/16/72 247/16/71
f 248/16/72 218/17/71 217/17/72
f 212/17/73 250/16/74 249/16/73
f 250/16/74 212/17/73 214/17/74
f 183/19/75 252/20/76 251/20/75
f 252/20/76 183/19/75 186/19/76
f 253/20/77 179/19/78 181/19/77
f 179/19/78 253/20/77 254/20/78
f 256/16/80 208/17/79 255/16/79
f 208/17/79 256/16/80 209/17/80
f 217/17/72 256/16/80 248/16/72
f 256/16/80 217/17/72 209/17/80
f 253/20/36 257/20/36 254/20/36
f 257/20/36 253/20/36 251/20/36
f 257/20/36 251/20/36 258/20/36
f 258/20/36 251/20/36 252/20/36
f 258/20/36 252/20/36 259/20/36
f 259/20/36 252/20/36 260/20/36
f 259/20/36 260/20/36 261/20/36
f 261/20/36 260/20/36 262/20/36
f 261/20/36 262/20/36 263/20/36
f 263/20/36 262/20/36 264/20/36
f 193/19/81 262/20/82 260/20/81
f 262/20/82 193/19/81 194/19/82
f 186/19/76 260/20/81 252/20/76
f 260/20/81 186/19/76 193/19/81
f 222/17/83 266/16/84 265/16/83
f 266/16/84 222/17/83 220/17/84
f 257/20/85 179/19/78 254/20/78
f 179/19/78 257/20/85 182/19/85
f 220/17/84 247/16/71 266/16/84
f 247/16/71 220/17/84 218/17/71
f 216/17/86 250/16/74 214/17/74
f 250/16/74 216/17/86 267/16/86
f 189/19/87 259/20/88 261/20/87
f 259/20/88 189/19/87 188/19/88
f 222/17/83 267/16/86 216/17/86
f 267/16/86 222/17/83 265/16/83
f 207/17/89 269/16/90 268/16/89
f 269/16/90 207/17/89 211/17/90
f 197/19/91 262/20/82 194/19/82
f 262/20/82 197/19/91 264/20/91
f 184/19/92 257/20/85 258/20/92
f 257/20/85 184/19/92 182/19/85
f 270/16/93 208/17/79 206/17/93
f 208/17/79 270/16/93 255/16/79
f 188/19/88 258/20/92 259/20/88
f 258/20/92 188/19/88 184/19/92
f 191/19/94 264/20/91 197/19/91
f 264/20/91 191/19/94 263/20/94
f 251/20/75 181/19/77 183/19/75
f 181/19/77 251/20/75 253/20/77
f 211/17/90 249/16/73 269/16/90
f 249/16/73 211/17/90 212/17/73
f 268/16/89 206/17/93 207/17/89
f 206/17/93 268/16/89 270/16/93
f 191/19/94 261/20/87 263/20/94
f 261/20/87 191/19/94 189/19/87
f 273/22/35 272/21/34 271/21/35
f 272/21/34 273/22/35 274/22/34
f 274/22/34 275/21/32 272/21/34
f 275/21/32 274/22/34 276/22/32
f 276/22/32 277/21/33 275/21/32
f 277/21/33 276/22/32 278/22/33
f 3/2/1 2/1/1 1/1/1
f 2/1/1 3/2/1 4/2/1
f 7/2/4 6/1/3 5/1/2
f 6/1/3 7/2/4 8/2/5
f 11/3/8 10/2/7 9/2/6
f 10/2/7 11/3/8 12/3/7
f 10/2/11 13/1/10 9/2/9
f 13/1/10 10/2/11 14/1/11
f 7/2/4 14/1/11 10/2/11
f 14/1/11 7/2/4 5/1/2
f 9/2/9 16/1/13 15/2/12
f 16/1/13 9/2/9 13/1/10
f 11/3/8 15/2/15 17/3/14
f 15/2/15 11/3/8 9/2/6
f 15/2/12 2/1/16 4/2/16
f 2/1/16 15/2/12 16/1/13
f 1/1/17 8/2/5 3/2/17
f 8/2/5 1/1/17 6/1/3
f 18/3/20 8/2/19 7/2/18
f 8/2/19 18/3/20 19/3/21
f 13/1/22 2/1/22 16/1/22
f 2/1/22 13/1/22 1/1/22
f 1/1/22 13/1/22 14/1/22
f 1/1/22 14/1/22 5/1/22
f 1/1/22 5/1/22 6/1/22
f 12/3/7 7/2/18 10/2/7
f 7/2/18 12/3/7 18/3/20
f 8/2/19 20/3/23 3/2/23
f 20/3/23 8/2/19 19/3/21
f 17/3/14 4/2/24 21/3/24
f 4/2/24 17/3/14 15/2/15
f 24/1/25 23/4/25 22/1/25
f 23/4/25 24/1/25 25/4/25
f 26/1/27 25/4/26 24/1/26
f 25/4/26 26/1/27 27/4/27
f 28/4/29 22/1/28 23/4/28
f 22/1/28 28/4/29 29/1/29
f 30/4/30 29/1/29 28/4/29
f 29/1/29 30/4/30 31/1/30
f 31/1/30 30/4/30 32/5/30
f 33/1/31 27/4/27 26/1/27
f 27/4/27 33/1/31 34/4/31
f 34/4/31 33/1/31 35/5/31
f 37/5/32 33/1/33 36/1/32
f 33/1/33 37/5/32 35/5/33
f 39/5/34 36/1/32 38/1/34
f 36/1/32 39/5/34 37/5/32
f 32/5/35 38/1/34 31/1/35
f 38/1/34 32/5/35 39/5/34
f 25/4/36 28/4/36 23/4/36
f 28/4/36 25/4/36 30/4/36
f 30/4/36 25/4/36 40/4/36
f 40/4/36 25/4/36 41/4/36
f 41/4/36 25/4/36 34/4/36
f 34/4/36 25/4/36 27/4/36
f 44/4/25 43/1/25 42/1/25
f 43/1/25 44/4/25 45/4/25
f 46/1/26 44/4/26 42/1/26
f 44/4/26 46/1/26 47/4/26
f 49/4/37 46/1/37 48/1/37
f 46/1/37 49/4/37 47/4/37
f 49/4/28 43/1/28 45/4/28
f 43/1/28 49/4/28 48/1/28
f 52/4/25 51/1/25 50/1/25
f 51/1/25 52/4/25 53/4/25
f 54/1/26 52/4/26 50/1/26
f 52/4/26 54/1/26 55/4/26
f 57/4/37 54/1/37 56/1/37
f 54/1/37 57/4/37 55/4/37
f 57/4/28 51/1/28 53/4/28
f 51/1/28 57/4/28 56/1/28
f 60/4/38 59/1/38 58/6/38
f 59/1/38 60/4/38 61/1/38
f 63/6/40 59/1/39 62/1/39
f 59/1/39 63/6/40 58/6/40
f 64/1/41 63/6/41 62/1/41
f 63/6/41 64/1/41 65/4/41
f 63/6/40 60/4/42 58/6/40
f 60/4/42 63/6/40 65/4/42
f 20/8/25 4/7/25 3/7/25
f 4/7/25 20/8/25 21/8/25
f 21/8/25 20/8/25 66/9/25
f 66/9/25 20/8/25 67/10/25
f 66/9/25 67/10/25 68/11/25
f 68/11/25 67/10/25 69/10/25
f 70/9/25 21/8/25 66/9/25
f 21/8/25 70/9/25 71/10/25
f 71/10/25 70/9/25 72/11/25
f 71/10/25 72/11/25 73/10/25
f 76/10/43 75/9/43 74/9/43
f 75/9/43 76/10/43 77/10/43
f 77/10/44 78/9/44 75/9/44
f 78/9/44 77/10/44 79/10/44
f 79/10/45 80/9/45 78/9/45
f 80/9/45 79/10/45 81/10/45
f 80/9/46 83/10/46 82/9/46
f 83/10/46 80/9/46 81/10/46
f 86/11/37 85/9/37 84/9/37
f 85/9/37 86/11/37 87/10/37
f 87/10/37 86/11/37 88/10/37
f 91/10/37 90/9/37 89/9/37
f 90/9/37 91/10/37 92/11/37
f 92/11/37 91/10/37 93/10/37
f 68/11/47 88/10/47 86/11/47
f 88/10/47 68/11/47 69/10/47
f 86/11/28 66/9/28 68/11/28
f 66/9/28 86/11/28 84/9/28
f 70/9/26 92/11/26 72/11/26
f 92/11/26 70/9/26 90/9/26
f 73/10/48 92/11/48 93/10/48
f 92/11/48 73/10/48 72/11/48
f 91/10/36 73/10/36 93/10/36
f 91/10/36 71/10/36 73/10/36
f 71/10/36 91/10/36 83/10/36
f 83/10/36 94/10/36 71/10/36
f 94/10/36 83/10/36 95/10/36
f 95/10/36 83/10/36 81/10/36
f 95/10/36 81/10/36 96/10/36
f 96/10/36 81/10/36 79/10/36
f 96/10/36 79/10/36 97/10/36
f 97/10/36 79/10/36 77/10/36
f 97/10/36 77/10/36 76/10/36
f 97/10/36 76/10/36 98/10/36
f 98/10/36 76/10/36 87/10/36
f 87/10/36 67/10/36 98/10/36
f 87/10/36 69/10/36 67/10/36
f 69/10/36 87/10/36 88/10/36
f 97/10/49 19/8/50 18/8/49
f 19/8/50 97/10/49 98/10/50
f 19/8/50 67/10/26 20/8/26
f 67/10/26 19/8/50 98/10/50
f 96/10/37 18/8/49 12/8/37
f 18/8/49 96/10/37 97/10/49
f 94/10/51 11/8/52 17/8/51
f 11/8/52 94/10/51 95/10/52
f 76/10/28 85/9/28 87/10/28
f 85/9/28 76/10/28 74/9/28
f 95/10/52 12/8/37 11/8/52
f 12/8/37 95/10/52 96/10/37
f 94/10/51 21/8/28 71/10/28
f 21/8/28 94/10/51 17/8/51
f 82/9/26 91/10/26 89/9/26
f 91/10/26 82/9/26 83/10/26
f 101/10/34 100/12/32 99/12/34
f 100/12/32 101/10/34 102/10/32
f 102/10/32 103/12/53 100/12/32
f 103/12/53 102/10/32 104/10/53
f 107/10/54 106/12/29 105/10/29
f 106/12/29 107/10/54 108/12/54
f 107/10/54 99/12/34 108/12/54
f 99/12/34 107/10/54 101/10/34
f 105/10/29 110/12/55 109/10/55
f 110/12/55 105/10/29 106/12/29
f 103/12/53 112/10/27 111/12/27
f 112/10/27 103/12/53 104/10/53
f 111/12/27 114/10/56 113/12/56
f 114/10/56 111/12/27 112/10/27
f 117/10/57 116/12/58 115/12/57
f 116/12/58 117/10/57 118/10/58
f 109/10/55 116/12/58 118/10/58
f 116/12/58 109/10/55 110/12/55
f 113/12/56 117/10/57 115/12/57
f 117/10/57 113/12/56 114/10/56
f 118/10/36 105/10/36 109/10/36
f 105/10/36 118/10/36 107/10/36
f 107/10/36 118/10/36 117/10/36
f 107/10/36 117/10/36 101/10/36
f 101/10/36 117/10/36 102/10/36
f 102/10/36 117/10/36 104/10/36
f 104/10/36 117/10/36 112/10/36
f 112/10/36 117/10/36 114/10/36
f 108/12/22 110/12/22 106/12/22
f 110/12/22 108/12/22 116/12/22
f 116/12/22 108/12/22 115/12/22
f 115/12/22 108/12/22 99/12/22
f 115/12/22 99/12/22 100/12/22
f 115/12/22 100/12/22 103/12/22
f 115/12/22 103/12/22 111/12/22
f 115/12/22 111/12/22 113/12/22
f 9/2/22 4/2/22 15/2/22
f 4/2/22 9/2/22 3/2/22
f 3/2/22 9/2/22 10/2/22
f 3/2/22 10/2/22 7/2/22
f 3/2/22 7/2/22 8/2/22
f 119/13/36 85/13/36 74/13/36
f 75/13/36 119/13/36 74/13/36
f 120/13/36 85/13/36 119/13/36
f 121/13/36 85/13/36 120/13/36
f 75/13/36 122/13/36 119/13/36
f 85/13/36 121/13/36 84/13/36
f 122/13/36 84/13/36 121/13/36
f 78/13/36 122/13/36 75/13/36
f 122/13/36 78/13/36 84/13/36
f 78/13/36 66/13/36 84/13/36
f 78/13/36 70/13/36 66/13/36
f 78/13/36 90/13/36 70/13/36
f 78/13/36 123/13/36 90/13/36
f 80/13/36 123/13/36 78/13/36
f 124/13/36 90/13/36 123/13/36
f 125/13/36 90/13/36 124/13/36
f 90/13/36 125/13/36 89/13/36
f 80/13/36 126/13/36 123/13/36
f 126/13/36 89/13/36 125/13/36
f 82/13/36 126/13/36 80/13/36
f 126/13/36 82/13/36 89/13/36
f 129/14/36 128/14/36 127/14/36
f 128/14/36 129/14/36 130/14/36
f 128/14/36 130/14/36 131/14/36
f 131/14/36 132/14/36 128/14/36
f 131/14/36 130/14/36 133/14/36
f 132/14/36 131/14/36 134/14/36
f 133/14/36 130/14/36 135/14/36
f 132/14/36 134/14/36 136/14/36
f 135/14/36 130/14/36 137/14/36
f 135/14/36 137/14/36 138/14/36
f 132/14/36 136/14/36 139/14/36
f 139/14/36 136/14/36 140/14/36
f 139/14/36 140/14/36 141/14/36
f 139/14/36 141/14/36 142/14/36
f 142/14/36 141/14/36 143/14/36
f 138/14/36 137/14/36 144/14/36
f 138/14/36 144/14/36 145/14/36
f 145/14/36 144/14/36 146/14/36
f 142/14/36 143/14/36 147/14/36
f 146/14/36 144/14/36 148/14/36
f 147/14/36 143/14/36 149/14/36
f 146/14/36 148/14/36 149/14/36
f 147/14/36 149/14/36 148/14/36
f 147/14/36 148/14/36 150/14/36
f 151/15/59 147/14/60 150/14/59
f 147/14/60 151/15/59 152/15/60
f 127/14/62 153/15/61 129/14/61
f 153/15/61 127/14/62 154/15/62
f 139/14/63 156/15/64 155/15/63
f 156/15/64 139/14/63 142/14/64
f 157/15/22 152/15/22 151/15/22
f 158/15/22 152/15/22 157/15/22
f 157/15/22 159/15/22 158/15/22
f 160/15/22 152/15/22 158/15/22
f 160/15/22 156/15/22 152/15/22
f 161/15/22 156/15/22 160/15/22
f 162/15/22 159/15/22 157/15/22
f 162/15/22 163/15/22 159/15/22
f 162/15/22 164/15/22 163/15/22
f 165/15/22 164/15/22 162/15/22
f 165/15/22 166/15/22 164/15/22
f 167/15/22 166/15/22 165/15/22
f 167/15/22 168/15/22 166/15/22
f 161/15/22 155/15/22 156/15/22
f 169/15/22 155/15/22 161/15/22
f 170/15/22 155/15/22 169/15/22
f 170/15/22 171/15/22 155/15/22
f 172/15/22 171/15/22 170/15/22
f 153/15/22 168/15/22 167/15/22
f 172/15/22 173/15/22 171/15/22
f 153/15/22 174/15/22 168/15/22
f 173/15/22 172/15/22 174/15/22
f 153/15/22 173/15/22 174/15/22
f 173/15/22 153/15/22 154/15/22
f 128/14/65 171/15/66 173/15/65
f 171/15/66 128/14/65 132/14/66
f 127/14/62 173/15/65 154/15/62
f 173/15/65 127/14/62 128/14/65
f 148/14/67 162/15/68 157/15/67
f 162/15/68 148/14/67 144/14/68
f 137/14/69 167/15/70 165/15/69
f 167/15/70 137/14/69 130/14/70
f 129/14/61 167/15/70 130/14/70
f 167/15/70 129/14/61 153/15/61
f 132/14/66 155/15/63 171/15/66
f 155/15/63 132/14/66 139/14/63
f 157/15/67 150/14/59 148/14/67
f 150/14/59 157/15/67 151/15/59
f 144/14/68 165/15/69 162/15/68
f 165/15/69 144/14/68 137/14/69
f 156/15/64 147/14/60 152/15/60
f 147/14/60 156/15/64 142/14/64
f 177/14/36 176/14/36 175/14/36
f 176/14/36 177/14/36 178/14/36
f 176/14/36 178/14/36 179/14/36
f 179/14/36 180/14/36 176/14/36
f 179/14/36 178/14/36 181/14/36
f 180/14/36 179/14/36 182/14/36
f 181/14/36 178/14/36 183/14/36
f 180/14/36 182/14/36 184/14/36
f 183/14/36 178/14/36 185/14/36
f 183/14/36 185/14/36 186/14/36
f 180/14/36 184/14/36 187/14/36
f 187/14/36 184/14/36 188/14/36
f 187/14/36 188/14/36 189/14/36
f 187/14/36 189/14/36 190/14/36
f 190/14/36 189/14/36 191/14/36
f 186/14/36 185/14/36 192/14/36
f 186/14/36 192/14/36 193/14/36
f 193/14/36 192/14/36 194/14/36
f 190/14/36 191/14/36 195/14/36
f 194/14/36 192/14/36 196/14/36
f 195/14/36 191/14/36 197/14/36
f 194/14/36 196/14/36 197/14/36
f 195/14/36 197/14/36 196/14/36
f 195/14/36 196/14/36 198/14/36
f 199/15/59 195/14/60 198/14/59
f 195/14/60 199/15/59 200/15/60
f 175/14/62 201/15/61 177/14/61
f 201/15/61 175/14/62 202/15/62
f 187/14/63 204/15/64 203/15/63
f 204/15/64 187/14/63 190/14/64
f 205/15/22 200/15/22 199/15/22
f 206/15/22 200/15/22 205/15/22
f 205/15/22 207/15/22 206/15/22
f 208/15/22 200/15/22 206/15/22
f 208/15/22 204/15/22 200/15/22
f 209/15/22 204/15/22 208/15/22
f 210/15/22 207/15/22 205/15/22
f 210/15/22 211/15/22 207/15/22
f 210/15/22 212/15/22 211/15/22
f 213/15/22 212/15/22 210/15/22
f 213/15/22 214/15/22 212/15/22
f 215/15/22 214/15/22 213/15/22
f 215/15/22 216/15/22 214/15/22
f 209/15/22 203/15/22 204/15/22
f 217/15/22 203/15/22 209/15/22
f 218/15/22 203/15/22 217/15/22
f 218/15/22 219/15/22 203/15/22
f 220/15/22 219/15/22 218/15/22
f 201/15/22 216/15/22 215/15/22
f 220/15/22 221/15/22 219/15/22
f 201/15/22 222/15/22 216/15/22
f 221/15/22 220/15/22 222/15/22
f 201/15/22 221/15/22 222/15/22
f 221/15/22 201/15/22 202/15/22
f 176/14/65 219/15/66 221/15/65
f 219/15/66 176/14/65 180/14/66
f 175/14/62 221/15/65 202/15/62
f 221/15/65 175/14/62 176/14/65
f 196/14/67 210/15/68 205/15/67
f 210/15/68 196/14/67 192/14/68
f 185/14/69 215/15/70 213/15/69
f 215/15/70 185/14/69 178/14/70
f 177/14/61 215/15/70 178/14/70
f 215/15/70 177/14/61 201/15/61
f 180/14/66 203/15/63 219/15/66
f 203/15/63 180/14/66 187/14/63
f 205/15/67 198/14/59 196/14/67
f 198/14/59 205/15/67 199/15/59
f 192/14/68 213/15/69 210/15/68
f 213/15/69 192/14/68 185/14/69
f 204/15/64 195/14/60 200/15/60
f 195/14/60 204/15/64 190/14/64
f 170/17/71 224/16/72 223/16/71
f 224/16/72 170/17/71 169/17/72
f 164/17/73 226/16/74 225/16/73
f 226/16/74 164/17/73 166/17/74
f 135/19/75 228/18/76 227/18/75
f 228/18/76 135/19/75 138/19/76
f 229/18/77 131/19/78 133/19/77
f 131/19/78 229/18/77 230/18/78
f 232/16/80 160/17/79 231/16/79
f 160/17/79 232/16/80 161/17/80
f 169/17/72 232/16/80 224/16/72
f 232/16/80 169/17/72 161/17/80
f 229/18/36 233/18/36 230/18/36
f 233/18/36 229/18/36 227/18/36
f 233/18/36 227/18/36 234/18/36
f 234/18/36 227/18/36 228/18/36
f 234/18/36 228/18/36 235/18/36
f 235/18/36 228/18/36 236/18/36
f 235/18/36 236/18/36 237/18/36
f 237/18/36 236/18/36 238/18/36
f 237/18/36 238/18/36 239/18/36
f 239/18/36 238/18/36 240/18/36
f 145/19/81 238/18/82 236/18/81
f 238/18/82 145/19/81 146/19/82
f 138/19/76 236/18/81 228/18/76
f 236/18/81 138/19/76 145/19/81
f 174/17/83 242/16/84 241/16/83
f 242/16/84 174/17/83 172/17/84
f 233/18/85 131/19/78 230/18/78
f 131/19/78 233/18/85 134/19/85
f 172/17/84 223/16/71 242/16/84
f 223/16/71 172/17/84 170/17/71
f 168/17/86 226/16/74 166/17/74
f 226/16/74 168/17/86 243/16/86
f 141/19/87 235/18/88 237/18/87
f 235/18/88 141/19/87 140/19/88
f 174/17/83 243/16/86 168/17/86
f 243/16/86 174/17/83 241/16/83
f 159/17/89 245/16/90 244/16/89
f 245/16/90 159/17/89 163/17/90
f 149/19/91 238/18/82 146/19/82
f 238/18/82 149/19/91 240/18/91
f 136/19/92 233/18/85 234/18/92
f 233/18/85 136/19/92 134/19/85
f 246/16/93 160/17/79 158/17/93
f 160/17/79 246/16/93 231/16/79
f 140/19/88 234/18/92 235/18/88
f 234/18/92 140/19/88 136/19/92
f 143/19/94 240/18/91 149/19/91
f 240/18/91 143/19/94 239/18/94
f 227/18/75 133/19/77 135/19/75
f 133/19/77 227/18/75 229/18/77
f 163/17/90 225/16/73 245/16/90
f 225/16/73 163/17/90 164/17/73
f 244/16/89 158/17/93 159/17/89
f 158/17/93 244/16/89 246/16/93
f 143/19/94 237/18/87 239/18/94
f 237/18/87 143/19/94 141/19/87
f 218/17/71 248/16/72 247/16/71
f 248/16/72 218/17/71 217/17/72
f 212/17/73 250/16/74 249/16/73
f 250/16/74 212/17/73 214/17/74
f 183/19/75 252/20/76 251/20/75
f 252/20/76 183/19/75 186/19/76
f 253/20/77 179/19/78 181/19/77
f 179/19/78 253/20/77 254/20/78
f 256/16/80 208/17/79 255/16/79
f 208/17/79 256/16/80 209/17/80
f 217/17/72 256/16/80 248/16/72
f 256/16/80 217/17/72 209/17/80
f 253/20/36 257/20/36 254/20/36
f 257/20/36 253/20/36 251/20/36
f 257/20/36 251/20/36 258/20/36
f 258/20/36 251/20/36 252/20/36
f 258/20/36 252/20/36 259/20/36
f 259/20/36 252/20/36 260/20/36
f 259/20/36 260/20/36 261/20/36
f 261/20/36 260/20/36 262/20/36
f 261/20/36 262/20/36 263/20/36
f 263/20/36 262/20/36 264/20/36
f 193/19/81 262/20/82 260/20/81
f 262/20/82 193/19/81 194/19/82
f 186/19/76 260/20/81 252/20/76
f 260/20/81 186/19/76 193/19/81
f 222/17/83 266/16/84 265/16/83
f 266/16/84 222/17/83 220/17/84
f 257/20/85 179/19/78 254/20/78
f 179/19/78 257/20/85 182/19/85
f 220/17/84 247/16/71 266/16/84
f 247/16/71 220/17/84 218/17/71
f 216/17/86 250/16/74 214/17/74
f 250/16/74 216/17/86 267/16/86
f 189/19/87 259/20/88 261/20/87
f 259/20/88 189/19/87 188/19/88
f 222/17/83 267/16/86 216/17/86
f 267/16/86 222/17/83 265/16/83
f 207/17/89 269/16/90 268/16/89
f 269/16/90 207/17/89 211/17/90
f 197/19/91 262/20/82 194/19/82
f 262/20/82 197/19/91 264/20/91
f 184/19/92 257/20/85 258/20/92
f 257/20/85 184/19/92 182/19/85
f 270/16/93 208/17/79 206/17/93
f 208/17/79 270/16/93 255/16/79
f 188/19/88 258/20/92 259/20/88
f 258/20/92 188/19/88 184/19/92
f 191/19/94 264/20/91 197/19/91
f 264/20/91 191/19/94 263/20/94
f 251/20/75 181/19/77 183/19/75
f 181/19/77 251/20/75 253/20/77
f 211/17/90 249/16/73 269/16/90
f 249/16/73 211/17/90 212/17/73
f 268/16/89 206/17/93 207/17/89
f 206/17/93 268/16/89 270/16/93
f 191/19/94 261/20/87 263/20/94
f 261/20/87 191/19/94 189/19/87
f 273/22/35 272/21/34 271/21/35
f 272/21/34 273/22/35 274/22/34
f 274/22/34 275/21/32 272/21/34
f 275/21/32 274/22/34 276/22/32
f 276/22/32 277/21/33 275/21/32
f 277/21/33 276/22/32 278/22/33
