mtllib boat-sail-a.mtl
v -0.406980 0.000000 -1.585000
v 0.406980 0.000000 -1.585000
v -0.678300 0.200000 -1.681409
v 0.678300 0.200000 -1.681409
v -0.892500 0.600000 -1.785000
v 0.892500 0.600000 -1.785000
v 0.406980 0.000000 0.217940
v 0.178089 0.000000 0.581068
v 0.000000 0.000000 0.679640
v -0.178089 0.000000 0.581068
v -0.406980 0.000000 0.217940
v 0.892500 0.600000 0.972500
v 0.678300 0.200000 0.686300
v 0.296815 0.200000 1.291514
v 0.390547 0.600000 1.768834
v 0.000000 0.600000 1.985000
v 0.000000 0.200000 1.455800
v -0.390547 0.600000 1.768834
v -0.296815 0.200000 1.291514
v -0.892500 0.600000 0.972500
v -0.678300 0.200000 0.686300
v -0.248747 0.900000 1.618727
v 0.000000 0.900000 1.756408
v -0.390547 0.900000 1.768834
v -0.692500 0.900000 0.914727
v 0.000000 0.900000 1.985000
v -0.892500 0.900000 0.972500
v 0.248747 0.900000 1.618727
v -0.692500 0.900000 -1.585000
v 0.390547 0.900000 1.768834
v -0.892500 0.900000 -1.785000
v 0.692500 0.900000 -1.585000
v 0.892500 0.900000 -1.785000
v 0.692500 0.900000 0.914727
v 0.892500 0.900000 0.972500
v -0.283525 0.700000 0.114727
v -0.283525 0.872500 0.114727
v -0.283525 0.700000 1.044051
v -0.283525 0.872500 0.957801
v -0.283525 0.786250 1.044051
v 0.283525 0.872500 0.114727
v 0.283525 0.700000 0.114727
v 0.283525 0.872500 0.957801
v 0.283525 0.700000 1.044051
v 0.283525 0.786250 1.044051
v -0.492500 1.300000 0.014727
v -0.392500 1.300000 0.114727
v -0.492500 1.300000 0.114727
v -0.492500 1.300000 -1.085000
v 0.392500 1.300000 0.114727
v 0.492500 1.300000 0.014727
v 0.492500 1.300000 0.114727
v 0.492500 1.300000 -1.085000
v -0.492500 0.700000 -1.085000
v 0.492500 0.700000 -1.085000
v -0.492500 0.700000 0.014727
v -0.392500 0.700000 0.114727
v 0.392500 0.700000 0.114727
v 0.492500 0.700000 0.014727
v -0.692500 0.700000 0.914727
v -0.248747 0.700000 1.618727
v 0.692500 0.700000 0.914727
v 0.248747 0.700000 1.618727
v 0.000000 0.700000 1.756408
v 0.692500 0.700000 -1.585000
v -0.692500 0.700000 -1.585000
v 0.592500 1.300000 0.314727
v -0.592500 1.300000 0.314727
v 0.592500 1.500000 0.314727
v -0.592500 1.500000 0.314727
v 0.692500 1.500000 0.214727
v 0.692500 1.300000 0.214727
v -0.692500 1.300000 0.214727
v -0.692500 1.500000 0.214727
v -0.592500 1.300000 -1.285000
v 0.592500 1.300000 -1.285000
v -0.592500 1.500000 -1.285000
v 0.592500 1.500000 -1.285000
v 0.692500 1.500000 -1.185000
v 0.692500 1.300000 -1.185000
v -0.692500 1.300000 -1.185000
v -0.692500 1.500000 -1.185000
v 0.283525 1.500000 -0.070475
v -0.283525 1.500000 -0.070475
v 0.283525 1.586250 -0.070475
v -0.283525 1.586250 -0.070475
v 0.283525 1.672500 -0.156725
v -0.283525 1.672500 -0.156725
v -0.283525 1.500000 -0.999799
v 0.283525 1.500000 -0.999799
v -0.283525 1.586250 -0.999799
v 0.283525 1.586250 -0.999799
v 0.283525 1.672500 -0.913549
v -0.283525 1.672500 -0.913549
v 0.892500 0.900000 -0.885000
v 0.892500 1.000000 -0.985000
v 0.892500 0.900000 -1.385000
v 0.892500 1.000000 -1.285000
v 0.692500 1.000000 -0.985000
v 0.692500 1.000000 -1.285000
v 0.692500 0.900000 -0.885000
v 0.692500 0.900000 -1.385000
v -0.692500 0.900000 -0.885000
v -0.692500 1.000000 -0.985000
v -0.692500 0.900000 -1.385000
v -0.692500 1.000000 -1.285000
v -0.892500 1.000000 -0.985000
v -0.892500 1.000000 -1.285000
v -0.892500 0.900000 -0.885000
v -0.892500 0.900000 -1.385000
v -0.692500 0.900000 0.715000
v -0.692500 1.000000 0.615000
v -0.692500 0.900000 0.215000
v -0.692500 1.000000 0.315000
v -0.892500 1.000000 0.615000
v -0.892500 1.000000 0.315000
v -0.892500 0.900000 0.715000
v -0.892500 0.900000 0.215000
v 0.892500 0.900000 0.715000
v 0.892500 1.000000 0.615000
v 0.892500 0.900000 0.215000
v 0.892500 1.000000 0.315000
v 0.692500 1.000000 0.615000
v 0.692500 1.000000 0.315000
v 0.692500 0.900000 0.715000
v 0.692500 0.900000 0.215000
v 0.120718 0.872500 0.505637
v 0.120718 0.872500 0.645030
v 0.090088 4.739140 0.523321
v 0.090088 4.739140 0.627346
v -0.000000 0.872500 0.714727
v -0.120718 0.872500 0.645030
v -0.000000 4.739140 0.679358
v -0.090088 4.739140 0.627346
v -0.120718 0.872500 0.505637
v -0.000000 0.872500 0.435940
v -0.090088 4.739140 0.523321
v -0.000000 4.739140 0.471308
v -0.190088 2.300000 0.665421
v -0.190088 2.300000 0.485245
v -0.190088 2.500000 0.665421
v -0.190088 2.500000 0.485245
v -0.090088 2.500000 0.765421
v -0.090088 2.300000 0.765421
v 0.090088 2.300000 0.385245
v 0.090088 2.500000 0.385245
v -0.090088 2.300000 0.385245
v -0.090088 2.500000 0.385245
v 0.190088 2.300000 0.485245
v 0.190088 2.300000 0.665421
v 0.190088 2.500000 0.485245
v 0.190088 2.500000 0.665421
v 0.090088 2.500000 0.765421
v 0.090088 2.300000 0.765421
v -0.190088 1.200000 0.665421
v -0.190088 1.200000 0.485245
v -0.190088 1.400000 0.665421
v -0.190088 1.400000 0.485245
v -0.090088 1.400000 0.765421
v -0.090088 1.200000 0.765421
v 0.090088 1.200000 0.385245
v 0.090088 1.400000 0.385245
v -0.090088 1.200000 0.385245
v -0.090088 1.400000 0.385245
v 0.190088 1.200000 0.485245
v 0.190088 1.200000 0.665421
v 0.190088 1.400000 0.485245
v 0.190088 1.400000 0.665421
v 0.090088 1.400000 0.765421
v 0.090088 1.200000 0.765421
v -0.190088 4.400000 0.665421
v -0.190088 4.400000 0.485245
v -0.190088 4.600000 0.665421
v -0.190088 4.600000 0.485245
v -0.090088 4.600000 0.765421
v -0.090088 4.400000 0.765421
v 0.090088 4.400000 0.385245
v 0.090088 4.600000 0.385245
v -0.090088 4.400000 0.385245
v -0.090088 4.600000 0.385245
v 0.190088 4.400000 0.485245
v 0.190088 4.400000 0.665421
v 0.190088 4.600000 0.485245
v 0.190088 4.600000 0.665421
v 0.090088 4.600000 0.765421
v 0.090088 4.400000 0.765421
v 0.090088 1.978098 0.575333
v 0.090088 1.978098 -0.756856
v -0.090088 1.978098 0.575333
v -0.090088 1.978098 -0.756856
v 0.090088 2.158275 -0.756856
v 0.090088 2.158275 0.575333
v -0.090088 2.158275 -0.756856
v -0.090088 2.158275 0.575333
v -0.190088 1.978098 -0.556855
v -0.190088 2.158275 -0.556855
v -0.190088 1.978098 -0.356855
v -0.190088 2.158275 -0.356855
v -0.090088 1.878098 -0.356855
v -0.090088 1.878098 -0.556855
v 0.090088 2.258275 -0.556855
v 0.090088 2.258275 -0.356855
v -0.090088 2.258275 -0.556855
v -0.090088 2.258275 -0.356855
v 0.190088 2.158275 -0.556855
v 0.190088 1.978098 -0.556855
v 0.190088 2.158275 -0.356855
v 0.190088 1.978098 -0.356855
v 0.090088 1.878098 -0.356855
v 0.090088 1.878098 -0.556855
v 0.090088 1.200000 1.899421
v 0.090088 1.200000 0.765421
v -0.090088 1.200000 1.899421
v -0.090088 1.200000 0.765421
v -0.090088 3.680864 0.765421
v 0.090088 3.680864 0.765421
v 0.090088 1.952938 1.371742
v 0.090088 2.789155 0.989508
v -0.090088 1.952938 1.371742
v -0.090088 2.789155 0.989508
v 0.090088 2.258275 0.385245
v 0.090088 2.258275 -0.756856
v -0.090088 2.258275 0.385245
v -0.090088 2.258275 -0.756856
v 0.090088 4.739140 0.385245
v -0.090088 4.739140 0.385245
v 0.090088 3.986201 -0.146204
v 0.090088 3.149984 -0.531168
v -0.090088 3.986201 -0.146204
v -0.090088 3.149984 -0.531168
vn 0.000000 -0.434228 -0.900803
vn 0.000000 -0.250707 -0.968063
vn 0.000000 -1.000000 0.000000
vn 0.881559 -0.472075 0.000000
vn 0.754441 -0.597847 0.270921
vn 0.816960 -0.553450 0.162079
vn 0.532339 -0.697377 0.479875
vn 0.440700 -0.728734 0.524147
vn 0.000000 -0.797751 0.602987
vn -0.440700 -0.728734 0.524147
vn -0.532339 -0.697377 0.479875
vn -0.754441 -0.597847 0.270921
vn -0.816960 -0.553450 0.162079
vn -0.881559 -0.472075 0.000000
vn -0.593353 -0.804942 0.000000
vn -0.393430 -0.905541 0.158773
vn -0.518084 -0.852925 0.064093
vn -0.192022 -0.952574 0.236073
vn -0.261964 -0.939502 0.220704
vn 0.000000 -0.968368 0.249528
vn 0.261964 -0.939502 0.220704
vn 0.192022 -0.952574 0.236073
vn 0.518084 -0.852925 0.064093
vn 0.393430 -0.905541 0.158773
vn 0.593353 -0.804942 0.000000
vn 0.000000 1.000000 0.000000
vn -1.000000 0.000000 0.000000
vn 1.000000 0.000000 0.000000
vn 0.000000 0.000000 1.000000
vn 0.000000 0.382683 0.923879
vn 0.000000 0.923879 0.382683
vn 0.000000 0.000000 -1.000000
vn -0.923879 0.000000 0.382683
vn -0.382683 0.000000 0.923879
vn 0.382683 0.000000 0.923879
vn 0.923879 0.000000 0.382683
vn 0.686706 0.000000 0.726935
vn 0.845965 0.000000 0.533238
vn -0.686706 0.000000 0.726935
vn -0.845965 0.000000 0.533238
vn 0.845965 0.000000 -0.533238
vn 0.686706 0.000000 -0.726935
vn -0.845965 0.000000 -0.533238
vn -0.686706 0.000000 -0.726935
vn -0.382683 0.000000 -0.923879
vn 0.382683 0.000000 -0.923879
vn 0.923879 0.000000 -0.382683
vn -0.923879 0.000000 -0.382683
vn 0.000000 0.382683 -0.923879
vn 0.000000 0.923879 -0.382683
vn 1.000000 0.000000 0.000000
vn -0.000000 0.923879 0.382683
vn 0.000000 0.923879 -0.382683
vn -1.000000 0.000000 -0.000000
vn 0.000000 0.707107 -0.707107
vn -0.000000 0.707107 0.707107
vn 0.865989 0.009147 -0.499979
vn 0.865989 0.009147 0.499979
vn 0.000000 0.009147 0.999958
vn -0.865989 0.009147 0.499979
vn -0.865989 0.009147 -0.499979
vn 0.000000 0.009147 -0.999958
vn -0.923879 0.000000 0.382684
vn -0.923879 -0.000000 -0.382684
vn -0.382683 0.000000 0.923880
vn 0.382683 -0.000000 -0.923880
vn -0.382683 -0.000000 -0.923880
vn 0.923879 -0.000000 -0.382684
vn 0.923879 0.000000 0.382684
vn 0.382683 0.000000 0.923880
vn 0.000000 -1.000000 0.000000
vn 0.000000 1.000000 -0.000000
vn -0.923879 -0.382683 0.000000
vn -0.923879 0.382683 0.000000
vn -0.382683 -0.923879 0.000000
vn 0.382683 0.923879 0.000000
vn -0.382683 0.923879 0.000000
vn 0.923879 0.382683 0.000000
vn 0.923879 -0.382683 0.000000
vn 0.382683 -0.923879 0.000000
vn 0.521286 0.489770 0.698846
vn 0.728209 0.340546 0.594761
vn -0.521286 0.489770 0.698846
vn 0.728209 0.226923 0.646698
vn 0.154847 0.240783 0.958147
vn -0.728209 0.340546 0.594761
vn -0.728209 0.226923 0.646698
vn -0.154847 0.240783 0.958147
vn 0.364384 0.537010 -0.760818
vn 0.687087 0.362932 -0.629437
vn -0.364384 0.537010 -0.760818
vn 0.687049 0.242086 -0.685097
vn 0.644173 0.187670 -0.741499
vn -0.687087 0.362932 -0.629437
vn -0.687049 0.242086 -0.685097
vn -0.644173 0.187670 -0.741499
usemtl colormap
f 3/2/1 2/1/1 1/1/1
f 2/1/1 3/2/1 4/2/1
f 5/3/2 4/2/2 3/2/2
f 4/2/2 5/3/2 6/3/2
f 8/1/3 2/1/3 7/1/3
f 2/1/3 8/1/3 1/1/3
f 1/1/3 8/1/3 9/1/3
f 1/1/3 9/1/3 10/1/3
f 1/1/3 10/1/3 11/1/3
f 12/3/5 4/2/4 6/3/4
f 4/2/4 12/3/5 13/2/6
f 12/3/5 14/2/7 13/2/6
f 14/2/7 12/3/5 15/3/8
f 16/3/9 14/2/7 15/3/8
f 14/2/7 16/3/9 17/2/9
f 18/3/10 17/2/9 16/3/9
f 17/2/9 18/3/10 19/2/11
f 20/3/12 19/2/11 18/3/10
f 19/2/11 20/3/12 21/2/13
f 20/3/12 3/2/14 21/2/13
f 3/2/14 20/3/12 5/3/14
f 1/1/15 21/2/16 3/2/15
f 21/2/16 1/1/15 11/1/17
f 11/1/17 19/2/18 21/2/16
f 19/2/18 11/1/17 10/1/19
f 9/1/20 19/2/18 10/1/19
f 19/2/18 9/1/20 17/2/20
f 8/1/21 17/2/20 9/1/20
f 17/2/20 8/1/21 14/2/22
f 7/1/23 14/2/22 8/1/21
f 14/2/22 7/1/23 13/2/24
f 7/1/23 4/2/25 13/2/24
f 4/2/25 7/1/23 2/1/25
f 24/4/26 23/4/26 22/4/26
f 24/4/26 22/4/26 25/4/26
f 26/4/26 23/4/26 24/4/26
f 24/4/26 25/4/26 27/4/26
f 26/4/26 28/4/26 23/4/26
f 27/4/26 25/4/26 29/4/26
f 30/4/26 28/4/26 26/4/26
f 29/4/26 31/4/26 27/4/26
f 32/4/26 31/4/26 29/4/26
f 32/4/26 33/4/26 31/4/26
f 30/4/26 34/4/26 28/4/26
f 33/4/26 32/4/26 34/4/26
f 35/4/26 34/4/26 30/4/26
f 34/4/26 35/4/26 33/4/26
f 38/1/27 37/4/27 36/1/27
f 37/4/27 38/1/27 39/4/27
f 39/4/27 38/1/27 40/5/27
f 43/4/28 42/1/28 41/4/28
f 42/1/28 43/4/28 44/1/28
f 44/1/28 43/4/28 45/5/28
f 45/5/30 38/1/29 44/1/29
f 38/1/29 45/5/30 40/5/30
f 43/4/31 40/5/30 45/5/30
f 40/5/30 43/4/31 39/4/31
f 41/4/26 39/4/31 43/4/31
f 39/4/31 41/4/26 37/4/26
f 48/6/26 47/6/26 46/6/26
f 47/6/26 49/6/26 46/6/26
f 50/6/26 49/6/26 47/6/26
f 51/6/26 49/6/26 50/6/26
f 50/6/26 52/6/26 51/6/26
f 49/6/26 51/6/26 53/6/26
f 49/6/32 55/1/32 54/1/32
f 55/1/32 49/6/32 53/6/32
f 56/1/33 49/6/27 54/1/27
f 49/6/27 56/1/33 46/6/33
f 57/1/34 46/6/33 56/1/33
f 46/6/33 57/1/34 47/6/34
f 57/1/34 50/6/35 47/6/34
f 50/6/35 57/1/34 58/1/35
f 59/1/36 50/6/35 58/1/35
f 50/6/35 59/1/36 51/6/36
f 55/1/28 51/6/36 59/1/36
f 51/6/36 55/1/28 53/6/28
f 58/1/3 55/1/3 59/1/3
f 55/1/3 58/1/3 54/1/3
f 54/1/3 58/1/3 57/1/3
f 54/1/3 57/1/3 56/1/3
f 31/8/32 6/7/32 5/7/32
f 6/7/32 31/8/32 33/8/32
f 30/8/37 16/7/29 15/7/37
f 16/7/29 30/8/37 26/8/29
f 30/8/37 12/7/38 35/8/38
f 12/7/38 30/8/37 15/7/37
f 26/8/29 18/7/39 16/7/29
f 18/7/39 26/8/29 24/8/39
f 18/7/39 27/8/40 20/7/40
f 27/8/40 18/7/39 24/8/39
f 22/8/42 60/9/41 25/8/41
f 60/9/41 22/8/42 61/9/42
f 63/9/44 34/8/43 62/9/43
f 34/8/43 63/9/44 28/8/44
f 23/8/32 63/9/44 64/9/32
f 63/9/44 23/8/32 28/8/44
f 22/8/42 64/9/32 61/9/42
f 64/9/32 22/8/42 23/8/32
f 32/8/29 66/9/29 65/9/29
f 66/9/29 32/8/29 29/8/29
f 35/8/28 6/7/28 33/8/28
f 6/7/28 35/8/28 12/7/28
f 20/7/27 31/8/27 5/7/27
f 31/8/27 20/7/27 27/8/27
f 65/9/26 63/9/26 62/9/26
f 63/9/26 65/9/26 66/9/26
f 63/9/26 66/9/26 64/9/26
f 64/9/26 66/9/26 61/9/26
f 61/9/26 66/9/26 60/9/26
f 62/9/27 32/8/27 65/9/27
f 32/8/27 62/9/27 34/8/27
f 25/8/28 66/9/28 29/8/28
f 66/9/28 25/8/28 60/9/28
f 69/8/35 68/10/34 67/10/35
f 68/10/34 69/8/35 70/8/34
f 69/8/35 72/10/36 71/8/36
f 72/10/36 69/8/35 67/10/35
f 68/10/34 74/8/33 73/10/33
f 74/8/33 68/10/34 70/8/34
f 77/8/45 76/10/46 75/10/45
f 76/10/46 77/8/45 78/8/46
f 79/8/47 76/10/46 78/8/46
f 76/10/46 79/8/47 80/10/47
f 81/10/48 77/8/45 75/10/45
f 77/8/45 81/10/48 82/8/48
f 73/10/33 82/8/48 81/10/48
f 82/8/48 73/10/33 74/8/33
f 78/8/26 71/8/26 79/8/26
f 71/8/26 78/8/26 69/8/26
f 69/8/26 78/8/26 77/8/26
f 69/8/26 77/8/26 70/8/26
f 70/8/26 77/8/26 82/8/26
f 70/8/26 82/8/26 74/8/26
f 71/8/36 80/10/47 79/8/47
f 80/10/47 71/8/36 72/10/36
f 67/10/3 80/10/3 72/10/3
f 80/10/3 67/10/3 76/10/3
f 76/10/3 67/10/3 52/10/3
f 52/10/3 67/10/3 68/10/3
f 53/10/3 76/10/3 52/10/3
f 53/10/3 52/10/3 51/10/3
f 52/10/3 68/10/3 50/10/3
f 76/10/3 53/10/3 75/10/3
f 50/10/3 68/10/3 47/10/3
f 47/10/3 68/10/3 48/10/3
f 48/10/3 68/10/3 46/10/3
f 46/10/3 68/10/3 49/10/3
f 75/10/3 53/10/3 49/10/3
f 75/10/3 49/10/3 68/10/3
f 75/10/3 68/10/3 73/10/3
f 75/10/3 73/10/3 81/10/3
f 85/12/30 84/11/29 83/11/29
f 84/11/29 85/12/30 86/12/30
f 87/8/31 86/12/30 85/12/30
f 86/12/30 87/8/31 88/8/31
f 91/12/49 90/11/32 89/11/32
f 90/11/32 91/12/49 92/12/49
f 93/8/50 88/8/31 87/8/31
f 88/8/31 93/8/50 94/8/50
f 92/12/49 94/8/50 93/8/50
f 94/8/50 92/12/49 91/12/49
f 84/11/27 91/12/27 89/11/27
f 91/12/27 84/11/27 94/8/27
f 94/8/27 84/11/27 88/8/27
f 88/8/27 84/11/27 86/12/27
f 93/8/28 90/11/28 92/12/28
f 90/11/28 93/8/28 83/11/28
f 83/11/28 93/8/28 87/8/28
f 83/11/28 87/8/28 85/12/28
f 97/1/51 96/4/51 95/1/51
f 96/4/51 97/1/51 98/4/51
f 96/4/52 100/4/53 99/4/52
f 100/4/53 96/4/52 98/4/53
f 99/4/54 102/1/54 101/1/54
f 102/1/54 99/4/54 100/4/54
f 98/4/53 102/1/55 100/4/53
f 102/1/55 98/4/53 97/1/55
f 95/1/56 99/4/52 101/1/56
f 99/4/52 95/1/56 96/4/52
f 105/1/51 104/4/51 103/1/51
f 104/4/51 105/1/51 106/4/51
f 104/4/52 108/4/53 107/4/52
f 108/4/53 104/4/52 106/4/53
f 107/4/54 110/1/54 109/1/54
f 110/1/54 107/4/54 108/4/54
f 106/4/53 110/1/55 108/4/53
f 110/1/55 106/4/53 105/1/55
f 103/1/56 107/4/52 109/1/56
f 107/4/52 103/1/56 104/4/52
f 113/1/51 112/4/51 111/1/51
f 112/4/51 113/1/51 114/4/51
f 112/4/52 116/4/53 115/4/52
f 116/4/53 112/4/52 114/4/53
f 115/4/54 118/1/54 117/1/54
f 118/1/54 115/4/54 116/4/54
f 114/4/53 118/1/55 116/4/53
f 118/1/55 114/4/53 113/1/55
f 111/1/56 115/4/52 117/1/56
f 115/4/52 111/1/56 112/4/52
f 121/1/51 120/4/51 119/1/51
f 120/4/51 121/1/51 122/4/51
f 120/4/52 124/4/53 123/4/52
f 124/4/53 120/4/52 122/4/53
f 123/4/54 126/1/54 125/1/54
f 126/1/54 123/4/54 124/4/54
f 122/4/53 126/1/55 124/4/53
f 126/1/55 122/4/53 121/1/55
f 119/1/56 123/4/52 125/1/56
f 123/4/52 119/1/56 120/4/52
f 3/2/1 2/1/1 1/1/1
f 2/1/1 3/2/1 4/2/1
f 5/3/2 4/2/2 3/2/2
f 4/2/2 5/3/2 6/3/2
f 8/1/3 2/1/3 7/1/3
f 2/1/3 8/1/3 1/1/3
f 1/1/3 8/1/3 9/1/3
f 1/1/3 9/1/3 10/1/3
f 1/1/3 10/1/3 11/1/3
f 12/3/5 4/2/4 6/3/4
f 4/2/4 12/3/5 13/2/6
f 12/3/5 14/2/7 13/2/6
f 14/2/7 12/3/5 15/3/8
f 16/3/9 14/2/7 15/3/8
f 14/2/7 16/3/9 17/2/9
f 18/3/10 17/2/9 16/3/9
f 17/2/9 18/3/10 19/2/11
f 20/3/12 19/2/11 18/3/10
f 19/2/11 20/3/12 21/2/13
f 20/3/12 3/2/14 21/2/13
f 3/2/14 20/3/12 5/3/14
f 1/1/15 21/2/16 3/2/15
f 21/2/16 1/1/15 11/1/17
f 11/1/17 19/2/18 21/2/16
f 19/2/18 11/1/17 10/1/19
f 9/1/20 19/2/18 10/1/19
f 19/2/18 9/1/20 17/2/20
f 8/1/21 17/2/20 9/1/20
f 17/2/20 8/1/21 14/2/22
f 7/1/23 14/2/22 8/1/21
f 14/2/22 7/1/23 13/2/24
f 7/1/23 4/2/25 13/2/24
f 4/2/25 7/1/23 2/1/25
f 24/4/26 23/4/26 22/4/26
f 24/4/26 22/4/26 25/4/26
f 26/4/26 23/4/26 24/4/26
f 24/4/26 25/4/26 27/4/26
f 26/4/26 28/4/26 23/4/26
f 27/4/26 25/4/26 29/4/26
f 30/4/26 28/4/26 26/4/26
f 29/4/26 31/4/26 27/4/26
f 32/4/26 31/4/26 29/4/26
f 32/4/26 33/4/26 31/4/26
f 30/4/26 34/4/26 28/4/26
f 33/4/26 32/4/26 34/4/26
f 35/4/26 34/4/26 30/4/26
f 34/4/26 35/4/26 33/4/26
f 38/1/27 37/4/27 36/1/27
f 37/4/27 38/1/27 39/4/27
f 39/4/27 38/1/27 40/5/27
f 43/4/28 42/1/28 41/4/28
f 42/1/28 43/4/28 44/1/28
f 44/1/28 43/4/28 45/5/28
f 45/5/30 38/1/29 44/1/29
f 38/1/29 45/5/30 40/5/30
f 43/4/31 40/5/30 45/5/30
f 40/5/30 43/4/31 39/4/31
f 41/4/26 39/4/31 43/4/31
f 39/4/31 41/4/26 37/4/26
f 48/6/26 47/6/26 46/6/26
f 47/6/26 49/6/26 46/6/26
f 50/6/26 49/6/26 47/6/26
f 51/6/26 49/6/26 50/6/26
f 50/6/26 52/6/26 51/6/26
f 49/6/26 51/6/26 53/6/26
f 49/6/32 55/1/32 54/1/32
f 55/1/32 49/6/32 53/6/32
f 56/1/33 49/6/27 54/1/27
f 49/6/27 56/1/33 46/6/33
f 57/1/34 46/6/33 56/1/33
f 46/6/33 57/1/34 47/6/34
f 57/1/34 50/6/35 47/6/34
f 50/6/35 57/1/34 58/1/35
f 59/1/36 50/6/35 58/1/35
f 50/6/35 59/1/36 51/6/36
f 55/1/28 51/6/36 59/1/36
f 51/6/36 55/1/28 53/6/28
f 58/1/3 55/1/3 59/1/3
f 55/1/3 58/1/3 54/1/3
f 54/1/3 58/1/3 57/1/3
f 54/1/3 57/1/3 56/1/3
f 31/8/32 6/7/32 5/7/32
f 6/7/32 31/8/32 33/8/32
f 30/8/37 16/7/29 15/7/37
f 16/7/29 30/8/37 26/8/29
f 30/8/37 12/7/38 35/8/38
f 12/7/38 30/8/37 15/7/37
f 26/8/29 18/7/39 16/7/29
f 18/7/39 26/8/29 24/8/39
f 18/7/39 27/8/40 20/7/40
f 27/8/40 18/7/39 24/8/39
f 22/8/42 60/9/41 25/8/41
f 60/9/41 22/8/42 61/9/42
f 63/9/44 34/8/43 62/9/43
f 34/8/43 63/9/44 28/8/44
f 23/8/32 63/9/44 64/9/32
f 63/9/44 23/8/32 28/8/44
f 22/8/42 64/9/32 61/9/42
f 64/9/32 22/8/42 23/8/32
f 32/8/29 66/9/29 65/9/29
f 66/9/29 32/8/29 29/8/29
f 35/8/28 6/7/28 33/8/28
f 6/7/28 35/8/28 12/7/28
f 20/7/27 31/8/27 5/7/27
f 31/8/27 20/7/27 27/8/27
f 65/9/26 63/9/26 62/9/26
f 63/9/26 65/9/26 66/9/26
f 63/9/26 66/9/26 64/9/26
f 64/9/26 66/9/26 61/9/26
f 61/9/26 66/9/26 60/9/26
f 62/9/27 32/8/27 65/9/27
f 32/8/27 62/9/27 34/8/27
f 25/8/28 66/9/28 29/8/28
f 66/9/28 25/8/28 60/9/28
f 69/8/35 68/10/34 67/10/35
f 68/10/34 69/8/35 70/8/34
f 69/8/35 72/10/36 71/8/36
f 72/10/36 69/8/35 67/10/35
f 68/10/34 74/8/33 73/10/33
f 74/8/33 68/10/34 70/8/34
f 77/8/45 76/10/46 75/10/45
f 76/10/46 77/8/45 78/8/46
f 79/8/47 76/10/46 78/8/46
f 76/10/46 79/8/47 80/10/47
f 81/10/48 77/8/45 75/10/45
f 77/8/45 81/10/48 82/8/48
f 73/10/33 82/8/48 81/10/48
f 82/8/48 73/10/33 74/8/33
f 78/8/26 71/8/26 79/8/26
f 71/8/26 78/8/26 69/8/26
f 69/8/26 78/8/26 77/8/26
f 69/8/26 77/8/26 70/8/26
f 70/8/26 77/8/26 82/8/26
f 70/8/26 82/8/26 74/8/26
f 71/8/36 80/10/47 79/8/47
f 80/10/47 71/8/36 72/10/36
f 67/10/3 80/10/3 72/10/3
f 80/10/3 67/10/3 76/10/3
f 76/10/3 67/10/3 52/10/3
f 52/10/3 67/10/3 68/10/3
f 53/10/3 76/10/3 52/10/3
f 53/10/3 52/10/3 51/10/3
f 52/10/3 68/10/3 50/10/3
f 76/10/3 53/10/3 75/10/3
f 50/10/3 68/10/3 47/10/3
f 47/10/3 68/10/3 48/10/3
f 48/10/3 68/10/3 46/10/3
f 46/10/3 68/10/3 49/10/3
f 75/10/3 53/10/3 49/10/3
f 75/10/3 49/10/3 68/10/3
f 75/10/3 68/10/3 73/10/3
f 75/10/3 73/10/3 81/10/3
f 85/12/30 84/11/29 83/11/29
f 84/11/29 85/12/30 86/12/30
f 87/8/31 86/12/30 85/12/30
f 86/12/30 87/8/31 88/8/31
f 91/12/49 90/11/32 89/11/32
f 90/11/32 91/12/49 92/12/49
f 93/8/50 88/8/31 87/8/31
f 88/8/31 93/8/50 94/8/50
f 92/12/49 94/8/50 93/8/50
f 94/8/50 92/12/49 91/12/49
f 84/11/27 91/12/27 89/11/27
f 91/12/27 84/11/27 94/8/27
f 94/8/27 84/11/27 88/8/27
f 88/8/27 84/11/27 86/12/27
f 93/8/28 90/11/28 92/12/28
f 90/11/28 93/8/28 83/11/28
f 83/11/28 93/8/28 87/8/28
f 83/11/28 87/8/28 85/12/28
f 97/1/51 96/4/51 95/1/51
f 96/4/51 97/1/51 98/4/51
f 96/4/52 100/4/53 99/4/52
f 100/4/53 96/4/52 98/4/53
f 99/4/54 102/1/54 101/1/54
f 102/1/54 99/4/54 100/4/54
f 98/4/53 102/1/55 100/4/53
f 102/1/55 98/4/53 97/1/55
f 95/1/56 99/4/52 101/1/56
f 99/4/52 95/1/56 96/4/52
f 105/1/51 104/4/51 103/1/51
f 104/4/51 105/1/51 106/4/51
f 104/4/52 108/4/53 107/4/52
f 108/4/53 104/4/52 106/4/53
f 107/4/54 110/1/54 109/1/54
f 110/1/54 107/4/54 108/4/54
f 106/4/53 110/1/55 108/4/53
f 110/1/55 106/4/53 105/1/55
f 103/1/56 107/4/52 109/1/56
f 107/4/52 103/1/56 104/4/52
f 113/1/51 112/4/51 111/1/51
f 112/4/51 113/1/51 114/4/51
f 112/4/52 116/4/53 115/4/52
f 116/4/53 112/4/52 114/4/53
f 115/4/54 118/1/54 117/1/54
f 118/1/54 115/4/54 116/4/54
f 114/4/53 118/1/55 116/4/53
f 118/1/55 114/4/53 113/1/55
f 111/1/56 115/4/52 117/1/56
f 115/4/52 111/1/56 112/4/52
f 121/1/51 120/4/51 119/1/51
f 120/4/51 121/1/51 122/4/51
f 120/4/52 124/4/53 123/4/52
f 124/4/53 120/4/52 122/4/53
f 123/4/54 126/1/54 125/1/54
f 126/1/54 123/4/54 124/4/54
f 122/4/53 126/1/55 124/4/53
f 126/1/55 122/4/53 121/1/55
f 119/1/56 123/4/52 125/1/56
f 123/4/52 119/1/56 120/4/52
f 129/14/57 128/13/58 127/13/57
f 128/13/58 129/14/57 130/14/58
f 133/14/59 132/13/60 131/13/59
f 132/13/60 133/14/59 134/14/60
f 137/14/61 136/13/62 135/13/61
f 136/13/62 137/14/61 138/14/62
f 138/14/62 127/13/57 136/13/62
f 127/13/57 138/14/62 129/14/57
f 132/13/60 137/14/61 135/13/61
f 137/14/61 132/13/60 134/14/60
f 130/14/58 131/13/59 128/13/58
f 131/13/59 130/14/58 133/14/59
f 138/14/26 130/14/26 129/14/26
f 130/14/26 138/14/26 133/14/26
f 133/14/26 138/14/26 137/14/26
f 133/14/26 137/14/26 134/14/26
f 131/13/3 127/13/3 128/13/3
f 127/13/3 131/13/3 136/13/3
f 136/13/3 131/13/3 132/13/3
f 136/13/3 132/13/3 135/13/3
f 141/15/63 140/16/64 139/15/63
f 140/16/64 141/15/63 142/16/64
f 141/15/63 144/13/65 143/13/65
f 144/13/65 141/15/63 139/15/63
f 147/14/67 146/14/66 145/14/66
f 146/14/66 147/14/67 148/14/67
f 140/16/64 148/14/67 147/14/67
f 148/14/67 140/16/64 142/16/64
f 151/16/68 150/15/69 149/16/68
f 150/15/69 151/16/68 152/15/69
f 145/14/66 151/16/68 149/16/68
f 151/16/68 145/14/66 146/14/66
f 143/13/65 154/13/70 153/13/70
f 154/13/70 143/13/65 144/13/65
f 153/13/70 150/15/69 152/15/69
f 150/15/69 153/13/70 154/13/70
f 139/15/71 154/13/71 144/13/71
f 154/13/71 139/15/71 150/15/71
f 150/15/71 139/15/71 140/16/71
f 150/15/71 140/16/71 149/16/71
f 149/16/71 140/16/71 147/14/71
f 149/16/71 147/14/71 145/14/71
f 152/15/72 143/13/72 153/13/72
f 143/13/72 152/15/72 141/15/72
f 141/15/72 152/15/72 151/16/72
f 141/15/72 151/16/72 142/16/72
f 142/16/72 151/16/72 146/14/72
f 142/16/72 146/14/72 148/14/72
f 157/15/63 156/16/64 155/15/63
f 156/16/64 157/15/63 158/16/64
f 157/15/63 160/13/65 159/13/65
f 160/13/65 157/15/63 155/15/63
f 163/14/67 162/14/66 161/14/66
f 162/14/66 163/14/67 164/14/67
f 156/16/64 164/14/67 163/14/67
f 164/14/67 156/16/64 158/16/64
f 167/16/68 166/15/69 165/16/68
f 166/15/69 167/16/68 168/15/69
f 161/14/66 167/16/68 165/16/68
f 167/16/68 161/14/66 162/14/66
f 159/13/65 170/13/70 169/13/70
f 170/13/70 159/13/65 160/13/65
f 169/13/70 166/15/69 168/15/69
f 166/15/69 169/13/70 170/13/70
f 155/15/71 170/13/71 160/13/71
f 170/13/71 155/15/71 166/15/71
f 166/15/71 155/15/71 156/16/71
f 166/15/71 156/16/71 165/16/71
f 165/16/71 156/16/71 163/14/71
f 165/16/71 163/14/71 161/14/71
f 168/15/72 159/13/72 169/13/72
f 159/13/72 168/15/72 157/15/72
f 157/15/72 168/15/72 167/16/72
f 157/15/72 167/16/72 158/16/72
f 158/16/72 167/16/72 162/14/72
f 158/16/72 162/14/72 164/14/72
f 173/15/63 172/16/64 171/15/63
f 172/16/64 173/15/63 174/16/64
f 173/15/63 176/13/65 175/13/65
f 176/13/65 173/15/63 171/15/63
f 179/14/67 178/14/66 177/14/66
f 178/14/66 179/14/67 180/14/67
f 172/16/64 180/14/67 179/14/67
f 180/14/67 172/16/64 174/16/64
f 183/16/68 182/15/69 181/16/68
f 182/15/69 183/16/68 184/15/69
f 177/14/66 183/16/68 181/16/68
f 183/16/68 177/14/66 178/14/66
f 175/13/65 186/13/70 185/13/70
f 186/13/70 175/13/65 176/13/65
f 185/13/70 182/15/69 184/15/69
f 182/15/69 185/13/70 186/13/70
f 171/15/71 186/13/71 176/13/71
f 186/13/71 171/15/71 182/15/71
f 182/15/71 171/15/71 172/16/71
f 182/15/71 172/16/71 181/16/71
f 181/16/71 172/16/71 179/14/71
f 181/16/71 179/14/71 177/14/71
f 184/15/72 175/13/72 185/13/72
f 175/13/72 184/15/72 173/15/72
f 173/15/72 184/15/72 183/16/72
f 173/15/72 183/16/72 174/16/72
f 174/16/72 183/16/72 178/14/72
f 174/16/72 178/14/72 180/14/72
f 189/13/3 188/13/3 187/13/3
f 188/13/3 189/13/3 190/13/3
f 193/14/26 192/14/26 191/14/26
f 192/14/26 193/14/26 194/14/26
f 189/13/27 193/14/27 190/13/27
f 193/14/27 189/13/27 194/14/27
f 193/14/32 188/13/32 190/13/32
f 188/13/32 193/14/32 191/14/32
f 192/14/28 188/13/28 191/14/28
f 188/13/28 192/14/28 187/13/28
f 192/14/29 189/13/29 187/13/29
f 189/13/29 192/14/29 194/14/29
f 197/15/73 196/16/74 195/15/73
f 196/16/74 197/15/73 198/16/74
f 197/15/73 200/13/75 199/13/75
f 200/13/75 197/15/73 195/15/73
f 203/14/77 202/14/76 201/14/76
f 202/14/76 203/14/77 204/14/77
f 196/16/74 204/14/77 203/14/77
f 204/14/77 196/16/74 198/16/74
f 207/16/78 206/15/79 205/16/78
f 206/15/79 207/16/78 208/15/79
f 201/14/76 207/16/78 205/16/78
f 207/16/78 201/14/76 202/14/76
f 199/13/75 210/13/80 209/13/80
f 210/13/80 199/13/75 200/13/75
f 209/13/80 206/15/79 208/15/79
f 206/15/79 209/13/80 210/13/80
f 195/15/32 210/13/32 200/13/32
f 210/13/32 195/15/32 206/15/32
f 206/15/32 195/15/32 196/16/32
f 206/15/32 196/16/32 205/16/32
f 205/16/32 196/16/32 203/14/32
f 205/16/32 203/14/32 201/14/32
f 208/15/29 199/13/29 209/13/29
f 199/13/29 208/15/29 197/15/29
f 197/15/29 208/15/29 207/16/29
f 197/15/29 207/16/29 198/16/29
f 198/16/29 207/16/29 202/14/29
f 198/16/29 202/14/29 204/14/29
f 213/1/3 212/1/3 211/1/3
f 212/1/3 213/1/3 214/1/3
f 215/4/32 212/1/32 214/1/32
f 212/1/32 215/4/32 216/4/32
f 212/1/28 217/17/82 211/1/81
f 217/17/82 213/1/83 211/1/81
f 212/1/28 218/18/84 217/17/82
f 218/18/84 212/1/28 216/4/85
f 213/1/83 217/17/82 219/17/86
f 218/18/84 219/17/86 217/17/82
f 219/17/86 214/1/27 213/1/83
f 216/4/85 220/18/87 218/18/84
f 219/17/86 218/18/84 220/18/87
f 220/18/87 214/1/27 219/17/86
f 220/18/87 216/4/85 215/4/88
f 214/1/27 220/18/87 215/4/88
f 223/1/3 222/1/3 221/1/3
f 222/1/3 223/1/3 224/1/3
f 225/4/29 223/1/29 221/1/29
f 223/1/29 225/4/29 226/4/29
f 221/1/28 227/19/90 225/4/89
f 227/19/90 226/4/91 225/4/89
f 221/1/28 228/20/92 227/19/90
f 228/20/92 221/1/28 222/1/93
f 226/4/91 227/19/90 229/19/94
f 228/20/92 229/19/94 227/19/90
f 229/19/94 223/1/27 226/4/91
f 222/1/93 230/20/95 228/20/92
f 229/19/94 228/20/92 230/20/95
f 230/20/95 223/1/27 229/19/94
f 230/20/95 222/1/93 224/1/96
f 223/1/27 230/20/95 224/1/96
