mtllib boat-fishing.mtl
v -0.408000 0.000000 -1.735000
v 0.408000 0.000000 -1.735000
v -0.680000 0.300000 -1.935000
v 0.680000 0.300000 -1.935000
v -0.223200 0.000000 1.021000
v -0.408000 0.000000 0.865000
v -0.372000 0.300000 1.485000
v -0.680000 0.300000 1.225000
v 0.372000 0.300000 1.485000
v 0.000000 0.300000 1.585000
v 0.488250 0.700000 1.803750
v 0.000000 0.700000 1.935000
v 0.223200 0.000000 1.021000
v 0.000000 0.000000 1.081000
v 0.892500 0.700000 -1.935000
v 0.892500 0.700000 1.462500
v 0.680000 0.300000 1.225000
v -0.892500 0.700000 -1.935000
v -0.892500 0.700000 1.462500
v -0.488250 0.700000 1.803750
v 0.408000 0.000000 0.865000
v 0.592500 0.800000 0.065000
v 0.592500 1.500000 0.065000
v -0.592500 0.800000 0.065000
v -0.592500 1.500000 0.065000
v 0.592500 1.500000 0.851687
v 0.592500 0.800000 0.851687
v 0.533921 1.500000 0.993108
v 0.533921 0.800000 0.993108
v 0.533921 1.150000 0.993108
v -0.592500 0.800000 0.851687
v -0.592500 1.500000 0.851687
v -0.533921 0.800000 0.993108
v -0.533921 1.500000 0.993108
v -0.533921 1.150000 0.993108
v -0.392500 0.800000 1.051687
v -0.392500 1.150000 1.051687
v 0.392500 0.800000 1.051687
v 0.392500 1.150000 1.051687
v 0.194580 0.800000 1.386247
v -0.194580 0.800000 1.386247
v 0.194580 0.950000 1.386247
v -0.194580 0.950000 1.386247
v 0.282000 0.800000 1.051687
v 0.282000 1.000000 1.051687
v -0.282000 1.000000 1.051687
v -0.282000 0.800000 1.051687
v 0.555000 2.600000 -0.347500
v 0.555000 2.600000 -0.272500
v 0.480000 2.600000 -0.347500
v 0.480000 2.600000 -0.272500
v 0.442500 0.800000 -0.385000
v 0.592500 0.800000 -0.385000
v 0.592500 0.800000 -0.235000
v 0.442500 0.800000 -0.235000
v -0.480000 2.600000 -0.347500
v -0.480000 2.600000 -0.272500
v -0.555000 2.600000 -0.347500
v -0.555000 2.600000 -0.272500
v -0.592500 0.800000 -0.385000
v -0.442500 0.800000 -0.385000
v -0.442500 0.800000 -0.235000
v -0.592500 0.800000 -0.235000
v -0.292500 0.800000 -1.935000
v -0.892500 1.000000 -1.935000
v -0.292500 0.900000 -1.935000
v -0.492500 1.000000 -1.935000
v 0.292500 0.800000 -1.935000
v 0.892500 1.000000 -1.935000
v 0.292500 0.900000 -1.935000
v 0.492500 1.000000 -1.935000
v -0.692500 0.800000 1.369599
v -0.393293 0.800000 1.622176
v -0.692500 1.000000 1.369599
v -0.393293 1.000000 1.622176
v 0.000000 0.800000 1.727900
v 0.000000 1.000000 1.727900
v 0.393293 0.800000 1.622176
v 0.393293 1.000000 1.622176
v 0.692500 0.800000 1.369599
v 0.692500 1.000000 1.369599
v -0.292500 0.800000 -1.735000
v -0.692500 0.800000 -1.735000
v -0.292500 0.900000 -1.735000
v -0.692500 1.000000 -1.735000
v -0.492500 1.000000 -1.735000
v 0.692500 0.800000 -1.735000
v 0.292500 0.800000 -1.735000
v 0.692500 1.000000 -1.735000
v 0.292500 0.900000 -1.735000
v 0.492500 1.000000 -1.735000
v 0.488250 1.000000 1.803750
v 0.000000 1.000000 1.935000
v -0.488250 1.000000 1.803750
v -0.892500 1.000000 1.462500
v 0.892500 1.000000 1.462500
v -0.432283 1.500000 1.251687
v -0.686995 1.500000 1.146181
v -0.432283 1.700000 1.251687
v -0.686995 1.700000 1.146181
v 0.432283 1.500000 1.251687
v 0.432283 1.700000 1.251687
v 0.686995 1.500000 1.146181
v 0.686995 1.700000 1.146181
v 0.792500 1.700000 0.891469
v 0.792500 1.500000 0.891469
v -0.792500 1.500000 0.891469
v -0.792500 1.700000 0.891469
v 0.692500 1.700000 -0.135000
v 0.692500 1.500000 -0.135000
v 0.792500 1.700000 -0.035000
v 0.792500 1.500000 -0.035000
v -0.692500 1.500000 -0.135000
v -0.692500 1.700000 -0.135000
v -0.792500 1.500000 -0.035000
v -0.792500 1.700000 -0.035000
v 0.392500 1.500000 1.051687
v -0.392500 1.500000 1.051687
v -0.200000 1.750000 0.651687
v -0.200000 1.700000 0.651687
v -0.200000 1.800000 0.251687
v -0.200000 1.700000 0.251687
v 0.200000 1.700000 0.651687
v 0.200000 1.750000 0.651687
v 0.200000 1.700000 0.251687
v 0.200000 1.800000 0.251687
v 0.892500 1.000000 -0.677295
v 0.892500 1.100000 -0.777295
v 0.892500 1.000000 -1.177295
v 0.892500 1.100000 -1.077295
v 0.692500 1.100000 -0.777295
v 0.692500 1.100000 -1.077295
v 0.692500 1.000000 -0.677295
v 0.692500 1.000000 -1.177295
v -0.692500 1.000000 -0.677295
v -0.692500 1.100000 -0.777295
v -0.692500 1.000000 -1.177295
v -0.692500 1.100000 -1.077295
v -0.892500 1.100000 -0.777295
v -0.892500 1.100000 -1.077295
v -0.892500 1.000000 -0.677295
v -0.892500 1.000000 -1.177295
vn 0.000000 -0.554700 -0.832050
vn -0.257795 -0.846977 0.464942
vn -0.614369 -0.768993 0.176638
vn -0.236947 -0.848734 0.472764
vn -0.509689 -0.810035 0.289931
vn 0.364175 -0.642844 0.673890
vn 0.000000 -0.658505 0.752577
vn 0.347397 -0.644064 0.681540
vn 0.236947 -0.848734 0.472764
vn 0.257795 -0.846977 0.464942
vn 0.000000 -0.859293 0.511484
vn 0.883116 -0.469155 0.000000
vn 0.706938 -0.598928 0.376197
vn 0.769315 -0.574561 0.279347
vn -0.883116 -0.469155 0.000000
vn -0.769315 -0.574561 0.279347
vn -0.706938 -0.598928 0.376197
vn -0.740833 -0.671689 0.000000
vn -0.364175 -0.642844 0.673890
vn -0.347397 -0.644064 0.681540
vn 0.509689 -0.810035 0.289931
vn 0.614369 -0.768993 0.176638
vn 0.740833 -0.671689 0.000000
vn 0.000000 -1.000000 0.000000
vn 0.000000 0.000000 -1.000000
vn 0.980785 0.000000 0.195090
vn 0.923879 0.000000 0.382683
vn -0.980785 0.000000 0.195090
vn -0.923879 0.000000 0.382683
vn -0.195090 0.000000 0.980785
vn -0.382683 0.000000 0.923879
vn 0.195090 0.000000 0.980785
vn 0.382683 0.000000 0.923879
vn -1.000000 0.000000 0.000000
vn 1.000000 0.000000 0.000000
vn -0.000000 0.000000 1.000000
vn -0.000000 0.699951 0.714191
vn 0.967516 0.000000 0.252810
vn -0.000000 0.989016 0.147809
vn -0.967516 0.000000 0.252810
vn 0.000000 1.000000 0.000000
vn -0.706800 0.029450 -0.706800
vn 0.706800 0.029450 -0.706800
vn 0.706800 0.029450 0.706800
vn -0.706800 0.029450 0.706800
vn 0.645052 0.000000 -0.764139
vn 0.463420 0.000000 -0.886139
vn -0.463420 0.000000 -0.886139
vn -0.645052 0.000000 -0.764139
vn 0.000000 0.000000 1.000000
vn 0.850651 0.525731 0.000000
vn 0.447214 0.894427 0.000000
vn -0.850651 0.525731 0.000000
vn -0.447214 0.894427 0.000000
vn 0.463420 0.000000 0.886139
vn -0.463420 0.000000 0.886139
vn -0.906932 0.000000 0.421277
vn 0.906932 0.000000 0.421277
vn -0.707107 0.000000 0.707107
vn 0.707107 0.000000 0.707107
vn 0.382683 0.000000 -0.923879
vn 0.923879 0.000000 -0.382683
vn -0.382683 0.000000 -0.923879
vn -0.923879 0.000000 -0.382683
vn -1.000000 0.000000 -0.000000
vn -0.000000 0.661802 0.749678
vn 1.000000 0.000000 0.000000
vn 0.000000 0.000000 -1.000000
vn -0.000000 0.992278 0.124035
vn 1.000000 0.000000 0.000000
vn -0.000000 0.923879 0.382683
vn 0.000000 0.923879 -0.382683
vn -1.000000 0.000000 -0.000000
vn 0.000000 0.707107 -0.707107
vn -0.000000 0.707107 0.707107
usemtl colormap
f 3/2/1 2/1/1 1/1/1
f 2/1/1 3/2/1 4/2/1
f 7/2/4 6/1/3 5/1/2
f 6/1/3 7/2/4 8/2/5
f 11/3/8 10/2/7 9/2/6
f 10/2/7 11/3/8 12/3/7
f 10/2/11 13/1/10 9/2/9
f 13/1/10 10/2/11 14/1/11
f 7/2/4 14/1/11 10/2/11
f 14/1/11 7/2/4 5/1/2
f 16/3/13 4/2/12 15/3/12
f 4/2/12 16/3/13 17/2/14
f 8/2/16 18/3/15 3/2/15
f 18/3/15 8/2/16 19/3/17
f 1/1/18 8/2/5 3/2/18
f 8/2/5 1/1/18 6/1/3
f 20/3/20 8/2/16 7/2/19
f 8/2/16 20/3/20 19/3/17
f 9/2/9 21/1/22 17/2/21
f 21/1/22 9/2/9 13/1/10
f 11/3/8 17/2/14 16/3/13
f 17/2/14 11/3/8 9/2/6
f 17/2/21 2/1/23 4/2/23
f 2/1/23 17/2/21 21/1/22
f 13/1/24 2/1/24 21/1/24
f 2/1/24 13/1/24 1/1/24
f 1/1/24 13/1/24 14/1/24
f 1/1/24 14/1/24 5/1/24
f 1/1/24 5/1/24 6/1/24
f 12/3/7 7/2/19 10/2/7
f 7/2/19 12/3/7 20/3/20
f 24/1/25 23/4/25 22/1/25
f 23/4/25 24/1/25 25/4/25
f 28/4/27 27/1/26 26/4/26
f 27/1/26 28/4/27 29/1/27
f 29/1/27 28/4/27 30/5/27
f 33/1/29 32/4/28 31/1/28
f 32/4/28 33/1/29 34/4/29
f 34/4/29 33/1/29 35/5/29
f 37/5/30 33/1/31 36/1/30
f 33/1/31 37/5/30 35/5/31
f 39/5/32 36/1/30 38/1/32
f 36/1/30 39/5/32 37/5/30
f 30/5/33 38/1/32 29/1/33
f 38/1/32 30/5/33 39/5/32
f 31/1/28 25/4/34 24/1/34
f 25/4/34 31/1/28 32/4/28
f 26/4/26 22/1/35 23/4/35
f 22/1/35 26/4/26 27/1/26
f 42/6/37 41/1/36 40/1/36
f 41/1/36 42/6/37 43/6/37
f 44/1/38 42/6/38 40/1/38
f 42/6/38 44/1/38 45/7/38
f 43/6/37 45/7/39 46/7/39
f 45/7/39 43/6/37 42/6/37
f 46/7/40 41/1/40 43/6/40
f 41/1/40 46/7/40 47/1/40
f 50/7/41 49/7/41 48/7/41
f 49/7/41 50/7/41 51/7/41
f 50/7/42 53/1/43 52/1/42
f 53/1/43 50/7/42 48/7/43
f 49/7/44 55/1/45 54/1/44
f 55/1/45 49/7/44 51/7/45
f 48/7/43 54/1/44 53/1/43
f 54/1/44 48/7/43 49/7/44
f 55/1/45 50/7/42 52/1/42
f 50/7/42 55/1/45 51/7/45
f 58/7/41 57/7/41 56/7/41
f 57/7/41 58/7/41 59/7/41
f 58/7/42 61/1/43 60/1/42
f 61/1/43 58/7/42 56/7/43
f 57/7/44 63/1/45 62/1/44
f 63/1/45 57/7/44 59/7/45
f 56/7/43 62/1/44 61/1/43
f 62/1/44 56/7/43 57/7/44
f 63/1/45 58/7/42 60/1/42
f 58/7/42 63/1/45 59/7/45
f 18/9/25 4/8/25 3/8/25
f 4/8/25 18/9/25 15/9/25
f 15/9/25 18/9/25 64/10/25
f 64/10/25 18/9/25 65/11/25
f 64/10/25 65/11/25 66/12/25
f 66/12/25 65/11/25 67/11/25
f 68/10/25 15/9/25 64/10/25
f 15/9/25 68/10/25 69/11/25
f 69/11/25 68/10/25 70/12/25
f 69/11/25 70/12/25 71/11/25
f 74/11/46 73/10/47 72/10/46
f 73/10/47 74/11/46 75/11/47
f 75/11/47 76/10/25 73/10/47
f 76/10/25 75/11/47 77/11/25
f 77/11/25 78/10/48 76/10/25
f 78/10/48 77/11/25 79/11/48
f 78/10/48 81/11/49 80/10/49
f 81/11/49 78/10/48 79/11/48
f 84/12/50 83/10/50 82/10/50
f 83/10/50 84/12/50 85/11/50
f 85/11/50 84/12/50 86/11/50
f 89/11/50 88/10/50 87/10/50
f 88/10/50 89/11/50 90/12/50
f 90/12/50 89/11/50 91/11/50
f 66/12/51 86/11/52 84/12/51
f 86/11/52 66/12/51 67/11/52
f 84/12/51 64/10/35 66/12/51
f 64/10/35 84/12/51 82/10/35
f 68/10/34 90/12/53 70/12/53
f 90/12/53 68/10/34 88/10/34
f 71/11/54 90/12/53 91/11/54
f 90/12/53 71/11/54 70/12/53
f 92/11/55 12/9/50 11/9/55
f 12/9/50 92/11/55 93/11/50
f 94/11/56 19/9/57 20/9/56
f 19/9/57 94/11/56 95/11/57
f 80/10/34 89/11/34 87/10/34
f 89/11/34 80/10/34 81/11/34
f 89/11/41 71/11/41 91/11/41
f 89/11/41 69/11/41 71/11/41
f 69/11/41 89/11/41 81/11/41
f 81/11/41 96/11/41 69/11/41
f 96/11/41 81/11/41 92/11/41
f 92/11/41 81/11/41 79/11/41
f 92/11/41 79/11/41 93/11/41
f 93/11/41 79/11/41 77/11/41
f 93/11/41 77/11/41 94/11/41
f 94/11/41 77/11/41 75/11/41
f 94/11/41 75/11/41 74/11/41
f 94/11/41 74/11/41 95/11/41
f 95/11/41 74/11/41 85/11/41
f 85/11/41 65/11/41 95/11/41
f 85/11/41 67/11/41 65/11/41
f 67/11/41 85/11/41 86/11/41
f 96/11/58 11/9/55 16/9/58
f 11/9/55 96/11/58 92/11/55
f 74/11/35 83/10/35 85/11/35
f 83/10/35 74/11/35 72/10/35
f 96/11/58 15/9/35 69/11/35
f 15/9/35 96/11/58 16/9/58
f 93/11/50 20/9/56 12/9/50
f 20/9/56 93/11/50 94/11/56
f 19/9/57 65/11/34 18/9/34
f 65/11/34 19/9/57 95/11/57
f 99/11/30 98/13/59 97/13/30
f 98/13/59 99/11/30 100/11/59
f 102/11/32 97/13/30 101/13/32
f 97/13/30 102/11/32 99/11/30
f 104/11/60 101/13/32 103/13/60
f 101/13/32 104/11/60 102/11/32
f 104/11/60 106/13/26 105/11/26
f 106/13/26 104/11/60 103/13/60
f 98/13/59 108/11/28 107/13/28
f 108/11/28 98/13/59 100/11/59
f 111/11/62 110/13/61 109/11/61
f 110/13/61 111/11/62 112/13/62
f 114/11/63 110/13/61 113/13/63
f 110/13/61 114/11/63 109/11/61
f 115/13/64 114/11/63 113/13/63
f 114/11/63 115/13/64 116/11/64
f 107/13/28 116/11/64 115/13/64
f 116/11/64 107/13/28 108/11/28
f 103/13/24 112/13/24 106/13/24
f 112/13/24 103/13/24 110/13/24
f 110/13/24 103/13/24 23/13/24
f 110/13/24 23/13/24 113/13/24
f 23/13/24 103/13/24 26/13/24
f 113/13/24 23/13/24 25/13/24
f 101/13/24 26/13/24 103/13/24
f 26/13/24 101/13/24 28/13/24
f 28/13/24 101/13/24 117/13/24
f 117/13/24 101/13/24 97/13/24
f 117/13/24 97/13/24 118/13/24
f 118/13/24 97/13/24 34/13/24
f 34/13/24 97/13/24 98/13/24
f 34/13/24 98/13/24 32/13/24
f 113/13/24 25/13/24 32/13/24
f 113/13/24 32/13/24 98/13/24
f 113/13/24 98/13/24 107/13/24
f 113/13/24 107/13/24 115/13/24
f 109/11/41 105/11/41 111/11/41
f 105/11/41 109/11/41 104/11/41
f 104/11/41 109/11/41 114/11/41
f 104/11/41 114/11/41 102/11/41
f 102/11/41 114/11/41 99/11/41
f 99/11/41 114/11/41 100/11/41
f 100/11/41 114/11/41 108/11/41
f 108/11/41 114/11/41 116/11/41
f 105/11/26 112/13/62 111/11/62
f 112/13/62 105/11/26 106/13/26
f 121/11/65 120/15/65 119/14/65
f 120/15/65 121/11/65 122/15/65
f 124/14/66 120/15/36 123/15/36
f 120/15/36 124/14/66 119/14/66
f 125/15/67 124/14/67 123/15/67
f 124/14/67 125/15/67 126/11/67
f 121/11/68 125/15/68 122/15/68
f 125/15/68 121/11/68 126/11/68
f 124/14/66 121/11/69 119/14/66
f 121/11/69 124/14/66 126/11/69
f 129/16/70 128/17/70 127/16/70
f 128/17/70 129/16/70 130/17/70
f 128/17/71 132/17/72 131/17/71
f 132/17/72 128/17/71 130/17/72
f 131/17/73 134/16/73 133/16/73
f 134/16/73 131/17/73 132/17/73
f 130/17/72 134/16/74 132/17/72
f 134/16/74 130/17/72 129/16/74
f 127/16/75 131/17/71 133/16/75
f 131/17/71 127/16/75 128/17/71
f 137/16/70 136/17/70 135/16/70
f 136/17/70 137/16/70 138/17/70
f 136/17/71 140/17/72 139/17/71
f 140/17/72 136/17/71 138/17/72
f 139/17/73 142/16/73 141/16/73
f 142/16/73 139/17/73 140/17/73
f 138/17/72 142/16/74 140/17/72
f 142/16/74 138/17/72 137/16/74
f 135/16/75 139/17/71 141/16/75
f 139/17/71 135/16/75 136/17/71
f 9/2/24 4/2/24 17/2/24
f 4/2/24 9/2/24 3/2/24
f 3/2/24 9/2/24 10/2/24
f 3/2/24 10/2/24 7/2/24
f 3/2/24 7/2/24 8/2/24
f 87/18/41 78/18/41 80/18/41
f 78/18/41 87/18/41 88/18/41
f 78/18/41 88/18/41 76/18/41
f 76/18/41 88/18/41 68/18/41
f 76/18/41 68/18/41 64/18/41
f 76/18/41 64/18/41 82/18/41
f 82/18/41 73/18/41 76/18/41
f 73/18/41 82/18/41 83/18/41
f 73/18/41 83/18/41 72/18/41
f 28/20/33 39/19/32 30/19/33
f 39/19/32 28/20/33 117/20/32
f 118/20/30 35/19/31 37/19/30
f 35/19/31 118/20/30 34/20/31
f 117/20/32 37/19/30 39/19/32
f 37/19/30 117/20/32 118/20/30
f 3/2/1 2/1/1 1/1/1
f 2/1/1 3/2/1 4/2/1
f 7/2/4 6/1/3 5/1/2
f 6/1/3 7/2/4 8/2/5
f 11/3/8 10/2/7 9/2/6
f 10/2/7 11/3/8 12/3/7
f 10/2/11 13/1/10 9/2/9
f 13/1/10 10/2/11 14/1/11
f 7/2/4 14/1/11 10/2/11
f 14/1/11 7/2/4 5/1/2
f 16/3/13 4/2/12 15/3/12
f 4/2/12 16/3/13 17/2/14
f 8/2/16 18/3/15 3/2/15
f 18/3/15 8/2/16 19/3/17
f 1/1/18 8/2/5 3/2/18
f 8/2/5 1/1/18 6/1/3
f 20/3/20 8/2/16 7/2/19
f 8/2/16 20/3/20 19/3/17
f 9/2/9 21/1/22 17/2/21
f 21/1/22 9/2/9 13/1/10
f 11/3/8 17/2/14 16/3/13
f 17/2/14 11/3/8 9/2/6
f 17/2/21 2/1/23 4/2/23
f 2/1/23 17/2/21 21/1/22
f 13/1/24 2/1/24 21/1/24
f 2/1/24 13/1/24 1/1/24
f 1/1/24 13/1/24 14/1/24
f 1/1/24 14/1/24 5/1/24
f 1/1/24 5/1/24 6/1/24
f 12/3/7 7/2/19 10/2/7
f 7/2/19 12/3/7 20/3/20
f 24/1/25 23/4/25 22/1/25
f 23/4/25 24/1/25 25/4/25
f 28/4/27 27/1/26 26/4/26
f 27/1/26 28/4/27 29/1/27
f 29/1/27 28/4/27 30/5/27
f 33/1/29 32/4/28 31/1/28
f 32/4/28 33/1/29 34/4/29
f 34/4/29 33/1/29 35/5/29
f 37/5/30 33/1/31 36/1/30
f 33/1/31 37/5/30 35/5/31
f 39/5/32 36/1/30 38/1/32
f 36/1/30 39/5/32 37/5/30
f 30/5/33 38/1/32 29/1/33
f 38/1/32 30/5/33 39/5/32
f 31/1/28 25/4/34 24/1/34
f 25/4/34 31/1/28 32/4/28
f 26/4/26 22/1/35 23/4/35
f 22/1/35 26/4/26 27/1/26
f 42/6/37 41/1/36 40/1/36
f 41/1/36 42/6/37 43/6/37
f 44/1/38 42/6/38 40/1/38
f 42/6/38 44/1/38 45/7/38
f 43/6/37 45/7/39 46/7/39
f 45/7/39 43/6/37 42/6/37
f 46/7/40 41/1/40 43/6/40
f 41/1/40 46/7/40 47/1/40
f 50/7/41 49/7/41 48/7/41
f 49/7/41 50/7/41 51/7/41
f 50/7/42 53/1/43 52/1/42
f 53/1/43 50/7/42 48/7/43
f 49/7/44 55/1/45 54/1/44
f 55/1/45 49/7/44 51/7/45
f 48/7/43 54/1/44 53/1/43
f 54/1/44 48/7/43 49/7/44
f 55/1/45 50/7/42 52/1/42
f 50/7/42 55/1/45 51/7/45
f 58/7/41 57/7/41 56/7/41
f 57/7/41 58/7/41 59/7/41
f 58/7/42 61/1/43 60/1/42
f 61/1/43 58/7/42 56/7/43
f 57/7/44 63/1/45 62/1/44
f 63/1/45 57/7/44 59/7/45
f 56/7/43 62/1/44 61/1/43
f 62/1/44 56/7/43 57/7/44
f 63/1/45 58/7/42 60/1/42
f 58/7/42 63/1/45 59/7/45
f 18/9/25 4/8/25 3/8/25
f 4/8/25 18/9/25 15/9/25
f 15/9/25 18/9/25 64/10/25
f 64/10/25 18/9/25 65/11/25
f 64/10/25 65/11/25 66/12/25
f 66/12/25 65/11/25 67/11/25
f 68/10/25 15/9/25 64/10/25
f 15/9/25 68/10/25 69/11/25
f 69/11/25 68/10/25 70/12/25
f 69/11/25 70/12/25 71/11/25
f 74/11/46 73/10/47 72/10/46
f 73/10/47 74/11/46 75/11/47
f 75/11/47 76/10/25 73/10/47
f 76/10/25 75/11/47 77/11/25
f 77/11/25 78/10/48 76/10/25
f 78/10/48 77/11/25 79/11/48
f 78/10/48 81/11/49 80/10/49
f 81/11/49 78/10/48 79/11/48
f 84/12/50 83/10/50 82/10/50
f 83/10/50 84/12/50 85/11/50
f 85/11/50 84/12/50 86/11/50
f 89/11/50 88/10/50 87/10/50
f 88/10/50 89/11/50 90/12/50
f 90/12/50 89/11/50 91/11/50
f 66/12/51 86/11/52 84/12/51
f 86/11/52 66/12/51 67/11/52
f 84/12/51 64/10/35 66/12/51
f 64/10/35 84/12/51 82/10/35
f 68/10/34 90/12/53 70/12/53
f 90/12/53 68/10/34 88/10/34
f 71/11/54 90/12/53 91/11/54
f 90/12/53 71/11/54 70/12/53
f 92/11/55 12/9/50 11/9/55
f 12/9/50 92/11/55 93/11/50
f 94/11/56 19/9/57 20/9/56
f 19/9/57 94/11/56 95/11/57
f 80/10/34 89/11/34 87/10/34
f 89/11/34 80/10/34 81/11/34
f 89/11/41 71/11/41 91/11/41
f 89/11/41 69/11/41 71/11/41
f 69/11/41 89/11/41 81/11/41
f 81/11/41 96/11/41 69/11/41
f 96/11/41 81/11/41 92/11/41
f 92/11/41 81/11/41 79/11/41
f 92/11/41 79/11/41 93/11/41
f 93/11/41 79/11/41 77/11/41
f 93/11/41 77/11/41 94/11/41
f 94/11/41 77/11/41 75/11/41
f 94/11/41 75/11/41 74/11/41
f 94/11/41 74/11/41 95/11/41
f 95/11/41 74/11/41 85/11/41
f 85/11/41 65/11/41 95/11/41
f 85/11/41 67/11/41 65/11/41
f 67/11/41 85/11/41 86/11/41
f 96/11/58 11/9/55 16/9/58
f 11/9/55 96/11/58 92/11/55
f 74/11/35 83/10/35 85/11/35
f 83/10/35 74/11/35 72/10/35
f 96/11/58 15/9/35 69/11/35
f 15/9/35 96/11/58 16/9/58
f 93/11/50 20/9/56 12/9/50
f 20/9/56 93/11/50 94/11/56
f 19/9/57 65/11/34 18/9/34
f 65/11/34 19/9/57 95/11/57
f 99/11/30 98/13/59 97/13/30
f 98/13/59 99/11/30 100/11/59
f 102/11/32 97/13/30 101/13/32
f 97/13/30 102/11/32 99/11/30
f 104/11/60 101/13/32 103/13/60
f 101/13/32 104/11/60 102/11/32
f 104/11/60 106/13/26 105/11/26
f 106/13/26 104/11/60 103/13/60
f 98/13/59 108/11/28 107/13/28
f 108/11/28 98/13/59 100/11/59
f 111/11/62 110/13/61 109/11/61
f 110/13/61 111/11/62 112/13/62
f 114/11/63 110/13/61 113/13/63
f 110/13/61 114/11/63 109/11/61
f 115/13/64 114/11/63 113/13/63
f 114/11/63 115/13/64 116/11/64
f 107/13/28 116/11/64 115/13/64
f 116/11/64 107/13/28 108/11/28
f 103/13/24 112/13/24 106/13/24
f 112/13/24 103/13/24 110/13/24
f 110/13/24 103/13/24 23/13/24
f 110/13/24 23/13/24 113/13/24
f 23/13/24 103/13/24 26/13/24
f 113/13/24 23/13/24 25/13/24
f 101/13/24 26/13/24 103/13/24
f 26/13/24 101/13/24 28/13/24
f 28/13/24 101/13/24 117/13/24
f 117/13/24 101/13/24 97/13/24
f 117/13/24 97/13/24 118/13/24
f 118/13/24 97/13/24 34/13/24
f 34/13/24 97/13/24 98/13/24
f 34/13/24 98/13/24 32/13/24
f 113/13/24 25/13/24 32/13/24
f 113/13/24 32/13/24 98/13/24
f 113/13/24 98/13/24 107/13/24
f 113/13/24 107/13/24 115/13/24
f 109/11/41 105/11/41 111/11/41
f 105/11/41 109/11/41 104/11/41
f 104/11/41 109/11/41 114/11/41
f 104/11/41 114/11/41 102/11/41
f 102/11/41 114/11/41 99/11/41
f 99/11/41 114/11/41 100/11/41
f 100/11/41 114/11/41 108/11/41
f 108/11/41 114/11/41 116/11/41
f 105/11/26 112/13/62 111/11/62
f 112/13/62 105/11/26 106/13/26
f 121/11/65 120/15/65 119/14/65
f 120/15/65 121/11/65 122/15/65
f 124/14/66 120/15/36 123/15/36
f 120/15/36 124/14/66 119/14/66
f 125/15/67 124/14/67 123/15/67
f 124/14/67 125/15/67 126/11/67
f 121/11/68 125/15/68 122/15/68
f 125/15/68 121/11/68 126/11/68
f 124/14/66 121/11/69 119/14/66
f 121/11/69 124/14/66 126/11/69
f 129/16/70 128/17/70 127/16/70
f 128/17/70 129/16/70 130/17/70
f 128/17/71 132/17/72 131/17/71
f 132/17/72 128/17/71 130/17/72
f 131/17/73 134/16/73 133/16/73
f 134/16/73 131/17/73 132/17/73
f 130/17/72 134/16/74 132/17/72
f 134/16/74 130/17/72 129/16/74
f 127/16/75 131/17/71 133/16/75
f 131/17/71 127/16/75 128/17/71
f 137/16/70 136/17/70 135/16/70
f 136/17/70 137/16/70 138/17/70
f 136/17/71 140/17/72 139/17/71
f 140/17/72 136/17/71 138/17/72
f 139/17/73 142/16/73 141/16/73
f 142/16/73 139/17/73 140/17/73
f 138/17/72 142/16/74 140/17/72
f 142/16/74 138/17/72 137/16/74
f 135/16/75 139/17/71 141/16/75
f 139/17/71 135/16/75 136/17/71
f 9/2/24 4/2/24 17/2/24
f 4/2/24 9/2/24 3/2/24
f 3/2/24 9/2/24 10/2/24
f 3/2/24 10/2/24 7/2/24
f 3/2/24 7/2/24 8/2/24
f 87/18/41 78/18/41 80/18/41
f 78/18/41 87/18/41 88/18/41
f 78/18/41 88/18/41 76/18/41
f 76/18/41 88/18/41 68/18/41
f 76/18/41 68/18/41 64/18/41
f 76/18/41 64/18/41 82/18/41
f 82/18/41 73/18/41 76/18/41
f 73/18/41 82/18/41 83/18/41
f 73/18/41 83/18/41 72/18/41
f 28/20/33 39/19/32 30/19/33
f 39/19/32 28/20/33 117/20/32
f 118/20/30 35/19/31 37/19/30
f 35/19/31 118/20/30 34/20/31
f 117/20/32 37/19/30 39/19/32
f 37/19/30 117/20/32 118/20/30
