mtllib boat-speed-c.mtl
v -0.678300 0.200000 -1.485000
v 0.678300 0.200000 -1.485000
v -0.892500 0.600000 -1.585000
v 0.892500 0.600000 -1.585000
v -0.892500 0.600000 0.572500
v -0.678300 0.200000 0.286300
v 0.000000 0.000000 0.279640
v 0.000000 0.200000 1.055800
v 0.178089 0.000000 0.181068
v 0.296815 0.200000 0.891514
v -0.296815 0.200000 0.891514
v -0.406980 0.000000 -0.182060
v -0.178089 0.000000 0.181068
v 0.406980 0.000000 -1.385000
v 0.406980 0.000000 -0.182060
v 0.678300 0.200000 0.286300
v -0.406980 0.000000 -1.385000
v 0.892500 0.600000 0.572500
v -0.390547 0.600000 1.368834
v 0.000000 0.600000 1.585000
v 0.390547 0.600000 1.368834
v 0.551119 0.973205 -1.306213
v 0.551119 0.800000 -1.206213
v 0.551119 1.073205 -1.133007
v 0.551119 0.900000 -1.033007
v 0.351119 0.900000 -1.033007
v 0.351119 1.073205 -1.133007
v 0.501119 1.203109 -1.208007
v -0.351119 1.073205 -1.133007
v -0.551119 1.073205 -1.133007
v -0.551119 0.900000 -1.033007
v -0.351119 0.900000 -1.033007
v -0.501119 1.203109 -1.208007
v 0.351119 1.246410 -1.233007
v -0.351119 1.246410 -1.233007
v 0.351119 0.973205 -1.306213
v 0.351119 0.800000 -1.206213
v -0.351119 0.973205 -1.306213
v 0.351119 1.146410 -1.406213
v -0.351119 1.146410 -1.406213
v -0.351119 0.800000 -1.206213
v -0.551119 0.973205 -1.306213
v -0.551119 0.800000 -1.206213
v -0.501119 1.103109 -1.381212
v 0.501119 1.103109 -1.381212
v 0.000000 0.800000 1.474750
v -0.371019 0.800000 1.269392
v 0.371019 0.800000 1.269392
v 0.847875 0.800000 0.512875
v 0.847875 0.800000 -1.585000
v -0.847875 0.800000 0.512875
v -0.847875 0.800000 -1.585000
v 0.000000 0.900000 0.921794
v 0.241163 0.900000 0.788311
v -0.241163 0.900000 0.788311
v -0.551119 0.900000 -0.933007
v -0.551119 0.900000 -1.585000
v 0.551119 0.900000 -0.933007
v 0.551119 0.900000 -1.585000
v -0.551119 0.900000 0.296575
v 0.551119 0.900000 0.296575
v 0.647875 0.800000 -0.385000
v 0.647875 0.900000 -0.285000
v 0.647875 0.800000 0.115000
v 0.647875 0.900000 0.015000
v 0.847875 0.900000 -0.285000
v 0.847875 0.900000 0.015000
v 0.847875 0.800000 -0.385000
v 0.847875 0.800000 0.115000
v -0.847875 0.800000 -0.385000
v -0.847875 0.900000 -0.285000
v -0.847875 0.800000 0.115000
v -0.847875 0.900000 0.015000
v -0.647875 0.900000 -0.285000
v -0.647875 0.900000 0.015000
v -0.647875 0.800000 -0.385000
v -0.647875 0.800000 0.115000
v -0.413339 1.199503 0.077030
v -0.413339 1.199503 -0.683007
v 0.413339 1.199503 0.077030
v 0.413339 1.199503 -0.683007
v -0.200000 1.249503 -0.022970
v -0.200000 1.199503 -0.022970
v -0.200000 1.299503 -0.422969
v -0.200000 1.199503 -0.422969
v 0.200000 1.199503 -0.022970
v 0.200000 1.249503 -0.022970
v 0.200000 1.199503 -0.422969
v 0.200000 1.299503 -0.422969
v 0.180872 1.199503 0.445833
v 0.413339 1.199503 0.077030
v 0.000000 0.900000 0.921794
v 0.000000 1.199503 0.545945
v -0.180872 1.199503 0.445833
v -0.413339 1.199503 0.077030
vn -0.000000 -0.242536 -0.970143
vn -0.754441 -0.597847 0.270921
vn -0.816960 -0.553450 0.162079
vn -0.881559 -0.472075 0.000000
vn 0.000000 -0.968368 0.249528
vn 0.261964 -0.939502 0.220704
vn 0.192022 -0.952574 0.236073
vn -0.393430 -0.905541 0.158773
vn -0.192022 -0.952574 0.236073
vn -0.518084 -0.852925 0.064093
vn -0.261964 -0.939502 0.220704
vn 0.593353 -0.804942 -0.000000
vn 0.518084 -0.852925 0.064093
vn 0.393430 -0.905541 0.158773
vn -0.593353 -0.804942 0.000000
vn 0.000000 -1.000000 0.000000
vn 0.754441 -0.597847 0.270921
vn 0.881559 -0.472075 -0.000000
vn 0.816960 -0.553450 0.162079
vn -0.000000 -0.447214 -0.894427
vn -0.440700 -0.728734 0.524147
vn 0.000000 -0.797751 0.602987
vn -0.532339 -0.697377 0.479875
vn 0.532339 -0.697377 0.479875
vn 0.440700 -0.728734 0.524147
vn 0.987088 0.138722 -0.080091
vn 1.000000 0.000000 -0.000000
vn 0.000000 0.500000 0.866026
vn -1.000000 -0.000000 0.000000
vn 0.000000 -0.866025 0.500000
vn 0.160182 0.854843 -0.493544
vn -0.160182 0.854843 -0.493544
vn -0.987088 0.138722 -0.080091
vn -0.000000 -0.500000 -0.866026
vn 0.707107 0.612372 -0.353553
vn -0.707107 0.612372 -0.353553
vn 0.000000 0.482759 0.875753
vn -0.605134 0.401033 0.687739
vn -0.661771 0.384589 0.643545
vn 0.605134 0.401033 0.687739
vn 0.661771 0.384589 0.643545
vn 0.909183 0.291506 0.297339
vn 0.933260 0.276567 0.229209
vn 0.976000 0.217770 -0.000000
vn -0.909183 0.291506 0.297339
vn -0.933260 0.276567 0.229209
vn -0.976000 0.217770 0.000000
vn 0.000000 0.984038 0.177959
vn 0.177293 0.972005 0.154190
vn 0.137975 0.976471 0.165731
vn -0.137975 0.976471 0.165731
vn -0.177293 0.972005 0.154190
vn 0.000000 1.000000 0.000000
vn -0.259505 0.961672 0.088569
vn -0.280822 0.958028 0.057638
vn -0.000000 0.000000 -1.000000
vn 0.319334 0.947642 -0.000000
vn 0.280822 0.958028 0.057638
vn 0.259505 0.961672 0.088569
vn -0.319334 0.947642 0.000000
vn -1.000000 0.000000 0.000000
vn 0.000000 0.923879 -0.382683
vn 0.000000 0.923879 0.382683
vn 1.000000 0.000000 0.000000
vn 0.000000 0.707107 0.707107
vn 0.000000 0.707107 -0.707107
vn -0.908481 0.417927 0.000000
vn 0.908481 0.417927 -0.000000
vn -0.000000 0.640811 -0.767698
vn -1.000000 0.000000 0.000000
vn 0.000000 0.000000 1.000000
vn 0.000000 0.661802 0.749678
vn 1.000000 0.000000 -0.000000
vn 0.000000 0.992278 0.124035
vn 0.453343 0.708982 0.540208
vn 0.548276 0.674978 0.493759
vn 0.667030 0.615055 0.420450
vn 0.000000 0.782062 0.623201
vn -0.453343 0.708982 0.540208
vn -0.548276 0.674978 0.493759
vn -0.667030 0.615055 0.420450
usemtl colormap
f 3/2/1 2/1/1 1/1/1
f 2/1/1 3/2/1 4/2/1
f 3/2/4 6/1/3 5/2/2
f 6/1/3 3/2/4 1/1/4
f 9/3/6 8/1/5 7/3/5
f 8/1/5 9/3/6 10/1/7
f 12/3/10 11/1/9 6/1/8
f 11/1/9 12/3/10 13/3/11
f 2/1/12 15/3/13 14/3/12
f 15/3/13 2/1/12 16/1/14
f 13/3/11 8/1/5 11/1/9
f 8/1/5 13/3/11 7/3/5
f 17/3/15 6/1/8 1/1/15
f 6/1/8 17/3/15 12/3/10
f 14/3/16 12/3/16 17/3/16
f 12/3/16 14/3/16 13/3/16
f 13/3/16 14/3/16 7/3/16
f 7/3/16 14/3/16 9/3/16
f 9/3/16 14/3/16 15/3/16
f 16/1/19 4/2/18 18/2/17
f 4/2/18 16/1/19 2/1/18
f 1/1/20 14/3/20 17/3/20
f 14/3/20 1/1/20 2/1/20
f 11/1/23 20/2/22 19/2/21
f 20/2/22 11/1/23 8/1/22
f 15/3/13 10/1/7 9/3/6
f 10/1/7 15/3/13 16/1/14
f 10/1/24 20/2/22 8/1/22
f 20/2/22 10/1/24 21/2/25
f 10/1/24 18/2/17 21/2/25
f 18/2/17 10/1/24 16/1/19
f 5/2/2 11/1/23 19/2/21
f 11/1/23 5/2/2 6/1/3
f 24/4/26 23/3/27 22/4/26
f 23/3/27 24/4/26 25/3/27
f 24/4/28 26/3/28 25/3/28
f 26/3/28 24/4/28 27/4/28
f 27/4/28 24/4/28 28/5/28
f 27/4/28 28/5/28 29/4/28
f 29/4/28 28/5/28 30/4/28
f 31/3/28 29/4/28 30/4/28
f 29/4/28 31/3/28 32/3/28
f 30/4/28 28/5/28 33/5/28
f 33/5/28 28/5/28 34/6/28
f 33/5/28 34/6/28 35/6/28
f 37/3/29 27/4/29 36/4/29
f 27/4/29 37/3/29 26/3/29
f 29/4/30 36/4/30 27/4/30
f 36/4/30 29/4/30 38/4/30
f 40/6/32 34/6/31 39/6/31
f 34/6/31 40/6/32 35/6/32
f 29/4/27 41/3/27 38/4/27
f 41/3/27 29/4/27 32/3/27
f 43/3/29 30/4/33 42/4/33
f 30/4/33 43/3/29 31/3/29
f 42/4/34 41/3/34 43/3/34
f 41/3/34 42/4/34 38/4/34
f 38/4/34 42/4/34 44/5/34
f 38/4/34 44/5/34 36/4/34
f 36/4/34 44/5/34 22/4/34
f 23/3/34 36/4/34 22/4/34
f 36/4/34 23/3/34 37/3/34
f 22/4/34 44/5/34 45/5/34
f 45/5/34 44/5/34 40/6/34
f 45/5/34 40/6/34 39/6/34
f 45/5/35 24/4/26 22/4/26
f 24/4/26 45/5/35 28/5/35
f 39/6/31 28/5/35 45/5/35
f 28/5/35 39/6/31 34/6/31
f 44/5/36 35/6/32 40/6/32
f 35/6/32 44/5/36 33/5/36
f 30/4/33 44/5/36 42/4/33
f 44/5/36 30/4/33 33/5/36
f 46/8/37 19/7/38 20/7/37
f 19/7/38 46/8/37 47/8/39
f 48/8/41 20/7/37 21/7/40
f 20/7/37 48/8/41 46/8/37
f 18/7/42 48/8/41 21/7/40
f 48/8/41 18/7/42 49/8/43
f 4/7/44 49/8/43 18/7/42
f 49/8/43 4/7/44 50/8/44
f 47/8/39 5/7/45 19/7/38
f 5/7/45 47/8/39 51/8/46
f 51/8/46 3/7/47 5/7/45
f 3/7/47 51/8/46 52/8/47
f 46/10/48 54/9/49 53/9/48
f 54/9/49 46/10/48 48/10/50
f 46/10/48 55/9/52 47/10/51
f 55/9/52 46/10/48 53/9/48
f 58/9/53 57/9/53 56/9/53
f 57/9/53 58/9/53 59/9/53
f 47/10/51 60/9/55 51/10/54
f 60/9/55 47/10/51 55/9/52
f 52/10/56 4/11/56 3/11/56
f 4/11/56 52/10/56 50/10/56
f 50/10/56 52/10/56 57/9/56
f 50/10/56 57/9/56 59/9/56
f 61/9/58 59/9/57 58/9/57
f 59/9/57 61/9/58 49/10/59
f 59/9/57 49/10/59 50/10/57
f 57/9/60 52/10/60 56/9/60
f 52/10/60 60/9/55 56/9/60
f 60/9/55 52/10/60 51/10/54
f 48/10/50 61/9/58 54/9/49
f 61/9/58 48/10/50 49/10/59
f 64/12/61 63/13/61 62/12/61
f 63/13/61 64/12/61 65/13/61
f 63/13/62 67/13/63 66/13/62
f 67/13/63 63/13/62 65/13/63
f 66/13/64 69/12/64 68/12/64
f 69/12/64 66/13/64 67/13/64
f 65/13/63 69/12/65 67/13/63
f 69/12/65 65/13/63 64/12/65
f 62/12/66 66/13/62 68/12/66
f 66/13/62 62/12/66 63/13/62
f 72/12/61 71/13/61 70/12/61
f 71/13/61 72/12/61 73/13/61
f 71/13/62 75/13/63 74/13/62
f 75/13/63 71/13/62 73/13/63
f 74/13/64 77/12/64 76/12/64
f 77/12/64 74/13/64 75/13/64
f 73/13/63 77/12/65 75/13/63
f 77/12/65 73/13/63 72/12/65
f 70/12/66 74/13/62 76/12/66
f 74/13/62 70/12/66 71/13/62
f 78/15/67 56/14/67 60/14/67
f 56/14/67 78/15/67 79/15/67
f 58/14/68 80/15/68 61/14/68
f 80/15/68 58/14/68 81/15/68
f 79/15/69 58/14/69 56/14/69
f 58/14/69 79/15/69 81/15/69
f 80/15/53 79/15/53 78/15/53
f 79/15/53 80/15/53 81/15/53
f 84/15/70 83/17/70 82/16/70
f 83/17/70 84/15/70 85/17/70
f 87/16/72 83/17/71 86/17/71
f 83/17/71 87/16/72 82/16/72
f 88/17/73 87/16/73 86/17/73
f 87/16/73 88/17/73 89/15/73
f 84/15/56 88/17/56 85/17/56
f 88/17/56 84/15/56 89/15/56
f 82/16/72 89/15/74 84/15/74
f 89/15/74 82/16/72 87/16/72
f 61/18/77 90/19/76 54/18/75
f 90/19/76 61/18/77 91/19/77
f 54/18/75 93/19/78 92/18/78
f 93/19/78 54/18/75 90/19/76
f 92/18/78 94/19/80 55/18/79
f 94/19/80 92/18/78 93/19/78
f 94/19/80 60/18/81 55/18/79
f 60/18/81 94/19/80 95/19/81
f 94/19/53 91/19/53 95/19/53
f 91/19/53 94/19/53 93/19/53
f 91/19/53 93/19/53 90/19/53
f 3/2/1 2/1/1 1/1/1
f 2/1/1 3/2/1 4/2/1
f 3/2/4 6/1/3 5/2/2
f 6/1/3 3/2/4 1/1/4
f 9/3/6 8/1/5 7/3/5
f 8/1/5 9/3/6 10/1/7
f 12/3/10 11/1/9 6/1/8
f 11/1/9 12/3/10 13/3/11
f 2/1/12 15/3/13 14/3/12
f 15/3/13 2/1/12 16/1/14
f 13/3/11 8/1/5 11/1/9
f 8/1/5 13/3/11 7/3/5
f 17/3/15 6/1/8 1/1/15
f 6/1/8 17/3/15 12/3/10
f 14/3/16 12/3/16 17/3/16
f 12/3/16 14/3/16 13/3/16
f 13/3/16 14/3/16 7/3/16
f 7/3/16 14/3/16 9/3/16
f 9/3/16 14/3/16 15/3/16
f 16/1/19 4/2/18 18/2/17
f 4/2/18 16/1/19 2/1/18
f 1/1/20 14/3/20 17/3/20
f 14/3/20 1/1/20 2/1/20
f 11/1/23 20/2/22 19/2/21
f 20/2/22 11/1/23 8/1/22
f 15/3/13 10/1/7 9/3/6
f 10/1/7 15/3/13 16/1/14
f 10/1/24 20/2/22 8/1/22
f 20/2/22 10/1/24 21/2/25
f 10/1/24 18/2/17 21/2/25
f 18/2/17 10/1/24 16/1/19
f 5/2/2 11/1/23 19/2/21
f 11/1/23 5/2/2 6/1/3
f 24/4/26 23/3/27 22/4/26
f 23/3/27 24/4/26 25/3/27
f 24/4/28 26/3/28 25/3/28
f 26/3/28 24/4/28 27/4/28
f 27/4/28 24/4/28 28/5/28
f 27/4/28 28/5/28 29/4/28
f 29/4/28 28/5/28 30/4/28
f 31/3/28 29/4/28 30/4/28
f 29/4/28 31/3/28 32/3/28
f 30/4/28 28/5/28 33/5/28
f 33/5/28 28/5/28 34/6/28
f 33/5/28 34/6/28 35/6/28
f 37/3/29 27/4/29 36/4/29
f 27/4/29 37/3/29 26/3/29
f 29/4/30 36/4/30 27/4/30
f 36/4/30 29/4/30 38/4/30
f 40/6/32 34/6/31 39/6/31
f 34/6/31 40/6/32 35/6/32
f 29/4/27 41/3/27 38/4/27
f 41/3/27 29/4/27 32/3/27
f 43/3/29 30/4/33 42/4/33
f 30/4/33 43/3/29 31/3/29
f 42/4/34 41/3/34 43/3/34
f 41/3/34 42/4/34 38/4/34
f 38/4/34 42/4/34 44/5/34
f 38/4/34 44/5/34 36/4/34
f 36/4/34 44/5/34 22/4/34
f 23/3/34 36/4/34 22/4/34
f 36/4/34 23/3/34 37/3/34
f 22/4/34 44/5/34 45/5/34
f 45/5/34 44/5/34 40/6/34
f 45/5/34 40/6/34 39/6/34
f 45/5/35 24/4/26 22/4/26
f 24/4/26 45/5/35 28/5/35
f 39/6/31 28/5/35 45/5/35
f 28/5/35 39/6/31 34/6/31
f 44/5/36 35/6/32 40/6/32
f 35/6/32 44/5/36 33/5/36
f 30/4/33 44/5/36 42/4/33
f 44/5/36 30/4/33 33/5/36
f 46/8/37 19/7/38 20/7/37
f 19/7/38 46/8/37 47/8/39
f 48/8/41 20/7/37 21/7/40
f 20/7/37 48/8/41 46/8/37
f 18/7/42 48/8/41 21/7/40
f 48/8/41 18/7/42 49/8/43
f 4/7/44 49/8/43 18/7/42
f 49/8/43 4/7/44 50/8/44
f 47/8/39 5/7/45 19/7/38
f 5/7/45 47/8/39 51/8/46
f 51/8/46 3/7/47 5/7/45
f 3/7/47 51/8/46 52/8/47
f 46/10/48 54/9/49 53/9/48
f 54/9/49 46/10/48 48/10/50
f 46/10/48 55/9/52 47/10/51
f 55/9/52 46/10/48 53/9/48
f 58/9/53 57/9/53 56/9/53
f 57/9/53 58/9/53 59/9/53
f 47/10/51 60/9/55 51/10/54
f 60/9/55 47/10/51 55/9/52
f 52/10/56 4/11/56 3/11/56
f 4/11/56 52/10/56 50/10/56
f 50/10/56 52/10/56 57/9/56
f 50/10/56 57/9/56 59/9/56
f 61/9/58 59/9/57 58/9/57
f 59/9/57 61/9/58 49/10/59
f 59/9/57 49/10/59 50/10/57
f 57/9/60 52/10/60 56/9/60
f 52/10/60 60/9/55 56/9/60
f 60/9/55 52/10/60 51/10/54
f 48/10/50 61/9/58 54/9/49
f 61/9/58 48/10/50 49/10/59
f 64/12/61 63/13/61 62/12/61
f 63/13/61 64/12/61 65/13/61
f 63/13/62 67/13/63 66/13/62
f 67/13/63 63/13/62 65/13/63
f 66/13/64 69/12/64 68/12/64
f 69/12/64 66/13/64 67/13/64
f 65/13/63 69/12/65 67/13/63
f 69/12/65 65/13/63 64/12/65
f 62/12/66 66/13/62 68/12/66
f 66/13/62 62/12/66 63/13/62
f 72/12/61 71/13/61 70/12/61
f 71/13/61 72/12/61 73/13/61
f 71/13/62 75/13/63 74/13/62
f 75/13/63 71/13/62 73/13/63
f 74/13/64 77/12/64 76/12/64
f 77/12/64 74/13/64 75/13/64
f 73/13/63 77/12/65 75/13/63
f 77/12/65 73/13/63 72/12/65
f 70/12/66 74/13/62 76/12/66
f 74/13/62 70/12/66 71/13/62
f 78/15/67 56/14/67 60/14/67
f 56/14/67 78/15/67 79/15/67
f 58/14/68 80/15/68 61/14/68
f 80/15/68 58/14/68 81/15/68
f 79/15/69 58/14/69 56/14/69
f 58/14/69 79/15/69 81/15/69
f 80/15/53 79/15/53 78/15/53
f 79/15/53 80/15/53 81/15/53
f 84/15/70 83/17/70 82/16/70
f 83/17/70 84/15/70 85/17/70
f 87/16/72 83/17/71 86/17/71
f 83/17/71 87/16/72 82/16/72
f 88/17/73 87/16/73 86/17/73
f 87/16/73 88/17/73 89/15/73
f 84/15/56 88/17/56 85/17/56
f 88/17/56 84/15/56 89/15/56
f 82/16/72 89/15/74 84/15/74
f 89/15/74 82/16/72 87/16/72
f 61/18/77 90/19/76 54/18/75
f 90/19/76 61/18/77 91/19/77
f 54/18/75 93/19/78 92/18/78
f 93/19/78 54/18/75 90/19/76
f 92/18/78 94/19/80 55/18/79
f 94/19/80 92/18/78 93/19/78
f 94/19/80 60/18/81 55/18/79
f 60/18/81 94/19/80 95/19/81
f 94/19/53 91/19/53 95/19/53
f 91/19/53 94/19/53 93/19/53
f 91/19/53 93/19/53 90/19/53
