mtllib sm-building-c.mtl
v 0.200000 0.000000 0.200000
v -0.200000 0.000000 0.200000
v 0.200000 0.000000 -0.200000
v -0.200000 0.000000 -0.200000
v -0.200000 0.100000 -0.200000
v -0.200000 0.100000 0.200000
v 0.200000 0.100000 -0.200000
v 0.200000 0.100000 0.200000
v -0.230000 0.500000 0.250000
v 0.230000 0.500000 0.250000
v -0.250000 0.500000 0.230000
v 0.250000 0.500000 0.230000
v -0.250000 0.500000 -0.230000
v 0.250000 0.500000 -0.230000
v 0.230000 0.500000 -0.250000
v -0.230000 0.500000 -0.250000
v -0.230000 0.100000 0.250000
v -0.250000 0.100000 0.230000
v 0.230000 0.100000 0.250000
v 0.250000 0.100000 0.230000
v 0.250000 0.100000 -0.230000
v -0.250000 0.100000 -0.230000
v 0.230000 0.100000 -0.250000
v -0.230000 0.100000 -0.250000
v -0.250000 0.500000 -0.000000
v -0.250000 2.000000 -0.000000
v -0.250000 0.500000 0.230000
v -0.250000 2.000000 0.230000
v -0.230000 2.000000 0.250000
v -0.230000 0.500000 0.250000
v 0.230000 2.000000 0.250000
v 0.230000 0.500000 0.250000
v 0.250000 2.000000 0.230000
v 0.250000 0.500000 0.230000
v 0.250000 0.500000 -0.230000
v 0.250000 2.000000 -0.230000
v 0.230000 2.000000 -0.250000
v 0.230000 0.500000 -0.250000
v 0.000000 0.500000 -0.250000
v 0.000000 2.000000 -0.250000
v 0.200000 1.950000 -0.200000
v 0.200000 1.950000 0.200000
v 0.020711 1.950000 -0.200000
v -0.200000 1.950000 0.200000
v -0.200000 1.950000 0.020711
v -0.200000 2.000000 0.020711
v -0.200000 2.000000 0.200000
v 0.020711 2.000000 -0.200000
v 0.200000 2.000000 0.200000
v 0.200000 2.000000 -0.200000
v -0.193217 1.919697 -0.056783
v -0.193217 0.580303 -0.056783
v -0.157862 1.919697 -0.021427
v -0.157862 0.580303 -0.021427
v -0.021427 1.919697 -0.157862
v -0.056783 1.919697 -0.193217
v -0.056783 0.580303 -0.193217
v -0.021427 0.580303 -0.157862
v 0.075000 2.000000 0.050000
v 0.175000 2.000000 0.050000
v 0.075000 2.000000 -0.050000
v 0.175000 2.000000 -0.050000
v 0.075000 1.950000 -0.050000
v 0.075000 1.950000 0.050000
v 0.175000 1.950000 0.050000
v 0.175000 1.950000 -0.050000
v 0.075000 2.000000 0.175000
v 0.175000 2.000000 0.175000
v 0.075000 2.000000 0.075000
v 0.175000 2.000000 0.075000
v 0.075000 1.950000 0.075000
v 0.075000 1.950000 0.175000
v 0.175000 1.950000 0.175000
v 0.175000 1.950000 0.075000
v -0.175000 1.950000 0.175000
v -0.075000 1.950000 0.175000
v -0.175000 2.050000 0.175000
v -0.075000 2.050000 0.175000
v -0.175000 1.950000 0.075000
v -0.175000 2.050000 0.075000
v -0.075000 1.950000 0.075000
v -0.075000 2.050000 0.075000
v -0.112500 2.250000 0.112500
v -0.112500 2.250000 0.137500
v -0.137500 2.250000 0.112500
v -0.137500 2.250000 0.137500
v -0.140625 2.050000 0.140625
v -0.140625 2.050000 0.109375
v -0.109375 2.050000 0.140625
v -0.109375 2.050000 0.109375
vn 0.000000 -1.000000 0.000000
vn -1.000000 0.000000 0.000000
vn -0.000000 0.000000 -1.000000
vn 1.000000 0.000000 -0.000000
vn 0.000000 0.000000 1.000000
vn 0.000000 1.000000 0.000000
vn 0.923879 0.000000 -0.382684
vn 0.923880 0.000000 0.382683
vn 0.382683 0.000000 -0.923880
vn -0.382684 0.000000 -0.923879
vn 0.382684 0.000000 0.923879
vn -0.382683 0.000000 0.923880
vn -0.923880 0.000000 -0.382683
vn -0.923879 0.000000 0.382684
vn -1.000000 0.000000 0.000000
vn -0.923879 0.000000 0.382683
vn -0.382683 0.000000 0.923879
vn 0.382683 0.000000 0.923879
vn 0.923879 0.000000 0.382683
vn 0.923879 0.000000 -0.382683
vn 0.382683 0.000000 -0.923879
vn 0.000000 0.000000 -1.000000
vn 0.000000 1.000000 0.000000
vn 1.000000 0.000000 0.000000
vn 0.707107 0.000000 0.707107
vn 0.000000 0.000000 1.000000
vn 0.707107 0.000000 -0.707107
vn 0.000000 -1.000000 0.000000
vn -0.707107 0.000000 0.707107
vn -0.707107 0.000000 -0.707107
vn -0.706934 0.022092 0.706934
vn -0.706934 0.022092 -0.706934
vn 0.706934 0.022092 0.706934
vn 0.706934 0.022092 -0.706934
usemtl colormap
f 11/3/14 13/3/13 18/2/14
f 11/3/14 18/2/14 9/3/12
f 22/2/13 18/2/14 13/3/13
f 17/2/12 9/3/12 18/2/14
f 22/2/13 13/3/13 24/2/10
f 16/3/10 24/2/10 13/3/13
f 9/3/12 17/2/12 10/3/11
f 19/2/11 10/3/11 17/2/12
f 19/2/11 20/2/8 10/3/11
f 12/3/8 10/3/11 20/2/8
f 24/2/10 16/3/10 23/2/9
f 15/3/9 23/2/9 16/3/10
f 23/2/9 15/3/9 21/2/7
f 20/2/8 21/2/7 12/3/8
f 14/3/7 21/2/7 15/3/9
f 14/3/7 12/3/8 21/2/7
f 24/2/1 23/2/1 22/2/1
f 23/2/1 21/2/1 22/2/1
f 21/2/1 5/2/1 22/2/1
f 5/2/1 6/2/1 22/2/1
f 5/2/1 21/2/1 7/2/1
f 22/2/1 6/2/1 18/2/1
f 7/2/1 21/2/1 8/2/1
f 8/2/1 18/2/1 6/2/1
f 21/2/1 20/2/1 8/2/1
f 8/2/1 20/2/1 18/2/1
f 20/2/1 19/2/1 18/2/1
f 17/2/1 18/2/1 19/2/1
f 16/3/6 13/3/6 15/3/6
f 15/3/6 13/3/6 14/3/6
f 14/3/6 13/3/6 12/3/6
f 13/3/6 11/3/6 12/3/6
f 12/3/6 11/3/6 10/3/6
f 9/3/6 10/3/6 11/3/6
f 1/1/5 8/2/5 2/1/5
f 6/2/5 2/1/5 8/2/5
f 7/2/4 8/2/4 3/1/4
f 1/1/4 3/1/4 8/2/4
f 7/2/3 3/1/3 5/2/3
f 4/1/3 5/2/3 3/1/3
f 6/2/2 5/2/2 2/1/2
f 4/1/2 2/1/2 5/2/2
f 4/1/1 3/1/1 2/1/1
f 1/1/1 2/1/1 3/1/1
f 27/1/16 26/3/15 25/1/15
f 26/3/15 27/1/16 28/3/16
f 27/1/16 29/3/17 28/3/16
f 29/3/17 27/1/16 30/1/17
f 30/1/17 31/3/18 29/3/17
f 31/3/18 30/1/17 32/1/18
f 32/1/18 33/3/19 31/3/18
f 33/3/19 32/1/18 34/1/19
f 35/1/20 33/3/19 34/1/19
f 33/3/19 35/1/20 36/3/20
f 35/1/20 37/3/21 36/3/20
f 37/3/21 35/1/20 38/1/21
f 39/1/22 37/3/21 38/1/21
f 37/3/21 39/1/22 40/3/22
f 43/4/23 42/4/23 41/4/23
f 42/4/23 43/4/23 44/4/23
f 44/4/23 43/4/23 45/4/23
f 47/3/24 45/4/24 46/3/24
f 45/4/24 47/3/24 44/4/24
f 48/3/25 45/4/25 43/4/25
f 45/4/25 48/3/25 46/3/25
f 47/3/22 42/4/22 44/4/22
f 42/4/22 47/3/22 49/3/22
f 50/3/26 43/4/26 41/4/26
f 43/4/26 50/3/26 48/3/26
f 42/4/15 50/3/15 41/4/15
f 50/3/15 42/4/15 49/3/15
f 53/5/27 52/6/27 51/5/27
f 52/6/27 53/5/27 54/6/27
f 53/5/28 56/5/28 55/5/28
f 56/5/28 53/5/28 51/5/28
f 58/6/29 56/5/29 57/6/29
f 56/5/29 58/6/29 55/5/29
f 57/6/23 54/6/23 58/6/23
f 54/6/23 57/6/23 52/6/23
f 37/3/23 33/3/23 36/3/23
f 33/3/23 37/3/23 31/3/23
f 31/3/23 37/3/23 50/3/23
f 50/3/23 37/3/23 40/3/23
f 49/3/23 31/3/23 50/3/23
f 50/3/23 40/3/23 48/3/23
f 48/3/23 40/3/23 46/3/23
f 31/3/23 49/3/23 29/3/23
f 46/3/23 40/3/23 26/3/23
f 29/3/23 26/3/23 28/3/23
f 29/3/23 49/3/23 47/3/23
f 46/3/23 26/3/23 47/3/23
f 47/3/23 26/3/23 29/3/23
f 52/6/30 26/3/30 51/5/30
f 51/5/30 26/3/30 56/5/30
f 52/6/30 25/1/30 26/3/30
f 40/3/30 56/5/30 26/3/30
f 25/1/30 52/6/30 39/1/30
f 40/3/30 57/6/30 56/5/30
f 39/1/30 57/6/30 40/3/30
f 57/6/30 39/1/30 52/6/30
f 62/3/3 66/1/3 61/3/3
f 63/1/3 61/3/3 66/1/3
f 62/3/4 60/3/4 66/1/4
f 65/1/4 66/1/4 60/3/4
f 65/1/5 60/3/5 64/1/5
f 59/3/5 64/1/5 60/3/5
f 59/3/2 61/3/2 64/1/2
f 63/1/2 64/1/2 61/3/2
f 62/3/6 61/3/6 60/3/6
f 59/3/6 60/3/6 61/3/6
f 70/3/3 74/1/3 69/3/3
f 71/1/3 69/3/3 74/1/3
f 70/3/4 68/3/4 74/1/4
f 73/1/4 74/1/4 68/3/4
f 73/1/5 68/3/5 72/1/5
f 67/3/5 72/1/5 68/3/5
f 67/3/2 69/3/2 72/1/2
f 71/1/2 72/1/2 69/3/2
f 70/3/6 69/3/6 68/3/6
f 67/3/6 68/3/6 69/3/6
f 80/3/23 77/3/23 82/3/23
f 78/3/23 82/3/23 77/3/23
f 81/1/24 82/3/24 76/1/24
f 78/3/24 76/1/24 82/3/24
f 80/3/22 82/3/22 79/1/22
f 81/1/22 79/1/22 82/3/22
f 80/3/15 79/1/15 77/3/15
f 75/1/15 77/3/15 79/1/15
f 78/3/26 77/3/26 76/1/26
f 75/1/26 76/1/26 77/3/26
f 85/3/23 84/3/23 83/3/23
f 84/3/23 85/3/23 86/3/23
f 85/3/32 87/1/31 86/3/31
f 87/1/31 84/3/33 86/3/31
f 87/1/31 85/3/32 88/1/32
f 84/3/33 87/1/31 89/1/33
f 85/3/32 90/1/34 88/1/32
f 89/1/33 83/3/34 84/3/33
f 83/3/34 89/1/33 90/1/34
f 90/1/34 85/3/32 83/3/34
f 53/8/30 58/7/30 54/7/30
f 58/7/30 53/8/30 55/8/30
f 11/3/14 13/3/13 18/2/14
f 11/3/14 18/2/14 9/3/12
f 22/2/13 18/2/14 13/3/13
f 17/2/12 9/3/12 18/2/14
f 22/2/13 13/3/13 24/2/10
f 16/3/10 24/2/10 13/3/13
f 9/3/12 17/2/12 10/3/11
f 19/2/11 10/3/11 17/2/12
f 19/2/11 20/2/8 10/3/11
f 12/3/8 10/3/11 20/2/8
f 24/2/10 16/3/10 23/2/9
f 15/3/9 23/2/9 16/3/10
f 23/2/9 15/3/9 21/2/7
f 20/2/8 21/2/7 12/3/8
f 14/3/7 21/2/7 15/3/9
f 14/3/7 12/3/8 21/2/7
f 24/2/1 23/2/1 22/2/1
f 23/2/1 21/2/1 22/2/1
f 21/2/1 5/2/1 22/2/1
f 5/2/1 6/2/1 22/2/1
f 5/2/1 21/2/1 7/2/1
f 22/2/1 6/2/1 18/2/1
f 7/2/1 21/2/1 8/2/1
f 8/2/1 18/2/1 6/2/1
f 21/2/1 20/2/1 8/2/1
f 8/2/1 20/2/1 18/2/1
f 20/2/1 19/2/1 18/2/1
f 17/2/1 18/2/1 19/2/1
f 16/3/6 13/3/6 15/3/6
f 15/3/6 13/3/6 14/3/6
f 14/3/6 13/3/6 12/3/6
f 13/3/6 11/3/6 12/3/6
f 12/3/6 11/3/6 10/3/6
f 9/3/6 10/3/6 11/3/6
f 1/1/5 8/2/5 2/1/5
f 6/2/5 2/1/5 8/2/5
f 7/2/4 8/2/4 3/1/4
f 1/1/4 3/1/4 8/2/4
f 7/2/3 3/1/3 5/2/3
f 4/1/3 5/2/3 3/1/3
f 6/2/2 5/2/2 2/1/2
f 4/1/2 2/1/2 5/2/2
f 4/1/1 3/1/1 2/1/1
f 1/1/1 2/1/1 3/1/1
f 27/1/16 26/3/15 25/1/15
f 26/3/15 27/1/16 28/3/16
f 27/1/16 29/3/17 28/3/16
f 29/3/17 27/1/16 30/1/17
f 30/1/17 31/3/18 29/3/17
f 31/3/18 30/1/17 32/1/18
f 32/1/18 33/3/19 31/3/18
f 33/3/19 32/1/18 34/1/19
f 35/1/20 33/3/19 34/1/19
f 33/3/19 35/1/20 36/3/20
f 35/1/20 37/3/21 36/3/20
f 37/3/21 35/1/20 38/1/21
f 39/1/22 37/3/21 38/1/21
f 37/3/21 39/1/22 40/3/22
f 43/4/23 42/4/23 41/4/23
f 42/4/23 43/4/23 44/4/23
f 44/4/23 43/4/23 45/4/23
f 47/3/24 45/4/24 46/3/24
f 45/4/24 47/3/24 44/4/24
f 48/3/25 45/4/25 43/4/25
f 45/4/25 48/3/25 46/3/25
f 47/3/22 42/4/22 44/4/22
f 42/4/22 47/3/22 49/3/22
f 50/3/26 43/4/26 41/4/26
f 43/4/26 50/3/26 48/3/26
f 42/4/15 50/3/15 41/4/15
f 50/3/15 42/4/15 49/3/15
f 53/5/27 52/6/27 51/5/27
f 52/6/27 53/5/27 54/6/27
f 53/5/28 56/5/28 55/5/28
f 56/5/28 53/5/28 51/5/28
f 58/6/29 56/5/29 57/6/29
f 56/5/29 58/6/29 55/5/29
f 57/6/23 54/6/23 58/6/23
f 54/6/23 57/6/23 52/6/23
f 37/3/23 33/3/23 36/3/23
f 33/3/23 37/3/23 31/3/23
f 31/3/23 37/3/23 50/3/23
f 50/3/23 37/3/23 40/3/23
f 49/3/23 31/3/23 50/3/23
f 50/3/23 40/3/23 48/3/23
f 48/3/23 40/3/23 46/3/23
f 31/3/23 49/3/23 29/3/23
f 46/3/23 40/3/23 26/3/23
f 29/3/23 26/3/23 28/3/23
f 29/3/23 49/3/23 47/3/23
f 46/3/23 26/3/23 47/3/23
f 47/3/23 26/3/23 29/3/23
f 52/6/30 26/3/30 51/5/30
f 51/5/30 26/3/30 56/5/30
f 52/6/30 25/1/30 26/3/30
f 40/3/30 56/5/30 26/3/30
f 25/1/30 52/6/30 39/1/30
f 40/3/30 57/6/30 56/5/30
f 39/1/30 57/6/30 40/3/30
f 57/6/30 39/1/30 52/6/30
f 62/3/3 66/1/3 61/3/3
f 63/1/3 61/3/3 66/1/3
f 62/3/4 60/3/4 66/1/4
f 65/1/4 66/1/4 60/3/4
f 65/1/5 60/3/5 64/1/5
f 59/3/5 64/1/5 60/3/5
f 59/3/2 61/3/2 64/1/2
f 63/1/2 64/1/2 61/3/2
f 62/3/6 61/3/6 60/3/6
f 59/3/6 60/3/6 61/3/6
f 70/3/3 74/1/3 69/3/3
f 71/1/3 69/3/3 74/1/3
f 70/3/4 68/3/4 74/1/4
f 73/1/4 74/1/4 68/3/4
f 73/1/5 68/3/5 72/1/5
f 67/3/5 72/1/5 68/3/5
f 67/3/2 69/3/2 72/1/2
f 71/1/2 72/1/2 69/3/2
f 70/3/6 69/3/6 68/3/6
f 67/3/6 68/3/6 69/3/6
f 80/3/23 77/3/23 82/3/23
f 78/3/23 82/3/23 77/3/23
f 81/1/24 82/3/24 76/1/24
f 78/3/24 76/1/24 82/3/24
f 80/3/22 82/3/22 79/1/22
f 81/1/22 79/1/22 82/3/22
f 80/3/15 79/1/15 77/3/15
f 75/1/15 77/3/15 79/1/15
f 78/3/26 77/3/26 76/1/26
f 75/1/26 76/1/26 77/3/26
f 85/3/23 84/3/23 83/3/23
f 84/3/23 85/3/23 86/3/23
f 85/3/32 87/1/31 86/3/31
f 87/1/31 84/3/33 86/3/31
f 87/1/31 85/3/32 88/1/32
f 84/3/33 87/1/31 89/1/33
f 85/3/32 90/1/34 88/1/32
f 89/1/33 83/3/34 84/3/33
f 83/3/34 89/1/33 90/1/34
f 90/1/34 85/3/32 83/3/34
f 53/8/30 58/7/30 54/7/30
f 58/7/30 53/8/30 55/8/30
