mtllib sm-building-d.mtl
v 0.200000 1.000000 -0.200000
v -0.200000 1.000000 -0.200000
v 0.200000 1.050000 -0.200000
v -0.200000 1.050000 -0.200000
v 0.200000 1.000000 0.200000
v 0.200000 1.050000 0.200000
v -0.200000 1.000000 0.200000
v -0.200000 1.050000 0.200000
v -0.200000 1.450000 -0.200000
v -0.200000 1.450000 0.200000
v 0.200000 1.450000 -0.200000
v 0.200000 1.450000 0.200000
v -0.200000 1.500000 -0.200000
v -0.200000 1.500000 0.200000
v 0.200000 1.500000 -0.200000
v 0.200000 1.500000 0.200000
v -0.250000 1.500000 -0.230000
v -0.250000 1.500000 0.230000
v -0.230000 1.500000 -0.250000
v -0.230000 1.500000 0.250000
v 0.230000 1.500000 -0.250000
v 0.230000 1.500000 0.250000
v 0.250000 1.500000 -0.230000
v 0.250000 1.500000 0.230000
v -0.250000 1.050000 0.230000
v -0.250000 1.050000 -0.230000
v -0.230000 1.050000 0.250000
v -0.230000 1.050000 -0.250000
v 0.230000 1.050000 0.250000
v 0.230000 1.050000 -0.250000
v 0.250000 1.050000 0.230000
v 0.250000 1.050000 -0.230000
v -0.125000 1.600000 -0.025000
v -0.125000 1.450000 -0.025000
v -0.125000 1.600000 0.125000
v -0.125000 1.450000 0.125000
v 0.025000 1.450000 0.125000
v 0.025000 1.600000 0.125000
v 0.025000 1.450000 -0.025000
v 0.025000 1.600000 -0.025000
v -0.250000 1.000000 -0.230000
v -0.250000 1.000000 0.230000
v -0.230000 1.000000 -0.250000
v -0.230000 1.000000 0.250000
v 0.230000 1.000000 0.250000
v 0.230000 1.000000 -0.250000
v 0.250000 1.000000 0.230000
v 0.250000 1.000000 -0.230000
v -0.250000 0.000000 -0.230000
v -0.230000 0.000000 -0.250000
v -0.250000 0.000000 0.230000
v -0.230000 0.000000 0.250000
v 0.230000 0.000000 0.250000
v 0.230000 0.000000 -0.250000
v 0.250000 0.000000 0.230000
v 0.250000 0.000000 -0.230000
v -0.037500 1.750000 0.037500
v -0.037500 1.750000 0.062500
v -0.062500 1.750000 0.037500
v -0.062500 1.750000 0.062500
v -0.068750 1.600000 0.068750
v -0.031250 1.600000 0.068750
v -0.068750 1.600000 0.031250
v -0.031250 1.600000 0.031250
vn -0.000000 0.000000 -1.000000
vn 1.000000 0.000000 -0.000000
vn 0.000000 0.000000 1.000000
vn -1.000000 0.000000 0.000000
vn 0.000000 1.000000 0.000000
vn 0.000000 -1.000000 0.000000
vn 0.923879 0.000000 0.382683
vn 0.923879 0.000000 -0.382683
vn 0.382683 0.000000 0.923879
vn 0.382683 0.000000 -0.923879
vn -0.382683 0.000000 0.923879
vn -0.382683 0.000000 -0.923879
vn -0.923879 0.000000 0.382683
vn -0.923879 0.000000 -0.382683
vn -0.705882 0.058824 0.705882
vn 0.705882 0.058824 0.705882
vn -0.705882 0.058824 -0.705882
vn 0.705882 0.058824 -0.705882
usemtl colormap
f 12/3/5 11/3/5 10/3/5
f 9/3/5 10/3/5 11/3/5
f 7/1/4 8/2/4 2/1/4
f 4/2/4 2/1/4 8/2/4
f 6/2/3 8/2/3 5/1/3
f 7/1/3 5/1/3 8/2/3
f 6/2/2 5/1/2 3/2/2
f 1/1/2 3/2/2 5/1/2
f 4/2/1 3/2/1 2/1/1
f 1/1/1 2/1/1 3/2/1
f 17/5/14 26/6/14 18/5/13
f 17/5/14 19/5/12 26/6/14
f 25/6/13 18/5/13 26/6/14
f 28/6/12 26/6/14 19/5/12
f 25/6/13 27/6/11 18/5/13
f 20/5/11 18/5/13 27/6/11
f 19/5/12 21/5/10 28/6/12
f 30/6/10 28/6/12 21/5/10
f 27/6/11 29/6/9 20/5/11
f 21/5/10 23/5/8 30/6/10
f 22/5/9 20/5/11 29/6/9
f 32/6/8 30/6/10 23/5/8
f 29/6/9 31/6/7 22/5/9
f 32/6/8 23/5/8 31/6/7
f 24/5/7 22/5/9 31/6/7
f 24/5/7 31/6/7 23/5/8
f 32/6/6 31/6/6 30/6/6
f 31/6/6 29/6/6 30/6/6
f 29/6/6 3/6/6 30/6/6
f 3/6/6 4/6/6 30/6/6
f 3/6/6 29/6/6 6/6/6
f 30/6/6 4/6/6 28/6/6
f 6/6/6 29/6/6 8/6/6
f 8/6/6 28/6/6 4/6/6
f 29/6/6 27/6/6 8/6/6
f 8/6/6 27/6/6 28/6/6
f 28/6/6 27/6/6 26/6/6
f 25/6/6 26/6/6 27/6/6
f 24/5/5 23/5/5 22/5/5
f 23/5/5 21/5/5 22/5/5
f 21/5/5 16/5/5 22/5/5
f 16/5/5 14/5/5 22/5/5
f 16/5/5 21/5/5 15/5/5
f 22/5/5 14/5/5 20/5/5
f 15/5/5 21/5/5 13/5/5
f 13/5/5 20/5/5 14/5/5
f 21/5/5 19/5/5 13/5/5
f 13/5/5 19/5/5 20/5/5
f 20/5/5 19/5/5 18/5/5
f 17/5/5 18/5/5 19/5/5
f 14/5/1 16/5/1 10/4/1
f 12/4/1 10/4/1 16/5/1
f 12/4/4 16/5/4 11/4/4
f 15/5/4 11/4/4 16/5/4
f 15/5/3 13/5/3 11/4/3
f 9/4/3 11/4/3 13/5/3
f 14/5/2 10/4/2 13/5/2
f 9/4/2 13/5/2 10/4/2
f 40/5/5 33/5/5 38/5/5
f 35/5/5 38/5/5 33/5/5
f 33/5/1 40/5/1 34/7/1
f 39/7/1 34/7/1 40/5/1
f 38/5/2 37/7/2 40/5/2
f 39/7/2 40/5/2 37/7/2
f 38/5/3 35/5/3 37/7/3
f 36/7/3 37/7/3 35/5/3
f 36/7/4 35/5/4 34/7/4
f 33/5/4 34/7/4 35/5/4
f 56/7/8 48/5/8 55/7/7
f 56/7/8 54/7/10 48/5/8
f 47/5/7 55/7/7 48/5/8
f 46/5/10 48/5/8 54/7/10
f 47/5/7 45/5/9 55/7/7
f 53/7/9 55/7/7 45/5/9
f 54/7/10 50/7/12 46/5/10
f 43/5/12 46/5/10 50/7/12
f 45/5/9 44/5/11 53/7/9
f 50/7/12 49/7/14 43/5/12
f 52/7/11 53/7/9 44/5/11
f 41/5/14 43/5/12 49/7/14
f 44/5/11 42/5/13 52/7/11
f 41/5/14 49/7/14 42/5/13
f 51/7/13 52/7/11 42/5/13
f 51/7/13 42/5/13 49/7/14
f 56/7/6 55/7/6 54/7/6
f 55/7/6 53/7/6 54/7/6
f 54/7/6 53/7/6 50/7/6
f 53/7/6 52/7/6 50/7/6
f 52/7/6 51/7/6 50/7/6
f 49/7/6 50/7/6 51/7/6
f 48/5/5 46/5/5 47/5/5
f 47/5/5 46/5/5 45/5/5
f 46/5/5 43/5/5 45/5/5
f 45/5/5 43/5/5 44/5/5
f 44/5/5 43/5/5 42/5/5
f 41/5/5 42/5/5 43/5/5
f 59/5/5 58/5/5 57/5/5
f 58/5/5 59/5/5 60/5/5
f 61/7/15 58/5/16 60/5/15
f 59/5/17 61/7/15 60/5/15
f 58/5/16 61/7/15 62/7/16
f 61/7/15 59/5/17 63/7/17
f 62/7/16 57/5/18 58/5/16
f 59/5/17 64/7/18 63/7/17
f 64/7/18 59/5/17 57/5/18
f 57/5/18 62/7/16 64/7/18
f 12/3/5 11/3/5 10/3/5
f 9/3/5 10/3/5 11/3/5
f 7/1/4 8/2/4 2/1/4
f 4/2/4 2/1/4 8/2/4
f 6/2/3 8/2/3 5/1/3
f 7/1/3 5/1/3 8/2/3
f 6/2/2 5/1/2 3/2/2
f 1/1/2 3/2/2 5/1/2
f 4/2/1 3/2/1 2/1/1
f 1/1/1 2/1/1 3/2/1
f 17/5/14 26/6/14 18/5/13
f 17/5/14 19/5/12 26/6/14
f 25/6/13 18/5/13 26/6/14
f 28/6/12 26/6/14 19/5/12
f 25/6/13 27/6/11 18/5/13
f 20/5/11 18/5/13 27/6/11
f 19/5/12 21/5/10 28/6/12
f 30/6/10 28/6/12 21/5/10
f 27/6/11 29/6/9 20/5/11
f 21/5/10 23/5/8 30/6/10
f 22/5/9 20/5/11 29/6/9
f 32/6/8 30/6/10 23/5/8
f 29/6/9 31/6/7 22/5/9
f 32/6/8 23/5/8 31/6/7
f 24/5/7 22/5/9 31/6/7
f 24/5/7 31/6/7 23/5/8
f 32/6/6 31/6/6 30/6/6
f 31/6/6 29/6/6 30/6/6
f 29/6/6 3/6/6 30/6/6
f 3/6/6 4/6/6 30/6/6
f 3/6/6 29/6/6 6/6/6
f 30/6/6 4/6/6 28/6/6
f 6/6/6 29/6/6 8/6/6
f 8/6/6 28/6/6 4/6/6
f 29/6/6 27/6/6 8/6/6
f 8/6/6 27/6/6 28/6/6
f 28/6/6 27/6/6 26/6/6
f 25/6/6 26/6/6 27/6/6
f 24/5/5 23/5/5 22/5/5
f 23/5/5 21/5/5 22/5/5
f 21/5/5 16/5/5 22/5/5
f 16/5/5 14/5/5 22/5/5
f 16/5/5 21/5/5 15/5/5
f 22/5/5 14/5/5 20/5/5
f 15/5/5 21/5/5 13/5/5
f 13/5/5 20/5/5 14/5/5
f 21/5/5 19/5/5 13/5/5
f 13/5/5 19/5/5 20/5/5
f 20/5/5 19/5/5 18/5/5
f 17/5/5 18/5/5 19/5/5
f 14/5/1 16/5/1 10/4/1
f 12/4/1 10/4/1 16/5/1
f 12/4/4 16/5/4 11/4/4
f 15/5/4 11/4/4 16/5/4
f 15/5/3 13/5/3 11/4/3
f 9/4/3 11/4/3 13/5/3
f 14/5/2 10/4/2 13/5/2
f 9/4/2 13/5/2 10/4/2
f 40/5/5 33/5/5 38/5/5
f 35/5/5 38/5/5 33/5/5
f 33/5/1 40/5/1 34/7/1
f 39/7/1 34/7/1 40/5/1
f 38/5/2 37/7/2 40/5/2
f 39/7/2 40/5/2 37/7/2
f 38/5/3 35/5/3 37/7/3
f 36/7/3 37/7/3 35/5/3
f 36/7/4 35/5/4 34/7/4
f 33/5/4 34/7/4 35/5/4
f 56/7/8 48/5/8 55/7/7
f 56/7/8 54/7/10 48/5/8
f 47/5/7 55/7/7 48/5/8
f 46/5/10 48/5/8 54/7/10
f 47/5/7 45/5/9 55/7/7
f 53/7/9 55/7/7 45/5/9
f 54/7/10 50/7/12 46/5/10
f 43/5/12 46/5/10 50/7/12
f 45/5/9 44/5/11 53/7/9
f 50/7/12 49/7/14 43/5/12
f 52/7/11 53/7/9 44/5/11
f 41/5/14 43/5/12 49/7/14
f 44/5/11 42/5/13 52/7/11
f 41/5/14 49/7/14 42/5/13
f 51/7/13 52/7/11 42/5/13
f 51/7/13 42/5/13 49/7/14
f 56/7/6 55/7/6 54/7/6
f 55/7/6 53/7/6 54/7/6
f 54/7/6 53/7/6 50/7/6
f 53/7/6 52/7/6 50/7/6
f 52/7/6 51/7/6 50/7/6
f 49/7/6 50/7/6 51/7/6
f 48/5/5 46/5/5 47/5/5
f 47/5/5 46/5/5 45/5/5
f 46/5/5 43/5/5 45/5/5
f 45/5/5 43/5/5 44/5/5
f 44/5/5 43/5/5 42/5/5
f 41/5/5 42/5/5 43/5/5
f 59/5/5 58/5/5 57/5/5
f 58/5/5 59/5/5 60/5/5
f 61/7/15 58/5/16 60/5/15
f 59/5/17 61/7/15 60/5/15
f 58/5/16 61/7/15 62/7/16
f 61/7/15 59/5/17 63/7/17
f 62/7/16 57/5/18 58/5/16
f 59/5/17 64/7/18 63/7/17
f 64/7/18 59/5/17 57/5/18
f 57/5/18 62/7/16 64/7/18
