mtllib sm-building-e.mtl
v -0.250000 0.000000 -0.230000
v -0.230000 0.000000 -0.250000
v -0.250000 0.000000 0.230000
v -0.230000 0.000000 0.250000
v 0.230000 0.000000 0.250000
v 0.230000 0.000000 -0.250000
v 0.250000 0.000000 0.230000
v 0.250000 0.000000 -0.230000
v -0.250000 0.500000 0.230000
v -0.250000 0.500000 -0.230000
v -0.230000 0.500000 0.250000
v -0.230000 0.500000 -0.250000
v 0.230000 0.500000 0.250000
v 0.230000 0.500000 -0.250000
v 0.250000 0.500000 0.230000
v 0.250000 0.500000 -0.230000
v -0.203576 1.518570 0.200000
v -0.203576 1.618569 0.200000
v 0.203576 1.518570 0.200000
v 0.203576 1.781430 0.200000
v -0.203576 1.618569 -0.200000
v -0.203576 1.518570 -0.200000
v 0.203576 1.781430 -0.200000
v 0.203576 1.518570 -0.200000
v -0.230000 1.608000 0.250000
v 0.230000 1.792000 0.250000
v -0.250000 1.600000 0.230000
v 0.250000 1.800000 0.230000
v -0.250000 1.600000 -0.230000
v 0.250000 1.800000 -0.230000
v -0.230000 1.608000 -0.250000
v 0.230000 1.792000 -0.250000
v 0.250000 1.500000 -0.230000
v 0.250000 1.500000 0.230000
v 0.230000 1.500000 -0.250000
v 0.230000 1.500000 0.250000
v -0.230000 1.500000 -0.250000
v -0.230000 1.500000 0.250000
v -0.250000 1.500000 -0.230000
v -0.250000 1.500000 0.230000
v 0.078576 1.568569 0.050000
v 0.178576 1.568569 0.050000
v 0.078576 1.568569 -0.050000
v 0.178576 1.568569 -0.050000
v 0.078576 1.518569 -0.050000
v 0.078576 1.518569 0.050000
v 0.178576 1.518569 0.050000
v 0.178576 1.518569 -0.050000
v 0.078576 1.568569 0.175000
v 0.178576 1.568569 0.175000
v 0.078576 1.568569 0.075000
v 0.178576 1.568569 0.075000
v 0.078576 1.518569 0.075000
v 0.078576 1.518569 0.175000
v 0.178576 1.518569 0.175000
v 0.178576 1.518569 0.075000
v -0.250000 1.500000 0.230000
v -0.250000 1.500000 -0.230000
v -0.230000 1.500000 0.250000
v -0.230000 1.500000 -0.250000
v 0.230000 1.500000 0.250000
v 0.230000 1.500000 -0.250000
v 0.250000 1.500000 0.230000
v 0.250000 1.500000 -0.230000
vn 0.000000 -1.000000 0.000000
vn -0.923879 0.000000 0.382683
vn -0.923879 0.000000 -0.382683
vn -0.382683 0.000000 0.923879
vn -0.382683 0.000000 -0.923879
vn 0.382683 0.000000 0.923879
vn 0.382683 0.000000 -0.923879
vn 0.923879 0.000000 0.382683
vn 0.923879 0.000000 -0.382683
vn -0.000000 0.000000 -1.000000
vn 0.000000 0.000000 1.000000
vn -1.000000 0.000000 0.000000
vn 1.000000 0.000000 -0.000000
vn -0.371391 0.928477 0.000000
vn 0.938381 0.000000 -0.345604
vn 0.938381 0.000000 0.345603
vn 0.923879 0.000000 -0.382684
vn 0.463517 0.000000 -0.886088
vn 0.923880 0.000000 0.382683
vn 0.382683 0.000000 -0.923880
vn 0.382684 0.000000 0.923879
vn -0.304274 0.000000 -0.952584
vn 0.463518 0.000000 0.886088
vn -0.382684 0.000000 -0.923879
vn -0.382683 0.000000 0.923880
vn -0.304274 0.000000 0.952585
vn -0.910586 0.000000 -0.413321
vn -0.923880 0.000000 -0.382683
vn -0.923879 0.000000 0.382684
vn -0.910585 0.000000 0.413321
vn 0.000000 1.000000 0.000000
usemtl colormap
f 8/1/9 16/2/9 7/1/8
f 8/1/9 6/1/7 16/2/9
f 15/2/8 7/1/8 16/2/9
f 14/2/7 16/2/9 6/1/7
f 15/2/8 13/2/6 7/1/8
f 5/1/6 7/1/8 13/2/6
f 6/1/7 2/1/5 14/2/7
f 12/2/5 14/2/7 2/1/5
f 13/2/6 11/2/4 5/1/6
f 2/1/5 1/1/3 12/2/5
f 4/1/4 5/1/6 11/2/4
f 10/2/3 12/2/5 1/1/3
f 11/2/4 9/2/2 4/1/4
f 10/2/3 1/1/3 9/2/2
f 3/1/2 4/1/4 9/2/2
f 3/1/2 9/2/2 1/1/3
f 8/1/1 7/1/1 6/1/1
f 7/1/1 5/1/1 6/1/1
f 6/1/1 5/1/1 2/1/1
f 5/1/1 4/1/1 2/1/1
f 4/1/1 3/1/1 2/1/1
f 1/1/1 2/1/1 3/1/1
f 27/8/30 29/8/27 40/10/29
f 27/8/30 40/10/29 25/6/26
f 39/10/28 40/10/29 29/8/27
f 38/10/25 25/6/26 40/10/29
f 39/10/28 29/8/27 37/10/24
f 31/6/22 37/10/24 29/8/27
f 25/6/26 38/10/25 26/7/23
f 36/10/21 26/7/23 38/10/25
f 37/10/24 31/6/22 35/10/20
f 26/7/23 36/10/21 28/9/16
f 32/7/18 35/10/20 31/6/22
f 34/10/19 28/9/16 36/10/21
f 35/10/20 32/7/18 33/10/17
f 34/10/19 33/10/17 28/9/16
f 30/9/15 33/10/17 32/7/18
f 30/9/15 28/9/16 33/10/17
f 32/7/14 31/6/14 30/9/14
f 31/6/14 29/8/14 30/9/14
f 29/8/14 23/5/14 30/9/14
f 23/5/14 20/5/14 30/9/14
f 23/5/14 29/8/14 21/4/14
f 30/9/14 20/5/14 28/9/14
f 21/4/14 29/8/14 18/4/14
f 18/4/14 28/9/14 20/5/14
f 29/8/14 27/8/14 18/4/14
f 18/4/14 27/8/14 28/9/14
f 28/9/14 27/8/14 26/7/14
f 25/6/14 26/7/14 27/8/14
f 21/4/13 18/4/13 22/3/13
f 17/3/13 22/3/13 18/4/13
f 20/5/12 23/5/12 19/3/12
f 24/3/12 19/3/12 23/5/12
f 24/3/11 23/5/11 22/3/11
f 21/4/11 22/3/11 23/5/11
f 20/5/10 19/3/10 18/4/10
f 17/3/10 18/4/10 19/3/10
f 44/9/10 48/10/10 43/9/10
f 45/10/10 43/9/10 48/10/10
f 44/9/13 42/9/13 48/10/13
f 47/10/13 48/10/13 42/9/13
f 47/10/11 42/9/11 46/10/11
f 41/9/11 46/10/11 42/9/11
f 41/9/12 43/9/12 46/10/12
f 45/10/12 46/10/12 43/9/12
f 44/9/31 43/9/31 42/9/31
f 41/9/31 42/9/31 43/9/31
f 52/9/10 56/10/10 51/9/10
f 53/10/10 51/9/10 56/10/10
f 52/9/13 50/9/13 56/10/13
f 55/10/13 56/10/13 50/9/13
f 55/10/11 50/9/11 54/10/11
f 49/9/11 54/10/11 50/9/11
f 49/9/12 51/9/12 54/10/12
f 53/10/12 54/10/12 51/9/12
f 52/9/31 51/9/31 50/9/31
f 49/9/31 50/9/31 51/9/31
f 16/10/9 64/9/9 15/10/8
f 16/10/9 14/10/7 64/9/9
f 63/9/8 15/10/8 64/9/9
f 62/9/7 64/9/9 14/10/7
f 63/9/8 61/9/6 15/10/8
f 13/10/6 15/10/8 61/9/6
f 14/10/7 12/10/5 62/9/7
f 60/9/5 62/9/7 12/10/5
f 61/9/6 59/9/4 13/10/6
f 12/10/5 10/10/3 60/9/5
f 11/10/4 13/10/6 59/9/4
f 58/9/3 60/9/5 10/10/3
f 59/9/4 57/9/2 11/10/4
f 58/9/3 10/10/3 57/9/2
f 9/10/2 11/10/4 57/9/2
f 9/10/2 57/9/2 10/10/3
f 24/11/31 22/11/31 19/11/31
f 17/11/31 19/11/31 22/11/31
f 8/1/9 16/2/9 7/1/8
f 8/1/9 6/1/7 16/2/9
f 15/2/8 7/1/8 16/2/9
f 14/2/7 16/2/9 6/1/7
f 15/2/8 13/2/6 7/1/8
f 5/1/6 7/1/8 13/2/6
f 6/1/7 2/1/5 14/2/7
f 12/2/5 14/2/7 2/1/5
f 13/2/6 11/2/4 5/1/6
f 2/1/5 1/1/3 12/2/5
f 4/1/4 5/1/6 11/2/4
f 10/2/3 12/2/5 1/1/3
f 11/2/4 9/2/2 4/1/4
f 10/2/3 1/1/3 9/2/2
f 3/1/2 4/1/4 9/2/2
f 3/1/2 9/2/2 1/1/3
f 8/1/1 7/1/1 6/1/1
f 7/1/1 5/1/1 6/1/1
f 6/1/1 5/1/1 2/1/1
f 5/1/1 4/1/1 2/1/1
f 4/1/1 3/1/1 2/1/1
f 1/1/1 2/1/1 3/1/1
f 27/8/30 29/8/27 40/10/29
f 27/8/30 40/10/29 25/6/26
f 39/10/28 40/10/29 29/8/27
f 38/10/25 25/6/26 40/10/29
f 39/10/28 29/8/27 37/10/24
f 31/6/22 37/10/24 29/8/27
f 25/6/26 38/10/25 26/7/23
f 36/10/21 26/7/23 38/10/25
f 37/10/24 31/6/22 35/10/20
f 26/7/23 36/10/21 28/9/16
f 32/7/18 35/10/20 31/6/22
f 34/10/19 28/9/16 36/10/21
f 35/10/20 32/7/18 33/10/17
f 34/10/19 33/10/17 28/9/16
f 30/9/15 33/10/17 32/7/18
f 30/9/15 28/9/16 33/10/17
f 32/7/14 31/6/14 30/9/14
f 31/6/14 29/8/14 30/9/14
f 29/8/14 23/5/14 30/9/14
f 23/5/14 20/5/14 30/9/14
f 23/5/14 29/8/14 21/4/14
f 30/9/14 20/5/14 28/9/14
f 21/4/14 29/8/14 18/4/14
f 18/4/14 28/9/14 20/5/14
f 29/8/14 27/8/14 18/4/14
f 18/4/14 27/8/14 28/9/14
f 28/9/14 27/8/14 26/7/14
f 25/6/14 26/7/14 27/8/14
f 21/4/13 18/4/13 22/3/13
f 17/3/13 22/3/13 18/4/13
f 20/5/12 23/5/12 19/3/12
f 24/3/12 19/3/12 23/5/12
f 24/3/11 23/5/11 22/3/11
f 21/4/11 22/3/11 23/5/11
f 20/5/10 19/3/10 18/4/10
f 17/3/10 18/4/10 19/3/10
f 44/9/10 48/10/10 43/9/10
f 45/10/10 43/9/10 48/10/10
f 44/9/13 42/9/13 48/10/13
f 47/10/13 48/10/13 42/9/13
f 47/10/11 42/9/11 46/10/11
f 41/9/11 46/10/11 42/9/11
f 41/9/12 43/9/12 46/10/12
f 45/10/12 46/10/12 43/9/12
f 44/9/31 43/9/31 42/9/31
f 41/9/31 42/9/31 43/9/31
f 52/9/10 56/10/10 51/9/10
f 53/10/10 51/9/10 56/10/10
f 52/9/13 50/9/13 56/10/13
f 55/10/13 56/10/13 50/9/13
f 55/10/11 50/9/11 54/10/11
f 49/9/11 54/10/11 50/9/11
f 49/9/12 51/9/12 54/10/12
f 53/10/12 54/10/12 51/9/12
f 52/9/31 51/9/31 50/9/31
f 49/9/31 50/9/31 51/9/31
f 16/10/9 64/9/9 15/10/8
f 16/10/9 14/10/7 64/9/9
f 63/9/8 15/10/8 64/9/9
f 62/9/7 64/9/9 14/10/7
f 63/9/8 61/9/6 15/10/8
f 13/10/6 15/10/8 61/9/6
f 14/10/7 12/10/5 62/9/7
f 60/9/5 62/9/7 12/10/5
f 61/9/6 59/9/4 13/10/6
f 12/10/5 10/10/3 60/9/5
f 11/10/4 13/10/6 59/9/4
f 58/9/3 60/9/5 10/10/3
f 59/9/4 57/9/2 11/10/4
f 58/9/3 10/10/3 57/9/2
f 9/10/2 11/10/4 57/9/2
f 9/10/2 57/9/2 10/10/3
f 24/11/31 22/11/31 19/11/31
f 17/11/31 19/11/31 22/11/31
