mtllib cannon-mobile.mtl
v 0.539375 0.309523 0.205955
v 0.539375 0.528388 0.296612
v 0.539375 0.090657 0.296612
v 0.539375 0.000000 0.515477
v 0.539375 0.619046 0.515477
v 0.539375 0.090657 0.734343
v 0.539375 0.528388 0.734343
v 0.539375 0.309523 0.825000
v 0.539375 0.309523 -0.825000
v 0.539375 0.528388 -0.734343
v 0.539375 0.090657 -0.734343
v 0.539375 0.000000 -0.515477
v 0.539375 0.619046 -0.515477
v 0.539375 0.090657 -0.296612
v 0.539375 0.528388 -0.296612
v 0.539375 0.309523 -0.205955
v -0.539375 0.309523 0.205955
v -0.539375 0.528388 0.296612
v -0.539375 0.090657 0.296612
v -0.539375 0.000000 0.515477
v -0.539375 0.619046 0.515477
v -0.539375 0.090657 0.734343
v -0.539375 0.528388 0.734343
v -0.539375 0.309523 0.825000
v -0.539375 0.309523 -0.825000
v -0.539375 0.528388 -0.734343
v -0.539375 0.090657 -0.734343
v -0.539375 0.000000 -0.515477
v -0.539375 0.619046 -0.515477
v -0.539375 0.090657 -0.296612
v -0.539375 0.528388 -0.296612
v -0.539375 0.309523 -0.205955
v 0.000000 0.662022 -0.780343
v 0.217789 0.752233 -0.780343
v -0.217789 0.752233 -0.780343
v 0.000000 0.783302 -0.780343
v -0.132031 0.837991 -0.780343
v 0.132031 0.837991 -0.780343
v -0.308000 0.970022 -0.780343
v -0.186720 0.970022 -0.780343
v 0.308000 0.970022 -0.780343
v 0.186720 0.970022 -0.780343
v 0.132031 1.102053 -0.780343
v -0.217789 1.187811 -0.780343
v 0.217789 1.187811 -0.780343
v -0.132031 1.102053 -0.780343
v 0.000000 1.278022 -0.780343
v 0.000000 1.156742 -0.780343
v 0.289659 0.680363 -0.318343
v 0.000000 0.560382 -0.318343
v 0.409640 0.970022 -0.318343
v 0.289659 1.259682 -0.318343
v 0.000000 1.379662 -0.318343
v -0.289659 1.259682 -0.318343
v -0.289659 0.680363 -0.318343
v -0.409640 0.970022 -0.318343
v 0.217789 0.752233 0.759657
v 0.000000 0.662022 0.759657
v -0.217789 0.752233 0.759657
v -0.308000 0.970022 0.759657
v 0.308000 0.970022 0.759657
v 0.217789 1.187811 0.759657
v 0.000000 1.278022 0.759657
v -0.217789 1.187811 0.759657
v 0.000000 0.567326 0.990657
v -0.284749 0.685273 0.990657
v 0.284749 0.685273 0.990657
v 0.000000 0.738599 0.990657
v 0.163641 0.806382 0.990657
v -0.163641 0.806382 0.990657
v 0.402696 0.970022 0.990657
v 0.231423 0.970022 0.990657
v -0.402696 0.970022 0.990657
v -0.231423 0.970022 0.990657
v -0.163641 1.133663 0.990657
v 0.284749 1.254771 0.990657
v -0.284749 1.254771 0.990657
v 0.163641 1.133663 0.990657
v 0.000000 1.201445 0.990657
v 0.000000 1.372718 0.990657
v 0.273359 1.243382 0.759657
v 0.000000 1.356611 0.759657
v -0.273359 1.243382 0.759657
v 0.273359 0.696663 0.759657
v 0.000000 0.583434 0.759657
v -0.273359 0.696663 0.759657
v -0.386588 0.970022 0.759657
v 0.386588 0.970022 0.759657
v 0.000000 0.815045 -0.934343
v 0.109586 0.860437 -0.934343
v -0.109586 0.860437 -0.934343
v -0.154978 0.970022 -0.934343
v 0.154978 0.970022 -0.934343
v -0.109586 1.079608 -0.934343
v 0.109586 1.079608 -0.934343
v 0.000000 1.125000 -0.934343
v 0.701187 0.960606 -0.209657
v 0.701187 0.858783 -0.167481
v 0.701187 1.062429 -0.167481
v 0.701187 1.104606 -0.065657
v 0.701187 0.816606 -0.065657
v 0.701187 1.062429 0.036166
v 0.701187 0.858783 0.036166
v 0.701187 0.960606 0.078343
v -0.701187 1.062429 -0.167481
v -0.701187 1.104606 -0.065657
v -0.701187 0.858783 -0.167481
v -0.701187 0.960606 -0.209657
v -0.701187 0.858783 0.036166
v -0.701187 0.816606 -0.065657
v -0.701187 1.062429 0.036166
v -0.701187 0.960606 0.078343
v 0.739375 0.309523 0.205955
v 0.739375 0.090657 0.296612
v 0.739375 0.528388 0.296612
v 0.739375 0.309523 0.377401
v 0.739375 0.407158 0.417842
v 0.739375 0.211888 0.417842
v 0.739375 0.619046 0.515477
v 0.739375 0.447599 0.515477
v 0.739375 0.000000 0.515477
v 0.739375 0.171446 0.515477
v 0.739375 0.211888 0.613112
v 0.739375 0.528388 0.734343
v 0.739375 0.090657 0.734343
v 0.739375 0.407158 0.613112
v 0.739375 0.309523 0.653554
v 0.739375 0.309523 0.825000
v 0.839375 0.309523 0.402255
v 0.839375 0.229462 0.435417
v 0.839375 0.389583 0.435417
v 0.839375 0.422745 0.515477
v 0.839375 0.196300 0.515477
v 0.839375 0.389583 0.595538
v 0.839375 0.229462 0.595538
v 0.839375 0.309523 0.628700
v 0.739375 0.309523 -0.825000
v 0.739375 0.090657 -0.734343
v 0.739375 0.528388 -0.734343
v 0.739375 0.309523 -0.653554
v 0.739375 0.407158 -0.613112
v 0.739375 0.211888 -0.613112
v 0.739375 0.619046 -0.515477
v 0.739375 0.447599 -0.515477
v 0.739375 0.000000 -0.515477
v 0.739375 0.171446 -0.515477
v 0.739375 0.211888 -0.417842
v 0.739375 0.528388 -0.296612
v 0.739375 0.090657 -0.296612
v 0.739375 0.407158 -0.417842
v 0.739375 0.309523 -0.377401
v 0.739375 0.309523 -0.205955
v 0.839375 0.309523 -0.628700
v 0.839375 0.229462 -0.595538
v 0.839375 0.389583 -0.595538
v 0.839375 0.422745 -0.515477
v 0.839375 0.196300 -0.515477
v 0.839375 0.389583 -0.435417
v 0.839375 0.229462 -0.435417
v 0.839375 0.309523 -0.402255
v -0.739375 0.309523 0.205955
v -0.739375 0.090657 0.296612
v -0.739375 0.528388 0.296612
v -0.739375 0.309523 0.377401
v -0.739375 0.407158 0.417842
v -0.739375 0.211888 0.417842
v -0.739375 0.619046 0.515477
v -0.739375 0.447599 0.515477
v -0.739375 0.000000 0.515477
v -0.739375 0.171446 0.515477
v -0.739375 0.211888 0.613112
v -0.739375 0.528388 0.734343
v -0.739375 0.090657 0.734343
v -0.739375 0.407158 0.613112
v -0.739375 0.309523 0.653554
v -0.739375 0.309523 0.825000
v -0.839375 0.309523 0.402255
v -0.839375 0.229462 0.435417
v -0.839375 0.389583 0.435417
v -0.839375 0.422745 0.515477
v -0.839375 0.196300 0.515477
v -0.839375 0.389583 0.595538
v -0.839375 0.229462 0.595538
v -0.839375 0.309523 0.628700
v -0.739375 0.309523 -0.825000
v -0.739375 0.090657 -0.734343
v -0.739375 0.528388 -0.734343
v -0.739375 0.309523 -0.653554
v -0.739375 0.407158 -0.613112
v -0.739375 0.211888 -0.613112
v -0.739375 0.619046 -0.515477
v -0.739375 0.447599 -0.515477
v -0.739375 0.000000 -0.515477
v -0.739375 0.171446 -0.515477
v -0.739375 0.211888 -0.417842
v -0.739375 0.528388 -0.296612
v -0.739375 0.090657 -0.296612
v -0.739375 0.407158 -0.417842
v -0.739375 0.309523 -0.377401
v -0.739375 0.309523 -0.205955
v -0.839375 0.309523 -0.628700
v -0.839375 0.229462 -0.595538
v -0.839375 0.389583 -0.595538
v -0.839375 0.422745 -0.515477
v -0.839375 0.196300 -0.515477
v -0.839375 0.389583 -0.435417
v -0.839375 0.229462 -0.435417
v -0.839375 0.309523 -0.402255
v 0.439375 0.325000 0.734343
v -0.439375 0.325000 0.734343
v 0.439375 0.625000 0.734343
v -0.439375 0.625000 0.734343
v 0.539375 0.625000 -0.634343
v 0.539375 0.325000 -0.634343
v 0.539375 0.625000 0.634343
v 0.539375 0.325000 0.634343
v -0.539375 0.325000 0.634343
v -0.539375 0.625000 0.634343
v -0.439375 0.325000 -0.734343
v 0.439375 0.325000 -0.734343
v -0.439375 0.625000 -0.734343
v 0.439375 0.625000 -0.734343
v -0.539375 0.325000 -0.634343
v -0.539375 0.625000 -0.634343
v 0.000000 0.801084 0.759657
v -0.119458 0.850565 0.759657
v 0.119458 0.850565 0.759657
v 0.168939 0.970022 0.759657
v -0.168939 0.970022 0.759657
v 0.119458 1.089480 0.759657
v -0.119458 1.089480 0.759657
v 0.000000 1.138961 0.759657
v -0.378584 1.184030 0.234343
v -0.378584 1.184030 0.634343
v -0.668361 1.106384 0.234343
v -0.668361 1.106384 0.634343
v -0.518570 0.547354 0.634343
v -0.228792 0.625000 0.634343
v -0.300938 0.894252 -0.634343
v -0.228792 0.625000 -0.634343
v -0.300938 0.894252 -0.065657
v -0.590716 0.816606 -0.065657
v -0.518570 0.547354 -0.634343
v -0.590716 0.816606 -0.634343
v 0.228792 0.625000 -0.634343
v 0.518570 0.547354 -0.634343
v 0.300938 0.894252 -0.634343
v 0.590716 0.816606 -0.634343
v 0.228792 0.625000 0.634343
v 0.378584 1.184030 0.634343
v 0.518570 0.547354 0.634343
v 0.668361 1.106384 0.634343
v 0.300938 0.894252 -0.065657
v 0.378584 1.184030 0.234343
v 0.590716 0.816606 -0.065657
v 0.668361 1.106384 0.234343
vn -1.000000 0.000000 0.000000
vn 1.000000 0.000000 0.000000
vn 0.000000 0.000000 -1.000000
vn 0.705873 -0.705873 -0.059050
vn 0.690592 -0.690592 -0.214862
vn 0.000000 -0.998255 -0.059050
vn 0.000000 -0.976644 -0.214862
vn 0.976644 0.000000 -0.214862
vn 0.998255 0.000000 -0.059050
vn 0.690592 0.690592 -0.214862
vn 0.705873 0.705873 -0.059050
vn 0.000000 0.998255 -0.059050
vn 0.000000 0.976644 -0.214862
vn -0.690592 0.690592 -0.214862
vn -0.705873 0.705873 -0.059050
vn -0.690592 -0.690592 -0.214862
vn -0.976644 0.000000 -0.214862
vn -0.705873 -0.705873 -0.059050
vn -0.998255 0.000000 -0.059050
vn 0.703985 -0.703985 0.093869
vn 0.000000 -0.995584 0.093869
vn -0.703985 -0.703985 0.093869
vn -0.995584 -0.000000 0.093869
vn 0.995584 -0.000000 0.093869
vn 0.703985 0.703985 0.093869
vn 0.000000 0.995584 0.093869
vn -0.703985 0.703985 0.093869
vn 0.000000 -0.000000 1.000000
vn 0.705394 0.705394 -0.069562
vn 0.000000 0.997578 -0.069562
vn -0.705394 0.705394 -0.069562
vn 0.705394 -0.705394 -0.069562
vn 0.000000 -0.997578 -0.069562
vn -0.705394 -0.705394 -0.069562
vn -0.997578 0.000000 -0.069562
vn 0.997578 0.000000 -0.069562
vn 0.000000 -0.979411 -0.201876
vn -0.692548 -0.692548 -0.201876
vn 0.692548 0.692548 -0.201876
vn 0.000000 0.979411 -0.201876
vn 0.979411 0.000000 -0.201876
vn 0.692548 -0.692548 -0.201876
vn -0.692548 0.692548 -0.201876
vn -0.979411 0.000000 -0.201876
vn 0.000000 0.707107 -0.707107
vn 0.000000 1.000000 0.000000
vn 0.000000 -0.707107 -0.707107
vn 0.000000 0.000000 -1.000000
vn 0.000000 -0.707107 0.707107
vn 0.000000 -1.000000 0.000000
vn 0.000000 0.000000 1.000000
vn 0.000000 0.707107 0.707107
vn 0.241200 -0.970476 0.000000
vn 0.241200 -0.686230 -0.686230
vn 0.241200 0.686230 -0.686230
vn 0.241200 0.970476 0.000000
vn 0.241200 0.000000 -0.970476
vn 0.241200 -0.686230 0.686230
vn 0.241200 0.000000 0.970476
vn 0.241200 0.686230 0.686230
vn -0.241200 -0.970476 0.000000
vn -0.241200 -0.686230 -0.686230
vn -0.241200 0.686230 -0.686230
vn -0.241200 0.970476 0.000000
vn -0.241200 0.000000 -0.970476
vn -0.241200 -0.686230 0.686230
vn -0.241200 0.000000 0.970476
vn -0.241200 0.686230 0.686230
vn 0.403865 0.000000 0.914818
vn -0.403865 0.000000 0.914818
vn 0.934823 0.000000 -0.355114
vn 0.934823 0.000000 0.355114
vn -0.934823 0.000000 0.355114
vn -0.403865 0.000000 -0.914818
vn 0.403865 0.000000 -0.914818
vn -0.934823 0.000000 -0.355114
vn 0.000000 0.687204 0.726464
vn 0.485927 0.485927 0.726464
vn -0.485927 0.485927 0.726464
vn -0.687204 -0.000000 0.726464
vn 0.687204 -0.000000 0.726464
vn -0.485927 -0.485927 0.726464
vn 0.485927 -0.485927 0.726464
vn 0.000000 -0.687204 0.726464
vn -0.682576 0.682576 0.261111
vn -0.965309 -0.000000 0.261111
vn 0.682576 0.682576 0.261111
vn 0.965309 -0.000000 0.261111
vn 0.000000 0.965309 0.261111
vn 0.682576 -0.682576 0.261111
vn 0.000000 -0.965309 0.261111
vn -0.682576 -0.682576 0.261111
vn -0.239118 0.892399 -0.382683
vn -0.258819 0.965926 0.000000
vn 0.965926 0.258819 0.000000
vn -0.965926 -0.258819 0.000000
vn -0.965926 0.258819 0.000000
vn 0.965926 -0.258819 0.000000
vn 0.239118 0.892399 -0.382683
vn 0.258819 0.965926 0.000000
usemtl colormap
f 3/3/1 2/2/1 1/1/1
f 2/2/1 3/3/1 4/4/1
f 2/2/1 4/4/1 5/5/1
f 5/5/1 4/4/1 6/3/1
f 5/5/1 6/3/1 7/2/1
f 7/2/1 6/3/1 8/1/1
f 11/3/1 10/2/1 9/1/1
f 10/2/1 11/3/1 12/4/1
f 10/2/1 12/4/1 13/5/1
f 13/5/1 12/4/1 14/3/1
f 13/5/1 14/3/1 15/2/1
f 15/2/1 14/3/1 16/1/1
f 24/1/2 22/3/2 23/2/2
f 23/2/2 22/3/2 21/5/2
f 22/3/2 20/4/2 21/5/2
f 21/5/2 20/4/2 18/2/2
f 20/4/2 19/3/2 18/2/2
f 17/1/2 18/2/2 19/3/2
f 32/1/2 30/3/2 31/2/2
f 31/2/2 30/3/2 29/5/2
f 30/3/2 28/4/2 29/5/2
f 29/5/2 28/4/2 26/2/2
f 28/4/2 27/3/2 26/2/2
f 25/1/2 26/2/2 27/3/2
f 35/7/3 34/7/3 33/6/3
f 34/7/3 35/7/3 36/8/3
f 36/8/3 35/7/3 37/9/3
f 38/9/3 34/7/3 36/8/3
f 37/9/3 35/7/3 39/10/3
f 37/9/3 39/10/3 40/10/3
f 34/7/3 38/9/3 41/10/3
f 41/10/3 38/9/3 42/10/3
f 41/10/3 42/10/3 43/11/3
f 40/10/3 39/10/3 44/12/3
f 41/10/3 43/11/3 45/12/3
f 40/10/3 44/12/3 46/11/3
f 45/12/3 44/12/3 47/13/3
f 45/12/3 43/11/3 48/14/3
f 46/11/3 44/12/3 48/14/3
f 48/14/3 44/12/3 45/12/3
f 50/6/6 34/7/5 49/15/4
f 34/7/5 50/6/6 33/6/7
f 41/10/8 49/15/4 34/7/5
f 49/15/4 41/10/8 51/10/9
f 45/12/10 51/10/9 41/10/8
f 51/10/9 45/12/10 52/16/11
f 45/12/10 53/5/12 52/16/11
f 53/5/12 45/12/10 47/13/13
f 44/12/14 53/5/12 47/13/13
f 53/5/12 44/12/14 54/16/15
f 55/15/18 39/10/17 35/7/16
f 39/10/17 55/15/18 56/10/19
f 55/15/18 33/6/7 50/6/6
f 33/6/7 55/15/18 35/7/16
f 57/7/20 50/6/6 49/15/4
f 50/6/6 57/7/20 58/6/21
f 56/10/19 44/12/14 39/10/17
f 44/12/14 56/10/19 54/16/15
f 59/7/22 50/6/6 58/6/21
f 50/6/6 59/7/22 55/15/18
f 55/15/18 60/10/23 56/10/19
f 60/10/23 55/15/18 59/7/22
f 52/16/11 61/10/24 51/10/9
f 61/10/24 52/16/11 62/12/25
f 54/16/15 63/13/26 53/5/12
f 63/13/26 54/16/15 64/12/27
f 60/10/23 54/16/15 56/10/19
f 54/16/15 60/10/23 64/12/27
f 53/5/12 62/12/25 52/16/11
f 62/12/25 53/5/12 63/13/26
f 61/10/24 49/15/4 51/10/9
f 49/15/4 61/10/24 57/7/20
f 67/17/28 66/17/28 65/6/28
f 66/17/28 67/17/28 68/18/28
f 68/18/28 67/17/28 69/19/28
f 70/19/28 66/17/28 68/18/28
f 69/19/28 67/17/28 71/10/28
f 69/19/28 71/10/28 72/10/28
f 66/17/28 70/19/28 73/10/28
f 73/10/28 70/19/28 74/10/28
f 73/10/28 74/10/28 75/20/28
f 72/10/28 71/10/28 76/21/28
f 73/10/28 75/20/28 77/21/28
f 72/10/28 76/21/28 78/20/28
f 77/21/28 75/20/28 79/22/28
f 78/20/28 76/21/28 79/22/28
f 77/21/28 79/22/28 76/21/28
f 77/21/28 76/21/28 80/23/28
f 81/24/29 80/23/30 76/21/29
f 80/23/30 81/24/29 82/25/30
f 83/24/31 80/23/30 82/25/30
f 80/23/30 83/24/31 77/21/31
f 65/6/33 84/26/32 67/17/32
f 84/26/32 65/6/33 85/6/33
f 66/17/34 85/6/33 65/6/33
f 85/6/33 66/17/34 86/26/34
f 66/17/34 87/10/35 86/26/34
f 87/10/35 66/17/34 73/10/35
f 87/10/35 77/21/31 83/24/31
f 77/21/31 87/10/35 73/10/35
f 88/10/36 67/17/32 84/26/32
f 67/17/32 88/10/36 71/10/36
f 76/21/29 88/10/36 81/24/29
f 88/10/36 76/21/29 71/10/36
f 91/28/3 90/28/3 89/27/3
f 90/28/3 91/28/3 92/10/3
f 90/28/3 92/10/3 93/10/3
f 93/10/3 92/10/3 94/29/3
f 93/10/3 94/29/3 95/29/3
f 95/29/3 94/29/3 96/30/3
f 36/8/37 91/28/38 89/27/37
f 91/28/38 36/8/37 37/9/38
f 95/29/39 48/14/40 43/11/39
f 48/14/40 95/29/39 96/30/40
f 42/10/41 90/28/42 93/10/41
f 90/28/42 42/10/41 38/9/42
f 94/29/43 48/14/40 96/30/40
f 48/14/40 94/29/43 46/11/43
f 36/8/37 90/28/42 38/9/42
f 90/28/42 36/8/37 89/27/37
f 95/29/39 42/10/41 93/10/41
f 42/10/41 95/29/39 43/11/39
f 91/28/38 40/10/44 92/10/44
f 40/10/44 91/28/38 37/9/38
f 40/10/44 94/29/43 92/10/44
f 94/29/43 40/10/44 46/11/43
f 88/10/3 57/7/3 61/10/3
f 88/10/3 61/10/3 62/12/3
f 84/26/3 57/7/3 88/10/3
f 88/10/3 62/12/3 81/24/3
f 84/26/3 58/6/3 57/7/3
f 58/6/3 84/26/3 85/6/3
f 86/26/3 58/6/3 85/6/3
f 58/6/3 86/26/3 59/7/3
f 59/7/3 86/26/3 87/10/3
f 59/7/3 87/10/3 60/10/3
f 81/24/3 62/12/3 63/13/3
f 81/24/3 63/13/3 82/25/3
f 60/10/3 87/10/3 83/24/3
f 63/13/3 83/24/3 82/25/3
f 60/10/3 83/24/3 64/12/3
f 64/12/3 83/24/3 63/13/3
f 99/33/2 98/32/2 97/31/2
f 98/32/2 99/33/2 100/5/2
f 98/32/2 100/5/2 101/6/2
f 101/6/2 100/5/2 102/33/2
f 101/6/2 102/33/2 103/32/2
f 103/32/2 102/33/2 104/31/2
f 105/33/45 100/5/46 99/33/45
f 100/5/46 105/33/45 106/5/46
f 107/32/47 97/31/48 98/32/47
f 97/31/48 107/32/47 108/31/48
f 109/32/49 101/6/50 103/32/49
f 101/6/50 109/32/49 110/6/50
f 110/6/50 98/32/47 101/6/50
f 98/32/47 110/6/50 107/32/47
f 107/32/1 105/33/1 108/31/1
f 105/33/1 107/32/1 110/6/1
f 105/33/1 110/6/1 106/5/1
f 106/5/1 110/6/1 109/32/1
f 106/5/1 109/32/1 111/33/1
f 111/33/1 109/32/1 112/31/1
f 104/31/51 109/32/49 103/32/49
f 109/32/49 104/31/51 112/31/51
f 102/33/52 112/31/51 104/31/51
f 112/31/51 102/33/52 111/33/52
f 106/5/46 102/33/52 100/5/46
f 102/33/52 106/5/46 111/33/52
f 108/31/48 99/33/45 97/31/48
f 99/33/45 108/31/48 105/33/45
f 115/36/2 114/35/2 113/34/2
f 114/35/2 115/36/2 116/34/2
f 116/34/2 115/36/2 117/37/2
f 118/38/2 114/35/2 116/34/2
f 117/37/2 115/36/2 119/39/2
f 117/37/2 119/39/2 120/40/2
f 114/35/2 118/38/2 121/41/2
f 121/41/2 118/38/2 122/42/2
f 121/41/2 122/42/2 123/38/2
f 120/40/2 119/39/2 124/36/2
f 121/41/2 123/38/2 125/35/2
f 120/40/2 124/36/2 126/37/2
f 125/35/2 123/38/2 127/34/2
f 126/37/2 124/36/2 127/34/2
f 125/35/2 127/34/2 124/36/2
f 125/35/2 124/36/2 128/34/2
f 131/44/2 130/43/2 129/34/2
f 130/43/2 131/44/2 132/45/2
f 130/43/2 132/45/2 133/46/2
f 133/46/2 132/45/2 134/44/2
f 133/46/2 134/44/2 135/43/2
f 135/43/2 134/44/2 136/34/2
f 122/42/53 130/43/54 133/46/53
f 130/43/54 122/42/53 118/38/54
f 117/37/55 132/45/56 131/44/55
f 132/45/56 117/37/55 120/40/56
f 116/34/57 130/43/54 118/38/54
f 130/43/54 116/34/57 129/34/57
f 123/38/58 133/46/53 135/43/58
f 133/46/53 123/38/58 122/42/53
f 117/37/55 129/34/57 116/34/57
f 129/34/57 117/37/55 131/44/55
f 136/34/59 126/37/60 127/34/59
f 126/37/60 136/34/59 134/44/60
f 135/43/58 127/34/59 123/38/58
f 127/34/59 135/43/58 136/34/59
f 120/40/56 134/44/60 132/45/56
f 134/44/60 120/40/56 126/37/60
f 139/36/2 138/35/2 137/34/2
f 138/35/2 139/36/2 140/34/2
f 140/34/2 139/36/2 141/37/2
f 142/38/2 138/35/2 140/34/2
f 141/37/2 139/36/2 143/39/2
f 141/37/2 143/39/2 144/40/2
f 138/35/2 142/38/2 145/41/2
f 145/41/2 142/38/2 146/42/2
f 145/41/2 146/42/2 147/38/2
f 144/40/2 143/39/2 148/36/2
f 145/41/2 147/38/2 149/35/2
f 144/40/2 148/36/2 150/37/2
f 149/35/2 147/38/2 151/34/2
f 150/37/2 148/36/2 151/34/2
f 149/35/2 151/34/2 148/36/2
f 149/35/2 148/36/2 152/34/2
f 155/44/2 154/43/2 153/34/2
f 154/43/2 155/44/2 156/45/2
f 154/43/2 156/45/2 157/46/2
f 157/46/2 156/45/2 158/44/2
f 157/46/2 158/44/2 159/43/2
f 159/43/2 158/44/2 160/34/2
f 146/42/53 154/43/54 157/46/53
f 154/43/54 146/42/53 142/38/54
f 141/37/55 156/45/56 155/44/55
f 156/45/56 141/37/55 144/40/56
f 140/34/57 154/43/54 142/38/54
f 154/43/54 140/34/57 153/34/57
f 147/38/58 157/46/53 159/43/58
f 157/46/53 147/38/58 146/42/53
f 141/37/55 153/34/57 140/34/57
f 153/34/57 141/37/55 155/44/55
f 160/34/59 150/37/60 151/34/59
f 150/37/60 160/34/59 158/44/60
f 159/43/58 151/34/59 147/38/58
f 151/34/59 159/43/58 160/34/59
f 144/40/56 158/44/60 156/45/56
f 158/44/60 144/40/56 150/37/60
f 174/37/68 168/40/64 182/44/68
f 180/45/64 182/44/68 168/40/64
f 184/34/67 183/43/66 175/34/67
f 171/38/66 175/34/67 183/43/66
f 182/44/68 184/34/67 174/37/68
f 175/34/67 174/37/68 184/34/67
f 179/44/63 165/37/63 177/34/65
f 164/34/65 177/34/65 165/37/63
f 170/42/61 171/38/66 181/46/61
f 183/43/66 181/46/61 171/38/66
f 177/34/65 164/34/65 178/43/62
f 166/38/62 178/43/62 164/34/65
f 168/40/64 165/37/63 180/45/64
f 179/44/63 180/45/64 165/37/63
f 166/38/62 170/42/61 178/43/62
f 181/46/61 178/43/62 170/42/61
f 184/34/1 182/44/1 183/43/1
f 183/43/1 182/44/1 181/46/1
f 182/44/1 180/45/1 181/46/1
f 181/46/1 180/45/1 178/43/1
f 180/45/1 179/44/1 178/43/1
f 177/34/1 178/43/1 179/44/1
f 176/34/1 172/36/1 173/35/1
f 172/36/1 175/34/1 173/35/1
f 175/34/1 172/36/1 174/37/1
f 175/34/1 171/38/1 173/35/1
f 174/37/1 172/36/1 168/40/1
f 173/35/1 171/38/1 169/41/1
f 172/36/1 167/39/1 168/40/1
f 171/38/1 170/42/1 169/41/1
f 170/42/1 166/38/1 169/41/1
f 169/41/1 166/38/1 162/35/1
f 168/40/1 167/39/1 165/37/1
f 167/39/1 163/36/1 165/37/1
f 164/34/1 162/35/1 166/38/1
f 165/37/1 163/36/1 164/34/1
f 164/34/1 163/36/1 162/35/1
f 161/34/1 162/35/1 163/36/1
f 198/37/68 192/40/64 206/44/68
f 204/45/64 206/44/68 192/40/64
f 208/34/67 207/43/66 199/34/67
f 195/38/66 199/34/67 207/43/66
f 206/44/68 208/34/67 198/37/68
f 199/34/67 198/37/68 208/34/67
f 203/44/63 189/37/63 201/34/65
f 188/34/65 201/34/65 189/37/63
f 194/42/61 195/38/66 205/46/61
f 207/43/66 205/46/61 195/38/66
f 201/34/65 188/34/65 202/43/62
f 190/38/62 202/43/62 188/34/65
f 192/40/64 189/37/63 204/45/64
f 203/44/63 204/45/64 189/37/63
f 190/38/62 194/42/61 202/43/62
f 205/46/61 202/43/62 194/42/61
f 208/34/1 206/44/1 207/43/1
f 207/43/1 206/44/1 205/46/1
f 206/44/1 204/45/1 205/46/1
f 205/46/1 204/45/1 202/43/1
f 204/45/1 203/44/1 202/43/1
f 201/34/1 202/43/1 203/44/1
f 200/34/1 196/36/1 197/35/1
f 196/36/1 199/34/1 197/35/1
f 199/34/1 196/36/1 198/37/1
f 199/34/1 195/38/1 197/35/1
f 198/37/1 196/36/1 192/40/1
f 197/35/1 195/38/1 193/41/1
f 196/36/1 191/39/1 192/40/1
f 195/38/1 194/42/1 193/41/1
f 194/42/1 190/38/1 193/41/1
f 193/41/1 190/38/1 186/35/1
f 192/40/1 191/39/1 189/37/1
f 191/39/1 187/36/1 189/37/1
f 188/34/1 186/35/1 190/38/1
f 189/37/1 187/36/1 188/34/1
f 188/34/1 187/36/1 186/35/1
f 185/34/1 186/35/1 187/36/1
f 211/47/69 210/41/70 209/41/69
f 210/41/70 211/47/69 212/47/70
f 215/47/72 214/41/71 213/47/71
f 214/41/71 215/47/72 216/41/72
f 212/47/70 217/41/73 210/41/70
f 217/41/73 212/47/70 218/47/73
f 215/47/72 209/41/69 216/41/72
f 209/41/69 215/47/72 211/47/69
f 221/47/74 220/41/75 219/41/74
f 220/41/75 221/47/74 222/47/75
f 217/41/73 224/47/76 223/41/76
f 224/47/76 217/41/73 218/47/73
f 222/47/75 214/41/71 220/41/75
f 214/41/71 222/47/75 213/47/71
f 224/47/76 219/41/74 223/41/76
f 219/41/74 224/47/76 221/47/74
f 209/41/50 214/41/50 216/41/50
f 214/41/50 209/41/50 220/41/50
f 220/41/50 209/41/50 210/41/50
f 220/41/50 210/41/50 219/41/50
f 219/41/50 210/41/50 217/41/50
f 219/41/50 217/41/50 223/41/50
f 222/47/46 215/47/46 213/47/46
f 215/47/46 222/47/46 211/47/46
f 211/47/46 222/47/46 221/47/46
f 211/47/46 221/47/46 212/47/46
f 212/47/46 221/47/46 224/47/46
f 212/47/46 224/47/46 218/47/46
f 128/49/51 6/48/49 125/48/49
f 6/48/49 128/49/51 8/49/51
f 124/50/52 8/49/51 128/49/51
f 8/49/51 124/50/52 7/50/52
f 5/51/46 124/50/52 119/51/46
f 124/50/52 5/51/46 7/50/52
f 2/50/45 119/51/46 115/50/45
f 119/51/46 2/50/45 5/51/46
f 2/50/45 113/49/48 1/49/48
f 113/49/48 2/50/45 115/50/45
f 1/49/48 114/48/47 3/48/47
f 114/48/47 1/49/48 113/49/48
f 4/52/50 114/48/47 121/52/50
f 114/48/47 4/52/50 3/48/47
f 6/48/49 121/52/50 125/48/49
f 121/52/50 6/48/49 4/52/50
f 152/49/51 14/48/49 149/48/49
f 14/48/49 152/49/51 16/49/51
f 148/50/52 16/49/51 152/49/51
f 16/49/51 148/50/52 15/50/52
f 13/51/46 148/50/52 143/51/46
f 148/50/52 13/51/46 15/50/52
f 10/50/45 143/51/46 139/50/45
f 143/51/46 10/50/45 13/51/46
f 10/50/45 137/49/48 9/49/48
f 137/49/48 10/50/45 139/50/45
f 9/49/48 138/48/47 11/48/47
f 138/48/47 9/49/48 137/49/48
f 12/52/50 138/48/47 145/52/50
f 138/48/47 12/52/50 11/48/47
f 14/48/49 145/52/50 149/48/49
f 145/52/50 14/48/49 12/52/50
f 20/52/50 22/48/49 169/52/50
f 173/48/49 169/52/50 22/48/49
f 19/48/47 20/52/50 162/48/47
f 169/52/50 162/48/47 20/52/50
f 161/49/48 17/49/48 162/48/47
f 19/48/47 162/48/47 17/49/48
f 163/50/45 18/50/45 161/49/48
f 17/49/48 161/49/48 18/50/45
f 21/51/46 18/50/45 167/51/46
f 163/50/45 167/51/46 18/50/45
f 23/50/52 21/51/46 172/50/52
f 167/51/46 172/50/52 21/51/46
f 23/50/52 172/50/52 24/49/51
f 176/49/51 24/49/51 172/50/52
f 24/49/51 176/49/51 22/48/49
f 173/48/49 22/48/49 176/49/51
f 28/52/50 30/48/49 193/52/50
f 197/48/49 193/52/50 30/48/49
f 27/48/47 28/52/50 186/48/47
f 193/52/50 186/48/47 28/52/50
f 185/49/48 25/49/48 186/48/47
f 27/48/47 186/48/47 25/49/48
f 187/50/45 26/50/45 185/49/48
f 25/49/48 185/49/48 26/50/45
f 29/51/46 26/50/45 191/51/46
f 187/50/45 191/51/46 26/50/45
f 31/50/52 29/51/46 196/50/52
f 191/51/46 196/50/52 29/51/46
f 31/50/52 196/50/52 32/49/51
f 200/49/51 32/49/51 196/50/52
f 32/49/51 200/49/51 30/48/49
f 197/48/49 30/48/49 200/49/51
f 227/54/79 226/54/78 225/53/77
f 226/54/78 227/54/79 228/55/80
f 226/54/78 228/55/80 229/55/81
f 229/55/81 228/55/80 230/56/82
f 229/55/81 230/56/82 231/56/83
f 231/56/83 230/56/82 232/57/84
f 69/58/85 228/55/80 227/54/79
f 228/55/80 69/58/85 72/55/86
f 229/55/81 70/58/87 226/54/78
f 70/58/87 229/55/81 74/55/88
f 226/54/78 68/59/89 225/53/77
f 68/59/89 226/54/78 70/58/87
f 227/54/79 68/59/89 69/58/85
f 68/59/89 227/54/79 225/53/77
f 75/60/90 229/55/81 231/56/83
f 229/55/81 75/60/90 74/55/88
f 75/60/90 232/57/84 79/61/91
f 232/57/84 75/60/90 231/56/83
f 79/61/91 230/56/82 78/60/92
f 230/56/82 79/61/91 232/57/84
f 228/55/80 78/60/92 230/56/82
f 78/60/92 228/55/80 72/55/86
f 3/3/1 2/2/1 1/1/1
f 2/2/1 3/3/1 4/4/1
f 2/2/1 4/4/1 5/5/1
f 5/5/1 4/4/1 6/3/1
f 5/5/1 6/3/1 7/2/1
f 7/2/1 6/3/1 8/1/1
f 11/3/1 10/2/1 9/1/1
f 10/2/1 11/3/1 12/4/1
f 10/2/1 12/4/1 13/5/1
f 13/5/1 12/4/1 14/3/1
f 13/5/1 14/3/1 15/2/1
f 15/2/1 14/3/1 16/1/1
f 24/1/2 22/3/2 23/2/2
f 23/2/2 22/3/2 21/5/2
f 22/3/2 20/4/2 21/5/2
f 21/5/2 20/4/2 18/2/2
f 20/4/2 19/3/2 18/2/2
f 17/1/2 18/2/2 19/3/2
f 32/1/2 30/3/2 31/2/2
f 31/2/2 30/3/2 29/5/2
f 30/3/2 28/4/2 29/5/2
f 29/5/2 28/4/2 26/2/2
f 28/4/2 27/3/2 26/2/2
f 25/1/2 26/2/2 27/3/2
f 35/7/3 34/7/3 33/6/3
f 34/7/3 35/7/3 36/8/3
f 36/8/3 35/7/3 37/9/3
f 38/9/3 34/7/3 36/8/3
f 37/9/3 35/7/3 39/10/3
f 37/9/3 39/10/3 40/10/3
f 34/7/3 38/9/3 41/10/3
f 41/10/3 38/9/3 42/10/3
f 41/10/3 42/10/3 43/11/3
f 40/10/3 39/10/3 44/12/3
f 41/10/3 43/11/3 45/12/3
f 40/10/3 44/12/3 46/11/3
f 45/12/3 44/12/3 47/13/3
f 45/12/3 43/11/3 48/14/3
f 46/11/3 44/12/3 48/14/3
f 48/14/3 44/12/3 45/12/3
f 50/6/6 34/7/5 49/15/4
f 34/7/5 50/6/6 33/6/7
f 41/10/8 49/15/4 34/7/5
f 49/15/4 41/10/8 51/10/9
f 45/12/10 51/10/9 41/10/8
f 51/10/9 45/12/10 52/16/11
f 45/12/10 53/5/12 52/16/11
f 53/5/12 45/12/10 47/13/13
f 44/12/14 53/5/12 47/13/13
f 53/5/12 44/12/14 54/16/15
f 55/15/18 39/10/17 35/7/16
f 39/10/17 55/15/18 56/10/19
f 55/15/18 33/6/7 50/6/6
f 33/6/7 55/15/18 35/7/16
f 57/7/20 50/6/6 49/15/4
f 50/6/6 57/7/20 58/6/21
f 56/10/19 44/12/14 39/10/17
f 44/12/14 56/10/19 54/16/15
f 59/7/22 50/6/6 58/6/21
f 50/6/6 59/7/22 55/15/18
f 55/15/18 60/10/23 56/10/19
f 60/10/23 55/15/18 59/7/22
f 52/16/11 61/10/24 51/10/9
f 61/10/24 52/16/11 62/12/25
f 54/16/15 63/13/26 53/5/12
f 63/13/26 54/16/15 64/12/27
f 60/10/23 54/16/15 56/10/19
f 54/16/15 60/10/23 64/12/27
f 53/5/12 62/12/25 52/16/11
f 62/12/25 53/5/12 63/13/26
f 61/10/24 49/15/4 51/10/9
f 49/15/4 61/10/24 57/7/20
f 67/17/28 66/17/28 65/6/28
f 66/17/28 67/17/28 68/18/28
f 68/18/28 67/17/28 69/19/28
f 70/19/28 66/17/28 68/18/28
f 69/19/28 67/17/28 71/10/28
f 69/19/28 71/10/28 72/10/28
f 66/17/28 70/19/28 73/10/28
f 73/10/28 70/19/28 74/10/28
f 73/10/28 74/10/28 75/20/28
f 72/10/28 71/10/28 76/21/28
f 73/10/28 75/20/28 77/21/28
f 72/10/28 76/21/28 78/20/28
f 77/21/28 75/20/28 79/22/28
f 78/20/28 76/21/28 79/22/28
f 77/21/28 79/22/28 76/21/28
f 77/21/28 76/21/28 80/23/28
f 81/24/29 80/23/30 76/21/29
f 80/23/30 81/24/29 82/25/30
f 83/24/31 80/23/30 82/25/30
f 80/23/30 83/24/31 77/21/31
f 65/6/33 84/26/32 67/17/32
f 84/26/32 65/6/33 85/6/33
f 66/17/34 85/6/33 65/6/33
f 85/6/33 66/17/34 86/26/34
f 66/17/34 87/10/35 86/26/34
f 87/10/35 66/17/34 73/10/35
f 87/10/35 77/21/31 83/24/31
f 77/21/31 87/10/35 73/10/35
f 88/10/36 67/17/32 84/26/32
f 67/17/32 88/10/36 71/10/36
f 76/21/29 88/10/36 81/24/29
f 88/10/36 76/21/29 71/10/36
f 91/28/3 90/28/3 89/27/3
f 90/28/3 91/28/3 92/10/3
f 90/28/3 92/10/3 93/10/3
f 93/10/3 92/10/3 94/29/3
f 93/10/3 94/29/3 95/29/3
f 95/29/3 94/29/3 96/30/3
f 36/8/37 91/28/38 89/27/37
f 91/28/38 36/8/37 37/9/38
f 95/29/39 48/14/40 43/11/39
f 48/14/40 95/29/39 96/30/40
f 42/10/41 90/28/42 93/10/41
f 90/28/42 42/10/41 38/9/42
f 94/29/43 48/14/40 96/30/40
f 48/14/40 94/29/43 46/11/43
f 36/8/37 90/28/42 38/9/42
f 90/28/42 36/8/37 89/27/37
f 95/29/39 42/10/41 93/10/41
f 42/10/41 95/29/39 43/11/39
f 91/28/38 40/10/44 92/10/44
f 40/10/44 91/28/38 37/9/38
f 40/10/44 94/29/43 92/10/44
f 94/29/43 40/10/44 46/11/43
f 88/10/3 57/7/3 61/10/3
f 88/10/3 61/10/3 62/12/3
f 84/26/3 57/7/3 88/10/3
f 88/10/3 62/12/3 81/24/3
f 84/26/3 58/6/3 57/7/3
f 58/6/3 84/26/3 85/6/3
f 86/26/3 58/6/3 85/6/3
f 58/6/3 86/26/3 59/7/3
f 59/7/3 86/26/3 87/10/3
f 59/7/3 87/10/3 60/10/3
f 81/24/3 62/12/3 63/13/3
f 81/24/3 63/13/3 82/25/3
f 60/10/3 87/10/3 83/24/3
f 63/13/3 83/24/3 82/25/3
f 60/10/3 83/24/3 64/12/3
f 64/12/3 83/24/3 63/13/3
f 99/33/2 98/32/2 97/31/2
f 98/32/2 99/33/2 100/5/2
f 98/32/2 100/5/2 101/6/2
f 101/6/2 100/5/2 102/33/2
f 101/6/2 102/33/2 103/32/2
f 103/32/2 102/33/2 104/31/2
f 105/33/45 100/5/46 99/33/45
f 100/5/46 105/33/45 106/5/46
f 107/32/47 97/31/48 98/32/47
f 97/31/48 107/32/47 108/31/48
f 109/32/49 101/6/50 103/32/49
f 101/6/50 109/32/49 110/6/50
f 110/6/50 98/32/47 101/6/50
f 98/32/47 110/6/50 107/32/47
f 107/32/1 105/33/1 108/31/1
f 105/33/1 107/32/1 110/6/1
f 105/33/1 110/6/1 106/5/1
f 106/5/1 110/6/1 109/32/1
f 106/5/1 109/32/1 111/33/1
f 111/33/1 109/32/1 112/31/1
f 104/31/51 109/32/49 103/32/49
f 109/32/49 104/31/51 112/31/51
f 102/33/52 112/31/51 104/31/51
f 112/31/51 102/33/52 111/33/52
f 106/5/46 102/33/52 100/5/46
f 102/33/52 106/5/46 111/33/52
f 108/31/48 99/33/45 97/31/48
f 99/33/45 108/31/48 105/33/45
f 115/36/2 114/35/2 113/34/2
f 114/35/2 115/36/2 116/34/2
f 116/34/2 115/36/2 117/37/2
f 118/38/2 114/35/2 116/34/2
f 117/37/2 115/36/2 119/39/2
f 117/37/2 119/39/2 120/40/2
f 114/35/2 118/38/2 121/41/2
f 121/41/2 118/38/2 122/42/2
f 121/41/2 122/42/2 123/38/2
f 120/40/2 119/39/2 124/36/2
f 121/41/2 123/38/2 125/35/2
f 120/40/2 124/36/2 126/37/2
f 125/35/2 123/38/2 127/34/2
f 126/37/2 124/36/2 127/34/2
f 125/35/2 127/34/2 124/36/2
f 125/35/2 124/36/2 128/34/2
f 131/44/2 130/43/2 129/34/2
f 130/43/2 131/44/2 132/45/2
f 130/43/2 132/45/2 133/46/2
f 133/46/2 132/45/2 134/44/2
f 133/46/2 134/44/2 135/43/2
f 135/43/2 134/44/2 136/34/2
f 122/42/53 130/43/54 133/46/53
f 130/43/54 122/42/53 118/38/54
f 117/37/55 132/45/56 131/44/55
f 132/45/56 117/37/55 120/40/56
f 116/34/57 130/43/54 118/38/54
f 130/43/54 116/34/57 129/34/57
f 123/38/58 133/46/53 135/43/58
f 133/46/53 123/38/58 122/42/53
f 117/37/55 129/34/57 116/34/57
f 129/34/57 117/37/55 131/44/55
f 136/34/59 126/37/60 127/34/59
f 126/37/60 136/34/59 134/44/60
f 135/43/58 127/34/59 123/38/58
f 127/34/59 135/43/58 136/34/59
f 120/40/56 134/44/60 132/45/56
f 134/44/60 120/40/56 126/37/60
f 139/36/2 138/35/2 137/34/2
f 138/35/2 139/36/2 140/34/2
f 140/34/2 139/36/2 141/37/2
f 142/38/2 138/35/2 140/34/2
f 141/37/2 139/36/2 143/39/2
f 141/37/2 143/39/2 144/40/2
f 138/35/2 142/38/2 145/41/2
f 145/41/2 142/38/2 146/42/2
f 145/41/2 146/42/2 147/38/2
f 144/40/2 143/39/2 148/36/2
f 145/41/2 147/38/2 149/35/2
f 144/40/2 148/36/2 150/37/2
f 149/35/2 147/38/2 151/34/2
f 150/37/2 148/36/2 151/34/2
f 149/35/2 151/34/2 148/36/2
f 149/35/2 148/36/2 152/34/2
f 155/44/2 154/43/2 153/34/2
f 154/43/2 155/44/2 156/45/2
f 154/43/2 156/45/2 157/46/2
f 157/46/2 156/45/2 158/44/2
f 157/46/2 158/44/2 159/43/2
f 159/43/2 158/44/2 160/34/2
f 146/42/53 154/43/54 157/46/53
f 154/43/54 146/42/53 142/38/54
f 141/37/55 156/45/56 155/44/55
f 156/45/56 141/37/55 144/40/56
f 140/34/57 154/43/54 142/38/54
f 154/43/54 140/34/57 153/34/57
f 147/38/58 157/46/53 159/43/58
f 157/46/53 147/38/58 146/42/53
f 141/37/55 153/34/57 140/34/57
f 153/34/57 141/37/55 155/44/55
f 160/34/59 150/37/60 151/34/59
f 150/37/60 160/34/59 158/44/60
f 159/43/58 151/34/59 147/38/58
f 151/34/59 159/43/58 160/34/59
f 144/40/56 158/44/60 156/45/56
f 158/44/60 144/40/56 150/37/60
f 174/37/68 168/40/64 182/44/68
f 180/45/64 182/44/68 168/40/64
f 184/34/67 183/43/66 175/34/67
f 171/38/66 175/34/67 183/43/66
f 182/44/68 184/34/67 174/37/68
f 175/34/67 174/37/68 184/34/67
f 179/44/63 165/37/63 177/34/65
f 164/34/65 177/34/65 165/37/63
f 170/42/61 171/38/66 181/46/61
f 183/43/66 181/46/61 171/38/66
f 177/34/65 164/34/65 178/43/62
f 166/38/62 178/43/62 164/34/65
f 168/40/64 165/37/63 180/45/64
f 179/44/63 180/45/64 165/37/63
f 166/38/62 170/42/61 178/43/62
f 181/46/61 178/43/62 170/42/61
f 184/34/1 182/44/1 183/43/1
f 183/43/1 182/44/1 181/46/1
f 182/44/1 180/45/1 181/46/1
f 181/46/1 180/45/1 178/43/1
f 180/45/1 179/44/1 178/43/1
f 177/34/1 178/43/1 179/44/1
f 176/34/1 172/36/1 173/35/1
f 172/36/1 175/34/1 173/35/1
f 175/34/1 172/36/1 174/37/1
f 175/34/1 171/38/1 173/35/1
f 174/37/1 172/36/1 168/40/1
f 173/35/1 171/38/1 169/41/1
f 172/36/1 167/39/1 168/40/1
f 171/38/1 170/42/1 169/41/1
f 170/42/1 166/38/1 169/41/1
f 169/41/1 166/38/1 162/35/1
f 168/40/1 167/39/1 165/37/1
f 167/39/1 163/36/1 165/37/1
f 164/34/1 162/35/1 166/38/1
f 165/37/1 163/36/1 164/34/1
f 164/34/1 163/36/1 162/35/1
f 161/34/1 162/35/1 163/36/1
f 198/37/68 192/40/64 206/44/68
f 204/45/64 206/44/68 192/40/64
f 208/34/67 207/43/66 199/34/67
f 195/38/66 199/34/67 207/43/66
f 206/44/68 208/34/67 198/37/68
f 199/34/67 198/37/68 208/34/67
f 203/44/63 189/37/63 201/34/65
f 188/34/65 201/34/65 189/37/63
f 194/42/61 195/38/66 205/46/61
f 207/43/66 205/46/61 195/38/66
f 201/34/65 188/34/65 202/43/62
f 190/38/62 202/43/62 188/34/65
f 192/40/64 189/37/63 204/45/64
f 203/44/63 204/45/64 189/37/63
f 190/38/62 194/42/61 202/43/62
f 205/46/61 202/43/62 194/42/61
f 208/34/1 206/44/1 207/43/1
f 207/43/1 206/44/1 205/46/1
f 206/44/1 204/45/1 205/46/1
f 205/46/1 204/45/1 202/43/1
f 204/45/1 203/44/1 202/43/1
f 201/34/1 202/43/1 203/44/1
f 200/34/1 196/36/1 197/35/1
f 196/36/1 199/34/1 197/35/1
f 199/34/1 196/36/1 198/37/1
f 199/34/1 195/38/1 197/35/1
f 198/37/1 196/36/1 192/40/1
f 197/35/1 195/38/1 193/41/1
f 196/36/1 191/39/1 192/40/1
f 195/38/1 194/42/1 193/41/1
f 194/42/1 190/38/1 193/41/1
f 193/41/1 190/38/1 186/35/1
f 192/40/1 191/39/1 189/37/1
f 191/39/1 187/36/1 189/37/1
f 188/34/1 186/35/1 190/38/1
f 189/37/1 187/36/1 188/34/1
f 188/34/1 187/36/1 186/35/1
f 185/34/1 186/35/1 187/36/1
f 211/47/69 210/41/70 209/41/69
f 210/41/70 211/47/69 212/47/70
f 215/47/72 214/41/71 213/47/71
f 214/41/71 215/47/72 216/41/72
f 212/47/70 217/41/73 210/41/70
f 217/41/73 212/47/70 218/47/73
f 215/47/72 209/41/69 216/41/72
f 209/41/69 215/47/72 211/47/69
f 221/47/74 220/41/75 219/41/74
f 220/41/75 221/47/74 222/47/75
f 217/41/73 224/47/76 223/41/76
f 224/47/76 217/41/73 218/47/73
f 222/47/75 214/41/71 220/41/75
f 214/41/71 222/47/75 213/47/71
f 224/47/76 219/41/74 223/41/76
f 219/41/74 224/47/76 221/47/74
f 209/41/50 214/41/50 216/41/50
f 214/41/50 209/41/50 220/41/50
f 220/41/50 209/41/50 210/41/50
f 220/41/50 210/41/50 219/41/50
f 219/41/50 210/41/50 217/41/50
f 219/41/50 217/41/50 223/41/50
f 222/47/46 215/47/46 213/47/46
f 215/47/46 222/47/46 211/47/46
f 211/47/46 222/47/46 221/47/46
f 211/47/46 221/47/46 212/47/46
f 212/47/46 221/47/46 224/47/46
f 212/47/46 224/47/46 218/47/46
f 128/49/51 6/48/49 125/48/49
f 6/48/49 128/49/51 8/49/51
f 124/50/52 8/49/51 128/49/51
f 8/49/51 124/50/52 7/50/52
f 5/51/46 124/50/52 119/51/46
f 124/50/52 5/51/46 7/50/52
f 2/50/45 119/51/46 115/50/45
f 119/51/46 2/50/45 5/51/46
f 2/50/45 113/49/48 1/49/48
f 113/49/48 2/50/45 115/50/45
f 1/49/48 114/48/47 3/48/47
f 114/48/47 1/49/48 113/49/48
f 4/52/50 114/48/47 121/52/50
f 114/48/47 4/52/50 3/48/47
f 6/48/49 121/52/50 125/48/49
f 121/52/50 6/48/49 4/52/50
f 152/49/51 14/48/49 149/48/49
f 14/48/49 152/49/51 16/49/51
f 148/50/52 16/49/51 152/49/51
f 16/49/51 148/50/52 15/50/52
f 13/51/46 148/50/52 143/51/46
f 148/50/52 13/51/46 15/50/52
f 10/50/45 143/51/46 139/50/45
f 143/51/46 10/50/45 13/51/46
f 10/50/45 137/49/48 9/49/48
f 137/49/48 10/50/45 139/50/45
f 9/49/48 138/48/47 11/48/47
f 138/48/47 9/49/48 137/49/48
f 12/52/50 138/48/47 145/52/50
f 138/48/47 12/52/50 11/48/47
f 14/48/49 145/52/50 149/48/49
f 145/52/50 14/48/49 12/52/50
f 20/52/50 22/48/49 169/52/50
f 173/48/49 169/52/50 22/48/49
f 19/48/47 20/52/50 162/48/47
f 169/52/50 162/48/47 20/52/50
f 161/49/48 17/49/48 162/48/47
f 19/48/47 162/48/47 17/49/48
f 163/50/45 18/50/45 161/49/48
f 17/49/48 161/49/48 18/50/45
f 21/51/46 18/50/45 167/51/46
f 163/50/45 167/51/46 18/50/45
f 23/50/52 21/51/46 172/50/52
f 167/51/46 172/50/52 21/51/46
f 23/50/52 172/50/52 24/49/51
f 176/49/51 24/49/51 172/50/52
f 24/49/51 176/49/51 22/48/49
f 173/48/49 22/48/49 176/49/51
f 28/52/50 30/48/49 193/52/50
f 197/48/49 193/52/50 30/48/49
f 27/48/47 28/52/50 186/48/47
f 193/52/50 186/48/47 28/52/50
f 185/49/48 25/49/48 186/48/47
f 27/48/47 186/48/47 25/49/48
f 187/50/45 26/50/45 185/49/48
f 25/49/48 185/49/48 26/50/45
f 29/51/46 26/50/45 191/51/46
f 187/50/45 191/51/46 26/50/45
f 31/50/52 29/51/46 196/50/52
f 191/51/46 196/50/52 29/51/46
f 31/50/52 196/50/52 32/49/51
f 200/49/51 32/49/51 196/50/52
f 32/49/51 200/49/51 30/48/49
f 197/48/49 30/48/49 200/49/51
f 227/54/79 226/54/78 225/53/77
f 226/54/78 227/54/79 228/55/80
f 226/54/78 228/55/80 229/55/81
f 229/55/81 228/55/80 230/56/82
f 229/55/81 230/56/82 231/56/83
f 231/56/83 230/56/82 232/57/84
f 69/58/85 228/55/80 227/54/79
f 228/55/80 69/58/85 72/55/86
f 229/55/81 70/58/87 226/54/78
f 70/58/87 229/55/81 74/55/88
f 226/54/78 68/59/89 225/53/77
f 68/59/89 226/54/78 70/58/87
f 227/54/79 68/59/89 69/58/85
f 68/59/89 227/54/79 225/53/77
f 75/60/90 229/55/81 231/56/83
f 229/55/81 75/60/90 74/55/88
f 75/60/90 232/57/84 79/61/91
f 232/57/84 75/60/90 231/56/83
f 79/61/91 230/56/82 78/60/92
f 230/56/82 79/61/91 232/57/84
f 228/55/80 78/60/92 230/56/82
f 78/60/92 228/55/80 72/55/86
f 235/39/93 234/39/94 233/39/93
f 234/39/94 235/39/93 236/39/94
f 238/41/51 236/39/51 237/41/51
f 236/39/51 238/41/51 234/39/51
f 241/62/95 240/41/95 239/62/95
f 240/41/95 241/62/95 238/41/95
f 238/41/95 241/62/95 233/39/95
f 238/41/95 233/39/95 234/39/95
f 235/39/93 241/62/93 242/62/93
f 241/62/93 235/39/93 233/39/93
f 244/62/48 240/41/48 243/41/48
f 240/41/48 244/62/48 239/62/48
f 237/41/96 244/62/96 243/41/96
f 244/62/96 237/41/96 242/62/96
f 242/62/96 237/41/96 235/39/96
f 235/39/96 237/41/96 236/39/96
f 244/62/94 241/62/93 239/62/94
f 241/62/93 244/62/94 242/62/93
f 247/62/48 246/41/48 245/41/48
f 246/41/48 247/62/48 248/62/48
f 251/41/51 250/39/51 249/41/51
f 250/39/51 251/41/51 252/39/51
f 249/41/97 247/62/97 245/41/97
f 247/62/97 249/41/97 253/62/97
f 253/62/97 249/41/97 254/39/97
f 254/39/97 249/41/97 250/39/97
f 255/62/98 246/41/98 248/62/98
f 246/41/98 255/62/98 251/41/98
f 251/41/98 255/62/98 256/39/98
f 251/41/98 256/39/98 252/39/98
f 254/39/99 252/39/100 256/39/99
f 252/39/100 254/39/99 250/39/100
f 247/62/100 255/62/99 248/62/100
f 255/62/99 247/62/100 253/62/99
f 254/39/99 255/62/99 253/62/99
f 255/62/99 254/39/99 256/39/99
